<svg width="30" height="30" viewBox="0 0 30 30" fill="none" xmlns="http://www.w3.org/2000/svg">
<path d="M10 15.0018C10 14.0129 10.2932 13.0462 10.8427 12.2239C11.3921 11.4017 12.173 10.7609 13.0866 10.3824C14.0003 10.004 15.0055 9.90495 15.9755 10.0979C16.9454 10.2908 17.8363 10.767 18.5355 11.4663C19.2348 12.1655 19.711 13.0565 19.9039 14.0264C20.0969 14.9963 19.9978 16.0016 19.6194 16.9152C19.241 17.8288 18.6001 18.6098 17.7779 19.1592C16.9556 19.7086 15.9889 20.0018 15 20.0018C13.6739 20.0018 12.4022 19.475 11.4645 18.5373C10.5268 17.5996 10 16.3279 10 15.0018ZM7.29538 15.0018C7.29538 16.5253 7.74711 18.0145 8.59351 19.2813C9.43991 20.548 10.643 21.5353 12.0505 22.1183C13.458 22.7013 15.0067 22.8539 16.501 22.5566C17.9952 22.2594 19.3677 21.5258 20.445 20.4485C21.5222 19.3713 22.2559 17.9987 22.5531 16.5045C22.8503 15.0103 22.6977 13.4616 22.1147 12.0541C21.5317 10.6465 20.5444 9.44349 19.2777 8.59709C18.011 7.75069 16.5217 7.29896 14.9982 7.29896C13.9867 7.29884 12.9849 7.49798 12.0503 7.88505C11.1157 8.27211 10.2665 8.83952 9.55124 9.55482C8.83594 10.2701 8.26853 11.1193 7.88147 12.0539C7.49441 12.9885 7.29527 13.9902 7.29538 15.0018ZM21.2054 6.99423C21.2054 7.35085 21.3112 7.69946 21.5093 7.99598C21.7074 8.2925 21.989 8.52362 22.3185 8.66009C22.648 8.79656 23.0105 8.83223 23.3603 8.76266C23.71 8.69309 24.0313 8.52135 24.2835 8.26919C24.5357 8.01702 24.7074 7.69578 24.777 7.34601C24.8465 6.99624 24.8108 6.63367 24.6743 6.3042C24.5379 5.97472 24.3067 5.69311 24.0102 5.49498C23.7137 5.29685 23.3651 5.19112 23.0085 5.19112C22.5303 5.19112 22.0717 5.38106 21.7335 5.71921C21.3954 6.05736 21.2054 6.51601 21.2054 6.99423ZM8.93891 27.2088C7.98789 27.198 7.04584 27.0236 6.15403 26.6931C5.50714 26.4433 4.91961 26.061 4.42929 25.5707C3.93896 25.0804 3.55666 24.4929 3.30691 23.846C2.97644 22.9542 2.8017 22.0121 2.79033 21.0611C2.7182 19.4798 2.70019 19.0047 2.70019 15C2.70019 10.9953 2.7155 10.5202 2.79033 8.93885C2.8017 7.98782 2.97644 7.04582 3.30691 6.15397C3.55652 5.507 3.93878 4.91947 4.42912 4.42912C4.91947 3.93878 5.50706 3.55646 6.15403 3.30686C7.04587 2.97638 7.98787 2.80165 8.93891 2.79027C10.5202 2.71815 10.9953 2.70014 15 2.70014C19.0047 2.70014 19.4798 2.71544 21.062 2.79027C22.0131 2.80174 22.9551 2.97647 23.847 3.30686C24.494 3.55631 25.0816 3.93854 25.572 4.4289C26.0623 4.91926 26.4446 5.50692 26.694 6.15397C27.0246 7.04579 27.1994 7.98781 27.2106 8.93885C27.2827 10.5211 27.3008 10.9953 27.3008 15C27.3008 19.0047 27.2863 19.4798 27.2106 21.0611C27.1994 22.0121 27.0246 22.9542 26.694 23.846C26.4444 24.493 26.0622 25.0805 25.5718 25.5709C25.0815 26.0612 24.4939 26.4435 23.847 26.6931C22.9551 27.0235 22.013 27.198 21.062 27.2088C19.4807 27.2818 19.0056 27.2989 15 27.2989C10.9944 27.2989 10.5202 27.2836 8.93891 27.2088ZM8.81538 0.0901331C7.57089 0.114595 6.33959 0.350255 5.17401 0.787041C4.17756 1.17239 3.27263 1.76167 2.51718 2.51712C1.76173 3.27257 1.17244 4.17756 0.787096 5.17401C0.350242 6.33957 0.114581 7.57088 0.0901881 8.81538C0.0171625 10.4147 0 10.9259 0 15C0 19.0741 0.0171625 19.5844 0.0901881 21.1846C0.114508 22.4288 0.350174 23.6599 0.787096 24.8251C1.17244 25.8216 1.76173 26.7265 2.51718 27.4819C3.27263 28.2374 4.17756 28.8267 5.17401 29.212C6.33962 29.6487 7.5709 29.8843 8.81538 29.9089C10.4156 29.982 10.9259 29.9991 15 29.9991C19.0741 29.9991 19.5844 29.982 21.1847 29.9089C22.4291 29.8842 23.6604 29.6486 24.826 29.212C25.8225 28.8266 26.7274 28.2373 27.4828 27.4819C28.2383 26.7264 28.8276 25.8215 29.213 24.8251C29.6495 23.6598 29.8852 22.4288 29.9099 21.1846C29.9829 19.5844 30 19.0741 30 15C30 10.9259 29.9829 10.4156 29.9099 8.81538C29.8851 7.57092 29.6494 6.33967 29.213 5.17401C28.8276 4.17756 28.2383 3.27257 27.4829 2.51712C26.7274 1.76167 25.8225 1.17239 24.826 0.787041C23.6604 0.350373 22.4292 0.114717 21.1847 0.0901331C19.5844 0.0171075 19.0741 0 15 0C10.9259 0 10.4156 0.0171075 8.81538 0.0901331Z" fill="white"/>
</svg>
