<svg width="30" height="28" viewBox="0 0 30 28" fill="none" xmlns="http://www.w3.org/2000/svg">
<path d="M11.9239 10.1691L10.9935 12.8609H12.7858L11.9239 10.1691ZM11.9239 10.1691L10.9935 12.8609H12.7858L11.9239 10.1691ZM15 0.21875C6.7148 0.21875 0 5.52862 0 12.078C0 16.3401 2.84371 20.0743 7.11567 22.169C6.8028 23.3385 5.98075 26.4108 5.81453 27.0689C5.61221 27.8842 6.11537 27.8729 6.44329 27.6541C6.70126 27.4833 10.5535 24.863 12.2165 23.7326C13.1378 23.8689 14.0679 23.9373 14.9992 23.9372C23.2822 23.9372 29.9992 18.6273 29.9992 12.078C29.9992 5.52862 23.2829 0.21875 15 0.21875ZM7.68427 15.1338C7.68427 15.8543 6.08153 15.8453 6.07927 15.1247C6.0883 14.1372 6.07927 9.89534 6.07927 9.89534H4.53445C4.34885 9.87968 4.1759 9.79489 4.04985 9.65775C3.92381 9.52062 3.85386 9.34116 3.85386 9.1549C3.85386 8.96864 3.92381 8.78917 4.04985 8.65204C4.1759 8.51491 4.34885 8.43011 4.53445 8.41445C4.53445 8.41445 8.14982 8.44453 9.2321 8.44453C9.43247 8.44453 9.62463 8.52413 9.76631 8.66581C9.90799 8.80749 9.98759 8.99965 9.98759 9.20002C9.98759 9.40039 9.90799 9.59255 9.76631 9.73423C9.62463 9.87592 9.43247 9.95551 9.2321 9.95551C8.2145 9.95551 7.6963 9.951 7.6963 9.951L7.68427 15.1338ZM13.586 15.318C13.21 14.3252 13.31 14.2816 13.31 14.2816H10.4844L10.1737 15.3617C9.84431 16.119 8.42359 15.5023 8.75526 14.7442C9.20653 13.6965 10.5814 9.74492 10.9612 8.90933C11.0448 8.75569 11.1715 8.62984 11.3257 8.54726C11.4799 8.46468 11.6549 8.42897 11.8291 8.44453C12.0238 8.4303 12.2189 8.46543 12.3964 8.54669C12.5739 8.62794 12.728 8.75267 12.8445 8.90933C13.1182 9.49222 14.6202 13.616 15.0526 14.7607C15.3535 15.5617 13.8899 16.1145 13.586 15.318ZM19.3156 15.6798C18.5906 15.6798 16.9532 15.6866 16.2162 15.6866C15.4791 15.6866 15.6017 14.8277 15.6017 14.8277C15.6017 14.8277 15.5972 10.4985 15.5949 9.15602C15.6001 9.05347 15.6263 8.95308 15.6717 8.86102C15.7172 8.76895 15.7811 8.68718 15.8594 8.62074C15.9376 8.55429 16.0287 8.50458 16.1269 8.47466C16.2252 8.44474 16.3285 8.43526 16.4305 8.44679C16.5322 8.43527 16.6351 8.44461 16.7331 8.47425C16.831 8.5039 16.9219 8.55321 17.0001 8.61918C17.0783 8.68515 17.1422 8.76638 17.188 8.85792C17.2337 8.94945 17.2603 9.04935 17.2661 9.15151C17.2661 10.1292 17.2616 14.1274 17.2616 14.1274C17.2616 14.1274 18.586 14.1342 19.3111 14.1342C20.0361 14.1342 20.0414 15.6798 19.3156 15.6798ZM24.3013 15.5595L22.2706 12.7827L21.8028 13.1587V15.2518C21.8028 15.8761 20.2189 15.8761 20.2189 15.2518C20.2189 14.8555 20.2535 9.53208 20.2369 8.94243C20.2279 8.61752 20.6446 8.4498 21.0522 8.4498C21.432 8.4498 21.8043 8.60022 21.8118 8.90106C21.8351 9.6998 21.8118 11.1438 21.8118 11.1438C21.8118 11.1438 24.1103 8.84315 24.4367 8.51899C24.7729 8.1828 25.8183 9.235 25.4798 9.57194C24.9022 10.145 23.4349 11.732 23.4349 11.732L25.5972 14.5802C26.0071 15.1217 24.7127 16.1025 24.3005 15.558M10.9935 12.8609H12.7858L11.9239 10.1691L10.9935 12.8609ZM11.9239 10.1691L10.9935 12.8609H12.7858L11.9239 10.1691ZM11.9239 10.1691L10.9935 12.8609H12.7858L11.9239 10.1691Z" fill="#14AEFF"/>
</svg>
