<svg width="30" height="30" viewBox="0 0 30 30" fill="none" xmlns="http://www.w3.org/2000/svg">
<path d="M15.0009 0.712891C6.72725 0.712891 0 6.17051 0 12.8759C0 18.8932 5.34028 23.9409 12.5519 24.8901C13.0325 24.9931 13.6959 25.2105 13.8674 25.6227C13.9854 26.0672 14.0011 26.5326 13.9133 26.9841C13.9133 26.9841 13.7418 28.0371 13.7072 28.2627C13.6388 28.6388 13.3981 29.7505 15.0002 29.075C16.6023 28.3996 23.6394 23.983 26.7856 20.3674C27.7885 19.3018 28.6077 18.0772 29.2098 16.7435C29.732 15.521 30.0007 14.2053 29.9996 12.8759C29.9996 6.17051 23.2716 0.712891 14.9987 0.712891M9.13188 16.8691H6.15562C6.05261 16.8702 5.95041 16.8509 5.85488 16.8124C5.75935 16.7738 5.67239 16.7168 5.599 16.6445C5.5256 16.5722 5.46722 16.4861 5.42721 16.3912C5.3872 16.2963 5.36634 16.1944 5.36585 16.0914V10.1298C5.36625 9.9205 5.44959 9.71985 5.59761 9.57183C5.74563 9.42381 5.94628 9.34047 6.15562 9.34008C6.25863 9.34057 6.36052 9.36142 6.45544 9.40143C6.55036 9.44144 6.63644 9.49982 6.70872 9.57322C6.781 9.64662 6.83805 9.73358 6.8766 9.8291C6.91515 9.92463 6.93443 10.0268 6.93334 10.1298V15.3016H9.12737C9.33523 15.3016 9.53458 15.3842 9.68156 15.5312C9.82854 15.6782 9.91111 15.8775 9.91111 16.0854C9.91111 16.2932 9.82854 16.4926 9.68156 16.6396C9.53458 16.7865 9.33523 16.8691 9.12737 16.8691M12.2112 16.0914C12.2112 16.2993 12.1286 16.4986 11.9816 16.6456C11.8347 16.7926 11.6353 16.8751 11.4275 16.8751C11.2196 16.8751 11.0202 16.7926 10.8733 16.6456C10.7263 16.4986 10.6437 16.2993 10.6437 16.0914V10.1298C10.6441 9.9205 10.7274 9.71985 10.8755 9.57183C11.0235 9.42381 11.2241 9.34047 11.4335 9.34008C11.5365 9.34057 11.6384 9.36142 11.7333 9.40143C11.8282 9.44144 11.9143 9.49982 11.9866 9.57322C12.0589 9.64662 12.1159 9.73358 12.1545 9.8291C12.193 9.92463 12.2123 10.0268 12.2112 10.1298V16.0914ZM19.3852 16.0914C19.3853 16.2562 19.3333 16.4168 19.2368 16.5504C19.1402 16.684 19.004 16.7837 18.8474 16.8353C18.7695 16.8579 18.6887 16.8696 18.6075 16.8699C18.4858 16.8706 18.3656 16.8431 18.2563 16.7894C18.1471 16.7358 18.0518 16.6575 17.9779 16.5607L14.9189 12.3953V16.0914C14.9189 16.3009 14.8357 16.5017 14.6876 16.6498C14.5395 16.7979 14.3386 16.8812 14.1292 16.8812C13.9197 16.8812 13.7188 16.7979 13.5707 16.6498C13.4226 16.5017 13.3394 16.3009 13.3394 16.0914V10.1298C13.3404 9.96428 13.3927 9.8031 13.489 9.66843C13.5853 9.53376 13.7209 9.43219 13.8772 9.37769C13.9593 9.35495 14.044 9.34331 14.1292 9.34308C14.2507 9.3436 14.3705 9.37169 14.4795 9.42524C14.5886 9.47879 14.684 9.5564 14.7587 9.65222L17.814 13.8169V10.1313C17.8144 9.92201 17.8977 9.72136 18.0457 9.57334C18.1938 9.42531 18.3944 9.34198 18.6037 9.34158C18.7067 9.34207 18.8086 9.36292 18.9036 9.40293C18.9985 9.44294 19.0846 9.50133 19.1568 9.57472C19.2291 9.64812 19.2862 9.73508 19.3247 9.83061C19.3633 9.92613 19.3826 10.0283 19.3815 10.1313L19.3852 16.0914ZM24.214 12.3156C24.4235 12.3156 24.6244 12.3988 24.7725 12.5469C24.9206 12.695 25.0038 12.8959 25.0038 13.1054C25.0038 13.3148 24.9206 13.5157 24.7725 13.6638C24.6244 13.8119 24.4235 13.8951 24.214 13.8951H22.0147V15.3024H24.2118C24.4196 15.3024 24.619 15.385 24.766 15.5319C24.913 15.6789 24.9955 15.8783 24.9955 16.0861C24.9955 16.294 24.913 16.4933 24.766 16.6403C24.619 16.7873 24.4196 16.8699 24.2118 16.8699H21.2257C21.0196 16.8695 20.822 16.7874 20.6762 16.6416C20.5305 16.4959 20.4484 16.2983 20.448 16.0921V10.1298C20.4469 10.0268 20.4662 9.92463 20.5048 9.8291C20.5433 9.73358 20.6004 9.64662 20.6726 9.57322C20.7449 9.49982 20.831 9.44144 20.9259 9.40143C21.0208 9.36142 21.1227 9.34057 21.2257 9.34008H24.2118C24.4205 9.34146 24.6202 9.42524 24.7674 9.57315C24.9146 9.72107 24.9974 9.92115 24.9978 10.1298C24.9973 10.2328 24.9764 10.3347 24.9364 10.4297C24.8964 10.5246 24.838 10.6107 24.7646 10.6829C24.6912 10.7552 24.6043 10.8123 24.5088 10.8508C24.4132 10.8894 24.311 10.9087 24.208 10.9076H22.0147V12.3148L24.214 12.3156Z" fill="#14AEFF"/>
</svg>
