<svg width="30" height="26" viewBox="0 0 30 26" fill="none" xmlns="http://www.w3.org/2000/svg">
<path d="M23.6523 9.74967C23.8166 9.74466 23.9814 9.77449 24.1325 9.83919C24.2834 9.9039 24.4184 10.0018 24.528 10.124C24.6448 10.243 24.7363 10.3842 24.7982 10.5391C24.8601 10.6941 24.8905 10.8604 24.8877 11.0273C24.8904 11.194 24.86 11.3592 24.7982 11.514C24.7362 11.669 24.645 11.8116 24.528 11.9307C24.4144 12.0479 24.2777 12.1414 24.1276 12.2057C23.9776 12.2699 23.8155 12.3037 23.6523 12.305C23.4935 12.3034 23.337 12.2684 23.1917 12.2041C23.0465 12.1398 22.9156 12.0471 22.8076 11.9307C22.5774 11.6874 22.4513 11.3622 22.4593 11.0273C22.4541 10.8614 22.4828 10.6957 22.5423 10.5407C22.6019 10.3856 22.6925 10.2439 22.8076 10.124C22.9147 10.0064 23.0446 9.91179 23.1901 9.84733C23.3356 9.78292 23.4932 9.74992 23.6523 9.74967Z" fill="#14AEFF"/>
<path d="M16.7236 9.73503C16.8861 9.72743 17.0482 9.75803 17.1973 9.82292C17.3464 9.88787 17.4795 9.98524 17.5846 10.1094C17.7051 10.2266 17.8002 10.3676 17.8646 10.5228C17.9289 10.6779 17.9611 10.8448 17.959 11.0127C17.9624 11.1789 17.9307 11.3445 17.8662 11.4977C17.8017 11.6509 17.7059 11.7893 17.5846 11.903C17.4758 12.0225 17.3422 12.1168 17.194 12.1813C17.0458 12.2458 16.8853 12.2791 16.7236 12.2773C16.5641 12.2789 16.4057 12.2459 16.2598 12.1813C16.114 12.1168 15.9833 12.022 15.8773 11.903C15.7591 11.7879 15.6659 11.6489 15.6038 11.4961C15.5417 11.343 15.5113 11.1778 15.516 11.0127C15.5087 10.8454 15.5369 10.6783 15.599 10.5228C15.6612 10.3671 15.7566 10.2257 15.8773 10.1094C15.9823 9.98943 16.1124 9.89405 16.2581 9.82943C16.4043 9.76472 16.5638 9.73205 16.7236 9.73503Z" fill="#14AEFF"/>
<path d="M6.34603 9.74967C6.50848 9.74309 6.67059 9.77269 6.81966 9.83756C6.96866 9.90244 7.10118 10.0007 7.20703 10.124C7.32838 10.2403 7.42417 10.3806 7.48861 10.5358C7.55309 10.6913 7.58482 10.8591 7.58138 11.0273L7.57975 11.1527C7.56924 11.2779 7.53864 11.4007 7.49023 11.5173C7.42562 11.6727 7.33033 11.8143 7.20866 11.9307C7.0979 12.0475 6.96399 12.1398 6.81641 12.2041C6.66853 12.2685 6.50892 12.3036 6.34766 12.305C6.18854 12.3035 6.03092 12.2685 5.88542 12.2041C5.74027 12.1398 5.60921 12.0471 5.5013 11.9307C5.38245 11.8129 5.28855 11.6709 5.22624 11.5156C5.1641 11.3606 5.13395 11.1943 5.13835 11.0273C5.13237 10.86 5.1625 10.6929 5.22461 10.5374C5.28669 10.382 5.38016 10.2411 5.49967 10.124C5.60588 10.0052 5.73647 9.91029 5.88216 9.8457C6.02806 9.78111 6.18647 9.74842 6.34603 9.74967Z" fill="#14AEFF"/>
<path fill-rule="evenodd" clip-rule="evenodd" d="M26.722 0.5C27.5947 0.511043 28.4279 0.865502 29.0413 1.48633C29.6549 2.10747 29.9997 2.94565 30 3.81868V17.2497C30 18.1227 29.6563 18.9607 29.043 19.582C28.4294 20.2034 27.5951 20.5589 26.722 20.57H17.4723C17.4472 20.6346 15.5511 25.5 14.9023 25.5C14.2659 25.4963 12.504 20.6216 12.4854 20.57H3.27799C2.40483 20.5589 1.57053 20.2034 0.957031 19.582C0.343737 18.9607 4.55685e-05 18.1227 0 17.2497V3.81868C0.000274708 2.94578 0.343681 2.10745 0.957031 1.48633C1.57051 0.865077 2.40496 0.511126 3.27799 0.5H26.722ZM23.3073 8.05534C22.9438 8.03732 22.5813 8.10233 22.2461 8.24414C21.9107 8.38613 21.6106 8.60186 21.3704 8.87565C20.8796 9.52472 20.6348 10.3271 20.6787 11.1396C20.6356 11.8686 20.8578 12.5893 21.3037 13.1676C21.5256 13.4171 21.7994 13.6152 22.1061 13.7471C22.4133 13.8791 22.7468 13.9419 23.0811 13.931C23.4176 13.963 23.7568 13.9098 24.0674 13.7764C24.3779 13.643 24.65 13.4337 24.8584 13.1676H24.873V13.5273C24.8544 13.7284 24.7949 13.9242 24.6989 14.1019C24.6028 14.2796 24.4712 14.4367 24.3132 14.5625C24.1553 14.688 23.9737 14.7806 23.7793 14.8343C23.5846 14.888 23.3804 14.9019 23.1803 14.875V16.2747C23.6299 16.3721 24.0956 16.3665 24.5426 16.2585C24.99 16.1503 25.4078 15.942 25.7633 15.6497C26.3593 15.0805 26.6097 14.2466 26.6097 12.8861H26.6374L26.639 8.18066H24.8763V8.61035H24.8633C24.6551 8.41753 24.4095 8.2696 24.1423 8.17415C23.8749 8.0787 23.5906 8.03798 23.3073 8.05534ZM16.7334 8.1237C16.3428 8.12096 15.955 8.1956 15.5941 8.34505C15.2311 8.49314 14.8967 8.70511 14.6077 8.97005C14.3285 9.23506 14.1032 9.55141 13.9421 9.90104C13.7914 10.2516 13.715 10.6295 13.7191 11.0111C13.7135 11.3884 13.7901 11.7627 13.9421 12.1081C14.0994 12.4641 14.3249 12.7863 14.6077 13.0537C14.8915 13.322 15.2275 13.5295 15.5941 13.6641C15.9532 13.8207 16.3416 13.901 16.7334 13.9001C17.1339 13.8982 17.5307 13.818 17.9004 13.6641C18.267 13.5296 18.6029 13.3219 18.8867 13.0537C19.1726 12.7889 19.4002 12.4661 19.554 12.1081C19.698 11.7603 19.7726 11.3875 19.7754 11.0111C19.7726 10.6303 19.6981 10.2535 19.554 9.90104C19.3949 9.55003 19.1679 9.23355 18.8867 8.97005C18.5999 8.70209 18.2652 8.48979 17.9004 8.34505C17.5298 8.19548 17.133 8.12078 16.7334 8.1237ZM3.38867 5.75065V13.5273H5.13835V13.153H5.16764C5.62069 13.4986 6.18028 13.6755 6.74967 13.6527C7.1108 13.6753 7.47297 13.6193 7.81087 13.4899C8.06436 13.3928 8.30014 13.2561 8.50911 13.0846L8.70768 12.9023C8.95406 12.6511 9.14389 12.3502 9.26595 12.0202C9.38806 11.6898 9.43958 11.3364 9.41569 10.985C9.42134 10.2607 9.1818 9.55513 8.73535 8.9847C8.52376 8.73419 8.26259 8.52966 7.96875 8.38411C7.67493 8.2386 7.35383 8.15649 7.02637 8.13997C6.36287 8.12003 5.71238 8.32529 5.18066 8.72266H5.13835V5.75065H3.38867ZM9.83236 7.52799C10.1045 7.59553 10.3438 7.75891 10.5046 7.98861C10.6653 8.21839 10.7378 8.49914 10.708 8.77799V13.5941H12.4984L12.5 8.83333C12.3608 5.75103 9.83236 5.59766 9.83236 5.59766V7.52799Z" fill="#14AEFF"/>
</svg>
