<svg width="30" height="30" viewBox="0 0 30 30" fill="none" xmlns="http://www.w3.org/2000/svg">
<path d="M22.3956 0.708008C22.8015 0.708008 23.1907 0.869287 23.4777 1.15625C23.7646 1.44322 23.9259 1.83244 23.9259 2.23828V3.03906H30.0001V29.29H-0.000854492V3.03906H6.07434V2.23828C6.07436 2.03735 6.11464 1.83798 6.19153 1.65234C6.2684 1.46694 6.38069 1.2982 6.52258 1.15625C6.6647 1.01414 6.83397 0.90113 7.01965 0.824219C7.20527 0.747365 7.40469 0.708008 7.60559 0.708008C7.8063 0.70806 8.0051 0.747457 8.19055 0.824219C8.37623 0.90113 8.54551 1.01414 8.68762 1.15625C8.82954 1.29821 8.94179 1.46692 9.01868 1.65234C9.09557 1.83798 9.13585 2.03735 9.13586 2.23828V3.03906H20.8654V2.23828C20.8654 1.83244 21.0266 1.44322 21.3136 1.15625C21.6006 0.869286 21.9898 0.708009 22.3956 0.708008ZM2.61731 8.27441V26.6719H27.3829L27.381 8.27441H2.61731ZM12.923 12.1094L16.9181 17.8506V12.1094H20.3898V22.8369H17.0763L13.0802 17.0947V22.8369H9.6095V12.1094H12.923Z" fill="#14AEFF"/>
</svg>
