<svg width="30" height="10" viewBox="0 0 30 10" fill="none" xmlns="http://www.w3.org/2000/svg">
<path d="M26.6475 7.8808C25.0789 9.00353 23.3909 9.5649 21.5887 9.5649C20.1767 9.5649 18.9027 9.25993 17.7641 8.65268C16.6255 8.04543 15.5479 7.36801 14.5287 6.62851C13.5095 5.88632 12.5089 5.2008 11.5296 4.57466C10.5502 3.94582 9.50976 3.63275 8.41095 3.63275C6.91932 3.63275 5.70638 4.06187 4.76417 4.91742C3.82195 5.77297 3.07879 6.79045 2.52939 7.96986L0 6.48277C0.666187 4.69611 1.78358 3.24141 3.35217 2.11867C4.92076 0.995939 6.60614 0.43457 8.41095 0.43457C9.82294 0.43457 11.0969 0.747641 12.2355 1.37648C13.3715 2.00532 14.4518 2.68814 15.4709 3.43033C16.4901 4.17253 17.4907 4.84725 18.4701 5.4572C19.4495 6.06715 20.4899 6.36942 21.5887 6.36942C23.0777 6.36942 24.2959 5.9403 25.2355 5.08475C26.1751 4.2292 26.9209 3.21172 27.4703 2.03231L29.9997 3.5167C29.3335 5.30606 28.2161 6.76076 26.6475 7.8808Z" fill="#14AEFF"/>
</svg>
