<svg width="30" height="22" viewBox="0 0 30 22" fill="none" xmlns="http://www.w3.org/2000/svg">
<path d="M29.3869 3.74164C29.22 3.10024 28.8857 2.51469 28.4182 2.04489C27.9507 1.57509 27.3668 1.23789 26.7262 1.06778C24.3799 0.426757 15.0069 0.426758 15.0069 0.426758C15.0069 0.426758 5.62072 0.426757 3.2744 1.06778C2.63866 1.24004 2.05947 1.5766 1.59505 2.04365C1.13062 2.5107 0.797313 3.09178 0.628636 3.72847C0.195765 6.12784 -0.0144131 8.56209 0.000783805 11.0001C-0.0144102 13.4376 0.191325 15.8715 0.615464 18.2718C0.784171 18.9116 1.11854 19.4957 1.58489 19.9651C2.05123 20.4345 2.63307 20.7728 3.27176 20.9457C5.60492 21.5735 14.9911 21.5735 14.9911 21.5735C14.9911 21.5735 24.3773 21.5735 26.7236 20.9457C27.3603 20.7708 27.9398 20.4318 28.4043 19.9625C28.8688 19.4933 29.2019 18.9102 29.3702 18.2718C29.8036 15.8725 30.0137 13.4382 29.9981 11.0001C30.0203 8.56705 29.8146 6.13721 29.3834 3.74252M11.9379 15.475V6.53844L19.7821 10.9993L11.9379 15.475Z" fill="#14AEFF"/>
</svg>
