<svg width="375" height="350" viewBox="0 0 375 350" fill="none" xmlns="http://www.w3.org/2000/svg">
<g clip-path="url(#clip0_460_15142)">
<mask id="mask0_460_15142" style="mask-type:luminance" maskUnits="userSpaceOnUse" x="-546" y="5" width="1042" height="340">
<path d="M495.584 5.06601H-545.49V344.569H495.584V5.06601Z" fill="white"/>
</mask>
<g mask="url(#mask0_460_15142)">
<mask id="mask1_460_15142" style="mask-type:luminance" maskUnits="userSpaceOnUse" x="-546" y="5" width="1042" height="340">
<path d="M495.584 5.06601H-545.49V344.569H495.584V5.06601Z" fill="white"/>
</mask>
<g mask="url(#mask1_460_15142)">
<path d="M259.734 167.752C259.734 136.024 288.663 110.303 320.391 110.303C352.119 110.303 381.047 136.025 381.047 167.752L377.84 238.192C377.84 269.921 342.14 295.641 320.391 295.641C298.642 295.641 262.941 269.921 262.941 238.192L259.734 167.752Z" stroke="#1A1818" stroke-miterlimit="10"/>
<path d="M149.908 79.508V152.69C149.908 156.684 151.495 160.514 154.319 163.339C157.143 166.163 160.973 167.75 164.967 167.75H193.053C194.364 167.748 195.657 167.457 196.843 166.898C198.028 166.339 199.075 165.525 199.91 164.515C200.745 163.505 201.348 162.323 201.674 161.054C202 159.785 202.043 158.46 201.799 157.172C199.163 143.098 191.367 130.516 179.938 121.891C168.51 113.265 154.272 109.217 140.015 110.541C125.758 111.865 112.509 118.465 102.864 129.047C93.219 139.629 87.8728 153.432 87.873 167.75V238.189C87.873 239.209 87.9 240.225 87.947 241.234C88.547 252.634 105.626 252.075 105.626 240.658V99.698C105.626 96.5558 106.875 93.5424 109.096 91.3205C111.318 89.0986 114.332 87.8503 117.474 87.85H237.194C239.204 87.4815 241.022 86.4203 242.331 84.8508C243.64 83.2813 244.357 81.3027 244.359 79.259V79.248C244.359 79.169 244.359 79.089 244.353 79.008C244.322 77.8596 244.066 76.7285 243.598 75.6793C243.13 74.6302 242.46 73.6835 241.626 72.8936C240.791 72.1036 239.81 71.4858 238.737 71.0754C237.664 70.665 236.52 70.4702 235.372 70.502L159.88 69.653C158.576 69.6379 157.282 69.8817 156.073 70.3701C154.864 70.8586 153.764 71.5821 152.837 72.4987C151.909 73.4153 151.173 74.5067 150.67 75.7099C150.167 76.9131 149.908 78.204 149.908 79.508Z" stroke="#1A1818" stroke-linecap="round" stroke-linejoin="round"/>
<path d="M270.631 161.986C271.02 162.341 271.423 162.692 271.84 163.038" stroke="#1A1818" stroke-miterlimit="10"/>
<path d="M274.312 164.929C276.057 166.153 277.879 167.263 279.768 168.252C290.168 173.724 304.525 177.111 320.388 177.111C340.026 177.111 357.365 171.923 367.729 164.011" stroke="#1A1818" stroke-miterlimit="10" stroke-dasharray="2.56 2.56"/>
<path d="M368.951 163.034C369.367 162.689 369.769 162.34 370.158 161.986" stroke="#1A1818" stroke-miterlimit="10"/>
<path d="M361.395 274.844V285.744C361.395 299.689 366.935 313.062 376.796 322.922C386.656 332.782 400.03 338.322 413.975 338.322C419.114 338.322 424.043 336.28 427.678 332.646C431.312 329.012 433.354 324.083 433.355 318.943V303.003C433.391 298.768 432.362 294.592 430.363 290.859C428.364 287.125 425.459 283.954 421.915 281.636C417.867 279.052 413.08 277.717 408.126 280.054C394.914 286.289 400.555 303.211 412.426 303.211H484.064C485.496 303.211 486.915 302.93 488.239 302.382C489.563 301.834 490.765 301.03 491.779 300.017C492.792 299.004 493.596 297.802 494.144 296.478C494.692 295.154 494.975 293.736 494.975 292.303V263.388C494.978 260.843 494.382 258.334 493.236 256.062C492.089 253.79 490.424 251.82 488.375 250.311C486.327 248.802 483.951 247.796 481.442 247.375C478.932 246.954 476.359 247.13 473.93 247.888C468.03 249.746 444.995 261.944 437.075 261.944H413.324C409.19 261.944 405.225 260.302 402.302 257.379C399.379 254.456 397.737 250.491 397.737 246.357C397.737 242.223 399.379 238.258 402.302 235.335C405.225 232.412 409.19 230.77 413.324 230.77H452.187C459.743 230.671 466.957 227.607 472.275 222.238C477.592 216.868 480.586 209.624 480.611 202.067C480.636 194.511 477.69 187.247 472.408 181.843C467.126 176.438 459.932 173.326 452.377 173.178H450.569C449.714 173.178 448.867 173.346 448.077 173.673C447.287 174 446.569 174.48 445.965 175.084C445.36 175.689 444.88 176.407 444.553 177.197C444.226 177.986 444.057 178.833 444.057 179.688C444.057 183.288 446.841 185.588 450.569 186.197C465.658 187.422 470.33 177.35 470.33 166.437V72.385C470.099 69.5761 468.796 66.9637 466.692 65.0895C464.587 63.2153 461.841 62.2233 459.025 62.319H443.143C441.975 62.3192 440.819 62.5492 439.741 62.996C438.662 63.4429 437.683 64.0977 436.857 64.9233C436.032 65.7488 435.377 66.7288 434.931 67.8073C434.484 68.8858 434.254 70.0417 434.255 71.209" stroke="#1A1818" stroke-miterlimit="10"/>
<path d="M202.773 206.741H207.487C211.176 206.772 214.703 208.259 217.3 210.878C219.897 213.498 221.354 217.037 221.354 220.725C221.354 224.414 219.897 227.953 217.3 230.572C214.703 233.192 211.176 234.679 207.487 234.71H202.773" stroke="#1A1818" stroke-miterlimit="10"/>
<path d="M87.8741 206.741H81.8121C78.1236 206.772 74.5969 208.259 71.9997 210.878C69.4025 213.498 67.9453 217.037 67.9453 220.725C67.9453 224.414 69.4025 227.953 71.9997 230.572C74.5969 233.192 78.1236 234.679 81.8121 234.71H87.3611" stroke="#1A1818" stroke-miterlimit="10"/>
<path d="M177.981 252.889C156.353 256.43 134.292 256.43 112.664 252.889V223.645C134.292 227.186 156.353 227.186 177.981 223.645V252.889Z" stroke="#1A1818" stroke-miterlimit="10" stroke-dasharray="2.63 2.63"/>
<path d="M281.732 277.175V294.449C281.673 307.542 276.431 320.079 267.152 329.316C257.873 338.553 245.313 343.739 232.22 343.739C219.126 343.739 206.566 338.553 197.287 329.316C188.008 320.079 182.766 307.542 182.707 294.449V284.429" stroke="#1A1818" stroke-miterlimit="10"/>
<path d="M344.078 198.861C344.078 198.861 308.305 194.206 321.359 224.102C334.031 253.122 318.493 260.276 307.896 254.766" stroke="#1A1818" stroke-miterlimit="10" stroke-linecap="round"/>
<path d="M329.195 216.611C329.195 216.611 338.931 229.657 357.207 216.611" stroke="#1A1818" stroke-miterlimit="10" stroke-linecap="round"/>
<path d="M206.32 34.706C218.999 32.355 234.536 36.39 253.163 55.278C273.717 76.127 256.49 81.216 256.49 81.216" stroke="#1A1818" stroke-linecap="round" stroke-linejoin="round"/>
<path d="M214.738 70.091L183.574 41.318L197.317 26.432L257.029 81.562L243.285 96.446L234.485 88.316" stroke="#1A1818" stroke-linecap="round" stroke-linejoin="round"/>
<path d="M197.787 18.8059L176.01 42.392L179.558 45.6685L201.335 22.0824L197.787 18.8059Z" stroke="#1A1818" stroke-linecap="round" stroke-linejoin="round"/>
<path d="M173.171 5.6751L160.965 18.906L164.514 22.1803L176.72 8.94944L173.171 5.6751Z" stroke="#1A1818" stroke-linecap="round" stroke-linejoin="round"/>
<path d="M173.809 12.7299L168.047 18.975L183.712 33.4279L189.474 27.1828L173.809 12.7299Z" stroke="#1A1818" stroke-linecap="round" stroke-linejoin="round"/>
<path d="M253.039 85.883L247.277 92.1281L256.811 100.924L262.573 94.6792L253.039 85.883Z" stroke="#1A1818" stroke-linecap="round" stroke-linejoin="round"/>
<path d="M259.691 97.807L273.226 110.303" stroke="#1A1818" stroke-linecap="round" stroke-linejoin="round"/>
<path d="M213.403 41.284L206.531 48.727" stroke="#1A1818" stroke-linecap="round" stroke-linejoin="round"/>
<path d="M219.651 47.054L212.779 54.497" stroke="#1A1818" stroke-linecap="round" stroke-linejoin="round"/>
<path d="M225.901 52.823L219.029 60.266" stroke="#1A1818" stroke-linecap="round" stroke-linejoin="round"/>
<path d="M232.149 58.593L225.277 66.036" stroke="#1A1818" stroke-linecap="round" stroke-linejoin="round"/>
<path d="M263.26 234.708H257.712C255.866 234.724 254.035 234.373 252.324 233.678C250.614 232.982 249.058 231.954 247.747 230.654C246.436 229.354 245.395 227.807 244.685 226.103C243.975 224.398 243.609 222.57 243.609 220.723C243.609 218.877 243.975 217.049 244.685 215.344C245.395 213.64 246.436 212.093 247.747 210.793C249.058 209.493 250.614 208.465 252.324 207.769C254.035 207.074 255.866 206.723 257.712 206.739H271.412C275.863 206.739 280.131 204.971 283.279 201.824C286.426 198.677 288.194 194.408 288.194 189.957C288.194 185.507 286.426 181.238 283.279 178.091C280.131 174.944 275.863 173.176 271.412 173.176H216.822C213.095 173.176 209.521 174.657 206.885 177.292C204.25 179.928 202.769 183.502 202.769 187.229V238.19C202.711 252.726 197.928 266.849 189.142 278.429C186.498 281.8 183.121 284.524 179.267 286.396C175.413 288.267 171.183 289.236 166.899 289.229C154.833 289.368 154.945 284.4 132.615 288.518L131.394 288.718C125.294 289.718 118.729 289.231 113.629 285.86C104.175 279.613 102.185 265.122 102.185 265.122C101.884 263.542 101.005 262.131 99.719 261.165C98.433 260.199 96.8329 259.747 95.2315 259.898C93.6301 260.049 92.1427 260.792 91.06 261.981C89.9773 263.171 89.3773 264.721 89.3772 266.33L90.2222 296.992C90.2615 298.42 90.8563 299.776 91.8801 300.772C92.9039 301.768 94.2758 302.325 95.7042 302.325H117.204C122.465 302.362 127.498 304.478 131.205 308.212C134.912 311.945 136.992 316.992 136.992 322.253C136.992 327.515 134.912 332.562 131.205 336.295C127.498 340.029 122.465 342.145 117.204 342.182C117.204 342.182 102.441 345.789 64.4682 327.56C16.5192 304.542 -3.95181 326.76 -28.3648 334.103C-28.3648 334.103 -78.8469 351.325 -137.777 320.286C-172.296 302.104 -214.224 312.836 -243.037 324.847C-269.149 335.721 -297.351 340.655 -325.604 339.292C-353.856 337.93 -381.453 330.304 -406.397 316.968C-407.186 316.547 -407.979 316.119 -408.774 315.684C-488.267 272.262 -545.048 332.134 -545.048 332.134" stroke="#1A1818" stroke-miterlimit="10"/>
<path d="M264.879 299.476C264.879 305.935 262.963 312.25 259.375 317.621C255.786 322.992 250.686 327.178 244.718 329.65C238.75 332.122 232.184 332.769 225.848 331.508C219.513 330.248 213.694 327.138 209.126 322.57C204.559 318.003 201.448 312.184 200.188 305.848C198.928 299.513 199.575 292.946 202.047 286.978C204.519 281.011 208.705 275.91 214.076 272.322C219.447 268.733 225.761 266.818 232.221 266.818C236.509 266.818 240.756 267.663 244.718 269.304C248.681 270.945 252.281 273.351 255.313 276.383C258.346 279.416 260.751 283.016 262.393 286.978C264.034 290.941 264.879 295.187 264.879 299.476Z" stroke="#1A1818" stroke-miterlimit="10"/>
<path d="M437.272 75.113C436.865 75.9779 436.666 76.9257 436.69 77.881V169.49C436.69 169.975 436.594 170.455 436.409 170.903C436.223 171.351 435.951 171.758 435.608 172.1C435.266 172.443 434.859 172.715 434.411 172.9C433.963 173.086 433.483 173.181 432.998 173.181H428.248C427.85 173.181 427.456 173.26 427.088 173.412C426.721 173.564 426.387 173.788 426.106 174.069C425.824 174.351 425.601 174.685 425.449 175.052C425.297 175.42 425.219 175.814 425.219 176.212V180.972C425.219 182.526 424.601 184.017 423.502 185.116C422.403 186.215 420.912 186.833 419.358 186.833H418.968C417.413 186.833 415.923 186.216 414.824 185.116C413.724 184.017 413.107 182.526 413.107 180.972V176.034C413.107 175.225 412.789 174.449 412.222 173.872C411.655 173.296 410.885 172.965 410.076 172.951C409.235 172.965 408.433 173.31 407.845 173.912C407.257 174.513 406.93 175.323 406.936 176.164V180.815C406.936 182.37 406.318 183.862 405.218 184.962C404.119 186.061 402.627 186.679 401.072 186.679C399.517 186.679 398.025 186.061 396.925 184.962C395.826 183.862 395.208 182.37 395.208 180.815V176.215C395.208 175.817 395.13 175.423 394.978 175.055C394.826 174.687 394.603 174.353 394.322 174.072C394.04 173.79 393.706 173.567 393.339 173.415C392.971 173.262 392.577 173.184 392.179 173.184H369.685C367.471 173.167 365.275 173.588 363.224 174.424C361.173 175.26 359.308 176.493 357.736 178.053C356.164 179.612 354.917 181.468 354.065 183.512C353.214 185.556 352.775 187.749 352.775 189.964C352.775 192.178 353.214 194.371 354.065 196.415C354.917 198.459 356.164 200.315 357.736 201.875C359.308 203.434 361.173 204.668 363.224 205.503C365.275 206.339 367.471 206.76 369.685 206.743H383.39C387.078 206.774 390.605 208.261 393.202 210.881C395.799 213.5 397.257 217.039 397.257 220.728C397.257 224.416 395.799 227.955 393.202 230.575C390.605 233.194 387.078 234.681 383.39 234.712H377.838" stroke="#1A1818" stroke-miterlimit="10"/>
<path d="M212.54 134.413L233.012 113.943C233.206 113.748 233.437 113.594 233.691 113.489C233.945 113.384 234.218 113.329 234.493 113.329C234.768 113.329 235.04 113.384 235.294 113.489C235.549 113.594 235.779 113.748 235.974 113.943L256.447 134.413C256.737 134.707 256.935 135.08 257.014 135.486C257.093 135.891 257.051 136.311 256.893 136.693C256.735 137.075 256.468 137.401 256.125 137.632C255.782 137.862 255.378 137.987 254.965 137.989H214.02C213.607 137.986 213.204 137.862 212.861 137.631C212.518 137.4 212.251 137.074 212.093 136.692C211.935 136.31 211.893 135.891 211.973 135.485C212.052 135.08 212.25 134.707 212.54 134.413Z" stroke="#1A1818" stroke-miterlimit="10"/>
<path d="M263.182 71.463H320.787C321.916 71.463 323.034 71.2406 324.078 70.8084C325.121 70.3762 326.069 69.7427 326.868 68.9441C327.666 68.1455 328.3 67.1975 328.732 66.1541C329.164 65.1107 329.387 63.9924 329.387 62.863C329.387 61.7336 329.164 60.6153 328.732 59.5719C328.3 58.5285 327.666 57.5805 326.868 56.7819C326.069 55.9833 325.121 55.3498 324.078 54.9176C323.034 54.4855 321.916 54.263 320.787 54.263H309.656C308.532 54.2629 307.42 54.484 306.382 54.9139C305.344 55.3437 304.401 55.9738 303.607 56.7681C302.812 57.5625 302.182 58.5055 301.753 59.5434C301.323 60.5813 301.101 61.6936 301.102 62.817V70.185C301.102 77.8918 304.163 85.2829 309.613 90.7325C315.062 96.182 322.453 99.2435 330.16 99.2435C337.867 99.2435 345.258 96.182 350.708 90.7325C356.157 85.2829 359.219 77.8918 359.219 70.185V43.128C359.219 42.8343 359.132 42.5471 358.969 42.3029C358.806 42.0586 358.574 41.8682 358.303 41.7557C358.031 41.6433 357.733 41.6139 357.445 41.6713C357.157 41.7287 356.892 41.8702 356.685 42.078L348.399 50.362C348.131 50.6275 347.948 50.9667 347.873 51.3365C347.798 51.7064 347.836 52.09 347.98 52.4386C348.124 52.7872 348.369 53.0849 348.683 53.2939C348.997 53.5029 349.366 53.6136 349.744 53.612H437.944C438.668 53.6117 439.385 53.7542 440.054 54.0312C440.724 54.3081 441.332 54.7143 441.844 55.2263C442.356 55.7384 442.763 56.3463 443.04 57.0154C443.317 57.6846 443.46 58.4017 443.46 59.126V62.32" stroke="#1A1818" stroke-linecap="round" stroke-linejoin="round"/>
<g style="mix-blend-mode:multiply">
<mask id="mask2_460_15142" style="mask-type:luminance" maskUnits="userSpaceOnUse" x="49" y="140" width="55" height="55">
<path d="M103.242 140.934H49.9238V194.251H103.242V140.934Z" fill="white"/>
</mask>
<g mask="url(#mask2_460_15142)">
<path d="M103.242 167.593C103.242 172.866 101.678 178.02 98.749 182.404C95.8197 186.788 91.6561 190.205 86.7848 192.223C81.9135 194.24 76.5533 194.768 71.3819 193.74C66.2106 192.711 61.4604 190.172 57.7321 186.444C54.0038 182.715 51.4647 177.965 50.4361 172.794C49.4074 167.623 49.9354 162.262 51.9531 157.391C53.9709 152.52 57.3878 148.356 61.7719 145.427C66.1559 142.497 71.3102 140.934 76.5829 140.934C83.6533 140.934 90.4341 143.743 95.4336 148.742C100.433 153.742 103.242 160.523 103.242 167.593Z" fill="#48BFF4"/>
</g>
</g>
<g style="mix-blend-mode:multiply">
<mask id="mask3_460_15142" style="mask-type:luminance" maskUnits="userSpaceOnUse" x="330" y="74" width="21" height="60">
<path d="M350.131 74.74H330.373V133.37H350.131V74.74Z" fill="white"/>
</mask>
<g mask="url(#mask3_460_15142)">
<path d="M350.132 74.74H330.375V133.37H350.132V74.74Z" fill="#48BFF4"/>
</g>
</g>
</g>
</g>
</g>
<defs>
<clipPath id="clip0_460_15142">
<rect width="375" height="350" fill="white"/>
</clipPath>
</defs>
</svg>
