<svg width="1737" height="679" viewBox="0 0 1737 679" fill="none" xmlns="http://www.w3.org/2000/svg">
<path d="M1577.55 326.134C1577.55 326.134 1601.08 357.672 1645.26 326.134" stroke="#1A1818" stroke-width="1.5" stroke-miterlimit="10" stroke-linecap="round"/>
<path d="M1452.59 326.134C1452.59 326.134 1476.13 357.672 1520.31 326.134" stroke="#1A1818" stroke-width="1.5" stroke-miterlimit="10" stroke-linecap="round"/>
<path d="M1130.26 285.541L1179.75 236.051C1180.22 235.581 1180.78 235.208 1181.4 234.953C1182.01 234.699 1182.67 234.568 1183.34 234.568C1184 234.568 1184.66 234.699 1185.27 234.953C1185.89 235.208 1186.45 235.581 1186.92 236.051L1236.41 285.541C1237.11 286.249 1237.6 287.152 1237.79 288.134C1237.99 289.116 1237.89 290.135 1237.5 291.06C1237.12 291.985 1236.47 292.776 1235.64 293.332C1234.8 293.889 1233.83 294.186 1232.82 294.186H1133.84C1132.84 294.186 1131.86 293.888 1131.03 293.332C1130.2 292.775 1129.55 291.984 1129.17 291.059C1128.78 290.134 1128.68 289.116 1128.88 288.133C1129.07 287.151 1129.56 286.249 1130.26 285.541Z" stroke="#1A1818" stroke-width="1.5" stroke-miterlimit="10"/>
<path d="M1403.05 213.382C1403.05 136.682 1472.98 74.5049 1549.68 74.5049C1626.38 74.5049 1696.31 136.684 1696.31 213.382L1688.55 383.662C1688.55 460.362 1602.25 522.539 1549.68 522.539C1497.1 522.539 1410.8 460.363 1410.8 383.661L1403.05 213.382Z" stroke="#1A1818" stroke-width="1.5" stroke-miterlimit="10"/>
<path d="M1407.5 182.627C1414.3 188.698 1421.64 194.132 1429.43 198.86C1447.52 209.933 1469.38 218.696 1494.01 224.421C1513.3 228.928 1532.99 231.471 1552.79 232.01" stroke="#1A1818" stroke-width="1.5" stroke-miterlimit="10" stroke-dasharray="2 2"/>
<path d="M1388.46 510.968H1368.72C1367.02 510.968 1365.34 510.634 1363.77 509.984C1362.2 509.334 1360.77 508.381 1359.57 507.18C1358.37 505.979 1357.42 504.554 1356.77 502.984C1356.12 501.415 1355.78 499.733 1355.78 498.035V478.293C1355.75 474.882 1354.38 471.621 1351.96 469.22C1349.53 466.819 1346.26 465.472 1342.85 465.472C1339.44 465.472 1336.17 466.819 1333.74 469.22C1331.32 471.621 1329.95 474.882 1329.92 478.293V498.031C1329.92 499.729 1329.58 501.411 1328.93 502.98C1328.28 504.55 1327.33 505.975 1326.13 507.176C1324.93 508.377 1323.5 509.33 1321.93 509.98C1320.36 510.63 1318.68 510.964 1316.98 510.964H1297.24C1293.83 510.994 1290.57 512.37 1288.17 514.792C1285.77 517.215 1284.42 520.488 1284.42 523.898C1284.42 527.309 1285.77 530.582 1288.17 533.005C1290.57 535.427 1293.83 536.803 1297.24 536.833H1316.98C1318.68 536.833 1320.36 537.167 1321.93 537.817C1323.5 538.467 1324.93 539.42 1326.13 540.621C1327.33 541.822 1328.28 543.247 1328.93 544.817C1329.58 546.386 1329.91 548.068 1329.91 549.766V569.504C1329.94 572.915 1331.32 576.176 1333.74 578.577C1336.16 580.978 1339.44 582.325 1342.85 582.325C1346.26 582.325 1349.53 580.978 1351.95 578.577C1354.38 576.176 1355.75 572.915 1355.78 569.504V549.771C1355.78 548.073 1356.12 546.391 1356.77 544.822C1357.42 543.252 1358.37 541.827 1359.57 540.626C1360.77 539.425 1362.2 538.472 1363.77 537.822C1365.34 537.172 1367.02 536.838 1368.72 536.838H1388.46C1391.87 536.808 1395.13 535.432 1397.53 533.01C1399.93 530.587 1401.28 527.314 1401.28 523.903C1401.28 520.493 1399.93 517.22 1397.53 514.797C1395.13 512.375 1391.87 510.999 1388.46 510.969L1388.46 510.968Z" stroke="#1A1818" stroke-width="1.5" stroke-miterlimit="10"/>
<path d="M1688.56 375.238H1700.94C1718.85 375.238 1734.44 361.738 1735.69 343.87C1736.03 339.237 1735.41 334.585 1733.86 330.204C1732.32 325.823 1729.89 321.807 1726.73 318.406C1723.57 315.005 1719.74 312.292 1715.48 310.438C1711.22 308.583 1706.62 307.625 1701.98 307.625L1694.68 307.601C1692.66 307.592 1690.67 307.18 1688.81 306.388C1686.95 305.596 1685.27 304.441 1683.86 302.99C1682.46 301.539 1681.35 299.822 1680.62 297.94C1679.89 296.057 1679.54 294.048 1679.59 292.028C1680.21 266.218 1677.75 234.971 1630.62 245.39C1597.45 252.722 1564.7 250.406 1556.34 249.639" stroke="#1A1818" stroke-width="1.5" stroke-miterlimit="10" stroke-linecap="round"/>
<path d="M1408.52 375.238H1396.14C1378.23 375.238 1362.64 361.738 1361.38 343.87C1361.05 339.238 1361.67 334.586 1363.22 330.205C1364.76 325.825 1367.19 321.809 1370.35 318.409C1373.52 315.008 1377.35 312.296 1381.6 310.442C1385.86 308.587 1390.46 307.63 1395.1 307.63L1407.34 307.606" stroke="#1A1818" stroke-width="1.5" stroke-miterlimit="10" stroke-linecap="round"/>
<path d="M1554.75 0.807983V678.936" stroke="#1A1818" stroke-width="1.5" stroke-dasharray="2 2"/>
<path d="M1337.06 151.971V100.027C1337.06 98.5908 1336.78 97.1686 1336.23 95.8418C1335.68 94.515 1334.87 93.3094 1333.86 92.294C1332.84 91.2786 1331.63 90.4732 1330.31 89.9238C1328.98 89.3744 1327.56 89.0917 1326.12 89.092H1279.48C1278.25 89.0918 1277.04 89.3329 1275.91 89.8015C1274.78 90.27 1273.75 90.9569 1272.88 91.8228C1272.01 92.6887 1271.33 93.7167 1270.86 94.8481C1270.39 95.9796 1270.15 97.1923 1270.15 98.417V108.336C1270.15 109.561 1269.91 110.774 1269.44 111.905C1268.97 113.037 1268.28 114.065 1267.42 114.931C1266.55 115.798 1265.52 116.485 1264.39 116.954C1263.26 117.422 1262.05 117.664 1260.82 117.664H1228.28C1226.42 117.633 1224.61 118.306 1223.21 119.55C1221.82 120.794 1220.95 122.517 1220.77 124.375C1220.71 125.36 1220.85 126.347 1221.18 127.277C1221.51 128.206 1222.03 129.057 1222.71 129.777C1223.38 130.497 1224.2 131.07 1225.1 131.461C1226.01 131.852 1226.99 132.053 1227.97 132.051H1318.13C1323.23 132.312 1328.03 134.515 1331.55 138.208C1335.07 141.901 1337.04 146.802 1337.06 151.904V323.484C1337.06 325.098 1336.66 326.686 1335.88 328.103C1335.11 329.519 1333.99 330.72 1332.64 331.594C1331.28 332.467 1329.73 332.987 1328.12 333.105C1326.51 333.222 1324.89 332.934 1323.42 332.267C1319.39 330.433 1315.96 327.475 1313.56 323.746C1311.16 320.017 1309.88 315.675 1309.88 311.24V254.858C1309.88 253.237 1310.2 251.632 1310.82 250.135C1311.44 248.638 1312.35 247.277 1313.49 246.131C1314.64 244.985 1316 244.075 1317.5 243.455C1318.99 242.835 1320.6 242.516 1322.22 242.516C1322.79 242.517 1323.35 242.404 1323.87 242.186C1324.4 241.967 1324.87 241.646 1325.27 241.242C1325.67 240.838 1325.98 240.359 1326.19 239.832C1326.4 239.306 1326.51 238.742 1326.5 238.175L1325.5 170.045C1328.95 168.452 1331.88 165.902 1333.93 162.699C1335.98 159.495 1337.07 155.77 1337.06 151.967" stroke="#1A1818" stroke-width="1.5" stroke-miterlimit="10" stroke-linecap="round"/>
<path d="M1324.98 133.651V89.0859" stroke="#1A1818" stroke-width="1.5" stroke-miterlimit="10" stroke-linecap="round"/>
<path d="M1325.5 170.05C1322.76 171.337 1319.76 171.969 1316.73 171.895H1120.48C1116.13 171.895 1111.82 172.751 1107.8 174.416C1103.79 176.08 1100.13 178.52 1097.06 181.596C1093.98 184.672 1091.54 188.323 1089.88 192.342C1088.21 196.36 1087.36 200.667 1087.36 205.017C1087.36 205.017 1088.32 361.233 1088.32 363.258C1088.32 365.389 1056.52 420.389 1056.52 420.389" stroke="#1A1818" stroke-width="1.5" stroke-miterlimit="10"/>
<path d="M1337.04 170.218C1344.69 170.218 1352.02 167.18 1357.43 161.774C1362.84 156.367 1365.87 149.034 1365.87 141.388V97.272C1365.87 89.6263 1362.84 82.294 1357.43 76.888C1352.02 71.482 1344.69 68.445 1337.04 68.445H946.853C943.373 68.5403 939.912 67.9121 936.687 66.6C931.849 64.4709 927.733 60.9821 924.841 56.5578C921.948 52.1334 920.403 46.964 920.393 41.678C920.383 41.4183 920.404 41.1583 920.458 40.904C920.548 37.3315 921.342 33.8119 922.795 30.5472C924.249 27.2826 926.333 24.3372 928.928 21.8801C931.523 19.4231 934.577 17.5029 937.916 16.2297C941.256 14.9565 944.813 14.3554 948.385 14.461L1183.28 11.818C1187.33 11.7704 1191.36 12.5274 1195.12 14.0453C1198.88 15.5632 1202.3 17.8117 1205.18 20.6608C1208.07 23.5099 1210.36 26.903 1211.92 30.6436C1213.49 34.3842 1214.3 38.3981 1214.3 42.453L1213.61 68.446" stroke="#1A1818" stroke-width="1.5" stroke-miterlimit="10" stroke-linecap="round"/>
<path d="M910.756 532.398H826.064C816.41 532.398 807.152 528.563 800.325 521.737C793.499 514.91 789.664 505.652 789.664 495.998V211.46C789.664 208.308 790.289 205.187 791.504 202.278C792.718 199.369 794.498 196.73 796.739 194.514C798.981 192.298 801.64 190.548 804.562 189.367C807.484 188.185 810.612 187.595 813.764 187.631L996.253 189.685C999.029 189.608 1001.79 190.079 1004.39 191.071C1006.98 192.062 1009.35 193.556 1011.37 195.465C1013.39 197.374 1015.01 199.662 1016.14 202.198C1017.27 204.734 1017.89 207.468 1017.97 210.244C1017.98 210.438 1017.98 210.633 1017.98 210.827V210.854C1017.97 215.794 1016.24 220.577 1013.07 224.37C1009.91 228.163 1005.51 230.727 1000.66 231.617H936.381C931.426 231.617 926.673 233.585 923.169 237.089C919.666 240.593 917.697 245.346 917.697 250.301V337.946C917.697 346.963 914.115 355.611 907.739 361.988C901.362 368.364 892.714 371.946 883.697 371.946H879.927C875.419 372.015 870.942 371.187 866.757 369.509C862.571 367.832 858.762 365.339 855.549 362.175C852.336 359.012 849.785 355.24 848.044 351.082C846.302 346.923 845.406 342.459 845.406 337.95C845.406 333.441 846.302 328.977 848.044 324.818C849.785 320.659 852.336 316.888 855.549 313.725C858.762 310.561 862.571 308.068 866.757 306.39C870.942 304.713 875.419 303.885 879.927 303.954H958.568C962.314 303.954 965.907 305.434 968.567 308.071C971.227 310.708 972.737 314.29 972.768 318.035C972.921 335.135 973.083 361.885 972.627 363.257C971.953 365.279 1004.42 420.388 1004.42 420.388" stroke="#1A1818" stroke-width="1.5" stroke-miterlimit="10"/>
<path d="M926.031 103.15C956.68 97.466 994.241 107.221 1039.27 152.881C1088.96 203.281 1047.31 215.581 1047.31 215.581" stroke="#1A1818" stroke-width="1.5" stroke-linecap="round" stroke-linejoin="round"/>
<path d="M946.383 188.691L871.047 119.135L904.273 83.15L1048.62 216.42L1015.39 252.4L994.111 232.747" stroke="#1A1818" stroke-width="1.5" stroke-linecap="round" stroke-linejoin="round"/>
<path d="M905.4 64.7138L852.758 121.73L861.336 129.65L913.978 72.6337L905.4 64.7138Z" stroke="#1A1818" stroke-width="1.5" stroke-linecap="round" stroke-linejoin="round"/>
<path d="M845.897 34.8763L816.391 66.861L824.971 74.7766L854.477 42.7919L845.897 34.8763Z" stroke="#1A1818" stroke-width="1.5" stroke-linecap="round" stroke-linejoin="round"/>
<path d="M847.436 50.9796L833.508 66.0759L871.377 101.014L885.305 85.9178L847.436 50.9796Z" stroke="#1A1818" stroke-width="1.5" stroke-linecap="round" stroke-linejoin="round"/>
<path d="M1038.96 226.865L1025.03 241.961L1048.08 263.225L1062.01 248.129L1038.96 226.865Z" stroke="#1A1818" stroke-width="1.5" stroke-linecap="round" stroke-linejoin="round"/>
<path d="M1055.05 255.689L1087.76 285.897" stroke="#1A1818" stroke-width="1.5" stroke-linecap="round" stroke-linejoin="round"/>
<path d="M943.151 119.052L926.539 137.045" stroke="#1A1818" stroke-width="1.5" stroke-linecap="round" stroke-linejoin="round"/>
<path d="M958.26 133L941.648 150.993" stroke="#1A1818" stroke-width="1.5" stroke-linecap="round" stroke-linejoin="round"/>
<path d="M973.362 146.948L956.75 164.941" stroke="#1A1818" stroke-width="1.5" stroke-linecap="round" stroke-linejoin="round"/>
<path d="M988.471 160.894L971.859 178.887" stroke="#1A1818" stroke-width="1.5" stroke-linecap="round" stroke-linejoin="round"/>
<path d="M1105.17 626.301C1106.88 626.321 1108.52 625.663 1109.75 624.47C1110.97 623.277 1111.67 621.648 1111.69 619.94L1112.03 593.879C1112.03 570.138 1101.67 549.92 1096.86 528.466L1096.81 528.254C1091.06 502.635 1090.28 476.15 1094.53 450.239C1094.79 448.693 1094.43 447.104 1093.53 445.823C1092.62 444.542 1091.25 443.672 1089.7 443.406C1088.16 443.14 1086.57 443.499 1085.29 444.404C1084 445.309 1083.13 446.686 1082.87 448.232C1078.25 474.776 1078.91 501.971 1084.82 528.259L1084.86 528.471C1089.68 549.925 1100.03 570.143 1100.03 593.884L1098.81 619.55C1098.77 620.415 1098.9 621.279 1099.2 622.091C1099.5 622.903 1099.96 623.646 1100.55 624.276C1101.15 624.906 1101.86 625.41 1102.66 625.758C1103.45 626.106 1104.3 626.291 1105.17 626.301Z" stroke="#1A1818" stroke-width="1.5" stroke-miterlimit="10"/>
<path d="M1039.71 624.226C1041.42 624.246 1043.06 623.588 1044.29 622.395C1045.51 621.202 1046.21 619.573 1046.23 617.865L1046.57 591.804C1046.57 568.063 1036.21 547.845 1031.4 526.391L1031.35 526.179C1025.59 500.558 1024.82 474.071 1029.07 448.159C1029.33 446.613 1028.97 445.024 1028.07 443.743C1027.16 442.462 1025.79 441.592 1024.24 441.326C1022.69 441.06 1021.11 441.419 1019.83 442.324C1018.54 443.229 1017.67 444.606 1017.41 446.152C1012.79 472.696 1013.45 499.891 1019.36 526.179L1019.4 526.391C1024.22 547.845 1034.57 568.063 1034.57 591.804L1033.35 617.469C1033.31 618.334 1033.44 619.199 1033.74 620.011C1034.04 620.824 1034.5 621.568 1035.09 622.198C1035.69 622.829 1036.4 623.334 1037.19 623.682C1037.99 624.03 1038.84 624.215 1039.71 624.226Z" stroke="#1A1818" stroke-width="1.5" stroke-miterlimit="10"/>
<path d="M1143.88 626.301C1145.59 626.321 1147.23 625.663 1148.46 624.47C1149.68 623.277 1150.38 621.648 1150.4 619.94L1150.74 593.879C1150.74 570.138 1140.38 549.92 1135.57 528.466L1135.52 528.254C1129.77 502.633 1128.99 476.146 1133.24 450.234C1133.5 448.688 1133.15 447.099 1132.24 445.818C1131.34 444.537 1129.96 443.667 1128.41 443.401C1126.87 443.135 1125.28 443.494 1124 444.399C1122.71 445.304 1121.85 446.681 1121.58 448.227C1116.96 474.771 1117.62 501.966 1123.53 528.254L1123.57 528.466C1128.39 549.92 1138.75 570.138 1138.75 593.879L1137.52 619.545C1137.48 620.41 1137.61 621.275 1137.91 622.087C1138.21 622.9 1138.67 623.644 1139.26 624.274C1139.86 624.905 1140.57 625.409 1141.36 625.757C1142.16 626.106 1143.01 626.291 1143.88 626.301Z" stroke="#1A1818" stroke-width="1.5" stroke-miterlimit="10"/>
<path d="M1056.52 604.158H1086.85C1088.54 604.158 1090.16 604.827 1091.35 606.02C1092.54 607.212 1093.21 608.829 1093.21 610.516V619.605C1093.21 626.16 1098.08 631.997 1104.62 632.465C1106.31 632.59 1108 632.365 1109.6 631.804C1111.2 631.243 1112.66 630.358 1113.9 629.205C1115.14 628.052 1116.13 626.655 1116.8 625.103C1117.48 623.55 1117.82 621.875 1117.82 620.182V610.537C1117.78 608.867 1118.37 607.243 1119.46 605.98C1120.55 604.717 1122.08 603.904 1123.73 603.7C1124.63 603.621 1125.53 603.73 1126.38 604.018C1127.23 604.306 1128.01 604.769 1128.67 605.375C1129.34 605.982 1129.86 606.719 1130.23 607.541C1130.59 608.363 1130.77 609.251 1130.77 610.149V620.51C1130.77 623.772 1132.07 626.901 1134.38 629.207C1136.68 631.514 1139.81 632.81 1143.07 632.81H1143.9C1147.16 632.81 1150.29 631.514 1152.59 629.207C1154.9 626.901 1156.2 623.772 1156.2 620.51V610.517C1156.2 608.831 1156.87 607.214 1158.06 606.021C1159.25 604.829 1160.87 604.159 1162.55 604.159H1179.55C1180.75 604.159 1181.94 603.922 1183.06 603.46C1184.17 602.999 1185.18 602.323 1186.04 601.471C1186.89 600.618 1187.57 599.606 1188.03 598.492C1188.49 597.378 1188.73 596.185 1188.73 594.979V453.416C1188.73 451.659 1189.07 449.919 1189.75 448.295C1190.42 446.672 1191.41 445.198 1192.65 443.957C1193.9 442.716 1195.37 441.733 1197 441.064C1198.62 440.395 1200.36 440.053 1202.12 440.058L1286.27 440.27C1288.12 440.271 1289.94 439.76 1291.51 438.794C1293.09 437.828 1294.37 436.445 1295.21 434.798C1296.05 433.151 1296.41 431.303 1296.27 429.46C1296.12 427.617 1295.47 425.85 1294.38 424.355L1251.78 365.732C1241.88 352.107 1220.33 359.109 1220.33 375.954V522.22C1220.42 553.904 1233.07 584.259 1255.51 606.631C1277.94 629.002 1308.33 641.565 1340.02 641.565C1371.7 641.565 1402.09 629.002 1424.53 606.631C1446.97 584.259 1459.62 553.904 1459.71 522.22V480.458" stroke="#1A1818" stroke-width="1.5" stroke-miterlimit="10"/>
<path d="M930.113 626.301C931.821 626.321 933.467 625.663 934.691 624.47C935.914 623.277 936.613 621.648 936.636 619.94L936.977 593.879C936.977 570.138 926.616 549.92 921.807 528.466L921.751 528.254C916 502.633 915.227 476.146 919.473 450.234C919.739 448.688 919.38 447.099 918.475 445.818C917.57 444.537 916.193 443.667 914.647 443.401C913.101 443.135 911.512 443.494 910.231 444.399C908.949 445.304 908.08 446.681 907.814 448.227C903.195 474.771 903.858 501.966 909.763 528.254L909.807 528.466C914.628 549.92 924.98 570.138 924.98 593.879L923.753 619.545C923.711 620.41 923.844 621.275 924.144 622.087C924.444 622.9 924.904 623.644 925.498 624.274C926.091 624.905 926.806 625.409 927.599 625.757C928.392 626.106 929.247 626.291 930.113 626.301Z" stroke="#1A1818" stroke-width="1.5" stroke-miterlimit="10"/>
<path d="M968.824 626.301C970.532 626.321 972.179 625.663 973.402 624.47C974.625 623.277 975.325 621.648 975.347 619.94L975.691 593.879C975.691 570.138 965.328 549.92 960.518 528.466L960.462 528.254C954.712 502.633 953.938 476.146 958.184 450.234C958.45 448.688 958.092 447.099 957.186 445.818C956.281 444.537 954.904 443.667 953.358 443.401C951.812 443.135 950.224 443.494 948.942 444.399C947.661 445.304 946.791 446.681 946.525 448.227C941.906 474.771 942.568 501.966 948.473 528.254L948.517 528.466C953.338 549.92 963.69 570.138 963.69 593.879L962.463 619.545C962.422 620.41 962.555 621.275 962.854 622.087C963.154 622.9 963.615 623.644 964.209 624.274C964.802 624.905 965.517 625.409 966.31 625.757C967.103 626.106 967.958 626.291 968.824 626.301Z" stroke="#1A1818" stroke-width="1.5" stroke-miterlimit="10"/>
<path d="M1003.25 604.155H987.51C986.675 604.155 985.848 604.319 985.077 604.639C984.306 604.958 983.605 605.427 983.014 606.017C982.424 606.607 981.955 607.308 981.636 608.08C981.317 608.851 981.152 609.678 981.152 610.513V620.506C981.152 623.768 979.856 626.897 977.55 629.203C975.243 631.51 972.114 632.806 968.852 632.806H968.034C964.772 632.806 961.644 631.51 959.337 629.203C957.03 626.897 955.734 623.768 955.734 620.506V610.145C955.734 609.247 955.547 608.359 955.186 607.537C954.824 606.715 954.295 605.977 953.632 605.37C952.97 604.764 952.189 604.302 951.338 604.013C950.487 603.725 949.586 603.617 948.691 603.696C947.034 603.9 945.512 604.713 944.42 605.976C943.328 607.24 942.744 608.864 942.781 610.533V620.178C942.785 621.871 942.438 623.547 941.763 625.1C941.089 626.653 940.1 628.05 938.86 629.204C937.62 630.357 936.155 631.242 934.557 631.802C932.959 632.363 931.263 632.587 929.574 632.461C923.037 631.993 918.166 626.161 918.166 619.601C918.171 616.876 917.369 614.211 915.862 611.941C914.354 609.672 912.209 607.899 909.695 606.847L911.382 607.647C795.469 552.003 745.982 605.71 686.968 623.462C686.968 623.462 564.933 665.096 422.48 590.062C339.032 546.112 237.68 572.054 168.026 601.088C104.905 627.375 36.7299 639.303 -31.567 636.009C-99.8638 632.716 -166.575 614.283 -226.874 582.044C-228.784 581.023 -230.699 579.988 -232.619 578.939C-424.794 473.979 -562.055 618.713 -562.055 618.713" stroke="#1A1818" stroke-width="1.5" stroke-miterlimit="10"/>
<path d="M1046.96 636.25H1014C1011.46 636.25 1009.03 635.242 1007.23 633.448C1005.44 631.654 1004.43 629.221 1004.43 626.684V420.386H1056.52V626.686C1056.52 629.223 1055.52 631.655 1053.72 633.449C1051.93 635.242 1049.5 636.25 1046.96 636.25Z" stroke="#1A1818" stroke-width="1.5" stroke-miterlimit="10"/>
<path d="M1700.75 624.685C1669.88 611.669 1642.39 568.485 1640.29 507.177C1640.29 507.177 1638.69 489.377 1645.27 475.842" stroke="#1A1818" stroke-width="1.5" stroke-linecap="round" stroke-linejoin="round"/>
<mask id="mask0_460_12622" style="mask-type:luminance" maskUnits="userSpaceOnUse" x="1614" y="520" width="83" height="83">
<path d="M1696.42 520.145H1614.48V602.082H1696.42V520.145Z" fill="white"/>
</mask>
<g mask="url(#mask0_460_12622)">
<g style="mix-blend-mode:multiply">
<path d="M1696.42 561.114C1696.42 569.216 1694.02 577.137 1689.52 583.874C1685.01 590.611 1678.62 595.862 1671.13 598.962C1663.64 602.063 1655.41 602.875 1647.46 601.294C1639.51 599.714 1632.21 595.812 1626.49 590.083C1620.76 584.354 1616.85 577.055 1615.27 569.108C1613.69 561.162 1614.5 552.924 1617.6 545.438C1620.7 537.953 1625.95 531.554 1632.69 527.052C1639.42 522.55 1647.34 520.146 1655.45 520.145C1666.31 520.145 1676.73 524.462 1684.42 532.145C1692.1 539.828 1696.42 550.248 1696.42 561.114" fill="#48BFF4"/>
</g>
</g>
<mask id="mask1_460_12622" style="mask-type:luminance" maskUnits="userSpaceOnUse" x="1129" y="97" width="43" height="126">
<path d="M1171.63 97.141H1129.25V222.908H1171.63V97.141Z" fill="white"/>
</mask>
<g mask="url(#mask1_460_12622)">
<g style="mix-blend-mode:multiply">
<path d="M1171.63 97.141H1129.25V222.908H1171.63V97.141Z" fill="#48BFF4"/>
</g>
</g>
<mask id="mask2_460_12622" style="mask-type:luminance" maskUnits="userSpaceOnUse" x="726" y="379" width="115" height="115">
<path d="M840.559 379.052H726.188V493.421H840.559V379.052Z" fill="white"/>
</mask>
<g mask="url(#mask2_460_12622)">
<g style="mix-blend-mode:multiply">
<path d="M840.563 436.238C840.563 447.548 837.209 458.604 830.925 468.007C824.641 477.411 815.71 484.74 805.261 489.068C794.812 493.396 783.314 494.528 772.221 492.321C761.129 490.114 750.94 484.667 742.943 476.67C734.946 468.672 729.5 458.483 727.294 447.39C725.088 436.297 726.22 424.8 730.549 414.351C734.877 403.902 742.207 394.971 751.611 388.688C761.015 382.405 772.071 379.052 783.381 379.052C790.891 379.052 798.327 380.531 805.266 383.405C812.204 386.279 818.508 390.491 823.818 395.801C829.128 401.111 833.341 407.416 836.215 414.354C839.088 421.292 840.567 428.728 840.567 436.238" fill="#48BFF4"/>
</g>
</g>
</svg>
