<svg width="325" height="254" viewBox="0 0 325 254" fill="none" xmlns="http://www.w3.org/2000/svg">
<path d="M88.4728 116.605C63.3896 116.605 31.9298 136.083 11.3706 151.13C9.74959 152.317 8.54634 153.984 7.93271 155.894C7.31908 157.803 7.32645 159.858 7.95377 161.763C8.5811 163.668 9.79629 165.327 11.4258 166.502C13.0552 167.677 15.0157 168.31 17.027 168.308H122.883C126.591 168.308 130.263 169.036 133.689 170.45C137.115 171.865 140.229 173.939 142.851 176.553C145.473 179.167 147.553 182.27 148.973 185.686C150.392 189.101 151.122 192.762 151.123 196.459C151.122 200.156 150.392 203.817 148.973 207.232C147.553 210.648 145.473 213.751 142.851 216.365C140.229 218.979 137.115 221.053 133.689 222.467C130.263 223.882 126.591 224.61 122.883 224.61H14.9205C11.1827 224.61 7.59802 226.09 4.955 228.725C2.31198 231.36 0.827148 234.934 0.827148 238.66C0.827148 242.386 2.31198 245.96 4.955 248.595C7.59802 251.23 11.1827 252.71 14.9205 252.71H279.334C291.226 252.71 302.631 248 311.039 239.618C319.448 231.235 324.172 219.865 324.172 208.01V16.5839C324.172 16.0757 324.072 15.5724 323.877 15.1028C323.682 14.6332 323.396 14.2066 323.036 13.8471C322.675 13.4876 322.248 13.2025 321.777 13.0079C321.306 12.8133 320.801 12.713 320.291 12.7129H249.104L243.168 18.9299C242.63 19.4856 242.329 20.2276 242.328 20.9999C242.323 21.6172 242.507 22.2215 242.856 22.7316C243.205 23.2417 243.701 23.6335 244.28 23.8543C244.858 24.0751 245.49 24.1145 246.092 23.9671C246.693 23.8198 247.235 23.4928 247.645 23.0299L253.061 16.9299L323.378 17.3589" stroke="#14AEFF" stroke-width="1.5" stroke-miterlimit="10" stroke-linecap="round"/>
<path d="M96.702 1C90.388 1.00008 84.3163 3.42351 79.7467 7.76748C75.1772 12.1114 72.4606 18.0425 72.1605 24.33L70.8174 52.443L71.1043 52.843C97.9959 43.7017 127.168 43.7017 154.06 52.843L154.346 52.443L152.999 24.33C152.698 18.043 149.981 12.1128 145.411 7.76914C140.842 3.42547 134.771 1.00155 128.458 1H96.702Z" stroke="#14AEFF" stroke-width="1.5" stroke-linecap="round" stroke-linejoin="round"/>
<path d="M70.8174 52.4431L76.5911 70.6601" stroke="#14AEFF" stroke-width="1.5" stroke-linecap="round" stroke-linejoin="round"/>
<path d="M154.055 52.843L146.548 70.119" stroke="#14AEFF" stroke-width="1.5" stroke-linecap="round" stroke-linejoin="round"/>
<path d="M72.0638 56.801C66.8909 57.207 64.0732 61.626 64.0732 67.016V69.206C64.1975 72.0588 65.3907 74.7614 67.4169 76.7796C69.4432 78.7978 72.1552 79.9848 75.0169 80.106L81.6794 104.882" stroke="#14AEFF" stroke-width="1.5" stroke-linecap="round" stroke-linejoin="round"/>
<path d="M153.027 56.801C158.2 57.207 161.017 61.626 161.017 67.016V69.206C160.893 72.0588 159.7 74.7614 157.674 76.7796C155.647 78.7978 152.935 79.9848 150.074 80.106L143.407 104.882" stroke="#14AEFF" stroke-width="1.5" stroke-linecap="round" stroke-linejoin="round"/>
<path d="M143.673 108.598L143.559 108.621C116.275 113.977 108.578 113.587 81.5631 107.5C83.1982 75.1001 76.5908 70.6591 76.5908 70.6591L78.611 70.1191C100.738 64.2806 124.003 64.2444 146.148 70.0141L146.549 70.1191C146.549 70.1191 138.539 76.8561 143.676 108.597" stroke="#14AEFF" stroke-width="1.5"/>
<path d="M143.673 108.598L143.559 108.621C116.275 113.977 108.578 113.587 81.5631 107.5C83.1982 75.1001 76.5908 70.6591 76.5908 70.6591L78.611 70.1191C100.738 64.2806 124.003 64.2444 146.148 70.0141L146.549 70.1191C146.549 70.1191 138.536 76.8571 143.673 108.598Z" stroke="#14AEFF" stroke-width="1.5" stroke-linecap="round" stroke-linejoin="round"/>
<path d="M88.4717 109.017V138.715" stroke="#14AEFF" stroke-width="1.5" stroke-linecap="round" stroke-linejoin="round"/>
<path d="M137.003 111.127V141.236" stroke="#14AEFF" stroke-width="1.5" stroke-linecap="round" stroke-linejoin="round"/>
<path d="M137.003 119.411C137.003 119.411 165.882 122.76 182.237 137.44" stroke="#14AEFF" stroke-width="1.5" stroke-linecap="round" stroke-linejoin="round"/>
<path d="M220.786 185.121C220.786 185.121 224.341 210.841 207.188 216.972" stroke="#14AEFF" stroke-width="1.5" stroke-miterlimit="10"/>
<path d="M269.25 185.121C269.25 185.121 265.694 210.841 282.846 216.972" stroke="#14AEFF" stroke-width="1.5" stroke-miterlimit="10"/>
<path d="M292.756 126.328L295.84 96.9691C296.601 89.722 295.035 82.4211 291.367 76.1184C287.699 69.8156 282.119 64.8364 275.43 61.8981C266.008 57.7587 255.811 55.6627 245.515 55.7489C235.218 55.8351 225.058 58.1016 215.707 62.3981L214.713 62.8541C208.165 65.8628 202.727 70.8404 199.162 77.088C195.597 83.3356 194.084 90.5394 194.835 97.6881L197.882 126.669C197.905 126.894 197.858 127.12 197.748 127.317C197.637 127.514 197.468 127.672 197.263 127.769C197.059 127.866 196.829 127.898 196.606 127.86C196.383 127.822 196.177 127.716 196.017 127.556L190.382 121.938C189.685 121.246 188.799 120.773 187.834 120.579C186.87 120.385 185.869 120.478 184.957 120.847C184.046 121.215 183.263 121.843 182.706 122.652C182.149 123.461 181.844 124.415 181.827 125.396C181.667 129.416 181.806 133.443 182.244 137.442C183.247 143.242 196.855 143.379 196.855 143.379C196.855 156.23 201.975 168.554 211.09 177.641C220.205 186.728 232.568 191.833 245.458 191.833C258.349 191.833 270.711 186.728 279.826 177.641C288.941 168.554 294.062 156.23 294.062 143.379C294.062 143.379 307.651 143.244 308.673 137.442C309.112 133.44 309.251 129.41 309.089 125.387C309.072 124.406 308.767 123.452 308.211 122.643C307.654 121.834 306.872 121.206 305.96 120.837C305.048 120.469 304.048 120.375 303.083 120.569C302.119 120.763 301.233 121.235 300.536 121.927L294.265 127.127C294.125 127.245 293.952 127.319 293.769 127.338C293.586 127.358 293.402 127.322 293.239 127.236C293.077 127.151 292.944 127.018 292.858 126.856C292.772 126.694 292.736 126.51 292.756 126.328Z" stroke="#14AEFF" stroke-width="1.5" stroke-miterlimit="10" stroke-linecap="round"/>
<path d="M202.865 123.786L215.01 99.086C215.965 97.1944 216.366 95.0732 216.168 92.965C215.969 90.8568 215.18 88.8468 213.889 87.165L202.077 73.606" stroke="#14AEFF" stroke-width="1.5" stroke-miterlimit="10" stroke-linecap="round"/>
<path d="M287.481 124.037L275.334 99.337C274.35 97.3358 273.979 95.0899 274.268 92.8799C274.557 90.6699 275.493 88.5938 276.959 86.911L288.775 73.354" stroke="#14AEFF" stroke-width="1.5" stroke-miterlimit="10" stroke-linecap="round"/>
<path d="M220.901 93.0249C220.901 93.0249 245.316 101.767 269.388 93.0249" stroke="#14AEFF" stroke-width="1.5" stroke-miterlimit="10" stroke-linecap="round" stroke-dasharray="1 2"/>
<path d="M323.375 22.2281L253.956 21.7991L251.16 25.2821C250.875 25.603 250.525 25.8599 250.133 26.0357C249.741 26.2115 249.316 26.3023 248.886 26.3021C247.062 26.3021 246.417 25.5191 245.847 24.0101" stroke="#14AEFF" stroke-width="1.5" stroke-miterlimit="10" stroke-linecap="round"/>
<path d="M246.161 24.5959V45.4459" stroke="#14AEFF" stroke-width="1.5" stroke-miterlimit="10" stroke-linecap="round"/>
<path d="M199.677 209.345L245.104 252.48L290.479 210.24" stroke="#14AEFF" stroke-width="1.5" stroke-miterlimit="10" stroke-linecap="round"/>
<path d="M218.05 205.593C218.05 205.593 161.558 212.072 120.819 252.71" stroke="#14AEFF" stroke-width="1.5" stroke-miterlimit="10" stroke-linecap="round"/>
<path d="M319.986 226.901C311.501 220.447 302.202 215.132 292.329 211.091C285.759 207.926 278.773 205.702 271.579 204.484" stroke="#14AEFF" stroke-width="1.5" stroke-miterlimit="10" stroke-linecap="round"/>
<path d="M154.056 123.087L111.571 168.307L72.8779 118.733" stroke="#14AEFF" stroke-width="1.5" stroke-linecap="round" stroke-linejoin="round"/>
</svg>
