<svg width="375" height="290" viewBox="0 0 375 290" fill="none" xmlns="http://www.w3.org/2000/svg">
<g clip-path="url(#clip0_460_15219)">
<path d="M138.018 224.5C44.6119 216.812 77.3737 102.102 54.8034 87.861C46.8414 82.8374 39.497 89.841 39.497 89.841L36.4168 93.1904C30.6613 101.603 27.5644 111.557 27.529 121.759C27.4462 138.168 37.2598 157.674 19.1999 175.183C18.2194 176.161 17.5292 177.393 17.2063 178.741C16.8834 180.09 16.9405 181.502 17.3712 182.819C17.8019 184.137 18.5893 185.309 19.6456 186.204C20.7018 187.1 21.9854 187.683 23.353 187.889C23.5075 187.919 23.6573 187.969 23.7985 188.038C26.0108 189.123 27.7115 191.034 28.5365 193.361C29.4449 195.72 29.9405 198.652 27.883 200.392C24.5707 203.538 25.4976 205.689 27.883 207.731L29.1464 209C29.7874 209.643 30.2037 210.476 30.3331 211.376C30.4625 212.276 30.298 213.193 29.8642 213.992C29.4805 214.696 29.306 215.496 29.3612 216.297C29.4164 217.098 29.699 217.867 30.1757 218.512L32.6471 221.855C32.9507 222.432 33.1061 223.076 33.0993 223.729C33.0924 224.382 32.9236 225.023 32.6079 225.594C29.3316 233.199 36.1391 245.337 44.3015 246.631C47.7488 247.167 51.2513 247.247 54.7196 246.871C77.5011 244.543 77.0251 259.453 77.0251 259.453V285.079" stroke="#14AEFF" stroke-width="1.5" stroke-miterlimit="10" stroke-linecap="round"/>
<path d="M28.6816 111.292C28.6816 111.292 43.3563 84.3665 53.9117 122.557C53.9117 122.557 55.3276 137.326 66.9221 139.712" stroke="#14AEFF" stroke-width="1.5" stroke-miterlimit="10" stroke-dasharray="2 2"/>
<path d="M47.8027 75.3977C47.8027 75.3977 72.6363 59.8899 94.9397 86.0478C117.243 112.206 126.54 228.699 205.075 229.626" stroke="#14AEFF" stroke-width="1.5" stroke-miterlimit="10" stroke-linecap="round"/>
<path d="M70.541 59.4385C70.541 59.4385 166.736 15.5232 200.891 115.463C235.046 215.403 294.997 202.13 309.633 188.852" stroke="#14AEFF" stroke-width="1.5" stroke-miterlimit="10" stroke-linecap="round"/>
<path d="M126.438 74.2285C126.438 74.2285 174.403 262.008 278.962 229.624" stroke="#14AEFF" stroke-width="1.5" stroke-miterlimit="10" stroke-linecap="round"/>
<path d="M267.932 156.569C271.244 156.604 273.96 154.245 274.005 151.298L274.323 129.701C274.323 110.025 264.676 93.2704 260.196 75.4921L260.145 75.3152C254.796 54.1702 254.072 32.115 258.023 10.6631C258.578 7.65767 256.016 4.92743 252.602 4.92743C251.369 4.87644 250.156 5.25297 249.167 5.99367C248.177 6.73437 247.473 7.79404 247.172 8.99439C242.87 30.9635 243.489 53.6162 248.983 75.3163L249.026 75.4932C253.514 93.2715 263.15 110.026 263.15 129.702L262.009 150.973C261.845 153.999 264.535 156.532 267.932 156.569Z" stroke="#14AEFF" stroke-width="1.5" stroke-miterlimit="10" stroke-linecap="round"/>
<path d="M302.295 156.569C305.607 156.604 308.324 154.245 308.368 151.298L308.686 129.701C308.686 110.025 299.039 93.2704 294.56 75.4921L294.508 75.3152C289.159 54.1702 288.435 32.115 292.387 10.6631C292.941 7.65767 290.379 4.92743 286.966 4.92743C285.732 4.87644 284.519 5.25297 283.53 5.99367C282.541 6.73437 281.836 7.79404 281.535 8.99439C277.234 30.9635 277.852 53.6162 283.346 75.3163L283.389 75.4932C287.877 93.2715 297.513 110.026 297.513 129.702L296.372 150.973C296.211 153.999 298.898 156.532 302.295 156.569Z" stroke="#14AEFF" stroke-width="1.5" stroke-miterlimit="10" stroke-linecap="round"/>
<path d="M338.334 156.569C341.646 156.604 344.363 154.245 344.407 151.298L344.725 129.701C344.725 110.025 335.079 93.2704 330.599 75.4921L330.547 75.3152C325.198 54.1702 324.474 32.115 328.426 10.6631C328.98 7.65767 326.418 4.92743 323.005 4.92743C321.771 4.87644 320.558 5.25297 319.569 5.99367C318.58 6.73437 317.875 7.79404 317.574 8.99439C313.273 30.9635 313.891 53.6162 319.385 75.3163L319.428 75.4932C323.916 93.2715 333.553 110.026 333.553 129.702L332.411 150.973C332.249 153.999 334.937 156.532 338.334 156.569Z" stroke="#14AEFF" stroke-width="1.5" stroke-miterlimit="10" stroke-linecap="round"/>
<path d="M208.637 135.312H249.808C251.388 135.339 252.894 135.987 254.002 137.116C255.11 138.246 255.73 139.767 255.73 141.351V151.024C255.73 152.533 256.026 154.026 256.602 155.419C257.178 156.813 258.022 158.079 259.085 159.145C260.149 160.212 261.412 161.057 262.802 161.634C264.191 162.211 265.681 162.508 267.185 162.508H267.948C270.985 162.508 273.898 161.298 276.046 159.144C278.194 156.991 279.4 154.07 279.4 151.024V141.697C279.4 140.917 279.554 140.146 279.851 139.426C280.149 138.706 280.585 138.051 281.134 137.5C281.684 136.949 282.337 136.512 283.055 136.214C283.773 135.916 284.543 135.762 285.32 135.762H285.236C286.014 135.762 286.784 135.915 287.502 136.213C288.221 136.511 288.873 136.948 289.423 137.499C289.973 138.05 290.409 138.705 290.706 139.425C291.004 140.145 291.157 140.917 291.156 141.697V150.721C291.156 153.768 292.363 156.69 294.512 158.845C296.661 160.999 299.575 162.21 302.614 162.21C305.653 162.21 308.568 160.999 310.717 158.845C312.865 156.69 314.073 153.768 314.073 150.721V141.611C314.062 139.962 314.7 138.376 315.849 137.197C316.998 136.018 318.565 135.342 320.209 135.316C321.789 135.342 323.295 135.99 324.403 137.119C325.511 138.249 326.131 139.77 326.131 141.354V151.028C326.131 152.536 326.427 154.029 327.003 155.423C327.579 156.816 328.422 158.082 329.486 159.148C330.55 160.214 331.812 161.06 333.202 161.637C334.592 162.214 336.081 162.511 337.585 162.511H338.347C341.385 162.511 344.298 161.301 346.446 159.148C348.594 156.994 349.8 154.073 349.8 151.028V141.697C349.8 140.917 349.953 140.146 350.251 139.426C350.548 138.706 350.985 138.051 351.534 137.5C352.084 136.949 352.737 136.512 353.455 136.214C354.173 135.916 354.943 135.762 355.72 135.762H390.328" stroke="#14AEFF" stroke-width="1.5" stroke-miterlimit="10" stroke-linecap="round"/>
</g>
<defs>
<clipPath id="clip0_460_15219">
<rect width="375" height="290" fill="white"/>
</clipPath>
</defs>
</svg>
