<svg width="257" height="61" viewBox="0 0 257 61" fill="none" xmlns="http://www.w3.org/2000/svg">
<g clip-path="url(#clip0_4083_2021)">
<path d="M4.98735 42.3394C5.34722 41.4684 5.69483 40.5359 6.02199 39.5504C6.35323 38.5607 6.64768 37.5424 6.91349 36.4874C7.17931 35.4364 7.41241 34.3894 7.61689 33.3466C7.81727 32.3038 7.9604 31.2855 8.04628 30.2836L12.193 31.1465C12.1276 31.445 12.0417 31.7763 11.9395 32.1361C11.8332 32.496 11.7432 32.8559 11.6696 33.2035C11.596 33.5552 11.5346 33.8578 11.4937 34.1114C11.3874 34.643 11.2402 35.3014 11.048 36.0907C10.8558 36.8799 10.6349 37.7183 10.3773 38.6098C10.1237 39.5013 9.85384 40.401 9.57984 41.3048C9.30176 42.2085 9.01549 43.0428 8.71696 43.8075C8.33255 44.8054 7.88679 45.8482 7.37561 46.9319C6.86442 48.0156 6.31643 49.0625 5.73163 50.0726C5.14683 51.0827 4.5784 51.9906 4.02631 52.8003L0.0390625 51.14C1.0369 49.8232 1.98157 48.3714 2.86081 46.7847C3.74414 45.2021 4.45162 43.7176 4.98326 42.3353L4.98735 42.3394ZM20.7441 41.5133C20.4252 40.6832 20.0694 39.7958 19.6768 38.8511C19.2842 37.9064 18.8793 36.9536 18.4663 35.9966C18.0533 35.0397 17.6402 34.14 17.2395 33.3016C16.8346 32.4633 16.4625 31.7435 16.123 31.1465L19.8854 29.9033C20.2043 30.5003 20.5724 31.2283 20.9854 32.0871C21.3985 32.9499 21.8238 33.8578 22.2613 34.8148C22.6989 35.7717 23.1161 36.7245 23.5209 37.6692C23.9258 38.6139 24.2775 39.4809 24.5719 40.2701C24.8704 40.994 25.1894 41.8323 25.5289 42.7893C25.8683 43.7462 26.2159 44.7359 26.5676 45.7541C26.9193 46.7724 27.2464 47.7703 27.5572 48.7354C27.864 49.7046 28.1257 50.5675 28.3383 51.3363L24.1262 52.6776C23.8481 51.4672 23.5291 50.2199 23.1692 48.9439C22.8093 47.668 22.4208 46.3921 22.0037 45.1162C21.5907 43.8403 21.1695 42.6379 20.7441 41.5133ZM22.2123 29.4207C22.2123 28.7173 22.384 28.0875 22.7235 27.5232C23.0629 26.9588 23.5168 26.509 24.0812 26.1655C24.6455 25.8261 25.2671 25.6543 25.946 25.6543C26.6248 25.6543 27.2546 25.8261 27.8271 26.1655C28.3997 26.5049 28.8577 26.9588 29.1971 27.5232C29.5366 28.0875 29.7083 28.7173 29.7083 29.4207C29.7083 30.1241 29.5366 30.7253 29.1971 31.2855C28.8577 31.8499 28.3997 32.2997 27.8271 32.6391C27.2546 32.9786 26.6248 33.1503 25.946 33.1503C25.2671 33.1503 24.6414 32.9786 24.0812 32.6391C23.5168 32.2997 23.067 31.8458 22.7235 31.2855C22.384 30.7212 22.2123 30.0996 22.2123 29.4207ZM24.0321 29.4207C24.0321 29.9523 24.2202 30.4063 24.5924 30.7784C24.9645 31.1506 25.4143 31.3387 25.946 31.3387C26.4776 31.3387 26.9315 31.1506 27.3037 30.7784C27.6758 30.4063 27.864 29.9564 27.864 29.4207C27.864 28.885 27.6758 28.4392 27.3037 28.0671C26.9315 27.695 26.4776 27.5068 25.946 27.5068C25.4143 27.5068 24.9604 27.695 24.5924 28.0671C24.2243 28.4392 24.0321 28.8932 24.0321 29.4207Z" fill="white"/>
<path d="M55.9578 36.9161C55.8515 37.1083 55.7452 37.321 55.6388 37.5541C55.5325 37.7872 55.4589 37.9794 55.4139 38.1266C54.9232 39.6806 54.3139 41.2224 53.5818 42.7518C52.8498 44.2813 51.8847 45.7085 50.6947 47.0253C49.0793 48.8329 47.2881 50.2806 45.3211 51.3643C43.354 52.448 41.3502 53.2782 39.3095 53.8507L36.4714 50.6282C38.831 50.1375 40.9576 49.4013 42.851 48.4117C44.7444 47.422 46.3148 46.2811 47.5703 44.9847C48.4618 44.0686 49.1856 43.0872 49.7377 42.0362C50.2898 40.9852 50.7069 39.9792 50.9809 39.0222H35.1587C34.7743 39.0222 34.2508 39.0345 33.5801 39.0549C32.9095 39.0754 32.2551 39.1204 31.6172 39.1817V35.448C32.2756 35.4889 32.9136 35.5339 33.5311 35.5748C34.1486 35.6157 34.6884 35.6402 35.1587 35.6402H51.2018C51.6925 35.6402 52.126 35.6157 52.5104 35.5625C52.8948 35.5093 53.1892 35.4316 53.4019 35.3253L55.9537 36.9202L55.9578 36.9161ZM34.5575 27.8906C34.9828 27.9561 35.4858 27.997 36.0747 28.0174C36.6595 28.0378 37.2075 28.0501 37.7187 28.0501H50.0649C50.5761 28.0501 51.1445 28.0378 51.7702 28.0174C52.3959 27.997 52.9234 27.952 53.3487 27.8906V31.6243C52.9439 31.5834 52.4327 31.5507 51.8193 31.5303C51.2018 31.5098 50.6088 31.4976 50.0322 31.4976H37.7187C37.228 31.4976 36.6922 31.5098 36.1074 31.5303C35.5227 31.5507 35.0074 31.5834 34.5616 31.6243V27.8906H34.5575Z" fill="white"/>
<path d="M61.0331 45.1155C62.1168 45.2873 63.3395 45.5081 64.7013 45.7862C66.0631 46.0643 67.4822 46.3669 68.9585 46.6941C70.4348 47.0253 71.8866 47.3688 73.3138 47.7328C74.7369 48.0927 76.0742 48.4607 77.3174 48.8329C78.5606 49.205 79.6198 49.5608 80.4909 49.9002L78.9287 53.4744C78.0576 53.1146 77.0025 52.7424 75.7716 52.358C74.5366 51.9736 73.1993 51.5974 71.7516 51.2252C70.3039 50.8531 68.844 50.5096 67.3677 50.1865C65.8873 49.8675 64.4805 49.5812 63.1391 49.3236C61.7978 49.07 60.62 48.8574 59.5977 48.6856L61.0331 45.1114V45.1155ZM62.6893 35.9632C63.818 36.1554 65.1144 36.3926 66.5825 36.6789C68.0506 36.9652 69.5637 37.2923 71.1259 37.6522C72.6881 38.0121 74.1767 38.3801 75.5917 38.7523C77.0066 39.1244 78.2007 39.4802 79.1781 39.8196L77.7754 43.3938C76.8594 43.034 75.7184 42.6618 74.3444 42.2774C72.9744 41.893 71.5103 41.5168 69.9604 41.1446C68.4064 40.7725 66.8769 40.433 65.3679 40.1222C63.8589 39.8155 62.5176 39.5743 61.348 39.4066L62.6893 35.9632ZM64.1247 27.4121C64.9753 27.5184 65.9814 27.6738 67.1387 27.8742C68.296 28.0787 69.531 28.3036 70.8397 28.5613C72.1483 28.8148 73.4569 29.0929 74.7615 29.3914C76.0701 29.69 77.2929 29.9926 78.4298 30.2993C79.5666 30.606 80.5399 30.9004 81.3497 31.1744L79.8815 34.7159C79.1372 34.4419 78.213 34.1475 77.1048 33.8408C76.0006 33.5341 74.8065 33.2233 73.5305 32.9166C72.2546 32.6099 70.9664 32.3154 69.6701 32.0414C68.3737 31.7674 67.1305 31.5139 65.9364 31.293C64.7422 31.0722 63.7035 30.9045 62.812 30.7982L64.1206 27.4162L64.1247 27.4121Z" fill="white"/>
<path d="M100.619 27.318C100.28 27.8292 99.9362 28.3813 99.5968 28.9784C99.2574 29.5754 98.9997 30.0294 98.8321 30.3483C98.1287 31.6038 97.2658 32.9166 96.2311 34.2865C95.2006 35.6565 94.0187 36.9938 92.6896 38.2901C91.3606 39.5865 89.9088 40.7684 88.3343 41.8316L85.1445 39.472C86.5268 38.6214 87.7536 37.734 88.8292 36.8097C89.9006 35.8855 90.8371 34.9613 91.6345 34.033C92.432 33.1088 93.119 32.2213 93.6916 31.3707C94.2641 30.5201 94.7426 29.7431 95.127 29.0438C95.3396 28.7044 95.5768 28.23 95.8426 27.6247C96.1084 27.0195 96.3047 26.4592 96.4315 25.9521L100.611 27.3221L100.619 27.318ZM111.113 32.2949C110.941 32.573 110.765 32.9002 110.585 33.2846C110.405 33.669 110.25 34.0493 110.123 34.4337C109.845 35.3907 109.452 36.4826 108.941 37.7053C108.43 38.9281 107.808 40.1836 107.076 41.4677C106.344 42.7559 105.498 43.9827 104.541 45.1523C103.032 46.9803 101.265 48.6365 99.2451 50.1129C97.2249 51.5932 94.7139 52.9142 91.7163 54.0837L88.367 51.0861C90.4731 50.4482 92.3134 49.7162 93.8838 48.886C95.4582 48.0558 96.8323 47.1643 98.0142 46.2074C99.196 45.2504 100.251 44.2281 101.188 43.1444C101.952 42.2733 102.656 41.2959 103.294 40.2081C103.932 39.1244 104.48 38.0407 104.938 36.9529C105.396 35.8692 105.706 34.9122 105.878 34.0821H94.808L96.1493 30.8595H105.559C106.05 30.8595 106.52 30.8268 106.978 30.7655C107.436 30.7041 107.825 30.606 108.144 30.4792L111.109 32.299L111.113 32.2949Z" fill="white"/>
<path d="M120.523 27.8291C120.503 28.189 120.474 28.5611 120.441 28.9455C120.409 29.33 120.392 29.7553 120.392 30.2215V40.9727C120.392 41.3776 120.409 41.8356 120.441 42.3427C120.474 42.8498 120.499 43.2874 120.523 43.6513H116.344C116.385 43.3773 116.426 42.9766 116.454 42.4572C116.487 41.9378 116.503 41.4308 116.503 40.94V30.2215C116.503 29.9475 116.491 29.5671 116.471 29.0887C116.45 28.6102 116.417 28.189 116.376 27.8291H120.523ZM135.29 27.5715C135.27 27.9968 135.249 28.463 135.225 28.9742C135.2 29.4854 135.192 30.0374 135.192 30.6345V36.6297C135.192 38.3964 135.11 39.9217 134.955 41.2058C134.796 42.494 134.567 43.6145 134.268 44.5715C133.969 45.5284 133.593 46.3749 133.135 47.107C132.677 47.839 132.15 48.5383 131.557 49.1967C130.874 49.9819 130.084 50.6812 129.181 51.2864C128.277 51.8917 127.361 52.4029 126.437 52.8159C125.512 53.2289 124.654 53.5643 123.868 53.8219L120.904 50.6648C122.453 50.3049 123.877 49.7978 125.161 49.1476C126.449 48.4974 127.578 47.6427 128.559 46.5794C129.111 45.9619 129.565 45.3362 129.917 44.6983C130.268 44.0603 130.534 43.3487 130.714 42.5595C130.894 41.7743 131.017 40.8787 131.082 39.8808C131.148 38.883 131.176 37.7216 131.176 36.4048V30.6304C131.176 30.0333 131.16 29.4813 131.127 28.9701C131.095 28.4589 131.045 27.9927 130.984 27.5674H135.29V27.5715Z" fill="white"/>
<path d="M140.266 46.4245C140.863 46.4449 141.488 46.4817 142.147 46.5349C142.805 46.588 143.443 46.6126 144.061 46.6126H162.594C163.126 46.6126 163.682 46.5921 164.267 46.5471C164.852 46.5063 165.408 46.4613 165.944 46.4204V50.792C165.412 50.7266 164.835 50.6816 164.222 50.6489C163.604 50.6162 163.065 50.5998 162.594 50.5998H144.061C143.443 50.5998 142.801 50.6162 142.13 50.6489C141.46 50.6816 140.838 50.7307 140.266 50.792V46.4204V46.4245ZM142.944 30.7617C143.496 30.8272 144.097 30.868 144.748 30.8885C145.394 30.9089 145.987 30.9212 146.518 30.9212H159.85C160.488 30.9212 161.11 30.9049 161.715 30.8721C162.32 30.8394 162.848 30.8026 163.294 30.7617V34.8757C162.848 34.8553 162.3 34.8349 161.65 34.8103C160.999 34.7899 160.398 34.7776 159.846 34.7776H146.543C145.946 34.7776 145.332 34.7899 144.695 34.8103C144.057 34.8308 143.472 34.8512 142.94 34.8757V30.7617H142.944Z" fill="white"/>
<path d="M172.803 35.0345C172.995 35.4394 173.224 35.9547 173.49 36.5804C173.756 37.2061 174.034 37.8767 174.32 38.5883C174.606 39.2999 174.88 39.9869 175.134 40.6453C175.387 41.3037 175.592 41.8558 175.739 42.3057L172.263 43.5816C172.136 43.1767 171.948 42.6287 171.703 41.9376C171.457 41.2465 171.188 40.5308 170.889 39.7865C170.59 39.0422 170.308 38.3552 170.043 37.7295C169.777 37.1038 169.548 36.6172 169.355 36.2777L172.799 35.0345H172.803ZM191.909 35.5457C191.762 36.0119 191.631 36.4127 191.525 36.7399C191.418 37.0711 191.32 37.3819 191.238 37.6804C190.813 39.3162 190.249 40.952 189.549 42.5756C188.846 44.2032 187.942 45.7286 186.838 47.1517C185.349 49.0451 183.669 50.6441 181.8 51.9528C179.927 53.2614 178.066 54.2674 176.218 54.9667L173.22 51.9037C174.41 51.5643 175.649 51.0817 176.937 50.4519C178.226 49.8262 179.461 49.0656 180.655 48.17C181.849 47.2744 182.875 46.2888 183.75 45.2051C184.495 44.2891 185.153 43.2421 185.73 42.0644C186.302 40.8825 186.781 39.6229 187.165 38.2857C187.55 36.9443 187.803 35.6071 187.93 34.2657L191.917 35.5416L191.909 35.5457ZM180.205 33.3783C180.352 33.7177 180.548 34.2044 180.794 34.8301C181.039 35.4558 181.293 36.1264 181.559 36.838C181.824 37.5496 182.07 38.2203 182.291 38.8459C182.515 39.4757 182.679 39.9665 182.785 40.3304L179.371 41.5409C179.285 41.1565 179.138 40.6535 178.925 40.0237C178.712 39.398 178.479 38.7355 178.221 38.0444C177.968 37.3533 177.71 36.6867 177.457 36.0487C177.203 35.4108 176.991 34.8914 176.819 34.4865L180.201 33.3701L180.205 33.3783Z" fill="white"/>
<path d="M209.932 27.318C209.592 27.8292 209.249 28.3813 208.909 28.9784C208.57 29.5754 208.312 30.0294 208.145 30.3483C207.441 31.6038 206.578 32.9166 205.544 34.2865C204.513 35.6565 203.331 36.9938 202.002 38.2901C200.673 39.5865 199.221 40.7684 197.647 41.8316L194.457 39.472C195.839 38.6214 197.066 37.734 198.142 36.8097C199.213 35.8855 200.15 34.9613 200.947 34.033C201.744 33.1088 202.432 32.2213 203.004 31.3707C203.577 30.5201 204.055 29.7431 204.439 29.0438C204.652 28.7044 204.889 28.23 205.155 27.6247C205.421 27.0195 205.617 26.4592 205.744 25.9521L209.923 27.3221L209.932 27.318ZM220.429 32.2949C220.258 32.573 220.082 32.9002 219.902 33.2846C219.722 33.669 219.566 34.0493 219.44 34.4337C219.162 35.3907 218.769 36.4826 218.258 37.7053C217.747 38.9281 217.125 40.1836 216.393 41.4677C215.661 42.7559 214.815 43.9827 213.858 45.1523C212.349 46.9803 210.582 48.6365 208.562 50.1129C206.541 51.5932 204.031 52.9142 201.033 54.0837L197.684 51.0861C199.79 50.4482 201.63 49.7162 203.2 48.886C204.775 48.0558 206.149 47.1643 207.331 46.2074C208.513 45.2504 209.568 44.2281 210.504 43.1444C211.269 42.2733 211.972 41.2959 212.61 40.2081C213.248 39.1244 213.796 38.0407 214.254 36.9529C214.712 35.8692 215.023 34.9122 215.195 34.0821H204.125L205.466 30.8595H214.876C215.367 30.8595 215.837 30.8268 216.295 30.7655C216.753 30.7041 217.141 30.606 217.46 30.4792L220.425 32.299L220.429 32.2949Z" fill="white"/>
<path d="M250.793 18.821C248.376 20.5222 245.775 21.3728 242.998 21.3728C240.823 21.3728 238.86 20.9107 237.105 19.9906C235.351 19.0704 233.691 18.044 232.12 16.9194C230.55 15.7948 229.008 14.756 227.499 13.8073C225.99 12.8544 224.387 12.38 222.694 12.38C220.396 12.38 218.527 13.0303 217.075 14.3266C215.623 15.623 214.478 17.1647 213.632 18.9519L209.734 16.7026C210.761 13.9954 212.483 11.7912 214.899 10.0899C217.316 8.3887 219.913 7.53809 222.694 7.53809C224.87 7.53809 226.833 8.01247 228.587 8.96532C230.337 9.91817 232.002 10.9528 233.572 12.0774C235.142 13.202 236.684 14.2244 238.193 15.1486C239.702 16.0729 241.305 16.5309 242.998 16.5309C245.292 16.5309 247.17 15.8806 248.617 14.5843C250.065 13.2879 251.214 11.7462 252.061 9.95906L255.958 12.2083C254.931 14.9196 253.21 17.1238 250.793 18.821Z" fill="white"/>
</g>
<defs>
<clipPath id="clip0_4083_2021">
<rect width="255.916" height="47.434" fill="white" transform="translate(0.0429688 7.53809)"/>
</clipPath>
</defs>
</svg>
