<svg width="158" height="38" viewBox="0 0 158 38" fill="none" xmlns="http://www.w3.org/2000/svg">
<g clip-path="url(#clip0_4027_1602)">
<path d="M3.14881 26.169C3.37071 25.6319 3.58505 25.057 3.78678 24.4493C3.99103 23.8391 4.17258 23.2112 4.33649 22.5606C4.50039 21.9126 4.64412 21.267 4.77021 20.624C4.89376 19.981 4.98202 19.3531 5.03497 18.7353L7.59189 19.2674C7.55154 19.4515 7.49859 19.6557 7.43555 19.8776C7.36999 20.0995 7.31451 20.3214 7.26912 20.5358C7.22373 20.7526 7.18591 20.9392 7.16069 21.0956C7.09513 21.4234 7.00435 21.8293 6.88584 22.316C6.76732 22.8027 6.63116 23.3196 6.47229 23.8693C6.31595 24.419 6.14953 24.9738 5.98058 25.5311C5.80911 26.0883 5.6326 26.6028 5.44852 27.0743C5.21149 27.6896 4.93663 28.3326 4.62143 29.0008C4.30623 29.669 3.96833 30.3146 3.60774 30.9374C3.24715 31.5602 2.89665 32.12 2.55623 32.6193L0.0976562 31.5956C0.71293 30.7836 1.29542 29.8884 1.83757 28.91C2.38224 27.9342 2.81848 27.0188 3.14629 26.1665L3.14881 26.169ZM12.8646 25.6597C12.6679 25.1478 12.4485 24.6006 12.2064 24.0181C11.9644 23.4356 11.7147 22.8481 11.46 22.258C11.2054 21.668 10.9507 21.1132 10.7036 20.5963C10.4539 20.0793 10.2245 19.6355 10.0152 19.2674L12.335 18.5008C12.5317 18.869 12.7587 19.3178 13.0134 19.8474C13.268 20.3794 13.5303 20.9392 13.8001 21.5293C14.0699 22.1193 14.3271 22.7069 14.5768 23.2894C14.8264 23.8719 15.0433 24.4064 15.2248 24.8931C15.4089 25.3394 15.6056 25.8564 15.8149 26.4464C16.0242 27.0365 16.2385 27.6467 16.4554 28.2746C16.6722 28.9025 16.8739 29.5177 17.0656 30.1128C17.2547 30.7105 17.4161 31.2425 17.5472 31.7166L14.95 32.5437C14.7785 31.7973 14.5818 31.0282 14.3599 30.2414C14.138 29.4547 13.8984 28.668 13.6412 27.8812C13.3866 27.0945 13.1268 26.3531 12.8646 25.6597ZM13.7698 18.2033C13.7698 17.7695 13.8757 17.3812 14.085 17.0332C14.2943 16.6853 14.5742 16.4079 14.9222 16.1961C15.2702 15.9868 15.6535 15.8809 16.0721 15.8809C16.4907 15.8809 16.879 15.9868 17.232 16.1961C17.585 16.4054 17.8675 16.6853 18.0768 17.0332C18.2861 17.3812 18.392 17.7695 18.392 18.2033C18.392 18.637 18.2861 19.0077 18.0768 19.3531C17.8675 19.7011 17.585 19.9785 17.232 20.1878C16.879 20.3971 16.4907 20.503 16.0721 20.503C15.6535 20.503 15.2677 20.3971 14.9222 20.1878C14.5742 19.9785 14.2969 19.6986 14.085 19.3531C13.8757 19.0051 13.7698 18.6219 13.7698 18.2033ZM14.892 18.2033C14.892 18.5311 15.008 18.811 15.2374 19.0404C15.4669 19.2699 15.7443 19.3859 16.0721 19.3859C16.3999 19.3859 16.6798 19.2699 16.9093 19.0404C17.1387 18.811 17.2547 18.5336 17.2547 18.2033C17.2547 17.8729 17.1387 17.5981 16.9093 17.3686C16.6798 17.1391 16.3999 17.0232 16.0721 17.0232C15.7443 17.0232 15.4644 17.1391 15.2374 17.3686C15.0105 17.5981 14.892 17.878 14.892 18.2033Z" fill="white"/>
<path d="M34.5789 22.825C34.5134 22.9435 34.4478 23.0746 34.3823 23.2183C34.3167 23.3621 34.2713 23.4806 34.2436 23.5714C33.941 24.5296 33.5653 25.4802 33.1139 26.4233C32.6625 27.3664 32.0674 28.2464 31.3336 29.0584C30.3376 30.1729 29.2331 31.0656 28.0202 31.7338C26.8073 32.4021 25.5717 32.9139 24.3135 33.267L22.5635 31.2799C24.0184 30.9773 25.3297 30.5234 26.4972 29.9132C27.6647 29.303 28.633 28.5995 29.4071 27.8001C29.9568 27.2353 30.4032 26.6301 30.7436 25.982C31.084 25.334 31.3412 24.7137 31.5101 24.1236H21.754C21.517 24.1236 21.1942 24.1312 20.7807 24.1438C20.3671 24.1564 19.9637 24.1841 19.5703 24.2219V21.9197C19.9763 21.9449 20.3697 21.9727 20.7504 21.9979C21.1312 22.0231 21.464 22.0382 21.754 22.0382H31.6463C31.9489 22.0382 32.2162 22.0231 32.4532 21.9903C32.6903 21.9575 32.8718 21.9096 33.0029 21.8441L34.5764 22.8275L34.5789 22.825ZM21.3834 17.2598C21.6456 17.3001 21.9558 17.3253 22.3189 17.3379C22.6795 17.3505 23.0174 17.3581 23.3326 17.3581H30.9453C31.2605 17.3581 31.611 17.3505 31.9968 17.3379C32.3826 17.3253 32.7079 17.2976 32.9702 17.2598V19.562C32.7205 19.5368 32.4053 19.5166 32.0271 19.504C31.6463 19.4914 31.2807 19.4838 30.9251 19.4838H23.3326C23.03 19.4838 22.6996 19.4914 22.339 19.504C21.9785 19.5166 21.6607 19.5368 21.3859 19.562V17.2598H21.3834Z" fill="white"/>
<path d="M37.7074 27.8809C38.3756 27.9868 39.1295 28.123 39.9692 28.2945C40.8089 28.4659 41.6839 28.6525 42.5942 28.8542C43.5045 29.0585 44.3997 29.2703 45.2798 29.4947C46.1573 29.7166 46.9818 29.9436 47.7484 30.1731C48.515 30.4025 49.1681 30.6219 49.7052 30.8312L48.7419 33.0351C48.2048 32.8132 47.5542 32.5837 46.7952 32.3467C46.0337 32.1097 45.2092 31.8777 44.3165 31.6482C43.4238 31.4187 42.5236 31.2069 41.6133 31.0077C40.7005 30.811 39.8331 30.6345 39.006 30.4756C38.1789 30.3193 37.4527 30.1882 36.8223 30.0823L37.7074 27.8784V27.8809ZM38.7286 22.2375C39.4246 22.3561 40.2239 22.5023 41.1292 22.6788C42.0344 22.8553 42.9674 23.0571 43.9307 23.279C44.8939 23.5009 45.8118 23.7278 46.6843 23.9573C47.5568 24.1867 48.2931 24.4061 48.8957 24.6154L48.0308 26.8193C47.466 26.5974 46.7625 26.3679 45.9152 26.1309C45.0705 25.8939 44.1677 25.6619 43.212 25.4324C42.2538 25.203 41.3107 24.9937 40.3803 24.802C39.4498 24.6129 38.6227 24.4641 37.9015 24.3607L38.7286 22.2375ZM39.6137 16.9648C40.1382 17.0304 40.7585 17.1262 41.4721 17.2498C42.1857 17.3759 42.9473 17.5146 43.7542 17.6734C44.5611 17.8298 45.368 18.0012 46.1724 18.1853C46.9793 18.3694 47.7333 18.556 48.4343 18.7451C49.1353 18.9342 49.7354 19.1158 50.2347 19.2847L49.3295 21.4684C48.8705 21.2995 48.3006 21.1179 47.6173 20.9288C46.9365 20.7397 46.2001 20.5481 45.4134 20.3589C44.6267 20.1698 43.8323 19.9883 43.033 19.8193C42.2336 19.6504 41.4671 19.494 40.7308 19.3579C39.9945 19.2217 39.354 19.1183 38.8043 19.0527L39.6112 16.9674L39.6137 16.9648Z" fill="white"/>
<path d="M62.116 16.9067C61.9067 17.2219 61.6949 17.5623 61.4856 17.9304C61.2763 18.2986 61.1174 18.5785 61.0141 18.7752C60.5803 19.5493 60.0483 20.3588 59.4103 21.2035C58.7749 22.0482 58.0461 22.8728 57.2266 23.6722C56.4071 24.4715 55.5119 25.2003 54.5411 25.8559L52.5742 24.4009C53.4265 23.8764 54.183 23.3292 54.8462 22.7593C55.5069 22.1895 56.0843 21.6196 56.576 21.0472C57.0677 20.4773 57.4914 19.9301 57.8444 19.4056C58.1974 18.8811 58.4924 18.402 58.7295 17.9708C58.8606 17.7615 59.0069 17.469 59.1708 17.0958C59.3347 16.7226 59.4557 16.3771 59.5339 16.0645L62.111 16.9092L62.116 16.9067ZM68.5865 19.9755C68.4806 20.1469 68.3721 20.3487 68.2612 20.5857C68.1502 20.8227 68.0544 21.0572 67.9762 21.2943C67.8048 21.8843 67.5627 22.5576 67.2475 23.3116C66.9323 24.0655 66.549 24.8397 66.0976 25.6315C65.6463 26.4258 65.1243 27.1822 64.5342 27.9034C63.6038 29.0306 62.5144 30.0518 61.2687 30.9621C60.0231 31.875 58.4748 32.6894 56.6264 33.4106L54.5612 31.5623C55.8599 31.1689 56.9946 30.7175 57.9629 30.2057C58.9337 29.6938 59.781 29.1441 60.5097 28.554C61.2385 27.9639 61.8891 27.3335 62.4665 26.6653C62.938 26.1282 63.3718 25.5255 63.7651 24.8548C64.1585 24.1866 64.4964 23.5183 64.7788 22.8476C65.0612 22.1794 65.2529 21.5893 65.3588 21.0774H58.5328L59.3599 19.0904H65.1621C65.4647 19.0904 65.7547 19.0702 66.0371 19.0324C66.3195 18.9946 66.5591 18.934 66.7558 18.8559L68.5839 19.978L68.5865 19.9755Z" fill="white"/>
<path d="M74.3896 17.2219C74.377 17.4438 74.3593 17.6733 74.3392 17.9103C74.319 18.1474 74.3089 18.4096 74.3089 18.6971V25.3264C74.3089 25.576 74.319 25.8585 74.3392 26.1711C74.3593 26.4838 74.3745 26.7536 74.3896 26.978H71.8125C71.8377 26.8091 71.8629 26.562 71.8806 26.2417C71.9008 25.9215 71.9108 25.6088 71.9108 25.3062V18.6971C71.9108 18.5281 71.9033 18.2936 71.8907 17.9986C71.8781 17.7036 71.8579 17.4438 71.8327 17.2219H74.3896ZM83.4951 17.0631C83.4825 17.3253 83.4699 17.6128 83.4548 17.928C83.4397 18.2432 83.4346 18.5836 83.4346 18.9518V22.6484C83.4346 23.7378 83.3842 24.6783 83.2884 25.4701C83.19 26.2644 83.0488 26.9554 82.8647 27.5454C82.6806 28.1355 82.4487 28.6574 82.1662 29.1088C81.8838 29.5602 81.5585 29.9914 81.1929 30.3974C80.7718 30.8815 80.2851 31.3127 79.7278 31.6859C79.1706 32.0591 78.6057 32.3743 78.0358 32.629C77.466 32.8837 76.9364 33.0904 76.4523 33.2493L74.6241 31.3026C75.5798 31.0807 76.4573 30.768 77.2491 30.3671C78.0434 29.9662 78.7394 29.4391 79.3446 28.7835C79.685 28.4028 79.9649 28.017 80.1817 27.6236C80.3986 27.2302 80.5625 26.7914 80.6734 26.3048C80.7844 25.8206 80.86 25.2684 80.9004 24.6531C80.9407 24.0378 80.9584 23.3217 80.9584 22.5098V18.9492C80.9584 18.5811 80.9483 18.2407 80.9281 17.9255C80.908 17.6103 80.8777 17.3228 80.8399 17.0605H83.4951V17.0631Z" fill="white"/>
<path d="M86.5645 28.6881C86.9326 28.7007 87.3184 28.7234 87.7244 28.7561C88.1304 28.7889 88.5237 28.804 88.9045 28.804H100.332C100.66 28.804 101.003 28.7914 101.364 28.7637C101.724 28.7385 102.067 28.7107 102.398 28.6855V31.3811C102.07 31.3408 101.714 31.313 101.336 31.2929C100.955 31.2727 100.622 31.2626 100.332 31.2626H88.9045C88.5237 31.2626 88.1279 31.2727 87.7143 31.2929C87.3008 31.313 86.9175 31.3433 86.5645 31.3811V28.6855V28.6881ZM88.2161 19.0303C88.5565 19.0706 88.9272 19.0958 89.3281 19.1084C89.7266 19.1211 90.0922 19.1286 90.42 19.1286H98.6405C99.0338 19.1286 99.4171 19.1185 99.7903 19.0984C100.164 19.0782 100.489 19.0555 100.764 19.0303V21.567C100.489 21.5544 100.151 21.5418 99.75 21.5267C99.349 21.5141 98.9783 21.5065 98.6379 21.5065H90.4351C90.067 21.5065 89.6887 21.5141 89.2954 21.5267C88.902 21.5393 88.5414 21.5519 88.2136 21.567V19.0303H88.2161Z" fill="white"/>
<path d="M106.626 21.665C106.744 21.9146 106.885 22.2323 107.049 22.6181C107.213 23.0039 107.385 23.4175 107.561 23.8563C107.738 24.295 107.907 24.7186 108.063 25.1246C108.219 25.5306 108.345 25.871 108.436 26.1484L106.293 26.9351C106.215 26.6855 106.099 26.3476 105.947 25.9215C105.796 25.4953 105.63 25.054 105.446 24.5951C105.262 24.1361 105.088 23.7125 104.924 23.3267C104.76 22.9409 104.619 22.6408 104.5 22.4315L106.623 21.665H106.626ZM118.407 21.9802C118.316 22.2676 118.235 22.5148 118.17 22.7165C118.104 22.9207 118.044 23.1124 117.993 23.2965C117.731 24.3051 117.383 25.3137 116.952 26.3148C116.518 27.3184 115.961 28.259 115.28 29.1365C114.362 30.304 113.326 31.29 112.173 32.0969C111.018 32.9038 109.871 33.5241 108.731 33.9553L106.883 32.0666C107.617 31.8573 108.381 31.5598 109.175 31.1714C109.969 30.7856 110.731 30.3166 111.467 29.7644C112.204 29.2122 112.836 28.6044 113.376 27.9362C113.835 27.3714 114.241 26.7258 114.597 25.9996C114.95 25.2709 115.245 24.4942 115.482 23.6697C115.719 22.8426 115.875 22.018 115.953 21.1909L118.412 21.9776L118.407 21.9802ZM111.19 20.6437C111.281 20.853 111.402 21.1531 111.553 21.5389C111.704 21.9247 111.861 22.3382 112.024 22.777C112.188 23.2158 112.34 23.6293 112.476 24.0151C112.615 24.4034 112.715 24.706 112.781 24.9305L110.675 25.6769C110.622 25.4398 110.532 25.1297 110.401 24.7413C110.269 24.3555 110.126 23.947 109.967 23.5209C109.811 23.0947 109.652 22.6837 109.495 22.2903C109.339 21.897 109.208 21.5767 109.102 21.3271L111.187 20.6387L111.19 20.6437Z" fill="white"/>
<path d="M129.52 16.9067C129.311 17.2219 129.099 17.5623 128.89 17.9304C128.681 18.2986 128.522 18.5785 128.418 18.7752C127.985 19.5493 127.453 20.3588 126.815 21.2035C126.179 22.0482 125.45 22.8728 124.631 23.6722C123.811 24.4715 122.916 25.2003 121.945 25.8559L119.979 24.4009C120.831 23.8764 121.587 23.3292 122.25 22.7593C122.911 22.1895 123.489 21.6196 123.98 21.0472C124.472 20.4773 124.896 19.9301 125.249 19.4056C125.602 18.8811 125.897 18.402 126.134 17.9708C126.265 17.7615 126.411 17.469 126.575 17.0958C126.739 16.7226 126.86 16.3771 126.938 16.0645L129.515 16.9092L129.52 16.9067ZM135.993 19.9755C135.887 20.1469 135.779 20.3487 135.668 20.5857C135.557 20.8227 135.461 21.0572 135.383 21.2943C135.212 21.8843 134.969 22.5576 134.654 23.3116C134.339 24.0655 133.956 24.8397 133.504 25.6315C133.053 26.4258 132.531 27.1822 131.941 27.9034C131.011 29.0306 129.921 30.0518 128.676 30.9621C127.43 31.875 125.882 32.6894 124.033 33.4106L121.968 31.5623C123.267 31.1689 124.401 30.7175 125.37 30.2057C126.341 29.6938 127.188 29.1441 127.917 28.554C128.645 27.9639 129.296 27.3335 129.873 26.6653C130.345 26.1282 130.779 25.5255 131.172 24.8548C131.565 24.1866 131.903 23.5183 132.186 22.8476C132.468 22.1794 132.66 21.5893 132.766 21.0774H125.94L126.767 19.0904H132.569C132.872 19.0904 133.162 19.0702 133.444 19.0324C133.726 18.9946 133.966 18.934 134.163 18.8559L135.991 19.978L135.993 19.9755Z" fill="white"/>
<path d="M154.715 11.6671C153.225 12.7161 151.621 13.2406 149.909 13.2406C148.568 13.2406 147.357 12.9556 146.276 12.3883C145.194 11.8209 144.17 11.188 143.202 10.4945C142.233 9.8011 141.283 9.16061 140.352 8.57559C139.422 7.98806 138.433 7.69555 137.389 7.69555C135.972 7.69555 134.82 8.09649 133.925 8.89584C133.03 9.69519 132.324 10.6458 131.802 11.7478L129.398 10.3609C130.031 8.69159 131.093 7.33244 132.583 6.28345C134.074 5.23446 135.675 4.70996 137.389 4.70996C138.731 4.70996 139.941 5.00247 141.023 5.59C142.102 6.17754 143.129 6.81551 144.097 7.50895C145.065 8.20239 146.016 8.8328 146.946 9.40268C147.877 9.97257 148.865 10.255 149.909 10.255C151.324 10.255 152.481 9.85405 153.374 9.0547C154.267 8.25535 154.975 7.3047 155.497 6.20276L157.9 7.58964C157.267 9.26147 156.206 10.6206 154.715 11.6671Z" fill="white"/>
</g>
<defs>
<clipPath id="clip0_4027_1602">
<rect width="157.8" height="29.2482" fill="white" transform="translate(0.0996094 4.70996)"/>
</clipPath>
</defs>
</svg>
