<svg width="257" height="60" viewBox="0 0 257 60" fill="none" xmlns="http://www.w3.org/2000/svg">
<path d="M3.62734 39.8671H11.1465V28.8211H14.7694V57.3806H0V28.8211H3.62734V39.8671ZM11.1421 54.1491V43.1032H3.62734V54.1491H11.1465H11.1421ZM23.7996 28.2695V41.0025H28.5658V44.2707H23.7996V59.4813H20.1409V28.2695H23.7996Z" fill="white"/>
<path d="M45.4822 45.6491H31.8203V35.5317H42.9982V31.7807H31.8203V28.6504H46.6211V38.662H35.479V42.5509H46.4193C49.1723 42.5509 51.051 42.1739 52.3603 41.1765V28.2734H56.019V35.6374H60.4489V38.9424H56.019V46.858H52.3603V44.1046C51.0869 45.171 48.9033 45.6537 45.4777 45.6537L45.4822 45.6491ZM33.5645 59.7932V48.7794H56.019V59.7932H33.5645ZM52.3603 51.9788H37.1873V56.6261H52.3603V51.9788Z" fill="white"/>
<path d="M63.6412 51.8107V48.5424H90.6601V51.8107H78.9128V60.002H75.2854V51.8107H63.6367H63.6412ZM68.8782 33.4008H85.4276V28.6523H89.0864V44.6536H65.2195V28.6523H68.8782V33.4008ZM85.4232 41.4542V36.6001H68.8737V41.4542H85.4232Z" fill="white"/>
<path d="M95.6641 46.7486V43.5125H123.087V46.7486H95.6641ZM101.3 28.4766V36.1163H121.271V39.3524H97.6728V28.4766H101.296H101.3ZM101.3 49.6767V56.3879H121.643V59.624H97.6773V49.6813H101.3V49.6767Z" fill="white"/>
<path d="M142.12 42.2758H128.494V28.4764H132.153V39.0397H143.093C145.846 39.0397 147.725 38.626 149.034 37.6285V28.2695H152.693V34.1212H157.123V37.4262H152.693V43.4479H149.034V40.7313C147.761 41.7977 145.577 42.2804 142.12 42.2804V42.2758ZM133.861 54.0434V56.7601H153.06V59.7893H130.238V51.0831H149.034V48.2975H130.238V45.305H152.693V54.0434H133.861Z" fill="white"/>
<path d="M160.782 43.0342C160.782 35.5324 161.419 31.7125 163.163 29.7497C164.068 28.7844 165.243 28.2695 166.857 28.2695C168.471 28.2695 169.678 28.7844 170.547 29.7497C172.126 31.5056 172.798 34.705 172.928 40.6577H176.251V28.4764H179.811V59.0998H176.251V43.926H172.96C172.892 50.8441 172.256 54.4203 170.543 56.3142C169.669 57.2427 168.462 57.7254 166.853 57.7254C165.243 57.7254 164.068 57.2427 163.158 56.3142C161.414 54.3514 160.777 50.5315 160.777 43.0296L160.782 43.0342ZM164.275 43.0342C164.275 49.4696 164.544 52.5678 165.485 53.8411C165.822 54.3238 166.292 54.5306 166.862 54.5306C167.467 54.5306 167.902 54.3238 168.27 53.8411C169.211 52.5678 169.444 49.4696 169.444 43.0342C169.444 36.5988 169.211 33.4684 168.27 32.2273C167.902 31.7447 167.463 31.5056 166.862 31.5056C166.292 31.5056 165.822 31.7447 165.485 32.2273C164.544 33.4684 164.275 36.5988 164.275 43.0342ZM186.124 59.4813H182.568V28.2695H186.124V59.4813Z" fill="white"/>
<path d="M217.976 32.1286H197.768V42.7286H218.21V45.9969H207.937V54.8732H219.55V58.1093H192.531V54.8732H204.314V45.9969H194.11V28.8281H217.976V32.1332V32.1286Z" fill="white"/>
<path d="M250.577 12.6778C247.927 14.59 245.076 15.5461 242.031 15.5461C239.646 15.5461 237.494 15.0267 235.57 13.9924C233.647 12.9582 231.826 11.8044 230.104 10.5449C228.383 9.2808 226.692 8.11323 225.038 7.04678C223.383 5.97575 221.626 5.44253 219.769 5.44253C217.25 5.44253 215.201 6.17341 213.609 7.63057C212.017 9.08773 210.762 10.8207 209.834 12.8295L205.561 10.3013C206.686 7.25823 208.574 4.7806 211.223 2.86836C213.873 0.956119 216.721 0 219.769 0C222.155 0 224.307 0.533221 226.231 1.60426C228.15 2.6753 229.974 3.83827 231.696 5.10237C233.418 6.36647 235.108 7.51565 236.763 8.55451C238.417 9.59337 240.175 10.1082 242.031 10.1082C244.547 10.1082 246.605 9.37733 248.192 7.92016C249.779 6.463 251.039 4.73003 251.967 2.72126L256.24 5.24946C255.115 8.29709 253.227 10.7747 250.577 12.6824V12.6778Z" fill="white"/>
</svg>
