<svg width="158" height="37" viewBox="0 0 158 37" fill="none" xmlns="http://www.w3.org/2000/svg">
<path d="M2.23664 24.5828H6.87305V17.7718H9.10693V35.3818H0V17.7718H2.23664V24.5828ZM6.87029 33.3892V26.5782H2.23664V33.3892H6.87305H6.87029ZM14.675 17.4316V25.2829H17.6139V27.2981H14.675V36.6771H12.419V17.4316H14.675Z" fill="white"/>
<path d="M28.0451 28.1485H19.6211V21.9101H26.5135V19.5972H19.6211V17.667H28.7474V23.8403H21.8771V26.2382H28.623C30.3205 26.2382 31.4789 26.0057 32.2862 25.3907V17.4346H34.5422V21.9752H37.2737V24.0132H34.5422V28.894H32.2862V27.1962C31.501 27.8538 30.1546 28.1514 28.0424 28.1514L28.0451 28.1485ZM20.6966 36.8699V30.0787H34.5422V36.8699H20.6966ZM32.2862 32.0515H22.9304V34.917H32.2862V32.0515Z" fill="white"/>
<path d="M39.242 31.9466V29.9314H55.9021V31.9466H48.6586V36.9975H46.422V31.9466H39.2393H39.242ZM42.4712 20.5949H52.6757V17.667H54.9317V27.5335H40.2152V17.667H42.4712V20.5949ZM52.673 25.5607V22.5676H42.4684V25.5607H52.673Z" fill="white"/>
<path d="M58.9873 28.8257V26.8303H75.8962V28.8257H58.9873ZM62.4625 17.5591V22.2698H74.7765V24.2652H60.2259V17.5591H62.4598H62.4625ZM62.4625 30.6312V34.7694H75.006V36.7648H60.2287V30.6341H62.4625V30.6312Z" fill="white"/>
<path d="M87.6324 26.068H79.2305V17.5592H81.4865V24.0726H88.2323C89.9299 24.0726 91.0883 23.8175 91.8956 23.2024V17.4316H94.1516V21.0398H96.8831V23.0777H94.1516V26.7908H91.8956V25.1156C91.1104 25.7732 89.764 26.0708 87.6324 26.0708V26.068ZM82.5398 33.324V34.9991H94.3783V36.867H80.3059V31.4987H91.8956V29.781H80.3059V27.9359H94.1516V33.324H82.5398Z" fill="white"/>
<path d="M99.1395 26.5357C99.1395 21.91 99.5321 19.5546 100.608 18.3443C101.166 17.7491 101.89 17.4316 102.886 17.4316C103.881 17.4316 104.625 17.7491 105.161 18.3443C106.134 19.427 106.549 21.3998 106.629 25.0703H108.678V17.5592H110.873V36.4418H108.678V27.0855H106.648C106.607 31.3513 106.214 33.5564 105.158 34.7242C104.619 35.2967 103.875 35.5944 102.883 35.5944C101.89 35.5944 101.166 35.2967 100.605 34.7242C99.5293 33.5139 99.1367 31.1585 99.1367 26.5328L99.1395 26.5357ZM101.293 26.5357C101.293 30.5038 101.459 32.4142 102.04 33.1993C102.247 33.4969 102.537 33.6245 102.888 33.6245C103.262 33.6245 103.53 33.4969 103.757 33.1993C104.337 32.4142 104.481 30.5038 104.481 26.5357C104.481 22.5675 104.337 20.6373 103.757 19.872C103.53 19.5744 103.259 19.427 102.888 19.427C102.537 19.427 102.247 19.5744 102.04 19.872C101.459 20.6373 101.293 22.5675 101.293 26.5357ZM114.766 36.6771H112.573V17.4316H114.766V36.6771Z" fill="white"/>
<path d="M134.406 19.8095H121.946V26.3456H134.55V28.3608H128.216V33.834H135.377V35.8294H118.717V33.834H125.982V28.3608H119.69V17.7744H134.406V19.8123V19.8095Z" fill="white"/>
<path d="M154.509 7.81722C152.875 8.99632 151.116 9.58588 149.239 9.58588C147.768 9.58588 146.441 9.26559 145.255 8.62785C144.069 7.99012 142.947 7.27869 141.885 6.50207C140.823 5.72261 139.781 5.00268 138.761 4.3451C137.741 3.68469 136.657 3.35591 135.512 3.35591C133.959 3.35591 132.695 3.80657 131.714 4.70507C130.732 5.60357 129.958 6.67213 129.386 7.91076L126.751 6.35185C127.445 4.47549 128.609 2.94776 130.243 1.76865C131.877 0.589551 133.632 0 135.512 0C136.983 0 138.31 0.328788 139.496 0.989199C140.68 1.64961 141.805 2.36671 142.866 3.14616C143.928 3.92562 144.97 4.63421 145.991 5.27478C147.011 5.91535 148.094 6.2328 149.239 6.2328C150.79 6.2328 152.059 5.78214 153.038 4.88364C154.016 3.98514 154.793 2.91658 155.366 1.67795L158 3.23686C157.306 5.11606 156.143 6.64379 154.509 7.82006V7.81722Z" fill="white"/>
</svg>
