<svg width="1571" height="560" viewBox="0 0 1571 560" fill="none" xmlns="http://www.w3.org/2000/svg">
<g style="mix-blend-mode:multiply">
<path d="M1392.24 79.2135C1401.73 79.2135 1409.42 71.5182 1409.42 62.0257C1409.42 52.5331 1401.73 44.8379 1392.24 44.8379C1382.76 44.8379 1375.06 52.5331 1375.06 62.0257C1375.06 71.5182 1382.76 79.2135 1392.24 79.2135Z" fill="#0092CA"/>
</g>
<g style="mix-blend-mode:multiply">
<path d="M573.762 58.3862H547.408V136.609H573.762V58.3862Z" fill="#0092CA"/>
</g>
<g style="mix-blend-mode:multiply">
<path d="M215.644 198.148C233.938 198.148 248.768 183.31 248.768 165.007C248.768 146.704 233.938 131.866 215.644 131.866C197.35 131.866 182.52 146.704 182.52 165.007C182.52 183.31 197.35 198.148 215.644 198.148Z" fill="#0092CA"/>
</g>
<g style="mix-blend-mode:multiply">
<path d="M1220.86 515.05V541.417H1445.34V515.05H1220.86Z" fill="#0092CA"/>
</g>
<g style="mix-blend-mode:multiply">
<path d="M1130.9 240.76H1116.17V280.935H1130.9V240.76Z" fill="#0092CA"/>
</g>
<path d="M496.26 311.591C498.241 314.304 501.472 315.831 504.833 315.831H619.973C623.984 315.928 627.28 312.695 627.28 308.683C627.28 296.515 619.908 294.062 610.182 297.018C605.944 298.302 601.349 296.84 598.475 293.461L595.373 289.838C571.456 256.616 543.186 275.655 532.827 288.701C531.381 290.52 528.54 291.137 526.51 290C514.365 283.177 504.849 288.424 499.605 293.071C499.605 293.071 489.391 302.201 496.26 311.574V311.591Z" stroke="#221E1F" stroke-width="1.61211" stroke-miterlimit="10" stroke-linecap="round"/>
<path d="M25.0496 547.525H78.5033C102.616 547.525 126.03 536.559 139.556 516.61C159.902 486.604 141.927 461.196 102.795 456.68C50.6236 450.653 56.6477 417.528 69.6864 389.927C82.7251 362.326 78.2111 348.273 38.5754 344.748C-1.06022 341.239 -14.0989 306.604 26.5272 296.06C67.1696 285.517 71.6836 169.069 128.369 155.52C185.054 141.971 217.301 170.109 217.301 170.109" stroke="#221E1F" stroke-width="1.61211" stroke-miterlimit="10" stroke-linecap="round"/>
<path d="M302.11 362.65C292.319 382.405 274.864 399.771 247.78 408.983C180.411 431.921 148.407 445.649 147.936 491.819C147.449 537.988 234.546 556.183 234.546 556.183" stroke="#221E1F" stroke-width="1.61211" stroke-miterlimit="10" stroke-linecap="round"/>
<path d="M324.63 158.785C283.549 149.915 245.342 152.271 224.964 165.056C173.459 197.368 190.703 235.415 194.86 240.338C194.86 240.338 211.666 267.939 265.85 258.403C272.621 257.217 278.873 258.175 284.458 260.84" stroke="#221E1F" stroke-width="1.61211" stroke-miterlimit="10" stroke-linecap="round"/>
<path d="M205.415 250.231C205.415 250.231 194.845 292.616 169.027 296.06C145.597 299.196 144.2 317.65 150.468 327.187C160.762 342.847 199.131 331.199 189.097 370.855C179.062 410.51 222.432 416.813 222.432 416.813" stroke="#221E1F" stroke-width="1.61211" stroke-miterlimit="10" stroke-linecap="round"/>
<path d="M66.5527 397.108C66.5527 397.108 96.8356 415.449 116.808 390.837" stroke="#221E1F" stroke-width="1.61211" stroke-miterlimit="10" stroke-linecap="round"/>
<path d="M294.705 397.108C294.705 397.108 324.988 415.449 344.96 390.837" stroke="#221E1F" stroke-width="1.61211" stroke-miterlimit="10" stroke-linecap="round"/>
<path d="M190.525 367.07C190.525 367.07 220.808 385.411 240.78 360.799" stroke="#221E1F" stroke-width="1.61211" stroke-miterlimit="10" stroke-linecap="round"/>
<path d="M52.8652 469.108V528.225" stroke="#221E1F" stroke-width="1.61211" stroke-miterlimit="10" stroke-linecap="round"/>
<path d="M23.3125 498.674H82.4169" stroke="#221E1F" stroke-width="1.61211" stroke-miterlimit="10" stroke-linecap="round"/>
<path d="M73.762 477.766L31.9668 519.566" stroke="#221E1F" stroke-width="1.61211" stroke-miterlimit="10" stroke-linecap="round"/>
<path d="M31.9668 477.766L73.762 519.566" stroke="#221E1F" stroke-width="1.61211" stroke-miterlimit="10" stroke-linecap="round"/>
<path d="M711.18 556.2V422.564C711.18 416.488 707.884 410.867 702.59 407.894L671.35 390.349C666.576 387.669 660.779 387.506 655.843 389.927L614.973 409.99C611.58 411.663 609.42 415.107 609.42 418.909V433.725" stroke="#221E1F" stroke-width="1.61211" stroke-miterlimit="10" stroke-linecap="round"/>
<path d="M711.18 483.03L757.603 460.237C762.523 457.817 768.319 457.979 773.109 460.66L804.35 478.205C809.644 481.178 812.94 486.783 812.94 492.875V538.801C812.94 548.402 820.734 556.184 830.33 556.184L921.747 556.119C940.631 556.119 955.959 540.799 955.959 521.889C955.959 502.996 940.647 487.66 921.747 487.66H884.856C879.757 487.66 875.584 483.599 875.454 478.498L874.009 425.846C874.009 419.721 878.978 414.75 885.099 414.75C890.425 414.75 895.02 418.535 895.994 423.766C895.994 423.766 899.404 448.654 915.642 459.376C924.394 465.16 935.663 466.005 946.136 464.283L948.23 463.941C986.551 456.875 986.356 465.404 1007.07 465.16C1019.35 466.395 1031.64 461.992 1039.97 452.895C1057.77 433.481 1068.63 405.393 1068.63 377.531V290.017C1068.63 276.695 1079.43 265.892 1092.74 265.892H1186.45C1202.36 265.892 1215.26 278.791 1215.26 294.712C1215.26 310.632 1202.36 323.531 1186.45 323.531H1162.92C1149.67 323.531 1138.92 334.286 1138.92 347.542C1138.92 360.799 1149.67 371.553 1162.92 371.553H1172.45" stroke="#221E1F" stroke-width="1.61211" stroke-miterlimit="10"/>
<path d="M735.422 471.139V377.759C735.422 368.58 742.859 361.124 752.049 361.124H818.347C825.394 361.124 831.109 366.842 831.109 373.893V404.889H1006.39C1019.22 404.889 1029.63 394.476 1029.63 381.642C1029.63 368.808 1019.22 358.394 1006.39 358.394H908.286C900.703 358.394 897.52 348.696 903.626 344.212C920.545 331.784 946.428 315.701 967.065 315.701" stroke="#221E1F" stroke-width="1.61211" stroke-miterlimit="10" stroke-linecap="round"/>
<path d="M669.304 433.595H661.51C657.142 433.595 653.586 437.136 653.586 441.523V466.265" stroke="#221E1F" stroke-width="1.61211" stroke-miterlimit="10" stroke-linecap="round"/>
<path d="M640.482 433.595H632.688C628.32 433.595 624.764 437.136 624.764 441.523V466.265" stroke="#221E1F" stroke-width="1.61211" stroke-miterlimit="10" stroke-linecap="round"/>
<path d="M698.157 433.595H690.363C685.995 433.595 682.439 437.136 682.439 441.523V466.265" stroke="#221E1F" stroke-width="1.61211" stroke-miterlimit="10" stroke-linecap="round"/>
<path d="M771.194 393.647H763.4C759.033 393.647 755.477 397.189 755.477 401.575V426.317" stroke="#221E1F" stroke-width="1.61211" stroke-miterlimit="10" stroke-linecap="round"/>
<path d="M800.048 393.647H792.254C787.886 393.647 784.33 397.189 784.33 401.575V426.317" stroke="#221E1F" stroke-width="1.61211" stroke-miterlimit="10" stroke-linecap="round"/>
<path d="M747.341 523.53H739.547C735.179 523.53 731.623 527.072 731.623 531.458V556.2" stroke="#221E1F" stroke-width="1.61211" stroke-miterlimit="10" stroke-linecap="round"/>
<path d="M774.181 523.53H766.387C762.019 523.53 758.463 527.072 758.463 531.458V556.2" stroke="#221E1F" stroke-width="1.61211" stroke-miterlimit="10" stroke-linecap="round"/>
<path d="M301.638 48.883L287.853 52.5707C255.995 61.0834 221.669 59.67 190.639 48.6068C156.102 36.2927 117.587 36.0003 83.082 47.7945L50.4609 58.939" stroke="#221E1F" stroke-width="1.61211" stroke-miterlimit="10" stroke-linecap="round"/>
<path d="M301.753 70.7492L287.968 74.4369C256.11 82.9496 221.784 81.5362 190.754 70.473C156.217 58.1589 117.702 57.8665 83.1972 69.6607L50.5762 80.8052" stroke="#221E1F" stroke-width="1.61211" stroke-miterlimit="10" stroke-linecap="round"/>
<path d="M301.867 92.5993L288.081 96.287C256.223 104.8 221.897 103.386 190.867 92.3231C156.33 80.009 117.815 79.7166 83.3105 91.5108L50.6895 102.655" stroke="#221E1F" stroke-width="1.61211" stroke-miterlimit="10" stroke-linecap="round"/>
<path d="M1166.37 256.583C1166.37 202.096 1216.02 157.924 1270.48 157.924C1324.94 157.924 1374.59 202.096 1374.59 256.583L1369.09 377.548C1369.09 432.035 1307.81 476.207 1270.48 476.207C1233.15 476.207 1171.87 432.035 1171.87 377.548L1166.37 256.583Z" stroke="#221E1F" stroke-width="1.61211" stroke-miterlimit="10"/>
<path d="M1185.07 246.69C1185.74 247.307 1186.43 247.908 1187.15 248.493" stroke="#221E1F" stroke-width="1.61211" stroke-miterlimit="10"/>
<path d="M1191.4 251.742C1194.26 253.757 1197.39 255.674 1200.76 257.445C1218.6 266.835 1243.25 272.65 1270.48 272.65C1304.19 272.65 1333.95 263.732 1351.75 250.15" stroke="#221E1F" stroke-width="1.61211" stroke-miterlimit="10" stroke-dasharray="5.32 5.32"/>
<path d="M1353.83 248.493C1354.54 247.908 1355.22 247.307 1355.9 246.69" stroke="#221E1F" stroke-width="1.61211" stroke-miterlimit="10"/>
<path d="M1340.85 440.498V459.213C1340.85 509.087 1381.25 549.506 1431.1 549.506C1449.46 549.506 1464.37 534.608 1464.37 516.218V488.845C1464.37 474.094 1457.16 460.09 1444.74 452.146C1437.79 447.711 1429.57 445.42 1421.06 449.433C1398.38 460.139 1408.07 489.202 1428.45 489.202H1551.4C1561.75 489.202 1570.12 480.819 1570.12 470.471V420.825C1570.12 402.045 1551.91 388.561 1534 394.214C1523.88 397.399 1484.33 418.355 1470.73 418.355H1429.96C1415.19 418.355 1403.2 406.366 1403.2 391.583C1403.2 376.799 1415.19 364.81 1429.96 364.81H1496.67C1524.06 364.81 1546.26 342.602 1546.26 315.196C1546.26 287.969 1524.2 265.907 1496.99 265.907H1493.89C1487.72 265.907 1482.72 270.911 1482.72 277.084C1482.72 283.257 1487.49 287.205 1493.89 288.261C1519.79 290.357 1527.81 273.071 1527.81 254.324V227.649V92.8109C1526.98 82.7874 1518.44 75.1845 1508.41 75.5257H1481.14C1472.72 75.5257 1465.88 82.3651 1465.88 90.7965" stroke="#221E1F" stroke-width="1.61211" stroke-miterlimit="10"/>
<path d="M1068.6 323.547H1076.69C1089.94 323.547 1100.68 334.302 1100.68 347.558C1100.68 360.815 1089.94 371.569 1076.69 371.569H1068.6" stroke="#221E1F" stroke-width="1.61211" stroke-miterlimit="10"/>
<path d="M1204.13 444.496V474.16C1204.13 521.11 1166.09 559.189 1119.15 559.189C1072.22 559.189 1034.16 521.126 1034.16 474.16V456.956" stroke="#221E1F" stroke-width="1.61211" stroke-miterlimit="10"/>
<path d="M1311.14 310.015C1311.14 310.015 1249.74 302.022 1272.15 353.358C1293.89 403.2 1267.23 415.481 1249.04 406.01" stroke="#221E1F" stroke-width="1.61211" stroke-miterlimit="10" stroke-linecap="round"/>
<path d="M1285.6 340.492C1285.6 340.492 1302.3 362.894 1333.67 340.492" stroke="#221E1F" stroke-width="1.61211" stroke-miterlimit="10" stroke-linecap="round"/>
<path d="M1074.69 28.121C1096.45 24.0921 1123.12 31.0127 1155.1 63.455C1190.38 99.2602 1160.81 108 1160.81 108" stroke="#221E1F" stroke-width="1.61211" stroke-linecap="round" stroke-linejoin="round"/>
<path d="M1089.14 88.8794L1035.65 39.4767L1059.25 13.9062L1161.74 108.585L1138.14 134.14L1123.03 120.185" stroke="#221E1F" stroke-width="1.61211" stroke-linecap="round" stroke-linejoin="round"/>
<path d="M1060.08 0.860601L1022.71 41.3569L1028.8 46.9888L1066.18 6.49245L1060.08 0.860601Z" stroke="#221E1F" stroke-width="1.61211" stroke-linecap="round" stroke-linejoin="round"/>
<path d="M1154.88 116.007L1145 126.73L1161.36 141.832L1171.25 131.108L1154.88 116.007Z" stroke="#221E1F" stroke-width="1.61211" stroke-linecap="round" stroke-linejoin="round"/>
<path d="M1166.3 136.48L1189.52 157.94" stroke="#221E1F" stroke-width="1.61211" stroke-linecap="round" stroke-linejoin="round"/>
<path d="M1086.85 39.4116L1075.04 52.1969" stroke="#221E1F" stroke-width="1.61211" stroke-linecap="round" stroke-linejoin="round"/>
<path d="M1097.57 49.3213L1085.78 62.1065" stroke="#221E1F" stroke-width="1.61211" stroke-linecap="round" stroke-linejoin="round"/>
<path d="M1108.3 59.231L1096.51 72.0162" stroke="#221E1F" stroke-width="1.61211" stroke-linecap="round" stroke-linejoin="round"/>
<path d="M1119.01 69.1411L1107.23 81.9101" stroke="#221E1F" stroke-width="1.61211" stroke-linecap="round" stroke-linejoin="round"/>
<path d="M1119.15 538.866C1150.1 538.866 1175.2 513.758 1175.2 482.786C1175.2 451.814 1150.1 426.707 1119.15 426.707C1088.19 426.707 1063.09 451.814 1063.09 482.786C1063.09 513.758 1088.19 538.866 1119.15 538.866Z" stroke="#221E1F" stroke-width="1.61211" stroke-miterlimit="10"/>
<path d="M1548.87 441.75H1540.88C1537.99 441.75 1535.65 439.411 1535.65 436.519V428.526C1535.65 425.635 1533.31 423.295 1530.42 423.295C1527.53 423.295 1525.2 425.635 1525.2 428.526V436.519C1525.2 439.411 1522.86 441.75 1519.97 441.75H1511.98C1509.09 441.75 1506.75 444.09 1506.75 446.981C1506.75 449.873 1509.09 452.229 1511.98 452.229H1519.97C1522.86 452.229 1525.2 454.568 1525.2 457.46V465.453C1525.2 468.344 1527.53 470.684 1530.42 470.684C1533.31 470.684 1535.65 468.344 1535.65 465.453V457.46C1535.65 454.568 1537.99 452.229 1540.88 452.229H1548.87C1551.76 452.229 1554.1 449.889 1554.1 446.998C1554.1 444.106 1551.76 441.75 1548.87 441.75Z" stroke="#221E1F" stroke-width="1.61211" stroke-miterlimit="10"/>
<path d="M1408.68 286.118C1411.58 286.151 1413.97 283.827 1414.02 280.919L1414.29 259.605C1414.29 240.176 1405.82 223.638 1401.89 206.093L1401.84 205.914C1397.13 184.925 1396.51 163.253 1399.97 142.085C1400.46 139.128 1398.2 136.432 1395.21 136.432C1392.86 136.432 1390.85 138.121 1390.44 140.444C1386.67 162.132 1387.19 184.388 1392.03 205.914L1392.06 206.093C1396.01 223.638 1404.47 240.192 1404.47 259.605L1403.46 280.611C1403.32 283.6 1405.69 286.102 1408.66 286.134L1408.68 286.118Z" stroke="#221E1F" stroke-width="1.61211" stroke-linecap="round" stroke-linejoin="round"/>
<path d="M1440.32 286.118C1443.23 286.151 1445.62 283.827 1445.66 280.919L1445.94 259.605C1445.94 240.176 1437.46 223.638 1433.53 206.093L1433.49 205.914C1428.78 184.925 1428.16 163.253 1431.62 142.085C1432.11 139.128 1429.85 136.432 1426.86 136.432C1424.51 136.432 1422.49 138.121 1422.09 140.444C1418.32 162.132 1418.84 184.388 1423.68 205.914L1423.71 206.093C1427.66 223.638 1436.12 240.192 1436.12 259.605L1435.11 280.611C1434.96 283.6 1437.33 286.102 1440.31 286.134L1440.32 286.118Z" stroke="#221E1F" stroke-width="1.61211" stroke-linecap="round" stroke-linejoin="round"/>
<path d="M1471.09 97.5059C1470.41 98.9517 1470.05 100.56 1470.09 102.266V259.588C1470.09 263.08 1467.24 265.923 1463.75 265.923H1455.6C1452.73 265.923 1450.41 268.246 1450.41 271.122V279.293C1450.41 284.849 1445.91 289.366 1440.34 289.366H1439.67C1434.12 289.366 1429.61 284.866 1429.61 279.293V270.813C1429.61 269.351 1429.01 268.019 1428.06 267.077C1427.12 266.135 1425.82 265.55 1424.41 265.533C1421.44 265.485 1419.02 268.084 1419.02 271.057V279.05C1419.02 281.844 1417.9 284.346 1416.08 286.182C1414.26 288.001 1411.74 289.122 1408.97 289.122C1403.42 289.122 1398.9 284.622 1398.9 279.05V271.138C1398.9 268.263 1396.58 265.94 1393.71 265.94H1355.09C1347.14 265.94 1339.93 269.156 1334.73 274.387C1329.52 279.602 1326.29 286.799 1326.29 294.759C1326.29 310.664 1339.18 323.563 1355.09 323.563H1378.62C1385.25 323.563 1391.25 326.243 1395.59 330.597C1399.92 334.951 1402.62 340.945 1402.62 347.573C1402.62 360.83 1391.89 371.584 1378.62 371.584H1369.09" stroke="#221E1F" stroke-width="1.61211" stroke-miterlimit="10"/>
<path d="M1480.88 91.235C1476.53 91.235 1472.8 93.8018 1471.09 97.5058L1409.81 96.9209L1402.54 105.125C1401.78 106.002 1400.65 106.506 1399.49 106.506C1397.03 106.506 1395.41 104.491 1395.41 102.396C1395.41 101.421 1395.75 100.43 1396.53 99.6014L1404.5 91.2188H1480.93C1486.68 91.235 1491.39 95.735 1491.68 101.47V150.353C1491.68 151.441 1492.12 152.416 1492.82 153.114C1493.52 153.813 1494.49 154.268 1495.58 154.268C1497.74 154.268 1499.48 152.513 1499.48 150.353V132.547C1499.48 129.753 1501.73 127.495 1504.53 127.495H1509.9C1512.69 127.495 1514.95 125.237 1514.95 122.443V97.1646C1514.95 93.883 1512.3 91.235 1509.02 91.235H1480.88Z" stroke="#221E1F" stroke-width="1.61211" stroke-miterlimit="10"/>
<path d="M1470.1 101.583L1413.56 100.999L1406.29 109.203C1405.53 110.08 1404.4 110.583 1403.24 110.583C1400.78 110.583 1399.16 108.569 1399.16 106.473" stroke="#221E1F" stroke-width="1.61211" stroke-miterlimit="10"/>
<path d="M1490.8 97.7817H1514.95" stroke="#221E1F" stroke-width="1.61211" stroke-miterlimit="10"/>
<path d="M1491.68 102.055H1514.95" stroke="#221E1F" stroke-width="1.61211" stroke-miterlimit="10"/>
<path d="M1085.37 199.334L1120.51 164.179C1121.91 162.782 1124.19 162.782 1125.59 164.179L1160.73 199.334C1162.99 201.592 1161.39 205.475 1158.18 205.475H1087.9C1084.71 205.475 1083.1 201.608 1085.35 199.334H1085.37Z" stroke="#221E1F" stroke-width="1.61211" stroke-miterlimit="10"/>
<path d="M1172.29 91.2349H1271.16C1279.31 91.2349 1285.92 84.623 1285.92 76.4677C1285.92 68.3125 1279.31 61.7006 1271.16 61.7006H1252.05C1243.95 61.7006 1237.37 68.28 1237.37 76.3865V89.0418C1237.37 116.594 1259.7 138.948 1287.25 138.948C1314.79 138.948 1337.13 116.61 1337.13 89.0418V42.5795C1337.13 40.3052 1334.39 39.168 1332.78 40.7763L1318.56 55.0074C1316.5 57.0706 1317.96 60.5796 1320.86 60.5796H1472.26C1477.49 60.5796 1481.73 64.8197 1481.73 70.0508V75.5418" stroke="#221E1F" stroke-width="1.61211" stroke-linecap="round" stroke-linejoin="round"/>
<path d="M910.121 165.495V136.822C910.121 133.491 912.817 130.794 916.145 130.794H941.882C944.723 130.794 947.029 133.101 947.029 135.944V141.419C947.029 144.262 949.335 146.569 952.176 146.569H970.135C972.262 146.569 974.145 148.161 974.275 150.273C974.357 151.475 973.886 152.58 973.122 153.343C972.408 154.058 971.418 154.497 970.313 154.497H920.578C914.749 154.789 910.154 159.614 910.137 165.462V260.158C910.137 264.024 914.132 266.607 917.655 264.999C922.202 262.936 925.124 258.387 925.124 253.4V222.289C925.124 218.52 922.072 215.482 918.321 215.482C917.006 215.482 915.934 214.41 915.967 213.078L916.519 175.47C912.752 173.731 910.137 169.914 910.137 165.495" stroke="#221E1F" stroke-width="1.61211" stroke-miterlimit="10" stroke-linecap="round"/>
<path d="M916.795 155.39V130.794" stroke="#221E1F" stroke-width="1.61211" stroke-miterlimit="10" stroke-linecap="round"/>
<path d="M973.821 220.226C963.023 220.226 954.141 228.706 953.622 239.493L952.518 262.708L952.761 263.033C974.893 255.479 998.892 255.479 1021.01 263.033L1021.25 262.708L1020.15 239.493C1019.63 228.706 1010.75 220.226 999.947 220.226H973.821Z" stroke="#221E1F" stroke-width="1.61211" stroke-linecap="round" stroke-linejoin="round"/>
<path d="M952.533 262.708L957.275 277.751" stroke="#221E1F" stroke-width="1.61211" stroke-linecap="round" stroke-linejoin="round"/>
<path d="M1021.02 263.033L1014.84 277.296" stroke="#221E1F" stroke-width="1.61211" stroke-linecap="round" stroke-linejoin="round"/>
<path d="M953.557 266.298C949.302 266.639 946.98 270.279 946.98 274.73V276.533C946.98 281.212 951.316 285.533 955.992 285.533L961.481 306.002" stroke="#221E1F" stroke-width="1.61211" stroke-linecap="round" stroke-linejoin="round"/>
<path d="M1020.18 266.298C1024.43 266.639 1026.75 270.279 1026.75 274.73V276.533C1026.75 281.212 1022.42 285.533 1017.74 285.533L1012.25 306.002" stroke="#221E1F" stroke-width="1.61211" stroke-linecap="round" stroke-linejoin="round"/>
<path d="M916.502 175.47C917.964 176.168 919.604 176.526 921.341 176.493H1029.61C1039.7 176.493 1047.88 184.681 1047.88 194.769V306.311C1047.88 316.432 1039.68 324.62 1029.58 324.62H1022.39C1016.22 324.62 1010.26 326.878 1005.65 330.988L991.308 343.709C988.499 346.194 984.31 346.308 981.371 343.952L954.433 322.329C954.433 322.329 878.588 256.373 744.369 329.169C615.882 398.846 327.472 407.781 322.357 184.583" stroke="#221E1F" stroke-width="1.61211" stroke-miterlimit="10" stroke-linecap="round"/>
<path d="M1012.48 309.073H1012.39C989.929 313.508 983.596 313.199 961.367 308.163C962.715 281.407 957.275 277.735 957.275 277.735L958.932 277.296C976.907 272.472 996.505 272.439 1014.5 277.215L1014.82 277.296C1014.82 277.296 1008.23 282.852 1012.45 309.073H1012.48Z" stroke="#221E1F" stroke-width="1.61211" stroke-linecap="round" stroke-linejoin="round"/>
<path d="M967.051 309.43V332.125" stroke="#221E1F" stroke-width="1.61211" stroke-linecap="round" stroke-linejoin="round"/>
<path d="M1006.99 311.168V329.169" stroke="#221E1F" stroke-width="1.61211" stroke-linecap="round" stroke-linejoin="round"/>
<path d="M1006.99 318.008C1006.99 318.008 1013.42 319.242 1022.39 324.62" stroke="#221E1F" stroke-width="1.61211" stroke-linecap="round" stroke-linejoin="round"/>
<path d="M569.704 216.067C573.455 225.408 583.035 231.094 593.102 231.094H836.81C845.351 231.289 852.382 224.417 852.382 215.872C852.382 190.123 836.924 184.794 816.432 190.854C807.209 193.583 797.223 190.757 790.988 183.43L784.379 175.697C733.117 104.46 672.438 145.935 650.664 173.764C647.692 177.565 642.415 178.865 638.242 176.444C612.018 161.32 591.494 172.61 580.193 182.601C580.193 182.601 562.575 198.359 569.687 216.067H569.704Z" stroke="#221E1F" stroke-width="1.61211" stroke-miterlimit="10" stroke-linecap="round"/>
<path d="M910.137 175.565C901.352 175.565 894.24 168.434 894.24 159.661V135.309C894.24 126.52 901.368 119.405 910.137 119.405H1125.4C1127.31 119.405 1129.24 119.161 1131 118.381C1133.16 117.423 1135.04 115.993 1136.5 114.239C1138.68 111.607 1139.99 108.228 1139.99 104.621C1139.99 104.475 1139.99 104.329 1139.96 104.199C1139.75 95.8974 1132.85 89.3504 1124.55 89.6103L994.977 88.1482C985.592 88.0345 977.863 95.6212 977.863 105.06L978.237 119.405" stroke="#221E1F" stroke-width="1.61211" stroke-miterlimit="10" stroke-linecap="round"/>
<path d="M526.512 446.624C526.512 417.317 512.547 398.586 505.387 390.918C503.227 388.595 499.525 388.627 497.463 391.048C490.416 399.301 476.013 419.494 476.013 446.624C476.013 446.624 474.958 468.913 498.356 473.072C500.045 473.38 501.262 474.859 501.262 476.581V515.992" stroke="#221E1F" stroke-width="1.61211" stroke-miterlimit="10" stroke-linecap="round"/>
<path d="M551.76 498.675V476.597C551.76 474.891 550.542 473.397 548.854 473.088C525.472 468.913 526.511 446.64 526.511 446.64C526.511 419.494 540.913 399.317 547.961 391.064C550.023 388.644 553.709 388.611 555.884 390.934C563.045 398.602 577.009 417.317 577.009 446.64C577.009 446.64 578.114 466.947 559.375 472.958" stroke="#221E1F" stroke-width="1.61211" stroke-miterlimit="10" stroke-linecap="round"/>
<path d="M490.074 555.939H645.126C650.566 556.069 655.031 551.682 655.031 546.256C655.031 529.783 645.093 526.453 631.941 530.401C626.161 532.139 619.893 530.222 615.963 525.624L611.758 520.702C579.137 475.377 540.524 501.776 526.69 519.484C524.806 521.888 521.169 522.522 518.523 521.027C511.053 516.787 504.315 515.926 498.502 516.819C490.058 518.135 484.31 524.682 478.984 531.375C469.193 543.69 465.247 548.677 459.434 551.877C436.41 564.565 407.377 545.33 384.028 534.397C295.387 492.857 261.272 513.44 268.823 531.489C276.389 549.538 304.935 547.54 304.935 547.54C329.048 547.54 352.462 536.574 365.988 516.624C386.333 486.619 368.358 461.211 329.226 456.695C277.055 450.668 283.079 417.543 296.118 389.942C309.157 362.341 304.643 348.288 265.007 344.763C225.371 341.254 212.333 306.618 252.959 296.075C283.615 288.131 295.257 224.725 322.293 184.598C322.293 184.598 319.776 97.587 424.459 82.8523C424.459 82.8523 579.721 60.336 638.209 176.443" stroke="#221E1F" stroke-width="1.61211" stroke-miterlimit="10" stroke-linecap="round"/>
<path d="M813.313 114.742C832.934 114.742 848.84 98.8277 848.84 79.1966C848.84 59.5655 832.934 43.6514 813.313 43.6514C793.691 43.6514 777.785 59.5655 777.785 79.1966C777.785 98.8277 793.691 114.742 813.313 114.742Z" stroke="#221E1F" stroke-width="1.61211" stroke-miterlimit="10" stroke-linecap="round"/>
<path d="M813.312 20.4697V34.2622" stroke="#221E1F" stroke-width="1.61211" stroke-miterlimit="10" stroke-linecap="round"/>
<path d="M813.312 124.148V137.925" stroke="#221E1F" stroke-width="1.61211" stroke-miterlimit="10" stroke-linecap="round"/>
<path d="M813.312 20.4697V34.2622" stroke="#221E1F" stroke-width="1.61211" stroke-miterlimit="10" stroke-linecap="round"/>
<path d="M813.312 124.148V137.925" stroke="#221E1F" stroke-width="1.61211" stroke-miterlimit="10" stroke-linecap="round"/>
<path d="M771.811 37.6733L781.553 47.4207" stroke="#221E1F" stroke-width="1.61211" stroke-miterlimit="10" stroke-linecap="round"/>
<path d="M845.09 110.99L854.832 120.737" stroke="#221E1F" stroke-width="1.61211" stroke-miterlimit="10" stroke-linecap="round"/>
<path d="M754.615 79.1973H768.401" stroke="#221E1F" stroke-width="1.61211" stroke-miterlimit="10" stroke-linecap="round"/>
<path d="M858.242 79.1973H872.012" stroke="#221E1F" stroke-width="1.61211" stroke-miterlimit="10" stroke-linecap="round"/>
<path d="M771.811 120.737L781.553 110.99" stroke="#221E1F" stroke-width="1.61211" stroke-miterlimit="10" stroke-linecap="round"/>
<path d="M845.09 47.4207L854.832 37.6733" stroke="#221E1F" stroke-width="1.61211" stroke-miterlimit="10" stroke-linecap="round"/>
<path d="M312.583 274.178C314.798 274.178 316.594 272.381 316.594 270.165C316.594 267.949 314.798 266.152 312.583 266.152C310.368 266.152 308.572 267.949 308.572 270.165C308.572 272.381 310.368 274.178 312.583 274.178Z" fill="#221E1F"/>
<path d="M215.645 282.219C217.86 282.219 219.656 280.423 219.656 278.206C219.656 275.99 217.86 274.194 215.645 274.194C213.43 274.194 211.635 275.99 211.635 278.206C211.635 280.423 213.43 282.219 215.645 282.219Z" fill="#221E1F"/>
<path d="M82.3349 274.178C84.5499 274.178 86.3455 272.381 86.3455 270.165C86.3455 267.949 84.5499 266.152 82.3349 266.152C80.1199 266.152 78.3242 267.949 78.3242 270.165C78.3242 272.381 80.1199 274.178 82.3349 274.178Z" fill="#221E1F"/>
</svg>
