<svg width="462" height="117" viewBox="0 0 462 117" fill="none" xmlns="http://www.w3.org/2000/svg">
<g style="mix-blend-mode:multiply">
<path d="M131.73 115.628C203.93 115.628 262.46 89.9677 262.46 58.314C262.46 26.6604 203.93 1 131.73 1C59.5298 1 1 26.6604 1 58.314C1 89.9677 59.5298 115.628 131.73 115.628Z" stroke="#14AEFF" stroke-width="1.5" stroke-miterlimit="10"/>
</g>
<g style="mix-blend-mode:multiply">
<path d="M329.73 115.628C401.93 115.628 460.46 89.9677 460.46 58.314C460.46 26.6604 401.93 1 329.73 1C257.53 1 199 26.6604 199 58.314C199 89.9677 257.53 115.628 329.73 115.628Z" stroke="#14AEFF" stroke-width="1.5" stroke-miterlimit="10"/>
</g>
<path d="M113.424 49.12V46.912H124.656V49.12H120.336V49.192C120.336 52.648 122.352 54.256 125.064 54.832V57.088C122.424 56.68 120.216 55.432 119.088 53.656C117.96 55.456 115.68 56.968 113.04 57.352V55.072C115.8 54.544 117.744 52.72 117.744 49.192V49.12H113.424ZM131.016 57.232H128.4V52.936H123.912V50.68H128.4V46.648H131.016V57.232ZM117.36 64.624V66.52H131.28V68.632H114.744V62.56H128.4V60.616H114.744V58.528H131.016V64.624H117.36ZM141.911 53.824V49.336H136.487V47.032H144.479V53.68C144.479 60.664 142.103 65.464 136.247 67.144V64.624C139.799 63.376 141.911 59.776 141.911 53.824ZM154.343 68.416H151.799V57.592H149.351V68.152H146.855V46.792H149.351V55.312H151.799V46.648H154.343V68.416Z" fill="#14AEFF"/>
<path d="M304.184 54.736H309.512V47.032H312.104V66.952H301.592V47.032H304.184V54.736ZM309.512 64.696V56.992H304.184V64.696H309.512ZM318.968 46.648V68.416H316.352V46.648H318.968ZM324.463 49.12V46.912H335.695V49.12H331.375V49.192C331.375 52.648 333.391 54.256 336.103 54.832V57.088C333.463 56.68 331.255 55.432 330.127 53.656C328.999 55.456 326.719 56.968 324.079 57.352V55.072C326.839 54.544 328.783 52.72 328.783 49.192V49.12H324.463ZM342.055 57.232H339.439V52.936H334.951V50.68H339.439V46.648H342.055V57.232ZM328.399 64.624V66.52H342.319V68.632H325.783V62.56H339.439V60.616H325.783V58.528H342.055V64.624H328.399ZM352.95 53.824V49.336H347.526V47.032H355.518V53.68C355.518 60.664 353.142 65.464 347.286 67.144V64.624C350.838 63.376 352.95 59.776 352.95 53.824ZM365.382 68.416H362.838V57.592H360.39V68.152H357.894V46.792H360.39V55.312H362.838V46.648H365.382V68.416Z" fill="#14AEFF"/>
<path d="M231.154 58.3799C231.154 62.0799 229.574 64.2399 226.314 64.2399C223.054 64.2399 221.494 62.0799 221.494 58.3799C221.494 54.6799 223.054 52.5199 226.314 52.5199C229.574 52.5199 231.154 54.6799 231.154 58.3799ZM229.494 58.3799C229.494 55.5999 228.634 53.8999 226.314 53.8999C223.994 53.8999 223.154 55.5999 223.154 58.3799C223.154 61.1799 223.994 62.8599 226.314 62.8599C228.634 62.8599 229.494 61.1799 229.494 58.3799ZM238.219 53.9199C236.319 53.9199 235.039 55.3599 235.039 58.2799V63.9799H233.379V52.7799H235.039V54.7599C235.479 53.3399 236.499 52.5199 238.279 52.5199C238.599 52.5199 238.939 52.5399 239.119 52.5999L239.099 53.9599C238.919 53.9399 238.579 53.9199 238.219 53.9199Z" fill="#14AEFF"/>
</svg>
