<svg width="729" height="334" viewBox="0 0 729 334" fill="none" xmlns="http://www.w3.org/2000/svg">
<path d="M522.871 152.023L554.137 222.939H610.467L641.733 152.023" stroke="#14AEFF" stroke-width="1.5" stroke-miterlimit="10" stroke-linecap="round"/>
<path d="M522.87 152.165C515.475 152.165 509.661 157.306 509.661 167.312C509.661 177.317 520.323 188.406 527.719 188.406C527.719 188.406 542.446 211.462 543.569 234.494C544.233 248.13 534.362 260.049 520.893 262.216C512.525 263.569 469.711 264.747 456.344 264.747H452.366C440.573 264.747 430.979 274.246 430.868 286.039C430.75 297.99 440.415 307.743 452.366 307.743H662.391C670.111 307.743 676.375 301.478 676.375 293.759V59.9815C676.375 52.262 670.111 45.9978 662.391 45.9978H590.804C589.483 46.0294 588.225 45.7447 587.102 45.2227" stroke="#14AEFF" stroke-width="1.5" stroke-miterlimit="10"/>
<path d="M582.118 64.3945C569.384 64.4183 556.657 67.1628 544.833 72.6124L543.607 73.1818C527.068 80.8065 517.221 98.1122 519.12 116.217L522.869 152.022" stroke="#14AEFF" stroke-width="1.5" stroke-miterlimit="10" stroke-linecap="round"/>
<path d="M641.731 152.021L645.48 116.215C647.378 98.1105 637.531 80.8048 620.993 73.1802L619.767 72.6107C609.39 67.8256 598.309 65.1285 587.141 64.5273" stroke="#14AEFF" stroke-width="1.5" stroke-miterlimit="10" stroke-linecap="round"/>
<path d="M641.733 152.164C649.128 152.164 654.941 157.305 654.941 167.311C654.941 177.316 644.28 188.405 636.884 188.405C636.884 188.405 619.183 216.103 621.121 241.121C621.912 251.332 629.489 259.692 639.566 261.519C647.965 263.038 660.32 264.54 676.368 264.54" stroke="#14AEFF" stroke-width="1.5" stroke-miterlimit="10" stroke-linecap="round"/>
<path d="M581.867 49.2551C575.302 49.2551 569.979 43.9321 569.979 37.3673V16.1227C569.71 8.30035 575.642 1.64857 583.441 1H704.707C717.576 1 728 11.4325 728 24.2931V310.138C728 322.738 717.781 332.956 705.182 332.956H-17" stroke="#14AEFF" stroke-width="1.5" stroke-miterlimit="10"/>
<path d="M582.207 37.5908V15.6581C582.207 13.1113 584.271 11.0391 586.826 11.0391H606.52C608.696 11.0391 610.459 12.8029 610.459 14.9779V19.162C610.459 21.3371 612.223 23.1009 614.398 23.1009H628.137C629.758 23.1009 631.198 24.311 631.308 25.9324C631.372 26.8578 631.016 27.6883 630.423 28.2894C629.869 28.8431 629.118 29.1753 628.271 29.1753H590.203C585.735 29.4046 582.231 33.0825 582.215 37.5592V136.505C582.215 139.464 585.276 141.441 587.973 140.215C591.453 138.633 593.691 135.161 593.691 131.341V107.541C593.691 104.662 591.358 102.329 588.479 102.329C587.475 102.329 586.66 101.506 586.676 100.494L587.103 45.2234C584.224 43.8946 582.223 40.976 582.223 37.5908" stroke="#14AEFF" stroke-width="1.5" stroke-miterlimit="10"/>
<path d="M587.309 29.8555V11.0391" stroke="#14AEFF" stroke-width="1.5" stroke-miterlimit="10"/>
<path d="M602.914 177.76C609.222 177.76 614.335 172.647 614.335 166.339C614.335 160.031 609.222 154.918 602.914 154.918H561.691C555.383 154.918 550.27 160.031 550.27 166.339C550.27 172.647 555.383 177.76 561.691 177.76H562.553" stroke="#14AEFF" stroke-width="1.5" stroke-miterlimit="10"/>
<path d="M562.512 177.389V194.868C562.512 201.172 567.621 206.289 573.933 206.289C580.237 206.289 585.354 201.18 585.354 194.868V177.76H602.921C609.224 177.76 614.342 172.651 614.342 166.339C614.342 160.035 609.232 154.918 602.921 154.918H584.99C572.58 154.918 562.512 164.948 562.512 177.357V177.389Z" stroke="#14AEFF" stroke-width="1.5" stroke-miterlimit="10"/>
<path d="M567.361 195.499C568.3 195.499 569.061 194.737 569.061 193.798C569.061 192.859 568.3 192.098 567.361 192.098C566.422 192.098 565.66 192.859 565.66 193.798C565.66 194.737 566.422 195.499 567.361 195.499Z" stroke="#14AEFF" stroke-width="1.5" stroke-miterlimit="10"/>
<path d="M574.154 195.499C575.093 195.499 575.854 194.737 575.854 193.798C575.854 192.859 575.093 192.098 574.154 192.098C573.214 192.098 572.453 192.859 572.453 193.798C572.453 194.737 573.214 195.499 574.154 195.499Z" stroke="#14AEFF" stroke-width="1.5" stroke-miterlimit="10"/>
<path d="M580.951 195.499C581.89 195.499 582.651 194.737 582.651 193.798C582.651 192.859 581.89 192.098 580.951 192.098C580.011 192.098 579.25 192.859 579.25 193.798C579.25 194.737 580.011 195.499 580.951 195.499Z" stroke="#14AEFF" stroke-width="1.5" stroke-miterlimit="10"/>
<path d="M567.361 188.909C568.3 188.909 569.061 188.147 569.061 187.208C569.061 186.269 568.3 185.508 567.361 185.508C566.422 185.508 565.66 186.269 565.66 187.208C565.66 188.147 566.422 188.909 567.361 188.909Z" stroke="#14AEFF" stroke-width="1.5" stroke-miterlimit="10"/>
<path d="M574.154 188.909C575.093 188.909 575.854 188.147 575.854 187.208C575.854 186.269 575.093 185.508 574.154 185.508C573.214 185.508 572.453 186.269 572.453 187.208C572.453 188.147 573.214 188.909 574.154 188.909Z" stroke="#14AEFF" stroke-width="1.5" stroke-miterlimit="10"/>
<path d="M580.951 188.909C581.89 188.909 582.651 188.147 582.651 187.208C582.651 186.269 581.89 185.508 580.951 185.508C580.011 185.508 579.25 186.269 579.25 187.208C579.25 188.147 580.011 188.909 580.951 188.909Z" stroke="#14AEFF" stroke-width="1.5" stroke-miterlimit="10"/>
<path d="M567.361 182.331C568.3 182.331 569.061 181.569 569.061 180.63C569.061 179.691 568.3 178.93 567.361 178.93C566.422 178.93 565.66 179.691 565.66 180.63C565.66 181.569 566.422 182.331 567.361 182.331Z" stroke="#14AEFF" stroke-width="1.5" stroke-miterlimit="10"/>
<path d="M567.361 175.108C568.3 175.108 569.061 174.347 569.061 173.408C569.061 172.468 568.3 171.707 567.361 171.707C566.422 171.707 565.66 172.468 565.66 173.408C565.66 174.347 566.422 175.108 567.361 175.108Z" stroke="#14AEFF" stroke-width="1.5" stroke-miterlimit="10"/>
<path d="M574.154 182.331C575.093 182.331 575.854 181.569 575.854 180.63C575.854 179.691 575.093 178.93 574.154 178.93C573.214 178.93 572.453 179.691 572.453 180.63C572.453 181.569 573.214 182.331 574.154 182.331Z" stroke="#14AEFF" stroke-width="1.5" stroke-miterlimit="10"/>
<path d="M574.154 175.108C575.093 175.108 575.854 174.347 575.854 173.408C575.854 172.468 575.093 171.707 574.154 171.707C573.214 171.707 572.453 172.468 572.453 173.408C572.453 174.347 573.214 175.108 574.154 175.108Z" stroke="#14AEFF" stroke-width="1.5" stroke-miterlimit="10"/>
<path d="M574.154 168.522C575.093 168.522 575.854 167.761 575.854 166.822C575.854 165.882 575.093 165.121 574.154 165.121C573.214 165.121 572.453 165.882 572.453 166.822C572.453 167.761 573.214 168.522 574.154 168.522Z" stroke="#14AEFF" stroke-width="1.5" stroke-miterlimit="10"/>
<path d="M580.951 182.331C581.89 182.331 582.651 181.569 582.651 180.63C582.651 179.691 581.89 178.93 580.951 178.93C580.011 178.93 579.25 179.691 579.25 180.63C579.25 181.569 580.011 182.331 580.951 182.331Z" stroke="#14AEFF" stroke-width="1.5" stroke-miterlimit="10"/>
<path d="M580.951 174.628C581.89 174.628 582.651 173.866 582.651 172.927C582.651 171.988 581.89 171.227 580.951 171.227C580.011 171.227 579.25 171.988 579.25 172.927C579.25 173.866 580.011 174.628 580.951 174.628Z" stroke="#14AEFF" stroke-width="1.5" stroke-miterlimit="10"/>
<path d="M580.951 168.038C581.89 168.038 582.651 167.276 582.651 166.337C582.651 165.398 581.89 164.637 580.951 164.637C580.011 164.637 579.25 165.398 579.25 166.337C579.25 167.276 580.011 168.038 580.951 168.038Z" stroke="#14AEFF" stroke-width="1.5" stroke-miterlimit="10"/>
<path d="M580.951 161.456C581.89 161.456 582.651 160.694 582.651 159.755C582.651 158.816 581.89 158.055 580.951 158.055C580.011 158.055 579.25 158.816 579.25 159.755C579.25 160.694 580.011 161.456 580.951 161.456Z" stroke="#14AEFF" stroke-width="1.5" stroke-miterlimit="10"/>
<path d="M588.423 174.628C589.362 174.628 590.124 173.866 590.124 172.927C590.124 171.988 589.362 171.227 588.423 171.227C587.484 171.227 586.723 171.988 586.723 172.927C586.723 173.866 587.484 174.628 588.423 174.628Z" stroke="#14AEFF" stroke-width="1.5" stroke-miterlimit="10"/>
<path d="M588.423 168.038C589.362 168.038 590.124 167.276 590.124 166.337C590.124 165.398 589.362 164.637 588.423 164.637C587.484 164.637 586.723 165.398 586.723 166.337C586.723 167.276 587.484 168.038 588.423 168.038Z" stroke="#14AEFF" stroke-width="1.5" stroke-miterlimit="10"/>
<path d="M588.423 161.456C589.362 161.456 590.124 160.694 590.124 159.755C590.124 158.816 589.362 158.055 588.423 158.055C587.484 158.055 586.723 158.816 586.723 159.755C586.723 160.694 587.484 161.456 588.423 161.456Z" stroke="#14AEFF" stroke-width="1.5" stroke-miterlimit="10"/>
<path d="M595.896 174.628C596.835 174.628 597.596 173.866 597.596 172.927C597.596 171.988 596.835 171.227 595.896 171.227C594.957 171.227 594.195 171.988 594.195 172.927C594.195 173.866 594.957 174.628 595.896 174.628Z" stroke="#14AEFF" stroke-width="1.5" stroke-miterlimit="10"/>
<path d="M595.896 168.038C596.835 168.038 597.596 167.276 597.596 166.337C597.596 165.398 596.835 164.637 595.896 164.637C594.957 164.637 594.195 165.398 594.195 166.337C594.195 167.276 594.957 168.038 595.896 168.038Z" stroke="#14AEFF" stroke-width="1.5" stroke-miterlimit="10"/>
<path d="M595.896 161.456C596.835 161.456 597.596 160.694 597.596 159.755C597.596 158.816 596.835 158.055 595.896 158.055C594.957 158.055 594.195 158.816 594.195 159.755C594.195 160.694 594.957 161.456 595.896 161.456Z" stroke="#14AEFF" stroke-width="1.5" stroke-miterlimit="10"/>
<path d="M603.372 174.628C604.312 174.628 605.073 173.866 605.073 172.927C605.073 171.988 604.312 171.227 603.372 171.227C602.433 171.227 601.672 171.988 601.672 172.927C601.672 173.866 602.433 174.628 603.372 174.628Z" stroke="#14AEFF" stroke-width="1.5" stroke-miterlimit="10"/>
<path d="M603.372 168.038C604.312 168.038 605.073 167.276 605.073 166.337C605.073 165.398 604.312 164.637 603.372 164.637C602.433 164.637 601.672 165.398 601.672 166.337C601.672 167.276 602.433 168.038 603.372 168.038Z" stroke="#14AEFF" stroke-width="1.5" stroke-miterlimit="10"/>
<path d="M603.372 161.456C604.312 161.456 605.073 160.694 605.073 159.755C605.073 158.816 604.312 158.055 603.372 158.055C602.433 158.055 601.672 158.816 601.672 159.755C601.672 160.694 602.433 161.456 603.372 161.456Z" stroke="#14AEFF" stroke-width="1.5" stroke-miterlimit="10"/>
<path d="M551.582 161.023H569.584" stroke="#14AEFF" stroke-width="1.5" stroke-miterlimit="10"/>
<path d="M550.27 166.336H565.661" stroke="#14AEFF" stroke-width="1.5" stroke-miterlimit="10"/>
<path d="M551.582 171.652H563.248" stroke="#14AEFF" stroke-width="1.5" stroke-miterlimit="10"/>
</svg>
