<svg width="462" height="117" viewBox="0 0 462 117" fill="none" xmlns="http://www.w3.org/2000/svg">
<g style="mix-blend-mode:multiply">
<path d="M131.73 115.628C203.93 115.628 262.46 89.9677 262.46 58.314C262.46 26.6604 203.93 1 131.73 1C59.5298 1 1 26.6604 1 58.314C1 89.9677 59.5298 115.628 131.73 115.628Z" stroke="#14AEFF" stroke-width="1.5" stroke-miterlimit="10"/>
</g>
<g style="mix-blend-mode:multiply">
<path d="M329.73 115.628C401.93 115.628 460.46 89.9677 460.46 58.314C460.46 26.6604 401.93 1 329.73 1C257.53 1 199 26.6604 199 58.314C199 89.9677 257.53 115.628 329.73 115.628Z" stroke="#14AEFF" stroke-width="1.5" stroke-miterlimit="10"/>
</g>
<path d="M120 70.8C119.856 70.56 119.656 70.28 119.4 69.96C119.144 69.64 118.888 69.344 118.632 69.072C118.376 68.8 118.184 68.616 118.056 68.52C119.352 67.992 120.416 67.336 121.248 66.552C122.08 65.752 122.728 64.768 123.192 63.6C123.672 62.416 124.008 60.992 124.2 59.328C124.392 57.648 124.496 55.672 124.512 53.4H120.264V50.616H133.128V55.224C133.128 57.368 133.08 59.328 132.984 61.104C132.904 62.864 132.808 64.24 132.696 65.232C132.568 66.576 132.296 67.624 131.88 68.376C131.464 69.128 130.904 69.656 130.2 69.96C129.496 70.264 128.64 70.416 127.632 70.416H126.096C126.064 70 125.984 69.504 125.856 68.928C125.728 68.352 125.592 67.888 125.448 67.536H127.56C128.168 67.536 128.648 67.368 129 67.032C129.352 66.68 129.624 65.952 129.816 64.848C129.896 64.4 129.968 63.704 130.032 62.76C130.112 61.816 130.168 60.696 130.2 59.4C130.248 58.104 130.272 56.712 130.272 55.224V53.4H127.392C127.376 56.088 127.232 58.376 126.96 60.264C126.704 62.152 126.288 63.744 125.712 65.04C125.136 66.336 124.376 67.44 123.432 68.352C122.504 69.248 121.36 70.064 120 70.8ZM117.096 65.832C116.216 65.832 115.584 65.688 115.2 65.4C114.832 65.112 114.648 64.624 114.648 63.936V59.424C114.104 59.552 113.592 59.68 113.112 59.808C112.648 59.92 112.248 60.016 111.912 60.096L111.336 57.24C111.736 57.16 112.224 57.064 112.8 56.952C113.376 56.84 113.992 56.72 114.648 56.592V49.848H117.6V55.968C118.528 55.76 119.408 55.56 120.24 55.368C121.072 55.176 121.752 55 122.28 54.84L122.784 57.576C122.272 57.688 121.536 57.848 120.576 58.056C119.632 58.264 118.64 58.488 117.6 58.728V62.448C117.6 62.608 117.632 62.728 117.696 62.808C117.776 62.888 117.944 62.928 118.2 62.928H118.752C118.992 62.928 119.192 62.872 119.352 62.76C119.512 62.648 119.648 62.4 119.76 62.016C119.872 61.632 119.96 61.032 120.024 60.216C120.328 60.376 120.728 60.544 121.224 60.72C121.736 60.88 122.216 61.016 122.664 61.128C122.52 62.392 122.304 63.368 122.016 64.056C121.728 64.728 121.344 65.192 120.864 65.448C120.384 65.704 119.768 65.832 119.016 65.832H117.096ZM152.664 70.728C152.632 70.328 152.576 69.856 152.496 69.312C152.416 68.784 152.304 68.352 152.16 68.016H153.768C154.088 68.016 154.296 67.96 154.392 67.848C154.504 67.736 154.56 67.536 154.56 67.248V57.552H147.84V49.488H157.272V68.28C157.272 69.112 157.048 69.728 156.6 70.128C156.168 70.528 155.456 70.728 154.464 70.728H152.664ZM136.776 70.752V49.488H146.16V57.552H139.488V70.752H136.776ZM141.336 70.584C141.176 70.264 140.968 69.928 140.712 69.576C140.472 69.224 140.216 68.936 139.944 68.712C141.048 68.232 141.88 67.728 142.44 67.2C143 66.656 143.368 65.904 143.544 64.944H140.52V62.712H143.688V60.84H141.24V58.752H152.856V60.84H150.504V62.712H153.552V64.944H150.504V70.224H147.984V64.944H145.992C145.736 66.432 145.208 67.616 144.408 68.496C143.624 69.376 142.6 70.072 141.336 70.584ZM150.456 55.584H154.56V54.384H150.456V55.584ZM150.456 52.656H154.56V51.456H150.456V52.656ZM139.488 55.584H143.544V54.384H139.488V55.584ZM139.488 52.656H143.544V51.456H139.488V52.656ZM146.136 62.712H147.984V60.84H146.136V62.712Z" fill="#14AEFF"/>
<path d="M302.432 71.088C302.304 70.688 302.096 70.248 301.808 69.768C301.536 69.288 301.264 68.904 300.992 68.616C302.272 68.264 303.312 67.816 304.112 67.272C304.928 66.712 305.552 65.992 305.984 65.112C304.96 65.32 303.96 65.52 302.984 65.712C302.008 65.888 301.184 66.032 300.512 66.144L299.816 63.552C300.296 63.488 300.912 63.4 301.664 63.288C302.416 63.16 303.232 63.016 304.112 62.856C304.992 62.68 305.856 62.512 306.704 62.352C306.752 61.984 306.784 61.608 306.8 61.224C306.816 60.824 306.824 60.408 306.824 59.976V59.952H301.016V57.408H306.824V54.648H300.296V52.104H306.824V48.888H309.704V59.976C309.704 60.28 309.696 60.576 309.68 60.864C309.68 61.152 309.672 61.432 309.656 61.704C309.832 61.672 310 61.632 310.16 61.584C310.336 61.536 310.488 61.496 310.616 61.464V63.984C310.424 64.032 310.216 64.088 309.992 64.152C309.768 64.216 309.52 64.28 309.248 64.344C308.848 66.008 308.104 67.384 307.016 68.472C305.944 69.56 304.416 70.432 302.432 71.088ZM312.056 70.752V48.888H314.96V52.104H321.704V54.648H314.96V57.408H320.888V59.952H314.96V63H321.968V65.64H314.96V70.752H312.056ZM332 70.8C331.856 70.56 331.656 70.28 331.4 69.96C331.144 69.64 330.888 69.344 330.632 69.072C330.376 68.8 330.184 68.616 330.056 68.52C331.352 67.992 332.416 67.336 333.248 66.552C334.08 65.752 334.728 64.768 335.192 63.6C335.672 62.416 336.008 60.992 336.2 59.328C336.392 57.648 336.496 55.672 336.512 53.4H332.264V50.616H345.128V55.224C345.128 57.368 345.08 59.328 344.984 61.104C344.904 62.864 344.808 64.24 344.696 65.232C344.568 66.576 344.296 67.624 343.88 68.376C343.464 69.128 342.904 69.656 342.2 69.96C341.496 70.264 340.64 70.416 339.632 70.416H338.096C338.064 70 337.984 69.504 337.856 68.928C337.728 68.352 337.592 67.888 337.448 67.536H339.56C340.168 67.536 340.648 67.368 341 67.032C341.352 66.68 341.624 65.952 341.816 64.848C341.896 64.4 341.968 63.704 342.032 62.76C342.112 61.816 342.168 60.696 342.2 59.4C342.248 58.104 342.272 56.712 342.272 55.224V53.4H339.392C339.376 56.088 339.232 58.376 338.96 60.264C338.704 62.152 338.288 63.744 337.712 65.04C337.136 66.336 336.376 67.44 335.432 68.352C334.504 69.248 333.36 70.064 332 70.8ZM329.096 65.832C328.216 65.832 327.584 65.688 327.2 65.4C326.832 65.112 326.648 64.624 326.648 63.936V59.424C326.104 59.552 325.592 59.68 325.112 59.808C324.648 59.92 324.248 60.016 323.912 60.096L323.336 57.24C323.736 57.16 324.224 57.064 324.8 56.952C325.376 56.84 325.992 56.72 326.648 56.592V49.848H329.6V55.968C330.528 55.76 331.408 55.56 332.24 55.368C333.072 55.176 333.752 55 334.28 54.84L334.784 57.576C334.272 57.688 333.536 57.848 332.576 58.056C331.632 58.264 330.64 58.488 329.6 58.728V62.448C329.6 62.608 329.632 62.728 329.696 62.808C329.776 62.888 329.944 62.928 330.2 62.928H330.752C330.992 62.928 331.192 62.872 331.352 62.76C331.512 62.648 331.648 62.4 331.76 62.016C331.872 61.632 331.96 61.032 332.024 60.216C332.328 60.376 332.728 60.544 333.224 60.72C333.736 60.88 334.216 61.016 334.664 61.128C334.52 62.392 334.304 63.368 334.016 64.056C333.728 64.728 333.344 65.192 332.864 65.448C332.384 65.704 331.768 65.832 331.016 65.832H329.096ZM364.664 70.728C364.632 70.328 364.576 69.856 364.496 69.312C364.416 68.784 364.304 68.352 364.16 68.016H365.768C366.088 68.016 366.296 67.96 366.392 67.848C366.504 67.736 366.56 67.536 366.56 67.248V57.552H359.84V49.488H369.272V68.28C369.272 69.112 369.048 69.728 368.6 70.128C368.168 70.528 367.456 70.728 366.464 70.728H364.664ZM348.776 70.752V49.488H358.16V57.552H351.488V70.752H348.776ZM353.336 70.584C353.176 70.264 352.968 69.928 352.712 69.576C352.472 69.224 352.216 68.936 351.944 68.712C353.048 68.232 353.88 67.728 354.44 67.2C355 66.656 355.368 65.904 355.544 64.944H352.52V62.712H355.688V60.84H353.24V58.752H364.856V60.84H362.504V62.712H365.552V64.944H362.504V70.224H359.984V64.944H357.992C357.736 66.432 357.208 67.616 356.408 68.496C355.624 69.376 354.6 70.072 353.336 70.584ZM362.456 55.584H366.56V54.384H362.456V55.584ZM362.456 52.656H366.56V51.456H362.456V52.656ZM351.488 55.584H355.544V54.384H351.488V55.584ZM351.488 52.656H355.544V51.456H351.488V52.656ZM358.136 62.712H359.984V60.84H358.136V62.712Z" fill="#14AEFF"/>
<path d="M225.954 67.22C225.101 67.22 224.341 67.0067 223.674 66.58C223.008 66.1533 222.481 65.5667 222.094 64.82C221.708 64.06 221.514 63.1867 221.514 62.2C221.514 61.2133 221.708 60.3467 222.094 59.6C222.481 58.84 223.008 58.2467 223.674 57.82C224.341 57.3933 225.101 57.18 225.954 57.18C226.821 57.18 227.588 57.3933 228.254 57.82C228.921 58.2467 229.448 58.84 229.834 59.6C230.221 60.3467 230.414 61.2133 230.414 62.2C230.414 63.1867 230.221 64.06 229.834 64.82C229.448 65.5667 228.921 66.1533 228.254 66.58C227.588 67.0067 226.821 67.22 225.954 67.22ZM225.954 66.08C226.581 66.08 227.134 65.92 227.614 65.6C228.108 65.28 228.494 64.8333 228.774 64.26C229.054 63.6733 229.194 62.9867 229.194 62.2C229.194 61.4133 229.054 60.7333 228.774 60.16C228.494 59.5733 228.108 59.12 227.614 58.8C227.134 58.48 226.581 58.32 225.954 58.32C225.021 58.32 224.248 58.6733 223.634 59.38C223.034 60.0733 222.734 61.0133 222.734 62.2C222.734 63.3733 223.034 64.3133 223.634 65.02C224.248 65.7267 225.021 66.08 225.954 66.08ZM232.835 67V57.42H233.995L234.055 59.08C234.322 58.52 234.742 58.0667 235.315 57.72C235.902 57.36 236.549 57.18 237.255 57.18C237.442 57.18 237.629 57.1933 237.815 57.22C238.015 57.2333 238.182 57.26 238.315 57.3V58.48C238.195 58.4533 238.022 58.4267 237.795 58.4C237.582 58.3733 237.362 58.36 237.135 58.36C236.575 58.36 236.062 58.4933 235.595 58.76C235.129 59.0133 234.755 59.36 234.475 59.8C234.209 60.2267 234.075 60.7133 234.075 61.26V67H232.835Z" fill="#14AEFF"/>
</svg>
