<svg width="503" height="329" viewBox="0 0 503 329" fill="none" xmlns="http://www.w3.org/2000/svg">
<path d="M171.152 148.619L202.126 218.871H257.93L288.903 148.619" stroke="#14AEFF" stroke-width="1.5" stroke-miterlimit="10" stroke-linecap="round"/>
<path d="M288.902 148.619L292.616 113.148C294.497 95.2129 284.742 78.069 268.358 70.5157L267.143 69.9515C255.374 64.5294 242.705 61.8105 230.027 61.8105C217.349 61.8105 204.679 64.5294 192.911 69.9515L191.696 70.5157C175.312 78.069 165.557 95.2129 167.438 113.148L171.152 148.619" stroke="#14AEFF" stroke-width="1.5" stroke-miterlimit="10" stroke-linecap="round"/>
<path d="M288.906 148.76C296.232 148.76 301.991 153.853 301.991 163.765C301.991 173.677 291.429 184.662 284.103 184.662C284.103 184.662 266.567 212.102 268.487 236.885C268.714 239.776 269.482 242.511 270.704 244.995C274.41 252.517 282.269 257.085 290.653 257.085H567.001" stroke="#14AEFF" stroke-width="1.5" stroke-miterlimit="10" stroke-linecap="round"/>
<path d="M251.817 171.013C252.748 171.013 253.502 170.259 253.502 169.328C253.502 168.398 252.748 167.644 251.817 167.644C250.887 167.644 250.133 168.398 250.133 169.328C250.133 170.259 250.887 171.013 251.817 171.013Z" stroke="#14AEFF" stroke-width="1.5" stroke-miterlimit="10"/>
<path d="M251.817 164.486C252.748 164.486 253.502 163.732 253.502 162.801C253.502 161.871 252.748 161.117 251.817 161.117C250.887 161.117 250.133 161.871 250.133 162.801C250.133 163.732 250.887 164.486 251.817 164.486Z" stroke="#14AEFF" stroke-width="1.5" stroke-miterlimit="10"/>
<path d="M251.817 157.967C252.748 157.967 253.502 157.213 253.502 156.282C253.502 155.352 252.748 154.598 251.817 154.598C250.887 154.598 250.133 155.352 250.133 156.282C250.133 157.213 250.887 157.967 251.817 157.967Z" stroke="#14AEFF" stroke-width="1.5" stroke-miterlimit="10"/>
<path d="M244.556 171.013C245.486 171.013 246.24 170.259 246.24 169.328C246.24 168.398 245.486 167.644 244.556 167.644C243.625 167.644 242.871 168.398 242.871 169.328C242.871 170.259 243.625 171.013 244.556 171.013Z" stroke="#14AEFF" stroke-width="1.5" stroke-miterlimit="10"/>
<path d="M244.556 164.486C245.486 164.486 246.24 163.732 246.24 162.801C246.24 161.871 245.486 161.117 244.556 161.117C243.625 161.117 242.871 161.871 242.871 162.801C242.871 163.732 243.625 164.486 244.556 164.486Z" stroke="#14AEFF" stroke-width="1.5" stroke-miterlimit="10"/>
<path d="M244.556 157.967C245.486 157.967 246.24 157.213 246.24 156.282C246.24 155.352 245.486 154.598 244.556 154.598C243.625 154.598 242.871 155.352 242.871 156.282C242.871 157.213 243.625 157.967 244.556 157.967Z" stroke="#14AEFF" stroke-width="1.5" stroke-miterlimit="10"/>
<path d="M237.294 171.013C238.224 171.013 238.979 170.259 238.979 169.328C238.979 168.398 238.224 167.644 237.294 167.644C236.364 167.644 235.609 168.398 235.609 169.328C235.609 170.259 236.364 171.013 237.294 171.013Z" stroke="#14AEFF" stroke-width="1.5" stroke-miterlimit="10"/>
<path d="M237.294 164.486C238.224 164.486 238.979 163.732 238.979 162.801C238.979 161.871 238.224 161.117 237.294 161.117C236.364 161.117 235.609 161.871 235.609 162.801C235.609 163.732 236.364 164.486 237.294 164.486Z" stroke="#14AEFF" stroke-width="1.5" stroke-miterlimit="10"/>
<path d="M237.294 157.967C238.224 157.967 238.979 157.213 238.979 156.282C238.979 155.352 238.224 154.598 237.294 154.598C236.364 154.598 235.609 155.352 235.609 156.282C235.609 157.213 236.364 157.967 237.294 157.967Z" stroke="#14AEFF" stroke-width="1.5" stroke-miterlimit="10"/>
<path d="M230.028 171.013C230.959 171.013 231.713 170.259 231.713 169.328C231.713 168.398 230.959 167.644 230.028 167.644C229.098 167.644 228.344 168.398 228.344 169.328C228.344 170.259 229.098 171.013 230.028 171.013Z" stroke="#14AEFF" stroke-width="1.5" stroke-miterlimit="10"/>
<path d="M230.028 164.486C230.959 164.486 231.713 163.732 231.713 162.801C231.713 161.871 230.959 161.117 230.028 161.117C229.098 161.117 228.344 161.871 228.344 162.801C228.344 163.732 229.098 164.486 230.028 164.486Z" stroke="#14AEFF" stroke-width="1.5" stroke-miterlimit="10"/>
<path d="M230.028 157.967C230.959 157.967 231.713 157.213 231.713 156.282C231.713 155.352 230.959 154.598 230.028 154.598C229.098 154.598 228.344 155.352 228.344 156.282C228.344 157.213 229.098 157.967 230.028 157.967Z" stroke="#14AEFF" stroke-width="1.5" stroke-miterlimit="10"/>
<path d="M222.767 171.013C223.697 171.013 224.451 170.259 224.451 169.328C224.451 168.398 223.697 167.644 222.767 167.644C221.836 167.644 221.082 168.398 221.082 169.328C221.082 170.259 221.836 171.013 222.767 171.013Z" stroke="#14AEFF" stroke-width="1.5" stroke-miterlimit="10"/>
<path d="M222.767 164.486C223.697 164.486 224.451 163.732 224.451 162.801C224.451 161.871 223.697 161.117 222.767 161.117C221.836 161.117 221.082 161.871 221.082 162.801C221.082 163.732 221.836 164.486 222.767 164.486Z" stroke="#14AEFF" stroke-width="1.5" stroke-miterlimit="10"/>
<path d="M222.767 157.967C223.697 157.967 224.451 157.213 224.451 156.282C224.451 155.352 223.697 154.598 222.767 154.598C221.836 154.598 221.082 155.352 221.082 156.282C221.082 157.213 221.836 157.967 222.767 157.967Z" stroke="#14AEFF" stroke-width="1.5" stroke-miterlimit="10"/>
<path d="M215.501 171.013C216.431 171.013 217.186 170.259 217.186 169.328C217.186 168.398 216.431 167.644 215.501 167.644C214.571 167.644 213.816 168.398 213.816 169.328C213.816 170.259 214.571 171.013 215.501 171.013Z" stroke="#14AEFF" stroke-width="1.5" stroke-miterlimit="10"/>
<path d="M215.501 164.486C216.431 164.486 217.186 163.732 217.186 162.801C217.186 161.871 216.431 161.117 215.501 161.117C214.571 161.117 213.816 161.871 213.816 162.801C213.816 163.732 214.571 164.486 215.501 164.486Z" stroke="#14AEFF" stroke-width="1.5" stroke-miterlimit="10"/>
<path d="M215.501 157.967C216.431 157.967 217.186 157.213 217.186 156.282C217.186 155.352 216.431 154.598 215.501 154.598C214.571 154.598 213.816 155.352 213.816 156.282C213.816 157.213 214.571 157.967 215.501 157.967Z" stroke="#14AEFF" stroke-width="1.5" stroke-miterlimit="10"/>
<path d="M208.239 171.013C209.17 171.013 209.924 170.259 209.924 169.328C209.924 168.398 209.17 167.644 208.239 167.644C207.309 167.644 206.555 168.398 206.555 169.328C206.555 170.259 207.309 171.013 208.239 171.013Z" stroke="#14AEFF" stroke-width="1.5" stroke-miterlimit="10"/>
<path d="M208.239 164.486C209.17 164.486 209.924 163.732 209.924 162.801C209.924 161.871 209.17 161.117 208.239 161.117C207.309 161.117 206.555 161.871 206.555 162.801C206.555 163.732 207.309 164.486 208.239 164.486Z" stroke="#14AEFF" stroke-width="1.5" stroke-miterlimit="10"/>
<path d="M208.239 157.967C209.17 157.967 209.924 157.213 209.924 156.282C209.924 155.352 209.17 154.598 208.239 154.598C207.309 154.598 206.555 155.352 206.555 156.282C206.555 157.213 207.309 157.967 208.239 157.967Z" stroke="#14AEFF" stroke-width="1.5" stroke-miterlimit="10"/>
<path d="M100.526 244.102C101.898 244.117 103.018 243.02 103.041 241.649L103.175 231.612C103.175 222.468 99.1786 214.672 97.3295 206.405L97.3059 206.327C95.0885 196.439 94.7908 186.237 96.4284 176.27C96.6556 174.876 95.5978 173.606 94.1875 173.606C93.0748 173.606 92.1267 174.406 91.9387 175.495C90.1601 185.704 90.4108 196.188 92.6909 206.327L92.7066 206.405C94.5636 214.672 98.5518 222.46 98.5518 231.612L98.0817 241.5C98.0111 242.903 99.1238 244.086 100.534 244.102H100.526Z" stroke="#14AEFF" stroke-width="1.5" stroke-linecap="round" stroke-linejoin="round"/>
<path d="M75.3036 251.239C76.6748 251.255 77.7953 250.158 77.8188 248.787L77.952 238.75C77.952 229.606 73.956 221.81 72.1068 213.543L72.0833 213.465C69.8659 203.577 69.5681 193.375 71.2057 183.408C71.433 182.013 70.3752 180.744 68.9648 180.744C67.8522 180.744 66.9041 181.543 66.716 182.632C64.9374 192.842 65.1881 203.326 67.4682 213.465L67.4839 213.543C69.3409 221.81 73.3291 229.598 73.3291 238.75L72.859 248.638C72.7885 250.041 73.9011 251.224 75.3115 251.239H75.3036Z" stroke="#14AEFF" stroke-width="1.5" stroke-linecap="round" stroke-linejoin="round"/>
<path d="M115.436 244.102C116.808 244.117 117.928 243.02 117.952 241.649L118.085 231.612C118.085 222.468 114.089 214.672 112.24 206.405L112.216 206.327C109.999 196.439 109.701 186.237 111.339 176.27C111.566 174.876 110.508 173.606 109.098 173.606C107.985 173.606 107.037 174.406 106.849 175.495C105.07 185.704 105.321 196.188 107.601 206.327L107.617 206.405C109.474 214.672 113.462 222.46 113.462 231.612L112.992 241.5C112.921 242.903 114.034 244.086 115.444 244.102H115.436Z" stroke="#14AEFF" stroke-width="1.5" stroke-linecap="round" stroke-linejoin="round"/>
<path d="M81.7812 235.569H93.4638C94.8194 235.569 95.9163 236.666 95.9163 238.021V241.743C95.9163 244.368 98.0397 246.483 100.657 246.483C101.965 246.483 103.148 245.951 104.01 245.097C104.864 244.235 105.397 243.052 105.397 241.743V237.982C105.397 236.587 106.541 235.357 107.936 235.381C108.602 235.396 109.213 235.671 109.66 236.109C110.106 236.556 110.388 237.183 110.388 237.872V241.868C110.388 244.485 112.512 246.609 115.129 246.609H115.442C118.059 246.609 120.183 244.485 120.183 241.868V238.021C120.183 236.666 121.28 235.569 122.635 235.569H191.375" stroke="#14AEFF" stroke-width="1.5" stroke-miterlimit="10" stroke-linecap="round"/>
<path d="M33.0771 244.102C34.4483 244.117 35.5687 243.02 35.5923 241.649L35.7255 231.612C35.7255 222.468 31.7294 214.672 29.8802 206.405L29.8567 206.327C27.6393 196.439 27.3416 186.237 28.9792 176.27C29.2064 174.876 28.1486 173.606 26.7382 173.606C25.6256 173.606 24.6775 174.406 24.4895 175.495C22.7108 185.704 22.9616 196.188 25.2417 206.327L25.2573 206.405C27.1143 214.672 31.1026 222.46 31.1026 231.612L30.6324 241.5C30.5619 242.903 31.6745 244.086 33.0849 244.102H33.0771Z" stroke="#14AEFF" stroke-width="1.5" stroke-linecap="round" stroke-linejoin="round"/>
<path d="M47.9872 244.102C49.3584 244.117 50.4789 243.02 50.5024 241.649L50.6356 231.612C50.6356 222.468 46.6396 214.672 44.7904 206.405L44.7669 206.327C42.5495 196.439 42.2517 186.237 43.8893 176.27C44.1165 174.876 43.0588 173.606 41.6484 173.606C40.5358 173.606 39.5877 174.406 39.3996 175.495C37.621 185.704 37.8717 196.188 40.1518 206.327L40.1675 206.405C42.0245 214.672 46.0127 222.46 46.0127 231.612L45.5426 241.5C45.4721 242.903 46.5847 244.086 47.9951 244.102H47.9872Z" stroke="#14AEFF" stroke-width="1.5" stroke-linecap="round" stroke-linejoin="round"/>
<path d="M61.2543 235.569H55.1897C53.8342 235.569 52.7372 236.666 52.7372 238.021V241.868C52.7372 244.485 50.6138 246.609 47.9968 246.609H47.6834C45.0663 246.609 42.943 244.485 42.943 241.868V237.872C42.943 237.183 42.6609 236.556 42.2143 236.109C41.7128 235.608 41.0076 235.326 40.2397 235.389C38.9234 235.498 37.9518 236.681 37.9518 238.006V241.743C37.9518 243.059 37.419 244.243 36.5649 245.097C35.7344 245.927 34.5982 246.452 33.3367 246.483C30.657 246.554 28.4709 244.211 28.4709 241.539V238.021C28.4709 236.666 27.374 235.569 26.0185 235.569H15.3701C7.43287 235.569 1 242.002 1 249.939V313.515C1 321.453 7.43287 327.886 15.3701 327.886H330.51C337.406 327.886 343 322.291 343 315.396C343 308.501 337.406 302.906 330.51 302.906H132.658C120.819 302.906 111.244 293.245 111.362 281.406C111.471 269.723 120.976 260.313 132.658 260.313H136.6C149.841 260.313 160.897 259.138 169.187 257.798C182.531 255.643 192.302 243.843 191.651 230.335C190.546 207.51 175.949 184.67 175.949 184.67C168.623 184.67 158.061 173.685 158.061 163.773C158.061 153.861 163.82 148.768 171.146 148.768" stroke="#14AEFF" stroke-width="1.5" stroke-miterlimit="10"/>
<path d="M81.7813 176.106H61.707V255.87H81.7813V176.106Z" stroke="#14AEFF" stroke-width="1.5" stroke-linecap="round" stroke-linejoin="round"/>
<path d="M61.7179 176.106C61.7179 176.106 52.3781 160.255 49.9961 155.444V1" stroke="#14AEFF" stroke-width="1.5" stroke-linecap="round" stroke-linejoin="round"/>
<path d="M93.503 1V155.444C91.1211 160.255 81.7812 176.106 81.7812 176.106" stroke="#14AEFF" stroke-width="1.5" stroke-linecap="round" stroke-linejoin="round"/>
<path d="M49.9961 1H213.639C223.621 1 231.723 9.09398 231.723 19.0841V151.495H209.619C203.374 151.495 198.305 156.556 198.305 162.809C198.305 169.054 203.366 174.123 209.619 174.123H250.457C256.702 174.123 261.772 169.062 261.772 162.809C261.772 156.564 256.71 151.495 250.457 151.495H236.737" stroke="#14AEFF" stroke-width="1.5" stroke-linecap="round" stroke-linejoin="round"/>
</svg>
