<svg width="178" height="25" viewBox="0 0 178 25" fill="none" xmlns="http://www.w3.org/2000/svg">
<g clip-path="url(#clip0_2686_799)">
<g clip-path="url(#clip1_2686_799)">
<path d="M3.24672 9.13866H9.32104V0.434657H12.2477V22.939H0.316406V0.434657H3.24672V9.13866ZM9.31742 20.389V11.685H3.24672V20.389H9.32104H9.31742ZM19.5427 0V10.0333H23.3931V12.6087H19.5427V24.5943H16.5871V0H19.5427Z" fill="white"/>
<path d="M37.0601 13.6917H26.0234V5.72298H35.0534V2.76731H26.0234V0.297015H37.9801V8.18603H28.9791V11.2504H37.8171C40.0411 11.2504 41.5588 10.9533 42.6165 10.1673V0H45.5721V5.80267H49.1508V8.40698H45.5721V14.6443H42.6165V12.4746C41.5878 13.315 39.8238 13.6953 37.0565 13.6953L37.0601 13.6917ZM27.4324 24.837V16.1584H45.5721V24.837H27.4324ZM42.6165 18.683H30.3591V22.345H42.6165V18.683Z" fill="white"/>
<path d="M51.7282 18.5454V15.97H73.5552V18.5454H64.0652V25H61.1349V18.5454H51.7246H51.7282ZM55.9589 4.0387H69.3282V0.297028H72.2839V12.9057H53.0032V0.297028H55.9589V4.0387ZM69.3246 10.3847V6.55971H55.9553V10.3847H69.3246Z" fill="white"/>
<path d="M77.5977 14.561V12.011H99.7507V14.561H77.5977ZM82.1507 0.162994V6.18299H98.2837V8.73298H79.2204V0.162994H82.1471H82.1507ZM82.1507 16.8647V22.153H98.5843V24.703H79.224V16.8683H82.1507V16.8647Z" fill="white"/>
<path d="M115.127 11.0367H104.119V0.162996H107.075V8.48667H115.913C118.137 8.48667 119.655 8.16068 120.712 7.37467V0H123.668V4.61098H127.246V7.2153H123.668V11.9603H120.712V9.81962C119.683 10.66 117.919 11.0403 115.127 11.0403V11.0367ZM108.455 20.3093V22.45H123.965V24.837H105.528V17.9767H120.712V15.7817H105.528V13.4236H123.668V20.3093H108.455Z" fill="white"/>
<path d="M130.203 11.6343C130.203 5.72298 130.717 2.71298 132.126 1.16633C132.858 0.40568 133.807 0 135.111 0C136.415 0 137.389 0.40568 138.092 1.16633C139.367 2.54999 139.91 5.07099 140.015 9.76166H142.699V0.162996H145.575V24.2937H142.699V12.337H140.041C139.986 17.7883 139.472 20.6063 138.088 22.0987C137.382 22.8303 136.408 23.2107 135.107 23.2107C133.807 23.2107 132.858 22.8303 132.123 22.0987C130.714 20.552 130.199 17.542 130.199 11.6307L130.203 11.6343ZM133.024 11.6343C133.024 16.7053 133.242 19.1466 134.002 20.15C134.274 20.5303 134.654 20.6933 135.114 20.6933C135.603 20.6933 135.955 20.5303 136.252 20.15C137.012 19.1466 137.201 16.7053 137.201 11.6343C137.201 6.56331 137.012 4.09664 136.252 3.11866C135.955 2.73834 135.6 2.54999 135.114 2.54999C134.654 2.54999 134.274 2.73834 134.002 3.11866C133.242 4.09664 133.024 6.56331 133.024 11.6343ZM150.675 24.5943H147.803V0H150.675V24.5943Z" fill="white"/>
<path d="M176.407 3.03536H160.082V11.388H176.596V13.9633H168.297V20.9577H177.679V23.5077H155.852V20.9577H165.371V13.9633H157.127V0.434662H176.407V3.03898V3.03536Z" fill="white"/>
</g>
</g>
<defs>
<clipPath id="clip0_2686_799">
<rect width="178" height="25" fill="white"/>
</clipPath>
<clipPath id="clip1_2686_799">
<rect width="177.365" height="25" fill="white" transform="translate(0.316406)"/>
</clipPath>
</defs>
</svg>
