<svg width="177" height="25" viewBox="0 0 177 25" fill="none" xmlns="http://www.w3.org/2000/svg">
<g clip-path="url(#clip0_4026_64)">
<path d="M4.34324 14.1187C4.631 13.4222 4.90894 12.6766 5.17054 11.8886C5.4354 11.0973 5.67084 10.283 5.88338 9.4394C6.09593 8.59903 6.28231 7.76192 6.44581 6.92809C6.60604 6.09426 6.72048 5.28004 6.78915 4.47891L10.1049 5.16886C10.0525 5.40757 9.98388 5.67243 9.90213 5.96019C9.81711 6.24794 9.74517 6.5357 9.68631 6.81364C9.62746 7.09486 9.57841 7.33683 9.54571 7.53957C9.46069 7.96466 9.34297 8.49112 9.18928 9.12222C9.0356 9.75331 8.85902 10.4236 8.65302 11.1365C8.45028 11.8493 8.23446 12.5687 8.01538 13.2914C7.79302 14.014 7.56413 14.6811 7.32542 15.2926C7.01805 16.0904 6.66163 16.9243 6.25288 17.7908C5.84414 18.6573 5.40597 19.4944 4.93837 20.3021C4.47077 21.1098 4.01625 21.8357 3.57481 22.4832L0.389893 21.1588C1.18776 20.1059 1.94311 18.9451 2.64615 17.6764C3.35245 16.4109 3.91815 15.2239 4.34324 14.1187ZM16.9423 13.4581C16.6872 12.7943 16.4028 12.0848 16.0888 11.3294C15.7749 10.5741 15.4512 9.81217 15.1209 9.04701C14.7907 8.28184 14.4604 7.56246 14.14 6.89212C13.8162 6.22178 13.5187 5.64628 13.2473 5.16886L16.2556 4.1748C16.5107 4.65222 16.805 5.23426 17.1352 5.92095C17.4655 6.61091 17.8056 7.33683 18.1554 8.102C18.5053 8.86716 18.8389 9.62906 19.1626 10.3844C19.4863 11.1398 19.7675 11.833 20.003 12.4641C20.2417 13.0429 20.4967 13.7132 20.7681 14.4784C21.0395 15.2435 21.3175 16.0349 21.5987 16.8491C21.8799 17.6633 22.1415 18.4611 22.39 19.2328C22.6353 20.0078 22.8445 20.6978 23.0146 21.3125L19.6465 22.3851C19.4242 21.4172 19.1691 20.4198 18.8814 19.3996C18.5936 18.3794 18.283 17.3592 17.9494 16.339C17.6192 15.3187 17.2824 14.3574 16.9423 13.4581ZM18.1162 3.78895C18.1162 3.22652 18.2535 2.72295 18.5249 2.2717C18.7963 1.82045 19.1593 1.46076 19.6106 1.18609C20.0618 0.914681 20.5588 0.777344 21.1017 0.777344C21.6445 0.777344 22.148 0.914681 22.6058 1.18609C23.0636 1.45749 23.4298 1.82045 23.7013 2.2717C23.9727 2.72295 24.11 3.22652 24.11 3.78895C24.11 4.35138 23.9727 4.83206 23.7013 5.28004C23.4298 5.73129 23.0636 6.09099 22.6058 6.36239C22.148 6.6338 21.6445 6.77113 21.1017 6.77113C20.5588 6.77113 20.0585 6.6338 19.6106 6.36239C19.1593 6.09099 18.7996 5.72802 18.5249 5.28004C18.2535 4.82879 18.1162 4.33176 18.1162 3.78895ZM19.5713 3.78895C19.5713 4.21404 19.7217 4.57701 20.0193 4.87457C20.3169 5.17213 20.6766 5.32255 21.1017 5.32255C21.5267 5.32255 21.8897 5.17213 22.1873 4.87457C22.4848 4.57701 22.6353 4.21731 22.6353 3.78895C22.6353 3.36059 22.4848 3.00417 22.1873 2.7066C21.8897 2.40904 21.5267 2.25862 21.1017 2.25862C20.6766 2.25862 20.3136 2.40904 20.0193 2.7066C19.725 3.00417 19.5713 3.36713 19.5713 3.78895Z" fill="white"/>
<path d="M45.0994 9.78315C45.0143 9.93684 44.9293 10.1069 44.8443 10.2933C44.7593 10.4796 44.7004 10.6333 44.6645 10.751C44.2721 11.9936 43.7849 13.2264 43.1995 14.4493C42.6142 15.6723 41.8425 16.8135 40.891 17.8664C39.5993 19.3117 38.1671 20.4693 36.5943 21.3358C35.0214 22.2024 33.4192 22.8662 31.7875 23.3239L29.5181 20.7472C31.4049 20.3548 33.1052 19.7663 34.6192 18.9749C36.1332 18.1836 37.3889 17.2713 38.3927 16.2347C39.1056 15.5023 39.6844 14.7175 40.1258 13.8771C40.5672 13.0367 40.9008 12.2323 41.1199 11.4672H28.4685C28.1611 11.4672 27.7426 11.477 27.2063 11.4933C26.67 11.5097 26.1468 11.5456 25.6367 11.5947V8.60924C26.1632 8.64194 26.6733 8.67791 27.167 8.71061C27.6608 8.74331 28.0924 8.76293 28.4685 8.76293H41.2964C41.6888 8.76293 42.0354 8.74331 42.3428 8.7008C42.6502 8.65829 42.8856 8.59616 43.0557 8.51115L45.0961 9.78642L45.0994 9.78315ZM27.9878 2.56641C28.3279 2.61873 28.7301 2.65142 29.2009 2.66777C29.6685 2.68412 30.1067 2.69393 30.5155 2.69393H40.3874C40.7961 2.69393 41.2507 2.68412 41.751 2.66777C42.2513 2.65142 42.6731 2.61546 43.0132 2.56641V5.55186C42.6894 5.51916 42.2807 5.493 41.7902 5.47665C41.2964 5.4603 40.8223 5.45049 40.3612 5.45049H30.5155C30.1231 5.45049 29.6947 5.4603 29.2271 5.47665C28.7595 5.493 28.3475 5.51916 27.9911 5.55186V2.56641H27.9878Z" fill="white"/>
<path d="M49.1575 16.3391C50.024 16.4765 51.0018 16.6531 52.0906 16.8754C53.1795 17.0978 54.3142 17.3397 55.4946 17.6013C56.6751 17.8662 57.8359 18.1409 58.9771 18.4319C60.1151 18.7196 61.1843 19.0139 62.1784 19.3115C63.1725 19.6091 64.0194 19.8936 64.7159 20.165L63.4667 23.0229C62.7702 22.7351 61.9266 22.4376 60.9424 22.1302C59.9548 21.8228 58.8856 21.522 57.728 21.2244C56.5705 20.9269 55.4031 20.6522 54.2226 20.3939C53.0389 20.1388 51.9141 19.9099 50.8415 19.7039C49.769 19.5012 48.8272 19.3311 48.0098 19.1938L49.1575 16.3359V16.3391ZM50.4818 9.01776C51.3843 9.17144 52.4209 9.3611 53.5948 9.58999C54.7687 9.81889 55.9786 10.0805 57.2277 10.3682C58.4768 10.656 59.6671 10.9503 60.7985 11.2478C61.9299 11.5454 62.8847 11.8299 63.6662 12.1013L62.5446 14.9592C61.8122 14.6715 60.8998 14.3739 59.8011 14.0665C58.7057 13.7592 57.5351 13.4583 56.2958 13.1608C55.0532 12.8632 53.8302 12.5918 52.6236 12.3433C51.417 12.098 50.3445 11.9051 49.4093 11.771L50.4818 9.01776ZM51.6296 2.18359C52.3097 2.26861 53.1141 2.39287 54.0395 2.5531C54.9649 2.71659 55.9524 2.89644 56.9988 3.10245C58.0452 3.30518 59.0916 3.52754 60.1347 3.76624C61.1811 4.00495 62.1588 4.24692 63.0678 4.49217C63.9768 4.73741 64.7551 4.97285 65.4025 5.19193L64.2286 8.0237C63.6335 7.80461 62.8945 7.56917 62.0084 7.32393C61.1255 7.07868 60.1706 6.83017 59.1504 6.58492C58.1302 6.33968 57.1002 6.10424 56.0636 5.88516C55.027 5.66607 54.033 5.46334 53.0782 5.28676C52.1233 5.11018 51.2928 4.97612 50.5799 4.8911L51.6263 2.18686L51.6296 2.18359Z" fill="white"/>
<path d="M80.8107 2.10827C80.5393 2.51701 80.2646 2.95845 79.9932 3.43586C79.7218 3.91327 79.5158 4.27624 79.3817 4.53129C78.8193 5.53516 78.1293 6.58481 77.302 7.68024C76.478 8.77567 75.533 9.84493 74.4703 10.8815C73.4076 11.9181 72.2467 12.8631 70.9878 13.7133L68.4373 11.8265C69.5425 11.1464 70.5235 10.4368 71.3835 9.69779C72.2402 8.95878 72.989 8.21978 73.6266 7.4775C74.2643 6.7385 74.8136 6.02892 75.2714 5.34878C75.7292 4.66863 76.1118 4.04734 76.4192 3.48818C76.5892 3.21678 76.7789 2.83747 76.9914 2.35352C77.2039 1.86957 77.3609 1.42159 77.4623 1.01611L80.8041 2.11154L80.8107 2.10827ZM89.2013 6.08451C89.064 6.30687 88.9234 6.56846 88.7795 6.87583C88.6356 7.18321 88.5114 7.48731 88.41 7.79469C88.1877 8.55985 87.8737 9.43292 87.465 10.4106C87.0563 11.3883 86.5592 12.3922 85.9739 13.419C85.3886 14.449 84.7117 15.43 83.9465 16.3652C82.7399 17.8268 81.3273 19.1512 79.712 20.3316C78.0966 21.5153 76.0889 22.5715 73.692 23.5067L71.014 21.1099C72.698 20.5997 74.1694 20.0144 75.4251 19.3506C76.684 18.6868 77.7827 17.974 78.7277 17.2088C79.6727 16.4437 80.5164 15.6262 81.2652 14.7596C81.8767 14.0631 82.4391 13.2816 82.9492 12.4118C83.4593 11.5453 83.8975 10.6788 84.2637 9.80897C84.63 8.94243 84.8785 8.17727 85.0158 7.51347H76.1641L77.2366 4.93676H84.7608C85.1532 4.93676 85.5292 4.9106 85.8954 4.86156C86.2617 4.81251 86.5723 4.73403 86.8274 4.63266L89.1981 6.08778L89.2013 6.08451Z" fill="white"/>
<path d="M96.7254 2.51362C96.7091 2.80138 96.6862 3.09894 96.66 3.40631C96.6339 3.71369 96.6208 4.05376 96.6208 4.42653V13.0232C96.6208 13.3469 96.6339 13.7131 96.66 14.1186C96.6862 14.5241 96.7058 14.874 96.7254 15.165H93.3835C93.4162 14.9459 93.4489 14.6255 93.4718 14.2102C93.498 13.7949 93.5111 13.3894 93.5111 12.997V4.42653C93.5111 4.20745 93.5013 3.90334 93.4849 3.52076C93.4686 3.13818 93.4424 2.80138 93.4097 2.51362H96.7254ZM108.533 2.31089C108.517 2.65096 108.5 3.02373 108.481 3.43247C108.461 3.84122 108.455 4.28266 108.455 4.76007V9.55379C108.455 10.9664 108.389 12.1861 108.265 13.2128C108.137 14.2429 107.954 15.1388 107.716 15.904C107.477 16.6692 107.176 17.346 106.81 17.9314C106.444 18.5167 106.022 19.0758 105.548 19.6023C105.002 20.2301 104.371 20.7893 103.648 21.2732C102.925 21.7572 102.193 22.1659 101.454 22.4962C100.715 22.8265 100.028 23.0946 99.4002 23.3006L97.0295 20.7762C98.2688 20.4884 99.4068 20.083 100.434 19.5631C101.464 19.0431 102.366 18.3597 103.151 17.5095C103.592 17.0158 103.955 16.5155 104.236 16.0054C104.518 15.4953 104.73 14.9263 104.874 14.2952C105.018 13.6674 105.116 12.9513 105.168 12.1534C105.221 11.3555 105.244 10.4269 105.244 9.37394V4.7568C105.244 4.27939 105.231 3.83795 105.204 3.4292C105.178 3.02046 105.139 2.64769 105.09 2.30762H108.533V2.31089Z" fill="white"/>
<path d="M112.513 17.3857C112.99 17.402 113.49 17.4314 114.017 17.474C114.543 17.5165 115.053 17.5361 115.547 17.5361H130.367C130.792 17.5361 131.236 17.5197 131.704 17.4838C132.172 17.4511 132.616 17.4151 133.045 17.3824V20.878C132.62 20.8256 132.158 20.7897 131.668 20.7635C131.174 20.7373 130.743 20.7243 130.367 20.7243H115.547C115.053 20.7243 114.54 20.7373 114.004 20.7635C113.468 20.7897 112.97 20.8289 112.513 20.878V17.3824V17.3857ZM114.654 4.86182C115.096 4.91414 115.577 4.94683 116.097 4.96318C116.613 4.97953 117.087 4.98934 117.512 4.98934H128.172C128.683 4.98934 129.18 4.97626 129.663 4.9501C130.147 4.92395 130.569 4.89452 130.926 4.86182V8.15137C130.569 8.13502 130.131 8.11867 129.611 8.09905C129.091 8.0827 128.611 8.07289 128.169 8.07289H117.532C117.055 8.07289 116.564 8.0827 116.054 8.09905C115.544 8.1154 115.076 8.13175 114.651 8.15137V4.86182H114.654Z" fill="white"/>
<path d="M138.528 8.27862C138.682 8.60234 138.865 9.01435 139.077 9.51465C139.29 10.015 139.512 10.5512 139.741 11.1202C139.97 11.6892 140.189 12.2385 140.392 12.765C140.595 13.2914 140.758 13.7329 140.876 14.0926L138.096 15.1128C137.995 14.7891 137.845 14.3509 137.648 13.7983C137.452 13.2456 137.236 12.6734 136.998 12.0783C136.759 11.4832 136.533 10.9338 136.321 10.4335C136.108 9.9332 135.925 9.54408 135.771 9.27268L138.525 8.27862H138.528ZM153.805 8.68736C153.687 9.06013 153.583 9.38058 153.498 9.64218C153.413 9.90704 153.334 10.1556 153.269 10.3943C152.929 11.7022 152.478 13.0102 151.918 14.3084C151.356 15.6098 150.633 16.8295 149.75 17.9674C148.56 19.4814 147.216 20.76 145.722 21.8063C144.224 22.8527 142.736 23.6571 141.258 24.2163L138.862 21.7671C139.813 21.4957 140.804 21.1098 141.834 20.6063C142.864 20.106 143.851 19.4978 144.806 18.7816C145.761 18.0655 146.582 17.2775 147.282 16.4109C147.877 15.6785 148.403 14.8414 148.864 13.8996C149.322 12.9546 149.705 11.9475 150.012 10.8782C150.319 9.80568 150.522 8.73641 150.624 7.66387L153.812 8.68409L153.805 8.68736ZM144.447 6.95429C144.564 7.2257 144.721 7.61482 144.917 8.11512C145.114 8.61542 145.316 9.15169 145.529 9.72066C145.742 10.2896 145.938 10.8259 146.114 11.3262C146.294 11.8298 146.425 12.2222 146.51 12.5132L143.78 13.4811C143.711 13.1737 143.593 12.7715 143.423 12.2679C143.253 11.7676 143.067 11.2379 142.861 10.6853C142.658 10.1327 142.452 9.59967 142.249 9.08956C142.046 8.57945 141.876 8.16417 141.739 7.84045L144.443 6.94775L144.447 6.95429Z" fill="white"/>
<path d="M168.216 2.10827C167.945 2.51701 167.67 2.95845 167.398 3.43586C167.127 3.91327 166.921 4.27624 166.787 4.53129C166.225 5.53516 165.535 6.58481 164.707 7.68024C163.883 8.77567 162.938 9.84493 161.876 10.8815C160.813 11.9181 159.652 12.8631 158.393 13.7133L155.843 11.8265C156.948 11.1464 157.929 10.4368 158.789 9.69779C159.645 8.95878 160.394 8.21978 161.032 7.4775C161.67 6.7385 162.219 6.02892 162.677 5.34878C163.134 4.66863 163.517 4.04734 163.824 3.48818C163.994 3.21678 164.184 2.83747 164.397 2.35352C164.609 1.86957 164.766 1.42159 164.868 1.01611L168.209 2.11154L168.216 2.10827ZM176.61 6.08451C176.473 6.30687 176.332 6.56846 176.188 6.87583C176.044 7.18321 175.92 7.48731 175.819 7.79469C175.596 8.55985 175.282 9.43292 174.874 10.4106C174.465 11.3883 173.968 12.3922 173.382 13.419C172.797 14.449 172.12 15.43 171.355 16.3652C170.149 17.8268 168.736 19.1512 167.121 20.3316C165.505 21.5153 163.497 22.5715 161.101 23.5067L158.423 21.1099C160.107 20.5997 161.578 20.0144 162.834 19.3506C164.093 18.6868 165.191 17.974 166.136 17.2088C167.081 16.4437 167.925 15.6262 168.674 14.7596C169.285 14.0631 169.848 13.2816 170.358 12.4118C170.868 11.5453 171.306 10.6788 171.672 9.80897C172.039 8.94243 172.287 8.17727 172.424 7.51347H163.573L164.645 4.93676H172.169C172.562 4.93676 172.938 4.9106 173.304 4.86156C173.67 4.81251 173.981 4.73403 174.236 4.63266L176.607 6.08778L176.61 6.08451Z" fill="white"/>
</g>
<defs>
<clipPath id="clip0_4026_64">
<rect width="176.22" height="23.4389" fill="white" transform="translate(0.389893 0.780762)"/>
</clipPath>
</defs>
</svg>
