<svg width="25" height="24" viewBox="0 0 25 24" fill="none" xmlns="http://www.w3.org/2000/svg">
<mask id="mask0_2385_25118" style="mask-type:luminance" maskUnits="userSpaceOnUse" x="0" y="0" width="25" height="24">
<path d="M24.4657 0H0.136963V24H24.4657V0Z" fill="white"/>
</mask>
<g mask="url(#mask0_2385_25118)">
<path d="M24.2296 9.64934H23.2494V9.59934H12.3014V14.3993H19.1763C18.656 15.8562 17.6748 17.1096 16.3775 17.9746C15.0802 18.8397 13.5355 19.2706 11.9711 19.2039C10.4068 19.1371 8.90552 18.5762 7.6888 17.6039C6.47208 16.6316 5.60429 15.2993 5.21338 13.8036C4.82246 12.3078 4.92913 10.7277 5.51765 9.29624C6.10616 7.86481 7.14538 6.65782 8.48204 5.85325C9.81871 5.04868 11.3821 4.68913 12.9416 4.8276C14.5012 4.96607 15.9743 5.59525 17.1439 6.62234L20.5844 3.22834C18.5382 1.35325 15.8998 0.23065 13.113 0.0494152C10.3262 -0.131819 7.56126 0.639378 5.28326 2.23325C3.00526 3.82712 1.3533 6.14638 0.605324 8.80079C-0.142652 11.4552 0.0590125 14.2828 1.17638 16.8077C2.29376 19.3327 4.25864 21.4009 6.74043 22.6644C9.22221 23.9279 12.0694 24.3096 14.803 23.7452C17.5366 23.1808 19.9897 21.7048 21.7495 19.5656C23.5094 17.4263 24.4686 14.7544 24.4658 11.9993C24.4651 11.2103 24.386 10.4232 24.2296 9.64934Z" fill="#FFC107"/>
<path d="M1.54028 6.4158L5.5373 9.3068C5.97315 8.23634 6.66387 7.28515 7.55106 6.53364C8.43825 5.78213 9.49583 5.2524 10.6344 4.98924C11.7729 4.72609 12.959 4.73723 14.0922 5.02174C15.2255 5.30625 16.2726 5.85575 17.1452 6.6238L20.5857 3.2298C19.2202 1.96983 17.5781 1.03801 15.7876 0.507015C13.997 -0.0239806 12.1063 -0.139808 10.2629 0.168566C8.4195 0.476939 6.67321 1.20118 5.1602 2.28481C3.64719 3.36845 2.40835 4.78219 1.54028 6.4158Z" fill="#FF3D00"/>
<path d="M12.3011 24.0016C15.3179 24.0018 18.2262 22.891 20.4563 20.8866L16.6914 17.7436C15.78 18.4249 14.7187 18.8847 13.5935 19.0859C12.4683 19.2871 11.3109 19.2239 10.2151 18.9016C9.11923 18.5792 8.1158 18.0067 7.28608 17.2305C6.45636 16.4542 5.8237 15.496 5.43935 14.4336L1.47681 17.4486C2.49363 19.4199 4.04335 21.0753 5.95456 22.2319C7.86578 23.3884 10.064 24.0009 12.3061 24.0016" fill="#4CAF50"/>
<path d="M24.2292 9.65156H23.249V9.60156H12.301V14.4016H19.1759C18.6963 15.7315 17.8322 16.8937 16.6903 17.7446L20.4552 20.8876C21.7354 19.7807 22.757 18.413 23.4493 16.8789C24.1416 15.3448 24.4883 13.6807 24.4654 12.0016C24.4647 11.2125 24.3855 10.4254 24.2292 9.65156Z" fill="#1976D2"/>
</g>
</svg>
