<svg width="480" height="272" viewBox="0 0 480 272" fill="none" xmlns="http://www.w3.org/2000/svg">
<mask id="mask0_2385_25449" style="mask-type:luminance" maskUnits="userSpaceOnUse" x="12" y="0" width="483" height="272">
<path d="M494.165 0.560547H12.0948V271.439H494.165V0.560547Z" fill="white"/>
</mask>
<g mask="url(#mask0_2385_25449)">
<mask id="mask1_2385_25449" style="mask-type:luminance" maskUnits="userSpaceOnUse" x="12" y="0" width="483" height="272">
<path d="M494.165 0.560547H12.0948V271.439H494.165V0.560547Z" fill="white"/>
</mask>
<g mask="url(#mask1_2385_25449)">
<g style="mix-blend-mode:multiply">
<mask id="mask2_2385_25449" style="mask-type:luminance" maskUnits="userSpaceOnUse" x="287" y="20" width="14" height="40">
<path d="M300.998 20.084H287.71V59.519H300.998V20.084Z" fill="white"/>
</mask>
<g mask="url(#mask2_2385_25449)">
<path d="M300.998 20.084H287.71V59.519H300.998V20.084Z" fill="#14AEFF"/>
</g>
</g>
<g style="mix-blend-mode:multiply">
<mask id="mask3_2385_25449" style="mask-type:luminance" maskUnits="userSpaceOnUse" x="103" y="57" width="35" height="34">
<path d="M137.094 57.1182H103.678V90.5342H137.094V57.1182Z" fill="white"/>
</mask>
<g mask="url(#mask3_2385_25449)">
<path d="M137.093 73.8252C137.093 77.1297 136.113 80.36 134.277 83.1077C132.441 85.8553 129.832 87.9968 126.779 89.2614C123.726 90.526 120.366 90.8568 117.125 90.2122C113.884 89.5675 110.907 87.9762 108.571 85.6395C106.234 83.3029 104.643 80.3258 103.998 77.0848C103.353 73.8437 103.684 70.4843 104.949 67.4313C106.213 64.3783 108.355 61.7689 111.102 59.933C113.85 58.0971 117.08 57.1172 120.385 57.1172C122.579 57.1172 124.752 57.5494 126.779 58.389C128.806 59.2287 130.648 60.4594 132.199 62.0108C133.751 63.5623 134.981 65.4042 135.821 67.4313C136.661 69.4584 137.093 71.6311 137.093 73.8252Z" fill="#14AEFF"/>
</g>
</g>
<path d="M261.915 147.725C262.418 148.395 263.071 148.937 263.822 149.309C264.573 149.68 265.401 149.87 266.239 149.864H324.307C324.787 149.875 325.264 149.79 325.71 149.614C326.157 149.438 326.564 149.175 326.907 148.839C327.25 148.504 327.523 148.103 327.709 147.661C327.895 147.219 327.991 146.743 327.991 146.264C327.991 140.128 324.273 138.894 319.367 140.384C318.316 140.69 317.199 140.683 316.151 140.366C315.103 140.048 314.171 139.433 313.467 138.595L311.906 136.765C299.845 120.015 285.587 129.618 280.361 136.196C279.983 136.65 279.461 136.962 278.883 137.081C278.304 137.2 277.702 137.119 277.175 136.852C271.047 133.41 266.253 136.052 263.603 138.398C263.603 138.398 258.452 143.001 261.915 147.725Z" stroke="#272727" stroke-miterlimit="10" stroke-linecap="round"/>
<path d="M24.2548 266.659H51.2168C63.3778 266.659 75.1848 261.134 82.0118 251.07C92.2718 235.948 83.2118 223.139 63.4738 220.861C37.1598 217.824 40.1958 201.125 46.7738 187.209C53.3518 173.293 51.0738 166.209 31.0858 164.437C11.0978 162.665 4.51882 145.207 25.0138 139.894C45.5088 134.581 47.7858 75.8791 76.3778 69.0481C104.97 62.2171 121.231 76.4041 121.231 76.4041" stroke="#272727" stroke-miterlimit="10" stroke-linecap="round"/>
<path d="M163.997 173.465C159.055 183.426 150.256 192.175 136.597 196.824C102.62 208.388 86.4819 215.308 86.2369 238.58C85.9919 261.852 129.923 271.029 129.923 271.029" stroke="#272727" stroke-miterlimit="10" stroke-linecap="round"/>
<path d="M175.354 70.6937C154.634 66.2237 135.366 67.4077 125.083 73.8547C99.1088 90.1417 107.803 109.324 109.901 111.809C109.901 111.809 118.378 125.725 145.701 120.917C148.88 120.321 152.165 120.749 155.085 122.141" stroke="#272727" stroke-miterlimit="10" stroke-linecap="round"/>
<path d="M115.228 116.788C115.228 116.788 109.896 138.156 96.8739 139.895C85.0569 141.472 84.3539 150.783 87.5119 155.582C92.7039 163.474 112.055 157.606 106.995 177.595C101.935 197.584 123.808 200.766 123.808 200.766" stroke="#272727" stroke-miterlimit="10" stroke-linecap="round"/>
<path d="M45.1868 190.836C45.1868 190.836 60.4628 200.085 70.5338 187.672" stroke="#272727" stroke-miterlimit="10" stroke-linecap="round"/>
<path d="M160.256 190.836C160.256 190.836 175.532 200.085 185.603 187.672" stroke="#272727" stroke-miterlimit="10" stroke-linecap="round"/>
<path d="M107.712 175.691C107.712 175.691 122.988 184.94 133.059 172.527" stroke="#272727" stroke-miterlimit="10" stroke-linecap="round"/>
<path d="M38.2839 227.128V256.932" stroke="#272727" stroke-miterlimit="10" stroke-linecap="round"/>
<path d="M23.3818 242.03H53.1858" stroke="#272727" stroke-miterlimit="10" stroke-linecap="round"/>
<path d="M48.8209 231.493L27.7458 252.568" stroke="#272727" stroke-miterlimit="10" stroke-linecap="round"/>
<path d="M27.7468 231.493L48.8218 252.568" stroke="#272727" stroke-miterlimit="10" stroke-linecap="round"/>
<path d="M370.313 271.029V203.662C370.313 202.156 369.912 200.678 369.151 199.378C368.39 198.079 367.297 197.006 365.984 196.269L350.23 187.428C349.042 186.761 347.71 186.392 346.348 186.355C344.986 186.317 343.636 186.611 342.413 187.212L321.797 197.325C320.956 197.737 320.248 198.376 319.753 199.17C319.258 199.965 318.996 200.882 318.997 201.818V209.286" stroke="#272727" stroke-miterlimit="10" stroke-linecap="round"/>
<path d="M370.313 234.143L393.729 222.656C394.952 222.056 396.303 221.762 397.664 221.8C399.026 221.838 400.359 222.206 401.547 222.872L417.301 231.714C418.614 232.451 419.707 233.524 420.467 234.823C421.228 236.122 421.629 237.601 421.629 239.106V262.261C421.629 263.412 421.856 264.552 422.297 265.615C422.737 266.679 423.383 267.645 424.198 268.459C425.012 269.272 425.978 269.918 427.042 270.358C428.106 270.798 429.246 271.024 430.397 271.023L476.497 270.994" stroke="#272727" stroke-miterlimit="10"/>
<path d="M382.535 228.147V181.077C382.535 179.976 382.751 178.886 383.173 177.869C383.594 176.852 384.212 175.927 384.99 175.149C385.769 174.37 386.693 173.753 387.71 173.331C388.728 172.91 389.818 172.693 390.919 172.693H424.354C425.199 172.693 426.036 172.86 426.816 173.183C427.597 173.506 428.306 173.98 428.904 174.578C429.501 175.175 429.975 175.884 430.298 176.665C430.622 177.446 430.788 178.282 430.788 179.127V194.749" stroke="#272727" stroke-miterlimit="10" stroke-linecap="round"/>
<path d="M349.188 209.229H345.26C344.201 209.229 343.185 209.65 342.436 210.399C341.688 211.148 341.267 212.163 341.267 213.222V225.697" stroke="#272727" stroke-miterlimit="10" stroke-linecap="round"/>
<path d="M334.657 209.229H330.729C329.67 209.229 328.654 209.65 327.905 210.399C327.157 211.148 326.736 212.163 326.736 213.222V225.697" stroke="#272727" stroke-miterlimit="10" stroke-linecap="round"/>
<path d="M363.74 209.229H359.812C358.753 209.229 357.737 209.65 356.988 210.399C356.24 211.148 355.819 212.163 355.819 213.222V225.697" stroke="#272727" stroke-miterlimit="10" stroke-linecap="round"/>
<path d="M400.576 189.082H396.648C395.589 189.082 394.573 189.503 393.824 190.252C393.076 191 392.655 192.016 392.655 193.075V205.55" stroke="#272727" stroke-miterlimit="10" stroke-linecap="round"/>
<path d="M415.128 189.082H411.2C410.141 189.082 409.125 189.503 408.376 190.252C407.628 191 407.207 192.016 407.207 193.075V205.55" stroke="#272727" stroke-miterlimit="10" stroke-linecap="round"/>
<path d="M388.551 254.561H384.62C383.561 254.561 382.545 254.981 381.796 255.73C381.048 256.479 380.627 257.495 380.627 258.554V271.029" stroke="#272727" stroke-miterlimit="10" stroke-linecap="round"/>
<path d="M402.084 254.561H398.155C397.096 254.561 396.08 254.981 395.331 255.73C394.583 256.479 394.162 257.495 394.162 258.554V271.029" stroke="#272727" stroke-miterlimit="10" stroke-linecap="round"/>
<path d="M163.759 15.2942L156.804 17.1512C140.631 21.4338 123.542 20.7367 107.772 15.1512C90.2462 8.93907 71.1419 8.79398 53.5239 14.7392L37.0729 20.3622" stroke="#272727" stroke-miterlimit="10" stroke-linecap="round"/>
<path d="M163.814 26.3131L156.86 28.1691C140.687 32.4517 123.598 31.7546 107.828 26.1691C90.3022 19.9565 71.1977 19.8114 53.5798 25.7571L37.1298 31.3811" stroke="#272727" stroke-miterlimit="10" stroke-linecap="round"/>
<path d="M163.87 37.3322L156.915 39.1893C140.742 43.4718 123.653 42.7748 107.883 37.1893C90.3572 30.9772 71.2528 30.8321 53.6349 36.7772L37.1859 42.3973" stroke="#272727" stroke-miterlimit="10" stroke-linecap="round"/>
<path d="M469.93 142.169C451.946 137.355 423.845 136.634 387.043 156.583C322.243 191.711 176.778 196.214 174.197 83.7012" stroke="#272727" stroke-miterlimit="10" stroke-linecap="round"/>
<path d="M298.964 99.572C299.958 101.862 301.611 103.806 303.712 105.155C305.813 106.504 308.267 107.199 310.764 107.151H433.682C434.705 107.175 435.722 106.994 436.674 106.619C437.626 106.244 438.493 105.682 439.225 104.967C439.956 104.253 440.538 103.399 440.935 102.456C441.332 101.513 441.537 100.5 441.537 99.477C441.537 86.5 433.737 83.808 423.405 86.864C421.132 87.5504 418.709 87.5623 416.429 86.898C414.15 86.2337 412.112 84.922 410.564 83.122L407.235 79.222C381.378 43.31 350.78 64.222 339.795 78.245C339.087 79.186 338.064 79.8407 336.914 80.0893C335.763 80.3379 334.561 80.1639 333.528 79.599C320.301 71.971 309.955 77.666 304.254 82.699C304.254 82.702 295.37 90.643 298.964 99.572Z" stroke="#272727" stroke-miterlimit="10" stroke-linecap="round"/>
<path d="M277.173 215.797C277.308 205.426 273.502 195.39 266.522 187.718C266.267 187.44 265.955 187.22 265.609 187.071C265.262 186.922 264.888 186.848 264.511 186.854C264.134 186.86 263.763 186.945 263.421 187.105C263.079 187.265 262.775 187.495 262.529 187.781C258.975 191.941 251.712 202.117 251.712 215.797C251.712 215.797 251.184 227.03 262.978 229.133C263.39 229.209 263.763 229.428 264.03 229.75C264.298 230.073 264.444 230.479 264.443 230.899V250.775" stroke="#272727" stroke-miterlimit="10" stroke-linecap="round"/>
<path d="M289.909 242.03V230.9C289.91 230.48 289.764 230.074 289.496 229.751C289.229 229.428 288.856 229.21 288.444 229.134C276.644 227.034 277.176 215.798 277.176 215.798C277.176 202.117 284.44 191.942 287.995 187.782C288.241 187.496 288.545 187.266 288.887 187.106C289.228 186.946 289.6 186.861 289.977 186.855C290.354 186.849 290.728 186.923 291.074 187.072C291.421 187.221 291.732 187.441 291.987 187.719C298.967 195.39 302.775 205.426 302.641 215.798C302.641 215.798 303.196 226.033 293.741 229.067" stroke="#272727" stroke-miterlimit="10" stroke-linecap="round"/>
<path d="M258.795 270.903H336.995C337.646 270.919 338.293 270.804 338.899 270.566C339.505 270.327 340.057 269.97 340.523 269.515C340.989 269.06 341.359 268.517 341.612 267.917C341.865 267.317 341.995 266.672 341.995 266.021C341.995 257.721 336.981 256.034 330.352 258.029C328.92 258.452 327.395 258.449 325.965 258.021C324.534 257.593 323.259 256.758 322.294 255.618L320.176 253.137C303.723 230.285 284.252 243.596 277.267 252.52C276.776 253.107 276.097 253.506 275.345 253.648C274.593 253.79 273.815 253.666 273.145 253.297C270.127 251.444 266.559 250.695 263.051 251.177C258.789 251.841 255.893 255.142 253.207 258.515C248.266 264.72 246.275 267.237 243.346 268.85C231.731 275.25 217.093 265.55 205.318 260.037C160.61 239.096 143.401 249.473 147.218 258.57C151.035 267.667 165.435 266.661 165.435 266.661C177.596 266.661 189.403 261.136 196.23 251.072C206.49 235.95 197.43 223.141 177.692 220.863C151.378 217.826 154.414 201.127 160.992 187.211C167.57 173.295 165.292 166.211 145.305 164.439C125.318 162.667 118.738 145.209 139.232 139.896C154.693 135.888 160.565 103.927 174.201 83.7031C174.201 83.7031 172.934 39.8431 225.728 32.4161C225.728 32.4161 304.037 21.0631 333.534 79.6001" stroke="#272727" stroke-miterlimit="10" stroke-linecap="round"/>
<path d="M439.741 30.5762C439.741 34.1196 438.69 37.5835 436.721 40.5298C434.753 43.476 431.955 45.7724 428.681 47.1284C425.407 48.4844 421.805 48.8392 418.33 48.1479C414.854 47.4566 411.662 45.7503 409.156 43.2447C406.651 40.7391 404.944 37.5468 404.253 34.0714C403.562 30.596 403.917 26.9937 405.273 23.72C406.629 20.4463 408.925 17.6482 411.871 15.6795C414.818 13.7109 418.281 12.6602 421.825 12.6602C426.576 12.6604 431.133 14.5481 434.493 17.9079C437.853 21.2678 439.741 25.8246 439.741 30.5762Z" stroke="#272727" stroke-miterlimit="10" stroke-linecap="round"/>
<path d="M421.825 0.969727V7.91773" stroke="#272727" stroke-miterlimit="10" stroke-linecap="round"/>
<path d="M421.825 53.2324V60.1804" stroke="#272727" stroke-miterlimit="10" stroke-linecap="round"/>
<path d="M421.825 0.969727V7.91773" stroke="#272727" stroke-miterlimit="10" stroke-linecap="round"/>
<path d="M421.825 53.2324V60.1804" stroke="#272727" stroke-miterlimit="10" stroke-linecap="round"/>
<path d="M400.891 9.6416L405.804 14.5546" stroke="#272727" stroke-miterlimit="10" stroke-linecap="round"/>
<path d="M437.846 46.5967L442.759 51.5097" stroke="#272727" stroke-miterlimit="10" stroke-linecap="round"/>
<path d="M392.22 30.5762H399.168" stroke="#272727" stroke-miterlimit="10" stroke-linecap="round"/>
<path d="M444.482 30.5762H451.43" stroke="#272727" stroke-miterlimit="10" stroke-linecap="round"/>
<path d="M400.891 51.5097L405.804 46.5967" stroke="#272727" stroke-miterlimit="10" stroke-linecap="round"/>
<path d="M437.846 14.5546L442.759 9.6416" stroke="#272727" stroke-miterlimit="10" stroke-linecap="round"/>
<path d="M171.3 126.842C171.3 127.243 171.181 127.634 170.959 127.967C170.736 128.3 170.42 128.559 170.05 128.712C169.681 128.865 169.274 128.906 168.881 128.827C168.488 128.749 168.128 128.557 167.845 128.274C167.562 127.99 167.369 127.63 167.291 127.237C167.213 126.845 167.253 126.438 167.406 126.068C167.559 125.698 167.819 125.382 168.151 125.159C168.484 124.937 168.876 124.818 169.276 124.818C169.542 124.818 169.805 124.87 170.051 124.972C170.296 125.074 170.519 125.223 170.707 125.411C170.895 125.599 171.044 125.822 171.146 126.068C171.248 126.313 171.3 126.577 171.3 126.842Z" fill="#272727"/>
<path d="M122.409 130.89C122.409 131.291 122.29 131.682 122.068 132.015C121.845 132.348 121.529 132.607 121.159 132.76C120.79 132.913 120.383 132.953 119.99 132.875C119.597 132.797 119.237 132.604 118.954 132.321C118.671 132.038 118.478 131.678 118.4 131.285C118.322 130.892 118.362 130.485 118.515 130.116C118.668 129.746 118.928 129.43 119.26 129.207C119.593 128.985 119.985 128.866 120.385 128.866C120.651 128.866 120.914 128.918 121.16 129.02C121.405 129.122 121.628 129.271 121.816 129.459C122.004 129.647 122.153 129.87 122.255 130.115C122.357 130.361 122.409 130.624 122.409 130.89Z" fill="#272727"/>
<path d="M55.1668 126.842C55.1668 127.243 55.0481 127.634 54.8257 127.967C54.6033 128.3 54.2872 128.559 53.9174 128.712C53.5475 128.865 53.1406 128.906 52.748 128.827C52.3554 128.749 51.9947 128.557 51.7117 128.274C51.4286 127.99 51.2358 127.63 51.1577 127.237C51.0796 126.845 51.1197 126.438 51.2729 126.068C51.4261 125.698 51.6855 125.382 52.0184 125.159C52.3512 124.937 52.7425 124.818 53.1428 124.818C53.4087 124.818 53.6719 124.87 53.9175 124.972C54.1632 125.074 54.3863 125.223 54.5743 125.411C54.7623 125.599 54.9114 125.822 55.013 126.068C55.1147 126.313 55.167 126.577 55.1668 126.842Z" fill="#272727"/>
</g>
</g>
</svg>
