<svg width="18" height="19" viewBox="0 0 18 19" fill="none" xmlns="http://www.w3.org/2000/svg">
<path d="M8.95996 10.6836C10.052 10.6836 11.1337 10.8986 12.1426 11.3164C13.1514 11.7343 14.0686 12.347 14.8408 13.1191C15.6129 13.8913 16.2256 14.8086 16.6436 15.8174C17.0614 16.8262 17.2773 17.908 17.2773 19H15.7773C15.7773 18.105 15.6003 17.2185 15.2578 16.3916C14.9153 15.5647 14.4131 14.8126 13.7803 14.1797C13.1474 13.5469 12.3961 13.0447 11.5693 12.7021C10.7423 12.3596 9.85514 12.1836 8.95996 12.1836C8.06491 12.1836 7.17849 12.3596 6.35156 12.7021C5.52457 13.0447 4.7726 13.5467 4.13965 14.1797C3.50675 14.8126 3.00465 15.5646 2.66211 16.3916C2.31968 17.2184 2.14359 18.1051 2.14355 19H0.643555C0.643594 17.908 0.858537 16.8262 1.27637 15.8174C1.69429 14.8085 2.30694 13.8913 3.0791 13.1191C3.85131 12.3469 4.76841 11.7344 5.77734 11.3164C6.78628 10.8985 7.8679 10.6836 8.95996 10.6836ZM8.96094 0.734375C10.2326 0.734375 11.4523 1.23959 12.3516 2.13867C13.2507 3.03786 13.7568 4.25771 13.7568 5.5293C13.7567 6.47746 13.475 7.40496 12.9482 8.19336C12.4213 8.98174 11.672 9.59708 10.7959 9.95996C9.91987 10.3227 8.95533 10.4174 8.02539 10.2324C7.09546 10.0474 6.2408 9.59035 5.57031 8.91992C4.89997 8.24945 4.44287 7.39471 4.25781 6.46484C4.07291 5.53493 4.16851 4.57032 4.53125 3.69434C4.89409 2.81851 5.50874 2.0698 6.29688 1.54297C7.08532 1.01615 8.01269 0.734468 8.96094 0.734375ZM8.96094 2.23438C8.3094 2.23447 7.67261 2.42808 7.13086 2.79004C6.58914 3.1521 6.16635 3.66658 5.91699 4.26855C5.66774 4.87056 5.60238 5.5338 5.72949 6.17285C5.85672 6.8116 6.17038 7.39877 6.63086 7.85938C7.09167 8.32012 7.67924 8.63458 8.31836 8.76172C8.95746 8.88884 9.62061 8.82352 10.2227 8.57422C10.8245 8.32486 11.3391 7.90198 11.7012 7.36035C12.0632 6.81859 12.2567 6.18086 12.2568 5.5293C12.2568 4.65554 11.9088 3.81711 11.291 3.19922C10.6731 2.58144 9.83474 2.23438 8.96094 2.23438Z" fill="#1A1818"/>
</svg>
