<svg width="449" height="286" viewBox="0 0 449 286" fill="none" xmlns="http://www.w3.org/2000/svg">
<path d="M104.744 132.16C77.3422 132.16 42.9818 152.912 20.5196 168.949C12.4072 174.75 16.6256 187.247 26.703 187.247H142.349C159.385 187.247 173.194 200.672 173.194 217.235C173.194 233.798 159.385 247.223 142.349 247.223H24.3955C15.8865 247.223 9 253.919 9 262.191C9 270.464 15.8865 277.159 24.3955 277.159H234.776H313.25C340.309 277.159 362.231 255.829 362.231 229.539V25.5973C362.231 23.3188 360.338 21.4785 357.994 21.4785H342.401H280.224L273.734 28.1036C273.103 28.7521 272.814 29.5408 272.814 30.312C272.814 31.9771 274.148 33.5545 276.131 33.5545C277.087 33.5545 277.988 33.1514 278.619 32.4678L284.532 25.9829L361.347 26.4386" stroke="#14AEFF" stroke-width="1.5" stroke-miterlimit="10" stroke-linecap="round"/>
<path d="M113.74 9C99.4079 9 87.6179 19.9367 86.9329 33.853L85.4727 63.8062L85.7791 64.2269C115.146 54.482 147.019 54.482 176.403 64.2269L176.71 63.8062L175.25 33.853C174.565 19.9367 162.775 9 148.443 9H113.758H113.74Z" stroke="#14AEFF" stroke-width="1.5" stroke-linecap="round" stroke-linejoin="round"/>
<path d="M85.4531 63.8066L91.7627 83.2088" stroke="#14AEFF" stroke-width="1.5" stroke-linecap="round" stroke-linejoin="round"/>
<path d="M176.382 64.2266L168.18 82.6297" stroke="#14AEFF" stroke-width="1.5" stroke-linecap="round" stroke-linejoin="round"/>
<path d="M86.8269 68.4512C81.1843 68.8893 78.1016 73.5865 78.1016 79.3353V81.6664C78.1016 87.6956 83.8523 93.2691 90.0538 93.2691L97.3369 119.682" stroke="#14AEFF" stroke-width="1.5" stroke-linecap="round" stroke-linejoin="round"/>
<path d="M175.268 68.4512C180.91 68.8893 183.993 73.5865 183.993 79.3353V81.6664C183.993 87.6956 178.242 93.2691 172.041 93.2691L164.758 119.682" stroke="#14AEFF" stroke-width="1.5" stroke-linecap="round" stroke-linejoin="round"/>
<path d="M165.047 123.626H164.921C135.122 129.357 126.703 128.936 97.1919 122.451C98.9766 87.9235 91.7656 83.2088 91.7656 83.2088L93.965 82.6304C117.833 76.4084 143.847 76.3734 167.752 82.5253L168.184 82.6304C168.184 82.6304 159.441 89.7989 165.047 123.626Z" stroke="#14AEFF" stroke-width="1.5" stroke-linecap="round" stroke-linejoin="round"/>
<path d="M104.742 124.08V155.716" stroke="#14AEFF" stroke-width="1.5" stroke-linecap="round" stroke-linejoin="round"/>
<path d="M157.762 126.324V158.398" stroke="#14AEFF" stroke-width="1.5" stroke-linecap="round" stroke-linejoin="round"/>
<path d="M157.762 135.158C157.762 135.158 189.31 138.734 207.175 154.368" stroke="#14AEFF" stroke-width="1.5" stroke-linecap="round" stroke-linejoin="round"/>
<path d="M249.288 205.16C249.288 205.16 253.164 232.555 234.434 239.092" stroke="#14AEFF" stroke-width="1.5" stroke-miterlimit="10"/>
<path d="M302.234 205.16C302.234 205.16 298.359 232.555 317.089 239.092" stroke="#14AEFF" stroke-width="1.5" stroke-miterlimit="10"/>
<path d="M327.907 142.518L331.279 111.251C332.991 95.4064 323.977 80.3158 308.978 73.8835C288.157 64.9624 264.397 65.1552 243.737 74.4268L242.655 74.9176C227.981 81.4901 219.256 96.4054 220.932 112.022L224.267 142.886C224.393 143.973 223.023 144.604 222.23 143.833L216.083 137.856C212.658 134.526 206.817 136.84 206.745 141.537C206.654 146.497 206.727 151.667 207.195 154.366C208.295 160.553 223.15 160.694 223.15 160.694C223.15 189.21 246.928 212.31 276.241 212.31C305.553 212.31 329.35 189.21 329.35 160.694C329.35 160.694 344.186 160.553 345.304 154.366C345.791 151.65 345.845 146.479 345.755 141.519C345.682 136.822 339.842 134.509 336.416 137.839L329.566 143.377C328.881 143.938 327.835 143.395 327.925 142.518H327.907Z" stroke="#14AEFF" stroke-width="1.5" stroke-miterlimit="10" stroke-linecap="round"/>
<path d="M229.709 139.82L242.977 113.512C245.177 109.148 244.474 103.943 241.751 100.805L228.844 86.3633" stroke="#14AEFF" stroke-width="1.5" stroke-miterlimit="10" stroke-linecap="round"/>
<path d="M322.154 140.082L308.885 113.774C306.686 109.41 307.389 104.205 310.67 100.542L323.578 86.0996" stroke="#14AEFF" stroke-width="1.5" stroke-miterlimit="10" stroke-linecap="round"/>
<path d="M249.414 107.045C249.414 107.045 276.095 116.352 302.379 107.045" stroke="#14AEFF" stroke-width="1.5" stroke-miterlimit="10" stroke-linecap="round" stroke-dasharray="1 3"/>
<path d="M361.365 31.61L285.523 31.1543L282.477 34.87C281.846 35.5535 280.944 35.9566 279.989 35.9566C277.988 35.9566 277.285 35.1153 276.672 33.5204" stroke="#14AEFF" stroke-width="1.5" stroke-miterlimit="10" stroke-linecap="round"/>
<path d="M277.016 34.1328V56.3568" stroke="#14AEFF" stroke-width="1.5" stroke-miterlimit="10" stroke-linecap="round"/>
<path d="M226.234 230.959L275.864 276.914L325.422 231.923" stroke="#14AEFF" stroke-width="1.5" stroke-miterlimit="10" stroke-linecap="round"/>
<path d="M246.296 226.963C246.296 226.963 184.588 233.868 140.078 277.16" stroke="#14AEFF" stroke-width="1.5" stroke-miterlimit="10" stroke-linecap="round"/>
<path d="M357.672 249.66C346.747 241.563 336.093 236.252 327.457 232.817C315.073 227.104 304.797 225.771 304.797 225.771" stroke="#14AEFF" stroke-width="1.5" stroke-miterlimit="10" stroke-linecap="round"/>
<path d="M176.388 139.066L129.985 187.248L87.7109 134.422" stroke="#14AEFF" stroke-width="1.5" stroke-linecap="round" stroke-linejoin="round"/>
</svg>
