<svg width="537" height="366" viewBox="0 0 537 366" fill="none" xmlns="http://www.w3.org/2000/svg">
<path d="M171.447 286.166C40.1583 276.198 86.1939 127.325 54.4533 108.825C43.2618 102.295 32.9167 111.393 32.9167 111.393L28.5906 115.746C28.5906 115.746 16.2235 130.59 16.0824 152.834C15.9413 175.078 29.7661 199.454 4.37363 222.177C-1.7864 227.705 1.74034 237.456 10.2045 238.675C10.3926 238.675 10.5807 238.762 10.8158 238.849C13.9664 240.155 16.2235 242.767 17.4931 245.77C18.7627 248.774 19.4681 252.648 16.5526 254.911C11.8973 259.003 13.214 261.789 16.5526 264.445L18.3395 266.099C20.1734 267.796 20.5966 270.452 19.327 272.585C18.2455 274.456 18.3865 276.764 19.7502 278.461L23.2299 282.814C24.2174 284.251 23.9353 286.035 23.1829 287.69C18.5746 297.571 28.1674 313.329 39.641 314.983C43.591 315.549 48.3873 315.853 54.2652 315.288C86.288 312.284 85.6296 331.611 85.6296 331.611V364.868" stroke="#14AEFF" stroke-linecap="round" stroke-linejoin="round"/>
<path d="M17.7754 139.253C17.7754 139.253 38.4186 104.298 53.2309 153.879C53.2309 153.879 55.2058 173.032 71.5229 176.166" stroke="#14AEFF" stroke-linecap="round" stroke-linejoin="round" stroke-dasharray="1 2"/>
<path d="M44.625 92.6753C44.625 92.6753 79.5162 72.5645 110.881 106.518C142.245 140.471 155.318 291.651 265.681 292.87" stroke="#14AEFF" stroke-linecap="round" stroke-linejoin="round"/>
<path d="M76.6016 71.9551C76.6016 71.9551 211.84 14.9743 259.851 144.694C307.861 274.413 392.127 257.175 412.723 239.937" stroke="#14AEFF" stroke-linecap="round" stroke-linejoin="round"/>
<path d="M155.176 91.1517C155.176 91.1517 222.607 334.876 369.601 292.826" stroke="#14AEFF" stroke-linecap="round" stroke-linejoin="round"/>
<path d="M337.412 199.957C340.831 199.989 343.63 197.761 343.699 194.961L344.044 174.468C344.044 155.788 334.095 139.909 329.466 123.044L329.397 122.885C323.87 102.71 323.145 81.8666 327.221 61.5326C327.808 58.7004 325.148 56.0911 321.625 56.0911C318.861 56.0911 316.478 57.714 316.029 59.9415C311.607 80.7847 312.229 102.169 317.894 122.853V123.012C322.557 139.877 332.541 155.788 332.541 174.436L331.366 194.611C331.194 197.475 333.957 199.893 337.481 199.925L337.412 199.957Z" stroke="#14AEFF" stroke-linecap="round" stroke-linejoin="round"/>
<path d="M372.751 199.957C376.171 199.989 378.969 197.761 379.039 194.961L379.384 174.468C379.384 155.788 369.435 139.909 364.806 123.044L364.737 122.885C359.21 102.71 358.485 81.8666 362.561 61.5326C363.148 58.7004 360.488 56.0911 356.965 56.0911C354.201 56.0911 351.817 57.714 351.368 59.9415C346.947 80.7847 347.568 102.169 353.234 122.853V123.012C357.897 139.877 367.881 155.788 367.881 174.436L366.706 194.611C366.533 197.475 369.297 199.893 372.821 199.925L372.751 199.957Z" stroke="#14AEFF" stroke-linecap="round" stroke-linejoin="round"/>
<path d="M409.861 199.957C413.281 199.989 416.079 197.761 416.148 194.961L416.493 174.468C416.493 155.788 406.545 139.909 401.916 123.044L401.846 122.885C396.319 102.71 395.594 81.8666 399.67 61.5326C400.257 58.7004 397.597 56.0911 394.074 56.0911C391.31 56.0911 388.927 57.714 388.478 59.9415C384.056 80.7847 384.678 102.169 390.343 122.853V123.012C395.007 139.877 404.99 155.788 404.99 174.436L403.816 194.611C403.643 197.475 406.406 199.893 409.93 199.925L409.861 199.957Z" stroke="#14AEFF" stroke-linecap="round" stroke-linejoin="round"/>
<path d="M276.014 179.554H318.276C319.924 179.554 321.435 180.231 322.533 181.264C323.632 182.296 324.353 183.779 324.353 185.36V194.649C324.353 200.744 329.606 205.679 336.094 205.679H336.884C343.373 205.679 348.625 200.744 348.625 194.649V185.682C348.625 182.521 351.338 179.973 354.702 179.973H354.599C357.964 179.973 360.676 182.521 360.676 185.682V194.358C360.676 200.454 365.963 205.421 372.452 205.421C375.713 205.421 378.631 204.195 380.76 202.196C382.889 200.196 384.193 197.422 384.193 194.358V185.585C384.193 182.328 387.043 179.49 390.476 179.522C392.124 179.522 393.634 180.199 394.733 181.231C395.832 182.263 396.553 183.747 396.553 185.327V194.616C396.553 200.712 401.805 205.647 408.294 205.647H409.084C415.573 205.647 420.825 200.712 420.825 194.616V185.65C420.825 182.489 423.537 179.941 426.902 179.941H462.435" stroke="#14AEFF" stroke-linecap="round" stroke-linejoin="round"/>
</svg>
