<svg width="375" height="420" viewBox="0 0 375 420" fill="none" xmlns="http://www.w3.org/2000/svg">
<g clip-path="url(#clip0_460_16563)">
<path d="M240.898 211.31C240.898 211.31 255.62 231.038 283.256 211.31" stroke="#1A1818" stroke-miterlimit="10" stroke-linecap="round"/>
<path d="M162.734 211.31C162.734 211.31 177.456 231.038 205.092 211.31" stroke="#1A1818" stroke-miterlimit="10" stroke-linecap="round"/>
<path d="M-38.8924 185.918L-7.93472 154.96C-7.64062 154.666 -7.29145 154.433 -6.90716 154.274C-6.52286 154.115 -6.11096 154.033 -5.695 154.033C-5.27903 154.033 -4.86713 154.115 -4.48283 154.274C-4.09854 154.433 -3.74937 154.666 -3.45527 154.96L27.5024 185.918C27.9452 186.361 28.2467 186.926 28.3687 187.54C28.4908 188.155 28.4279 188.792 28.1881 189.37C27.9483 189.949 27.5423 190.444 27.0214 190.792C26.5006 191.14 25.8882 191.326 25.2617 191.326H-36.6536C-37.2801 191.326 -37.8924 191.14 -38.4132 190.792C-38.9339 190.443 -39.3398 189.949 -39.5794 189.37C-39.819 188.791 -39.8817 188.154 -39.7594 187.54C-39.6371 186.925 -39.3354 186.361 -38.8924 185.918Z" stroke="#1A1818" stroke-miterlimit="10"/>
<path d="M131.742 140.78C131.742 92.8018 175.486 53.908 223.464 53.908C271.442 53.908 315.186 92.803 315.186 140.78L310.336 247.296C310.336 295.275 256.353 334.168 223.464 334.168C190.576 334.168 136.592 295.275 136.592 247.295L131.742 140.78Z" stroke="#1A1818" stroke-miterlimit="10"/>
<path d="M134.531 121.542C138.783 125.339 143.375 128.738 148.249 131.696C159.563 138.623 173.239 144.104 188.646 147.685C200.71 150.505 213.029 152.096 225.414 152.433" stroke="#1A1818" stroke-miterlimit="10" stroke-dasharray="2 2"/>
<path d="M122.609 326.93H110.261C109.198 326.93 108.146 326.721 107.165 326.315C106.183 325.908 105.291 325.312 104.54 324.561C103.789 323.81 103.193 322.918 102.786 321.936C102.38 320.955 102.171 319.903 102.171 318.84V306.491C102.152 304.358 101.291 302.318 99.776 300.816C98.2607 299.314 96.2134 298.471 94.0798 298.471C91.9462 298.471 89.8989 299.314 88.3836 300.816C86.8683 302.318 86.0076 304.358 85.9888 306.491V318.838C85.9889 319.9 85.7797 320.952 85.3732 321.934C84.9667 322.915 84.3707 323.807 83.6195 324.559C82.8682 325.31 81.9764 325.906 80.9948 326.312C80.0133 326.719 78.9612 326.928 77.8988 326.928H65.5514C63.4179 326.947 61.3781 327.807 59.876 329.323C58.374 330.838 57.5313 332.885 57.5312 335.019C57.5313 337.152 58.374 339.2 59.876 340.715C61.3781 342.23 63.4179 343.091 65.5514 343.11H77.8982C78.9606 343.11 80.0126 343.319 80.9942 343.725C81.9758 344.132 82.8676 344.728 83.6189 345.479C84.3701 346.23 84.966 347.122 85.3726 348.104C85.7791 349.085 85.9883 350.137 85.9882 351.2V363.547C86.007 365.68 86.8677 367.72 88.383 369.222C89.8983 370.724 91.9455 371.567 94.0792 371.567C96.2128 371.567 98.26 370.724 99.7754 369.222C101.291 367.72 102.151 365.68 102.17 363.547V351.203C102.17 350.141 102.379 349.089 102.786 348.107C103.192 347.125 103.788 346.234 104.539 345.482C105.291 344.731 106.183 344.135 107.164 343.729C108.146 343.322 109.198 343.113 110.26 343.113H122.609C124.742 343.094 126.782 342.234 128.284 340.718C129.786 339.203 130.629 337.156 130.629 335.022C130.629 332.888 129.786 330.841 128.284 329.326C126.782 327.81 124.742 326.95 122.609 326.931L122.609 326.93Z" stroke="#1A1818" stroke-miterlimit="10"/>
<path d="M310.338 242.027H318.083C329.288 242.027 339.038 233.582 339.823 222.405C340.033 219.507 339.643 216.597 338.678 213.856C337.713 211.116 336.194 208.604 334.215 206.476C332.236 204.349 329.84 202.652 327.176 201.492C324.512 200.332 321.638 199.733 318.732 199.732L314.17 199.717C312.906 199.712 311.656 199.454 310.494 198.958C309.331 198.463 308.279 197.741 307.4 196.833C306.52 195.926 305.831 194.852 305.372 193.674C304.914 192.497 304.695 191.239 304.729 189.976C305.115 173.831 303.579 154.285 274.095 160.802C253.344 165.389 232.862 163.94 227.633 163.46" stroke="#1A1818" stroke-miterlimit="10" stroke-linecap="round"/>
<path d="M135.164 242.027H127.42C116.215 242.027 106.465 233.582 105.68 222.405C105.471 219.507 105.861 216.598 106.826 213.857C107.791 211.117 109.31 208.605 111.289 206.478C113.268 204.351 115.664 202.655 118.328 201.494C120.991 200.334 123.865 199.736 126.77 199.736L134.424 199.721" stroke="#1A1818" stroke-miterlimit="10" stroke-linecap="round"/>
<path d="M226.625 7.80801V432" stroke="#1A1818" stroke-dasharray="2 2"/>
<path d="M90.4694 102.366V69.8729C90.4693 68.9745 90.2923 68.0849 89.9484 67.2549C89.6045 66.4249 89.1005 65.6708 88.4651 65.0356C87.8298 64.4004 87.0755 63.8966 86.2455 63.553C85.4154 63.2093 84.5258 63.0325 83.6273 63.0327H54.4487C53.6826 63.0326 52.924 63.1834 52.2162 63.4765C51.5084 63.7696 50.8652 64.1992 50.3234 64.7409C49.7817 65.2825 49.3519 65.9256 49.0586 66.6333C48.7654 67.3411 48.6144 68.0997 48.6143 68.8658V75.0704C48.6145 75.8366 48.4637 76.5953 48.1707 77.3031C47.8776 78.011 47.448 78.6542 46.9063 79.1961C46.3647 79.7379 45.7216 80.1678 45.0138 80.461C44.306 80.7543 43.5474 80.9053 42.7812 80.9054H22.4251C21.2577 80.8859 20.1259 81.3073 19.2554 82.0854C18.3849 82.8635 17.8397 83.9411 17.7286 85.1034C17.6878 85.7194 17.774 86.3372 17.982 86.9185C18.19 87.4998 18.5153 88.0321 18.9377 88.4823C19.36 88.9326 19.8705 89.2913 20.4373 89.536C21.004 89.7807 21.6151 89.9063 22.2325 89.905H78.6312C81.8185 90.068 84.8221 91.4463 87.0242 93.7562C89.2263 96.0662 90.4595 99.1323 90.47 102.324V209.653C90.4699 210.662 90.2164 211.656 89.733 212.542C89.2495 213.428 88.5515 214.179 87.7027 214.726C86.854 215.272 85.8817 215.597 84.8749 215.671C83.8681 215.744 82.8589 215.564 81.9397 215.147C79.4135 214 77.2712 212.149 75.7689 209.817C74.2665 207.484 73.4677 204.768 73.468 201.994V166.725C73.4677 165.711 73.6671 164.707 74.0549 163.77C74.4426 162.834 75.0111 161.983 75.7279 161.266C76.4447 160.549 77.2956 159.98 78.2322 159.592C79.1688 159.204 80.1727 159.004 81.1865 159.005C81.5414 159.005 81.8929 158.935 82.2205 158.798C82.548 158.661 82.845 158.461 83.0942 158.208C83.3434 157.955 83.5398 157.655 83.6719 157.326C83.804 156.996 83.8693 156.644 83.8638 156.289L83.2383 113.671C85.3987 112.675 87.2283 111.08 88.5104 109.076C89.7926 107.072 90.4735 104.742 90.4726 102.363" stroke="#1A1818" stroke-miterlimit="10" stroke-linecap="round"/>
<path d="M82.9062 90.9058V63.0289" stroke="#1A1818" stroke-miterlimit="10" stroke-linecap="round"/>
<path d="M83.223 113.675C81.5091 114.48 79.6313 114.875 77.7383 114.829H-45.0246C-47.7455 114.829 -50.4397 115.364 -52.9535 116.406C-55.4672 117.447 -57.7513 118.973 -59.6753 120.897C-61.5992 122.821 -63.1254 125.105 -64.1666 127.619C-65.2078 130.132 -65.7436 132.827 -65.7435 135.548C-65.7435 135.548 -65.143 233.266 -65.143 234.533C-65.143 235.866 -85.0312 270.27 -85.0312 270.27" stroke="#1A1818" stroke-miterlimit="10"/>
<path d="M90.4434 113.78C95.2263 113.779 99.8133 111.879 103.195 108.497C106.577 105.115 108.477 100.528 108.478 95.7455V68.1494C108.477 63.3668 106.577 58.7802 103.195 55.3986C99.8128 52.0169 95.2261 50.1172 90.4434 50.1172H-153.634C-155.811 50.1768 -157.976 49.7838 -159.993 48.9631C-163.02 47.6313 -165.594 45.4489 -167.404 42.6813C-169.213 39.9137 -170.18 36.6801 -170.186 33.3735C-170.192 33.2111 -170.179 33.0484 -170.145 32.8894C-170.089 30.6547 -169.592 28.453 -168.683 26.4109C-167.774 24.3687 -166.47 22.5263 -164.847 20.9893C-163.224 19.4524 -161.313 18.2512 -159.225 17.4548C-157.136 16.6583 -154.91 16.2823 -152.676 16.3484L-5.74304 14.6951C-3.20678 14.6653 -0.689796 15.1389 1.66223 16.0883C4.01425 17.0378 6.15459 18.4444 7.95937 20.2266C9.76415 22.0088 11.1975 24.1313 12.1765 26.4712C13.1555 28.811 13.6608 31.3219 13.6629 33.8583L13.2325 50.1178" stroke="#1A1818" stroke-miterlimit="10" stroke-linecap="round"/>
<path d="M-85.0312 385.224H-66.0601C-65.005 385.224 -63.9931 385.643 -63.247 386.388C-62.5008 387.134 -62.0814 388.146 -62.081 389.201V394.886C-62.081 398.987 -59.036 402.638 -54.945 402.931C-53.889 403.009 -52.8282 402.868 -51.8292 402.517C-50.8302 402.166 -49.9144 401.613 -49.1392 400.892C-48.364 400.17 -47.7462 399.297 -47.3244 398.325C-46.9025 397.354 -46.6859 396.306 -46.6879 395.247V389.214C-46.7109 388.17 -46.3453 387.154 -45.6619 386.364C-44.9785 385.573 -44.026 385.065 -42.9891 384.937C-42.4296 384.888 -41.8659 384.956 -41.3339 385.136C-40.802 385.317 -40.3134 385.606 -39.8992 385.985C-39.4849 386.365 -39.1542 386.826 -38.9279 387.34C-38.7016 387.854 -38.5847 388.41 -38.5847 388.971V395.453C-38.5847 397.493 -37.7741 399.45 -36.3312 400.893C-34.8883 402.336 -32.9312 403.147 -30.8907 403.147H-30.3771C-28.3365 403.147 -26.3795 402.336 -24.9366 400.893C-23.4937 399.45 -22.683 397.493 -22.683 395.453V389.202C-22.683 388.147 -22.264 387.135 -21.5181 386.389C-20.7723 385.643 -19.7607 385.224 -18.7059 385.224H-8.07681C-7.32268 385.225 -6.57593 385.076 -5.87919 384.787C-5.18246 384.499 -4.54939 384.076 -4.01614 383.543C-3.4829 383.009 -3.05993 382.376 -2.77138 381.68C-2.48282 380.983 -2.33433 380.236 -2.33441 379.482V290.93C-2.3345 289.83 -2.11766 288.742 -1.69632 287.727C-1.27498 286.711 -0.657431 285.789 0.120954 285.013C0.899339 284.236 1.82327 283.621 2.83976 283.203C3.85625 282.784 4.94531 282.571 6.04459 282.574L58.6858 282.706C59.8422 282.707 60.9762 282.387 61.9623 281.783C62.9484 281.179 63.7482 280.314 64.2733 279.283C64.7983 278.253 65.028 277.097 64.9371 275.944C64.8462 274.792 64.4382 273.686 63.7582 272.751L37.1105 236.08C30.9177 227.557 17.4337 231.937 17.4337 242.475V333.969C17.491 353.788 25.4044 372.776 39.4391 386.771C53.4738 400.765 72.4847 408.623 92.3042 408.623C112.124 408.623 131.134 400.765 145.169 386.771C159.204 372.776 167.117 353.788 167.175 333.969V307.845" stroke="#1A1818" stroke-miterlimit="10"/>
<path d="M317.952 398.064C298.642 389.922 281.444 362.909 280.131 324.559C280.131 324.559 279.13 313.424 283.246 304.958" stroke="#1A1818" stroke-linecap="round" stroke-linejoin="round"/>
<mask id="mask0_460_16563" style="mask-type:luminance" maskUnits="userSpaceOnUse" x="264" y="332" width="52" height="52">
<path d="M315.269 332.671H264.016V383.925H315.269V332.671Z" fill="white"/>
</mask>
<g mask="url(#mask0_460_16563)">
<g style="mix-blend-mode:multiply">
<path d="M315.269 358.299C315.269 363.367 313.766 368.321 310.95 372.536C308.135 376.75 304.132 380.034 299.45 381.974C294.767 383.914 289.615 384.421 284.644 383.433C279.673 382.444 275.107 380.003 271.522 376.42C267.938 372.836 265.498 368.27 264.508 363.299C263.519 358.328 264.026 353.176 265.966 348.493C267.905 343.81 271.189 339.808 275.403 336.991C279.617 334.175 284.571 332.672 289.639 332.671C296.436 332.671 302.955 335.371 307.761 340.177C312.567 344.983 315.267 351.502 315.267 358.299" fill="#48BFF4"/>
</g>
</g>
</g>
<defs>
<clipPath id="clip0_460_16563">
<rect width="375" height="420" fill="white"/>
</clipPath>
</defs>
</svg>
