<svg width="279" height="227" viewBox="0 0 279 227" fill="none" xmlns="http://www.w3.org/2000/svg">
<mask id="mask0_460_11742" style="mask-type:luminance" maskUnits="userSpaceOnUse" x="0" y="0" width="279" height="227">
<path d="M278.793 0H0V226.376H278.793V0Z" fill="white"/>
</mask>
<g mask="url(#mask0_460_11742)">
<path d="M31.366 217.2C33.3796 217.223 35.3203 216.447 36.7617 215.041C38.2032 213.634 39.0276 211.714 39.054 209.7L39.454 178.979C39.454 150.996 27.241 127.161 21.569 101.879L21.503 101.629C14.7276 71.4266 13.8175 40.2038 18.822 9.658C19.136 7.83596 18.7134 5.9638 17.647 4.45339C16.5807 2.94297 14.958 1.91801 13.136 1.604C11.314 1.28998 9.44182 1.71263 7.9314 2.77896C6.42098 3.84529 5.39603 5.46796 5.08201 7.29C-0.362049 38.5806 0.419535 70.6378 7.38201 101.626L7.43301 101.876C13.118 127.163 25.318 150.998 25.318 178.976L23.872 209.233C23.8226 210.253 23.9792 211.272 24.3323 212.23C24.6854 213.187 25.2279 214.064 25.9273 214.808C26.6267 215.551 27.4688 216.146 28.4032 216.557C29.3376 216.968 30.3453 217.187 31.366 217.2Z" stroke="#14AEFF" stroke-linecap="round" stroke-linejoin="round"/>
<path d="M76.993 217.2C79.0066 217.223 80.9472 216.447 82.3887 215.041C83.8302 213.634 84.6546 211.714 84.681 209.7L85.081 178.979C85.081 150.996 72.868 127.161 67.196 101.879L67.13 101.629C60.3546 71.4266 59.4444 40.2038 64.449 9.658C64.763 7.83596 64.3403 5.9638 63.274 4.45339C62.2077 2.94297 60.585 1.91801 58.763 1.604C56.9409 1.28998 55.0688 1.71263 53.5584 2.77896C52.0479 3.84529 51.023 5.46796 50.709 7.29C45.2649 38.5806 46.0465 70.6378 53.009 101.626L53.06 101.876C58.745 127.163 70.945 150.998 70.945 178.976L69.499 209.233C69.4496 210.253 69.6061 211.272 69.9592 212.23C70.3124 213.187 70.8548 214.064 71.5542 214.808C72.2537 215.551 73.0957 216.146 74.0301 216.557C74.9646 216.968 75.9722 217.187 76.993 217.2Z" stroke="#14AEFF" stroke-linecap="round" stroke-linejoin="round"/>
<path d="M120.501 217.2C122.515 217.223 124.455 216.447 125.897 215.041C127.338 213.634 128.163 211.714 128.189 209.7L128.589 178.979C128.589 150.996 116.376 127.161 110.704 101.879L110.638 101.629C103.861 71.4269 102.95 40.204 107.953 9.658C108.267 7.83596 107.844 5.9638 106.778 4.45339C105.712 2.94297 104.089 1.91801 102.267 1.604C100.445 1.28998 98.5727 1.71263 97.0623 2.77896C95.5518 3.84529 94.5269 5.46796 94.2129 7.29C88.7688 38.5806 89.5504 70.6378 96.5129 101.626L96.5639 101.876C102.253 127.163 114.453 150.998 114.453 178.981L113.003 209.238C112.954 210.258 113.111 211.276 113.465 212.234C113.819 213.191 114.362 214.068 115.061 214.811C115.761 215.554 116.603 216.149 117.538 216.559C118.473 216.969 119.48 217.187 120.501 217.2Z" stroke="#14AEFF" stroke-linecap="round" stroke-linejoin="round"/>
<path d="M166.13 217.2C168.143 217.223 170.084 216.447 171.525 215.041C172.967 213.634 173.791 211.714 173.818 209.7L174.218 178.979C174.218 150.996 162.005 127.161 156.333 101.879L156.267 101.629C149.491 71.4266 148.581 40.2038 153.586 9.658C153.9 7.83596 153.477 5.9638 152.411 4.45339C151.344 2.94297 149.722 1.91801 147.9 1.604C146.078 1.28998 144.205 1.71263 142.695 2.77896C141.185 3.84529 140.16 5.46796 139.846 7.29C134.402 38.5806 135.183 70.6378 142.146 101.626L142.197 101.876C147.882 127.163 160.082 150.998 160.082 178.976L158.635 209.238C158.586 210.257 158.743 211.276 159.097 212.233C159.45 213.191 159.993 214.067 160.692 214.81C161.392 215.553 162.234 216.147 163.168 216.558C164.102 216.969 165.109 217.187 166.13 217.2Z" stroke="#14AEFF" stroke-linecap="round" stroke-linejoin="round"/>
<path d="M209.636 217.2C211.649 217.223 213.59 216.447 215.031 215.041C216.473 213.634 217.297 211.714 217.324 209.7L217.724 178.979C217.724 150.996 205.511 127.161 199.839 101.879L199.773 101.629C192.997 71.4266 192.087 40.2038 197.092 9.658C197.406 7.83596 196.983 5.9638 195.917 4.45339C194.85 2.94297 193.228 1.91801 191.406 1.604C189.584 1.28998 187.711 1.71263 186.201 2.77896C184.691 3.84529 183.666 5.46796 183.352 7.29C177.907 38.5806 178.689 70.6378 185.652 101.626L185.703 101.876C191.388 127.163 203.588 150.998 203.588 178.976L202.142 209.233C202.092 210.253 202.249 211.272 202.602 212.23C202.955 213.187 203.497 214.064 204.197 214.808C204.896 215.551 205.738 216.146 206.673 216.557C207.607 216.968 208.615 217.187 209.636 217.2Z" stroke="#14AEFF" stroke-linecap="round" stroke-linejoin="round"/>
<path d="M255.263 217.2C257.277 217.224 259.218 216.447 260.659 215.041C262.101 213.635 262.925 211.714 262.951 209.7L263.351 178.979C263.351 150.996 251.138 127.161 245.466 101.879L245.4 101.629C238.625 71.4267 237.715 40.2039 242.719 9.6581C243.018 7.84304 242.587 5.98365 241.52 4.48512C240.453 2.98659 238.837 1.97039 237.025 1.65796C235.212 1.34553 233.349 1.76221 231.843 2.81718C230.336 3.87215 229.307 5.47991 228.98 7.2901C223.536 38.5807 224.318 70.6379 231.28 101.626L231.331 101.876C237.016 127.163 249.216 150.998 249.216 178.976L247.77 209.233C247.721 210.253 247.878 211.272 248.231 212.229C248.584 213.187 249.126 214.064 249.825 214.808C250.525 215.551 251.367 216.146 252.301 216.557C253.235 216.968 254.243 217.187 255.263 217.2Z" stroke="#14AEFF" stroke-linecap="round" stroke-linejoin="round"/>
<path d="M277.288 191.097C275.299 191.097 273.391 191.887 271.984 193.294C270.578 194.7 269.788 196.608 269.788 198.597V210.371C269.788 214.217 268.26 217.905 265.541 220.624C262.821 223.344 259.133 224.871 255.288 224.871H254.331C250.485 224.871 246.797 223.344 244.078 220.624C241.358 217.905 239.831 214.217 239.831 210.371V198.155C239.831 196.154 239.045 194.233 237.642 192.807C236.239 191.38 234.331 190.563 232.331 190.53C230.25 190.565 228.267 191.419 226.812 192.907C225.358 194.395 224.549 196.396 224.562 198.477V209.988C224.562 211.893 224.186 213.78 223.457 215.54C222.728 217.3 221.66 218.9 220.312 220.247C218.965 221.594 217.366 222.663 215.606 223.392C213.845 224.121 211.959 224.496 210.054 224.496C208.148 224.496 206.262 224.121 204.502 223.392C202.742 222.663 201.142 221.594 199.795 220.247C198.448 218.9 197.379 217.3 196.65 215.54C195.921 213.78 195.546 211.893 195.546 209.988V198.588C195.547 197.603 195.354 196.627 194.978 195.716C194.602 194.806 194.049 193.978 193.352 193.281C192.656 192.585 191.828 192.032 190.918 191.656C190.007 191.28 189.031 191.087 188.046 191.088H188.154C187.168 191.087 186.193 191.281 185.282 191.657C184.372 192.034 183.545 192.586 182.848 193.283C182.152 193.98 181.599 194.807 181.223 195.717C180.846 196.627 180.653 197.603 180.654 198.588V210.371C180.654 214.217 179.126 217.905 176.407 220.624C173.687 223.344 169.999 224.871 166.154 224.871H165.19C161.344 224.871 157.656 223.344 154.937 220.624C152.217 217.905 150.69 214.217 150.69 210.371V198.155C150.689 196.155 149.903 194.234 148.5 192.808C147.097 191.382 145.19 190.564 143.19 190.53C141.109 190.564 139.126 191.418 137.672 192.906C136.217 194.394 135.409 196.396 135.424 198.477V209.988C135.424 213.836 133.895 217.526 131.174 220.247C128.454 222.968 124.763 224.496 120.916 224.496C117.068 224.496 113.378 222.968 110.657 220.247C107.936 217.526 106.408 213.836 106.408 209.988V198.588C106.409 197.603 106.216 196.627 105.839 195.717C105.463 194.806 104.911 193.979 104.214 193.282C103.517 192.585 102.69 192.033 101.779 191.656C100.869 191.28 99.893 191.087 98.9077 191.088H99.0127C97.0235 191.088 95.1159 191.878 93.7094 193.285C92.3028 194.691 91.5127 196.599 91.5127 198.588V210.371C91.5127 214.217 89.985 217.905 87.2657 220.624C84.5464 223.344 80.8583 224.871 77.0127 224.871H76.0487C72.203 224.871 68.5149 223.344 65.7956 220.624C63.0763 217.905 61.5487 214.217 61.5487 210.371V198.155C61.5495 196.154 60.7635 194.233 59.3603 192.807C57.9572 191.38 56.0494 190.563 54.0487 190.53C51.9681 190.565 49.9851 191.419 48.5305 192.907C47.0758 194.395 46.267 196.396 46.2797 198.477V209.988C46.2797 211.893 45.9044 213.78 45.1753 215.54C44.4462 217.3 43.3776 218.9 42.0304 220.247C40.6832 221.594 39.0838 222.663 37.3236 223.392C35.5635 224.121 33.6769 224.496 31.7717 224.496C29.8665 224.496 27.9799 224.121 26.2197 223.392C24.4595 222.663 22.8602 221.594 21.513 220.247C20.1658 218.9 19.0971 217.3 18.368 215.54C17.6389 213.78 17.2637 211.893 17.2637 209.988V198.588C17.2653 197.603 17.0723 196.627 16.696 195.716C16.3196 194.806 15.7673 193.978 15.0705 193.281C14.3737 192.585 13.5463 192.032 12.6357 191.656C11.725 191.28 10.749 191.087 9.76367 191.088" stroke="#14AEFF" stroke-miterlimit="10" stroke-linecap="round"/>
</g>
</svg>
