<svg width="462" height="117" viewBox="0 0 462 117" fill="none" xmlns="http://www.w3.org/2000/svg">
<g style="mix-blend-mode:multiply">
<path d="M131.73 115.628C203.93 115.628 262.46 89.9677 262.46 58.314C262.46 26.6604 203.93 1 131.73 1C59.5298 1 1 26.6604 1 58.314C1 89.9677 59.5298 115.628 131.73 115.628Z" stroke="#14AEFF" stroke-width="1.5" stroke-miterlimit="10"/>
</g>
<g style="mix-blend-mode:multiply">
<path d="M329.73 115.628C401.93 115.628 460.46 89.9677 460.46 58.314C460.46 26.6604 401.93 1 329.73 1C257.53 1 199 26.6604 199 58.314C199 89.9677 257.53 115.628 329.73 115.628Z" stroke="#14AEFF" stroke-width="1.5" stroke-miterlimit="10"/>
</g>
<path d="M88.992 56.944C88.992 53.488 88.752 50.968 87.84 49.816C87.408 49.216 86.736 48.904 85.944 48.904C85.176 48.904 84.504 49.216 84.048 49.816C83.184 50.968 82.92 53.488 82.92 56.944C82.92 60.4 83.184 62.92 84.048 64.096C84.504 64.648 85.176 64.96 85.944 64.96C86.736 64.96 87.408 64.648 87.84 64.096C88.752 62.92 88.992 60.4 88.992 56.944ZM80.328 56.944C80.328 53.008 80.712 50.056 82.104 48.352C82.992 47.248 84.336 46.648 85.944 46.648C87.576 46.648 88.896 47.248 89.808 48.352C91.2 50.056 91.584 53.008 91.584 56.944C91.584 60.88 91.2 63.832 89.808 65.536C88.896 66.64 87.576 67.192 85.944 67.192C84.336 67.192 82.992 66.64 82.104 65.536C80.712 63.832 80.328 60.88 80.328 56.944ZM97.968 46.648V68.416H95.352V46.648H97.968ZM110.111 46.792V49.792C110.111 53.584 112.199 55.504 114.983 56.344V58.672C112.247 58.048 109.967 56.536 108.839 54.712C107.807 56.608 105.503 58.264 102.671 58.936V56.584C105.527 55.72 107.519 53.464 107.519 49.792V46.792H110.111ZM121.055 59.128H118.439V46.648H121.055V59.128ZM118.439 68.776V62.92H104.519V60.64H121.055V68.776H118.439ZM142.559 52.528C141.095 54.976 137.783 56.848 133.271 57.544V55.24C138.071 54.352 141.239 51.928 141.239 47.704V46.792H143.831V47.704C143.831 51.928 147.047 54.328 151.847 55.24V57.544C147.359 56.848 144.023 54.976 142.559 52.528ZM132.911 62.92V60.616H152.231V62.92H143.831V68.776H141.239V62.92H132.911ZM165.574 50.536C164.014 52.36 160.558 53.584 156.43 53.92V51.712C160.702 51.28 164.278 49.792 164.278 47.056V46.792H166.87V47.056C166.87 49.792 170.422 51.256 174.766 51.712V53.92C170.59 53.584 167.134 52.336 165.574 50.536ZM155.806 57.256V55.048H175.414V57.256H166.87V59.128H173.998V64.936H159.838V66.52H174.478V68.632H157.246V62.848H171.382V61.24H157.246V59.128H164.302V57.256H155.806ZM196.461 53.152C196.461 55.24 195.669 56.536 194.085 57.952C192.573 59.32 192.141 60.088 192.141 61.504V62.104H189.501V61.312C189.501 59.368 189.981 58.312 191.901 56.632C193.341 55.384 193.797 54.568 193.797 53.224C193.797 51.28 192.621 50.2 190.941 50.2C189.261 50.2 188.085 51.28 188.085 53.248H185.445V53.152C185.445 50.08 187.437 47.848 190.941 47.848C194.469 47.848 196.461 50.104 196.461 53.152ZM192.165 64.168V66.976H189.453V64.168H192.165Z" fill="#14AEFF"/>
<path d="M278.896 52.504C278.896 50.392 279.568 48.784 280.768 47.752C281.704 46.936 283.024 46.504 284.584 46.504C286.192 46.504 287.464 46.936 288.424 47.752C289.648 48.784 290.296 50.392 290.296 52.504C290.296 54.616 289.648 56.248 288.424 57.28C287.464 58.072 286.192 58.528 284.584 58.528C283.024 58.528 281.704 58.072 280.768 57.28C279.568 56.248 278.896 54.616 278.896 52.504ZM281.44 52.504C281.44 53.872 281.824 54.88 282.496 55.504C283.024 56.008 283.72 56.296 284.584 56.296C285.472 56.296 286.192 56.008 286.696 55.504C287.392 54.88 287.752 53.872 287.752 52.504C287.752 51.184 287.392 50.152 286.696 49.504C286.192 49.024 285.472 48.76 284.584 48.76C283.72 48.76 283.024 49.024 282.496 49.504C281.824 50.152 281.44 51.184 281.44 52.504ZM296.44 49.264H299.488V51.568H296.44V54.208H299.488V56.488H296.44V59.224H293.824V46.648H296.44V49.264ZM280.096 60.64H296.44V68.776H293.824V62.92H280.096V60.64ZM319.935 46.912V53.512H303.183V46.912H319.935ZM305.775 51.4H317.319V49.048H305.775V51.4ZM301.743 57.256V55.048H321.351V57.256H312.807V59.128H319.935V64.936H305.775V66.52H320.415V68.632H303.183V62.848H317.319V61.24H303.183V59.128H310.239V57.256H301.743ZM332.391 51.664V49.408H336.951V46.024H339.591V49.408H344.199V51.664H339.591V55.192C339.591 61 341.871 63.352 344.391 64.552V66.952C341.679 66.016 339.327 63.904 338.271 61.6C337.215 63.904 334.839 66.04 332.151 66.952V64.552C334.623 63.376 336.951 61 336.951 55.192V51.664H332.391ZM350.031 46.648V68.416H347.415V46.648H350.031ZM358.694 55.072V58.624H373.406V60.88H369.974V65.2H374.27V67.456H354.95V65.2H359.39V60.88H356.078V52.816H370.526V49.336H356.078V47.032H373.142V55.072H358.694ZM367.358 60.88H361.982V65.2H367.358V60.88ZM395.461 53.152C395.461 55.24 394.669 56.536 393.085 57.952C391.573 59.32 391.141 60.088 391.141 61.504V62.104H388.501V61.312C388.501 59.368 388.981 58.312 390.901 56.632C392.341 55.384 392.797 54.568 392.797 53.224C392.797 51.28 391.621 50.2 389.941 50.2C388.261 50.2 387.085 51.28 387.085 53.248H384.445V53.152C384.445 50.08 386.437 47.848 389.941 47.848C393.469 47.848 395.461 50.104 395.461 53.152ZM391.165 64.168V66.976H388.453V64.168H391.165Z" fill="#14AEFF"/>
<path d="M231.154 58.3799C231.154 62.0799 229.574 64.2399 226.314 64.2399C223.054 64.2399 221.494 62.0799 221.494 58.3799C221.494 54.6799 223.054 52.5199 226.314 52.5199C229.574 52.5199 231.154 54.6799 231.154 58.3799ZM229.494 58.3799C229.494 55.5999 228.634 53.8999 226.314 53.8999C223.994 53.8999 223.154 55.5999 223.154 58.3799C223.154 61.1799 223.994 62.8599 226.314 62.8599C228.634 62.8599 229.494 61.1799 229.494 58.3799ZM238.219 53.9199C236.319 53.9199 235.039 55.3599 235.039 58.2799V63.9799H233.379V52.7799H235.039V54.7599C235.479 53.3399 236.499 52.5199 238.279 52.5199C238.599 52.5199 238.939 52.5399 239.119 52.5999L239.099 53.9599C238.919 53.9399 238.579 53.9199 238.219 53.9199Z" fill="#14AEFF"/>
</svg>
