<svg width="279" height="258" viewBox="0 0 279 258" fill="none" xmlns="http://www.w3.org/2000/svg">
<rect x="62.5" y="0.5" width="154" height="154" rx="77" stroke="#14AEFF"/>
<path d="M114.283 61.652H106.381V60.05H108.091V56.054H106.579V54.434H115.885V56.054H114.337V58.016C114.337 58.718 114.211 59.546 114.049 60.05H114.787C116.245 60.05 117.271 59.816 117.991 59.294V54.236H119.953V62.12H117.991V60.806C117.325 61.4 116.137 61.652 114.283 61.652ZM109.999 60.05H112.177C112.339 59.51 112.429 58.772 112.429 58.124V56.054H109.999V60.05ZM109.711 67.718V69.14H120.151V70.724H107.749V66.17H117.991V64.712H107.749V63.146H119.953V67.718H109.711ZM130.843 58.646C129.745 60.482 127.261 61.886 123.877 62.408V60.68C127.477 60.014 129.853 58.196 129.853 55.028V54.344H131.797V55.028C131.797 58.196 134.209 59.996 137.809 60.68V62.408C134.443 61.886 131.941 60.482 130.843 58.646ZM123.607 66.44V64.712H138.097V66.44H131.797V70.832H129.853V66.44H123.607ZM141.318 56.126V54.434H149.742V56.126H146.502V56.936C146.502 59.708 148.014 61.022 150.048 61.472V63.2C148.086 62.858 146.412 61.832 145.566 60.446C144.72 61.85 143.01 63.074 141.03 63.416V61.652C143.1 61.22 144.558 59.744 144.558 56.936V56.126H141.318ZM154.512 63.668H152.55V59.474H149.184V57.782H152.55V54.236H154.512V63.668ZM152.55 70.832V66.44H142.11V64.73H154.512V70.832H152.55ZM158.381 58.844C158.381 57.188 158.885 55.91 159.749 55.118C160.487 54.47 161.477 54.128 162.665 54.128C163.871 54.128 164.861 54.47 165.581 55.118C166.463 55.91 166.949 57.188 166.949 58.844C166.949 60.518 166.463 61.796 165.581 62.588C164.861 63.236 163.871 63.578 162.665 63.578C161.477 63.578 160.487 63.236 159.749 62.588C158.885 61.796 158.381 60.518 158.381 58.844ZM160.289 58.844C160.289 59.942 160.559 60.752 161.063 61.274C161.459 61.67 161.999 61.886 162.665 61.886C163.331 61.886 163.871 61.67 164.285 61.274C164.771 60.752 165.041 59.942 165.041 58.844C165.041 57.764 164.771 56.936 164.285 56.432C163.871 56.036 163.331 55.82 162.665 55.82C161.999 55.82 161.459 56.036 161.063 56.432C160.559 56.936 160.289 57.764 160.289 58.844ZM171.791 65.666H169.829V54.236H171.791V65.666ZM172.079 70.634H159.587V65.09H161.549V68.942H172.079V70.634ZM103.744 85.628C103.744 84.044 104.248 82.838 105.148 82.064C105.85 81.452 106.84 81.128 108.01 81.128C109.216 81.128 110.17 81.452 110.89 82.064C111.808 82.838 112.294 84.044 112.294 85.628C112.294 87.212 111.808 88.436 110.89 89.21C110.17 89.804 109.216 90.146 108.01 90.146C106.84 90.146 105.85 89.804 105.148 89.21C104.248 88.436 103.744 87.212 103.744 85.628ZM105.652 85.628C105.652 86.654 105.94 87.41 106.444 87.878C106.84 88.256 107.362 88.472 108.01 88.472C108.676 88.472 109.216 88.256 109.594 87.878C110.116 87.41 110.386 86.654 110.386 85.628C110.386 84.638 110.116 83.864 109.594 83.378C109.216 83.018 108.676 82.82 108.01 82.82C107.362 82.82 106.84 83.018 106.444 83.378C105.94 83.864 105.652 84.638 105.652 85.628ZM116.902 83.198H119.188V84.926H116.902V86.906H119.188V88.616H116.902V90.668H114.94V81.236H116.902V83.198ZM104.644 91.73H116.902V97.832H114.94V93.44H104.644V91.73ZM134.524 81.434V86.384H121.96V81.434H134.524ZM123.904 84.8H132.562V83.036H123.904V84.8ZM120.88 89.192V87.536H135.586V89.192H129.178V90.596H134.524V94.952H123.904V96.14H134.884V97.724H121.96V93.386H132.562V92.18H121.96V90.596H127.252V89.192H120.88ZM143.865 84.998V83.306H147.285V80.768H149.265V83.306H152.721V84.998H149.265V87.644C149.265 92 150.975 93.764 152.865 94.664V96.464C150.831 95.762 149.067 94.178 148.275 92.45C147.483 94.178 145.701 95.78 143.685 96.464V94.664C145.539 93.782 147.285 92 147.285 87.644V84.998H143.865ZM157.095 81.236V97.562H155.133V81.236H157.095ZM163.592 87.554V90.218H174.626V91.91H172.052V95.15H175.274V96.842H160.784V95.15H164.114V91.91H161.63V85.862H172.466V83.252H161.63V81.524H174.428V87.554H163.592ZM170.09 91.91H166.058V95.15H170.09V91.91Z" fill="#14AEFF"/>
<rect x="0.5" y="103.5" width="154" height="154" rx="77" stroke="#14AEFF"/>
<path d="M66.5031 159.036H61.2291C61.6971 160.296 64.2711 161.016 66.6651 161.106V162.708C64.0011 162.582 61.3551 161.79 60.2031 160.638C59.0691 161.826 56.4231 162.582 53.6871 162.708C53.6871 162.186 53.7051 161.646 53.7051 161.106C56.0811 161.016 58.6731 160.314 59.1411 159.036H53.9391V157.434H66.5031V159.036ZM52.8591 165.192V163.536H67.5651V165.192H61.1571V166.596H66.5031V170.952H55.8831V172.14H66.8631V173.724H53.9391V169.386H64.5411V168.18H53.9391V166.596H59.2311V165.192H52.8591ZM77.1044 164.958C77.1044 162.366 76.9244 160.476 76.2404 159.612C75.9164 159.162 75.4124 158.928 74.8184 158.928C74.2424 158.928 73.7384 159.162 73.3964 159.612C72.7484 160.476 72.5504 162.366 72.5504 164.958C72.5504 167.55 72.7484 169.44 73.3964 170.322C73.7384 170.736 74.2424 170.97 74.8184 170.97C75.4124 170.97 75.9164 170.736 76.2404 170.322C76.9244 169.44 77.1044 167.55 77.1044 164.958ZM70.6064 164.958C70.6064 162.006 70.8944 159.792 71.9384 158.514C72.6044 157.686 73.6124 157.236 74.8184 157.236C76.0424 157.236 77.0324 157.686 77.7164 158.514C78.6164 159.612 78.9584 161.394 79.0304 163.734H81.8744V157.236H83.8364V173.562H81.8744V165.426H79.0484C79.0124 168.144 78.7064 170.196 77.7164 171.402C77.0324 172.23 76.0424 172.644 74.8184 172.644C73.6124 172.644 72.6044 172.23 71.9384 171.402C70.8944 170.124 70.6064 167.91 70.6064 164.958ZM101.062 159.108H90.4416V161.952H101.152V163.644H88.4976V157.434H101.062V159.108ZM87.4176 167.316V165.624H102.124V167.316H87.4176ZM90.4416 168.882V171.942H101.35V173.634H88.4976V168.882H90.4416ZM48.9443 188.646C47.8463 190.482 45.3623 191.886 41.9783 192.408V190.68C45.5783 190.014 47.9543 188.196 47.9543 185.028V184.344H49.8983V185.028C49.8983 188.196 52.3103 189.996 55.9103 190.68V192.408C52.5443 191.886 50.0423 190.482 48.9443 188.646ZM41.7083 196.44V194.712H56.1983V196.44H49.8983V200.832H47.9543V196.44H41.7083ZM66.2056 187.152C65.0356 188.52 62.4436 189.438 59.3476 189.69V188.034C62.5516 187.71 65.2336 186.594 65.2336 184.542V184.344H67.1776V184.542C67.1776 186.594 69.8416 187.692 73.0996 188.034V189.69C69.9676 189.438 67.3756 188.502 66.2056 187.152ZM58.8796 192.192V190.536H73.5856V192.192H67.1776V193.596H72.5236V197.952H61.9036V199.14H72.8836V200.724H59.9596V196.386H70.5616V195.18H59.9596V193.596H65.2516V192.192H58.8796ZM89.8391 193.272H81.9371V184.434H89.8391V186H93.1691V184.236H95.1311V195.666H93.1691V191.616H89.8391V193.272ZM89.8391 187.692V189.942H93.1691V187.692H89.8391ZM87.9131 191.616V186.126H83.8451V191.616H87.9131ZM95.4191 200.634H82.9271V195.09H84.8891V198.942H95.4191V200.634ZM99.2164 186.126V184.434H107.64V186.126H104.4V186.936C104.4 189.708 105.912 191.022 107.946 191.472V193.2C105.984 192.858 104.31 191.832 103.464 190.446C102.618 191.85 100.908 193.074 98.9284 193.416V191.652C100.998 191.22 102.456 189.744 102.456 186.936V186.126H99.2164ZM112.41 193.668H110.448V189.474H107.082V187.782H110.448V184.236H112.41V193.668ZM110.448 200.832V196.44H100.008V194.73H112.41V200.832H110.448Z" fill="#14AEFF"/>
<rect x="123.5" y="103.5" width="154" height="154" rx="77" stroke="#14AEFF"/>
<path d="M162.927 172.464H156.627V157.524H164.439V159.252H158.571V170.754H163.017C164.223 170.754 165.357 170.664 166.167 170.376V171.996C165.357 172.32 164.187 172.464 162.927 172.464ZM162.999 165.444V163.752H167.697V157.236H169.659V173.562H167.697V165.444H162.999ZM184.904 159.144H179.018V157.434H186.848V158.604C186.848 163.878 183.896 166.56 178.622 167.154V165.462C182.708 164.922 184.904 162.708 184.904 159.144ZM192.212 168.666H190.25V162.96H187.118V161.25H190.25V157.236H192.212V168.666ZM192.5 173.634H180.008V168.09H181.97V171.942H192.5V173.634ZM201.967 159.126H196.081V157.434H203.929V158.604C203.929 163.734 200.851 165.858 195.703 166.398V164.688C199.717 164.274 201.967 162.474 201.967 159.126ZM209.059 157.236V160.908H211.435V162.618H209.059V166.542H207.097V157.236H209.059ZM196.801 170.466C196.801 169.476 197.269 168.72 198.007 168.162C199.177 167.334 201.013 166.992 203.137 166.992C205.243 166.992 207.097 167.334 208.249 168.162C208.987 168.72 209.455 169.476 209.455 170.466C209.455 171.474 208.987 172.23 208.249 172.788C207.097 173.616 205.243 173.94 203.137 173.94C201.013 173.94 199.177 173.616 198.007 172.788C197.269 172.23 196.801 171.474 196.801 170.466ZM198.763 170.466C198.763 170.916 198.997 171.294 199.429 171.582C200.149 172.068 201.463 172.266 203.137 172.266C204.793 172.266 206.107 172.068 206.863 171.582C207.277 171.294 207.493 170.916 207.493 170.466C207.493 170.016 207.277 169.638 206.863 169.35C206.107 168.882 204.793 168.666 203.137 168.666C201.463 168.666 200.149 168.882 199.429 169.35C198.997 169.638 198.763 170.016 198.763 170.466ZM220.309 160.8H213.235V159.108H215.827V156.768H217.807V159.108H220.309V160.8ZM215.449 167.388C215.449 169.26 215.683 170.358 216.151 170.844C216.331 171.024 216.565 171.132 216.835 171.132C217.087 171.132 217.321 171.042 217.519 170.88C217.987 170.412 218.221 169.296 218.221 167.388C218.221 165.516 218.005 164.4 217.555 163.932C217.357 163.734 217.105 163.644 216.835 163.644C216.529 163.644 216.277 163.752 216.061 164.004C215.665 164.526 215.449 165.588 215.449 167.388ZM213.577 167.388C213.577 164.994 214.027 163.338 215.053 162.546C215.503 162.168 216.097 161.97 216.835 161.97C217.573 161.97 218.167 162.186 218.653 162.582C219.643 163.392 220.111 165.03 220.111 167.388C220.111 169.8 219.643 171.438 218.599 172.23C218.149 172.59 217.555 172.77 216.835 172.77C216.115 172.77 215.539 172.59 215.089 172.248C214.027 171.456 213.577 169.818 213.577 167.388ZM226.987 173.562H225.115V165.444H223.477V173.364H221.659V157.344H223.477V163.734H225.115V157.236H226.987V173.562ZM230.856 159.126V157.434H239.28V159.126H236.04V160.584C236.04 163.374 237.552 164.652 239.586 165.12V166.848C237.624 166.506 235.95 165.48 235.104 164.094C234.258 165.498 232.548 166.74 230.568 167.046V165.318C232.638 164.868 234.096 163.41 234.096 160.584V159.126H230.856ZM244.05 168.666H242.088V157.236H244.05V168.666ZM244.338 173.634H231.846V168.09H233.808V171.942H244.338V173.634ZM178.352 184.524V193.668H172.97V198.15H179.198V199.842H164.708V198.15H171.026V193.668H165.554V184.524H178.352ZM167.516 191.94H176.39V186.252H167.516V191.94ZM184.13 186.63H188.288V184.434H190.178V191.976H182.204V184.434H184.13V186.63ZM188.288 190.392V188.232H184.13V190.392H188.288ZM195.182 184.236V187.494H197.558V189.204H195.182V192.318H193.22V184.236H195.182ZM185.084 197.826V199.14H195.38V200.724H183.14V196.26H193.22V194.91H183.14V193.326H195.182V197.826H185.084ZM209.743 184.344V186.36C209.743 189.186 211.291 190.644 213.379 191.274V193.002C211.327 192.57 209.617 191.418 208.771 190.05C207.997 191.472 206.269 192.696 204.145 193.2V191.472C206.287 190.788 207.799 189.114 207.799 186.36V184.344H209.743ZM217.699 184.236V187.908H220.075V189.618H217.699V193.542H215.737V184.236H217.699ZM205.441 197.466C205.441 196.476 205.909 195.72 206.647 195.162C207.817 194.334 209.653 193.992 211.777 193.992C213.883 193.992 215.737 194.334 216.889 195.162C217.627 195.72 218.095 196.476 218.095 197.466C218.095 198.474 217.627 199.23 216.889 199.788C215.737 200.616 213.883 200.94 211.777 200.94C209.653 200.94 207.817 200.616 206.647 199.788C205.909 199.23 205.441 198.474 205.441 197.466ZM207.403 197.466C207.403 197.916 207.637 198.294 208.069 198.582C208.789 199.068 210.103 199.266 211.777 199.266C213.433 199.266 214.747 199.068 215.503 198.582C215.917 198.294 216.133 197.916 216.133 197.466C216.133 197.016 215.917 196.638 215.503 196.35C214.747 195.882 213.433 195.666 211.777 195.666C210.103 195.666 208.789 195.882 208.069 196.35C207.637 196.638 207.403 197.016 207.403 197.466ZM226.644 199.464H222.234V184.524H228.138V186.252H224.142V191.058H227.904V192.768H224.142V197.772H227.022C228.354 197.772 229.398 197.502 230.01 196.98V184.344H231.882V190.734H233.718V184.236H235.626V200.562H233.718V192.444H231.882V200.364H230.01V198.582C229.38 199.194 228.21 199.464 226.644 199.464Z" fill="#14AEFF"/>
</svg>
