<svg width="288" height="137" viewBox="0 0 288 137" fill="none" xmlns="http://www.w3.org/2000/svg">
<path d="M1 69.6421V108.662H57.679L91.288 136.005H159.076C161.569 136.005 163.96 135.015 165.723 133.252C167.486 131.489 168.476 129.098 168.476 126.605C168.476 124.112 167.486 121.721 165.723 119.958C163.96 118.195 161.569 117.205 159.076 117.205H122.334L72.49 69.6421H1Z" stroke="#14AEFF" stroke-width="1.5" stroke-linecap="round" stroke-linejoin="round"/>
<path d="M109.188 104.488C110.958 106.215 111.977 108.57 112.023 111.042C112.069 113.514 111.139 115.905 109.434 117.697C107.729 119.488 105.387 120.536 102.916 120.612C100.444 120.689 98.0417 119.788 96.2293 118.106L69.6133 92.7771" stroke="#14AEFF" stroke-width="1.5" stroke-linecap="round" stroke-linejoin="round"/>
<path d="M270.162 19.7981C270.162 19.7981 272.842 38.7881 283.362 52.4271C285.691 55.4384 286.957 59.1369 286.962 62.9441V118.833C286.962 121.088 286.518 123.321 285.655 125.405C284.792 127.488 283.527 129.381 281.932 130.976C280.338 132.57 278.445 133.835 276.361 134.698C274.278 135.561 272.045 136.005 269.79 136.005H215.844C211.29 136.005 206.922 134.196 203.701 130.976C200.481 127.755 198.672 123.387 198.672 118.833V62.9441C198.676 59.1369 199.942 55.4384 202.272 52.4271C212.795 38.7881 215.472 19.7981 215.472 19.7981H270.162Z" stroke="#14AEFF" stroke-width="1.5" stroke-linecap="round" stroke-linejoin="round"/>
<path d="M275.287 19.8H210.347C207.854 19.8 205.463 18.8096 203.7 17.0468C201.938 15.284 200.947 12.893 200.947 10.4C200.947 7.90696 201.938 5.51604 203.7 3.7532C205.463 1.99035 207.854 1 210.347 1H275.286C277.779 1 280.17 1.99035 281.933 3.7532C283.696 5.51604 284.686 7.90696 284.686 10.4C284.686 12.893 283.696 15.284 281.933 17.0468C280.17 18.8096 277.779 19.8 275.286 19.8H275.287Z" stroke="#14AEFF" stroke-width="1.5" stroke-linecap="round" stroke-linejoin="round"/>
<path d="M157.758 96.3471C155.963 96.347 154.185 95.9932 152.526 95.3061C150.868 94.6189 149.361 93.6118 148.091 92.3423C146.822 91.0727 145.815 89.5656 145.128 87.9069C144.441 86.2482 144.088 84.4704 144.088 82.6751V62.5931C144.088 58.9673 145.528 55.4901 148.092 52.9263C150.656 50.3624 154.133 48.9221 157.759 48.9221C161.385 48.9221 164.862 50.3624 167.426 52.9263C169.99 55.4901 171.43 58.9673 171.43 62.5931V82.6731C171.43 84.4687 171.077 86.2469 170.39 87.9059C169.703 89.565 168.696 91.0725 167.426 92.3423C166.157 93.6121 164.65 94.6193 162.991 95.3065C161.332 95.9936 159.554 96.3472 157.758 96.3471Z" stroke="#14AEFF" stroke-width="1.5" stroke-linecap="round" stroke-linejoin="round"/>
<path d="M144.086 72.635H171.429" stroke="#14AEFF" stroke-width="1.5" stroke-linecap="round" stroke-linejoin="round"/>
<path d="M87.0879 61.9671C87.0879 58.3414 88.5282 54.8641 91.092 52.3003C93.6558 49.7365 97.1331 48.2961 100.759 48.2961H120.839C124.465 48.2961 127.942 49.7365 130.506 52.3004C133.07 54.8643 134.51 58.3417 134.51 61.9676C134.51 65.5935 133.07 69.071 130.506 71.6349C127.942 74.1988 124.465 75.6391 120.839 75.6391H100.759C98.9635 75.6391 97.1857 75.2855 95.527 74.5984C93.8683 73.9113 92.3612 72.9042 91.0917 71.6346C89.8222 70.3651 88.8152 68.8579 88.1282 67.1991C87.4413 65.5404 87.0878 63.7625 87.0879 61.9671Z" stroke="#14AEFF" stroke-width="1.5" stroke-linecap="round" stroke-linejoin="round"/>
<path d="M111.979 48.2961V75.6391" stroke="#14AEFF" stroke-width="1.5" stroke-linecap="round" stroke-linejoin="round"/>
<path d="M93.4386 50.427C89.5518 46.9539 86.7957 42.3951 85.5265 37.3395C84.2574 32.2839 84.5333 26.9639 86.3188 22.0668C88.1043 17.1697 91.3173 12.9205 95.5427 9.86825C99.768 6.81599 104.812 5.10091 110.022 4.94459C115.232 4.78827 120.369 6.1979 124.77 8.99135C129.17 11.7848 132.632 15.8337 134.708 20.615C136.784 25.3962 137.379 30.6901 136.415 35.8127C135.451 40.9353 132.973 45.6511 129.302 49.351" stroke="#14AEFF" stroke-width="1.5" stroke-linecap="round" stroke-linejoin="round"/>
<path d="M85.6621 33.1289H136.771" stroke="#14AEFF" stroke-width="1.5" stroke-linecap="round" stroke-linejoin="round"/>
<path d="M259.432 83.777H250.192V74.537C250.192 74.109 250.108 73.6852 249.944 73.2898C249.78 72.8944 249.54 72.5351 249.237 72.2326C248.935 71.9301 248.575 71.6903 248.18 71.5268C247.784 71.3634 247.36 71.2795 246.932 71.28H238.705C237.842 71.28 237.013 71.6231 236.403 72.2337C235.792 72.8443 235.449 73.6725 235.449 74.536V83.776H226.209C225.346 83.776 224.517 84.1191 223.907 84.7297C223.296 85.3403 222.953 86.1685 222.953 87.032V95.264C222.953 96.1276 223.296 96.9558 223.907 97.5664C224.517 98.177 225.346 98.52 226.209 98.52H235.449V107.76C235.449 108.624 235.792 109.452 236.403 110.062C237.013 110.673 237.842 111.016 238.705 111.016H246.932C247.796 111.016 248.624 110.673 249.234 110.062C249.845 109.452 250.188 108.624 250.188 107.76V98.52H259.428C260.292 98.52 261.12 98.177 261.73 97.5664C262.341 96.9558 262.684 96.1276 262.684 95.264V87.037C262.685 86.6095 262.601 86.186 262.438 85.7907C262.275 85.3955 262.035 85.0362 261.733 84.7335C261.431 84.4308 261.073 84.1905 260.678 84.0264C260.283 83.8623 259.86 83.7776 259.432 83.777Z" stroke="#14AEFF" stroke-width="1.5" stroke-linecap="round" stroke-linejoin="round"/>
<path d="M264.551 60.2432H221.086C214.999 60.2432 210.064 65.1779 210.064 71.2652V111.597C210.064 117.684 214.999 122.619 221.086 122.619H264.551C270.639 122.619 275.573 117.684 275.573 111.597V71.2652C275.573 65.1779 270.639 60.2432 264.551 60.2432Z" stroke="#14AEFF" stroke-width="1.5" stroke-linecap="round" stroke-linejoin="round"/>
</svg>
