<svg width="279" height="258" viewBox="0 0 279 258" fill="none" xmlns="http://www.w3.org/2000/svg">
<rect x="62.5" y="0.5" width="154" height="154" rx="77" stroke="#14AEFF"/>
<path d="M111.456 72.292C110.772 72.292 110.292 72.184 110.016 71.968C109.752 71.752 109.62 71.398 109.62 70.906V69.61C108.924 70.042 108.198 70.438 107.442 70.798C106.686 71.158 105.894 71.494 105.066 71.806C105.042 71.686 104.982 71.53 104.886 71.338C104.79 71.146 104.688 70.954 104.58 70.762C104.484 70.57 104.394 70.426 104.31 70.33C106.266 69.718 108.036 68.872 109.62 67.792V60.952H111.276V66.496C112.536 65.368 113.634 64.03 114.57 62.482C115.518 60.922 116.286 59.122 116.874 57.082L118.458 57.55C117.75 59.974 116.796 62.086 115.596 63.886C114.396 65.674 112.956 67.204 111.276 68.476V70.15C111.276 70.342 111.318 70.48 111.402 70.564C111.498 70.648 111.69 70.69 111.978 70.69H114.696C115.044 70.69 115.32 70.624 115.524 70.492C115.74 70.36 115.902 70.12 116.01 69.772C116.13 69.424 116.22 68.932 116.28 68.296C116.46 68.392 116.712 68.5 117.036 68.62C117.36 68.74 117.636 68.83 117.864 68.89C117.744 69.838 117.576 70.558 117.36 71.05C117.144 71.53 116.856 71.854 116.496 72.022C116.148 72.202 115.692 72.292 115.128 72.292H111.456ZM105.336 67.756C105.18 67.636 104.952 67.486 104.652 67.306C104.364 67.126 104.124 67.006 103.932 66.946C104.208 66.646 104.49 66.28 104.778 65.848C105.066 65.404 105.342 64.936 105.606 64.444C105.87 63.952 106.104 63.466 106.308 62.986C106.524 62.494 106.686 62.05 106.794 61.654L108.324 62.266C108.144 62.83 107.898 63.442 107.586 64.102C107.286 64.762 106.938 65.41 106.542 66.046C106.158 66.682 105.756 67.252 105.336 67.756ZM119.466 69.106C119.25 68.614 118.974 68.074 118.638 67.486C118.314 66.898 117.966 66.328 117.594 65.776C117.222 65.224 116.85 64.75 116.478 64.354L117.738 63.472C118.11 63.868 118.494 64.348 118.89 64.912C119.298 65.476 119.682 66.052 120.042 66.64C120.414 67.228 120.714 67.762 120.942 68.242C120.822 68.278 120.654 68.356 120.438 68.476C120.234 68.584 120.036 68.698 119.844 68.818C119.664 68.938 119.538 69.034 119.466 69.106ZM113.94 60.448C113.544 60.136 113.082 59.818 112.554 59.494C112.038 59.17 111.516 58.87 110.988 58.594C110.46 58.318 109.98 58.102 109.548 57.946L110.34 56.65C110.652 56.77 111.012 56.926 111.42 57.118C111.828 57.31 112.242 57.526 112.662 57.766C113.094 57.994 113.502 58.228 113.886 58.468C114.27 58.708 114.594 58.93 114.858 59.134C114.774 59.23 114.666 59.362 114.534 59.53C114.414 59.698 114.3 59.866 114.192 60.034C114.084 60.202 114 60.34 113.94 60.448ZM128.304 72.94C128.256 72.832 128.172 72.688 128.052 72.508C127.944 72.34 127.824 72.166 127.692 71.986C127.572 71.818 127.464 71.692 127.368 71.608C127.656 71.512 127.992 71.374 128.376 71.194C128.772 71.002 129.174 70.786 129.582 70.546C129.99 70.294 130.368 70.048 130.716 69.808C131.064 69.556 131.34 69.328 131.544 69.124H129.276V59.962H131.904C131.976 59.722 132.054 59.458 132.138 59.17C132.222 58.882 132.3 58.612 132.372 58.36H128.304V56.974H138.582V58.36H134.208C134.052 58.936 133.884 59.47 133.704 59.962H137.43V69.124H135.018C135.306 69.388 135.678 69.682 136.134 70.006C136.602 70.33 137.088 70.63 137.592 70.906C138.108 71.182 138.564 71.392 138.96 71.536C138.876 71.632 138.768 71.764 138.636 71.932C138.504 72.112 138.384 72.286 138.276 72.454C138.168 72.634 138.09 72.778 138.042 72.886C137.61 72.718 137.136 72.484 136.62 72.184C136.116 71.884 135.624 71.554 135.144 71.194C134.664 70.834 134.25 70.48 133.902 70.132L134.982 69.124H131.598L132.678 70.168C132.33 70.516 131.898 70.87 131.382 71.23C130.878 71.59 130.35 71.92 129.798 72.22C129.258 72.52 128.76 72.76 128.304 72.94ZM123.282 72.058C123.15 71.914 122.97 71.716 122.742 71.464C122.514 71.2 122.316 71.008 122.148 70.888C122.832 70.48 123.498 70 124.146 69.448C124.794 68.884 125.394 68.296 125.946 67.684C126.51 67.072 126.984 66.484 127.368 65.92L128.7 66.766C128.304 67.39 127.812 68.026 127.224 68.674C126.648 69.322 126.024 69.94 125.352 70.528C124.68 71.104 123.99 71.614 123.282 72.058ZM123.318 66.91C123.258 66.814 123.156 66.694 123.012 66.55C122.88 66.394 122.742 66.238 122.598 66.082C122.454 65.926 122.328 65.812 122.22 65.74C122.82 65.368 123.426 64.93 124.038 64.426C124.662 63.922 125.238 63.4 125.766 62.86C126.306 62.308 126.738 61.786 127.062 61.294L128.34 62.158C127.968 62.686 127.506 63.238 126.954 63.814C126.414 64.39 125.832 64.948 125.208 65.488C124.584 66.016 123.954 66.49 123.318 66.91ZM123.588 61.942C123.456 61.786 123.27 61.588 123.03 61.348C122.802 61.096 122.604 60.916 122.436 60.808C122.928 60.508 123.444 60.142 123.984 59.71C124.524 59.278 125.028 58.816 125.496 58.324C125.976 57.832 126.36 57.364 126.648 56.92L127.962 57.748C127.626 58.24 127.218 58.738 126.738 59.242C126.258 59.746 125.748 60.232 125.208 60.7C124.668 61.156 124.128 61.57 123.588 61.942ZM130.896 67.864H135.81V66.406H130.896V67.864ZM130.896 65.236H135.81V63.814H130.896V65.236ZM130.896 62.626H135.81V61.222H130.896V62.626ZM141.048 71.284V59.674H142.884C142.956 59.398 143.028 59.08 143.1 58.72C143.172 58.348 143.238 57.988 143.298 57.64C143.358 57.292 143.4 57.004 143.424 56.776L145.116 56.92C145.08 57.172 145.02 57.466 144.936 57.802C144.864 58.138 144.78 58.474 144.684 58.81C144.6 59.134 144.516 59.422 144.432 59.674H147.186V71.284H141.048ZM150.624 72.67C150.6 72.43 150.552 72.148 150.48 71.824C150.408 71.5 150.33 71.242 150.246 71.05H152.262C152.73 71.05 153.09 70.906 153.342 70.618C153.606 70.33 153.81 69.808 153.954 69.052C154.026 68.692 154.08 68.248 154.116 67.72C154.164 67.18 154.2 66.52 154.224 65.74C154.248 64.948 154.26 63.994 154.26 62.878V61.258H150.354C150.102 61.774 149.832 62.266 149.544 62.734C149.256 63.202 148.956 63.616 148.644 63.976C148.536 63.904 148.392 63.814 148.212 63.706C148.032 63.598 147.852 63.496 147.672 63.4C147.492 63.304 147.354 63.244 147.258 63.22C147.57 62.872 147.876 62.44 148.176 61.924C148.488 61.396 148.782 60.832 149.058 60.232C149.334 59.632 149.574 59.032 149.778 58.432C149.994 57.82 150.156 57.256 150.264 56.74L151.884 57.046C151.788 57.478 151.662 57.928 151.506 58.396C151.362 58.852 151.2 59.314 151.02 59.782H155.844V62.878C155.844 63.97 155.832 64.906 155.808 65.686C155.796 66.454 155.766 67.12 155.718 67.684C155.682 68.248 155.634 68.764 155.574 69.232C155.418 70.528 155.064 71.422 154.512 71.914C153.96 72.418 153.222 72.67 152.298 72.67H150.624ZM142.686 69.772H145.548V66.118H142.686V69.772ZM142.686 64.678H145.548V61.186H142.686V64.678ZM151.452 68.062C151.284 67.714 151.05 67.306 150.75 66.838C150.45 66.37 150.132 65.92 149.796 65.488C149.472 65.056 149.178 64.714 148.914 64.462L150.138 63.508C150.402 63.784 150.702 64.132 151.038 64.552C151.374 64.972 151.698 65.41 152.01 65.866C152.334 66.31 152.592 66.712 152.784 67.072C152.688 67.132 152.55 67.228 152.37 67.36C152.19 67.492 152.01 67.624 151.83 67.756C151.662 67.876 151.536 67.978 151.452 68.062ZM165.834 72.436C164.97 72.412 164.298 72.166 163.818 71.698C163.35 71.242 163.122 70.684 163.134 70.024C163.146 69.616 163.272 69.238 163.512 68.89C163.764 68.542 164.124 68.266 164.592 68.062C165.072 67.858 165.648 67.768 166.32 67.792C166.536 67.804 166.752 67.822 166.968 67.846C167.184 67.858 167.394 67.882 167.598 67.918V63.49H169.164V68.314C169.872 68.542 170.544 68.836 171.18 69.196C171.816 69.556 172.41 69.952 172.962 70.384C172.794 70.54 172.614 70.762 172.422 71.05C172.242 71.338 172.11 71.584 172.026 71.788C171.138 71.008 170.184 70.378 169.164 69.898C169.14 70.774 168.84 71.422 168.264 71.842C167.688 72.274 166.878 72.472 165.834 72.436ZM160.812 69.196C160.728 69.124 160.602 69.034 160.434 68.926C160.266 68.806 160.086 68.692 159.894 68.584C159.714 68.476 159.558 68.398 159.426 68.35C160.182 67.498 160.866 66.484 161.478 65.308C162.09 64.132 162.594 62.902 162.99 61.618C162.318 61.726 161.688 61.822 161.1 61.906C160.524 61.978 160.068 62.026 159.732 62.05L159.498 60.484C159.942 60.472 160.512 60.436 161.208 60.376C161.904 60.304 162.636 60.208 163.404 60.088C163.536 59.512 163.638 58.942 163.71 58.378C163.794 57.814 163.842 57.262 163.854 56.722L165.42 56.92C165.372 57.4 165.312 57.886 165.24 58.378C165.18 58.858 165.102 59.332 165.006 59.8C165.486 59.704 165.942 59.608 166.374 59.512C166.806 59.416 167.184 59.32 167.508 59.224L167.706 60.718C167.334 60.814 166.878 60.922 166.338 61.042C165.81 61.15 165.246 61.252 164.646 61.348C164.238 62.836 163.704 64.252 163.044 65.596C162.396 66.928 161.652 68.128 160.812 69.196ZM172.458 63.634C172.206 63.358 171.852 63.058 171.396 62.734C170.952 62.398 170.484 62.086 169.992 61.798C169.512 61.51 169.092 61.3 168.732 61.168L169.56 59.944C169.836 60.052 170.154 60.202 170.514 60.394C170.874 60.586 171.24 60.802 171.612 61.042C171.996 61.27 172.35 61.504 172.674 61.744C172.998 61.984 173.262 62.2 173.466 62.392L172.458 63.634ZM165.942 71.032C166.47 71.032 166.878 70.918 167.166 70.69C167.454 70.45 167.598 70.072 167.598 69.556V69.34C167.154 69.244 166.692 69.184 166.212 69.16C165.732 69.148 165.354 69.232 165.078 69.412C164.802 69.58 164.658 69.802 164.646 70.078C164.634 70.354 164.736 70.582 164.952 70.762C165.18 70.942 165.51 71.032 165.942 71.032ZM128.286 99.328V92.416H137.142V99.328H128.286ZM137.466 91.624C137.322 91.396 137.154 91.144 136.962 90.868C136.782 90.58 136.578 90.286 136.35 89.986C135.894 90.07 135.348 90.154 134.712 90.238C134.088 90.322 133.422 90.406 132.714 90.49C132.006 90.562 131.304 90.634 130.608 90.706C129.912 90.766 129.252 90.82 128.628 90.868C128.016 90.916 127.494 90.952 127.062 90.976L126.72 89.374C126.984 89.362 127.284 89.35 127.62 89.338C127.968 89.314 128.334 89.29 128.718 89.266C128.97 88.846 129.234 88.36 129.51 87.808C129.786 87.256 130.044 86.692 130.284 86.116C130.536 85.54 130.758 85.006 130.95 84.514C131.154 84.01 131.298 83.602 131.382 83.29L133.128 83.74C133.02 84.052 132.864 84.436 132.66 84.892C132.456 85.336 132.228 85.81 131.976 86.314C131.736 86.818 131.49 87.316 131.238 87.808C130.986 88.3 130.746 88.744 130.518 89.14C131.37 89.08 132.222 89.008 133.074 88.924C133.926 88.84 134.682 88.756 135.342 88.672C135.042 88.324 134.748 87.994 134.46 87.682C134.184 87.358 133.92 87.088 133.668 86.872L134.892 85.918C135.192 86.194 135.528 86.536 135.9 86.944C136.272 87.34 136.644 87.766 137.016 88.222C137.4 88.678 137.754 89.122 138.078 89.554C138.414 89.986 138.684 90.37 138.888 90.706C138.684 90.79 138.438 90.934 138.15 91.138C137.862 91.33 137.634 91.492 137.466 91.624ZM129.96 97.888H135.468V93.856H129.96V97.888ZM123.876 99.526L122.436 98.482C122.7 98.146 122.982 97.732 123.282 97.24C123.594 96.748 123.9 96.226 124.2 95.674C124.5 95.11 124.77 94.57 125.01 94.054C125.262 93.526 125.454 93.07 125.586 92.686C125.694 92.77 125.832 92.884 126 93.028C126.168 93.172 126.336 93.31 126.504 93.442C126.672 93.562 126.81 93.652 126.918 93.712C126.798 94.084 126.612 94.528 126.36 95.044C126.12 95.56 125.85 96.1 125.55 96.664C125.25 97.228 124.95 97.762 124.65 98.266C124.362 98.77 124.104 99.19 123.876 99.526ZM126.396 87.286C126.18 87.082 125.874 86.842 125.478 86.566C125.094 86.29 124.698 86.026 124.29 85.774C123.882 85.522 123.528 85.336 123.228 85.216L124.092 83.884C124.404 84.016 124.77 84.202 125.19 84.442C125.61 84.682 126.018 84.934 126.414 85.198C126.81 85.462 127.122 85.702 127.35 85.918C127.29 85.99 127.188 86.122 127.044 86.314C126.912 86.494 126.78 86.68 126.648 86.872C126.528 87.052 126.444 87.19 126.396 87.286ZM125.334 91.3C125.118 91.108 124.818 90.88 124.434 90.616C124.05 90.352 123.654 90.1 123.246 89.86C122.838 89.608 122.49 89.416 122.202 89.284L123.03 87.934C123.366 88.09 123.732 88.282 124.128 88.51C124.536 88.726 124.932 88.96 125.316 89.212C125.7 89.452 126.018 89.686 126.27 89.914C126.198 90.01 126.096 90.148 125.964 90.328C125.844 90.508 125.724 90.688 125.604 90.868C125.484 91.048 125.394 91.192 125.334 91.3ZM148.23 99.868C148.218 99.664 148.176 99.418 148.104 99.13C148.044 98.854 147.978 98.632 147.906 98.464H149.004C149.244 98.464 149.412 98.428 149.508 98.356C149.616 98.272 149.67 98.116 149.67 97.888V95.962H146.7V92.56C146.448 92.752 146.184 92.944 145.908 93.136C145.632 93.316 145.35 93.496 145.062 93.676C144.978 93.544 144.852 93.382 144.684 93.19C144.516 92.998 144.36 92.842 144.216 92.722C144.096 94.138 143.82 95.416 143.388 96.556C142.968 97.696 142.38 98.698 141.624 99.562C141.492 99.442 141.294 99.292 141.03 99.112C140.766 98.944 140.544 98.83 140.364 98.77C141.06 98.026 141.588 97.174 141.948 96.214C142.32 95.254 142.566 94.168 142.686 92.956C142.35 93.148 141.972 93.346 141.552 93.55C141.132 93.754 140.766 93.922 140.454 94.054L139.95 92.524C140.202 92.428 140.502 92.314 140.85 92.182C141.198 92.038 141.546 91.894 141.894 91.75C142.254 91.594 142.548 91.456 142.776 91.336V84.982H148.608V83.434H150.246V84.982H156.294V86.332H144.288V90.832C144.288 91.132 144.282 91.438 144.27 91.75C144.258 92.05 144.24 92.344 144.216 92.632C145.032 92.176 145.752 91.666 146.376 91.102C146.148 90.898 145.92 90.706 145.692 90.526C145.464 90.334 145.236 90.16 145.008 90.004L145.854 89.14C146.058 89.284 146.286 89.458 146.538 89.662C146.79 89.854 147.024 90.046 147.24 90.238C147.432 90.034 147.606 89.818 147.762 89.59C147.93 89.362 148.086 89.134 148.23 88.906H144.648V87.664H148.86C148.956 87.46 149.034 87.25 149.094 87.034C149.166 86.818 149.226 86.596 149.274 86.368L150.696 86.602C150.648 86.782 150.594 86.962 150.534 87.142C150.474 87.322 150.414 87.496 150.354 87.664H156.24V88.906H152.1C152.304 89.17 152.52 89.422 152.748 89.662C152.976 89.89 153.216 90.112 153.468 90.328C153.9 89.932 154.308 89.494 154.692 89.014L155.754 89.77C155.574 89.962 155.37 90.172 155.142 90.4C154.914 90.628 154.68 90.844 154.44 91.048C155.256 91.6 156.12 92.044 157.032 92.38C156.9 92.476 156.744 92.656 156.564 92.92C156.396 93.184 156.264 93.4 156.168 93.568C155.796 93.4 155.43 93.22 155.07 93.028C154.71 92.836 154.362 92.626 154.026 92.398V95.962H151.128V98.32C151.128 99.352 150.534 99.868 149.346 99.868H148.23ZM155.682 99.562C155.058 99.286 154.428 98.926 153.792 98.482C153.156 98.026 152.61 97.582 152.154 97.15L153.144 96.214C153.576 96.622 154.11 97.024 154.746 97.42C155.382 97.804 155.982 98.11 156.546 98.338C156.402 98.458 156.234 98.656 156.042 98.932C155.862 99.208 155.742 99.418 155.682 99.562ZM145.026 99.562C144.99 99.466 144.918 99.334 144.81 99.166C144.714 99.01 144.606 98.848 144.486 98.68C144.366 98.524 144.258 98.41 144.162 98.338C144.738 98.098 145.338 97.792 145.962 97.42C146.586 97.048 147.12 96.646 147.564 96.214L148.554 97.15C148.074 97.618 147.522 98.068 146.898 98.5C146.286 98.92 145.662 99.274 145.026 99.562ZM141.426 90.526C141.33 90.274 141.192 89.974 141.012 89.626C140.844 89.266 140.664 88.912 140.472 88.564C140.292 88.204 140.118 87.904 139.95 87.664L141.174 87.016C141.318 87.232 141.486 87.508 141.678 87.844C141.87 88.18 142.056 88.528 142.236 88.888C142.428 89.248 142.584 89.572 142.704 89.86C142.608 89.896 142.476 89.962 142.308 90.058C142.14 90.142 141.972 90.226 141.804 90.31C141.648 90.394 141.522 90.466 141.426 90.526ZM148.446 90.922H152.19C151.578 90.334 151.032 89.662 150.552 88.906H149.814C149.622 89.278 149.412 89.632 149.184 89.968C148.956 90.292 148.71 90.61 148.446 90.922ZM148.248 94.81H152.478V93.892H148.248V94.81ZM148.248 92.902H152.478V92.038H148.248V92.902Z" fill="#14AEFF"/>
<rect x="0.5" y="103.5" width="154" height="154" rx="77" stroke="#14AEFF"/>
<path d="M47.584 175.634C47.56 175.406 47.512 175.118 47.44 174.77C47.368 174.434 47.29 174.17 47.206 173.978H49.114C49.366 173.978 49.546 173.936 49.654 173.852C49.762 173.756 49.816 173.588 49.816 173.348V170.018H42.346V168.434H49.816V166.184H43.822V164.636H49.816V162.314C48.772 162.398 47.728 162.464 46.684 162.512C45.64 162.56 44.644 162.584 43.696 162.584C43.66 162.38 43.6 162.11 43.516 161.774C43.444 161.438 43.372 161.186 43.3 161.018C44.08 161.042 44.926 161.048 45.838 161.036C46.75 161.012 47.686 160.964 48.646 160.892C49.606 160.82 50.542 160.73 51.454 160.622C52.366 160.514 53.212 160.382 53.992 160.226C54.772 160.058 55.438 159.872 55.99 159.668L57.034 161.072C56.278 161.312 55.432 161.522 54.496 161.702C53.572 161.87 52.6 162.014 51.58 162.134V164.636H57.196V166.184H51.58V168.434H58.672V170.018H51.58V173.924C51.58 174.512 51.412 174.944 51.076 175.22C50.752 175.496 50.254 175.634 49.582 175.634H47.584ZM62.416 175.796V168.128C61.924 168.62 61.432 169.058 60.94 169.442C60.82 169.274 60.652 169.076 60.436 168.848C60.22 168.62 60.016 168.446 59.824 168.326C60.34 167.966 60.874 167.522 61.426 166.994C61.978 166.454 62.488 165.884 62.956 165.284C63.424 164.672 63.79 164.096 64.054 163.556L65.116 164.114V163.07H67.6V159.506H69.13V163.07H71.56V164.528H69.13V175.292H67.6V164.528H65.206C64.87 165.128 64.468 165.728 64 166.328V175.796H62.416ZM71.758 175.76C71.746 175.532 71.698 175.256 71.614 174.932C71.542 174.62 71.47 174.374 71.398 174.194H72.766C73.018 174.194 73.192 174.152 73.288 174.068C73.396 173.984 73.45 173.828 73.45 173.6V166.022H71.65V164.564H76.672V166.022H75.052V174.104C75.052 174.632 74.89 175.04 74.566 175.328C74.254 175.616 73.768 175.76 73.108 175.76H71.758ZM65.71 172.736C65.542 172.664 65.302 172.586 64.99 172.502C64.69 172.418 64.456 172.37 64.288 172.358C64.444 172.046 64.594 171.644 64.738 171.152C64.894 170.66 65.032 170.126 65.152 169.55C65.284 168.962 65.392 168.374 65.476 167.786C65.56 167.186 65.614 166.628 65.638 166.112L66.97 166.22C66.934 166.916 66.856 167.672 66.736 168.488C66.616 169.304 66.466 170.09 66.286 170.846C66.118 171.602 65.926 172.232 65.71 172.736ZM70.858 172.466C70.822 172.082 70.762 171.608 70.678 171.044C70.594 170.48 70.492 169.892 70.372 169.28C70.264 168.668 70.15 168.098 70.03 167.57C69.91 167.042 69.796 166.616 69.688 166.292L71.02 166.04C71.2 166.568 71.374 167.198 71.542 167.93C71.71 168.65 71.866 169.388 72.01 170.144C72.154 170.888 72.262 171.554 72.334 172.142C72.226 172.154 72.07 172.184 71.866 172.232C71.662 172.268 71.464 172.31 71.272 172.358C71.092 172.394 70.954 172.43 70.858 172.466ZM61.282 163.988C61.126 163.76 60.946 163.532 60.742 163.304C60.55 163.076 60.37 162.902 60.202 162.782C60.922 162.41 61.618 161.948 62.29 161.396C62.974 160.844 63.508 160.304 63.892 159.776L65.134 160.712C64.822 161.084 64.45 161.48 64.018 161.9C63.586 162.308 63.13 162.698 62.65 163.07C62.182 163.43 61.726 163.736 61.282 163.988ZM71.956 162.062V160.604H76.294V162.062H71.956ZM70.84 162.836C70.66 162.512 70.432 162.152 70.156 161.756C69.892 161.348 69.634 161 69.382 160.712L70.39 160.064C70.642 160.328 70.912 160.67 71.2 161.09C71.5 161.498 71.728 161.846 71.884 162.134C71.752 162.206 71.578 162.314 71.362 162.458C71.158 162.602 70.984 162.728 70.84 162.836ZM79.318 175.202V163.934H84.88C85.012 163.622 85.144 163.268 85.276 162.872C85.408 162.464 85.522 162.086 85.618 161.738H78.328V160.334H94.69V161.738H87.526C87.43 162.074 87.31 162.446 87.166 162.854C87.022 163.25 86.884 163.61 86.752 163.934H93.682V175.202H79.318ZM80.956 173.69H83.332V165.392H80.956V173.69ZM89.668 173.69H92.044V165.392H89.668V173.69ZM84.934 173.69H88.048V171.782H84.934V173.69ZM84.934 167.3H88.048V165.392H84.934V167.3ZM84.934 170.486H88.048V168.596H84.934V170.486ZM102.952 175.886C102.88 175.718 102.766 175.502 102.61 175.238C102.466 174.974 102.328 174.764 102.196 174.608C102.52 174.5 102.904 174.35 103.348 174.158C103.792 173.954 104.236 173.738 104.68 173.51C105.136 173.282 105.532 173.06 105.868 172.844H103.6V166.292H111.484V172.844H109.216C109.552 173.06 109.948 173.282 110.404 173.51C110.86 173.738 111.31 173.954 111.754 174.158C112.21 174.35 112.594 174.5 112.906 174.608C112.786 174.764 112.648 174.974 112.492 175.238C112.336 175.502 112.222 175.718 112.15 175.886C111.742 175.73 111.292 175.532 110.8 175.292C110.32 175.064 109.846 174.812 109.378 174.536C108.922 174.272 108.52 174.014 108.172 173.762L108.856 172.844H106.228L106.948 173.762C106.6 174.014 106.192 174.272 105.724 174.536C105.268 174.812 104.794 175.064 104.302 175.292C103.822 175.532 103.372 175.73 102.952 175.886ZM98.956 175.85V168.812C98.656 169.472 98.338 170.102 98.002 170.702C97.678 171.29 97.372 171.776 97.084 172.16C97.012 172.076 96.898 171.974 96.742 171.854C96.586 171.734 96.424 171.62 96.256 171.512C96.1 171.404 95.974 171.332 95.878 171.296C96.166 170.984 96.46 170.588 96.76 170.108C97.072 169.628 97.372 169.106 97.66 168.542C97.96 167.966 98.218 167.396 98.434 166.832C98.662 166.268 98.83 165.752 98.938 165.284H96.238V163.898H98.956V161.954C98.572 162.038 98.188 162.116 97.804 162.188C97.432 162.26 97.072 162.326 96.724 162.386C96.712 162.29 96.676 162.158 96.616 161.99C96.556 161.81 96.49 161.636 96.418 161.468C96.346 161.288 96.286 161.156 96.238 161.072C96.814 161.012 97.456 160.91 98.164 160.766C98.872 160.61 99.55 160.424 100.198 160.208C100.858 159.992 101.392 159.77 101.8 159.542L102.646 160.712C102.346 160.868 102.01 161.012 101.638 161.144C101.278 161.276 100.894 161.408 100.486 161.54V163.898H102.322V165.284H100.486V166.616C100.69 166.88 100.948 167.186 101.26 167.534C101.584 167.882 101.914 168.212 102.25 168.524C102.586 168.836 102.874 169.076 103.114 169.244C103.042 169.304 102.94 169.406 102.808 169.55C102.688 169.682 102.568 169.826 102.448 169.982C102.328 170.126 102.244 170.24 102.196 170.324C101.968 170.12 101.698 169.856 101.386 169.532C101.074 169.196 100.774 168.854 100.486 168.506V175.85H98.956ZM102.646 165.554V164.438H106.732V163.556H103.654V162.476H106.732V161.648H102.898V160.568H106.732V159.434H108.316V160.568H112.258V161.648H108.316V162.476H111.484V163.556H108.316V164.438H112.618V165.554H102.646ZM105.148 171.764H109.936V170.918H105.148V171.764ZM105.148 168.2H109.936V167.372H105.148V168.2ZM105.148 169.964H109.936V169.154H105.148V169.964ZM60.796 201.428C60.736 201.212 60.604 200.942 60.4 200.618C60.208 200.282 60.016 200.03 59.824 199.862C60.904 199.694 61.822 199.382 62.578 198.926C63.334 198.47 63.916 197.912 64.324 197.252C64.744 196.592 64.972 195.878 65.008 195.11C65.044 194.39 64.942 193.73 64.702 193.13C64.474 192.518 64.144 191.984 63.712 191.528C63.28 191.072 62.776 190.712 62.2 190.448C61.636 190.172 61.03 190.016 60.382 189.98C60.298 191.144 60.124 192.32 59.86 193.508C59.596 194.696 59.236 195.8 58.78 196.82C58.336 197.84 57.802 198.692 57.178 199.376C56.758 199.832 56.332 200.102 55.9 200.186C55.48 200.27 55.036 200.216 54.568 200.024C54.112 199.832 53.704 199.52 53.344 199.088C52.984 198.644 52.708 198.116 52.516 197.504C52.324 196.892 52.246 196.232 52.282 195.524C52.342 194.468 52.588 193.496 53.02 192.608C53.464 191.72 54.058 190.958 54.802 190.322C55.546 189.674 56.398 189.188 57.358 188.864C58.318 188.528 59.344 188.39 60.436 188.45C61.3 188.498 62.116 188.696 62.884 189.044C63.652 189.392 64.33 189.866 64.918 190.466C65.506 191.066 65.956 191.768 66.268 192.572C66.592 193.376 66.73 194.264 66.682 195.236C66.598 196.796 66.04 198.116 65.008 199.196C63.976 200.276 62.572 201.02 60.796 201.428ZM55.036 198.35C55.168 198.434 55.324 198.476 55.504 198.476C55.684 198.464 55.858 198.368 56.026 198.188C56.494 197.696 56.914 197.024 57.286 196.172C57.67 195.32 57.988 194.366 58.24 193.31C58.492 192.254 58.654 191.18 58.726 190.088C57.814 190.256 57.004 190.604 56.296 191.132C55.588 191.66 55.024 192.308 54.604 193.076C54.184 193.844 53.95 194.684 53.902 195.596C53.866 196.256 53.962 196.832 54.19 197.324C54.418 197.804 54.7 198.146 55.036 198.35ZM78.346 202.814C78.298 202.718 78.214 202.592 78.094 202.436C77.974 202.28 77.848 202.124 77.716 201.968C77.584 201.824 77.47 201.722 77.374 201.662C78.202 201.242 78.94 200.744 79.588 200.168C80.236 199.592 80.812 198.956 81.316 198.26C81.124 197.624 80.962 196.946 80.83 196.226C80.578 194.702 80.386 192.92 80.254 190.88H75.34V194.444C75.34 195.704 75.262 196.826 75.106 197.81C74.962 198.782 74.734 199.664 74.422 200.456C74.122 201.248 73.732 201.998 73.252 202.706C73.144 202.634 73 202.544 72.82 202.436C72.64 202.34 72.46 202.244 72.28 202.148C72.112 202.064 71.98 202.01 71.884 201.986C72.328 201.386 72.694 200.738 72.982 200.042C73.282 199.334 73.504 198.53 73.648 197.63C73.804 196.718 73.882 195.656 73.882 194.444V189.494H80.182C80.158 189.002 80.14 188.504 80.128 188C80.116 187.484 80.11 186.968 80.11 186.452H81.586C81.586 187.484 81.604 188.498 81.64 189.494H85.618V190.88H81.694C81.754 191.888 81.832 192.842 81.928 193.742C82.024 194.63 82.138 195.416 82.27 196.1C82.294 196.16 82.312 196.226 82.324 196.298C82.336 196.37 82.348 196.436 82.36 196.496C82.684 195.86 82.966 195.206 83.206 194.534C83.446 193.85 83.644 193.172 83.8 192.5L85.204 192.968C84.964 193.928 84.652 194.87 84.268 195.794C83.896 196.718 83.446 197.588 82.918 198.404C83.122 198.992 83.338 199.508 83.566 199.952C83.794 200.384 84.028 200.738 84.268 201.014C84.4 200.618 84.526 200.216 84.646 199.808C84.778 199.388 84.868 199.046 84.916 198.782C85 198.83 85.126 198.896 85.294 198.98C85.462 199.052 85.63 199.124 85.798 199.196C85.966 199.268 86.092 199.316 86.176 199.34C86.116 199.628 86.026 199.964 85.906 200.348C85.798 200.72 85.672 201.092 85.528 201.464C85.396 201.824 85.27 202.13 85.15 202.382C85.03 202.646 84.862 202.802 84.646 202.85C84.43 202.91 84.22 202.88 84.016 202.76C83.608 202.52 83.218 202.148 82.846 201.644C82.486 201.14 82.162 200.54 81.874 199.844C81.382 200.444 80.842 200.996 80.254 201.5C79.666 201.992 79.03 202.43 78.346 202.814ZM75.97 198.998V194.516H79.93V198.998H75.97ZM70.588 202.328L69.148 201.608C69.376 201.248 69.616 200.81 69.868 200.294C70.12 199.766 70.366 199.214 70.606 198.638C70.858 198.05 71.074 197.486 71.254 196.946C71.446 196.394 71.59 195.92 71.686 195.524C71.842 195.632 72.058 195.782 72.334 195.974C72.61 196.154 72.832 196.274 73 196.334C72.916 196.718 72.778 197.18 72.586 197.72C72.406 198.248 72.196 198.8 71.956 199.376C71.716 199.94 71.476 200.486 71.236 201.014C70.996 201.53 70.78 201.968 70.588 202.328ZM75.898 193.346V192.032H79.894V193.346H75.898ZM71.974 194.084C71.758 193.88 71.482 193.658 71.146 193.418C70.81 193.166 70.462 192.932 70.102 192.716C69.754 192.488 69.43 192.308 69.13 192.176L69.94 190.952C70.24 191.084 70.57 191.258 70.93 191.474C71.29 191.678 71.644 191.9 71.992 192.14C72.34 192.368 72.634 192.59 72.874 192.806C72.814 192.878 72.718 193.004 72.586 193.184C72.466 193.352 72.346 193.52 72.226 193.688C72.106 193.856 72.022 193.988 71.974 194.084ZM72.73 190.088C72.526 189.884 72.256 189.656 71.92 189.404C71.596 189.152 71.254 188.918 70.894 188.702C70.546 188.474 70.228 188.294 69.94 188.162L70.768 186.974C71.032 187.106 71.344 187.286 71.704 187.514C72.076 187.73 72.436 187.958 72.784 188.198C73.144 188.438 73.438 188.666 73.666 188.882C73.594 188.954 73.492 189.074 73.36 189.242C73.24 189.398 73.12 189.554 73 189.71C72.88 189.866 72.79 189.992 72.73 190.088ZM84.088 189.314C83.944 189.146 83.752 188.954 83.512 188.738C83.284 188.51 83.05 188.294 82.81 188.09C82.57 187.874 82.366 187.706 82.198 187.586L83.152 186.632C83.332 186.752 83.542 186.914 83.782 187.118C84.034 187.322 84.28 187.532 84.52 187.748C84.76 187.964 84.952 188.156 85.096 188.324C85.024 188.384 84.916 188.48 84.772 188.612C84.64 188.744 84.508 188.876 84.376 189.008C84.244 189.14 84.148 189.242 84.088 189.314ZM77.248 197.72H78.652V195.794H77.248V197.72ZM88.786 202.76C88.75 202.64 88.684 202.472 88.588 202.256C88.492 202.052 88.39 201.848 88.282 201.644C88.186 201.44 88.096 201.296 88.012 201.212C89.824 200.924 91.504 200.456 93.052 199.808C94.612 199.148 95.986 198.314 97.174 197.306C98.374 196.298 99.334 195.128 100.054 193.796L101.512 194.822C100.204 196.874 98.47 198.596 96.31 199.988C94.15 201.38 91.642 202.304 88.786 202.76ZM92.8 197.63C92.776 197.39 92.734 197.108 92.674 196.784C92.626 196.46 92.56 196.178 92.476 195.938H94.078C94.342 195.938 94.516 195.902 94.6 195.83C94.696 195.758 94.744 195.602 94.744 195.362V186.794H96.472V195.902C96.472 197.054 95.788 197.63 94.42 197.63H92.8ZM88.48 195.848C88.36 195.716 88.162 195.53 87.886 195.29C87.622 195.05 87.382 194.864 87.166 194.732C87.718 194.3 88.252 193.784 88.768 193.184C89.296 192.572 89.776 191.924 90.208 191.24C90.652 190.556 91.006 189.896 91.27 189.26L92.782 189.998C92.506 190.646 92.14 191.336 91.684 192.068C91.24 192.788 90.742 193.478 90.19 194.138C89.638 194.798 89.068 195.368 88.48 195.848ZM102.61 194.93C102.406 194.606 102.13 194.228 101.782 193.796C101.446 193.352 101.074 192.908 100.666 192.464C100.27 192.008 99.874 191.582 99.478 191.186C99.082 190.79 98.728 190.478 98.416 190.25L99.64 189.188C100.156 189.584 100.69 190.052 101.242 190.592C101.794 191.12 102.316 191.666 102.808 192.23C103.3 192.782 103.708 193.304 104.032 193.796C103.936 193.844 103.786 193.946 103.582 194.102C103.39 194.246 103.198 194.402 103.006 194.57C102.826 194.726 102.694 194.846 102.61 194.93Z" fill="#14AEFF"/>
<rect x="123.5" y="103.5" width="154" height="154" rx="77" stroke="#14AEFF"/>
<path d="M180.556 175.904C180.472 175.736 180.358 175.526 180.214 175.274C180.07 175.034 179.914 174.776 179.746 174.5C179.338 174.584 178.852 174.662 178.288 174.734C177.724 174.818 177.124 174.896 176.488 174.968C175.852 175.04 175.216 175.106 174.58 175.166C173.956 175.226 173.374 175.274 172.834 175.31C172.294 175.358 171.838 175.388 171.466 175.4L171.16 173.906C171.64 173.894 172.252 173.864 172.996 173.816C173.752 173.756 174.532 173.69 175.336 173.618V171.026H171.808V166.13H175.336V164.492C174.604 164.576 173.89 164.648 173.194 164.708C172.51 164.768 171.952 164.81 171.52 164.834L171.25 163.394C171.49 163.382 171.76 163.364 172.06 163.34C172.372 163.316 172.696 163.292 173.032 163.268C173.176 163.016 173.332 162.716 173.5 162.368C173.668 162.008 173.836 161.636 174.004 161.252C174.172 160.868 174.316 160.502 174.436 160.154C174.568 159.806 174.664 159.518 174.724 159.29L176.47 159.542C176.374 159.794 176.224 160.136 176.02 160.568C175.816 160.988 175.594 161.432 175.354 161.9C175.126 162.356 174.904 162.77 174.688 163.142C175.348 163.082 175.996 163.016 176.632 162.944C177.28 162.872 177.856 162.806 178.36 162.746C178.156 162.494 177.952 162.254 177.748 162.026C177.556 161.798 177.364 161.594 177.172 161.414L178.378 160.586C178.726 160.91 179.098 161.306 179.494 161.774C179.902 162.242 180.286 162.71 180.646 163.178C181.018 163.646 181.306 164.054 181.51 164.402C181.426 164.438 181.294 164.516 181.114 164.636C180.934 164.756 180.754 164.882 180.574 165.014C180.394 165.146 180.262 165.254 180.178 165.338C180.07 165.134 179.938 164.918 179.782 164.69C179.626 164.462 179.464 164.222 179.296 163.97C178.996 164.018 178.636 164.072 178.216 164.132C177.808 164.192 177.37 164.252 176.902 164.312V166.13H180.484V171.026H176.902V173.456C177.286 173.42 177.646 173.384 177.982 173.348C178.33 173.3 178.648 173.258 178.936 173.222C178.78 172.994 178.63 172.784 178.486 172.592C178.354 172.388 178.228 172.22 178.108 172.088L179.386 171.35C179.662 171.662 179.962 172.052 180.286 172.52C180.622 172.976 180.934 173.432 181.222 173.888C181.522 174.344 181.75 174.722 181.906 175.022C181.81 175.07 181.672 175.148 181.492 175.256C181.312 175.376 181.132 175.496 180.952 175.616C180.784 175.736 180.652 175.832 180.556 175.904ZM166.372 175.832C166.348 175.592 166.3 175.304 166.228 174.968C166.156 174.632 166.078 174.368 165.994 174.176H167.344C167.812 174.176 168.136 174.092 168.316 173.924C168.496 173.756 168.64 173.438 168.748 172.97C168.856 172.478 168.94 171.884 169 171.188C169.072 170.48 169.108 169.796 169.108 169.136H165.652C165.736 168.644 165.802 168.074 165.85 167.426C165.91 166.766 165.958 166.124 165.994 165.5C166.03 164.876 166.048 164.354 166.048 163.934H169.108V161.594H165.706V160.172H170.692V165.284H167.542C167.542 165.476 167.53 165.716 167.506 166.004C167.494 166.292 167.476 166.58 167.452 166.868C167.428 167.144 167.398 167.39 167.362 167.606H170.782C170.782 168.902 170.746 170 170.674 170.9C170.602 171.788 170.506 172.586 170.386 173.294C170.23 174.242 169.93 174.902 169.486 175.274C169.054 175.646 168.394 175.832 167.506 175.832H166.372ZM176.902 169.658H178.954V167.498H176.902V169.658ZM173.32 169.658H175.336V167.498H173.32V169.658ZM193.516 175.76C193.3 175.34 193.012 174.866 192.652 174.338C192.304 173.798 191.914 173.24 191.482 172.664C191.062 172.076 190.63 171.506 190.186 170.954C189.742 170.402 189.316 169.898 188.908 169.442C188.5 168.974 188.146 168.59 187.846 168.29C187.438 167.882 187.24 167.534 187.252 167.246C187.264 166.958 187.474 166.628 187.882 166.256C188.278 165.896 188.734 165.446 189.25 164.906C189.778 164.354 190.306 163.772 190.834 163.16C191.374 162.536 191.866 161.924 192.31 161.324C192.754 160.724 193.09 160.196 193.318 159.74L194.866 160.802C194.602 161.186 194.248 161.648 193.804 162.188C193.36 162.728 192.874 163.286 192.346 163.862C191.83 164.426 191.326 164.972 190.834 165.5C190.342 166.016 189.91 166.448 189.538 166.796C189.202 167.096 189.208 167.42 189.556 167.768C189.856 168.068 190.204 168.446 190.6 168.902C190.996 169.358 191.41 169.856 191.842 170.396C192.274 170.924 192.7 171.458 193.12 171.998C193.54 172.538 193.924 173.048 194.272 173.528C194.62 173.996 194.896 174.392 195.1 174.716C194.968 174.776 194.794 174.866 194.578 174.986C194.362 175.118 194.152 175.256 193.948 175.4C193.756 175.544 193.612 175.664 193.516 175.76ZM208.834 175.436C207.97 175.412 207.298 175.166 206.818 174.698C206.35 174.242 206.122 173.684 206.134 173.024C206.146 172.616 206.272 172.238 206.512 171.89C206.764 171.542 207.124 171.266 207.592 171.062C208.072 170.858 208.648 170.768 209.32 170.792C209.536 170.804 209.752 170.822 209.968 170.846C210.184 170.858 210.394 170.882 210.598 170.918V166.49H212.164V171.314C212.872 171.542 213.544 171.836 214.18 172.196C214.816 172.556 215.41 172.952 215.962 173.384C215.794 173.54 215.614 173.762 215.422 174.05C215.242 174.338 215.11 174.584 215.026 174.788C214.138 174.008 213.184 173.378 212.164 172.898C212.14 173.774 211.84 174.422 211.264 174.842C210.688 175.274 209.878 175.472 208.834 175.436ZM203.812 172.196C203.728 172.124 203.602 172.034 203.434 171.926C203.266 171.806 203.086 171.692 202.894 171.584C202.714 171.476 202.558 171.398 202.426 171.35C203.182 170.498 203.866 169.484 204.478 168.308C205.09 167.132 205.594 165.902 205.99 164.618C205.318 164.726 204.688 164.822 204.1 164.906C203.524 164.978 203.068 165.026 202.732 165.05L202.498 163.484C202.942 163.472 203.512 163.436 204.208 163.376C204.904 163.304 205.636 163.208 206.404 163.088C206.536 162.512 206.638 161.942 206.71 161.378C206.794 160.814 206.842 160.262 206.854 159.722L208.42 159.92C208.372 160.4 208.312 160.886 208.24 161.378C208.18 161.858 208.102 162.332 208.006 162.8C208.486 162.704 208.942 162.608 209.374 162.512C209.806 162.416 210.184 162.32 210.508 162.224L210.706 163.718C210.334 163.814 209.878 163.922 209.338 164.042C208.81 164.15 208.246 164.252 207.646 164.348C207.238 165.836 206.704 167.252 206.044 168.596C205.396 169.928 204.652 171.128 203.812 172.196ZM215.458 166.634C215.206 166.358 214.852 166.058 214.396 165.734C213.952 165.398 213.484 165.086 212.992 164.798C212.512 164.51 212.092 164.3 211.732 164.168L212.56 162.944C212.836 163.052 213.154 163.202 213.514 163.394C213.874 163.586 214.24 163.802 214.612 164.042C214.996 164.27 215.35 164.504 215.674 164.744C215.998 164.984 216.262 165.2 216.466 165.392L215.458 166.634ZM208.942 174.032C209.47 174.032 209.878 173.918 210.166 173.69C210.454 173.45 210.598 173.072 210.598 172.556V172.34C210.154 172.244 209.692 172.184 209.212 172.16C208.732 172.148 208.354 172.232 208.078 172.412C207.802 172.58 207.658 172.802 207.646 173.078C207.634 173.354 207.736 173.582 207.952 173.762C208.18 173.942 208.51 174.032 208.942 174.032ZM227.986 174.806C226.654 174.806 225.67 174.56 225.034 174.068C224.41 173.576 224.098 172.97 224.098 172.25C224.098 171.794 224.212 171.404 224.44 171.08C224.668 170.756 224.968 170.51 225.34 170.342C225.712 170.174 226.102 170.09 226.51 170.09C227.302 170.09 227.95 170.366 228.454 170.918C228.97 171.458 229.276 172.148 229.372 172.988C229.948 172.796 230.434 172.472 230.83 172.016C231.226 171.548 231.424 170.954 231.424 170.234C231.424 169.682 231.292 169.196 231.028 168.776C230.776 168.356 230.422 168.026 229.966 167.786C229.51 167.546 228.982 167.426 228.382 167.426C226.81 167.426 225.502 167.876 224.458 168.776C224.242 168.968 223.954 169.214 223.594 169.514C223.234 169.802 222.898 170.06 222.586 170.288L221.47 169.082C222.034 168.746 222.64 168.314 223.288 167.786C223.936 167.258 224.578 166.676 225.214 166.04C225.862 165.404 226.474 164.75 227.05 164.078C227.626 163.406 228.13 162.752 228.562 162.116C228.058 162.236 227.482 162.356 226.834 162.476C226.186 162.584 225.55 162.68 224.926 162.764C224.314 162.836 223.792 162.884 223.36 162.908L223.072 161.324C223.396 161.336 223.798 161.33 224.278 161.306C224.77 161.27 225.286 161.222 225.826 161.162C226.378 161.102 226.912 161.036 227.428 160.964C227.956 160.88 228.424 160.79 228.832 160.694C229.252 160.598 229.558 160.508 229.75 160.424L230.992 161.27C230.716 161.81 230.356 162.386 229.912 162.998C229.48 163.598 229 164.204 228.472 164.816C227.944 165.428 227.398 166.016 226.834 166.58C227.11 166.448 227.416 166.34 227.752 166.256C228.088 166.172 228.412 166.13 228.724 166.13C229.6 166.13 230.368 166.304 231.028 166.652C231.688 167 232.204 167.48 232.576 168.092C232.96 168.704 233.152 169.418 233.152 170.234C233.152 171.11 232.93 171.896 232.486 172.592C232.054 173.276 231.448 173.816 230.668 174.212C229.9 174.608 229.006 174.806 227.986 174.806ZM227.68 173.276H227.896C227.86 172.748 227.716 172.316 227.464 171.98C227.212 171.644 226.894 171.476 226.51 171.476C226.258 171.476 226.048 171.542 225.88 171.674C225.724 171.794 225.646 171.974 225.646 172.214C225.646 172.514 225.802 172.76 226.114 172.952C226.426 173.144 226.948 173.252 227.68 173.276ZM191.572 202.382C190.912 202.382 190.45 202.274 190.186 202.058C189.922 201.854 189.79 201.512 189.79 201.032V197.144L183.148 197.594L183.04 196.1L189.79 195.632V193.328L184.516 193.67L184.426 192.158L189.79 191.816V189.53C188.806 189.686 187.852 189.812 186.928 189.908C186.004 190.004 185.188 190.076 184.48 190.124C184.432 189.92 184.354 189.656 184.246 189.332C184.138 189.008 184.042 188.762 183.958 188.594C184.93 188.558 185.98 188.486 187.108 188.378C188.236 188.258 189.364 188.108 190.492 187.928C191.62 187.748 192.676 187.538 193.66 187.298C194.656 187.058 195.502 186.8 196.198 186.524L197.332 187.766C196.624 188.054 195.754 188.324 194.722 188.576C193.69 188.816 192.604 189.038 191.464 189.242V191.708L197.422 191.33L197.53 192.842L191.464 193.22V195.524L198.97 195.02L199.078 196.532L191.464 197.036V200.294C191.464 200.474 191.506 200.606 191.59 200.69C191.686 200.774 191.872 200.816 192.148 200.816H196.54C196.876 200.816 197.14 200.762 197.332 200.654C197.524 200.546 197.668 200.336 197.764 200.024C197.872 199.712 197.95 199.256 197.998 198.656C198.178 198.764 198.424 198.878 198.736 198.998C199.06 199.106 199.33 199.19 199.546 199.25C199.438 200.138 199.282 200.81 199.078 201.266C198.886 201.71 198.616 202.004 198.268 202.148C197.932 202.304 197.494 202.382 196.954 202.382H191.572ZM204.856 202.958C204.832 202.802 204.766 202.592 204.658 202.328C204.562 202.076 204.478 201.89 204.406 201.77C205.15 201.746 205.894 201.656 206.638 201.5C207.394 201.356 208.108 201.164 208.78 200.924C207.988 200.504 207.274 200 206.638 199.412C206.074 200.084 205.426 200.708 204.694 201.284C203.962 201.848 203.146 202.346 202.246 202.778C202.198 202.694 202.114 202.574 201.994 202.418C201.886 202.274 201.772 202.13 201.652 201.986C201.532 201.854 201.436 201.758 201.364 201.698C202.468 201.242 203.464 200.612 204.352 199.808C205.24 198.992 205.966 198.116 206.53 197.18H201.49V195.974H207.142C207.238 195.77 207.322 195.566 207.394 195.362C207.466 195.158 207.526 194.954 207.574 194.75L208.942 195.038C208.87 194.942 208.786 194.84 208.69 194.732C208.606 194.624 208.516 194.51 208.42 194.39C208.024 194.462 207.532 194.54 206.944 194.624C206.356 194.696 205.738 194.768 205.09 194.84C204.454 194.912 203.848 194.978 203.272 195.038C202.696 195.098 202.216 195.14 201.832 195.164L201.58 193.994C201.796 193.994 202.048 193.988 202.336 193.976C202.636 193.952 202.954 193.928 203.29 193.904C203.506 193.484 203.734 193.028 203.974 192.536H201.328V191.546H203.2V186.776H209.698V187.802H204.658V188.468H209.194V189.368H204.658V189.98H209.194V190.88H204.658V191.546H210.382V192.536H208.438C208.714 192.812 209.032 193.148 209.392 193.544C209.752 193.94 210.052 194.3 210.292 194.624C210.256 194.648 210.16 194.714 210.004 194.822C209.86 194.93 209.71 195.044 209.554 195.164C209.398 195.272 209.29 195.356 209.23 195.416C209.206 195.38 209.176 195.338 209.14 195.29C209.104 195.242 209.068 195.194 209.032 195.146C208.984 195.29 208.936 195.434 208.888 195.578C208.84 195.71 208.786 195.842 208.726 195.974H217.51V197.18H208.168C208.096 197.312 208.018 197.45 207.934 197.594C207.862 197.726 207.784 197.858 207.7 197.99H213.856L214.342 198.584C213.622 199.448 212.794 200.186 211.858 200.798C212.686 201.026 213.568 201.206 214.504 201.338C215.44 201.458 216.4 201.536 217.384 201.572C217.336 201.656 217.27 201.782 217.186 201.95C217.114 202.118 217.042 202.286 216.97 202.454C216.91 202.634 216.868 202.772 216.844 202.868C215.716 202.808 214.6 202.682 213.496 202.49C212.404 202.298 211.36 202.016 210.364 201.644C208.756 202.388 206.92 202.826 204.856 202.958ZM211.12 195.128C211.084 195.032 211.024 194.906 210.94 194.75C210.868 194.582 210.784 194.42 210.688 194.264C210.604 194.096 210.532 193.97 210.472 193.886C211.24 193.766 212.02 193.574 212.812 193.31C213.616 193.034 214.36 192.716 215.044 192.356C215.74 191.996 216.304 191.63 216.736 191.258L217.636 192.23C216.796 192.89 215.8 193.472 214.648 193.976C213.496 194.48 212.32 194.864 211.12 195.128ZM210.94 189.782C210.904 189.686 210.844 189.554 210.76 189.386C210.688 189.218 210.604 189.056 210.508 188.9C210.412 188.732 210.328 188.612 210.256 188.54C210.736 188.468 211.246 188.354 211.786 188.198C212.326 188.042 212.86 187.868 213.388 187.676C213.916 187.472 214.402 187.256 214.846 187.028C215.29 186.8 215.656 186.572 215.944 186.344L216.88 187.28C216.436 187.604 215.878 187.928 215.206 188.252C214.546 188.576 213.844 188.87 213.1 189.134C212.356 189.398 211.636 189.614 210.94 189.782ZM211.462 192.302C211.438 192.218 211.384 192.098 211.3 191.942C211.216 191.786 211.126 191.63 211.03 191.474C210.934 191.318 210.85 191.204 210.778 191.132C211.414 191 212.086 190.814 212.794 190.574C213.514 190.322 214.186 190.046 214.81 189.746C215.434 189.434 215.938 189.122 216.322 188.81L217.204 189.71C216.784 190.058 216.256 190.4 215.62 190.736C214.996 191.06 214.324 191.36 213.604 191.636C212.884 191.9 212.17 192.122 211.462 192.302ZM210.274 200.276C210.994 199.904 211.6 199.49 212.092 199.034H208.06C208.708 199.514 209.446 199.928 210.274 200.276ZM204.946 193.778C205.438 193.73 205.918 193.688 206.386 193.652C206.866 193.604 207.286 193.556 207.646 193.508C207.526 193.376 207.412 193.25 207.304 193.13C207.196 193.01 207.1 192.92 207.016 192.86L207.52 192.536H205.504C205.432 192.716 205.342 192.92 205.234 193.148C205.138 193.364 205.042 193.574 204.946 193.778Z" fill="#14AEFF"/>
</svg>
