<svg width="462" height="117" viewBox="0 0 462 117" fill="none" xmlns="http://www.w3.org/2000/svg">
<g style="mix-blend-mode:multiply">
<path d="M131.73 115.628C203.93 115.628 262.46 89.9677 262.46 58.314C262.46 26.6604 203.93 1 131.73 1C59.5298 1 1 26.6604 1 58.314C1 89.9677 59.5298 115.628 131.73 115.628Z" stroke="#14AEFF" stroke-width="1.5" stroke-miterlimit="10"/>
</g>
<g style="mix-blend-mode:multiply">
<path d="M329.73 115.628C401.93 115.628 460.46 89.9677 460.46 58.314C460.46 26.6604 401.93 1 329.73 1C257.53 1 199 26.6604 199 58.314C199 89.9677 257.53 115.628 329.73 115.628Z" stroke="#14AEFF" stroke-width="1.5" stroke-miterlimit="10"/>
</g>
<path d="M82.224 70.728V61.824C81.92 62.432 81.608 63.008 81.288 63.552C80.984 64.096 80.688 64.576 80.4 64.992C80.112 64.768 79.752 64.528 79.32 64.272C78.904 64.016 78.536 63.816 78.216 63.672C78.632 63.192 79.04 62.632 79.44 61.992C79.84 61.336 80.216 60.648 80.568 59.928C80.936 59.192 81.256 58.48 81.528 57.792C81.8 57.088 82.008 56.456 82.152 55.896H79.104V53.52H82.224V49.056H84.744V53.52H86.832V55.896H84.744V57.36C85.064 57.856 85.472 58.424 85.968 59.064C86.48 59.688 86.96 60.24 87.408 60.72V55.608H89.928V67.992H101.064V70.368H87.408V61.728C87.184 61.936 86.952 62.16 86.712 62.4C86.488 62.64 86.312 62.832 86.184 62.976C85.784 62.528 85.304 61.896 84.744 61.08V70.728H82.224ZM91.152 66.888V55.008H93.648V53.376H87.648V51.072H93.648V48.912H96.216V51.072H100.824V53.376H96.216V55.008H99.648V66.888H91.152ZM93.624 64.656H97.152V63.432H93.624V64.656ZM93.624 58.416H97.152V57.216H93.624V58.416ZM93.624 61.512H97.152V60.336H93.624V61.512ZM114.048 70.416C113.072 70.416 112.384 70.264 111.984 69.96C111.584 69.656 111.384 69.16 111.384 68.472V63.696L102.816 64.248L102.648 61.656L111.384 61.104V58.584L104.616 59.04L104.424 56.448L111.384 55.992V53.496C110.168 53.688 108.984 53.848 107.832 53.976C106.68 54.088 105.64 54.176 104.712 54.24C104.616 53.824 104.48 53.368 104.304 52.872C104.144 52.376 103.976 51.96 103.8 51.624C105.08 51.592 106.472 51.504 107.976 51.36C109.496 51.2 111.008 50.992 112.512 50.736C114.032 50.48 115.448 50.184 116.76 49.848C118.088 49.496 119.2 49.12 120.096 48.72L122.112 50.832C121.184 51.264 120.032 51.664 118.656 52.032C117.28 52.384 115.832 52.704 114.312 52.992V55.8L122.088 55.296L122.28 57.888L114.312 58.392V60.912L124.104 60.264L124.296 62.832L114.312 63.504V67.056C114.312 67.296 114.368 67.472 114.48 67.584C114.608 67.68 114.848 67.728 115.2 67.728H120.432C121.056 67.728 121.48 67.544 121.704 67.176C121.944 66.792 122.112 66.064 122.208 64.992C122.416 65.104 122.68 65.224 123 65.352C123.32 65.48 123.648 65.6 123.984 65.712C124.336 65.824 124.64 65.912 124.896 65.976C124.72 67.208 124.496 68.144 124.224 68.784C123.952 69.424 123.576 69.856 123.096 70.08C122.632 70.304 122.008 70.416 121.224 70.416H114.048ZM134.088 70.704C134.072 70.432 134.024 70.112 133.944 69.744C133.88 69.376 133.8 69.016 133.704 68.664C133.624 68.312 133.536 68.024 133.44 67.8H135.768C136.104 67.8 136.344 67.744 136.488 67.632C136.632 67.52 136.704 67.304 136.704 66.984V63.336H127.008V60.6H136.704V58.32H128.928V55.632H136.704V53.208C135.408 53.32 134.104 53.4 132.792 53.448C131.496 53.496 130.232 53.52 129 53.52C128.936 53.136 128.84 52.68 128.712 52.152C128.584 51.624 128.448 51.184 128.304 50.832C129.328 50.88 130.44 50.896 131.64 50.88C132.84 50.848 134.072 50.784 135.336 50.688C136.6 50.592 137.832 50.464 139.032 50.304C140.248 50.144 141.368 49.952 142.392 49.728C143.432 49.504 144.32 49.248 145.056 48.96L146.856 51.384C145.864 51.72 144.768 52.008 143.568 52.248C142.368 52.488 141.12 52.696 139.824 52.872V55.632H147.12V58.32H139.824V60.6H149.04V63.336H139.824V68.136C139.824 69.032 139.568 69.68 139.056 70.08C138.544 70.496 137.768 70.704 136.728 70.704H134.088ZM153.528 70.752V61.296C153.32 61.504 153.112 61.704 152.904 61.896C152.696 62.072 152.488 62.248 152.28 62.424C152.056 62.152 151.736 61.824 151.32 61.44C150.92 61.056 150.552 60.784 150.216 60.624C150.728 60.272 151.256 59.832 151.8 59.304C152.344 58.776 152.872 58.208 153.384 57.6C153.896 56.976 154.352 56.36 154.752 55.752C155.168 55.128 155.488 54.552 155.712 54.024L157.488 54.84V53.52H160.608V48.984H163.248V50.304L165.048 49.488C165.272 49.744 165.52 50.112 165.792 50.592C166.064 51.056 166.304 51.496 166.512 51.912V50.208H172.512V52.728H166.512V52.68C166.256 52.776 165.96 52.904 165.624 53.064C165.304 53.208 165.032 53.344 164.808 53.472C164.712 53.232 164.568 52.936 164.376 52.584C164.2 52.216 164.008 51.848 163.8 51.48C163.608 51.096 163.424 50.776 163.248 50.52V53.52H166.248V55.368H172.968V57.816H171.072V68.28C171.072 69.896 170.088 70.704 168.12 70.704H166.296C166.264 70.336 166.184 69.872 166.056 69.312C165.944 68.768 165.824 68.344 165.696 68.04H167.424C167.744 68.04 167.976 67.992 168.12 67.896C168.264 67.784 168.336 67.576 168.336 67.272V57.816H165.768V55.992H163.248V70.176H160.608V55.992H157.584C157.376 56.344 157.16 56.696 156.936 57.048C156.728 57.384 156.504 57.72 156.264 58.056V66C156.424 65.632 156.592 65.144 156.768 64.536C156.944 63.912 157.104 63.224 157.248 62.472C157.392 61.72 157.512 60.96 157.608 60.192C157.72 59.408 157.784 58.672 157.8 57.984L160.056 58.152C160.024 59.096 159.936 60.112 159.792 61.2C159.664 62.288 159.496 63.328 159.288 64.32C159.096 65.296 158.88 66.104 158.64 66.744C158.304 66.6 157.904 66.472 157.44 66.36C156.992 66.232 156.6 66.152 156.264 66.12V70.752H153.528ZM164.952 66.336C164.936 65.872 164.88 65.272 164.784 64.536C164.688 63.8 164.576 63.032 164.448 62.232C164.32 61.432 164.184 60.68 164.04 59.976C163.912 59.272 163.784 58.72 163.656 58.32L165.96 57.936C166.12 58.4 166.28 58.976 166.44 59.664C166.6 60.336 166.744 61.056 166.872 61.824C167.016 62.576 167.136 63.304 167.232 64.008C167.344 64.712 167.424 65.32 167.472 65.832C167.264 65.848 166.992 65.888 166.656 65.952C166.336 66.016 166.016 66.08 165.696 66.144C165.392 66.208 165.144 66.272 164.952 66.336ZM152.448 55.224C152.24 54.856 151.952 54.472 151.584 54.072C151.232 53.672 150.896 53.368 150.576 53.16C151.2 52.824 151.832 52.424 152.472 51.96C153.112 51.496 153.696 51.016 154.224 50.52C154.752 50.008 155.168 49.536 155.472 49.104L157.632 50.688C157.216 51.184 156.712 51.72 156.12 52.296C155.544 52.856 154.936 53.392 154.296 53.904C153.656 54.416 153.04 54.856 152.448 55.224ZM185.671 64.176L185.287 59.28C186.455 59.184 187.343 58.928 187.951 58.512C188.559 58.096 188.863 57.48 188.863 56.664C188.863 55.96 188.671 55.408 188.287 55.008C187.919 54.592 187.391 54.384 186.703 54.384C186.047 54.384 185.519 54.592 185.119 55.008C184.735 55.408 184.479 55.92 184.351 56.544L181.591 56.088C181.703 55.256 181.983 54.528 182.431 53.904C182.895 53.28 183.495 52.792 184.231 52.44C184.967 52.088 185.791 51.912 186.703 51.912C187.695 51.912 188.567 52.104 189.319 52.488C190.087 52.856 190.687 53.4 191.119 54.12C191.551 54.824 191.767 55.672 191.767 56.664C191.767 57.8 191.415 58.72 190.711 59.424C190.023 60.128 189.103 60.624 187.951 60.912L187.735 64.176H185.671ZM186.703 69.336C186.207 69.336 185.775 69.16 185.407 68.808C185.055 68.456 184.879 68.032 184.879 67.536C184.879 67.024 185.055 66.592 185.407 66.24C185.775 65.888 186.207 65.712 186.703 65.712C187.215 65.712 187.647 65.888 187.999 66.24C188.367 66.592 188.551 67.024 188.551 67.536C188.551 68.032 188.367 68.456 187.999 68.808C187.647 69.16 187.215 69.336 186.703 69.336Z" fill="#14AEFF"/>
<path d="M287.656 70.752V66.6C286.872 67.144 286.016 67.68 285.088 68.208C284.176 68.72 283.256 69.184 282.328 69.6C281.4 70.032 280.528 70.384 279.712 70.656C279.568 70.288 279.36 69.888 279.088 69.456C278.832 69.04 278.584 68.712 278.344 68.472C279.048 68.28 279.824 68.024 280.672 67.704C281.52 67.368 282.376 67 283.24 66.6C284.12 66.184 284.936 65.752 285.688 65.304H278.176V63.216H287.656V62.256H284.536V54.624H287.128C287.256 54.304 287.392 53.976 287.536 53.64C287.68 53.288 287.792 52.992 287.872 52.752L290.272 53.376C290.24 53.472 290.168 53.64 290.056 53.88C289.944 54.12 289.824 54.368 289.696 54.624H293.536V62.256H290.344V63.216H299.992V65.304H292.288C293.04 65.752 293.848 66.184 294.712 66.6C295.592 67 296.464 67.368 297.328 67.704C298.192 68.024 298.968 68.28 299.656 68.472C299.416 68.712 299.16 69.04 298.888 69.456C298.632 69.888 298.432 70.288 298.288 70.656C297.488 70.384 296.616 70.032 295.672 69.6C294.744 69.184 293.816 68.72 292.888 68.208C291.976 67.68 291.128 67.144 290.344 66.6V70.752H287.656ZM283.96 54.048V52.632H278.464V50.568H283.96V48.888H286.648V50.568H291.304V48.888H293.992V50.568H299.392V52.632H293.992V54.048H291.304V52.632H286.648V54.048H283.96ZM279.256 62.784L278.32 60.384C278.656 60.288 279.056 60.152 279.52 59.976C280 59.8 280.488 59.6 280.984 59.376C281.48 59.152 281.952 58.928 282.4 58.704C282.848 58.48 283.216 58.28 283.504 58.104C283.52 58.232 283.544 58.448 283.576 58.752C283.608 59.04 283.648 59.344 283.696 59.664C283.744 59.968 283.784 60.224 283.816 60.432C283.48 60.672 283.04 60.936 282.496 61.224C281.968 61.512 281.416 61.792 280.84 62.064C280.264 62.336 279.736 62.576 279.256 62.784ZM298.36 62.664C297.768 62.248 297.08 61.824 296.296 61.392C295.512 60.96 294.776 60.616 294.088 60.36L295.216 58.272C296.016 58.592 296.824 58.968 297.64 59.4C298.456 59.816 299.144 60.2 299.704 60.552C299.464 60.856 299.216 61.224 298.96 61.656C298.704 62.072 298.504 62.408 298.36 62.664ZM282.4 58.008C281.84 57.496 281.232 57 280.576 56.52C279.936 56.04 279.312 55.64 278.704 55.32L280.288 53.448C280.864 53.768 281.504 54.176 282.208 54.672C282.912 55.152 283.536 55.624 284.08 56.088C283.824 56.312 283.52 56.632 283.168 57.048C282.832 57.448 282.576 57.768 282.4 58.008ZM295.48 57.864C295.304 57.576 295.064 57.256 294.76 56.904C294.472 56.536 294.208 56.248 293.968 56.04C294.304 55.832 294.696 55.568 295.144 55.248C295.592 54.928 296.024 54.592 296.44 54.24C296.872 53.888 297.208 53.584 297.448 53.328L299.248 55.104C298.672 55.632 298.032 56.144 297.328 56.64C296.64 57.136 296.024 57.544 295.48 57.864ZM287.056 60.504H291.016V59.304H287.056V60.504ZM287.056 57.552H291.016V56.376H287.056V57.552ZM306.016 70.752V63.312C305.264 63.6 304.56 63.856 303.904 64.08C303.248 64.304 302.744 64.464 302.392 64.56L301.744 61.656C302.192 61.56 302.8 61.392 303.568 61.152C304.352 60.912 305.168 60.656 306.016 60.384V55.992H304.624C304.512 56.584 304.392 57.144 304.264 57.672C304.136 58.2 304.008 58.648 303.88 59.016C303.704 58.952 303.456 58.888 303.136 58.824C302.832 58.76 302.52 58.704 302.2 58.656C301.88 58.592 301.6 58.56 301.36 58.56C301.616 57.888 301.84 57.12 302.032 56.256C302.24 55.392 302.408 54.504 302.536 53.592C302.664 52.68 302.736 51.824 302.752 51.024L305.224 51.288C305.208 51.576 305.184 51.912 305.152 52.296C305.12 52.664 305.08 53.056 305.032 53.472H306.016V48.888H308.776V53.472H310.648V55.416C311.144 54.392 311.576 53.32 311.944 52.2C312.312 51.064 312.568 50.008 312.712 49.032L315.352 49.416C315.128 50.648 314.784 51.944 314.32 53.304H323.464C323.464 54.392 323.44 55.544 323.392 56.76C323.36 57.976 323.304 59.176 323.224 60.36C323.16 61.528 323.08 62.6 322.984 63.576C322.904 64.552 322.816 65.352 322.72 65.976C322.544 67.256 322.264 68.24 321.88 68.928C321.496 69.6 320.984 70.056 320.344 70.296C319.704 70.552 318.88 70.68 317.872 70.68H316.36C316.328 70.408 316.28 70.088 316.216 69.72C316.152 69.352 316.072 68.992 315.976 68.64C315.896 68.272 315.808 67.976 315.712 67.752H317.704C318.36 67.752 318.856 67.6 319.192 67.296C319.544 66.976 319.808 66.368 319.984 65.472C320.064 65.088 320.152 64.552 320.248 63.864C320.344 63.176 320.432 62.392 320.512 61.512C320.608 60.616 320.688 59.68 320.752 58.704C320.816 57.712 320.848 56.728 320.848 55.752H320.104C319.8 58.232 319.272 60.36 318.52 62.136C317.768 63.896 316.784 65.408 315.568 66.672C314.368 67.936 312.928 69.08 311.248 70.104C311.072 69.736 310.792 69.336 310.408 68.904C310.04 68.456 309.712 68.128 309.424 67.92C311.792 66.784 313.648 65.216 314.992 63.216C316.352 61.2 317.256 58.712 317.704 55.752H316.576C316.224 57.832 315.568 59.712 314.608 61.392C313.664 63.056 312.352 64.504 310.672 65.736C310.464 65.432 310.168 65.096 309.784 64.728C309.416 64.344 309.08 64.048 308.776 63.84V70.752H306.016ZM308.776 63.816C310.248 62.92 311.432 61.776 312.328 60.384C313.224 58.992 313.856 57.448 314.224 55.752H313.336C313.064 56.344 312.768 56.92 312.448 57.48C312.144 58.04 311.824 58.56 311.488 59.04C311.152 58.816 310.752 58.592 310.288 58.368C309.824 58.144 309.448 58 309.16 57.936C309.368 57.664 309.568 57.36 309.76 57.024C309.968 56.688 310.168 56.344 310.36 55.992H308.776V59.448C309.224 59.288 309.624 59.144 309.976 59.016C310.328 58.888 310.6 58.784 310.792 58.704V61.368C310.312 61.608 309.64 61.896 308.776 62.232V63.816ZM333.808 70.344V60.672H346.072V70.344H333.808ZM345.904 60.024C345.744 59.752 345.552 59.448 345.328 59.112C345.12 58.76 344.88 58.392 344.608 58.008C343.968 58.12 343.224 58.232 342.376 58.344C341.544 58.44 340.664 58.544 339.736 58.656C338.808 58.752 337.888 58.848 336.976 58.944C336.08 59.024 335.232 59.096 334.432 59.16C333.648 59.224 332.984 59.272 332.44 59.304L331.84 56.544C332.176 56.528 332.568 56.512 333.016 56.496C333.464 56.464 333.936 56.44 334.432 56.424C334.752 55.848 335.08 55.208 335.416 54.504C335.768 53.784 336.096 53.056 336.4 52.32C336.704 51.568 336.976 50.872 337.216 50.232C337.472 49.576 337.664 49.032 337.792 48.6L340.792 49.392C340.664 49.744 340.472 50.2 340.216 50.76C339.976 51.304 339.696 51.904 339.376 52.56C339.072 53.2 338.76 53.84 338.44 54.48C338.12 55.104 337.816 55.68 337.528 56.208C338.472 56.128 339.408 56.048 340.336 55.968C341.264 55.888 342.112 55.808 342.88 55.728C342.56 55.312 342.232 54.92 341.896 54.552C341.576 54.184 341.264 53.872 340.96 53.616L343.072 52.008C343.488 52.376 343.936 52.824 344.416 53.352C344.912 53.88 345.408 54.448 345.904 55.056C346.4 55.664 346.864 56.264 347.296 56.856C347.744 57.448 348.112 58 348.4 58.512C348 58.672 347.568 58.904 347.104 59.208C346.64 59.496 346.24 59.768 345.904 60.024ZM336.736 67.872H343.144V63.12H336.736V67.872ZM328.696 70.632L326.152 68.88C326.52 68.4 326.896 67.832 327.28 67.176C327.664 66.52 328.04 65.832 328.408 65.112C328.776 64.376 329.104 63.664 329.392 62.976C329.696 62.288 329.928 61.672 330.088 61.128C330.296 61.304 330.544 61.504 330.832 61.728C331.12 61.936 331.408 62.144 331.696 62.352C332 62.544 332.256 62.704 332.464 62.832C332.288 63.392 332.056 64.024 331.768 64.728C331.48 65.416 331.152 66.128 330.784 66.864C330.432 67.584 330.072 68.272 329.704 68.928C329.352 69.584 329.016 70.152 328.696 70.632ZM331.48 54.336C331.192 54.08 330.784 53.768 330.256 53.4C329.744 53.032 329.2 52.68 328.624 52.344C328.064 52.008 327.576 51.76 327.16 51.6L328.648 49.224C329.08 49.4 329.584 49.656 330.16 49.992C330.752 50.312 331.32 50.648 331.864 51C332.408 51.352 332.832 51.656 333.136 51.912C333.008 52.056 332.832 52.288 332.608 52.608C332.384 52.928 332.16 53.256 331.936 53.592C331.728 53.912 331.576 54.16 331.48 54.336ZM330.04 59.784C329.752 59.528 329.344 59.224 328.816 58.872C328.304 58.52 327.768 58.184 327.208 57.864C326.648 57.544 326.16 57.296 325.744 57.12L327.184 54.696C327.664 54.92 328.176 55.184 328.72 55.488C329.28 55.776 329.816 56.08 330.328 56.4C330.856 56.704 331.296 57 331.648 57.288C331.504 57.464 331.328 57.712 331.12 58.032C330.912 58.336 330.704 58.648 330.496 58.968C330.304 59.288 330.152 59.56 330.04 59.784ZM360.928 70.872C360.896 70.52 360.824 70.104 360.712 69.624C360.616 69.144 360.504 68.768 360.376 68.496H361.6C361.888 68.496 362.096 68.448 362.224 68.352C362.352 68.256 362.416 68.064 362.416 67.776V65.64H358.48V61.488C358.208 61.696 357.928 61.904 357.64 62.112C357.352 62.304 357.056 62.496 356.752 62.688C356.448 62.224 356.064 61.784 355.6 61.368C355.424 63.208 355.048 64.896 354.472 66.432C353.896 67.968 353.112 69.304 352.12 70.44C351.848 70.2 351.504 69.944 351.088 69.672C350.672 69.416 350.296 69.224 349.96 69.096C350.824 68.136 351.496 67.064 351.976 65.88C352.472 64.68 352.808 63.328 352.984 61.824C352.568 62.032 352.104 62.248 351.592 62.472C351.096 62.68 350.664 62.864 350.296 63.024L349.48 60.36C349.768 60.264 350.136 60.144 350.584 60C351.048 59.856 351.512 59.696 351.976 59.52C352.44 59.344 352.832 59.192 353.152 59.064V57.144C352.848 57.288 352.512 57.456 352.144 57.648C351.776 57.84 351.48 58.008 351.256 58.152C351.144 57.816 350.976 57.408 350.752 56.928C350.544 56.448 350.32 55.968 350.08 55.488C349.84 55.008 349.608 54.6 349.384 54.264L351.472 53.184C351.696 53.536 351.968 54.016 352.288 54.624C352.608 55.216 352.896 55.784 353.152 56.328V50.712H360.928V48.816H363.784V50.712H371.632V52.968H364.384C364.32 53.176 364.248 53.384 364.168 53.592C364.104 53.8 364.032 54 363.952 54.192H371.536V56.28H369.76L371.248 57.384C371.024 57.624 370.768 57.888 370.48 58.176C370.192 58.448 369.888 58.72 369.568 58.992C370.032 59.296 370.512 59.584 371.008 59.856C371.52 60.128 372.048 60.376 372.592 60.6C372.336 60.808 372.064 61.112 371.776 61.512C371.488 61.912 371.256 62.28 371.08 62.616C370.68 62.408 370.288 62.2 369.904 61.992C369.52 61.768 369.144 61.536 368.776 61.296V65.64H364.936V68.64C364.936 69.424 364.712 69.992 364.264 70.344C363.816 70.696 363.144 70.872 362.248 70.872H360.928ZM370.528 70.56C369.728 70.192 368.896 69.704 368.032 69.096C367.168 68.504 366.432 67.912 365.824 67.32L367.528 65.712C368.088 66.256 368.792 66.776 369.64 67.272C370.504 67.768 371.304 68.16 372.04 68.448C371.752 68.704 371.464 69.04 371.176 69.456C370.888 69.888 370.672 70.256 370.528 70.56ZM356.68 70.536C356.552 70.248 356.336 69.888 356.032 69.456C355.744 69.024 355.464 68.688 355.192 68.448C355.944 68.16 356.736 67.768 357.568 67.272C358.416 66.776 359.12 66.256 359.68 65.712L361.408 67.32C360.784 67.928 360.04 68.52 359.176 69.096C358.328 69.688 357.496 70.168 356.68 70.536ZM355.672 60.672C356.072 60.432 356.448 60.176 356.8 59.904C357.168 59.632 357.512 59.352 357.832 59.064C357.288 58.52 356.728 58.056 356.152 57.672L357.568 56.28H356.176V54.192H361.288C361.464 53.776 361.608 53.368 361.72 52.968H355.744V58.584C355.744 59.304 355.72 60 355.672 60.672ZM361.432 58.656H365.68C365.36 58.288 365.048 57.912 364.744 57.528C364.456 57.128 364.176 56.712 363.904 56.28H362.992C362.768 56.712 362.52 57.128 362.248 57.528C361.992 57.912 361.72 58.288 361.432 58.656ZM361.144 63.768H366.112V62.856H361.144V63.768ZM361.144 61.32H366.112V60.456H361.144V61.32ZM367.936 57.744C368.16 57.52 368.392 57.288 368.632 57.048C368.872 56.792 369.096 56.536 369.304 56.28H366.568C366.952 56.776 367.408 57.264 367.936 57.744ZM359.272 57.576C359.448 57.352 359.616 57.136 359.776 56.928C359.936 56.72 360.088 56.504 360.232 56.28H357.688C357.944 56.456 358.208 56.664 358.48 56.904C358.752 57.128 359.016 57.352 359.272 57.576ZM384.671 64.176L384.287 59.28C385.455 59.184 386.343 58.928 386.951 58.512C387.559 58.096 387.863 57.48 387.863 56.664C387.863 55.96 387.671 55.408 387.287 55.008C386.919 54.592 386.391 54.384 385.703 54.384C385.047 54.384 384.519 54.592 384.119 55.008C383.735 55.408 383.479 55.92 383.351 56.544L380.591 56.088C380.703 55.256 380.983 54.528 381.431 53.904C381.895 53.28 382.495 52.792 383.231 52.44C383.967 52.088 384.791 51.912 385.703 51.912C386.695 51.912 387.567 52.104 388.319 52.488C389.087 52.856 389.687 53.4 390.119 54.12C390.551 54.824 390.767 55.672 390.767 56.664C390.767 57.8 390.415 58.72 389.711 59.424C389.023 60.128 388.103 60.624 386.951 60.912L386.735 64.176H384.671ZM385.703 69.336C385.207 69.336 384.775 69.16 384.407 68.808C384.055 68.456 383.879 68.032 383.879 67.536C383.879 67.024 384.055 66.592 384.407 66.24C384.775 65.888 385.207 65.712 385.703 65.712C386.215 65.712 386.647 65.888 386.999 66.24C387.367 66.592 387.551 67.024 387.551 67.536C387.551 68.032 387.367 68.456 386.999 68.808C386.647 69.16 386.215 69.336 385.703 69.336Z" fill="#14AEFF"/>
<path d="M225.954 67.22C225.101 67.22 224.341 67.0067 223.674 66.58C223.008 66.1533 222.481 65.5667 222.094 64.82C221.708 64.06 221.514 63.1867 221.514 62.2C221.514 61.2133 221.708 60.3467 222.094 59.6C222.481 58.84 223.008 58.2467 223.674 57.82C224.341 57.3933 225.101 57.18 225.954 57.18C226.821 57.18 227.588 57.3933 228.254 57.82C228.921 58.2467 229.448 58.84 229.834 59.6C230.221 60.3467 230.414 61.2133 230.414 62.2C230.414 63.1867 230.221 64.06 229.834 64.82C229.448 65.5667 228.921 66.1533 228.254 66.58C227.588 67.0067 226.821 67.22 225.954 67.22ZM225.954 66.08C226.581 66.08 227.134 65.92 227.614 65.6C228.108 65.28 228.494 64.8333 228.774 64.26C229.054 63.6733 229.194 62.9867 229.194 62.2C229.194 61.4133 229.054 60.7333 228.774 60.16C228.494 59.5733 228.108 59.12 227.614 58.8C227.134 58.48 226.581 58.32 225.954 58.32C225.021 58.32 224.248 58.6733 223.634 59.38C223.034 60.0733 222.734 61.0133 222.734 62.2C222.734 63.3733 223.034 64.3133 223.634 65.02C224.248 65.7267 225.021 66.08 225.954 66.08ZM232.835 67V57.42H233.995L234.055 59.08C234.322 58.52 234.742 58.0667 235.315 57.72C235.902 57.36 236.549 57.18 237.255 57.18C237.442 57.18 237.629 57.1933 237.815 57.22C238.015 57.2333 238.182 57.26 238.315 57.3V58.48C238.195 58.4533 238.022 58.4267 237.795 58.4C237.582 58.3733 237.362 58.36 237.135 58.36C236.575 58.36 236.062 58.4933 235.595 58.76C235.129 59.0133 234.755 59.36 234.475 59.8C234.209 60.2267 234.075 60.7133 234.075 61.26V67H232.835Z" fill="#14AEFF"/>
</svg>
