<svg width="327" height="255" viewBox="0 0 327 255" fill="none" xmlns="http://www.w3.org/2000/svg">
<g style="mix-blend-mode:multiply">
<path d="M163.328 143.313C252.966 143.313 325.632 111.455 325.632 72.1566C325.632 32.8579 252.966 1 163.328 1C73.6895 1 1.02344 32.8579 1.02344 72.1566C1.02344 111.455 73.6895 143.313 163.328 143.313Z" stroke="#14AEFF" stroke-width="1.5" stroke-miterlimit="10"/>
</g>
<g style="mix-blend-mode:multiply">
<path d="M163.671 253.313C253.309 253.313 325.975 221.455 325.975 182.157C325.975 142.858 253.309 111 163.671 111C74.0332 111 1.36719 142.858 1.36719 182.157C1.36719 221.455 74.0332 253.313 163.671 253.313Z" stroke="#14AEFF" stroke-width="1.5" stroke-miterlimit="10"/>
</g>
<path d="M110.431 83.728V74.824C110.127 75.432 109.815 76.008 109.495 76.552C109.191 77.096 108.895 77.576 108.607 77.992C108.319 77.768 107.959 77.528 107.527 77.272C107.111 77.016 106.743 76.816 106.423 76.672C106.839 76.192 107.247 75.632 107.647 74.992C108.047 74.336 108.423 73.648 108.775 72.928C109.143 72.192 109.463 71.48 109.735 70.792C110.007 70.088 110.215 69.456 110.359 68.896H107.311V66.52H110.431V62.056H112.951V66.52H115.039V68.896H112.951V70.36C113.271 70.856 113.679 71.424 114.175 72.064C114.687 72.688 115.167 73.24 115.615 73.72V68.608H118.135V80.992H129.271V83.368H115.615V74.728C115.391 74.936 115.159 75.16 114.919 75.4C114.695 75.64 114.519 75.832 114.391 75.976C113.991 75.528 113.511 74.896 112.951 74.08V83.728H110.431ZM119.359 79.888V68.008H121.855V66.376H115.855V64.072H121.855V61.912H124.423V64.072H129.031V66.376H124.423V68.008H127.855V79.888H119.359ZM121.831 77.656H125.359V76.432H121.831V77.656ZM121.831 71.416H125.359V70.216H121.831V71.416ZM121.831 74.512H125.359V73.336H121.831V74.512ZM142.255 83.416C141.279 83.416 140.591 83.264 140.191 82.96C139.791 82.656 139.591 82.16 139.591 81.472V76.696L131.023 77.248L130.855 74.656L139.591 74.104V71.584L132.823 72.04L132.631 69.448L139.591 68.992V66.496C138.375 66.688 137.191 66.848 136.039 66.976C134.887 67.088 133.847 67.176 132.919 67.24C132.823 66.824 132.687 66.368 132.511 65.872C132.351 65.376 132.183 64.96 132.007 64.624C133.287 64.592 134.679 64.504 136.183 64.36C137.703 64.2 139.215 63.992 140.719 63.736C142.239 63.48 143.655 63.184 144.967 62.848C146.295 62.496 147.407 62.12 148.303 61.72L150.319 63.832C149.391 64.264 148.239 64.664 146.863 65.032C145.487 65.384 144.039 65.704 142.519 65.992V68.8L150.295 68.296L150.487 70.888L142.519 71.392V73.912L152.311 73.264L152.503 75.832L142.519 76.504V80.056C142.519 80.296 142.575 80.472 142.687 80.584C142.815 80.68 143.055 80.728 143.407 80.728H148.639C149.263 80.728 149.687 80.544 149.911 80.176C150.151 79.792 150.319 79.064 150.415 77.992C150.623 78.104 150.887 78.224 151.207 78.352C151.527 78.48 151.855 78.6 152.191 78.712C152.543 78.824 152.847 78.912 153.103 78.976C152.927 80.208 152.703 81.144 152.431 81.784C152.159 82.424 151.783 82.856 151.303 83.08C150.839 83.304 150.215 83.416 149.431 83.416H142.255ZM162.295 83.704C162.279 83.432 162.231 83.112 162.151 82.744C162.087 82.376 162.007 82.016 161.911 81.664C161.831 81.312 161.743 81.024 161.647 80.8H163.975C164.311 80.8 164.551 80.744 164.695 80.632C164.839 80.52 164.911 80.304 164.911 79.984V76.336H155.215V73.6H164.911V71.32H157.135V68.632H164.911V66.208C163.615 66.32 162.311 66.4 160.999 66.448C159.703 66.496 158.439 66.52 157.207 66.52C157.143 66.136 157.047 65.68 156.919 65.152C156.791 64.624 156.655 64.184 156.511 63.832C157.535 63.88 158.647 63.896 159.847 63.88C161.047 63.848 162.279 63.784 163.543 63.688C164.807 63.592 166.039 63.464 167.239 63.304C168.455 63.144 169.575 62.952 170.599 62.728C171.639 62.504 172.527 62.248 173.263 61.96L175.063 64.384C174.071 64.72 172.975 65.008 171.775 65.248C170.575 65.488 169.327 65.696 168.031 65.872V68.632H175.327V71.32H168.031V73.6H177.247V76.336H168.031V81.136C168.031 82.032 167.775 82.68 167.263 83.08C166.751 83.496 165.975 83.704 164.935 83.704H162.295ZM181.735 83.752V74.296C181.527 74.504 181.319 74.704 181.111 74.896C180.903 75.072 180.695 75.248 180.487 75.424C180.263 75.152 179.943 74.824 179.527 74.44C179.127 74.056 178.759 73.784 178.423 73.624C178.935 73.272 179.463 72.832 180.007 72.304C180.551 71.776 181.079 71.208 181.591 70.6C182.103 69.976 182.559 69.36 182.959 68.752C183.375 68.128 183.695 67.552 183.919 67.024L185.695 67.84V66.52H188.815V61.984H191.455V63.304L193.255 62.488C193.479 62.744 193.727 63.112 193.999 63.592C194.271 64.056 194.511 64.496 194.719 64.912V63.208H200.719V65.728H194.719V65.68C194.463 65.776 194.167 65.904 193.831 66.064C193.511 66.208 193.239 66.344 193.015 66.472C192.919 66.232 192.775 65.936 192.583 65.584C192.407 65.216 192.215 64.848 192.007 64.48C191.815 64.096 191.631 63.776 191.455 63.52V66.52H194.455V68.368H201.175V70.816H199.279V81.28C199.279 82.896 198.295 83.704 196.327 83.704H194.503C194.471 83.336 194.391 82.872 194.263 82.312C194.151 81.768 194.031 81.344 193.903 81.04H195.631C195.951 81.04 196.183 80.992 196.327 80.896C196.471 80.784 196.543 80.576 196.543 80.272V70.816H193.975V68.992H191.455V83.176H188.815V68.992H185.791C185.583 69.344 185.367 69.696 185.143 70.048C184.935 70.384 184.711 70.72 184.471 71.056V79C184.631 78.632 184.799 78.144 184.975 77.536C185.151 76.912 185.311 76.224 185.455 75.472C185.599 74.72 185.719 73.96 185.815 73.192C185.927 72.408 185.991 71.672 186.007 70.984L188.263 71.152C188.231 72.096 188.143 73.112 187.999 74.2C187.871 75.288 187.703 76.328 187.495 77.32C187.303 78.296 187.087 79.104 186.847 79.744C186.511 79.6 186.111 79.472 185.647 79.36C185.199 79.232 184.807 79.152 184.471 79.12V83.752H181.735ZM193.159 79.336C193.143 78.872 193.087 78.272 192.991 77.536C192.895 76.8 192.783 76.032 192.655 75.232C192.527 74.432 192.391 73.68 192.247 72.976C192.119 72.272 191.991 71.72 191.863 71.32L194.167 70.936C194.327 71.4 194.487 71.976 194.647 72.664C194.807 73.336 194.951 74.056 195.079 74.824C195.223 75.576 195.343 76.304 195.439 77.008C195.551 77.712 195.631 78.32 195.679 78.832C195.471 78.848 195.199 78.888 194.863 78.952C194.543 79.016 194.223 79.08 193.903 79.144C193.599 79.208 193.351 79.272 193.159 79.336ZM180.655 68.224C180.447 67.856 180.159 67.472 179.791 67.072C179.439 66.672 179.103 66.368 178.783 66.16C179.407 65.824 180.039 65.424 180.679 64.96C181.319 64.496 181.903 64.016 182.431 63.52C182.959 63.008 183.375 62.536 183.679 62.104L185.839 63.688C185.423 64.184 184.919 64.72 184.327 65.296C183.751 65.856 183.143 66.392 182.503 66.904C181.863 67.416 181.247 67.856 180.655 68.224ZM213.878 77.176L213.494 72.28C214.662 72.184 215.55 71.928 216.158 71.512C216.766 71.096 217.07 70.48 217.07 69.664C217.07 68.96 216.878 68.408 216.494 68.008C216.126 67.592 215.598 67.384 214.91 67.384C214.254 67.384 213.726 67.592 213.326 68.008C212.942 68.408 212.686 68.92 212.558 69.544L209.798 69.088C209.91 68.256 210.19 67.528 210.638 66.904C211.102 66.28 211.702 65.792 212.438 65.44C213.174 65.088 213.998 64.912 214.91 64.912C215.902 64.912 216.774 65.104 217.526 65.488C218.294 65.856 218.894 66.4 219.326 67.12C219.758 67.824 219.974 68.672 219.974 69.664C219.974 70.8 219.622 71.72 218.918 72.424C218.23 73.128 217.31 73.624 216.158 73.912L215.942 77.176H213.878ZM214.91 82.336C214.414 82.336 213.982 82.16 213.614 81.808C213.262 81.456 213.086 81.032 213.086 80.536C213.086 80.024 213.262 79.592 213.614 79.24C213.982 78.888 214.414 78.712 214.91 78.712C215.422 78.712 215.854 78.888 216.206 79.24C216.574 79.592 216.758 80.024 216.758 80.536C216.758 81.032 216.574 81.456 216.206 81.808C215.854 82.16 215.422 82.336 214.91 82.336Z" fill="#14AEFF"/>
<path d="M116.863 194.752V190.6C116.079 191.144 115.223 191.68 114.295 192.208C113.383 192.72 112.463 193.184 111.535 193.6C110.607 194.032 109.735 194.384 108.919 194.656C108.775 194.288 108.567 193.888 108.295 193.456C108.039 193.04 107.791 192.712 107.551 192.472C108.255 192.28 109.031 192.024 109.879 191.704C110.727 191.368 111.583 191 112.447 190.6C113.327 190.184 114.143 189.752 114.895 189.304H107.383V187.216H116.863V186.256H113.743V178.624H116.335C116.463 178.304 116.599 177.976 116.743 177.64C116.887 177.288 116.999 176.992 117.079 176.752L119.479 177.376C119.447 177.472 119.375 177.64 119.263 177.88C119.151 178.12 119.031 178.368 118.903 178.624H122.743V186.256H119.551V187.216H129.199V189.304H121.495C122.247 189.752 123.055 190.184 123.919 190.6C124.799 191 125.671 191.368 126.535 191.704C127.399 192.024 128.175 192.28 128.863 192.472C128.623 192.712 128.367 193.04 128.095 193.456C127.839 193.888 127.639 194.288 127.495 194.656C126.695 194.384 125.823 194.032 124.879 193.6C123.951 193.184 123.023 192.72 122.095 192.208C121.183 191.68 120.335 191.144 119.551 190.6V194.752H116.863ZM113.167 178.048V176.632H107.671V174.568H113.167V172.888H115.855V174.568H120.511V172.888H123.199V174.568H128.599V176.632H123.199V178.048H120.511V176.632H115.855V178.048H113.167ZM108.463 186.784L107.527 184.384C107.863 184.288 108.263 184.152 108.727 183.976C109.207 183.8 109.695 183.6 110.191 183.376C110.687 183.152 111.159 182.928 111.607 182.704C112.055 182.48 112.423 182.28 112.711 182.104C112.727 182.232 112.751 182.448 112.783 182.752C112.815 183.04 112.855 183.344 112.903 183.664C112.951 183.968 112.991 184.224 113.023 184.432C112.687 184.672 112.247 184.936 111.703 185.224C111.175 185.512 110.623 185.792 110.047 186.064C109.471 186.336 108.943 186.576 108.463 186.784ZM127.567 186.664C126.975 186.248 126.287 185.824 125.503 185.392C124.719 184.96 123.983 184.616 123.295 184.36L124.423 182.272C125.223 182.592 126.031 182.968 126.847 183.4C127.663 183.816 128.351 184.2 128.911 184.552C128.671 184.856 128.423 185.224 128.167 185.656C127.911 186.072 127.711 186.408 127.567 186.664ZM111.607 182.008C111.047 181.496 110.439 181 109.783 180.52C109.143 180.04 108.519 179.64 107.911 179.32L109.495 177.448C110.071 177.768 110.711 178.176 111.415 178.672C112.119 179.152 112.743 179.624 113.287 180.088C113.031 180.312 112.727 180.632 112.375 181.048C112.039 181.448 111.783 181.768 111.607 182.008ZM124.687 181.864C124.511 181.576 124.271 181.256 123.967 180.904C123.679 180.536 123.415 180.248 123.175 180.04C123.511 179.832 123.903 179.568 124.351 179.248C124.799 178.928 125.231 178.592 125.647 178.24C126.079 177.888 126.415 177.584 126.655 177.328L128.455 179.104C127.879 179.632 127.239 180.144 126.535 180.64C125.847 181.136 125.231 181.544 124.687 181.864ZM116.263 184.504H120.223V183.304H116.263V184.504ZM116.263 181.552H120.223V180.376H116.263V181.552ZM135.223 194.752V187.312C134.471 187.6 133.767 187.856 133.111 188.08C132.455 188.304 131.951 188.464 131.599 188.56L130.951 185.656C131.399 185.56 132.007 185.392 132.775 185.152C133.559 184.912 134.375 184.656 135.223 184.384V179.992H133.831C133.719 180.584 133.599 181.144 133.471 181.672C133.343 182.2 133.215 182.648 133.087 183.016C132.911 182.952 132.663 182.888 132.343 182.824C132.039 182.76 131.727 182.704 131.407 182.656C131.087 182.592 130.807 182.56 130.567 182.56C130.823 181.888 131.047 181.12 131.239 180.256C131.447 179.392 131.615 178.504 131.743 177.592C131.871 176.68 131.943 175.824 131.959 175.024L134.431 175.288C134.415 175.576 134.391 175.912 134.359 176.296C134.327 176.664 134.287 177.056 134.239 177.472H135.223V172.888H137.983V177.472H139.855V179.416C140.351 178.392 140.783 177.32 141.151 176.2C141.519 175.064 141.775 174.008 141.919 173.032L144.559 173.416C144.335 174.648 143.991 175.944 143.527 177.304H152.671C152.671 178.392 152.647 179.544 152.599 180.76C152.567 181.976 152.511 183.176 152.431 184.36C152.367 185.528 152.287 186.6 152.191 187.576C152.111 188.552 152.023 189.352 151.927 189.976C151.751 191.256 151.471 192.24 151.087 192.928C150.703 193.6 150.191 194.056 149.551 194.296C148.911 194.552 148.087 194.68 147.079 194.68H145.567C145.535 194.408 145.487 194.088 145.423 193.72C145.359 193.352 145.279 192.992 145.183 192.64C145.103 192.272 145.015 191.976 144.919 191.752H146.911C147.567 191.752 148.063 191.6 148.399 191.296C148.751 190.976 149.015 190.368 149.191 189.472C149.271 189.088 149.359 188.552 149.455 187.864C149.551 187.176 149.639 186.392 149.719 185.512C149.815 184.616 149.895 183.68 149.959 182.704C150.023 181.712 150.055 180.728 150.055 179.752H149.311C149.007 182.232 148.479 184.36 147.727 186.136C146.975 187.896 145.991 189.408 144.775 190.672C143.575 191.936 142.135 193.08 140.455 194.104C140.279 193.736 139.999 193.336 139.615 192.904C139.247 192.456 138.919 192.128 138.631 191.92C140.999 190.784 142.855 189.216 144.199 187.216C145.559 185.2 146.463 182.712 146.911 179.752H145.783C145.431 181.832 144.775 183.712 143.815 185.392C142.871 187.056 141.559 188.504 139.879 189.736C139.671 189.432 139.375 189.096 138.991 188.728C138.623 188.344 138.287 188.048 137.983 187.84V194.752H135.223ZM137.983 187.816C139.455 186.92 140.639 185.776 141.535 184.384C142.431 182.992 143.063 181.448 143.431 179.752H142.543C142.271 180.344 141.975 180.92 141.655 181.48C141.351 182.04 141.031 182.56 140.695 183.04C140.359 182.816 139.959 182.592 139.495 182.368C139.031 182.144 138.655 182 138.367 181.936C138.575 181.664 138.775 181.36 138.967 181.024C139.175 180.688 139.375 180.344 139.567 179.992H137.983V183.448C138.431 183.288 138.831 183.144 139.183 183.016C139.535 182.888 139.807 182.784 139.999 182.704V185.368C139.519 185.608 138.847 185.896 137.983 186.232V187.816ZM163.015 194.344V184.672H175.279V194.344H163.015ZM175.111 184.024C174.951 183.752 174.759 183.448 174.535 183.112C174.327 182.76 174.087 182.392 173.815 182.008C173.175 182.12 172.431 182.232 171.583 182.344C170.751 182.44 169.871 182.544 168.943 182.656C168.015 182.752 167.095 182.848 166.183 182.944C165.287 183.024 164.439 183.096 163.639 183.16C162.855 183.224 162.191 183.272 161.647 183.304L161.047 180.544C161.383 180.528 161.775 180.512 162.223 180.496C162.671 180.464 163.143 180.44 163.639 180.424C163.959 179.848 164.287 179.208 164.623 178.504C164.975 177.784 165.303 177.056 165.607 176.32C165.911 175.568 166.183 174.872 166.423 174.232C166.679 173.576 166.871 173.032 166.999 172.6L169.999 173.392C169.871 173.744 169.679 174.2 169.423 174.76C169.183 175.304 168.903 175.904 168.583 176.56C168.279 177.2 167.967 177.84 167.647 178.48C167.327 179.104 167.023 179.68 166.735 180.208C167.679 180.128 168.615 180.048 169.543 179.968C170.471 179.888 171.319 179.808 172.087 179.728C171.767 179.312 171.439 178.92 171.103 178.552C170.783 178.184 170.471 177.872 170.167 177.616L172.279 176.008C172.695 176.376 173.143 176.824 173.623 177.352C174.119 177.88 174.615 178.448 175.111 179.056C175.607 179.664 176.071 180.264 176.503 180.856C176.951 181.448 177.319 182 177.607 182.512C177.207 182.672 176.775 182.904 176.311 183.208C175.847 183.496 175.447 183.768 175.111 184.024ZM165.943 191.872H172.351V187.12H165.943V191.872ZM157.903 194.632L155.359 192.88C155.727 192.4 156.103 191.832 156.487 191.176C156.871 190.52 157.247 189.832 157.615 189.112C157.983 188.376 158.311 187.664 158.599 186.976C158.903 186.288 159.135 185.672 159.295 185.128C159.503 185.304 159.751 185.504 160.039 185.728C160.327 185.936 160.615 186.144 160.903 186.352C161.207 186.544 161.463 186.704 161.671 186.832C161.495 187.392 161.263 188.024 160.975 188.728C160.687 189.416 160.359 190.128 159.991 190.864C159.639 191.584 159.279 192.272 158.911 192.928C158.559 193.584 158.223 194.152 157.903 194.632ZM160.687 178.336C160.399 178.08 159.991 177.768 159.463 177.4C158.951 177.032 158.407 176.68 157.831 176.344C157.271 176.008 156.783 175.76 156.367 175.6L157.855 173.224C158.287 173.4 158.791 173.656 159.367 173.992C159.959 174.312 160.527 174.648 161.071 175C161.615 175.352 162.039 175.656 162.343 175.912C162.215 176.056 162.039 176.288 161.815 176.608C161.591 176.928 161.367 177.256 161.143 177.592C160.935 177.912 160.783 178.16 160.687 178.336ZM159.247 183.784C158.959 183.528 158.551 183.224 158.023 182.872C157.511 182.52 156.975 182.184 156.415 181.864C155.855 181.544 155.367 181.296 154.951 181.12L156.391 178.696C156.871 178.92 157.383 179.184 157.927 179.488C158.487 179.776 159.023 180.08 159.535 180.4C160.063 180.704 160.503 181 160.855 181.288C160.711 181.464 160.535 181.712 160.327 182.032C160.119 182.336 159.911 182.648 159.703 182.968C159.511 183.288 159.359 183.56 159.247 183.784ZM190.135 194.872C190.103 194.52 190.031 194.104 189.919 193.624C189.823 193.144 189.711 192.768 189.583 192.496H190.807C191.095 192.496 191.303 192.448 191.431 192.352C191.559 192.256 191.623 192.064 191.623 191.776V189.64H187.687V185.488C187.415 185.696 187.135 185.904 186.847 186.112C186.559 186.304 186.263 186.496 185.959 186.688C185.655 186.224 185.271 185.784 184.807 185.368C184.631 187.208 184.255 188.896 183.679 190.432C183.103 191.968 182.319 193.304 181.327 194.44C181.055 194.2 180.711 193.944 180.295 193.672C179.879 193.416 179.503 193.224 179.167 193.096C180.031 192.136 180.703 191.064 181.183 189.88C181.679 188.68 182.015 187.328 182.191 185.824C181.775 186.032 181.311 186.248 180.799 186.472C180.303 186.68 179.871 186.864 179.503 187.024L178.687 184.36C178.975 184.264 179.343 184.144 179.791 184C180.255 183.856 180.719 183.696 181.183 183.52C181.647 183.344 182.039 183.192 182.359 183.064V181.144C182.055 181.288 181.719 181.456 181.351 181.648C180.983 181.84 180.687 182.008 180.463 182.152C180.351 181.816 180.183 181.408 179.959 180.928C179.751 180.448 179.527 179.968 179.287 179.488C179.047 179.008 178.815 178.6 178.591 178.264L180.679 177.184C180.903 177.536 181.175 178.016 181.495 178.624C181.815 179.216 182.103 179.784 182.359 180.328V174.712H190.135V172.816H192.991V174.712H200.839V176.968H193.591C193.527 177.176 193.455 177.384 193.375 177.592C193.311 177.8 193.239 178 193.159 178.192H200.743V180.28H198.967L200.455 181.384C200.231 181.624 199.975 181.888 199.687 182.176C199.399 182.448 199.095 182.72 198.775 182.992C199.239 183.296 199.719 183.584 200.215 183.856C200.727 184.128 201.255 184.376 201.799 184.6C201.543 184.808 201.271 185.112 200.983 185.512C200.695 185.912 200.463 186.28 200.287 186.616C199.887 186.408 199.495 186.2 199.111 185.992C198.727 185.768 198.351 185.536 197.983 185.296V189.64H194.143V192.64C194.143 193.424 193.919 193.992 193.471 194.344C193.023 194.696 192.351 194.872 191.455 194.872H190.135ZM199.735 194.56C198.935 194.192 198.103 193.704 197.239 193.096C196.375 192.504 195.639 191.912 195.031 191.32L196.735 189.712C197.295 190.256 197.999 190.776 198.847 191.272C199.711 191.768 200.511 192.16 201.247 192.448C200.959 192.704 200.671 193.04 200.383 193.456C200.095 193.888 199.879 194.256 199.735 194.56ZM185.887 194.536C185.759 194.248 185.543 193.888 185.239 193.456C184.951 193.024 184.671 192.688 184.399 192.448C185.151 192.16 185.943 191.768 186.775 191.272C187.623 190.776 188.327 190.256 188.887 189.712L190.615 191.32C189.991 191.928 189.247 192.52 188.383 193.096C187.535 193.688 186.703 194.168 185.887 194.536ZM184.879 184.672C185.279 184.432 185.655 184.176 186.007 183.904C186.375 183.632 186.719 183.352 187.039 183.064C186.495 182.52 185.935 182.056 185.359 181.672L186.775 180.28H185.383V178.192H190.495C190.671 177.776 190.815 177.368 190.927 176.968H184.951V182.584C184.951 183.304 184.927 184 184.879 184.672ZM190.639 182.656H194.887C194.567 182.288 194.255 181.912 193.951 181.528C193.663 181.128 193.383 180.712 193.111 180.28H192.199C191.975 180.712 191.727 181.128 191.455 181.528C191.199 181.912 190.927 182.288 190.639 182.656ZM190.351 187.768H195.319V186.856H190.351V187.768ZM190.351 185.32H195.319V184.456H190.351V185.32ZM197.143 181.744C197.367 181.52 197.599 181.288 197.839 181.048C198.079 180.792 198.303 180.536 198.511 180.28H195.775C196.159 180.776 196.615 181.264 197.143 181.744ZM188.479 181.576C188.655 181.352 188.823 181.136 188.983 180.928C189.143 180.72 189.295 180.504 189.439 180.28H186.895C187.151 180.456 187.415 180.664 187.687 180.904C187.959 181.128 188.223 181.352 188.479 181.576ZM213.878 188.176L213.494 183.28C214.662 183.184 215.55 182.928 216.158 182.512C216.766 182.096 217.07 181.48 217.07 180.664C217.07 179.96 216.878 179.408 216.494 179.008C216.126 178.592 215.598 178.384 214.91 178.384C214.254 178.384 213.726 178.592 213.326 179.008C212.942 179.408 212.686 179.92 212.558 180.544L209.798 180.088C209.91 179.256 210.19 178.528 210.638 177.904C211.102 177.28 211.702 176.792 212.438 176.44C213.174 176.088 213.998 175.912 214.91 175.912C215.902 175.912 216.774 176.104 217.526 176.488C218.294 176.856 218.894 177.4 219.326 178.12C219.758 178.824 219.974 179.672 219.974 180.664C219.974 181.8 219.622 182.72 218.918 183.424C218.23 184.128 217.31 184.624 216.158 184.912L215.942 188.176H213.878ZM214.91 193.336C214.414 193.336 213.982 193.16 213.614 192.808C213.262 192.456 213.086 192.032 213.086 191.536C213.086 191.024 213.262 190.592 213.614 190.24C213.982 189.888 214.414 189.712 214.91 189.712C215.422 189.712 215.854 189.888 216.206 190.24C216.574 190.592 216.758 191.024 216.758 191.536C216.758 192.032 216.574 192.456 216.206 192.808C215.854 193.16 215.422 193.336 214.91 193.336Z" fill="#14AEFF"/>
<path d="M159.403 133.22C158.55 133.22 157.79 133.007 157.123 132.58C156.457 132.153 155.93 131.567 155.543 130.82C155.157 130.06 154.963 129.187 154.963 128.2C154.963 127.213 155.157 126.347 155.543 125.6C155.93 124.84 156.457 124.247 157.123 123.82C157.79 123.393 158.55 123.18 159.403 123.18C160.27 123.18 161.037 123.393 161.703 123.82C162.37 124.247 162.897 124.84 163.283 125.6C163.67 126.347 163.863 127.213 163.863 128.2C163.863 129.187 163.67 130.06 163.283 130.82C162.897 131.567 162.37 132.153 161.703 132.58C161.037 133.007 160.27 133.22 159.403 133.22ZM159.403 132.08C160.03 132.08 160.583 131.92 161.063 131.6C161.557 131.28 161.943 130.833 162.223 130.26C162.503 129.673 162.643 128.987 162.643 128.2C162.643 127.413 162.503 126.733 162.223 126.16C161.943 125.573 161.557 125.12 161.063 124.8C160.583 124.48 160.03 124.32 159.403 124.32C158.47 124.32 157.697 124.673 157.083 125.38C156.483 126.073 156.183 127.013 156.183 128.2C156.183 129.373 156.483 130.313 157.083 131.02C157.697 131.727 158.47 132.08 159.403 132.08ZM166.285 133V123.42H167.445L167.505 125.08C167.771 124.52 168.191 124.067 168.765 123.72C169.351 123.36 169.998 123.18 170.705 123.18C170.891 123.18 171.078 123.193 171.265 123.22C171.465 123.233 171.631 123.26 171.765 123.3V124.48C171.645 124.453 171.471 124.427 171.245 124.4C171.031 124.373 170.811 124.36 170.585 124.36C170.025 124.36 169.511 124.493 169.045 124.76C168.578 125.013 168.205 125.36 167.925 125.8C167.658 126.227 167.525 126.713 167.525 127.26V133H166.285Z" fill="#14AEFF"/>
</svg>
