<svg width="327" height="255" viewBox="0 0 327 255" fill="none" xmlns="http://www.w3.org/2000/svg">
<g style="mix-blend-mode:multiply">
<path d="M163.328 143.313C252.966 143.313 325.632 111.455 325.632 72.1566C325.632 32.8579 252.966 1 163.328 1C73.6895 1 1.02344 32.8579 1.02344 72.1566C1.02344 111.455 73.6895 143.313 163.328 143.313Z" stroke="#14AEFF" stroke-width="1.5" stroke-miterlimit="10"/>
</g>
<g style="mix-blend-mode:multiply">
<path d="M163.671 253.313C253.309 253.313 325.975 221.455 325.975 182.157C325.975 142.858 253.309 111 163.671 111C74.0332 111 1.36719 142.858 1.36719 182.157C1.36719 221.455 74.0332 253.313 163.671 253.313Z" stroke="#14AEFF" stroke-width="1.5" stroke-miterlimit="10"/>
</g>
<path d="M122.223 67.62C122.223 64.74 122.023 62.64 121.263 61.68C120.903 61.18 120.343 60.92 119.683 60.92C119.043 60.92 118.483 61.18 118.103 61.68C117.383 62.64 117.163 64.74 117.163 67.62C117.163 70.5 117.383 72.6 118.103 73.58C118.483 74.04 119.043 74.3 119.683 74.3C120.343 74.3 120.903 74.04 121.263 73.58C122.023 72.6 122.223 70.5 122.223 67.62ZM115.003 67.62C115.003 64.34 115.323 61.88 116.483 60.46C117.223 59.54 118.342 59.04 119.683 59.04C121.043 59.04 122.143 59.54 122.903 60.46C124.063 61.88 124.383 64.34 124.383 67.62C124.383 70.9 124.063 73.36 122.903 74.78C122.143 75.7 121.043 76.16 119.683 76.16C118.342 76.16 117.223 75.7 116.483 74.78C115.323 73.36 115.003 70.9 115.003 67.62ZM129.703 59.04V77.18H127.523V59.04H129.703ZM139.822 59.16V61.66C139.822 64.82 141.562 66.42 143.882 67.12V69.06C141.602 68.54 139.702 67.28 138.762 65.76C137.902 67.34 135.982 68.72 133.622 69.28V67.32C136.002 66.6 137.662 64.72 137.662 61.66V59.16H139.822ZM148.942 69.44H146.762V59.04H148.942V69.44ZM146.762 77.48V72.6H135.162V70.7H148.942V77.48H146.762ZM166.861 63.94C165.641 65.98 162.881 67.54 159.121 68.12V66.2C163.121 65.46 165.761 63.44 165.761 59.92V59.16H167.921V59.92C167.921 63.44 170.601 65.44 174.601 66.2V68.12C170.861 67.54 168.081 65.98 166.861 63.94ZM158.821 72.6V70.68H174.921V72.6H167.921V77.48H165.761V72.6H158.821ZM186.04 62.28C184.74 63.8 181.86 64.82 178.42 65.1V63.26C181.98 62.9 184.96 61.66 184.96 59.38V59.16H187.12V59.38C187.12 61.66 190.08 62.88 193.7 63.26V65.1C190.22 64.82 187.34 63.78 186.04 62.28ZM177.9 67.88V66.04H194.24V67.88H187.12V69.44H193.06V74.28H181.26V75.6H193.46V77.36H179.1V72.54H190.88V71.2H179.1V69.44H184.98V67.88H177.9ZM211.78 64.46C211.78 66.2 211.12 67.28 209.8 68.46C208.54 69.6 208.18 70.24 208.18 71.42V71.92H205.98V71.26C205.98 69.64 206.38 68.76 207.98 67.36C209.18 66.32 209.56 65.64 209.56 64.52C209.56 62.9 208.58 62 207.18 62C205.78 62 204.8 62.9 204.8 64.54H202.6V64.46C202.6 61.9 204.26 60.04 207.18 60.04C210.12 60.04 211.78 61.92 211.78 64.46ZM208.2 73.64V75.98H205.94V73.64H208.2Z" fill="#14AEFF"/>
<path d="M114.643 174.92C114.643 173.16 115.203 171.82 116.203 170.96C116.983 170.28 118.083 169.92 119.383 169.92C120.723 169.92 121.783 170.28 122.583 170.96C123.603 171.82 124.143 173.16 124.143 174.92C124.143 176.68 123.603 178.04 122.583 178.9C121.783 179.56 120.723 179.94 119.383 179.94C118.083 179.94 116.983 179.56 116.203 178.9C115.203 178.04 114.643 176.68 114.643 174.92ZM116.763 174.92C116.763 176.06 117.083 176.9 117.643 177.42C118.083 177.84 118.663 178.08 119.383 178.08C120.123 178.08 120.723 177.84 121.143 177.42C121.723 176.9 122.023 176.06 122.023 174.92C122.023 173.82 121.723 172.96 121.143 172.42C120.723 172.02 120.123 171.8 119.383 171.8C118.663 171.8 118.083 172.02 117.643 172.42C117.083 172.96 116.763 173.82 116.763 174.92ZM129.263 172.22H131.803V174.14H129.263V176.34H131.803V178.24H129.263V180.52H127.083V170.04H129.263V172.22ZM115.643 181.7H129.263V188.48H127.083V183.6H115.643V181.7ZM148.842 170.26V175.76H134.882V170.26H148.842ZM137.042 174H146.662V172.04H137.042V174ZM133.682 178.88V177.04H150.022V178.88H142.902V180.44H148.842V185.28H137.042V186.6H149.242V188.36H134.882V183.54H146.662V182.2H134.882V180.44H140.762V178.88H133.682ZM159.221 174.22V172.34H163.021V169.52H165.221V172.34H169.061V174.22H165.221V177.16C165.221 182 167.121 183.96 169.221 184.96V186.96C166.961 186.18 165.001 184.42 164.121 182.5C163.241 184.42 161.261 186.2 159.021 186.96V184.96C161.081 183.98 163.021 182 163.021 177.16V174.22H159.221ZM173.921 170.04V188.18H171.741V170.04H173.921ZM181.14 177.06V180.02H193.4V181.9H190.54V185.5H194.12V187.38H178.02V185.5H181.72V181.9H178.96V175.18H191V172.28H178.96V170.36H193.18V177.06H181.14ZM188.36 181.9H183.88V185.5H188.36V181.9ZM211.78 175.46C211.78 177.2 211.12 178.28 209.8 179.46C208.54 180.6 208.18 181.24 208.18 182.42V182.92H205.98V182.26C205.98 180.64 206.38 179.76 207.98 178.36C209.18 177.32 209.56 176.64 209.56 175.52C209.56 173.9 208.58 173 207.18 173C205.78 173 204.8 173.9 204.8 175.54H202.6V175.46C202.6 172.9 204.26 171.04 207.18 171.04C210.12 171.04 211.78 172.92 211.78 175.46ZM208.2 184.64V186.98H205.94V184.64H208.2Z" fill="#14AEFF"/>
<path d="M162.487 124.504C162.487 127.464 161.223 129.192 158.615 129.192C156.007 129.192 154.759 127.464 154.759 124.504C154.759 121.544 156.007 119.816 158.615 119.816C161.223 119.816 162.487 121.544 162.487 124.504ZM161.159 124.504C161.159 122.28 160.471 120.92 158.615 120.92C156.759 120.92 156.087 122.28 156.087 124.504C156.087 126.744 156.759 128.088 158.615 128.088C160.471 128.088 161.159 126.744 161.159 124.504ZM168.139 120.936C166.619 120.936 165.595 122.088 165.595 124.424V128.984H164.267V120.024H165.595V121.608C165.947 120.472 166.763 119.816 168.187 119.816C168.443 119.816 168.715 119.832 168.859 119.88L168.843 120.968C168.699 120.952 168.427 120.936 168.139 120.936Z" fill="#14AEFF"/>
</svg>
