<svg width="460" height="350" viewBox="0 0 460 350" fill="none" xmlns="http://www.w3.org/2000/svg">
<g clip-path="url(#clip0_460_21917)">
<mask id="mask0_460_21917" style="mask-type:luminance" maskUnits="userSpaceOnUse" x="-11" y="-9" width="475" height="365">
<path d="M441.704 -8.96216L-11 10.4243L10.9919 355.166L463.696 335.779L441.704 -8.96216Z" fill="white"/>
</mask>
<g mask="url(#mask0_460_21917)">
<path d="M231.472 290.004C232.567 289.805 233.6 289.377 234.5 288.75C235.4 288.123 236.145 287.312 236.684 286.374C237.224 285.435 237.544 284.391 237.623 283.313C237.703 282.235 237.539 281.149 237.144 280.13C236.704 278.981 235.978 277.951 235.031 277.132L211.77 256.842" stroke="#272727" stroke-miterlimit="10" stroke-linecap="round"/>
<path d="M222.142 245.78L245.488 266.114C246.439 266.935 247.168 267.968 247.61 269.12C248.039 270.226 248.195 271.409 248.066 272.574C247.937 273.74 247.526 274.855 246.866 275.829C246.206 276.804 245.316 277.612 244.267 278.187C243.218 278.761 242.04 279.088 240.828 279.139C240.056 279.175 239.281 279.093 238.531 278.896C237.299 278.598 236.158 278.007 235.212 277.178L211.866 256.847" stroke="#272727" stroke-miterlimit="10" stroke-linecap="round"/>
<path d="M128.728 318.396C67.4797 353.895 -13.0523 300.347 9.10895 219.54C34.9534 138.155 126.521 148 129.779 199.082C133.037 250.163 58.5697 259.471 29.8857 217.121C4.00621 178.916 5.63687 124.031 64.3344 99.8883C80.9134 93.0693 99.1964 91.2297 116.749 95.7329C141.52 102.09 169.095 121.892 150.317 181.38C139.138 216.794 161.66 220.598 170.235 218.577C173.143 217.8 175.81 216.37 178.02 214.402C188.381 205.699 203.15 206.9 213.23 217.399L213.252 217.42" stroke="#272727" stroke-miterlimit="10"/>
<path d="M132.809 271.337L176.435 269.394C177.338 269.354 178.243 269.494 179.098 269.804C179.953 270.115 180.741 270.591 181.419 271.204L185.269 274.379" stroke="#272727" stroke-miterlimit="10" stroke-linecap="round"/>
<path d="M354.917 228.371C326.137 239.27 312.675 212.369 305.895 200.568C297.726 186.342 285.802 174.331 270.882 166.845C252.611 157.675 231.909 154.297 211.749 157.198C162.73 164.116 127.36 206.697 130.73 254.718C132.26 276.88 141.839 297.939 157.768 314.16C173.696 330.382 194.946 340.719 217.75 343.339C240.554 345.959 263.438 340.692 282.347 328.473C301.256 316.254 314.968 297.872 321.052 276.584C321.052 276.584 326.262 255.276 321.626 241.254C316.989 227.231 295.204 219.513 290.83 251.92C290.83 251.92 290.814 252.196 290.797 252.712C290.797 252.712 282.182 295.834 329.628 319.715C349.651 329.686 372.537 332.582 394.279 327.897C424.039 321.583 462.872 301.666 456.785 240.268C447.092 142.448 356.619 157.74 356.619 157.74" stroke="#272727" stroke-miterlimit="10" stroke-linecap="round"/>
<path d="M223.247 245.992L246.648 266.383C247.596 267.214 248.74 267.806 249.975 268.105C251.662 268.532 253.438 268.401 255.019 267.735C256.6 267.069 257.896 265.906 258.699 264.431C259.502 262.956 259.766 261.255 259.449 259.599C259.132 257.944 258.251 256.429 256.949 255.297L240.921 241.12C238.765 239.206 236.148 237.848 233.32 237.176C230.491 236.504 227.544 236.539 224.759 237.279C216.566 239.48 209.219 243.88 203.562 249.975L199.286 254.581C197.96 256.007 196.109 256.874 194.117 257.005C192.124 257.135 190.143 256.519 188.583 255.283C185.102 252.506 184.934 247.33 187.897 244.138L208.312 222.145L213.048 217.032L214.354 215.636C217.053 212.716 220.334 210.351 224.005 208.679C227.676 207.006 231.666 206.058 235.745 205.89C235.745 205.89 252.087 202.844 264.498 212.503C267.65 214.885 271.455 216.305 275.416 216.577C279.377 216.849 283.31 215.961 286.701 214.028C296.36 208.646 307.513 198.777 310.382 181.3C311.821 171.659 312.281 161.889 311.757 152.129C311.185 140.074 315.56 128.372 323.929 119.574C332.298 110.776 343.982 105.596 356.435 105.162C368.887 104.729 381.097 109.077 390.404 117.26C399.71 125.443 405.358 136.796 406.116 148.844C406.116 148.844 409.423 205.882 355.013 228.303" stroke="#272727" stroke-miterlimit="10" stroke-linecap="round"/>
<path d="M248.906 267.645L247.708 268.935" stroke="#272727" stroke-miterlimit="10" stroke-linecap="round"/>
<path d="M116.43 112.729C146.293 111.45 169.008 86.9898 167.164 58.0947C165.321 29.1996 139.617 6.812 109.754 8.09062C79.8906 9.36924 57.1762 33.8299 59.0198 62.725C60.8634 91.6201 86.5669 114.008 116.43 112.729Z" stroke="#272727" stroke-miterlimit="10"/>
<path d="M318.663 108.244C348.526 106.965 371.24 82.5044 369.397 53.6093C367.553 24.7142 341.85 2.32665 311.986 3.60527C282.123 4.88388 259.409 29.3445 261.252 58.2396C263.096 87.1347 288.799 109.522 318.663 108.244Z" stroke="#272727" stroke-miterlimit="10"/>
<path d="M186.23 282.175C185.62 281.687 185.114 281.089 184.739 280.416C184.365 279.743 184.13 279.008 184.048 278.252C183.966 277.496 184.039 276.735 184.262 276.011C184.485 275.288 184.854 274.616 185.348 274.035L192.801 265.269C193.799 264.096 195.245 263.361 196.821 263.228C198.398 263.095 199.976 263.574 201.207 264.559C202.439 265.545 203.224 266.956 203.389 268.482C203.554 270.009 203.086 271.526 202.088 272.7L194.636 281.464C194.142 282.045 193.533 282.525 192.843 282.875C192.153 283.225 191.396 283.44 190.616 283.506C189.835 283.572 189.046 283.488 188.294 283.26C187.541 283.031 186.84 282.663 186.23 282.175Z" stroke="#272727" stroke-miterlimit="10"/>
<path d="M194.379 290.83C193.769 290.342 193.262 289.745 192.888 289.072C192.514 288.399 192.279 287.664 192.197 286.908C192.115 286.152 192.188 285.39 192.411 284.667C192.634 283.943 193.003 283.272 193.497 282.691L203.248 271.226C203.739 270.635 204.348 270.147 205.039 269.789C205.731 269.431 206.491 269.211 207.276 269.14C208.062 269.07 208.856 269.151 209.615 269.379C210.373 269.607 211.079 269.977 211.693 270.468C212.307 270.959 212.816 271.561 213.191 272.24C213.566 272.919 213.8 273.66 213.878 274.421C213.956 275.182 213.878 275.949 213.647 276.675C213.416 277.402 213.038 278.074 212.534 278.654L202.784 290.121C202.29 290.702 201.681 291.182 200.991 291.532C200.301 291.882 199.545 292.096 198.764 292.162C197.983 292.228 197.194 292.144 196.442 291.916C195.69 291.687 194.989 291.318 194.379 290.83Z" stroke="#272727" stroke-miterlimit="10"/>
<path d="M203.674 298.135C203.064 297.647 202.557 297.05 202.183 296.377C201.809 295.704 201.574 294.968 201.492 294.213C201.41 293.457 201.483 292.695 201.706 291.972C201.929 291.248 202.298 290.577 202.792 289.996L212.543 278.53C213.547 277.375 214.988 276.658 216.555 276.534C218.121 276.409 219.685 276.888 220.908 277.867C222.131 278.845 222.914 280.244 223.086 281.759C223.259 283.274 222.807 284.783 221.829 285.959L212.079 297.426C211.585 298.007 210.976 298.486 210.286 298.837C209.596 299.187 208.84 299.401 208.059 299.467C207.278 299.533 206.489 299.449 205.737 299.22C204.985 298.992 204.284 298.623 203.674 298.135Z" stroke="#272727" stroke-miterlimit="10"/>
<path d="M214.121 304.092C213.511 303.604 213.004 303.006 212.63 302.333C212.255 301.66 212.021 300.925 211.939 300.169C211.857 299.413 211.929 298.652 212.153 297.928C212.376 297.205 212.745 296.533 213.239 295.952L220.691 287.186C221.689 286.013 223.135 285.278 224.712 285.145C226.289 285.012 227.866 285.491 229.098 286.476C230.329 287.462 231.114 288.873 231.279 290.399C231.445 291.926 230.977 293.443 229.979 294.617L222.526 303.38C222.033 303.961 221.423 304.441 220.734 304.791C220.044 305.142 219.287 305.356 218.507 305.422C217.726 305.488 216.937 305.405 216.184 305.176C215.432 304.948 214.731 304.579 214.121 304.092Z" stroke="#272727" stroke-miterlimit="10"/>
</g>
<g style="mix-blend-mode:multiply">
<mask id="mask1_460_21917" style="mask-type:luminance" maskUnits="userSpaceOnUse" x="380" y="81" width="16" height="49">
<path d="M380.346 81.5822L380.346 129.545L395.493 129.545L395.493 81.5822L380.346 81.5822Z" fill="white"/>
</mask>
<g mask="url(#mask1_460_21917)">
<path d="M380.348 81.5814L380.348 129.545L395.496 129.545L395.496 81.5814L380.348 81.5814Z" fill="#14AEFF"/>
</g>
</g>
<g style="mix-blend-mode:multiply">
<mask id="mask2_460_21917" style="mask-type:luminance" maskUnits="userSpaceOnUse" x="178" y="141" width="43" height="42">
<path d="M220.939 141.866L178.203 141.866L178.203 182.534L220.939 182.534L220.939 141.866Z" fill="white"/>
</mask>
<g mask="url(#mask2_460_21917)">
<path d="M220.939 162.201C220.939 166.222 219.685 170.154 217.337 173.498C214.99 176.842 211.652 179.448 207.748 180.987C203.843 182.526 199.547 182.929 195.402 182.144C191.257 181.36 187.45 179.423 184.462 176.579C181.473 173.736 179.438 170.112 178.614 166.168C177.789 162.223 178.212 158.135 179.83 154.419C181.447 150.703 184.186 147.528 187.7 145.293C191.213 143.059 195.345 141.866 199.571 141.866C205.238 141.866 210.673 144.009 214.68 147.822C218.687 151.636 220.938 156.808 220.939 162.201Z" fill="#14AEFF"/>
</g>
</g>
<g style="mix-blend-mode:multiply">
<mask id="mask3_460_21917" style="mask-type:luminance" maskUnits="userSpaceOnUse" x="321" y="313" width="60" height="21">
<path d="M380.346 333.675L380.346 313.183L321.615 313.183L321.615 333.675L380.346 333.675Z" fill="white"/>
</mask>
<g mask="url(#mask3_460_21917)">
<path d="M380.346 333.675L380.346 313.181L321.615 313.181L321.615 333.675L380.346 333.675Z" fill="#14AEFF"/>
</g>
</g>
<g style="mix-blend-mode:multiply">
<mask id="mask4_460_21917" style="mask-type:luminance" maskUnits="userSpaceOnUse" x="32" y="58" width="52" height="13">
<path d="M83.3555 70.8863L83.3555 58.7651L32.1562 58.7651L32.1562 70.8863L83.3555 70.8863Z" fill="white"/>
</mask>
<g mask="url(#mask4_460_21917)">
<path d="M83.3555 70.886L83.3555 58.7632L32.1562 58.7632L32.1562 70.886L83.3555 70.886Z" fill="#14AEFF"/>
</g>
</g>
</g>
<defs>
<clipPath id="clip0_460_21917">
<rect width="460" height="350" fill="white"/>
</clipPath>
</defs>
</svg>
