<svg width="957" height="335" viewBox="0 0 957 335" fill="none" xmlns="http://www.w3.org/2000/svg">
<rect x="0.5" y="0.5" width="334" height="334" rx="167" stroke="white"/>
<path d="M110.214 110.001C108.161 110.001 106.313 109.649 104.67 108.945C103.027 108.212 101.737 107.185 100.798 105.865C99.8592 104.545 99.3899 103.005 99.3899 101.245H104.758C104.875 102.565 105.389 103.651 106.298 104.501C107.237 105.352 108.542 105.777 110.214 105.777C111.945 105.777 113.294 105.367 114.262 104.545C115.23 103.695 115.714 102.609 115.714 101.289C115.714 100.263 115.406 99.4267 114.79 98.7814C114.203 98.136 113.455 97.6374 112.546 97.2854C111.666 96.9334 110.434 96.552 108.85 96.1414C106.855 95.6134 105.227 95.0854 103.966 94.5574C102.734 94 101.678 93.1494 100.798 92.0054C99.9179 90.8614 99.4779 89.336 99.4779 87.4294C99.4779 85.6694 99.9179 84.1294 100.798 82.8094C101.678 81.4894 102.91 80.4774 104.494 79.7734C106.078 79.0694 107.911 78.7174 109.994 78.7174C112.957 78.7174 115.377 79.4654 117.254 80.9614C119.161 82.428 120.217 84.452 120.422 87.0334H114.878C114.79 85.9187 114.262 84.9654 113.294 84.1734C112.326 83.3814 111.05 82.9854 109.466 82.9854C108.029 82.9854 106.855 83.352 105.946 84.0854C105.037 84.8187 104.582 85.8747 104.582 87.2534C104.582 88.192 104.861 88.9694 105.418 89.5854C106.005 90.172 106.738 90.6414 107.618 90.9934C108.498 91.3454 109.701 91.7267 111.226 92.1374C113.25 92.6947 114.893 93.252 116.154 93.8094C117.445 94.3667 118.53 95.232 119.41 96.4054C120.319 97.5494 120.774 99.0894 120.774 101.025C120.774 102.58 120.349 104.047 119.498 105.425C118.677 106.804 117.459 107.919 115.846 108.769C114.262 109.591 112.385 110.001 110.214 110.001ZM132.545 89.5414V102.961C132.545 103.871 132.75 104.531 133.161 104.941C133.601 105.323 134.334 105.513 135.361 105.513H138.441V109.693H134.481C132.222 109.693 130.491 109.165 129.289 108.109C128.086 107.053 127.485 105.337 127.485 102.961V89.5414H124.625V85.4494H127.485V79.4214H132.545V85.4494H138.441V89.5414H132.545ZM141.392 97.4614C141.392 95.0267 141.89 92.8707 142.888 90.9934C143.914 89.116 145.293 87.664 147.024 86.6374C148.784 85.5814 150.72 85.0534 152.832 85.0534C154.738 85.0534 156.396 85.4347 157.804 86.1974C159.241 86.9307 160.385 87.8547 161.236 88.9694V85.4494H166.296V109.693H161.236V106.085C160.385 107.229 159.226 108.183 157.76 108.945C156.293 109.708 154.621 110.089 152.744 110.089C150.661 110.089 148.754 109.561 147.024 108.505C145.293 107.42 143.914 105.924 142.888 104.017C141.89 102.081 141.392 99.896 141.392 97.4614ZM161.236 97.5494C161.236 95.8774 160.884 94.4254 160.18 93.1934C159.505 91.9614 158.61 91.0227 157.496 90.3774C156.381 89.732 155.178 89.4094 153.888 89.4094C152.597 89.4094 151.394 89.732 150.28 90.3774C149.165 90.9934 148.256 91.9174 147.552 93.1494C146.877 94.352 146.54 95.7894 146.54 97.4614C146.54 99.1334 146.877 100.6 147.552 101.861C148.256 103.123 149.165 104.091 150.28 104.765C151.424 105.411 152.626 105.733 153.888 105.733C155.178 105.733 156.381 105.411 157.496 104.765C158.61 104.12 159.505 103.181 160.18 101.949C160.884 100.688 161.236 99.2214 161.236 97.5494ZM177.9 89.0574C178.751 87.884 179.909 86.9307 181.376 86.1974C182.872 85.4347 184.529 85.0534 186.348 85.0534C188.489 85.0534 190.425 85.5667 192.156 86.5934C193.887 87.62 195.251 89.0867 196.248 90.9934C197.245 92.8707 197.744 95.0267 197.744 97.4614C197.744 99.896 197.245 102.081 196.248 104.017C195.251 105.924 193.872 107.42 192.112 108.505C190.381 109.561 188.46 110.089 186.348 110.089C184.471 110.089 182.799 109.723 181.332 108.989C179.895 108.256 178.751 107.317 177.9 106.173V109.693H172.884V77.1334H177.9V89.0574ZM192.64 97.4614C192.64 95.7894 192.288 94.352 191.584 93.1494C190.909 91.9174 190 90.9934 188.856 90.3774C187.741 89.732 186.539 89.4094 185.248 89.4094C183.987 89.4094 182.784 89.732 181.64 90.3774C180.525 91.0227 179.616 91.9614 178.912 93.1934C178.237 94.4254 177.9 95.8774 177.9 97.5494C177.9 99.2214 178.237 100.688 178.912 101.949C179.616 103.181 180.525 104.12 181.64 104.765C182.784 105.411 183.987 105.733 185.248 105.733C186.539 105.733 187.741 105.411 188.856 104.765C190 104.091 190.909 103.123 191.584 101.861C192.288 100.6 192.64 99.1334 192.64 97.4614ZM207.72 77.1334V109.693H202.704V77.1334H207.72ZM236.526 96.9774C236.526 97.8867 236.467 98.708 236.35 99.4414H217.826C217.973 101.377 218.691 102.932 219.982 104.105C221.273 105.279 222.857 105.865 224.734 105.865C227.433 105.865 229.339 104.736 230.454 102.477H235.866C235.133 104.707 233.798 106.54 231.862 107.977C229.955 109.385 227.579 110.089 224.734 110.089C222.417 110.089 220.334 109.576 218.486 108.549C216.667 107.493 215.23 106.027 214.174 104.149C213.147 102.243 212.634 100.043 212.634 97.5494C212.634 95.056 213.133 92.8707 214.13 90.9934C215.157 89.0867 216.579 87.62 218.398 86.5934C220.246 85.5667 222.358 85.0534 224.734 85.0534C227.022 85.0534 229.061 85.552 230.85 86.5494C232.639 87.5467 234.033 88.9547 235.03 90.7734C236.027 92.5627 236.526 94.6307 236.526 96.9774ZM231.29 95.3934C231.261 93.5454 230.601 92.064 229.31 90.9494C228.019 89.8347 226.421 89.2774 224.514 89.2774C222.783 89.2774 221.302 89.8347 220.07 90.9494C218.838 92.0347 218.105 93.516 217.87 95.3934H231.29ZM97.4046 155.693L93.6206 151.909C92.1539 153.376 90.5552 154.476 88.8246 155.209C87.0939 155.913 85.1579 156.265 83.0166 156.265C80.8459 156.265 78.9246 155.884 77.2526 155.121C75.5806 154.359 74.2899 153.273 73.3806 151.865C72.4712 150.428 72.0166 148.771 72.0166 146.893C72.0166 144.781 72.6179 142.904 73.8206 141.261C75.0232 139.589 76.8126 138.269 79.1886 137.301C78.3379 136.275 77.7366 135.321 77.3846 134.441C77.0326 133.532 76.8566 132.535 76.8566 131.449C76.8566 130.1 77.1939 128.897 77.8686 127.841C78.5726 126.785 79.5699 125.949 80.8606 125.333C82.1512 124.717 83.6472 124.409 85.3486 124.409C87.0792 124.409 88.5459 124.747 89.7486 125.421C90.9806 126.067 91.8899 126.961 92.4766 128.105C93.0926 129.249 93.3419 130.525 93.2246 131.933H88.2086C88.2379 130.848 87.9739 130.012 87.4166 129.425C86.8592 128.809 86.0966 128.501 85.1286 128.501C84.1606 128.501 83.3686 128.795 82.7526 129.381C82.1659 129.939 81.8726 130.628 81.8726 131.449C81.8726 132.241 82.0926 133.033 82.5326 133.825C83.0019 134.588 83.8086 135.585 84.9526 136.817L93.0486 144.869L96.1726 139.721H101.585L97.6246 146.497L96.5246 148.301L103.961 155.693H97.4046ZM83.0166 151.997C85.7739 151.997 88.2086 150.868 90.3206 148.609L82.2246 140.469C78.7632 141.848 77.0326 143.931 77.0326 146.717C77.0326 148.213 77.5899 149.475 78.7046 150.501C79.8192 151.499 81.2566 151.997 83.0166 151.997ZM121.231 128.237C120.322 128.237 119.559 127.929 118.943 127.313C118.327 126.697 118.019 125.935 118.019 125.025C118.019 124.116 118.327 123.353 118.943 122.737C119.559 122.121 120.322 121.813 121.231 121.813C122.111 121.813 122.859 122.121 123.475 122.737C124.091 123.353 124.399 124.116 124.399 125.025C124.399 125.935 124.091 126.697 123.475 127.313C122.859 127.929 122.111 128.237 121.231 128.237ZM123.695 131.449V155.693H118.679V131.449H123.695ZM142.512 131.053C144.419 131.053 146.12 131.449 147.616 132.241C149.142 133.033 150.33 134.207 151.18 135.761C152.031 137.316 152.456 139.193 152.456 141.393V155.693H147.484V142.141C147.484 139.971 146.942 138.313 145.856 137.169C144.771 135.996 143.29 135.409 141.412 135.409C139.535 135.409 138.039 135.996 136.924 137.169C135.839 138.313 135.296 139.971 135.296 142.141V155.693H130.28V131.449H135.296V134.221C136.118 133.224 137.159 132.447 138.42 131.889C139.711 131.332 141.075 131.053 142.512 131.053ZM167.655 156.089C165.748 156.089 164.032 155.752 162.507 155.077C161.011 154.373 159.823 153.435 158.943 152.261C158.063 151.059 157.593 149.724 157.535 148.257H162.727C162.815 149.284 163.299 150.149 164.179 150.853C165.088 151.528 166.217 151.865 167.567 151.865C168.975 151.865 170.06 151.601 170.823 151.073C171.615 150.516 172.011 149.812 172.011 148.961C172.011 148.052 171.571 147.377 170.691 146.937C169.84 146.497 168.476 146.013 166.599 145.485C164.78 144.987 163.299 144.503 162.155 144.033C161.011 143.564 160.013 142.845 159.163 141.877C158.341 140.909 157.931 139.633 157.931 138.049C157.931 136.759 158.312 135.585 159.075 134.529C159.837 133.444 160.923 132.593 162.331 131.977C163.768 131.361 165.411 131.053 167.259 131.053C170.016 131.053 172.231 131.757 173.903 133.165C175.604 134.544 176.513 136.436 176.631 138.841H171.615C171.527 137.756 171.087 136.891 170.295 136.245C169.503 135.6 168.432 135.277 167.083 135.277C165.763 135.277 164.751 135.527 164.047 136.025C163.343 136.524 162.991 137.184 162.991 138.005C162.991 138.651 163.225 139.193 163.695 139.633C164.164 140.073 164.736 140.425 165.411 140.689C166.085 140.924 167.083 141.232 168.403 141.613C170.163 142.083 171.6 142.567 172.715 143.065C173.859 143.535 174.841 144.239 175.663 145.177C176.484 146.116 176.909 147.363 176.939 148.917C176.939 150.296 176.557 151.528 175.795 152.613C175.032 153.699 173.947 154.549 172.539 155.165C171.16 155.781 169.532 156.089 167.655 156.089ZM187.375 135.013C188.225 133.899 189.384 132.96 190.851 132.197C192.317 131.435 193.975 131.053 195.823 131.053C197.935 131.053 199.856 131.581 201.587 132.637C203.347 133.664 204.725 135.116 205.723 136.993C206.72 138.871 207.219 141.027 207.219 143.461C207.219 145.896 206.72 148.081 205.723 150.017C204.725 151.924 203.347 153.42 201.587 154.505C199.856 155.561 197.935 156.089 195.823 156.089C193.975 156.089 192.332 155.723 190.895 154.989C189.457 154.227 188.284 153.288 187.375 152.173V167.221H182.359V131.449H187.375V135.013ZM202.115 143.461C202.115 141.789 201.763 140.352 201.059 139.149C200.384 137.917 199.475 136.993 198.331 136.377C197.216 135.732 196.013 135.409 194.723 135.409C193.461 135.409 192.259 135.732 191.115 136.377C190 137.023 189.091 137.961 188.387 139.193C187.712 140.425 187.375 141.877 187.375 143.549C187.375 145.221 187.712 146.688 188.387 147.949C189.091 149.181 190 150.12 191.115 150.765C192.259 151.411 193.461 151.733 194.723 151.733C196.013 151.733 197.216 151.411 198.331 150.765C199.475 150.091 200.384 149.123 201.059 147.861C201.763 146.6 202.115 145.133 202.115 143.461ZM214.731 128.237C213.822 128.237 213.059 127.929 212.443 127.313C211.827 126.697 211.519 125.935 211.519 125.025C211.519 124.116 211.827 123.353 212.443 122.737C213.059 122.121 213.822 121.813 214.731 121.813C215.611 121.813 216.359 122.121 216.975 122.737C217.591 123.353 217.899 124.116 217.899 125.025C217.899 125.935 217.591 126.697 216.975 127.313C216.359 127.929 215.611 128.237 214.731 128.237ZM217.195 131.449V155.693H212.179V131.449H217.195ZM228.796 134.969C229.53 133.737 230.498 132.784 231.7 132.109C232.932 131.405 234.384 131.053 236.056 131.053V136.245H234.78C232.815 136.245 231.319 136.744 230.292 137.741C229.295 138.739 228.796 140.469 228.796 142.933V155.693H223.78V131.449H228.796V134.969ZM262.887 142.977C262.887 143.887 262.829 144.708 262.711 145.441H244.187C244.334 147.377 245.053 148.932 246.343 150.105C247.634 151.279 249.218 151.865 251.095 151.865C253.794 151.865 255.701 150.736 256.815 148.477H262.227C261.494 150.707 260.159 152.54 258.223 153.977C256.317 155.385 253.941 156.089 251.095 156.089C248.778 156.089 246.695 155.576 244.847 154.549C243.029 153.493 241.591 152.027 240.535 150.149C239.509 148.243 238.995 146.043 238.995 143.549C238.995 141.056 239.494 138.871 240.491 136.993C241.518 135.087 242.941 133.62 244.759 132.593C246.607 131.567 248.719 131.053 251.095 131.053C253.383 131.053 255.422 131.552 257.211 132.549C259.001 133.547 260.394 134.955 261.391 136.773C262.389 138.563 262.887 140.631 262.887 142.977ZM257.651 141.393C257.622 139.545 256.962 138.064 255.671 136.949C254.381 135.835 252.782 135.277 250.875 135.277C249.145 135.277 247.663 135.835 246.431 136.949C245.199 138.035 244.466 139.516 244.231 141.393H257.651Z" fill="white"/>
<path d="M167.5 187.307C169.709 187.307 171.5 185.602 171.5 183.5C171.5 181.398 169.709 179.693 167.5 179.693C165.291 179.693 163.5 181.398 163.5 183.5C163.5 185.602 165.291 187.307 167.5 187.307Z" fill="white"/>
<path d="M89.473 212.467C89.473 210.707 90.013 209.347 90.953 208.467C91.753 207.747 92.813 207.347 94.113 207.347C95.433 207.347 96.493 207.747 97.273 208.467C98.233 209.347 98.753 210.707 98.753 212.467C98.753 214.247 98.233 215.607 97.273 216.487C96.493 217.227 95.433 217.607 94.113 217.607C92.813 217.607 91.753 217.227 90.953 216.487C90.013 215.607 89.473 214.247 89.473 212.467ZM91.033 212.467C91.033 213.747 91.373 214.747 92.013 215.407C92.533 215.927 93.233 216.207 94.113 216.207C94.993 216.207 95.693 215.927 96.213 215.407C96.833 214.747 97.173 213.747 97.173 212.467C97.173 211.187 96.833 210.187 96.213 209.527C95.693 209.027 94.993 208.747 94.113 208.747C93.233 208.747 92.533 209.027 92.013 209.527C91.373 210.187 91.033 211.187 91.033 212.467ZM103.853 207.467V212.527H106.593V213.947H103.853V219.927H102.253V207.467H103.853ZM92.333 219.587V224.067H104.193V225.447H90.733V219.587H92.333ZM109.132 207.667H118.212V209.067H114.472V210.347C114.472 213.367 116.372 214.947 118.532 215.447V216.887C116.372 216.427 114.532 215.147 113.712 213.467C112.892 215.187 111.052 216.707 108.832 217.127V215.687C111.052 215.187 112.872 213.407 112.872 210.347V209.067H109.132V207.667ZM123.552 217.647H121.952V212.767H117.932V211.367H121.952V207.467H123.552V217.647ZM116.952 225.807C114.772 225.807 112.752 225.507 111.452 224.647C110.532 224.067 109.972 223.227 109.972 222.107C109.972 220.987 110.532 220.147 111.452 219.547C112.752 218.707 114.772 218.367 116.952 218.367C119.132 218.367 121.172 218.707 122.472 219.547C123.372 220.147 123.952 220.987 123.952 222.107C123.952 223.227 123.372 224.067 122.472 224.647C121.172 225.507 119.132 225.807 116.952 225.807ZM116.952 219.767C115.092 219.767 113.412 220.047 112.432 220.667C111.912 221.027 111.592 221.507 111.592 222.107C111.592 222.687 111.912 223.167 112.432 223.527C113.412 224.147 115.092 224.427 116.952 224.427C118.812 224.427 120.512 224.147 121.472 223.527C122.032 223.167 122.352 222.687 122.352 222.107C122.352 221.507 122.032 221.027 121.472 220.667C120.512 220.047 118.812 219.767 116.952 219.767ZM135.771 214.647V209.187H128.531V207.787H137.371V214.407C137.371 216.167 137.211 218.167 136.931 219.407H135.351C135.611 218.167 135.771 216.267 135.771 214.647ZM130.711 214.427H132.331V222.927H136.511C138.291 222.927 139.791 222.527 140.651 221.787V207.467H142.251V214.987H145.171V216.387H142.251V225.347H140.651V223.147C139.771 223.927 138.191 224.327 136.271 224.327H127.891V222.927H130.711V214.427ZM153.111 211.987C153.111 210.447 153.611 209.227 154.511 208.447C155.311 207.747 156.411 207.347 157.731 207.347C159.031 207.347 160.151 207.747 160.931 208.447C161.211 208.687 161.471 208.987 161.671 209.327H166.171V207.467H167.771V217.747H166.171V214.667H161.671C161.451 214.987 161.211 215.287 160.931 215.547C160.151 216.247 159.031 216.647 157.731 216.647C156.411 216.647 155.311 216.247 154.511 215.547C153.611 214.727 153.111 213.547 153.111 211.987ZM162.211 210.687C162.311 211.087 162.351 211.527 162.351 211.987C162.351 212.467 162.311 212.907 162.211 213.307H166.171V210.687H162.211ZM154.671 211.987C154.671 213.047 154.991 213.887 155.571 214.467C156.111 214.967 156.831 215.247 157.731 215.247C158.611 215.247 159.351 214.967 159.871 214.467C160.451 213.887 160.771 213.047 160.771 211.987C160.771 210.927 160.451 210.087 159.871 209.527C159.351 209.027 158.611 208.747 157.731 208.747C156.831 208.747 156.111 209.027 155.571 209.527C154.991 210.087 154.671 210.927 154.671 211.987ZM161.171 225.807C158.991 225.807 156.971 225.507 155.671 224.647C154.751 224.067 154.191 223.227 154.191 222.107C154.191 220.987 154.751 220.147 155.671 219.547C156.971 218.707 158.991 218.367 161.171 218.367C163.351 218.367 165.391 218.707 166.691 219.547C167.591 220.147 168.171 220.987 168.171 222.107C168.171 223.227 167.591 224.067 166.691 224.647C165.391 225.507 163.351 225.807 161.171 225.807ZM161.171 219.767C159.311 219.767 157.631 220.047 156.651 220.667C156.131 221.027 155.811 221.507 155.811 222.107C155.811 222.687 156.131 223.167 156.651 223.527C157.631 224.147 159.311 224.427 161.171 224.427C163.031 224.427 164.731 224.147 165.691 223.527C166.251 223.167 166.571 222.687 166.571 222.107C166.571 221.507 166.251 221.027 165.691 220.667C164.731 220.047 163.031 219.767 161.171 219.767ZM179.17 209.067H172.31V207.667H180.79V208.687C180.79 214.227 177.27 216.727 171.85 217.287V215.887C176.35 215.427 179.17 213.187 179.17 209.067ZM186.47 207.467V211.627H189.21V213.047H186.47V217.427H184.87V207.467H186.47ZM173.35 225.567V218.867H186.47V225.567H173.35ZM184.87 220.247H174.95V224.187H184.87V220.247ZM192.009 210.247C192.009 209.507 192.289 208.967 192.889 208.527C193.989 207.767 196.069 207.467 199.229 207.467C202.389 207.467 204.469 207.767 205.549 208.527C206.149 208.967 206.449 209.507 206.449 210.247C206.449 210.947 206.149 211.507 205.549 211.927C204.469 212.707 202.389 213.027 199.229 213.027C196.069 213.027 193.989 212.707 192.889 211.927C192.289 211.507 192.009 210.947 192.009 210.247ZM193.629 210.247C193.629 210.567 193.769 210.827 194.089 211.027C194.829 211.507 196.489 211.687 199.229 211.687C201.969 211.687 203.629 211.507 204.369 211.027C204.689 210.827 204.829 210.567 204.829 210.247C204.829 209.927 204.689 209.647 204.369 209.427C203.629 208.967 201.969 208.767 199.229 208.767C196.489 208.767 194.829 208.967 194.089 209.427C193.769 209.647 193.629 209.927 193.629 210.247ZM191.149 216.107V214.747H207.269V216.107H191.149ZM193.969 222.467V224.267H206.489V225.567H192.369V221.147H204.449V219.327H192.369V218.027H206.049V222.467H193.969ZM211.409 209.087V207.667H225.389V209.087H219.189V209.607C219.189 212.787 222.349 214.707 225.549 215.267V216.707C222.309 216.147 219.649 214.667 218.389 212.487C217.149 214.667 214.389 216.147 211.189 216.707V215.267C214.369 214.727 217.569 212.787 217.569 209.607V209.087H211.409ZM210.449 220.667V219.247H226.369V220.667H219.189V225.667H217.569V220.667H210.449ZM232.368 207.567V212.207H244.568V213.607H230.768V207.567H232.368ZM229.548 217.927V216.527H245.668V217.927H229.548ZM232.368 219.927V224.067H244.808V225.447H230.768V219.927H232.368ZM120.952 242.227V244.167H133.152V245.487H119.352V237.667H133.032V239.007H120.952V240.927H132.812V242.227H120.952ZM118.132 248.847V247.467H134.252V248.847H118.132ZM131.432 255.667V252.227H119.212V250.887H133.032V255.667H131.432ZM139.511 240.307H144.851V237.667H146.431V239.387H150.751V237.467H152.351V246.367H150.751V244.167H146.431V245.787H137.931V237.667H139.511V240.307ZM146.431 240.707V242.827H150.751V240.707H146.431ZM144.851 244.467V241.627H139.511V244.467H144.851ZM140.671 252.267V254.267H152.591V255.567H139.051V250.967H150.751V248.967H139.051V247.667H152.351V252.267H140.671ZM156.25 240.347V239.027H160.57V236.907H162.15V239.027H166.41V240.347H156.25ZM158.37 245.427C158.37 246.067 158.65 246.567 159.11 246.967C159.67 247.407 160.45 247.647 161.33 247.647C162.21 247.647 163.01 247.407 163.57 246.967C164.03 246.567 164.31 246.067 164.31 245.427C164.31 244.787 164.03 244.267 163.57 243.887C163.01 243.427 162.21 243.187 161.33 243.187C160.45 243.187 159.67 243.427 159.11 243.887C158.65 244.267 158.37 244.787 158.37 245.427ZM156.81 245.427C156.81 244.347 157.27 243.447 158.07 242.847C158.87 242.227 160.03 241.887 161.33 241.887C162.65 241.887 163.79 242.227 164.61 242.847C165.41 243.447 165.87 244.347 165.87 245.427C165.87 246.487 165.41 247.387 164.61 247.987C163.79 248.607 162.65 248.947 161.33 248.947C160.03 248.947 158.87 248.607 158.07 247.987C157.27 247.387 156.81 246.487 156.81 245.427ZM171.05 237.467V242.747H173.79V244.167H171.05V250.467H169.45V237.467H171.05ZM159.53 250.327V254.067H171.39V255.447H157.93V250.327H159.53ZM181.91 237.667H191.01V239.067H187.25V240.347C187.25 243.367 189.17 244.947 191.33 245.447V246.887C189.17 246.427 187.33 245.147 186.49 243.467C185.67 245.187 183.83 246.707 181.61 247.127V245.687C183.83 245.187 185.65 243.407 185.65 240.347V239.067H181.91V237.667ZM196.07 237.467V241.627H198.81V243.047H196.07V247.647H194.47V237.467H196.07ZM182.71 252.107C182.71 251.067 183.21 250.247 184.05 249.667C185.29 248.787 187.27 248.367 189.63 248.367C191.99 248.367 193.97 248.787 195.19 249.667C196.03 250.247 196.53 251.067 196.53 252.107C196.53 253.147 196.03 253.967 195.19 254.567C193.97 255.427 191.99 255.807 189.63 255.807C187.27 255.807 185.29 255.427 184.05 254.567C183.21 253.967 182.71 253.147 182.71 252.107ZM184.33 252.107C184.33 252.667 184.63 253.167 185.19 253.547C186.05 254.147 187.61 254.427 189.63 254.427C191.63 254.427 193.19 254.147 194.09 253.547C194.63 253.167 194.91 252.667 194.91 252.107C194.91 251.527 194.63 251.027 194.09 250.667C193.19 250.067 191.63 249.767 189.63 249.767C187.61 249.767 186.05 250.067 185.19 250.667C184.63 251.027 184.33 251.527 184.33 252.107ZM208.789 242.807C207.669 245.167 205.189 247.307 201.149 248.087V246.667C205.269 245.747 207.969 243.047 207.969 239.127V237.667H209.589V239.127C209.589 243.047 212.389 245.747 216.429 246.667V248.087C212.429 247.287 209.909 245.167 208.789 242.807ZM200.849 254.567V253.167H207.969V247.467H209.589V253.167H216.769V254.567H200.849Z" fill="white"/>
<rect x="311.5" y="0.5" width="334" height="334" rx="167" stroke="white"/>
<path d="M411.665 79.1134V83.2054H403.525V109.693H398.509V83.2054H390.325V79.1134H411.665ZM415.073 97.4614C415.073 95.0267 415.572 92.8707 416.569 90.9934C417.596 89.116 418.975 87.664 420.705 86.6374C422.465 85.5814 424.401 85.0534 426.513 85.0534C428.42 85.0534 430.077 85.4347 431.485 86.1974C432.923 86.9307 434.067 87.8547 434.917 88.9694V85.4494H439.977V109.693H434.917V106.085C434.067 107.229 432.908 108.183 431.441 108.945C429.975 109.708 428.303 110.089 426.425 110.089C424.343 110.089 422.436 109.561 420.705 108.505C418.975 107.42 417.596 105.924 416.569 104.017C415.572 102.081 415.073 99.896 415.073 97.4614ZM434.917 97.5494C434.917 95.8774 434.565 94.4254 433.861 93.1934C433.187 91.9614 432.292 91.0227 431.177 90.3774C430.063 89.732 428.86 89.4094 427.569 89.4094C426.279 89.4094 425.076 89.732 423.961 90.3774C422.847 90.9934 421.937 91.9174 421.233 93.1494C420.559 94.352 420.221 95.7894 420.221 97.4614C420.221 99.1334 420.559 100.6 421.233 101.861C421.937 103.123 422.847 104.091 423.961 104.765C425.105 105.411 426.308 105.733 427.569 105.733C428.86 105.733 430.063 105.411 431.177 104.765C432.292 104.12 433.187 103.181 433.861 101.949C434.565 100.688 434.917 99.2214 434.917 97.5494ZM449.118 82.2374C448.208 82.2374 447.446 81.9294 446.83 81.3134C446.214 80.6974 445.906 79.9347 445.906 79.0254C445.906 78.116 446.214 77.3534 446.83 76.7374C447.446 76.1214 448.208 75.8134 449.118 75.8134C449.998 75.8134 450.746 76.1214 451.362 76.7374C451.978 77.3534 452.286 78.116 452.286 79.0254C452.286 79.9347 451.978 80.6974 451.362 81.3134C450.746 81.9294 449.998 82.2374 449.118 82.2374ZM451.582 85.4494V109.693H446.566V85.4494H451.582ZM463.183 77.1334V109.693H458.167V77.1334H463.183ZM480.285 110.089C477.997 110.089 475.929 109.576 474.081 108.549C472.233 107.493 470.781 106.027 469.725 104.149C468.669 102.243 468.141 100.043 468.141 97.5494C468.141 95.0854 468.683 92.9 469.769 90.9934C470.854 89.0867 472.335 87.62 474.213 86.5934C476.09 85.5667 478.187 85.0534 480.505 85.0534C482.822 85.0534 484.919 85.5667 486.797 86.5934C488.674 87.62 490.155 89.0867 491.241 90.9934C492.326 92.9 492.869 95.0854 492.869 97.5494C492.869 100.013 492.311 102.199 491.197 104.105C490.082 106.012 488.557 107.493 486.621 108.549C484.714 109.576 482.602 110.089 480.285 110.089ZM480.285 105.733C481.575 105.733 482.778 105.425 483.893 104.809C485.037 104.193 485.961 103.269 486.665 102.037C487.369 100.805 487.721 99.3094 487.721 97.5494C487.721 95.7894 487.383 94.308 486.709 93.1054C486.034 91.8734 485.139 90.9494 484.025 90.3334C482.91 89.7174 481.707 89.4094 480.417 89.4094C479.126 89.4094 477.923 89.7174 476.809 90.3334C475.723 90.9494 474.858 91.8734 474.213 93.1054C473.567 94.308 473.245 95.7894 473.245 97.5494C473.245 100.16 473.905 102.184 475.225 103.621C476.574 105.029 478.261 105.733 480.285 105.733ZM502.843 88.9694C503.577 87.7374 504.545 86.784 505.747 86.1094C506.979 85.4054 508.431 85.0534 510.103 85.0534V90.2454H508.827C506.862 90.2454 505.366 90.744 504.339 91.7414C503.342 92.7387 502.843 94.4694 502.843 96.9334V109.693H497.827V85.4494H502.843V88.9694ZM536.934 96.9774C536.934 97.8867 536.875 98.708 536.758 99.4414H518.234C518.381 101.377 519.099 102.932 520.39 104.105C521.681 105.279 523.265 105.865 525.142 105.865C527.841 105.865 529.747 104.736 530.862 102.477H536.274C535.541 104.707 534.206 106.54 532.27 107.977C530.363 109.385 527.987 110.089 525.142 110.089C522.825 110.089 520.742 109.576 518.894 108.549C517.075 107.493 515.638 106.027 514.582 104.149C513.555 102.243 513.042 100.043 513.042 97.5494C513.042 95.056 513.541 92.8707 514.538 90.9934C515.565 89.0867 516.987 87.62 518.806 86.5934C520.654 85.5667 522.766 85.0534 525.142 85.0534C527.43 85.0534 529.469 85.552 531.258 86.5494C533.047 87.5467 534.441 88.9547 535.438 90.7734C536.435 92.5627 536.934 94.6307 536.934 96.9774ZM531.698 95.3934C531.669 93.5454 531.009 92.064 529.718 90.9494C528.427 89.8347 526.829 89.2774 524.922 89.2774C523.191 89.2774 521.71 89.8347 520.478 90.9494C519.246 92.0347 518.513 93.516 518.278 95.3934H531.698ZM540.198 97.4614C540.198 95.0267 540.697 92.8707 541.694 90.9934C542.721 89.116 544.1 87.664 545.83 86.6374C547.59 85.5814 549.541 85.0534 551.682 85.0534C553.266 85.0534 554.821 85.4054 556.346 86.1094C557.901 86.784 559.133 87.6934 560.042 88.8374V77.1334H565.102V109.693H560.042V106.041C559.221 107.215 558.077 108.183 556.61 108.945C555.173 109.708 553.516 110.089 551.638 110.089C549.526 110.089 547.59 109.561 545.83 108.505C544.1 107.42 542.721 105.924 541.694 104.017C540.697 102.081 540.198 99.896 540.198 97.4614ZM560.042 97.5494C560.042 95.8774 559.69 94.4254 558.986 93.1934C558.312 91.9614 557.417 91.0227 556.302 90.3774C555.188 89.732 553.985 89.4094 552.694 89.4094C551.404 89.4094 550.201 89.732 549.086 90.3774C547.972 90.9934 547.062 91.9174 546.358 93.1494C545.684 94.352 545.346 95.7894 545.346 97.4614C545.346 99.1334 545.684 100.6 546.358 101.861C547.062 103.123 547.972 104.091 549.086 104.765C550.23 105.411 551.433 105.733 552.694 105.733C553.985 105.733 555.188 105.411 556.302 104.765C557.417 104.12 558.312 103.181 558.986 101.949C559.69 100.688 560.042 99.2214 560.042 97.5494ZM383.01 155.693L379.226 151.909C377.759 153.376 376.161 154.476 374.43 155.209C372.699 155.913 370.763 156.265 368.622 156.265C366.451 156.265 364.53 155.884 362.858 155.121C361.186 154.359 359.895 153.273 358.986 151.865C358.077 150.428 357.622 148.771 357.622 146.893C357.622 144.781 358.223 142.904 359.426 141.261C360.629 139.589 362.418 138.269 364.794 137.301C363.943 136.275 363.342 135.321 362.99 134.441C362.638 133.532 362.462 132.535 362.462 131.449C362.462 130.1 362.799 128.897 363.474 127.841C364.178 126.785 365.175 125.949 366.466 125.333C367.757 124.717 369.253 124.409 370.954 124.409C372.685 124.409 374.151 124.747 375.354 125.421C376.586 126.067 377.495 126.961 378.082 128.105C378.698 129.249 378.947 130.525 378.83 131.933H373.814C373.843 130.848 373.579 130.012 373.022 129.425C372.465 128.809 371.702 128.501 370.734 128.501C369.766 128.501 368.974 128.795 368.358 129.381C367.771 129.939 367.478 130.628 367.478 131.449C367.478 132.241 367.698 133.033 368.138 133.825C368.607 134.588 369.414 135.585 370.558 136.817L378.654 144.869L381.778 139.721H387.19L383.23 146.497L382.13 148.301L389.566 155.693H383.01ZM368.622 151.997C371.379 151.997 373.814 150.868 375.926 148.609L367.83 140.469C364.369 141.848 362.638 143.931 362.638 146.717C362.638 148.213 363.195 149.475 364.31 150.501C365.425 151.499 366.862 151.997 368.622 151.997ZM425.668 134.221C425.668 135.776 425.302 137.243 424.568 138.621C423.835 140 422.662 141.129 421.048 142.009C419.435 142.86 417.367 143.285 414.844 143.285H409.3V155.693H404.284V125.113H414.844C417.191 125.113 419.171 125.524 420.784 126.345C422.427 127.137 423.644 128.223 424.436 129.601C425.258 130.98 425.668 132.52 425.668 134.221ZM414.844 139.193C416.751 139.193 418.174 138.768 419.112 137.917C420.051 137.037 420.52 135.805 420.52 134.221C420.52 130.877 418.628 129.205 414.844 129.205H409.3V139.193H414.844ZM435.468 134.969C436.202 133.737 437.17 132.784 438.372 132.109C439.604 131.405 441.056 131.053 442.728 131.053V136.245H441.452C439.487 136.245 437.991 136.744 436.964 137.741C435.967 138.739 435.468 140.469 435.468 142.933V155.693H430.452V131.449H435.468V134.969ZM469.559 142.977C469.559 143.887 469.5 144.708 469.383 145.441H450.859C451.006 147.377 451.724 148.932 453.015 150.105C454.306 151.279 455.89 151.865 457.767 151.865C460.466 151.865 462.372 150.736 463.487 148.477H468.899C468.166 150.707 466.831 152.54 464.895 153.977C462.988 155.385 460.612 156.089 457.767 156.089C455.45 156.089 453.367 155.576 451.519 154.549C449.7 153.493 448.263 152.027 447.207 150.149C446.18 148.243 445.667 146.043 445.667 143.549C445.667 141.056 446.166 138.871 447.163 136.993C448.19 135.087 449.612 133.62 451.431 132.593C453.279 131.567 455.391 131.053 457.767 131.053C460.055 131.053 462.094 131.552 463.883 132.549C465.672 133.547 467.066 134.955 468.063 136.773C469.06 138.563 469.559 140.631 469.559 142.977ZM464.323 141.393C464.294 139.545 463.634 138.064 462.343 136.949C461.052 135.835 459.454 135.277 457.547 135.277C455.816 135.277 454.335 135.835 453.103 136.949C451.871 138.035 451.138 139.516 450.903 141.393H464.323ZM472.823 143.549C472.823 141.056 473.322 138.871 474.319 136.993C475.346 135.087 476.754 133.62 478.543 132.593C480.333 131.567 482.386 131.053 484.703 131.053C487.637 131.053 490.057 131.757 491.963 133.165C493.899 134.544 495.205 136.524 495.879 139.105H490.467C490.027 137.903 489.323 136.964 488.355 136.289C487.387 135.615 486.17 135.277 484.703 135.277C482.65 135.277 481.007 136.011 479.775 137.477C478.573 138.915 477.971 140.939 477.971 143.549C477.971 146.16 478.573 148.199 479.775 149.665C481.007 151.132 482.65 151.865 484.703 151.865C487.607 151.865 489.529 150.589 490.467 148.037H495.879C495.175 150.501 493.855 152.467 491.919 153.933C489.983 155.371 487.578 156.089 484.703 156.089C482.386 156.089 480.333 155.576 478.543 154.549C476.754 153.493 475.346 152.027 474.319 150.149C473.322 148.243 472.823 146.043 472.823 143.549ZM503.43 128.237C502.521 128.237 501.758 127.929 501.142 127.313C500.526 126.697 500.218 125.935 500.218 125.025C500.218 124.116 500.526 123.353 501.142 122.737C501.758 122.121 502.521 121.813 503.43 121.813C504.31 121.813 505.058 122.121 505.674 122.737C506.29 123.353 506.598 124.116 506.598 125.025C506.598 125.935 506.29 126.697 505.674 127.313C505.058 127.929 504.31 128.237 503.43 128.237ZM505.894 131.449V155.693H500.878V131.449H505.894ZM521.28 156.089C519.373 156.089 517.657 155.752 516.132 155.077C514.636 154.373 513.448 153.435 512.568 152.261C511.688 151.059 511.218 149.724 511.16 148.257H516.352C516.44 149.284 516.924 150.149 517.804 150.853C518.713 151.528 519.842 151.865 521.192 151.865C522.6 151.865 523.685 151.601 524.448 151.073C525.24 150.516 525.636 149.812 525.636 148.961C525.636 148.052 525.196 147.377 524.316 146.937C523.465 146.497 522.101 146.013 520.224 145.485C518.405 144.987 516.924 144.503 515.78 144.033C514.636 143.564 513.638 142.845 512.788 141.877C511.966 140.909 511.556 139.633 511.556 138.049C511.556 136.759 511.937 135.585 512.7 134.529C513.462 133.444 514.548 132.593 515.956 131.977C517.393 131.361 519.036 131.053 520.884 131.053C523.641 131.053 525.856 131.757 527.528 133.165C529.229 134.544 530.138 136.436 530.256 138.841H525.24C525.152 137.756 524.712 136.891 523.92 136.245C523.128 135.6 522.057 135.277 520.708 135.277C519.388 135.277 518.376 135.527 517.672 136.025C516.968 136.524 516.616 137.184 516.616 138.005C516.616 138.651 516.85 139.193 517.32 139.633C517.789 140.073 518.361 140.425 519.036 140.689C519.71 140.924 520.708 141.232 522.028 141.613C523.788 142.083 525.225 142.567 526.34 143.065C527.484 143.535 528.466 144.239 529.288 145.177C530.109 146.116 530.534 147.363 530.564 148.917C530.564 150.296 530.182 151.528 529.42 152.613C528.657 153.699 527.572 154.549 526.164 155.165C524.785 155.781 523.157 156.089 521.28 156.089ZM538.536 128.237C537.626 128.237 536.864 127.929 536.248 127.313C535.632 126.697 535.324 125.935 535.324 125.025C535.324 124.116 535.632 123.353 536.248 122.737C536.864 122.121 537.626 121.813 538.536 121.813C539.416 121.813 540.164 122.121 540.78 122.737C541.396 123.353 541.704 124.116 541.704 125.025C541.704 125.935 541.396 126.697 540.78 127.313C540.164 127.929 539.416 128.237 538.536 128.237ZM541 131.449V155.693H535.984V131.449H541ZM558.101 156.089C555.813 156.089 553.745 155.576 551.897 154.549C550.049 153.493 548.597 152.027 547.541 150.149C546.485 148.243 545.957 146.043 545.957 143.549C545.957 141.085 546.5 138.9 547.585 136.993C548.67 135.087 550.152 133.62 552.029 132.593C553.906 131.567 556.004 131.053 558.321 131.053C560.638 131.053 562.736 131.567 564.613 132.593C566.49 133.62 567.972 135.087 569.057 136.993C570.142 138.9 570.685 141.085 570.685 143.549C570.685 146.013 570.128 148.199 569.013 150.105C567.898 152.012 566.373 153.493 564.437 154.549C562.53 155.576 560.418 156.089 558.101 156.089ZM558.101 151.733C559.392 151.733 560.594 151.425 561.709 150.809C562.853 150.193 563.777 149.269 564.481 148.037C565.185 146.805 565.537 145.309 565.537 143.549C565.537 141.789 565.2 140.308 564.525 139.105C563.85 137.873 562.956 136.949 561.841 136.333C560.726 135.717 559.524 135.409 558.233 135.409C556.942 135.409 555.74 135.717 554.625 136.333C553.54 136.949 552.674 137.873 552.029 139.105C551.384 140.308 551.061 141.789 551.061 143.549C551.061 146.16 551.721 148.184 553.041 149.621C554.39 151.029 556.077 151.733 558.101 151.733ZM587.876 131.053C589.782 131.053 591.484 131.449 592.98 132.241C594.505 133.033 595.693 134.207 596.544 135.761C597.394 137.316 597.82 139.193 597.82 141.393V155.693H592.848V142.141C592.848 139.971 592.305 138.313 591.22 137.169C590.134 135.996 588.653 135.409 586.776 135.409C584.898 135.409 583.402 135.996 582.288 137.169C581.202 138.313 580.66 139.971 580.66 142.141V155.693H575.644V131.449H580.66V134.221C581.481 133.224 582.522 132.447 583.784 131.889C585.074 131.332 586.438 131.053 587.876 131.053Z" fill="white"/>
<path d="M478.5 187.307C480.709 187.307 482.5 185.602 482.5 183.5C482.5 181.398 480.709 179.693 478.5 179.693C476.291 179.693 474.5 181.398 474.5 183.5C474.5 185.602 476.291 187.307 478.5 187.307Z" fill="white"/>
<path d="M398.183 210.807V209.387H402.143V206.907H403.743V209.387H407.623V210.807H403.743V211.447C403.743 214.327 405.703 216.107 407.923 216.947V218.387C405.663 217.687 403.703 216.167 402.963 214.607C402.243 216.227 400.363 217.847 397.943 218.607V217.147C400.223 216.307 402.143 214.347 402.143 211.447V210.807H398.183ZM412.383 225.367H410.763V223.167C409.763 224.047 407.903 224.327 405.623 224.327H397.583V222.927H402.183V218.347H403.783V222.927H406.203C407.963 222.927 409.683 222.687 410.763 221.787V207.467H412.383V225.367ZM417.222 207.667H426.302V209.067H422.562V210.567C422.562 213.587 424.462 215.167 426.622 215.647V217.107C424.462 216.647 422.622 215.347 421.802 213.687C420.982 215.407 419.142 216.927 416.922 217.347V215.887C419.142 215.407 420.962 213.627 420.962 210.567V209.067H417.222V207.667ZM431.642 217.727H430.042V212.827H426.022V211.447H430.042V207.467H431.642V217.727ZM430.042 225.667V220.667H418.122V219.267H431.642V225.667H430.042ZM436.621 213.087C436.621 211.167 437.181 209.647 438.281 208.687C439.061 207.967 440.201 207.567 441.481 207.567C442.761 207.567 443.881 207.967 444.681 208.687C445.781 209.647 446.341 211.167 446.341 213.087C446.341 214.987 445.781 216.507 444.681 217.487C443.881 218.207 442.761 218.587 441.481 218.587C440.201 218.587 439.061 218.207 438.281 217.487C437.181 216.507 436.621 214.987 436.621 213.087ZM438.241 213.087C438.241 214.527 438.581 215.727 439.321 216.427C439.861 216.927 440.581 217.187 441.481 217.187C442.361 217.187 443.101 216.927 443.621 216.427C444.381 215.727 444.741 214.527 444.741 213.087C444.741 211.647 444.381 210.447 443.621 209.747C443.101 209.227 442.361 208.987 441.481 208.987C440.581 208.987 439.861 209.227 439.321 209.747C438.581 210.447 438.241 211.647 438.241 213.087ZM450.781 225.367H449.161V223.167C448.161 224.047 446.301 224.327 444.021 224.327H435.981V222.927H444.601C446.361 222.927 448.081 222.687 449.161 221.787V207.467H450.781V225.367ZM466.621 207.567V209.107C466.621 212.067 468.621 213.687 470.861 214.327V215.767C468.581 215.247 466.621 213.787 465.801 212.207C465.061 213.887 463.101 215.407 460.741 215.967V214.547C463.041 213.867 465.001 212.027 465.001 209.107V207.567H466.621ZM475.861 216.107H474.261V211.727H470.041V210.327H474.261V207.467H475.861V216.107ZM464.181 222.167V224.267H476.101V225.567H462.561V220.847H474.261V218.767H462.561V217.447H475.861V222.167H464.181ZM485.46 213.147V209.187H480.7V207.787H487.06V211.847H489.82V207.567H491.38V225.167H489.82V219.407H486.68V218.007H489.82V213.267H487.06C487.02 219.047 484.92 222.907 480.46 224.247V222.687C483.6 221.607 485.46 218.367 485.46 213.147ZM495.26 225.347H493.7V207.467H495.26V225.347ZM502.059 211.607V213.187H514.259V214.407H500.459V210.407H512.539V208.907H500.459V207.667H514.139V211.607H502.059ZM499.239 217.267V215.967H515.359V217.267H499.239ZM502.059 222.767V224.387H514.579V225.567H500.459V221.607H512.539V220.067H500.459V218.867H514.139V222.767H502.059ZM527.079 212.087V213.927H539.279V215.207H533.099V217.067H540.379V218.387H524.259V217.067H531.479V215.207H525.479V207.667H539.159V208.987H527.079V210.807H538.939V212.087H527.079ZM525.119 222.967C525.119 222.047 525.659 221.407 526.579 220.947C527.819 220.307 529.839 220.027 532.339 220.027C534.839 220.027 536.859 220.307 538.099 220.947C539.019 221.407 539.559 222.047 539.559 222.967C539.559 223.887 539.019 224.567 538.099 225.007C536.859 225.647 534.839 225.907 532.339 225.907C529.839 225.907 527.819 225.647 526.579 225.007C525.659 224.567 525.119 223.887 525.119 222.967ZM526.739 222.967C526.739 223.367 526.979 223.667 527.399 223.887C528.299 224.387 530.039 224.607 532.339 224.607C534.659 224.607 536.359 224.387 537.259 223.887C537.719 223.667 537.939 223.367 537.939 222.967C537.939 222.607 537.719 222.287 537.259 222.047C536.359 221.567 534.659 221.347 532.339 221.347C530.039 221.347 528.299 221.567 527.399 222.047C526.979 222.287 526.739 222.607 526.739 222.967ZM543.178 210.347V209.027H547.498V206.907H549.078V209.027H553.338V210.347H543.178ZM545.298 215.427C545.298 216.067 545.578 216.567 546.038 216.967C546.598 217.407 547.378 217.647 548.258 217.647C549.138 217.647 549.938 217.407 550.498 216.967C550.958 216.567 551.238 216.067 551.238 215.427C551.238 214.787 550.958 214.267 550.498 213.887C549.938 213.427 549.138 213.187 548.258 213.187C547.378 213.187 546.598 213.427 546.038 213.887C545.578 214.267 545.298 214.787 545.298 215.427ZM543.738 215.427C543.738 214.347 544.198 213.447 544.998 212.847C545.798 212.227 546.958 211.887 548.258 211.887C549.578 211.887 550.718 212.227 551.538 212.847C552.338 213.447 552.798 214.347 552.798 215.427C552.798 216.487 552.338 217.387 551.538 217.987C550.718 218.607 549.578 218.947 548.258 218.947C546.958 218.947 545.798 218.607 544.998 217.987C544.198 217.387 543.738 216.487 543.738 215.427ZM557.978 207.467V212.747H560.718V214.167H557.978V220.467H556.378V207.467H557.978ZM546.458 220.327V224.067H558.318V225.447H544.858V220.327H546.458ZM429.732 237.667H438.812V239.067H435.072V240.347C435.072 243.367 436.972 244.947 439.132 245.447V246.887C436.972 246.427 435.132 245.147 434.312 243.467C433.492 245.187 431.652 246.707 429.432 247.127V245.687C431.652 245.187 433.472 243.407 433.472 240.347V239.067H429.732V237.667ZM444.152 247.647H442.552V242.767H438.532V241.367H442.552V237.467H444.152V247.647ZM437.552 255.807C435.372 255.807 433.352 255.507 432.052 254.647C431.132 254.067 430.572 253.227 430.572 252.107C430.572 250.987 431.132 250.147 432.052 249.547C433.352 248.707 435.372 248.367 437.552 248.367C439.732 248.367 441.772 248.707 443.072 249.547C443.972 250.147 444.552 250.987 444.552 252.107C444.552 253.227 443.972 254.067 443.072 254.647C441.772 255.507 439.732 255.807 437.552 255.807ZM437.552 249.767C435.692 249.767 434.012 250.047 433.032 250.667C432.512 251.027 432.192 251.507 432.192 252.107C432.192 252.687 432.512 253.167 433.032 253.527C434.012 254.147 435.692 254.427 437.552 254.427C439.412 254.427 441.112 254.147 442.072 253.527C442.632 253.167 442.952 252.687 442.952 252.107C442.952 251.507 442.632 251.027 442.072 250.667C441.112 250.047 439.412 249.767 437.552 249.767ZM448.931 245.307V237.667H457.491V245.307H448.931ZM455.911 239.027H450.511V243.987H455.911V239.027ZM463.351 246.007H461.751V237.467H463.351V246.007ZM451.671 252.167V254.267H463.591V255.567H450.051V250.847H461.751V248.767H450.051V247.447H463.351V252.167H451.671ZM467.25 240.347V239.027H471.57V236.907H473.15V239.027H477.41V240.347H467.25ZM469.37 245.427C469.37 246.067 469.65 246.567 470.11 246.967C470.67 247.407 471.45 247.647 472.33 247.647C473.21 247.647 474.01 247.407 474.57 246.967C475.03 246.567 475.31 246.067 475.31 245.427C475.31 244.787 475.03 244.267 474.57 243.887C474.01 243.427 473.21 243.187 472.33 243.187C471.45 243.187 470.67 243.427 470.11 243.887C469.65 244.267 469.37 244.787 469.37 245.427ZM467.81 245.427C467.81 244.347 468.27 243.447 469.07 242.847C469.87 242.227 471.03 241.887 472.33 241.887C473.65 241.887 474.79 242.227 475.61 242.847C476.41 243.447 476.87 244.347 476.87 245.427C476.87 246.487 476.41 247.387 475.61 247.987C474.79 248.607 473.65 248.947 472.33 248.947C471.03 248.947 469.87 248.607 469.07 247.987C468.27 247.387 467.81 246.487 467.81 245.427ZM482.05 237.467V242.747H484.79V244.167H482.05V250.467H480.45V237.467H482.05ZM470.53 250.327V254.067H482.39V255.447H468.93V250.327H470.53ZM497.63 248.967C496.97 251.327 494.87 253.247 492.45 254.127V252.647C494.71 251.627 496.83 249.607 496.83 244.667V237.667H498.43V244.667C498.43 249.607 500.57 251.567 502.79 252.647V254.127C500.41 253.207 498.33 251.307 497.63 248.967ZM507.51 237.467V255.347H505.89V237.467H507.51ZM519.769 240.187C518.589 241.807 515.649 242.907 512.249 243.247V241.847C515.649 241.507 518.969 240.187 518.969 237.847V237.567H520.589V237.847C520.589 240.187 523.809 241.487 527.329 241.847V243.247C523.849 242.907 520.949 241.787 519.769 240.187ZM511.749 246.007V244.627H527.869V246.007H520.589V248.027H526.649V252.467H514.569V254.267H527.089V255.567H512.969V251.147H525.049V249.327H512.969V248.027H518.989V246.007H511.749Z" fill="white"/>
<rect x="622.5" y="0.5" width="334" height="334" rx="167" stroke="white"/>
<path d="M722.317 109.693L715.277 97.4614H711.449V109.693H706.433V79.1134H716.993C719.339 79.1134 721.319 79.524 722.933 80.3454C724.575 81.1667 725.793 82.2667 726.585 83.6454C727.406 85.024 727.817 86.564 727.817 88.2654C727.817 90.26 727.23 92.0787 726.057 93.7214C724.913 95.3347 723.138 96.4347 720.733 97.0214L728.301 109.693H722.317ZM711.449 93.4574H716.993C718.87 93.4574 720.278 92.988 721.217 92.0494C722.185 91.1107 722.669 89.8494 722.669 88.2654C722.669 86.6814 722.199 85.4494 721.261 84.5694C720.322 83.66 718.899 83.2054 716.993 83.2054H711.449V93.4574ZM756.454 96.9774C756.454 97.8867 756.395 98.708 756.278 99.4414H737.754C737.9 101.377 738.619 102.932 739.91 104.105C741.2 105.279 742.784 105.865 744.662 105.865C747.36 105.865 749.267 104.736 750.382 102.477H755.794C755.06 104.707 753.726 106.54 751.79 107.977C749.883 109.385 747.507 110.089 744.662 110.089C742.344 110.089 740.262 109.576 738.414 108.549C736.595 107.493 735.158 106.027 734.102 104.149C733.075 102.243 732.562 100.043 732.562 97.5494C732.562 95.056 733.06 92.8707 734.058 90.9934C735.084 89.0867 736.507 87.62 738.326 86.5934C740.174 85.5667 742.286 85.0534 744.662 85.0534C746.95 85.0534 748.988 85.552 750.778 86.5494C752.567 87.5467 753.96 88.9547 754.958 90.7734C755.955 92.5627 756.454 94.6307 756.454 96.9774ZM751.218 95.3934C751.188 93.5454 750.528 92.064 749.238 90.9494C747.947 89.8347 746.348 89.2774 744.442 89.2774C742.711 89.2774 741.23 89.8347 739.998 90.9494C738.766 92.0347 738.032 93.516 737.798 95.3934H751.218ZM780.002 91.6534V95.8774H761.918V91.6534H780.002ZM799.36 85.0534C801.267 85.0534 802.968 85.4494 804.464 86.2414C805.989 87.0334 807.177 88.2067 808.028 89.7614C808.879 91.316 809.304 93.1934 809.304 95.3934V109.693H804.332V96.1414C804.332 93.9707 803.789 92.3134 802.704 91.1694C801.619 89.996 800.137 89.4094 798.26 89.4094C796.383 89.4094 794.887 89.996 793.772 91.1694C792.687 92.3134 792.144 93.9707 792.144 96.1414V109.693H787.128V85.4494H792.144V88.2214C792.965 87.224 794.007 86.4467 795.268 85.8894C796.559 85.332 797.923 85.0534 799.36 85.0534ZM837.922 96.9774C837.922 97.8867 837.864 98.708 837.746 99.4414H819.222C819.369 101.377 820.088 102.932 821.378 104.105C822.669 105.279 824.253 105.865 826.13 105.865C828.829 105.865 830.736 104.736 831.85 102.477H837.262C836.529 104.707 835.194 106.54 833.258 107.977C831.352 109.385 828.976 110.089 826.13 110.089C823.813 110.089 821.73 109.576 819.882 108.549C818.064 107.493 816.626 106.027 815.57 104.149C814.544 102.243 814.03 100.043 814.03 97.5494C814.03 95.056 814.529 92.8707 815.526 90.9934C816.553 89.0867 817.976 87.62 819.794 86.5934C821.642 85.5667 823.754 85.0534 826.13 85.0534C828.418 85.0534 830.457 85.552 832.246 86.5494C834.036 87.5467 835.429 88.9547 836.426 90.7734C837.424 92.5627 837.922 94.6307 837.922 96.9774ZM832.686 95.3934C832.657 93.5454 831.997 92.064 830.706 90.9494C829.416 89.8347 827.817 89.2774 825.91 89.2774C824.18 89.2774 822.698 89.8347 821.466 90.9494C820.234 92.0347 819.501 93.516 819.266 95.3934H832.686ZM875.419 85.4494L867.895 109.693H862.615L857.731 91.7854L852.847 109.693H847.567L839.999 85.4494H845.103L850.163 104.941L855.311 85.4494H860.547L865.475 104.853L870.491 85.4494H875.419ZM699.403 155.693L695.619 151.909C694.152 153.376 692.553 154.476 690.823 155.209C689.092 155.913 687.156 156.265 685.015 156.265C682.844 156.265 680.923 155.884 679.251 155.121C677.579 154.359 676.288 153.273 675.379 151.865C674.469 150.428 674.015 148.771 674.015 146.893C674.015 144.781 674.616 142.904 675.819 141.261C677.021 139.589 678.811 138.269 681.187 137.301C680.336 136.275 679.735 135.321 679.383 134.441C679.031 133.532 678.855 132.535 678.855 131.449C678.855 130.1 679.192 128.897 679.867 127.841C680.571 126.785 681.568 125.949 682.859 125.333C684.149 124.717 685.645 124.409 687.347 124.409C689.077 124.409 690.544 124.747 691.747 125.421C692.979 126.067 693.888 126.961 694.475 128.105C695.091 129.249 695.34 130.525 695.223 131.933H690.207C690.236 130.848 689.972 130.012 689.415 129.425C688.857 128.809 688.095 128.501 687.127 128.501C686.159 128.501 685.367 128.795 684.751 129.381C684.164 129.939 683.871 130.628 683.871 131.449C683.871 132.241 684.091 133.033 684.531 133.825C685 134.588 685.807 135.585 686.951 136.817L695.047 144.869L698.171 139.721H703.583L699.623 146.497L698.523 148.301L705.959 155.693H699.403ZM685.015 151.997C687.772 151.997 690.207 150.868 692.319 148.609L684.223 140.469C680.761 141.848 679.031 143.931 679.031 146.717C679.031 148.213 679.588 149.475 680.703 150.501C681.817 151.499 683.255 151.997 685.015 151.997ZM719.005 140.337C719.005 137.345 719.694 134.661 721.073 132.285C722.481 129.909 724.373 128.061 726.749 126.741C729.154 125.392 731.78 124.717 734.625 124.717C737.881 124.717 740.77 125.524 743.293 127.137C745.845 128.721 747.693 130.98 748.837 133.913H742.809C742.017 132.3 740.917 131.097 739.509 130.305C738.101 129.513 736.473 129.117 734.625 129.117C732.601 129.117 730.797 129.572 729.213 130.481C727.629 131.391 726.382 132.696 725.473 134.397C724.593 136.099 724.153 138.079 724.153 140.337C724.153 142.596 724.593 144.576 725.473 146.277C726.382 147.979 727.629 149.299 729.213 150.237C730.797 151.147 732.601 151.601 734.625 151.601C736.473 151.601 738.101 151.205 739.509 150.413C740.917 149.621 742.017 148.419 742.809 146.805H748.837C747.693 149.739 745.845 151.997 743.293 153.581C740.77 155.165 737.881 155.957 734.625 155.957C731.75 155.957 729.125 155.297 726.749 153.977C724.373 152.628 722.481 150.765 721.073 148.389C719.694 146.013 719.005 143.329 719.005 140.337ZM765.224 156.089C762.936 156.089 760.868 155.576 759.02 154.549C757.172 153.493 755.72 152.027 754.664 150.149C753.608 148.243 753.08 146.043 753.08 143.549C753.08 141.085 753.623 138.9 754.708 136.993C755.794 135.087 757.275 133.62 759.152 132.593C761.03 131.567 763.127 131.053 765.444 131.053C767.762 131.053 769.859 131.567 771.736 132.593C773.614 133.62 775.095 135.087 776.18 136.993C777.266 138.9 777.808 141.085 777.808 143.549C777.808 146.013 777.251 148.199 776.136 150.105C775.022 152.012 773.496 153.493 771.56 154.549C769.654 155.576 767.542 156.089 765.224 156.089ZM765.224 151.733C766.515 151.733 767.718 151.425 768.832 150.809C769.976 150.193 770.9 149.269 771.604 148.037C772.308 146.805 772.66 145.309 772.66 143.549C772.66 141.789 772.323 140.308 771.648 139.105C770.974 137.873 770.079 136.949 768.964 136.333C767.85 135.717 766.647 135.409 765.356 135.409C764.066 135.409 762.863 135.717 761.748 136.333C760.663 136.949 759.798 137.873 759.152 139.105C758.507 140.308 758.184 141.789 758.184 143.549C758.184 146.16 758.844 148.184 760.164 149.621C761.514 151.029 763.2 151.733 765.224 151.733ZM794.999 131.053C796.905 131.053 798.607 131.449 800.103 132.241C801.628 133.033 802.816 134.207 803.667 135.761C804.517 137.316 804.943 139.193 804.943 141.393V155.693H799.971V142.141C799.971 139.971 799.428 138.313 798.343 137.169C797.257 135.996 795.776 135.409 793.899 135.409C792.021 135.409 790.525 135.996 789.411 137.169C788.325 138.313 787.783 139.971 787.783 142.141V155.693H782.767V131.449H787.783V134.221C788.604 133.224 789.645 132.447 790.907 131.889C792.197 131.332 793.561 131.053 794.999 131.053ZM823.573 131.053C825.48 131.053 827.181 131.449 828.677 132.241C830.202 133.033 831.39 134.207 832.241 135.761C833.092 137.316 833.517 139.193 833.517 141.393V155.693H828.545V142.141C828.545 139.971 828.002 138.313 826.917 137.169C825.832 135.996 824.35 135.409 822.473 135.409C820.596 135.409 819.1 135.996 817.985 137.169C816.9 138.313 816.357 139.971 816.357 142.141V155.693H811.341V131.449H816.357V134.221C817.178 133.224 818.22 132.447 819.481 131.889C820.772 131.332 822.136 131.053 823.573 131.053ZM862.135 142.977C862.135 143.887 862.077 144.708 861.959 145.441H843.435C843.582 147.377 844.301 148.932 845.591 150.105C846.882 151.279 848.466 151.865 850.343 151.865C853.042 151.865 854.949 150.736 856.063 148.477H861.475C860.742 150.707 859.407 152.54 857.471 153.977C855.565 155.385 853.189 156.089 850.343 156.089C848.026 156.089 845.943 155.576 844.095 154.549C842.277 153.493 840.839 152.027 839.783 150.149C838.757 148.243 838.243 146.043 838.243 143.549C838.243 141.056 838.742 138.871 839.739 136.993C840.766 135.087 842.189 133.62 844.007 132.593C845.855 131.567 847.967 131.053 850.343 131.053C852.631 131.053 854.67 131.552 856.459 132.549C858.249 133.547 859.642 134.955 860.639 136.773C861.637 138.563 862.135 140.631 862.135 142.977ZM856.899 141.393C856.87 139.545 856.21 138.064 854.919 136.949C853.629 135.835 852.03 135.277 850.123 135.277C848.393 135.277 846.911 135.835 845.679 136.949C844.447 138.035 843.714 139.516 843.479 141.393H856.899ZM865.399 143.549C865.399 141.056 865.898 138.871 866.895 136.993C867.922 135.087 869.33 133.62 871.119 132.593C872.909 131.567 874.962 131.053 877.279 131.053C880.213 131.053 882.633 131.757 884.539 133.165C886.475 134.544 887.781 136.524 888.455 139.105H883.043C882.603 137.903 881.899 136.964 880.931 136.289C879.963 135.615 878.746 135.277 877.279 135.277C875.226 135.277 873.583 136.011 872.351 137.477C871.149 138.915 870.547 140.939 870.547 143.549C870.547 146.16 871.149 148.199 872.351 149.665C873.583 151.132 875.226 151.865 877.279 151.865C880.183 151.865 882.105 150.589 883.043 148.037H888.455C887.751 150.501 886.431 152.467 884.495 153.933C882.559 155.371 880.154 156.089 877.279 156.089C874.962 156.089 872.909 155.576 871.119 154.549C869.33 153.493 867.922 152.027 866.895 150.149C865.898 148.243 865.399 146.043 865.399 143.549ZM899.306 135.541V148.961C899.306 149.871 899.512 150.531 899.922 150.941C900.362 151.323 901.096 151.513 902.122 151.513H905.202V155.693H901.242C898.984 155.693 897.253 155.165 896.05 154.109C894.848 153.053 894.246 151.337 894.246 148.961V135.541H891.386V131.449H894.246V125.421H899.306V131.449H905.202V135.541H899.306Z" fill="white"/>
<path d="M789.5 187.307C791.709 187.307 793.5 185.602 793.5 183.5C793.5 181.398 791.709 179.693 789.5 179.693C787.291 179.693 785.5 181.398 785.5 183.5C785.5 185.602 787.291 187.307 789.5 187.307Z" fill="white"/>
<path d="M748.452 224.107H740.732V207.787H749.172V209.187H742.332V222.727H748.712C750.552 222.727 752.132 222.247 753.052 221.367V207.467H754.652V214.987H757.572V216.387H754.652V225.367H753.052V222.707C752.192 223.607 750.432 224.107 748.452 224.107ZM764.411 218.967C763.751 221.327 761.651 223.247 759.231 224.127V222.647C761.491 221.627 763.611 219.607 763.611 214.667V207.667H765.211V214.667C765.211 219.607 767.351 221.567 769.571 222.647V224.127C767.191 223.207 765.111 221.307 764.411 218.967ZM774.291 207.467V225.347H772.671V207.467H774.291ZM784.711 209.127H788.451V206.907H790.051V209.127H793.811V210.527H790.051V210.767C790.051 213.747 791.971 215.387 794.131 215.867V217.327C791.971 216.847 790.131 215.567 789.291 213.907C788.471 215.607 786.631 217.127 784.411 217.567V216.107C786.631 215.607 788.451 213.787 788.451 210.767V210.527H784.711V209.127ZM798.871 207.467V211.747H801.611V213.147H798.871V217.647H797.271V207.467H798.871ZM792.271 222.947C791.151 224.587 788.471 225.527 785.211 225.567V224.187C788.551 224.167 791.471 222.927 791.471 220.847V220.467H785.751V219.087H798.871V220.467H793.071V220.847C793.071 222.927 796.011 224.147 799.391 224.187V225.567C796.051 225.487 793.351 224.527 792.271 222.947ZM811.51 215.927C811.51 212.887 811.21 210.707 810.33 209.667C809.87 209.147 809.25 208.867 808.51 208.867C807.75 208.867 807.13 209.147 806.71 209.667C805.81 210.707 805.53 212.887 805.53 215.927C805.53 218.947 805.81 221.147 806.71 222.207C807.13 222.727 807.75 222.987 808.51 222.987C809.25 222.987 809.87 222.727 810.33 222.207C811.21 221.147 811.51 218.947 811.51 215.927ZM803.93 215.927C803.93 212.567 804.31 210.087 805.53 208.727C806.23 207.907 807.27 207.467 808.51 207.467C809.77 207.467 810.79 207.907 811.51 208.727C812.71 210.087 813.09 212.567 813.09 215.927C813.09 219.267 812.71 221.747 811.51 223.127C810.79 223.967 809.77 224.347 808.51 224.347C807.27 224.347 806.23 223.967 805.53 223.127C804.31 221.747 803.93 219.267 803.93 215.927ZM818.07 207.467V214.987H820.99V216.387H818.07V225.367H816.47V207.467H818.07ZM828.289 217.007H823.229V207.567H824.789V215.607H828.649C830.129 215.607 831.269 215.327 832.109 214.747V207.567H833.629V212.107H836.489V207.467H838.049V219.967H836.489V213.507H833.629V219.607H832.109V216.107C831.309 216.707 830.089 217.007 828.289 217.007ZM838.389 225.447H824.589V219.587H826.189V224.067H838.389V225.447ZM730.892 241.567C730.892 240.147 731.472 239.067 732.392 238.327C733.192 237.687 734.292 237.347 735.532 237.347C736.772 237.347 737.872 237.687 738.672 238.327C739.592 239.067 740.172 240.147 740.172 241.567C740.172 242.967 739.592 244.067 738.672 244.807C737.872 245.447 736.772 245.787 735.532 245.787C734.292 245.787 733.192 245.447 732.392 244.807C731.472 244.067 730.892 242.967 730.892 241.567ZM732.452 241.567C732.452 242.487 732.792 243.207 733.372 243.707C733.912 244.187 734.652 244.427 735.532 244.427C736.392 244.427 737.152 244.187 737.692 243.707C738.252 243.207 738.592 242.487 738.592 241.567C738.592 240.647 738.252 239.927 737.692 239.427C737.152 238.967 736.392 238.707 735.532 238.707C734.652 238.707 733.912 238.967 733.372 239.427C732.792 239.927 732.452 240.647 732.452 241.567ZM745.552 246.007H743.952V237.467H745.552V246.007ZM733.872 252.167V254.267H745.792V255.567H732.252V250.847H743.952V248.767H732.252V247.447H745.552V252.167H733.872ZM755.291 237.567V239.907C755.291 242.987 757.251 244.727 759.551 245.447V246.887C757.211 246.267 755.311 244.827 754.471 243.167C753.771 244.867 751.871 246.447 749.431 247.107V245.647C751.771 244.907 753.691 242.907 753.691 239.907V237.567H755.291ZM764.251 237.467V241.627H766.991V243.047H764.251V247.647H762.651V237.467H764.251ZM750.891 252.107C750.891 251.067 751.391 250.247 752.231 249.667C753.471 248.787 755.451 248.367 757.811 248.367C760.171 248.367 762.151 248.787 763.371 249.667C764.211 250.247 764.711 251.067 764.711 252.107C764.711 253.147 764.211 253.967 763.371 254.567C762.151 255.427 760.171 255.807 757.811 255.807C755.451 255.807 753.471 255.427 752.231 254.567C751.391 253.967 750.891 253.147 750.891 252.107ZM752.511 252.107C752.511 252.667 752.811 253.167 753.371 253.547C754.231 254.147 755.791 254.427 757.811 254.427C759.811 254.427 761.371 254.147 762.271 253.547C762.811 253.167 763.091 252.667 763.091 252.107C763.091 251.527 762.811 251.027 762.271 250.667C761.371 250.067 759.811 249.767 757.811 249.767C755.791 249.767 754.231 250.067 753.371 250.667C752.811 251.027 752.511 251.527 752.511 252.107ZM769.731 243.087C769.731 241.167 770.291 239.647 771.391 238.687C772.171 237.967 773.311 237.567 774.591 237.567C775.871 237.567 776.991 237.967 777.791 238.687C778.891 239.647 779.451 241.167 779.451 243.087C779.451 244.987 778.891 246.507 777.791 247.487C776.991 248.207 775.871 248.587 774.591 248.587C773.311 248.587 772.171 248.207 771.391 247.487C770.291 246.507 769.731 244.987 769.731 243.087ZM771.351 243.087C771.351 244.527 771.691 245.727 772.431 246.427C772.971 246.927 773.691 247.187 774.591 247.187C775.471 247.187 776.211 246.927 776.731 246.427C777.491 245.727 777.851 244.527 777.851 243.087C777.851 241.647 777.491 240.447 776.731 239.747C776.211 239.227 775.471 238.987 774.591 238.987C773.691 238.987 772.971 239.227 772.431 239.747C771.691 240.447 771.351 241.647 771.351 243.087ZM783.891 255.367H782.271V253.167C781.271 254.047 779.411 254.327 777.131 254.327H769.091V252.927H777.711C779.471 252.927 781.191 252.687 782.271 251.787V237.467H783.891V255.367ZM796.77 242.227V244.167H808.97V245.487H795.17V237.667H808.85V239.007H796.77V240.927H808.63V242.227H796.77ZM793.95 248.847V247.467H810.07V248.847H793.95ZM807.25 255.667V252.227H795.03V250.887H808.85V255.667H807.25ZM815.329 240.307H820.669V237.667H822.249V239.387H826.569V237.467H828.169V246.367H826.569V244.167H822.249V245.787H813.749V237.667H815.329V240.307ZM822.249 240.707V242.827H826.569V240.707H822.249ZM820.669 244.467V241.627H815.329V244.467H820.669ZM816.489 252.267V254.267H828.409V255.567H814.869V250.967H826.569V248.967H814.869V247.667H828.169V252.267H816.489ZM832.069 240.127V238.807H836.389V236.907H837.969V238.807H842.229V240.127H832.069ZM834.189 244.627C834.189 245.127 834.389 245.527 834.729 245.827C835.269 246.327 836.169 246.567 837.149 246.567C838.149 246.567 839.049 246.327 839.569 245.827C839.909 245.527 840.129 245.127 840.129 244.627C840.129 244.127 839.909 243.727 839.569 243.427C839.049 242.947 838.149 242.687 837.149 242.687C836.169 242.687 835.269 242.947 834.729 243.427C834.389 243.727 834.189 244.127 834.189 244.627ZM832.629 244.627C832.629 243.707 833.009 242.967 833.669 242.427C834.489 241.767 835.729 241.407 837.149 241.407C838.589 241.407 839.829 241.767 840.649 242.427C841.309 242.967 841.689 243.707 841.689 244.627C841.689 245.547 841.309 246.307 840.649 246.827C839.829 247.487 838.589 247.867 837.149 247.867C835.729 247.867 834.489 247.487 833.669 246.827C833.009 246.307 832.629 245.547 832.629 244.627ZM846.869 237.467V242.047H849.609V243.447H846.869V248.147H845.269V237.467H846.869ZM833.749 255.567V249.587H846.869V255.567H833.749ZM845.269 250.987H835.349V254.187H845.269V250.987Z" fill="white"/>
</svg>
