<svg width="25" height="24" viewBox="0 0 25 24" fill="none" xmlns="http://www.w3.org/2000/svg">
<path d="M15.2734 11.6089C15.2734 9.52296 15.7475 7.86371 16.6956 6.63111C17.6912 5.35111 18.9475 4.47407 20.4645 4V6.63111C19.8956 7.01037 19.3505 7.53185 18.829 8.19556C18.3075 8.85926 18.0468 9.90222 18.0468 11.3244V13.7422H20.4645V20H15.2734V11.6089ZM4.53564 11.6089C4.53564 9.52296 5.00972 7.86371 5.95787 6.63111C6.95342 5.35111 8.20972 4.47407 9.72676 4V6.63111C9.15787 7.01037 8.61268 7.53185 8.0912 8.19556C7.56972 8.85926 7.30898 9.90222 7.30898 11.3244V13.7422H9.72676V20H4.53564V11.6089Z" fill="white"/>
</svg>
