<svg width="25" height="24" viewBox="0 0 25 24" fill="none" xmlns="http://www.w3.org/2000/svg">
<path d="M9.72658 12.3911C9.72658 14.477 9.2525 16.1363 8.30435 17.3689C7.3088 18.6489 6.0525 19.5259 4.53547 20L4.53547 17.3689C5.10436 16.9896 5.64954 16.4681 6.17102 15.8044C6.6925 15.1407 6.95324 14.0978 6.95324 12.6756L6.95324 10.2578L4.53547 10.2578L4.53547 4L9.72658 4L9.72658 12.3911ZM20.4644 12.3911C20.4644 14.477 19.9903 16.1363 19.0421 17.3689C18.0466 18.6489 16.7903 19.5259 15.2732 20L15.2732 17.3689C15.8421 16.9896 16.3873 16.4681 16.9088 15.8044C17.4303 15.1407 17.691 14.0978 17.691 12.6756L17.691 10.2578L15.2732 10.2578L15.2732 4L20.4644 4L20.4644 12.3911Z" fill="white"/>
</svg>
