<svg width="375" height="337" viewBox="0 0 375 337" fill="none" xmlns="http://www.w3.org/2000/svg">
<g clip-path="url(#clip0_460_15913)">
<path d="M152.871 153.021L184.137 223.937H240.467L271.733 153.021" stroke="#14AEFF" stroke-width="1.5" stroke-miterlimit="10" stroke-linecap="round"/>
<path d="M152.87 153.164C145.475 153.164 139.661 158.305 139.661 168.311C139.661 178.316 150.323 189.405 157.719 189.405C157.719 189.405 172.446 212.461 173.569 235.493C174.233 249.129 164.362 261.048 150.893 263.215C142.525 264.568 99.7112 265.746 86.3444 265.746H82.3659C70.5731 265.746 60.979 275.246 60.8683 287.038C60.7496 298.989 70.4149 308.742 82.3659 308.742H292.391C300.111 308.742 306.375 302.477 306.375 294.758V60.9806C306.375 53.261 300.111 46.9968 292.391 46.9968H220.804C219.483 47.0284 218.225 46.7437 217.102 46.2217" stroke="#14AEFF" stroke-width="1.5" stroke-miterlimit="10"/>
<path d="M212.122 65.3936C199.388 65.4173 186.661 68.1618 174.837 73.6114L173.611 74.1809C157.072 81.8055 147.225 99.1112 149.123 117.216L152.873 153.021" stroke="#14AEFF" stroke-width="1.5" stroke-miterlimit="10" stroke-linecap="round"/>
<path d="M271.731 153.021L275.48 117.216C277.378 99.111 267.531 81.8053 250.993 74.1807L249.767 73.6112C239.39 68.826 228.309 66.1289 217.141 65.5278" stroke="#14AEFF" stroke-width="1.5" stroke-miterlimit="10" stroke-linecap="round"/>
<path d="M271.733 153.164C279.128 153.164 284.941 158.305 284.941 168.311C284.941 178.316 274.28 189.405 266.884 189.405C266.884 189.405 249.183 217.103 251.121 242.121C251.912 252.332 259.489 260.692 269.566 262.519C277.965 264.038 290.32 265.54 306.368 265.54" stroke="#14AEFF" stroke-width="1.5" stroke-miterlimit="10" stroke-linecap="round"/>
<path d="M211.867 50.2551C205.302 50.2551 199.979 44.9321 199.979 38.3673V17.1227C199.71 9.30035 205.642 2.64857 213.441 2H334.707C347.576 2 358 12.4325 358 25.2931V311.138C358 323.738 347.781 333.956 335.182 333.956H-387" stroke="#14AEFF" stroke-width="1.5" stroke-miterlimit="10"/>
<path d="M212.207 38.5889V16.6562C212.207 14.1094 214.271 12.0371 216.826 12.0371H236.52C238.696 12.0371 240.459 13.8009 240.459 15.976V20.16C240.459 22.3351 242.223 24.0989 244.398 24.0989H258.137C259.758 24.0989 261.198 25.309 261.308 26.9305C261.372 27.8559 261.016 28.6863 260.423 29.2875C259.869 29.8411 259.118 30.1733 258.271 30.1733H220.203C215.735 30.4027 212.231 34.0805 212.215 38.5572V137.504C212.215 140.462 215.276 142.439 217.973 141.213C221.453 139.631 223.691 136.159 223.691 132.339V108.539C223.691 105.66 221.358 103.327 218.479 103.327C217.475 103.327 216.66 102.505 216.676 101.492L217.103 46.2214C214.224 44.8926 212.223 41.9741 212.223 38.5889" stroke="#14AEFF" stroke-width="1.5" stroke-miterlimit="10"/>
<path d="M217.309 30.8535V12.0371" stroke="#14AEFF" stroke-width="1.5" stroke-miterlimit="10"/>
<path d="M232.914 178.759C239.222 178.759 244.335 173.645 244.335 167.338C244.335 161.03 239.222 155.917 232.914 155.917H191.691C185.383 155.917 180.27 161.03 180.27 167.338C180.27 173.645 185.383 178.759 191.691 178.759H192.553" stroke="#14AEFF" stroke-width="1.5" stroke-miterlimit="10"/>
<path d="M192.512 178.387V195.867C192.512 202.171 197.621 207.288 203.933 207.288C210.237 207.288 215.354 202.178 215.354 195.867V178.759H232.921C239.224 178.759 244.342 173.649 244.342 167.338C244.342 161.034 239.232 155.917 232.921 155.917H214.99C202.58 155.917 192.512 165.946 192.512 178.356V178.387Z" stroke="#14AEFF" stroke-width="1.5" stroke-miterlimit="10"/>
<path d="M197.361 196.499C198.3 196.499 199.061 195.738 199.061 194.799C199.061 193.859 198.3 193.098 197.361 193.098C196.422 193.098 195.66 193.859 195.66 194.799C195.66 195.738 196.422 196.499 197.361 196.499Z" stroke="#14AEFF" stroke-width="1.5" stroke-miterlimit="10"/>
<path d="M204.154 196.499C205.093 196.499 205.854 195.738 205.854 194.799C205.854 193.859 205.093 193.098 204.154 193.098C203.214 193.098 202.453 193.859 202.453 194.799C202.453 195.738 203.214 196.499 204.154 196.499Z" stroke="#14AEFF" stroke-width="1.5" stroke-miterlimit="10"/>
<path d="M210.951 196.499C211.89 196.499 212.651 195.738 212.651 194.799C212.651 193.859 211.89 193.098 210.951 193.098C210.011 193.098 209.25 193.859 209.25 194.799C209.25 195.738 210.011 196.499 210.951 196.499Z" stroke="#14AEFF" stroke-width="1.5" stroke-miterlimit="10"/>
<path d="M197.361 189.911C198.3 189.911 199.061 189.149 199.061 188.21C199.061 187.271 198.3 186.51 197.361 186.51C196.422 186.51 195.66 187.271 195.66 188.21C195.66 189.149 196.422 189.911 197.361 189.911Z" stroke="#14AEFF" stroke-width="1.5" stroke-miterlimit="10"/>
<path d="M204.154 189.911C205.093 189.911 205.854 189.149 205.854 188.21C205.854 187.271 205.093 186.51 204.154 186.51C203.214 186.51 202.453 187.271 202.453 188.21C202.453 189.149 203.214 189.911 204.154 189.911Z" stroke="#14AEFF" stroke-width="1.5" stroke-miterlimit="10"/>
<path d="M210.951 189.911C211.89 189.911 212.651 189.149 212.651 188.21C212.651 187.271 211.89 186.51 210.951 186.51C210.011 186.51 209.25 187.271 209.25 188.21C209.25 189.149 210.011 189.911 210.951 189.911Z" stroke="#14AEFF" stroke-width="1.5" stroke-miterlimit="10"/>
<path d="M197.361 183.33C198.3 183.33 199.061 182.569 199.061 181.63C199.061 180.691 198.3 179.929 197.361 179.929C196.422 179.929 195.66 180.691 195.66 181.63C195.66 182.569 196.422 183.33 197.361 183.33Z" stroke="#14AEFF" stroke-width="1.5" stroke-miterlimit="10"/>
<path d="M197.361 176.109C198.3 176.109 199.061 175.348 199.061 174.409C199.061 173.469 198.3 172.708 197.361 172.708C196.422 172.708 195.66 173.469 195.66 174.409C195.66 175.348 196.422 176.109 197.361 176.109Z" stroke="#14AEFF" stroke-width="1.5" stroke-miterlimit="10"/>
<path d="M204.154 183.33C205.093 183.33 205.854 182.569 205.854 181.63C205.854 180.691 205.093 179.929 204.154 179.929C203.214 179.929 202.453 180.691 202.453 181.63C202.453 182.569 203.214 183.33 204.154 183.33Z" stroke="#14AEFF" stroke-width="1.5" stroke-miterlimit="10"/>
<path d="M204.154 176.109C205.093 176.109 205.854 175.348 205.854 174.409C205.854 173.469 205.093 172.708 204.154 172.708C203.214 172.708 202.453 173.469 202.453 174.409C202.453 175.348 203.214 176.109 204.154 176.109Z" stroke="#14AEFF" stroke-width="1.5" stroke-miterlimit="10"/>
<path d="M204.154 169.521C205.093 169.521 205.854 168.759 205.854 167.82C205.854 166.881 205.093 166.12 204.154 166.12C203.214 166.12 202.453 166.881 202.453 167.82C202.453 168.759 203.214 169.521 204.154 169.521Z" stroke="#14AEFF" stroke-width="1.5" stroke-miterlimit="10"/>
<path d="M210.951 183.33C211.89 183.33 212.651 182.569 212.651 181.63C212.651 180.691 211.89 179.929 210.951 179.929C210.011 179.929 209.25 180.691 209.25 181.63C209.25 182.569 210.011 183.33 210.951 183.33Z" stroke="#14AEFF" stroke-width="1.5" stroke-miterlimit="10"/>
<path d="M210.951 175.627C211.89 175.627 212.651 174.865 212.651 173.926C212.651 172.987 211.89 172.226 210.951 172.226C210.011 172.226 209.25 172.987 209.25 173.926C209.25 174.865 210.011 175.627 210.951 175.627Z" stroke="#14AEFF" stroke-width="1.5" stroke-miterlimit="10"/>
<path d="M210.951 169.038C211.89 169.038 212.651 168.277 212.651 167.338C212.651 166.399 211.89 165.637 210.951 165.637C210.011 165.637 209.25 166.399 209.25 167.338C209.25 168.277 210.011 169.038 210.951 169.038Z" stroke="#14AEFF" stroke-width="1.5" stroke-miterlimit="10"/>
<path d="M210.951 162.457C211.89 162.457 212.651 161.696 212.651 160.757C212.651 159.818 211.89 159.056 210.951 159.056C210.011 159.056 209.25 159.818 209.25 160.757C209.25 161.696 210.011 162.457 210.951 162.457Z" stroke="#14AEFF" stroke-width="1.5" stroke-miterlimit="10"/>
<path d="M218.423 175.627C219.362 175.627 220.124 174.865 220.124 173.926C220.124 172.987 219.362 172.226 218.423 172.226C217.484 172.226 216.723 172.987 216.723 173.926C216.723 174.865 217.484 175.627 218.423 175.627Z" stroke="#14AEFF" stroke-width="1.5" stroke-miterlimit="10"/>
<path d="M218.423 169.038C219.362 169.038 220.124 168.277 220.124 167.338C220.124 166.399 219.362 165.637 218.423 165.637C217.484 165.637 216.723 166.399 216.723 167.338C216.723 168.277 217.484 169.038 218.423 169.038Z" stroke="#14AEFF" stroke-width="1.5" stroke-miterlimit="10"/>
<path d="M218.423 162.457C219.362 162.457 220.124 161.696 220.124 160.757C220.124 159.818 219.362 159.056 218.423 159.056C217.484 159.056 216.723 159.818 216.723 160.757C216.723 161.696 217.484 162.457 218.423 162.457Z" stroke="#14AEFF" stroke-width="1.5" stroke-miterlimit="10"/>
<path d="M225.896 175.627C226.835 175.627 227.596 174.865 227.596 173.926C227.596 172.987 226.835 172.226 225.896 172.226C224.957 172.226 224.195 172.987 224.195 173.926C224.195 174.865 224.957 175.627 225.896 175.627Z" stroke="#14AEFF" stroke-width="1.5" stroke-miterlimit="10"/>
<path d="M225.896 169.038C226.835 169.038 227.596 168.277 227.596 167.338C227.596 166.399 226.835 165.637 225.896 165.637C224.957 165.637 224.195 166.399 224.195 167.338C224.195 168.277 224.957 169.038 225.896 169.038Z" stroke="#14AEFF" stroke-width="1.5" stroke-miterlimit="10"/>
<path d="M225.896 162.457C226.835 162.457 227.596 161.696 227.596 160.757C227.596 159.818 226.835 159.056 225.896 159.056C224.957 159.056 224.195 159.818 224.195 160.757C224.195 161.696 224.957 162.457 225.896 162.457Z" stroke="#14AEFF" stroke-width="1.5" stroke-miterlimit="10"/>
<path d="M233.372 175.627C234.312 175.627 235.073 174.865 235.073 173.926C235.073 172.987 234.312 172.226 233.372 172.226C232.433 172.226 231.672 172.987 231.672 173.926C231.672 174.865 232.433 175.627 233.372 175.627Z" stroke="#14AEFF" stroke-width="1.5" stroke-miterlimit="10"/>
<path d="M233.372 169.038C234.312 169.038 235.073 168.277 235.073 167.338C235.073 166.399 234.312 165.637 233.372 165.637C232.433 165.637 231.672 166.399 231.672 167.338C231.672 168.277 232.433 169.038 233.372 169.038Z" stroke="#14AEFF" stroke-width="1.5" stroke-miterlimit="10"/>
<path d="M233.372 162.457C234.312 162.457 235.073 161.696 235.073 160.757C235.073 159.818 234.312 159.056 233.372 159.056C232.433 159.056 231.672 159.818 231.672 160.757C231.672 161.696 232.433 162.457 233.372 162.457Z" stroke="#14AEFF" stroke-width="1.5" stroke-miterlimit="10"/>
<path d="M181.582 162.022H199.584" stroke="#14AEFF" stroke-width="1.5" stroke-miterlimit="10"/>
<path d="M180.27 167.338H195.661" stroke="#14AEFF" stroke-width="1.5" stroke-miterlimit="10"/>
<path d="M181.582 172.652H193.248" stroke="#14AEFF" stroke-width="1.5" stroke-miterlimit="10"/>
</g>
<defs>
<clipPath id="clip0_460_15913">
<rect width="375" height="336" fill="white" transform="translate(0 0.312988)"/>
</clipPath>
</defs>
</svg>
