<svg width="375" height="337" viewBox="0 0 375 337" fill="none" xmlns="http://www.w3.org/2000/svg">
<g clip-path="url(#clip0_460_15865)">
<path d="M227.156 152.619L258.13 222.871H313.933L344.907 152.619" stroke="#14AEFF" stroke-width="1.5" stroke-miterlimit="10" stroke-linecap="round"/>
<path d="M344.906 152.619L348.62 117.148C350.501 99.2132 340.746 82.0693 324.362 74.5159L323.147 73.9518C311.378 68.5297 298.709 65.8108 286.031 65.8108C273.353 65.8108 260.683 68.5297 248.915 73.9518L247.7 74.5159C231.316 82.0693 221.561 99.2132 223.442 117.148L227.156 152.619" stroke="#14AEFF" stroke-width="1.5" stroke-miterlimit="10" stroke-linecap="round"/>
<path d="M344.902 152.76C352.228 152.76 357.987 157.853 357.987 167.765C357.987 177.677 347.425 188.662 340.099 188.662C340.099 188.662 322.563 216.102 324.483 240.885C324.71 243.776 325.478 246.511 326.7 248.995C330.406 256.517 338.265 261.085 346.649 261.085H622.997" stroke="#14AEFF" stroke-width="1.5" stroke-miterlimit="10" stroke-linecap="round"/>
<path d="M307.817 175.013C308.748 175.013 309.502 174.258 309.502 173.328C309.502 172.398 308.748 171.643 307.817 171.643C306.887 171.643 306.133 172.398 306.133 173.328C306.133 174.258 306.887 175.013 307.817 175.013Z" stroke="#14AEFF" stroke-width="1.5" stroke-miterlimit="10"/>
<path d="M307.817 168.486C308.748 168.486 309.502 167.732 309.502 166.801C309.502 165.871 308.748 165.117 307.817 165.117C306.887 165.117 306.133 165.871 306.133 166.801C306.133 167.732 306.887 168.486 307.817 168.486Z" stroke="#14AEFF" stroke-width="1.5" stroke-miterlimit="10"/>
<path d="M307.817 161.967C308.748 161.967 309.502 161.212 309.502 160.282C309.502 159.352 308.748 158.597 307.817 158.597C306.887 158.597 306.133 159.352 306.133 160.282C306.133 161.212 306.887 161.967 307.817 161.967Z" stroke="#14AEFF" stroke-width="1.5" stroke-miterlimit="10"/>
<path d="M300.556 175.013C301.486 175.013 302.24 174.258 302.24 173.328C302.24 172.398 301.486 171.643 300.556 171.643C299.625 171.643 298.871 172.398 298.871 173.328C298.871 174.258 299.625 175.013 300.556 175.013Z" stroke="#14AEFF" stroke-width="1.5" stroke-miterlimit="10"/>
<path d="M300.556 168.486C301.486 168.486 302.24 167.732 302.24 166.801C302.24 165.871 301.486 165.117 300.556 165.117C299.625 165.117 298.871 165.871 298.871 166.801C298.871 167.732 299.625 168.486 300.556 168.486Z" stroke="#14AEFF" stroke-width="1.5" stroke-miterlimit="10"/>
<path d="M300.556 161.967C301.486 161.967 302.24 161.212 302.24 160.282C302.24 159.352 301.486 158.597 300.556 158.597C299.625 158.597 298.871 159.352 298.871 160.282C298.871 161.212 299.625 161.967 300.556 161.967Z" stroke="#14AEFF" stroke-width="1.5" stroke-miterlimit="10"/>
<path d="M293.294 175.013C294.224 175.013 294.979 174.258 294.979 173.328C294.979 172.398 294.224 171.643 293.294 171.643C292.364 171.643 291.609 172.398 291.609 173.328C291.609 174.258 292.364 175.013 293.294 175.013Z" stroke="#14AEFF" stroke-width="1.5" stroke-miterlimit="10"/>
<path d="M293.294 168.486C294.224 168.486 294.979 167.732 294.979 166.801C294.979 165.871 294.224 165.117 293.294 165.117C292.364 165.117 291.609 165.871 291.609 166.801C291.609 167.732 292.364 168.486 293.294 168.486Z" stroke="#14AEFF" stroke-width="1.5" stroke-miterlimit="10"/>
<path d="M293.294 161.967C294.224 161.967 294.979 161.212 294.979 160.282C294.979 159.352 294.224 158.597 293.294 158.597C292.364 158.597 291.609 159.352 291.609 160.282C291.609 161.212 292.364 161.967 293.294 161.967Z" stroke="#14AEFF" stroke-width="1.5" stroke-miterlimit="10"/>
<path d="M286.028 175.013C286.959 175.013 287.713 174.258 287.713 173.328C287.713 172.398 286.959 171.643 286.028 171.643C285.098 171.643 284.344 172.398 284.344 173.328C284.344 174.258 285.098 175.013 286.028 175.013Z" stroke="#14AEFF" stroke-width="1.5" stroke-miterlimit="10"/>
<path d="M286.028 168.486C286.959 168.486 287.713 167.732 287.713 166.801C287.713 165.871 286.959 165.117 286.028 165.117C285.098 165.117 284.344 165.871 284.344 166.801C284.344 167.732 285.098 168.486 286.028 168.486Z" stroke="#14AEFF" stroke-width="1.5" stroke-miterlimit="10"/>
<path d="M286.028 161.967C286.959 161.967 287.713 161.212 287.713 160.282C287.713 159.352 286.959 158.597 286.028 158.597C285.098 158.597 284.344 159.352 284.344 160.282C284.344 161.212 285.098 161.967 286.028 161.967Z" stroke="#14AEFF" stroke-width="1.5" stroke-miterlimit="10"/>
<path d="M278.763 175.013C279.693 175.013 280.447 174.258 280.447 173.328C280.447 172.398 279.693 171.643 278.763 171.643C277.832 171.643 277.078 172.398 277.078 173.328C277.078 174.258 277.832 175.013 278.763 175.013Z" stroke="#14AEFF" stroke-width="1.5" stroke-miterlimit="10"/>
<path d="M278.763 168.486C279.693 168.486 280.447 167.732 280.447 166.801C280.447 165.871 279.693 165.117 278.763 165.117C277.832 165.117 277.078 165.871 277.078 166.801C277.078 167.732 277.832 168.486 278.763 168.486Z" stroke="#14AEFF" stroke-width="1.5" stroke-miterlimit="10"/>
<path d="M278.763 161.967C279.693 161.967 280.447 161.212 280.447 160.282C280.447 159.352 279.693 158.597 278.763 158.597C277.832 158.597 277.078 159.352 277.078 160.282C277.078 161.212 277.832 161.967 278.763 161.967Z" stroke="#14AEFF" stroke-width="1.5" stroke-miterlimit="10"/>
<path d="M271.501 175.013C272.431 175.013 273.186 174.258 273.186 173.328C273.186 172.398 272.431 171.643 271.501 171.643C270.571 171.643 269.816 172.398 269.816 173.328C269.816 174.258 270.571 175.013 271.501 175.013Z" stroke="#14AEFF" stroke-width="1.5" stroke-miterlimit="10"/>
<path d="M271.501 168.486C272.431 168.486 273.186 167.732 273.186 166.801C273.186 165.871 272.431 165.117 271.501 165.117C270.571 165.117 269.816 165.871 269.816 166.801C269.816 167.732 270.571 168.486 271.501 168.486Z" stroke="#14AEFF" stroke-width="1.5" stroke-miterlimit="10"/>
<path d="M271.501 161.967C272.431 161.967 273.186 161.212 273.186 160.282C273.186 159.352 272.431 158.597 271.501 158.597C270.571 158.597 269.816 159.352 269.816 160.282C269.816 161.212 270.571 161.967 271.501 161.967Z" stroke="#14AEFF" stroke-width="1.5" stroke-miterlimit="10"/>
<path d="M264.239 175.013C265.17 175.013 265.924 174.258 265.924 173.328C265.924 172.398 265.17 171.643 264.239 171.643C263.309 171.643 262.555 172.398 262.555 173.328C262.555 174.258 263.309 175.013 264.239 175.013Z" stroke="#14AEFF" stroke-width="1.5" stroke-miterlimit="10"/>
<path d="M264.239 168.486C265.17 168.486 265.924 167.732 265.924 166.801C265.924 165.871 265.17 165.117 264.239 165.117C263.309 165.117 262.555 165.871 262.555 166.801C262.555 167.732 263.309 168.486 264.239 168.486Z" stroke="#14AEFF" stroke-width="1.5" stroke-miterlimit="10"/>
<path d="M264.239 161.967C265.17 161.967 265.924 161.212 265.924 160.282C265.924 159.352 265.17 158.597 264.239 158.597C263.309 158.597 262.555 159.352 262.555 160.282C262.555 161.212 263.309 161.967 264.239 161.967Z" stroke="#14AEFF" stroke-width="1.5" stroke-miterlimit="10"/>
<path d="M156.522 248.101C157.894 248.117 159.014 247.02 159.038 245.649L159.171 235.612C159.171 226.468 155.175 218.672 153.326 210.405L153.302 210.327C151.085 200.439 150.787 190.237 152.424 180.27C152.652 178.876 151.594 177.606 150.184 177.606C149.071 177.606 148.123 178.405 147.935 179.495C146.156 189.704 146.407 200.188 148.687 210.327L148.703 210.405C150.56 218.672 154.548 226.46 154.548 235.612L154.078 245.5C154.007 246.903 155.12 248.086 156.53 248.101H156.522Z" stroke="#14AEFF" stroke-width="1.5" stroke-linecap="round" stroke-linejoin="round"/>
<path d="M131.304 255.239C132.675 255.255 133.795 254.158 133.819 252.787L133.952 242.75C133.952 233.606 129.956 225.81 128.107 217.543L128.083 217.465C125.866 207.577 125.568 197.375 127.206 187.408C127.433 186.013 126.375 184.744 124.965 184.744C123.852 184.744 122.904 185.543 122.716 186.632C120.937 196.842 121.188 207.326 123.468 217.465L123.484 217.543C125.341 225.81 129.329 233.598 129.329 242.75L128.859 252.638C128.788 254.041 129.901 255.224 131.311 255.239H131.304Z" stroke="#14AEFF" stroke-width="1.5" stroke-linecap="round" stroke-linejoin="round"/>
<path d="M171.436 248.101C172.808 248.117 173.928 247.02 173.952 245.649L174.085 235.612C174.085 226.468 170.089 218.672 168.24 210.405L168.216 210.327C165.999 200.439 165.701 190.237 167.339 180.27C167.566 178.876 166.508 177.606 165.098 177.606C163.985 177.606 163.037 178.405 162.849 179.495C161.07 189.704 161.321 200.188 163.601 210.327L163.617 210.405C165.474 218.672 169.462 226.46 169.462 235.612L168.992 245.5C168.921 246.903 170.034 248.086 171.444 248.101H171.436Z" stroke="#14AEFF" stroke-width="1.5" stroke-linecap="round" stroke-linejoin="round"/>
<path d="M137.781 239.569H149.464C150.819 239.569 151.916 240.666 151.916 242.021V245.743C151.916 248.368 154.04 250.483 156.657 250.483C157.965 250.483 159.148 249.951 160.01 249.097C160.864 248.235 161.397 247.052 161.397 245.743V241.982C161.397 240.587 162.541 239.357 163.936 239.381C164.602 239.396 165.213 239.671 165.66 240.109C166.106 240.556 166.388 241.183 166.388 241.872V245.868C166.388 248.485 168.512 250.609 171.129 250.609H171.442C174.059 250.609 176.183 248.485 176.183 245.868V242.021C176.183 240.666 177.28 239.569 178.635 239.569H247.375" stroke="#14AEFF" stroke-width="1.5" stroke-miterlimit="10" stroke-linecap="round"/>
<path d="M89.0771 248.101C90.4483 248.117 91.5687 247.02 91.5923 245.649L91.7255 235.612C91.7255 226.468 87.7294 218.672 85.8802 210.405L85.8567 210.327C83.6393 200.439 83.3416 190.237 84.9792 180.27C85.2064 178.876 84.1486 177.606 82.7382 177.606C81.6256 177.606 80.6775 178.405 80.4895 179.495C78.7108 189.704 78.9616 200.188 81.2417 210.327L81.2573 210.405C83.1143 218.672 87.1026 226.46 87.1026 235.612L86.6324 245.5C86.5619 246.903 87.6745 248.086 89.0849 248.101H89.0771Z" stroke="#14AEFF" stroke-width="1.5" stroke-linecap="round" stroke-linejoin="round"/>
<path d="M103.991 248.101C105.362 248.117 106.483 247.02 106.506 245.649L106.64 235.612C106.64 226.468 102.643 218.672 100.794 210.405L100.771 210.327C98.5534 200.439 98.2556 190.237 99.8932 180.27C100.12 178.876 99.0627 177.606 97.6523 177.606C96.5397 177.606 95.5916 178.405 95.4035 179.495C93.6249 189.704 93.8756 200.188 96.1557 210.327L96.1714 210.405C98.0284 218.672 102.017 226.46 102.017 235.612L101.546 245.5C101.476 246.903 102.589 248.086 103.999 248.101H103.991Z" stroke="#14AEFF" stroke-width="1.5" stroke-linecap="round" stroke-linejoin="round"/>
<path d="M117.254 239.569H111.19C109.834 239.569 108.737 240.666 108.737 242.021V245.868C108.737 248.485 106.614 250.609 103.997 250.609H103.683C101.066 250.609 98.943 248.485 98.943 245.868V241.872C98.943 241.183 98.6609 240.556 98.2143 240.109C97.7128 239.608 97.0076 239.326 96.2397 239.389C94.9234 239.498 93.9518 240.681 93.9518 242.006V245.743C93.9518 247.059 93.419 248.243 92.5649 249.097C91.7344 249.927 90.5982 250.452 89.3367 250.483C86.657 250.554 84.4709 248.211 84.4709 245.539V242.021C84.4709 240.666 83.374 239.569 82.0185 239.569H71.3701C63.4329 239.569 57 246.002 57 253.939V317.515C57 325.453 63.4329 331.886 71.3701 331.886H386.51C393.406 331.886 399 326.291 399 319.396C399 312.501 393.406 306.906 386.51 306.906H188.658C176.819 306.906 167.244 297.245 167.362 285.406C167.471 273.723 176.976 264.313 188.658 264.313H192.6C205.841 264.313 216.897 263.138 225.187 261.798C238.531 259.643 248.302 247.843 247.651 234.335C246.546 211.51 231.949 188.67 231.949 188.67C224.623 188.67 214.061 177.685 214.061 167.773C214.061 157.861 219.82 152.768 227.146 152.768" stroke="#14AEFF" stroke-width="1.5" stroke-miterlimit="10"/>
<path d="M137.785 180.106H117.711V259.87H137.785V180.106Z" stroke="#14AEFF" stroke-width="1.5" stroke-linecap="round" stroke-linejoin="round"/>
<path d="M117.714 180.106C117.714 180.106 108.374 164.255 105.992 159.444V5" stroke="#14AEFF" stroke-width="1.5" stroke-linecap="round" stroke-linejoin="round"/>
<path d="M149.503 5V159.444C147.121 164.255 137.781 180.106 137.781 180.106" stroke="#14AEFF" stroke-width="1.5" stroke-linecap="round" stroke-linejoin="round"/>
<path d="M105.992 5H269.635C279.617 5 287.719 13.094 287.719 23.0841V155.495H265.615C259.37 155.495 254.301 160.556 254.301 166.809C254.301 173.054 259.362 178.123 265.615 178.123H306.453C312.698 178.123 317.768 173.062 317.768 166.809C317.768 160.564 312.706 155.495 306.453 155.495H292.734" stroke="#14AEFF" stroke-width="1.5" stroke-linecap="round" stroke-linejoin="round"/>
</g>
<defs>
<clipPath id="clip0_460_15865">
<rect width="375" height="336" fill="white" transform="translate(0 0.312988)"/>
</clipPath>
</defs>
</svg>
