<svg width="327" height="255" viewBox="0 0 327 255" fill="none" xmlns="http://www.w3.org/2000/svg">
<g style="mix-blend-mode:multiply">
<path d="M163.328 143.313C252.966 143.313 325.632 111.455 325.632 72.1566C325.632 32.8579 252.966 1 163.328 1C73.6895 1 1.02344 32.8579 1.02344 72.1566C1.02344 111.455 73.6895 143.313 163.328 143.313Z" stroke="#14AEFF" stroke-width="1.5" stroke-miterlimit="10"/>
</g>
<g style="mix-blend-mode:multiply">
<path d="M163.671 253.313C253.309 253.313 325.975 221.455 325.975 182.157C325.975 142.858 253.309 111 163.671 111C74.0332 111 1.36719 142.858 1.36719 182.157C1.36719 221.455 74.0332 253.313 163.671 253.313Z" stroke="#14AEFF" stroke-width="1.5" stroke-miterlimit="10"/>
</g>
<path d="M146.344 61.1V59.26H155.704V61.1H152.104V61.16C152.104 64.04 153.784 65.38 156.044 65.86V67.74C153.844 67.4 152.004 66.36 151.064 64.88C150.124 66.38 148.224 67.64 146.024 67.96V66.06C148.324 65.62 149.944 64.1 149.944 61.16V61.1H146.344ZM161.004 67.86H158.824V64.28H155.084V62.4H158.824V59.04H161.004V67.86ZM149.624 74.02V75.6H161.224V77.36H147.444V72.3H158.824V70.68H147.444V68.94H161.004V74.02H149.624ZM170.083 65.02V61.28H165.563V59.36H172.223V64.9C172.223 70.72 170.243 74.72 165.363 76.12V74.02C168.323 72.98 170.083 69.98 170.083 65.02ZM180.443 77.18H178.323V68.16H176.283V76.96H174.203V59.16H176.283V66.26H178.323V59.04H180.443V77.18Z" fill="#14AEFF"/>
<path d="M138.545 176.78H142.985V170.36H145.145V186.96H136.385V170.36H138.545V176.78ZM142.985 185.08V178.66H138.545V185.08H142.985ZM150.865 170.04V188.18H148.685V170.04H150.865ZM155.444 172.1V170.26H164.804V172.1H161.204V172.16C161.204 175.04 162.884 176.38 165.144 176.86V178.74C162.944 178.4 161.104 177.36 160.164 175.88C159.224 177.38 157.324 178.64 155.124 178.96V177.06C157.424 176.62 159.044 175.1 159.044 172.16V172.1H155.444ZM170.104 178.86H167.924V175.28H164.184V173.4H167.924V170.04H170.104V178.86ZM158.724 185.02V186.6H170.324V188.36H156.544V183.3H167.924V181.68H156.544V179.94H170.104V185.02H158.724ZM179.183 176.02V172.28H174.663V170.36H181.323V175.9C181.323 181.72 179.343 185.72 174.463 187.12V185.02C177.423 183.98 179.183 180.98 179.183 176.02ZM189.543 188.18H187.423V179.16H185.383V187.96H183.303V170.16H185.383V177.26H187.423V170.04H189.543V188.18Z" fill="#14AEFF"/>
<path d="M162.487 124.504C162.487 127.464 161.223 129.192 158.615 129.192C156.007 129.192 154.759 127.464 154.759 124.504C154.759 121.544 156.007 119.816 158.615 119.816C161.223 119.816 162.487 121.544 162.487 124.504ZM161.159 124.504C161.159 122.28 160.471 120.92 158.615 120.92C156.759 120.92 156.087 122.28 156.087 124.504C156.087 126.744 156.759 128.088 158.615 128.088C160.471 128.088 161.159 126.744 161.159 124.504ZM168.139 120.936C166.619 120.936 165.595 122.088 165.595 124.424V128.984H164.267V120.024H165.595V121.608C165.947 120.472 166.763 119.816 168.187 119.816C168.443 119.816 168.715 119.832 168.859 119.88L168.843 120.968C168.699 120.952 168.427 120.936 168.139 120.936Z" fill="#14AEFF"/>
</svg>
