<svg width="327" height="255" viewBox="0 0 327 255" fill="none" xmlns="http://www.w3.org/2000/svg">
<g style="mix-blend-mode:multiply">
<path d="M163.328 143.313C252.966 143.313 325.632 111.455 325.632 72.1566C325.632 32.8579 252.966 1 163.328 1C73.6895 1 1.02344 32.8579 1.02344 72.1566C1.02344 111.455 73.6895 143.313 163.328 143.313Z" stroke="#14AEFF" stroke-width="1.5" stroke-miterlimit="10"/>
</g>
<g style="mix-blend-mode:multiply">
<path d="M163.671 253.313C253.309 253.313 325.975 221.455 325.975 182.157C325.975 142.858 253.309 111 163.671 111C74.0332 111 1.36719 142.858 1.36719 182.157C1.36719 221.455 74.0332 253.313 163.671 253.313Z" stroke="#14AEFF" stroke-width="1.5" stroke-miterlimit="10"/>
</g>
<path d="M148.023 83.8C147.879 83.56 147.679 83.28 147.423 82.96C147.167 82.64 146.911 82.344 146.655 82.072C146.399 81.8 146.207 81.616 146.079 81.52C147.375 80.992 148.439 80.336 149.271 79.552C150.103 78.752 150.751 77.768 151.215 76.6C151.695 75.416 152.031 73.992 152.223 72.328C152.415 70.648 152.519 68.672 152.535 66.4H148.287V63.616H161.151V68.224C161.151 70.368 161.103 72.328 161.007 74.104C160.927 75.864 160.831 77.24 160.719 78.232C160.591 79.576 160.319 80.624 159.903 81.376C159.487 82.128 158.927 82.656 158.223 82.96C157.519 83.264 156.663 83.416 155.655 83.416H154.119C154.087 83 154.007 82.504 153.879 81.928C153.751 81.352 153.615 80.888 153.471 80.536H155.583C156.191 80.536 156.671 80.368 157.023 80.032C157.375 79.68 157.647 78.952 157.839 77.848C157.919 77.4 157.991 76.704 158.055 75.76C158.135 74.816 158.191 73.696 158.223 72.4C158.271 71.104 158.295 69.712 158.295 68.224V66.4H155.415C155.399 69.088 155.255 71.376 154.983 73.264C154.727 75.152 154.311 76.744 153.735 78.04C153.159 79.336 152.399 80.44 151.455 81.352C150.527 82.248 149.383 83.064 148.023 83.8ZM145.119 78.832C144.239 78.832 143.607 78.688 143.223 78.4C142.855 78.112 142.671 77.624 142.671 76.936V72.424C142.127 72.552 141.615 72.68 141.135 72.808C140.671 72.92 140.271 73.016 139.935 73.096L139.359 70.24C139.759 70.16 140.247 70.064 140.823 69.952C141.399 69.84 142.015 69.72 142.671 69.592V62.848H145.623V68.968C146.551 68.76 147.431 68.56 148.263 68.368C149.095 68.176 149.775 68 150.303 67.84L150.807 70.576C150.295 70.688 149.559 70.848 148.599 71.056C147.655 71.264 146.663 71.488 145.623 71.728V75.448C145.623 75.608 145.655 75.728 145.719 75.808C145.799 75.888 145.967 75.928 146.223 75.928H146.775C147.015 75.928 147.215 75.872 147.375 75.76C147.535 75.648 147.671 75.4 147.783 75.016C147.895 74.632 147.983 74.032 148.047 73.216C148.351 73.376 148.751 73.544 149.247 73.72C149.759 73.88 150.239 74.016 150.687 74.128C150.543 75.392 150.327 76.368 150.039 77.056C149.751 77.728 149.367 78.192 148.887 78.448C148.407 78.704 147.791 78.832 147.039 78.832H145.119ZM180.687 83.728C180.655 83.328 180.599 82.856 180.519 82.312C180.439 81.784 180.327 81.352 180.183 81.016H181.791C182.111 81.016 182.319 80.96 182.415 80.848C182.527 80.736 182.583 80.536 182.583 80.248V70.552H175.863V62.488H185.295V81.28C185.295 82.112 185.071 82.728 184.623 83.128C184.191 83.528 183.479 83.728 182.487 83.728H180.687ZM164.799 83.752V62.488H174.183V70.552H167.511V83.752H164.799ZM169.359 83.584C169.199 83.264 168.991 82.928 168.735 82.576C168.495 82.224 168.239 81.936 167.967 81.712C169.071 81.232 169.903 80.728 170.463 80.2C171.023 79.656 171.391 78.904 171.567 77.944H168.543V75.712H171.711V73.84H169.263V71.752H180.879V73.84H178.527V75.712H181.575V77.944H178.527V83.224H176.007V77.944H174.015C173.759 79.432 173.231 80.616 172.431 81.496C171.647 82.376 170.623 83.072 169.359 83.584ZM178.479 68.584H182.583V67.384H178.479V68.584ZM178.479 65.656H182.583V64.456H178.479V65.656ZM167.511 68.584H171.567V67.384H167.511V68.584ZM167.511 65.656H171.567V64.456H167.511V65.656ZM174.159 75.712H176.007V73.84H174.159V75.712Z" fill="#14AEFF"/>
<path d="M130.455 195.088C130.327 194.688 130.119 194.248 129.831 193.768C129.559 193.288 129.287 192.904 129.015 192.616C130.295 192.264 131.335 191.816 132.135 191.272C132.951 190.712 133.575 189.992 134.007 189.112C132.983 189.32 131.983 189.52 131.007 189.712C130.031 189.888 129.207 190.032 128.535 190.144L127.839 187.552C128.319 187.488 128.935 187.4 129.687 187.288C130.439 187.16 131.255 187.016 132.135 186.856C133.015 186.68 133.879 186.512 134.727 186.352C134.775 185.984 134.807 185.608 134.823 185.224C134.839 184.824 134.847 184.408 134.847 183.976V183.952H129.039V181.408H134.847V178.648H128.319V176.104H134.847V172.888H137.727V183.976C137.727 184.28 137.719 184.576 137.703 184.864C137.703 185.152 137.695 185.432 137.679 185.704C137.855 185.672 138.023 185.632 138.183 185.584C138.359 185.536 138.511 185.496 138.639 185.464V187.984C138.447 188.032 138.239 188.088 138.015 188.152C137.791 188.216 137.543 188.28 137.271 188.344C136.871 190.008 136.127 191.384 135.039 192.472C133.967 193.56 132.439 194.432 130.455 195.088ZM140.079 194.752V172.888H142.983V176.104H149.727V178.648H142.983V181.408H148.911V183.952H142.983V187H149.991V189.64H142.983V194.752H140.079ZM160.023 194.8C159.879 194.56 159.679 194.28 159.423 193.96C159.167 193.64 158.911 193.344 158.655 193.072C158.399 192.8 158.207 192.616 158.079 192.52C159.375 191.992 160.439 191.336 161.271 190.552C162.103 189.752 162.751 188.768 163.215 187.6C163.695 186.416 164.031 184.992 164.223 183.328C164.415 181.648 164.519 179.672 164.535 177.4H160.287V174.616H173.151V179.224C173.151 181.368 173.103 183.328 173.007 185.104C172.927 186.864 172.831 188.24 172.719 189.232C172.591 190.576 172.319 191.624 171.903 192.376C171.487 193.128 170.927 193.656 170.223 193.96C169.519 194.264 168.663 194.416 167.655 194.416H166.119C166.087 194 166.007 193.504 165.879 192.928C165.751 192.352 165.615 191.888 165.471 191.536H167.583C168.191 191.536 168.671 191.368 169.023 191.032C169.375 190.68 169.647 189.952 169.839 188.848C169.919 188.4 169.991 187.704 170.055 186.76C170.135 185.816 170.191 184.696 170.223 183.4C170.271 182.104 170.295 180.712 170.295 179.224V177.4H167.415C167.399 180.088 167.255 182.376 166.983 184.264C166.727 186.152 166.311 187.744 165.735 189.04C165.159 190.336 164.399 191.44 163.455 192.352C162.527 193.248 161.383 194.064 160.023 194.8ZM157.119 189.832C156.239 189.832 155.607 189.688 155.223 189.4C154.855 189.112 154.671 188.624 154.671 187.936V183.424C154.127 183.552 153.615 183.68 153.135 183.808C152.671 183.92 152.271 184.016 151.935 184.096L151.359 181.24C151.759 181.16 152.247 181.064 152.823 180.952C153.399 180.84 154.015 180.72 154.671 180.592V173.848H157.623V179.968C158.551 179.76 159.431 179.56 160.263 179.368C161.095 179.176 161.775 179 162.303 178.84L162.807 181.576C162.295 181.688 161.559 181.848 160.599 182.056C159.655 182.264 158.663 182.488 157.623 182.728V186.448C157.623 186.608 157.655 186.728 157.719 186.808C157.799 186.888 157.967 186.928 158.223 186.928H158.775C159.015 186.928 159.215 186.872 159.375 186.76C159.535 186.648 159.671 186.4 159.783 186.016C159.895 185.632 159.983 185.032 160.047 184.216C160.351 184.376 160.751 184.544 161.247 184.72C161.759 184.88 162.239 185.016 162.687 185.128C162.543 186.392 162.327 187.368 162.039 188.056C161.751 188.728 161.367 189.192 160.887 189.448C160.407 189.704 159.791 189.832 159.039 189.832H157.119ZM192.687 194.728C192.655 194.328 192.599 193.856 192.519 193.312C192.439 192.784 192.327 192.352 192.183 192.016H193.791C194.111 192.016 194.319 191.96 194.415 191.848C194.527 191.736 194.583 191.536 194.583 191.248V181.552H187.863V173.488H197.295V192.28C197.295 193.112 197.071 193.728 196.623 194.128C196.191 194.528 195.479 194.728 194.487 194.728H192.687ZM176.799 194.752V173.488H186.183V181.552H179.511V194.752H176.799ZM181.359 194.584C181.199 194.264 180.991 193.928 180.735 193.576C180.495 193.224 180.239 192.936 179.967 192.712C181.071 192.232 181.903 191.728 182.463 191.2C183.023 190.656 183.391 189.904 183.567 188.944H180.543V186.712H183.711V184.84H181.263V182.752H192.879V184.84H190.527V186.712H193.575V188.944H190.527V194.224H188.007V188.944H186.015C185.759 190.432 185.231 191.616 184.431 192.496C183.647 193.376 182.623 194.072 181.359 194.584ZM190.479 179.584H194.583V178.384H190.479V179.584ZM190.479 176.656H194.583V175.456H190.479V176.656ZM179.511 179.584H183.567V178.384H179.511V179.584ZM179.511 176.656H183.567V175.456H179.511V176.656ZM186.159 186.712H188.007V184.84H186.159V186.712Z" fill="#14AEFF"/>
<path d="M159.403 132.22C158.55 132.22 157.79 132.007 157.123 131.58C156.457 131.153 155.93 130.567 155.543 129.82C155.157 129.06 154.963 128.187 154.963 127.2C154.963 126.213 155.157 125.347 155.543 124.6C155.93 123.84 156.457 123.247 157.123 122.82C157.79 122.393 158.55 122.18 159.403 122.18C160.27 122.18 161.037 122.393 161.703 122.82C162.37 123.247 162.897 123.84 163.283 124.6C163.67 125.347 163.863 126.213 163.863 127.2C163.863 128.187 163.67 129.06 163.283 129.82C162.897 130.567 162.37 131.153 161.703 131.58C161.037 132.007 160.27 132.22 159.403 132.22ZM159.403 131.08C160.03 131.08 160.583 130.92 161.063 130.6C161.557 130.28 161.943 129.833 162.223 129.26C162.503 128.673 162.643 127.987 162.643 127.2C162.643 126.413 162.503 125.733 162.223 125.16C161.943 124.573 161.557 124.12 161.063 123.8C160.583 123.48 160.03 123.32 159.403 123.32C158.47 123.32 157.697 123.673 157.083 124.38C156.483 125.073 156.183 126.013 156.183 127.2C156.183 128.373 156.483 129.313 157.083 130.02C157.697 130.727 158.47 131.08 159.403 131.08ZM166.285 132V122.42H167.445L167.505 124.08C167.771 123.52 168.191 123.067 168.765 122.72C169.351 122.36 169.998 122.18 170.705 122.18C170.891 122.18 171.078 122.193 171.265 122.22C171.465 122.233 171.631 122.26 171.765 122.3V123.48C171.645 123.453 171.471 123.427 171.245 123.4C171.031 123.373 170.811 123.36 170.585 123.36C170.025 123.36 169.511 123.493 169.045 123.76C168.578 124.013 168.205 124.36 167.925 124.8C167.658 125.227 167.525 125.713 167.525 126.26V132H166.285Z" fill="#14AEFF"/>
</svg>
