<svg width="343" height="248" viewBox="0 0 343 248" fill="none" xmlns="http://www.w3.org/2000/svg">
<g clip-path="url(#clip0_460_13431)">
<g style="mix-blend-mode:multiply">
<mask id="mask0_460_13431" style="mask-type:luminance" maskUnits="userSpaceOnUse" x="215" y="32" width="12" height="32">
<path d="M226.174 32.7626H215.756V63.6804H226.174V32.7626Z" fill="white"/>
</mask>
<g mask="url(#mask0_460_13431)">
<path d="M226.174 32.7626H215.756V63.6804H226.174V32.7626Z" fill="#52BEF7"/>
</g>
</g>
<g style="mix-blend-mode:multiply">
<mask id="mask1_460_13431" style="mask-type:luminance" maskUnits="userSpaceOnUse" x="71" y="61" width="27" height="27">
<path d="M97.6706 61.7971H71.4727V87.9961H97.6706V61.7971Z" fill="white"/>
</mask>
<g mask="url(#mask1_460_13431)">
<path d="M97.6706 74.8946C97.6706 77.4855 96.9024 80.0181 95.463 82.1723C94.0236 84.3265 91.9777 86.0055 89.5841 86.997C87.1905 87.9884 84.5566 88.2478 82.0156 87.7424C79.4745 87.237 77.1404 85.9893 75.3084 84.1574C73.4764 82.3254 72.2288 79.9913 71.7234 77.4502C71.2179 74.9092 71.4774 72.2753 72.4688 69.8817C73.4603 67.4881 75.1393 65.4422 77.2935 64.0028C79.4477 62.5634 81.9803 61.7952 84.5712 61.7952C88.0454 61.7952 91.3773 63.1753 93.8339 65.6319C96.2905 68.0885 97.6706 71.4204 97.6706 74.8946Z" fill="#53C4FF"/>
</g>
</g>
<path d="M195.533 132.834C195.927 133.36 196.44 133.785 197.028 134.076C197.617 134.367 198.266 134.516 198.923 134.511H244.449C244.826 134.52 245.2 134.453 245.55 134.315C245.9 134.177 246.219 133.971 246.488 133.708C246.757 133.445 246.971 133.131 247.117 132.784C247.263 132.438 247.338 132.065 247.338 131.689C247.338 126.878 244.423 125.911 240.576 127.079C239.752 127.319 238.876 127.314 238.054 127.065C237.233 126.816 236.502 126.333 235.95 125.676L234.726 124.241C225.27 111.108 214.091 118.638 209.993 123.794C209.697 124.151 209.289 124.397 208.835 124.491C208.381 124.585 207.909 124.522 207.495 124.313C205.841 123.298 203.894 122.866 201.966 123.086C200.038 123.306 198.238 124.164 196.854 125.525C196.854 125.525 192.817 129.133 195.533 132.834Z" stroke="#1A1818" stroke-width="1.03643" stroke-miterlimit="10" stroke-linecap="round"/>
<path d="M9.20341 226.081H30.3466C39.8818 226.081 49.1382 221.749 54.4955 213.859C62.5393 202.004 55.4345 191.961 39.9616 190.176C19.3304 187.792 21.7111 174.703 26.8694 163.793C32.0277 152.882 30.2419 147.328 14.5701 145.939C-1.10184 144.55 -6.26223 130.863 9.80869 126.697C25.8796 122.53 27.6623 76.5084 50.0782 71.1521C72.4942 65.7958 85.2433 76.9188 85.2433 76.9188" stroke="#1A1818" stroke-width="1.03643" stroke-miterlimit="10" stroke-linecap="round"/>
<path d="M118.764 153.016C114.889 160.826 107.99 167.685 97.2819 171.33C70.6456 180.397 57.9907 185.822 57.7938 204.067C57.5969 222.312 92.0448 229.507 92.0448 229.507" stroke="#1A1818" stroke-width="1.03643" stroke-miterlimit="10" stroke-linecap="round"/>
<path d="M127.667 72.4435C111.422 68.9393 96.3152 69.8669 88.2539 74.9216C67.8901 87.6894 74.7067 102.728 76.3546 104.677C76.3546 104.677 83.0002 115.587 104.425 111.818C106.918 111.35 109.495 111.686 111.784 112.777" stroke="#1A1818" stroke-width="1.03643" stroke-miterlimit="10" stroke-linecap="round"/>
<path d="M80.5269 108.58C80.5269 108.58 76.346 125.333 66.1371 126.696C56.8724 127.932 56.3211 135.232 58.7971 138.995C62.8682 145.182 78.0395 140.582 74.072 156.254C70.1046 171.926 87.2554 174.416 87.2554 174.416" stroke="#1A1818" stroke-width="1.03643" stroke-miterlimit="10" stroke-linecap="round"/>
<path d="M25.6143 166.636C25.6143 166.636 37.5913 173.891 45.4868 164.155" stroke="#1A1818" stroke-width="1.03643" stroke-miterlimit="10" stroke-linecap="round"/>
<path d="M115.829 166.636C115.829 166.636 127.806 173.891 135.702 164.155" stroke="#1A1818" stroke-width="1.03643" stroke-miterlimit="10" stroke-linecap="round"/>
<path d="M74.6348 154.763C74.6348 154.763 86.6118 162.018 94.5073 152.281" stroke="#1A1818" stroke-width="1.03643" stroke-miterlimit="10" stroke-linecap="round"/>
<path d="M20.2021 195.089V218.456" stroke="#1A1818" stroke-width="1.03643" stroke-miterlimit="10" stroke-linecap="round"/>
<path d="M8.51855 206.773H31.8849" stroke="#1A1818" stroke-width="1.03643" stroke-miterlimit="10" stroke-linecap="round"/>
<path d="M28.4632 198.512L11.9404 215.034" stroke="#1A1818" stroke-width="1.03643" stroke-miterlimit="10" stroke-linecap="round"/>
<path d="M11.9404 198.512L28.4632 215.034" stroke="#1A1818" stroke-width="1.03643" stroke-miterlimit="10" stroke-linecap="round"/>
<path d="M280.519 229.508V176.691C280.519 175.511 280.204 174.352 279.607 173.333C279.011 172.315 278.154 171.473 277.124 170.896L264.773 163.964C263.842 163.441 262.798 163.152 261.73 163.123C260.662 163.093 259.604 163.324 258.645 163.794L242.476 171.723C241.818 172.046 241.263 172.548 240.874 173.17C240.486 173.793 240.281 174.513 240.281 175.247V181.105" stroke="#1A1818" stroke-width="1.03643" stroke-miterlimit="10" stroke-linecap="round"/>
<path d="M280.519 200.589L298.877 191.582C299.836 191.112 300.895 190.882 301.963 190.912C303.03 190.941 304.075 191.23 305.006 191.752L317.358 198.685C318.387 199.263 319.244 200.104 319.84 201.123C320.437 202.141 320.751 203.3 320.751 204.481V222.635C320.751 223.537 320.929 224.431 321.274 225.265C321.62 226.099 322.127 226.856 322.765 227.494C323.403 228.132 324.161 228.638 324.995 228.983C325.829 229.328 326.723 229.505 327.625 229.504L363.772 229.482C365.548 229.482 367.307 229.132 368.948 228.452C370.589 227.772 372.08 226.776 373.336 225.52C374.592 224.264 375.588 222.773 376.268 221.132C376.948 219.491 377.297 217.732 377.297 215.956C377.297 214.18 376.948 212.421 376.268 210.78C375.588 209.139 374.592 207.648 373.336 206.392C372.08 205.136 370.589 204.14 368.948 203.46C367.307 202.781 365.548 202.431 363.772 202.431H349.184C348.215 202.431 347.284 202.052 346.589 201.376C345.895 200.701 345.491 199.78 345.465 198.812L344.89 178.001C344.891 176.91 345.298 175.858 346.033 175.051C346.768 174.244 347.777 173.74 348.864 173.637C349.95 173.535 351.036 173.841 351.909 174.497C352.781 175.152 353.378 176.109 353.583 177.181C353.583 177.181 354.93 187.016 361.35 191.256C364.811 193.543 369.265 193.874 373.407 193.195L374.236 193.059C389.391 190.261 389.315 193.636 397.504 193.541C399.9 193.798 402.323 193.493 404.581 192.652C406.839 191.81 408.87 190.454 410.514 188.692C417.796 180.476 421.827 169.884 421.85 158.906V124.317C421.85 123.065 422.096 121.825 422.575 120.668C423.055 119.511 423.757 118.46 424.642 117.575C425.528 116.689 426.579 115.987 427.736 115.508C428.893 115.028 430.133 114.782 431.385 114.782H468.436C471.457 114.782 474.354 115.982 476.49 118.118C478.626 120.254 479.826 123.151 479.826 126.172C479.826 129.192 478.626 132.089 476.49 134.225C474.354 136.361 471.457 137.561 468.436 137.561H459.134C456.617 137.561 454.203 138.561 452.423 140.341C450.643 142.121 449.643 144.535 449.643 147.053C449.643 149.57 450.643 151.984 452.423 153.764C454.203 155.544 456.617 156.544 459.134 156.544H462.901" stroke="#1A1818" stroke-width="1.03643" stroke-miterlimit="10"/>
<path d="M290.102 195.89V158.983C290.102 157.24 290.794 155.568 292.027 154.335C293.259 153.103 294.931 152.41 296.675 152.41H322.888C324.226 152.41 325.509 152.942 326.455 153.888C327.401 154.834 327.932 156.117 327.932 157.455V169.703H397.245C399.682 169.703 402.019 168.735 403.742 167.012C405.465 165.289 406.433 162.952 406.433 160.515C406.433 158.078 405.465 155.741 403.742 154.018C402.019 152.295 399.682 151.327 397.245 151.327H358.452C357.799 151.324 357.164 151.116 356.636 150.732C356.108 150.348 355.715 149.808 355.511 149.187C355.308 148.567 355.305 147.899 355.502 147.276C355.7 146.654 356.088 146.11 356.613 145.721C363.301 140.811 373.536 134.454 381.694 134.454" stroke="#1A1818" stroke-width="1.03643" stroke-miterlimit="10" stroke-linecap="round"/>
<path d="M263.955 181.054H260.875C260.045 181.054 259.248 181.384 258.661 181.971C258.074 182.558 257.744 183.355 257.744 184.185V193.966" stroke="#1A1818" stroke-width="1.03643" stroke-miterlimit="10" stroke-linecap="round"/>
<path d="M252.563 181.054H249.483C248.652 181.054 247.856 181.384 247.269 181.971C246.681 182.558 246.352 183.355 246.352 184.185V193.966" stroke="#1A1818" stroke-width="1.03643" stroke-miterlimit="10" stroke-linecap="round"/>
<path d="M275.365 181.054H272.284C271.454 181.054 270.658 181.384 270.07 181.971C269.483 182.558 269.153 183.355 269.153 184.185V193.966" stroke="#1A1818" stroke-width="1.03643" stroke-miterlimit="10" stroke-linecap="round"/>
<path d="M304.245 165.264H301.164C300.753 165.264 300.346 165.345 299.966 165.502C299.586 165.659 299.241 165.89 298.95 166.181C298.66 166.472 298.429 166.817 298.272 167.197C298.114 167.577 298.033 167.984 298.033 168.395V178.176" stroke="#1A1818" stroke-width="1.03643" stroke-miterlimit="10" stroke-linecap="round"/>
<path d="M315.654 165.264H312.573C311.743 165.264 310.947 165.594 310.359 166.181C309.772 166.768 309.442 167.564 309.442 168.395V178.176" stroke="#1A1818" stroke-width="1.03643" stroke-miterlimit="10" stroke-linecap="round"/>
<path d="M294.815 216.597H291.737C290.906 216.597 290.11 216.927 289.523 217.514C288.935 218.102 288.605 218.898 288.605 219.728V229.509" stroke="#1A1818" stroke-width="1.03643" stroke-miterlimit="10" stroke-linecap="round"/>
<path d="M305.427 216.597H302.347C301.516 216.597 300.72 216.927 300.133 217.514C299.546 218.102 299.216 218.898 299.216 219.728V229.509" stroke="#1A1818" stroke-width="1.03643" stroke-miterlimit="10" stroke-linecap="round"/>
<path d="M118.576 29.0067L113.124 30.4577C100.444 33.8164 87.046 33.271 74.6814 28.8927C60.9401 24.025 45.962 23.9144 32.1504 28.5787L19.252 32.9794" stroke="#1A1818" stroke-width="1.03643" stroke-miterlimit="10" stroke-linecap="round"/>
<path d="M118.618 37.6463L113.166 39.0973C100.486 42.456 87.0879 41.9105 74.7232 37.5323C60.9829 32.6618 46.0049 32.5479 32.1922 37.2089L19.2969 41.6169" stroke="#1A1818" stroke-width="1.03643" stroke-miterlimit="10" stroke-linecap="round"/>
<path d="M118.663 46.285L113.21 47.736C100.531 51.0946 87.1328 50.5492 74.7682 46.1709C61.028 41.3002 46.0498 41.1863 32.2371 45.8476L19.3408 50.2576" stroke="#1A1818" stroke-width="1.03643" stroke-miterlimit="10" stroke-linecap="round"/>
<path d="M361.708 79.0371C362.305 79.3179 362.96 79.4556 363.62 79.4392H406.431C408.347 79.4392 410.185 80.2004 411.54 81.5554C412.895 82.9103 413.656 84.748 413.656 86.6642V130.746C413.656 131.696 413.469 132.637 413.105 133.516C412.741 134.394 412.208 135.192 411.536 135.864C410.864 136.536 410.066 137.069 409.188 137.433C408.31 137.796 407.369 137.983 406.418 137.983H403.572C401.131 137.983 398.775 138.878 396.949 140.498L391.281 145.527C390.743 146.004 390.054 146.276 389.335 146.294C388.617 146.311 387.915 146.075 387.354 145.625L376.702 137.077C376.702 137.077 346.709 111.011 293.636 139.781C242.828 167.327 128.783 170.85 126.759 82.6397" stroke="#1A1818" stroke-width="1.03643" stroke-miterlimit="10" stroke-linecap="round"/>
<path d="M224.576 95.0833C225.356 96.879 226.651 98.4024 228.298 99.4603C229.945 100.518 231.87 101.063 233.827 101.025H330.202C331.004 101.044 331.801 100.902 332.547 100.608C333.294 100.314 333.974 99.8733 334.548 99.3127C335.121 98.7521 335.577 98.0825 335.888 97.3432C336.2 96.6039 336.36 95.8098 336.36 95.0077C336.36 84.833 330.245 82.7228 322.144 85.1191C320.363 85.6565 318.465 85.6656 316.679 85.1454C314.892 84.6251 313.296 83.5978 312.082 82.188L309.467 79.1223C289.194 50.9666 265.205 67.3588 256.593 78.3564C256.039 79.0953 255.237 79.6095 254.335 79.8045C253.432 79.9994 252.489 79.8621 251.68 79.4177C241.309 73.4374 233.198 77.9024 228.728 81.8522C228.728 81.8553 221.762 88.0812 224.576 95.0833Z" stroke="#1A1818" stroke-width="1.03643" stroke-miterlimit="10" stroke-linecap="round"/>
<path d="M207.495 186.206C207.601 178.074 204.616 170.206 199.143 164.191C198.943 163.973 198.699 163.8 198.427 163.684C198.156 163.567 197.862 163.509 197.567 163.514C197.271 163.519 196.98 163.586 196.712 163.711C196.444 163.836 196.205 164.017 196.012 164.241C193.225 167.502 187.531 175.48 187.531 186.206C187.531 186.206 187.117 195.016 196.364 196.661C196.687 196.721 196.979 196.893 197.189 197.146C197.398 197.399 197.513 197.717 197.512 198.046V213.626" stroke="#1A1818" stroke-width="1.03643" stroke-miterlimit="10" stroke-linecap="round"/>
<path d="M217.48 206.773V198.045C217.481 197.716 217.366 197.398 217.156 197.145C216.947 196.892 216.655 196.72 216.331 196.66C207.083 195.011 207.497 186.205 207.497 186.205C207.497 175.479 213.192 167.501 215.979 164.24C216.172 164.016 216.41 163.835 216.678 163.71C216.946 163.585 217.237 163.517 217.533 163.513C217.829 163.508 218.122 163.566 218.393 163.683C218.665 163.799 218.909 163.972 219.109 164.19C224.582 170.205 227.567 178.073 227.462 186.205C227.462 186.205 227.897 194.23 220.488 196.608" stroke="#1A1818" stroke-width="1.03643" stroke-miterlimit="10" stroke-linecap="round"/>
<path d="M193.086 229.408H254.395C254.905 229.42 255.413 229.33 255.888 229.143C256.362 228.956 256.795 228.676 257.16 228.319C257.525 227.962 257.815 227.536 258.013 227.066C258.211 226.596 258.313 226.091 258.313 225.58C258.313 219.073 254.382 217.75 249.185 219.314C248.062 219.646 246.866 219.644 245.743 219.309C244.62 218.973 243.62 218.318 242.863 217.424L241.205 215.478C228.305 197.563 213.04 207.998 207.563 214.995C207.178 215.455 206.646 215.767 206.056 215.878C205.467 215.99 204.857 215.893 204.332 215.605C201.965 214.153 199.168 213.567 196.417 213.946C193.076 214.465 190.806 217.056 188.7 219.7C184.826 224.565 183.266 226.54 180.969 227.803C171.863 232.819 160.387 225.217 151.155 220.893C116.103 204.475 102.612 212.611 105.603 219.742C108.594 226.874 119.885 226.086 119.885 226.086C129.42 226.086 138.677 221.754 144.034 213.865C152.078 202.009 144.973 191.966 129.5 190.181C108.87 187.797 111.25 174.708 116.407 163.798C121.564 152.887 119.78 147.333 104.107 145.944C88.4346 144.555 83.2752 130.868 99.3461 126.702C111.472 123.559 116.071 98.5014 126.763 82.645C126.763 82.645 125.77 48.2573 167.161 42.4315C167.161 42.4315 228.556 33.5306 251.683 79.4238" stroke="#1A1818" stroke-width="1.03643" stroke-miterlimit="10" stroke-linecap="round"/>
<path d="M334.952 40.9878C334.952 43.766 334.128 46.4818 332.585 48.7918C331.041 51.1018 328.847 52.9022 326.281 53.9653C323.714 55.0285 320.89 55.3067 318.165 54.7647C315.44 54.2227 312.937 52.8848 310.973 50.9204C309.008 48.9559 307.67 46.453 307.128 43.7282C306.586 41.0034 306.864 38.1791 307.928 35.6123C308.991 33.0456 310.791 30.8518 313.101 29.3083C315.411 27.7649 318.127 26.941 320.905 26.941C324.631 26.9413 328.203 28.4213 330.837 31.0555C333.472 33.6898 334.952 37.2625 334.952 40.9878Z" stroke="#1A1818" stroke-width="1.03643" stroke-miterlimit="10" stroke-linecap="round"/>
<path d="M320.905 17.7769V23.2243" stroke="#1A1818" stroke-width="1.03643" stroke-miterlimit="10" stroke-linecap="round"/>
<path d="M320.905 58.7521V64.1996" stroke="#1A1818" stroke-width="1.03643" stroke-miterlimit="10" stroke-linecap="round"/>
<path d="M320.905 17.7769V23.2243" stroke="#1A1818" stroke-width="1.03643" stroke-miterlimit="10" stroke-linecap="round"/>
<path d="M320.905 58.7521V64.1996" stroke="#1A1818" stroke-width="1.03643" stroke-miterlimit="10" stroke-linecap="round"/>
<path d="M304.492 24.5759L308.344 28.4273" stroke="#1A1818" stroke-width="1.03643" stroke-miterlimit="10" stroke-linecap="round"/>
<path d="M333.466 53.5492L337.317 57.4006" stroke="#1A1818" stroke-width="1.03643" stroke-miterlimit="10" stroke-linecap="round"/>
<path d="M297.693 40.9878H303.141" stroke="#1A1818" stroke-width="1.03643" stroke-miterlimit="10" stroke-linecap="round"/>
<path d="M338.669 40.9878H344.116" stroke="#1A1818" stroke-width="1.03643" stroke-miterlimit="10" stroke-linecap="round"/>
<path d="M304.492 57.4006L308.344 53.5492" stroke="#1A1818" stroke-width="1.03643" stroke-miterlimit="10" stroke-linecap="round"/>
<path d="M333.466 28.4273L337.317 24.5759" stroke="#1A1818" stroke-width="1.03643" stroke-miterlimit="10" stroke-linecap="round"/>
<path d="M124.489 116.464C124.489 116.778 124.396 117.084 124.222 117.345C124.047 117.606 123.799 117.81 123.509 117.93C123.22 118.05 122.9 118.081 122.593 118.02C122.285 117.959 122.002 117.808 121.78 117.586C121.558 117.364 121.407 117.081 121.346 116.773C121.285 116.466 121.316 116.147 121.436 115.857C121.556 115.567 121.76 115.319 122.021 115.145C122.282 114.97 122.588 114.877 122.902 114.877C123.323 114.877 123.727 115.044 124.024 115.342C124.322 115.639 124.489 116.043 124.489 116.464Z" fill="#1A1818"/>
<path d="M86.1589 119.636C86.1589 119.95 86.0659 120.257 85.8915 120.518C85.7171 120.779 85.4693 120.982 85.1794 121.102C84.8894 121.223 84.5704 121.254 84.2626 121.193C83.9548 121.132 83.672 120.98 83.4501 120.758C83.2282 120.537 83.0771 120.254 83.0158 119.946C82.9546 119.638 82.986 119.319 83.1061 119.029C83.2262 118.739 83.4296 118.491 83.6906 118.317C83.9515 118.143 84.2583 118.05 84.5721 118.05C84.7805 118.05 84.9868 118.091 85.1794 118.17C85.3719 118.25 85.5468 118.367 85.6942 118.514C85.8415 118.662 85.9584 118.837 86.0381 119.029C86.1179 119.222 86.1589 119.428 86.1589 119.636Z" fill="#1A1818"/>
<path d="M33.4411 116.464C33.4411 116.778 33.3481 117.084 33.1737 117.345C32.9994 117.606 32.7515 117.81 32.4616 117.93C32.1716 118.05 31.8526 118.081 31.5448 118.02C31.237 117.959 30.9543 117.808 30.7323 117.586C30.5104 117.364 30.3593 117.081 30.2981 116.773C30.2368 116.466 30.2683 116.147 30.3884 115.857C30.5085 115.567 30.7118 115.319 30.9728 115.145C31.2337 114.97 31.5405 114.877 31.8544 114.877C32.2752 114.877 32.6788 115.044 32.9764 115.342C33.274 115.639 33.4411 116.043 33.4411 116.464Z" fill="#1A1818"/>
</g>
<defs>
<clipPath id="clip0_460_13431">
<rect width="343" height="248" fill="white"/>
</clipPath>
</defs>
</svg>
