<svg width="343" height="320" viewBox="0 0 343 320" fill="none" xmlns="http://www.w3.org/2000/svg">
<rect x="84" y="1" width="175" height="175" rx="87.5" stroke="white"/>
<path d="M140.253 55.5075C139.133 55.5075 138.125 55.3155 137.229 54.9315C136.333 54.5315 135.629 53.9715 135.117 53.2515C134.605 52.5315 134.349 51.6915 134.349 50.7315H137.277C137.341 51.4515 137.621 52.0435 138.117 52.5075C138.629 52.9715 139.341 53.2035 140.253 53.2035C141.197 53.2035 141.933 52.9795 142.461 52.5315C142.989 52.0675 143.253 51.4755 143.253 50.7555C143.253 50.1955 143.085 49.7395 142.749 49.3875C142.429 49.0355 142.021 48.7635 141.525 48.5715C141.045 48.3795 140.373 48.1715 139.509 47.9475C138.421 47.6595 137.533 47.3715 136.845 47.0835C136.173 46.7795 135.597 46.3155 135.117 45.6915C134.637 45.0675 134.397 44.2355 134.397 43.1955C134.397 42.2355 134.637 41.3955 135.117 40.6755C135.597 39.9555 136.269 39.4035 137.133 39.0195C137.997 38.6355 138.997 38.4435 140.133 38.4435C141.749 38.4435 143.069 38.8515 144.093 39.6675C145.133 40.4675 145.709 41.5715 145.821 42.9795H142.797C142.749 42.3715 142.461 41.8515 141.933 41.4195C141.405 40.9875 140.709 40.7715 139.845 40.7715C139.061 40.7715 138.421 40.9715 137.925 41.3715C137.429 41.7715 137.181 42.3475 137.181 43.0995C137.181 43.6115 137.333 44.0355 137.637 44.3715C137.957 44.6915 138.357 44.9475 138.837 45.1395C139.317 45.3315 139.973 45.5395 140.805 45.7635C141.909 46.0675 142.805 46.3715 143.493 46.6755C144.197 46.9795 144.789 47.4515 145.269 48.0915C145.765 48.7155 146.013 49.5555 146.013 50.6115C146.013 51.4595 145.781 52.2595 145.317 53.0115C144.869 53.7635 144.205 54.3715 143.325 54.8355C142.461 55.2835 141.437 55.5075 140.253 55.5075ZM152.433 44.3475V51.6675C152.433 52.1635 152.545 52.5235 152.769 52.7475C153.009 52.9555 153.409 53.0595 153.969 53.0595H155.649V55.3395H153.489C152.257 55.3395 151.313 55.0515 150.657 54.4755C150.001 53.8995 149.673 52.9635 149.673 51.6675V44.3475H148.113V42.1155H149.673V38.8275H152.433V42.1155H155.649V44.3475H152.433ZM157.259 48.6675C157.259 47.3395 157.531 46.1635 158.075 45.1395C158.635 44.1155 159.387 43.3235 160.331 42.7635C161.291 42.1875 162.347 41.8995 163.499 41.8995C164.539 41.8995 165.443 42.1075 166.211 42.5235C166.995 42.9235 167.619 43.4275 168.083 44.0355V42.1155H170.843V55.3395H168.083V53.3715C167.619 53.9955 166.987 54.5155 166.187 54.9315C165.387 55.3475 164.475 55.5555 163.451 55.5555C162.315 55.5555 161.275 55.2675 160.331 54.6915C159.387 54.0995 158.635 53.2835 158.075 52.2435C157.531 51.1875 157.259 49.9955 157.259 48.6675ZM168.083 48.7155C168.083 47.8035 167.891 47.0115 167.507 46.3395C167.139 45.6675 166.651 45.1555 166.043 44.8035C165.435 44.4515 164.779 44.2755 164.075 44.2755C163.371 44.2755 162.715 44.4515 162.107 44.8035C161.499 45.1395 161.003 45.6435 160.619 46.3155C160.251 46.9715 160.067 47.7555 160.067 48.6675C160.067 49.5795 160.251 50.3795 160.619 51.0675C161.003 51.7555 161.499 52.2835 162.107 52.6515C162.731 53.0035 163.387 53.1795 164.075 53.1795C164.779 53.1795 165.435 53.0035 166.043 52.6515C166.651 52.2995 167.139 51.7875 167.507 51.1155C167.891 50.4275 168.083 49.6275 168.083 48.7155ZM177.173 44.0835C177.637 43.4435 178.269 42.9235 179.069 42.5235C179.885 42.1075 180.789 41.8995 181.781 41.8995C182.949 41.8995 184.005 42.1795 184.949 42.7395C185.893 43.2995 186.637 44.0995 187.181 45.1395C187.725 46.1635 187.997 47.3395 187.997 48.6675C187.997 49.9955 187.725 51.1875 187.181 52.2435C186.637 53.2835 185.885 54.0995 184.925 54.6915C183.981 55.2675 182.933 55.5555 181.781 55.5555C180.757 55.5555 179.845 55.3555 179.045 54.9555C178.261 54.5555 177.637 54.0435 177.173 53.4195V55.3395H174.437V37.5795H177.173V44.0835ZM185.213 48.6675C185.213 47.7555 185.021 46.9715 184.637 46.3155C184.269 45.6435 183.773 45.1395 183.149 44.8035C182.541 44.4515 181.885 44.2755 181.181 44.2755C180.493 44.2755 179.837 44.4515 179.213 44.8035C178.605 45.1555 178.109 45.6675 177.725 46.3395C177.357 47.0115 177.173 47.8035 177.173 48.7155C177.173 49.6275 177.357 50.4275 177.725 51.1155C178.109 51.7875 178.605 52.2995 179.213 52.6515C179.837 53.0035 180.493 53.1795 181.181 53.1795C181.885 53.1795 182.541 53.0035 183.149 52.6515C183.773 52.2835 184.269 51.7555 184.637 51.0675C185.021 50.3795 185.213 49.5795 185.213 48.6675ZM193.438 37.5795V55.3395H190.702V37.5795H193.438ZM209.15 48.4035C209.15 48.8995 209.118 49.3475 209.054 49.7475H198.95C199.03 50.8035 199.422 51.6515 200.126 52.2915C200.83 52.9315 201.694 53.2515 202.718 53.2515C204.19 53.2515 205.23 52.6355 205.838 51.4035H208.79C208.39 52.6195 207.662 53.6195 206.606 54.4035C205.566 55.1715 204.27 55.5555 202.718 55.5555C201.454 55.5555 200.318 55.2755 199.31 54.7155C198.318 54.1395 197.534 53.3395 196.958 52.3155C196.398 51.2755 196.118 50.0755 196.118 48.7155C196.118 47.3555 196.39 46.1635 196.934 45.1395C197.494 44.0995 198.27 43.2995 199.262 42.7395C200.27 42.1795 201.422 41.8995 202.718 41.8995C203.966 41.8995 205.078 42.1715 206.054 42.7155C207.03 43.2595 207.79 44.0275 208.334 45.0195C208.878 45.9955 209.15 47.1235 209.15 48.4035ZM206.294 47.5395C206.278 46.5315 205.918 45.7235 205.214 45.1155C204.51 44.5075 203.638 44.2035 202.598 44.2035C201.654 44.2035 200.846 44.5075 200.174 45.1155C199.502 45.7075 199.102 46.5155 198.974 47.5395H206.294ZM133.266 81.3395L131.202 79.2755C130.402 80.0755 129.53 80.6755 128.586 81.0755C127.642 81.4595 126.586 81.6515 125.418 81.6515C124.234 81.6515 123.186 81.4435 122.274 81.0275C121.362 80.6115 120.658 80.0195 120.162 79.2515C119.666 78.4675 119.418 77.5635 119.418 76.5395C119.418 75.3875 119.746 74.3635 120.402 73.4675C121.058 72.5555 122.034 71.8355 123.33 71.3075C122.866 70.7475 122.538 70.2275 122.346 69.7475C122.154 69.2515 122.058 68.7075 122.058 68.1155C122.058 67.3795 122.242 66.7235 122.61 66.1475C122.994 65.5715 123.538 65.1155 124.242 64.7795C124.946 64.4435 125.762 64.2755 126.69 64.2755C127.634 64.2755 128.434 64.4595 129.09 64.8275C129.762 65.1795 130.258 65.6675 130.578 66.2915C130.914 66.9155 131.05 67.6115 130.986 68.3795H128.25C128.266 67.7875 128.122 67.3315 127.818 67.0115C127.514 66.6755 127.098 66.5075 126.57 66.5075C126.042 66.5075 125.61 66.6675 125.274 66.9875C124.954 67.2915 124.794 67.6675 124.794 68.1155C124.794 68.5475 124.914 68.9795 125.154 69.4115C125.41 69.8275 125.85 70.3715 126.474 71.0435L130.89 75.4355L132.594 72.6275H135.546L133.386 76.3235L132.786 77.3075L136.842 81.3395H133.266ZM125.418 79.3235C126.922 79.3235 128.25 78.7075 129.402 77.4755L124.986 73.0355C123.098 73.7875 122.154 74.9235 122.154 76.4435C122.154 77.2595 122.458 77.9475 123.066 78.5075C123.674 79.0515 124.458 79.3235 125.418 79.3235ZM147.606 64.6595V81.3395H144.87V64.6595H147.606ZM157.87 67.8995C158.91 67.8995 159.838 68.1155 160.654 68.5475C161.486 68.9795 162.134 69.6195 162.598 70.4675C163.062 71.3155 163.294 72.3395 163.294 73.5395V81.3395H160.582V73.9475C160.582 72.7635 160.286 71.8595 159.694 71.2355C159.102 70.5955 158.294 70.2755 157.27 70.2755C156.246 70.2755 155.43 70.5955 154.822 71.2355C154.23 71.8595 153.934 72.7635 153.934 73.9475V81.3395H151.198V68.1155H153.934V69.6275C154.382 69.0835 154.95 68.6595 155.638 68.3555C156.342 68.0515 157.086 67.8995 157.87 67.8995ZM171.584 81.5555C170.544 81.5555 169.608 81.3715 168.776 81.0035C167.96 80.6195 167.312 80.1075 166.832 79.4675C166.352 78.8115 166.096 78.0835 166.064 77.2835H168.896C168.944 77.8435 169.208 78.3155 169.688 78.6995C170.184 79.0675 170.8 79.2515 171.536 79.2515C172.304 79.2515 172.896 79.1075 173.312 78.8195C173.744 78.5155 173.96 78.1315 173.96 77.6675C173.96 77.1715 173.72 76.8035 173.24 76.5635C172.776 76.3235 172.032 76.0595 171.008 75.7715C170.016 75.4995 169.208 75.2355 168.584 74.9795C167.96 74.7235 167.416 74.3315 166.952 73.8035C166.504 73.2755 166.28 72.5795 166.28 71.7155C166.28 71.0115 166.488 70.3715 166.904 69.7955C167.32 69.2035 167.912 68.7395 168.68 68.4035C169.464 68.0675 170.36 67.8995 171.368 67.8995C172.872 67.8995 174.08 68.2835 174.992 69.0515C175.92 69.8035 176.416 70.8355 176.48 72.1475H173.744C173.696 71.5555 173.456 71.0835 173.024 70.7315C172.592 70.3795 172.008 70.2035 171.272 70.2035C170.552 70.2035 170 70.3395 169.616 70.6115C169.232 70.8835 169.04 71.2435 169.04 71.6915C169.04 72.0435 169.168 72.3395 169.424 72.5795C169.68 72.8195 169.992 73.0115 170.36 73.1555C170.728 73.2835 171.272 73.4515 171.992 73.6595C172.952 73.9155 173.736 74.1795 174.344 74.4515C174.968 74.7075 175.504 75.0915 175.952 75.6035C176.4 76.1155 176.632 76.7955 176.648 77.6435C176.648 78.3955 176.44 79.0675 176.024 79.6595C175.608 80.2515 175.016 80.7155 174.248 81.0515C173.496 81.3875 172.608 81.5555 171.584 81.5555ZM182.341 70.0595C182.805 69.4515 183.437 68.9395 184.237 68.5235C185.037 68.1075 185.941 67.8995 186.949 67.8995C188.101 67.8995 189.149 68.1875 190.093 68.7635C191.053 69.3235 191.805 70.1155 192.349 71.1395C192.893 72.1635 193.165 73.3395 193.165 74.6675C193.165 75.9955 192.893 77.1875 192.349 78.2435C191.805 79.2835 191.053 80.0995 190.093 80.6915C189.149 81.2675 188.101 81.5555 186.949 81.5555C185.941 81.5555 185.045 81.3555 184.261 80.9555C183.477 80.5395 182.837 80.0275 182.341 79.4195V87.6275H179.605V68.1155H182.341V70.0595ZM190.381 74.6675C190.381 73.7555 190.189 72.9715 189.805 72.3155C189.437 71.6435 188.941 71.1395 188.317 70.8035C187.709 70.4515 187.053 70.2755 186.349 70.2755C185.661 70.2755 185.005 70.4515 184.381 70.8035C183.773 71.1555 183.277 71.6675 182.893 72.3395C182.525 73.0115 182.341 73.8035 182.341 74.7155C182.341 75.6275 182.525 76.4275 182.893 77.1155C183.277 77.7875 183.773 78.2995 184.381 78.6515C185.005 79.0035 185.661 79.1795 186.349 79.1795C187.053 79.1795 187.709 79.0035 188.317 78.6515C188.941 78.2835 189.437 77.7555 189.805 77.0675C190.189 76.3795 190.381 75.5795 190.381 74.6675ZM197.262 66.3635C196.766 66.3635 196.35 66.1955 196.014 65.8595C195.678 65.5235 195.51 65.1075 195.51 64.6115C195.51 64.1155 195.678 63.6995 196.014 63.3635C196.35 63.0275 196.766 62.8595 197.262 62.8595C197.742 62.8595 198.15 63.0275 198.486 63.3635C198.822 63.6995 198.99 64.1155 198.99 64.6115C198.99 65.1075 198.822 65.5235 198.486 65.8595C198.15 66.1955 197.742 66.3635 197.262 66.3635ZM198.606 68.1155V81.3395H195.87V68.1155H198.606ZM204.934 70.0355C205.334 69.3635 205.862 68.8435 206.518 68.4755C207.19 68.0915 207.982 67.8995 208.894 67.8995V70.7315H208.198C207.126 70.7315 206.31 71.0035 205.75 71.5475C205.206 72.0915 204.934 73.0355 204.934 74.3795V81.3395H202.198V68.1155H204.934V70.0355ZM223.529 74.4035C223.529 74.8995 223.497 75.3475 223.433 75.7475H213.329C213.409 76.8035 213.801 77.6515 214.505 78.2915C215.209 78.9315 216.073 79.2515 217.097 79.2515C218.569 79.2515 219.609 78.6355 220.217 77.4035H223.169C222.769 78.6195 222.041 79.6195 220.985 80.4035C219.945 81.1715 218.649 81.5555 217.097 81.5555C215.833 81.5555 214.697 81.2755 213.689 80.7155C212.697 80.1395 211.913 79.3395 211.337 78.3155C210.777 77.2755 210.497 76.0755 210.497 74.7155C210.497 73.3555 210.769 72.1635 211.313 71.1395C211.873 70.0995 212.649 69.2995 213.641 68.7395C214.649 68.1795 215.801 67.8995 217.097 67.8995C218.345 67.8995 219.457 68.1715 220.433 68.7155C221.409 69.2595 222.169 70.0275 222.713 71.0195C223.257 71.9955 223.529 73.1235 223.529 74.4035ZM220.673 73.5395C220.657 72.5315 220.297 71.7235 219.593 71.1155C218.889 70.5075 218.017 70.2035 216.977 70.2035C216.033 70.2035 215.225 70.5075 214.553 71.1155C213.881 71.7075 213.481 72.5155 213.353 73.5395H220.673Z" fill="white"/>
<path d="M171.5 98.6605C172.605 98.6605 173.5 97.6932 173.5 96.4999C173.5 95.3067 172.605 94.3394 171.5 94.3394C170.395 94.3394 169.5 95.3067 169.5 96.4999C169.5 97.6932 170.395 98.6605 171.5 98.6605Z" fill="white"/>
<path d="M116.881 112.373C116.881 111.141 117.259 110.189 117.917 109.573C118.477 109.069 119.219 108.789 120.129 108.789C121.053 108.789 121.795 109.069 122.341 109.573C123.013 110.189 123.377 111.141 123.377 112.373C123.377 113.619 123.013 114.571 122.341 115.187C121.795 115.705 121.053 115.971 120.129 115.971C119.219 115.971 118.477 115.705 117.917 115.187C117.259 114.571 116.881 113.619 116.881 112.373ZM117.973 112.373C117.973 113.269 118.211 113.969 118.659 114.431C119.023 114.795 119.513 114.991 120.129 114.991C120.745 114.991 121.235 114.795 121.599 114.431C122.033 113.969 122.271 113.269 122.271 112.373C122.271 111.477 122.033 110.777 121.599 110.315C121.235 109.965 120.745 109.769 120.129 109.769C119.513 109.769 119.023 109.965 118.659 110.315C118.211 110.777 117.973 111.477 117.973 112.373ZM126.947 108.873V112.415H128.865V113.409H126.947V117.595H125.827V108.873H126.947ZM118.883 117.357V120.493H127.185V121.459H117.763V117.357H118.883ZM130.643 109.013H136.999V109.993H134.381V110.889C134.381 113.003 135.711 114.109 137.223 114.459V115.467C135.711 115.145 134.423 114.249 133.849 113.073C133.275 114.277 131.987 115.341 130.433 115.635V114.627C131.987 114.277 133.261 113.031 133.261 110.889V109.993H130.643V109.013ZM140.737 115.999H139.617V112.583H136.803V111.603H139.617V108.873H140.737V115.999ZM136.117 121.711C134.591 121.711 133.177 121.501 132.267 120.899C131.623 120.493 131.231 119.905 131.231 119.121C131.231 118.337 131.623 117.749 132.267 117.329C133.177 116.741 134.591 116.503 136.117 116.503C137.643 116.503 139.071 116.741 139.981 117.329C140.611 117.749 141.017 118.337 141.017 119.121C141.017 119.905 140.611 120.493 139.981 120.899C139.071 121.501 137.643 121.711 136.117 121.711ZM136.117 117.483C134.815 117.483 133.639 117.679 132.953 118.113C132.589 118.365 132.365 118.701 132.365 119.121C132.365 119.527 132.589 119.863 132.953 120.115C133.639 120.549 134.815 120.745 136.117 120.745C137.419 120.745 138.609 120.549 139.281 120.115C139.673 119.863 139.897 119.527 139.897 119.121C139.897 118.701 139.673 118.365 139.281 118.113C138.609 117.679 137.419 117.483 136.117 117.483ZM149.29 113.899V110.077H144.222V109.097H150.41V113.731C150.41 114.963 150.298 116.363 150.102 117.231H148.996C149.178 116.363 149.29 115.033 149.29 113.899ZM145.748 113.745H146.882V119.695H149.808C151.054 119.695 152.104 119.415 152.706 118.897V108.873H153.826V114.137H155.87V115.117H153.826V121.389H152.706V119.849C152.09 120.395 150.984 120.675 149.64 120.675H143.774V119.695H145.748V113.745ZM161.428 112.037C161.428 110.959 161.778 110.105 162.408 109.559C162.968 109.069 163.738 108.789 164.662 108.789C165.572 108.789 166.356 109.069 166.902 109.559C167.098 109.727 167.28 109.937 167.42 110.175H170.57V108.873H171.69V116.069H170.57V113.913H167.42C167.266 114.137 167.098 114.347 166.902 114.529C166.356 115.019 165.572 115.299 164.662 115.299C163.738 115.299 162.968 115.019 162.408 114.529C161.778 113.955 161.428 113.129 161.428 112.037ZM167.798 111.127C167.868 111.407 167.896 111.715 167.896 112.037C167.896 112.373 167.868 112.681 167.798 112.961H170.57V111.127H167.798ZM162.52 112.037C162.52 112.779 162.744 113.367 163.15 113.773C163.528 114.123 164.032 114.319 164.662 114.319C165.278 114.319 165.796 114.123 166.16 113.773C166.566 113.367 166.79 112.779 166.79 112.037C166.79 111.295 166.566 110.707 166.16 110.315C165.796 109.965 165.278 109.769 164.662 109.769C164.032 109.769 163.528 109.965 163.15 110.315C162.744 110.707 162.52 111.295 162.52 112.037ZM167.07 121.711C165.544 121.711 164.13 121.501 163.22 120.899C162.576 120.493 162.184 119.905 162.184 119.121C162.184 118.337 162.576 117.749 163.22 117.329C164.13 116.741 165.544 116.503 167.07 116.503C168.596 116.503 170.024 116.741 170.934 117.329C171.564 117.749 171.97 118.337 171.97 119.121C171.97 119.905 171.564 120.493 170.934 120.899C170.024 121.501 168.596 121.711 167.07 121.711ZM167.07 117.483C165.768 117.483 164.592 117.679 163.906 118.113C163.542 118.365 163.318 118.701 163.318 119.121C163.318 119.527 163.542 119.863 163.906 120.115C164.592 120.549 165.768 120.745 167.07 120.745C168.372 120.745 169.562 120.549 170.234 120.115C170.626 119.863 170.85 119.527 170.85 119.121C170.85 118.701 170.626 118.365 170.234 118.113C169.562 117.679 168.372 117.483 167.07 117.483ZM179.669 109.993H174.867V109.013H180.803V109.727C180.803 113.605 178.339 115.355 174.545 115.747V114.767C177.695 114.445 179.669 112.877 179.669 109.993ZM184.779 108.873V111.785H186.697V112.779H184.779V115.845H183.659V108.873H184.779ZM175.595 121.543V116.853H184.779V121.543H175.595ZM183.659 117.819H176.715V120.577H183.659V117.819ZM188.657 110.819C188.657 110.301 188.853 109.923 189.273 109.615C190.043 109.083 191.499 108.873 193.711 108.873C195.923 108.873 197.379 109.083 198.135 109.615C198.555 109.923 198.765 110.301 198.765 110.819C198.765 111.309 198.555 111.701 198.135 111.995C197.379 112.541 195.923 112.765 193.711 112.765C191.499 112.765 190.043 112.541 189.273 111.995C188.853 111.701 188.657 111.309 188.657 110.819ZM189.791 110.819C189.791 111.043 189.889 111.225 190.113 111.365C190.631 111.701 191.793 111.827 193.711 111.827C195.629 111.827 196.791 111.701 197.309 111.365C197.533 111.225 197.631 111.043 197.631 110.819C197.631 110.595 197.533 110.399 197.309 110.245C196.791 109.923 195.629 109.783 193.711 109.783C191.793 109.783 190.631 109.923 190.113 110.245C189.889 110.399 189.791 110.595 189.791 110.819ZM188.055 114.921V113.969H199.339V114.921H188.055ZM190.029 119.373V120.633H198.793V121.543H188.909V118.449H197.365V117.175H188.909V116.265H198.485V119.373H190.029ZM202.236 110.007V109.013H212.022V110.007H207.682V110.371C207.682 112.597 209.894 113.941 212.134 114.333V115.341C209.866 114.949 208.004 113.913 207.122 112.387C206.254 113.913 204.322 114.949 202.082 115.341V114.333C204.308 113.955 206.548 112.597 206.548 110.371V110.007H202.236ZM201.564 118.113V117.119H212.708V118.113H207.682V121.613H206.548V118.113H201.564ZM216.907 108.943V112.191H225.447V113.171H215.787V108.943H216.907ZM214.933 116.195V115.215H226.217V116.195H214.933ZM216.907 117.595V120.493H225.615V121.459H215.787V117.595H216.907ZM138.916 130.205V131.563H147.456V132.487H137.796V127.013H147.372V127.951H138.916V129.295H147.218V130.205H138.916ZM136.942 134.839V133.873H148.226V134.839H136.942ZM146.252 139.613V137.205H137.698V136.267H147.372V139.613H146.252ZM151.908 128.861H155.646V127.013H156.752V128.217H159.776V126.873H160.896V133.103H159.776V131.563H156.752V132.697H150.802V127.013H151.908V128.861ZM156.752 129.141V130.625H159.776V129.141H156.752ZM155.646 131.773V129.785H151.908V131.773H155.646ZM152.72 137.233V138.633H161.064V139.543H151.586V136.323H159.776V134.923H151.586V134.013H160.896V137.233H152.72ZM163.625 128.889V127.965H166.649V126.481H167.755V127.965H170.737V128.889H163.625ZM165.109 132.445C165.109 132.893 165.305 133.243 165.627 133.523C166.019 133.831 166.565 133.999 167.181 133.999C167.797 133.999 168.357 133.831 168.749 133.523C169.071 133.243 169.267 132.893 169.267 132.445C169.267 131.997 169.071 131.633 168.749 131.367C168.357 131.045 167.797 130.877 167.181 130.877C166.565 130.877 166.019 131.045 165.627 131.367C165.305 131.633 165.109 131.997 165.109 132.445ZM164.017 132.445C164.017 131.689 164.339 131.059 164.899 130.639C165.459 130.205 166.271 129.967 167.181 129.967C168.105 129.967 168.903 130.205 169.477 130.639C170.037 131.059 170.359 131.689 170.359 132.445C170.359 133.187 170.037 133.817 169.477 134.237C168.903 134.671 168.105 134.909 167.181 134.909C166.271 134.909 165.459 134.671 164.899 134.237C164.339 133.817 164.017 133.187 164.017 132.445ZM173.985 126.873V130.569H175.903V131.563H173.985V135.973H172.865V126.873H173.985ZM165.921 135.875V138.493H174.223V139.459H164.801V135.875H165.921ZM181.587 127.013H187.957V127.993H185.325V128.889C185.325 131.003 186.669 132.109 188.181 132.459V133.467C186.669 133.145 185.381 132.249 184.793 131.073C184.219 132.277 182.931 133.341 181.377 133.635V132.627C182.931 132.277 184.205 131.031 184.205 128.889V127.993H181.587V127.013ZM191.499 126.873V129.785H193.417V130.779H191.499V133.999H190.379V126.873H191.499ZM182.147 137.121C182.147 136.393 182.497 135.819 183.085 135.413C183.953 134.797 185.339 134.503 186.991 134.503C188.643 134.503 190.029 134.797 190.883 135.413C191.471 135.819 191.821 136.393 191.821 137.121C191.821 137.849 191.471 138.423 190.883 138.843C190.029 139.445 188.643 139.711 186.991 139.711C185.339 139.711 183.953 139.445 183.085 138.843C182.497 138.423 182.147 137.849 182.147 137.121ZM183.281 137.121C183.281 137.513 183.491 137.863 183.883 138.129C184.485 138.549 185.577 138.745 186.991 138.745C188.391 138.745 189.483 138.549 190.113 138.129C190.491 137.863 190.687 137.513 190.687 137.121C190.687 136.715 190.491 136.365 190.113 136.113C189.483 135.693 188.391 135.483 186.991 135.483C185.577 135.483 184.485 135.693 183.883 136.113C183.491 136.365 183.281 136.715 183.281 137.121ZM200.402 130.611C199.618 132.263 197.882 133.761 195.054 134.307V133.313C197.938 132.669 199.828 130.779 199.828 128.035V127.013H200.962V128.035C200.962 130.779 202.922 132.669 205.75 133.313V134.307C202.95 133.747 201.186 132.263 200.402 130.611ZM194.844 138.843V137.863H199.828V133.873H200.962V137.863H205.988V138.843H194.844Z" fill="white"/>
<rect x="0.5" y="144" width="175" height="175" rx="87.5" stroke="white"/>
<path d="M51.5448 181.659V183.891H47.1048V198.339H44.3688V183.891H39.9048V181.659H51.5448ZM53.4036 191.667C53.4036 190.339 53.6756 189.163 54.2196 188.139C54.7796 187.115 55.5316 186.323 56.4756 185.763C57.4356 185.187 58.4916 184.899 59.6436 184.899C60.6836 184.899 61.5876 185.107 62.3556 185.523C63.1396 185.923 63.7636 186.427 64.2276 187.035V185.115H66.9876V198.339H64.2276V196.371C63.7636 196.995 63.1316 197.515 62.3316 197.931C61.5316 198.347 60.6196 198.555 59.5956 198.555C58.4596 198.555 57.4196 198.267 56.4756 197.691C55.5316 197.099 54.7796 196.283 54.2196 195.243C53.6756 194.187 53.4036 192.995 53.4036 191.667ZM64.2276 191.715C64.2276 190.803 64.0356 190.011 63.6516 189.339C63.2836 188.667 62.7956 188.155 62.1876 187.803C61.5796 187.451 60.9236 187.275 60.2196 187.275C59.5156 187.275 58.8596 187.451 58.2516 187.803C57.6436 188.139 57.1476 188.643 56.7636 189.315C56.3956 189.971 56.2116 190.755 56.2116 191.667C56.2116 192.579 56.3956 193.379 56.7636 194.067C57.1476 194.755 57.6436 195.283 58.2516 195.651C58.8756 196.003 59.5316 196.179 60.2196 196.179C60.9236 196.179 61.5796 196.003 62.1876 195.651C62.7956 195.299 63.2836 194.787 63.6516 194.115C64.0356 193.427 64.2276 192.627 64.2276 191.715ZM71.9733 183.363C71.4773 183.363 71.0613 183.195 70.7253 182.859C70.3893 182.523 70.2213 182.107 70.2213 181.611C70.2213 181.115 70.3893 180.699 70.7253 180.363C71.0613 180.027 71.4773 179.859 71.9733 179.859C72.4533 179.859 72.8613 180.027 73.1973 180.363C73.5333 180.699 73.7013 181.115 73.7013 181.611C73.7013 182.107 73.5333 182.523 73.1973 182.859C72.8613 183.195 72.4533 183.363 71.9733 183.363ZM73.3173 185.115V198.339H70.5813V185.115H73.3173ZM79.6454 180.579V198.339H76.9094V180.579H79.6454ZM88.9735 198.555C87.7255 198.555 86.5975 198.275 85.5895 197.715C84.5815 197.139 83.7895 196.339 83.2135 195.315C82.6375 194.275 82.3495 193.075 82.3495 191.715C82.3495 190.371 82.6455 189.179 83.2375 188.139C83.8295 187.099 84.6375 186.299 85.6615 185.739C86.6855 185.179 87.8295 184.899 89.0935 184.899C90.3575 184.899 91.5015 185.179 92.5255 185.739C93.5495 186.299 94.3575 187.099 94.9495 188.139C95.5415 189.179 95.8375 190.371 95.8375 191.715C95.8375 193.059 95.5335 194.251 94.9255 195.291C94.3175 196.331 93.4855 197.139 92.4295 197.715C91.3895 198.275 90.2375 198.555 88.9735 198.555ZM88.9735 196.179C89.6775 196.179 90.3335 196.011 90.9415 195.675C91.5655 195.339 92.0695 194.835 92.4535 194.163C92.8375 193.491 93.0295 192.675 93.0295 191.715C93.0295 190.755 92.8455 189.947 92.4775 189.291C92.1095 188.619 91.6215 188.115 91.0135 187.779C90.4055 187.443 89.7495 187.275 89.0455 187.275C88.3415 187.275 87.6855 187.443 87.0775 187.779C86.4855 188.115 86.0135 188.619 85.6615 189.291C85.3095 189.947 85.1335 190.755 85.1335 191.715C85.1335 193.139 85.4935 194.243 86.2135 195.027C86.9495 195.795 87.8695 196.179 88.9735 196.179ZM101.278 187.035C101.678 186.363 102.206 185.843 102.862 185.475C103.534 185.091 104.326 184.899 105.238 184.899V187.731H104.542C103.47 187.731 102.654 188.003 102.094 188.547C101.55 189.091 101.278 190.035 101.278 191.379V198.339H98.5422V185.115H101.278V187.035ZM119.873 191.403C119.873 191.899 119.841 192.347 119.777 192.747H109.673C109.753 193.803 110.145 194.651 110.849 195.291C111.553 195.931 112.417 196.251 113.441 196.251C114.913 196.251 115.953 195.635 116.561 194.403H119.513C119.113 195.619 118.385 196.619 117.329 197.403C116.289 198.171 114.993 198.555 113.441 198.555C112.177 198.555 111.041 198.275 110.033 197.715C109.041 197.139 108.257 196.339 107.681 195.315C107.121 194.275 106.841 193.075 106.841 191.715C106.841 190.355 107.113 189.163 107.657 188.139C108.217 187.099 108.993 186.299 109.985 185.739C110.993 185.179 112.145 184.899 113.441 184.899C114.689 184.899 115.801 185.171 116.777 185.715C117.753 186.259 118.513 187.027 119.057 188.019C119.601 188.995 119.873 190.123 119.873 191.403ZM117.017 190.539C117.001 189.531 116.641 188.723 115.937 188.115C115.233 187.507 114.361 187.203 113.321 187.203C112.377 187.203 111.569 187.507 110.897 188.115C110.225 188.707 109.825 189.515 109.697 190.539H117.017ZM121.654 191.667C121.654 190.339 121.926 189.163 122.47 188.139C123.03 187.115 123.782 186.323 124.726 185.763C125.686 185.187 126.75 184.899 127.918 184.899C128.782 184.899 129.63 185.091 130.462 185.475C131.31 185.843 131.982 186.339 132.478 186.963V180.579H135.238V198.339H132.478V196.347C132.03 196.987 131.406 197.515 130.606 197.931C129.822 198.347 128.918 198.555 127.894 198.555C126.742 198.555 125.686 198.267 124.726 197.691C123.782 197.099 123.03 196.283 122.47 195.243C121.926 194.187 121.654 192.995 121.654 191.667ZM132.478 191.715C132.478 190.803 132.286 190.011 131.902 189.339C131.534 188.667 131.046 188.155 130.438 187.803C129.83 187.451 129.174 187.275 128.47 187.275C127.766 187.275 127.11 187.451 126.502 187.803C125.894 188.139 125.398 188.643 125.014 189.315C124.646 189.971 124.462 190.755 124.462 191.667C124.462 192.579 124.646 193.379 125.014 194.067C125.398 194.755 125.894 195.283 126.502 195.651C127.126 196.003 127.782 196.179 128.47 196.179C129.174 196.179 129.83 196.003 130.438 195.651C131.046 195.299 131.534 194.787 131.902 194.115C132.286 193.427 132.478 192.627 132.478 191.715ZM35.9146 224.339L33.8506 222.275C33.0506 223.075 32.1786 223.675 31.2346 224.075C30.2906 224.459 29.2346 224.651 28.0666 224.651C26.8826 224.651 25.8346 224.443 24.9226 224.027C24.0106 223.611 23.3066 223.019 22.8106 222.251C22.3146 221.467 22.0666 220.563 22.0666 219.539C22.0666 218.387 22.3946 217.363 23.0506 216.467C23.7066 215.555 24.6826 214.835 25.9786 214.307C25.5146 213.747 25.1866 213.227 24.9946 212.747C24.8026 212.251 24.7066 211.707 24.7066 211.115C24.7066 210.379 24.8906 209.723 25.2586 209.147C25.6426 208.571 26.1866 208.115 26.8906 207.779C27.5946 207.443 28.4106 207.275 29.3386 207.275C30.2826 207.275 31.0826 207.459 31.7386 207.827C32.4106 208.179 32.9066 208.667 33.2266 209.291C33.5626 209.915 33.6986 210.611 33.6346 211.379H30.8986C30.9146 210.787 30.7706 210.331 30.4666 210.011C30.1626 209.675 29.7466 209.507 29.2186 209.507C28.6906 209.507 28.2586 209.667 27.9226 209.987C27.6026 210.291 27.4426 210.667 27.4426 211.115C27.4426 211.547 27.5626 211.979 27.8026 212.411C28.0586 212.827 28.4986 213.371 29.1226 214.043L33.5386 218.435L35.2426 215.627H38.1946L36.0346 219.323L35.4346 220.307L39.4906 224.339H35.9146ZM28.0666 222.323C29.5706 222.323 30.8986 221.707 32.0506 220.475L27.6346 216.035C25.7466 216.787 24.8026 217.923 24.8026 219.443C24.8026 220.259 25.1066 220.947 25.7146 221.507C26.3226 222.051 27.1066 222.323 28.0666 222.323ZM59.1828 212.627C59.1828 213.475 58.9828 214.275 58.5828 215.027C58.1828 215.779 57.5428 216.395 56.6628 216.875C55.7828 217.339 54.6548 217.571 53.2788 217.571H50.2548V224.339H47.5188V207.659H53.2788C54.5588 207.659 55.6388 207.883 56.5188 208.331C57.4148 208.763 58.0788 209.355 58.5108 210.107C58.9588 210.859 59.1828 211.699 59.1828 212.627ZM53.2788 215.339C54.3188 215.339 55.0948 215.107 55.6068 214.643C56.1188 214.163 56.3748 213.491 56.3748 212.627C56.3748 210.803 55.3428 209.891 53.2788 209.891H50.2548V215.339H53.2788ZM64.5282 213.035C64.9282 212.363 65.4562 211.843 66.1122 211.475C66.7842 211.091 67.5762 210.899 68.4882 210.899V213.731H67.7922C66.7202 213.731 65.9042 214.003 65.3442 214.547C64.8002 215.091 64.5282 216.035 64.5282 217.379V224.339H61.7922V211.115H64.5282V213.035ZM83.1231 217.403C83.1231 217.899 83.0911 218.347 83.0271 218.747H72.9231C73.0031 219.803 73.3951 220.651 74.0991 221.291C74.8031 221.931 75.6671 222.251 76.6911 222.251C78.1631 222.251 79.2031 221.635 79.8111 220.403H82.7631C82.3631 221.619 81.6351 222.619 80.5791 223.403C79.5391 224.171 78.2431 224.555 76.6911 224.555C75.4271 224.555 74.2911 224.275 73.2831 223.715C72.2911 223.139 71.5071 222.339 70.9311 221.315C70.3711 220.275 70.0911 219.075 70.0911 217.715C70.0911 216.355 70.3631 215.163 70.9071 214.139C71.4671 213.099 72.2431 212.299 73.2351 211.739C74.2431 211.179 75.3951 210.899 76.6911 210.899C77.9391 210.899 79.0511 211.171 80.0271 211.715C81.0031 212.259 81.7631 213.027 82.3071 214.019C82.8511 214.995 83.1231 216.123 83.1231 217.403ZM80.2671 216.539C80.2511 215.531 79.8911 214.723 79.1871 214.115C78.4831 213.507 77.6111 213.203 76.5711 213.203C75.6271 213.203 74.8191 213.507 74.1471 214.115C73.4751 214.707 73.0751 215.515 72.9471 216.539H80.2671ZM84.9036 217.715C84.9036 216.355 85.1756 215.163 85.7196 214.139C86.2796 213.099 87.0476 212.299 88.0236 211.739C88.9996 211.179 90.1196 210.899 91.3836 210.899C92.9836 210.899 94.3036 211.283 95.3436 212.051C96.3996 212.803 97.1116 213.883 97.4796 215.291H94.5276C94.2876 214.635 93.9036 214.123 93.3756 213.755C92.8476 213.387 92.1836 213.203 91.3836 213.203C90.2636 213.203 89.3676 213.603 88.6956 214.403C88.0396 215.187 87.7116 216.291 87.7116 217.715C87.7116 219.139 88.0396 220.251 88.6956 221.051C89.3676 221.851 90.2636 222.251 91.3836 222.251C92.9676 222.251 94.0156 221.555 94.5276 220.163H97.4796C97.0956 221.507 96.3756 222.579 95.3196 223.379C94.2636 224.163 92.9516 224.555 91.3836 224.555C90.1196 224.555 88.9996 224.275 88.0236 223.715C87.0476 223.139 86.2796 222.339 85.7196 221.315C85.1756 220.275 84.9036 219.075 84.9036 217.715ZM101.598 209.363C101.102 209.363 100.686 209.195 100.35 208.859C100.014 208.523 99.8463 208.107 99.8463 207.611C99.8463 207.115 100.014 206.699 100.35 206.363C100.686 206.027 101.102 205.859 101.598 205.859C102.078 205.859 102.486 206.027 102.822 206.363C103.158 206.699 103.326 207.115 103.326 207.611C103.326 208.107 103.158 208.523 102.822 208.859C102.486 209.195 102.078 209.363 101.598 209.363ZM102.942 211.115V224.339H100.206V211.115H102.942ZM111.334 224.555C110.294 224.555 109.358 224.371 108.526 224.003C107.71 223.619 107.062 223.107 106.582 222.467C106.102 221.811 105.846 221.083 105.814 220.283H108.646C108.694 220.843 108.958 221.315 109.438 221.699C109.934 222.067 110.55 222.251 111.286 222.251C112.054 222.251 112.646 222.107 113.062 221.819C113.494 221.515 113.71 221.131 113.71 220.667C113.71 220.171 113.47 219.803 112.99 219.563C112.526 219.323 111.782 219.059 110.758 218.771C109.766 218.499 108.958 218.235 108.334 217.979C107.71 217.723 107.166 217.331 106.702 216.803C106.254 216.275 106.03 215.579 106.03 214.715C106.03 214.011 106.238 213.371 106.654 212.795C107.07 212.203 107.662 211.739 108.43 211.403C109.214 211.067 110.11 210.899 111.118 210.899C112.622 210.899 113.83 211.283 114.742 212.051C115.67 212.803 116.166 213.835 116.23 215.147H113.494C113.446 214.555 113.206 214.083 112.774 213.731C112.342 213.379 111.758 213.203 111.022 213.203C110.302 213.203 109.75 213.339 109.366 213.611C108.982 213.883 108.79 214.243 108.79 214.691C108.79 215.043 108.918 215.339 109.174 215.579C109.43 215.819 109.742 216.011 110.11 216.155C110.478 216.283 111.022 216.451 111.742 216.659C112.702 216.915 113.486 217.179 114.094 217.451C114.718 217.707 115.254 218.091 115.702 218.603C116.15 219.115 116.382 219.795 116.398 220.643C116.398 221.395 116.19 222.067 115.774 222.659C115.358 223.251 114.766 223.715 113.998 224.051C113.246 224.387 112.358 224.555 111.334 224.555ZM120.747 209.363C120.251 209.363 119.835 209.195 119.499 208.859C119.163 208.523 118.995 208.107 118.995 207.611C118.995 207.115 119.163 206.699 119.499 206.363C119.835 206.027 120.251 205.859 120.747 205.859C121.227 205.859 121.635 206.027 121.971 206.363C122.307 206.699 122.475 207.115 122.475 207.611C122.475 208.107 122.307 208.523 121.971 208.859C121.635 209.195 121.227 209.363 120.747 209.363ZM122.091 211.115V224.339H119.355V211.115H122.091ZM131.419 224.555C130.171 224.555 129.043 224.275 128.035 223.715C127.027 223.139 126.235 222.339 125.659 221.315C125.083 220.275 124.795 219.075 124.795 217.715C124.795 216.371 125.091 215.179 125.683 214.139C126.275 213.099 127.083 212.299 128.107 211.739C129.131 211.179 130.275 210.899 131.539 210.899C132.803 210.899 133.947 211.179 134.971 211.739C135.995 212.299 136.803 213.099 137.395 214.139C137.987 215.179 138.283 216.371 138.283 217.715C138.283 219.059 137.979 220.251 137.371 221.291C136.763 222.331 135.931 223.139 134.875 223.715C133.835 224.275 132.683 224.555 131.419 224.555ZM131.419 222.179C132.123 222.179 132.779 222.011 133.387 221.675C134.011 221.339 134.515 220.835 134.899 220.163C135.283 219.491 135.475 218.675 135.475 217.715C135.475 216.755 135.291 215.947 134.923 215.291C134.555 214.619 134.067 214.115 133.459 213.779C132.851 213.443 132.195 213.275 131.491 213.275C130.787 213.275 130.131 213.443 129.523 213.779C128.931 214.115 128.459 214.619 128.107 215.291C127.755 215.947 127.579 216.755 127.579 217.715C127.579 219.139 127.939 220.243 128.659 221.027C129.395 221.795 130.315 222.179 131.419 222.179ZM147.66 210.899C148.7 210.899 149.628 211.115 150.444 211.547C151.276 211.979 151.924 212.619 152.388 213.467C152.852 214.315 153.084 215.339 153.084 216.539V224.339H150.372V216.947C150.372 215.763 150.076 214.859 149.484 214.235C148.892 213.595 148.084 213.275 147.06 213.275C146.036 213.275 145.22 213.595 144.612 214.235C144.02 214.859 143.724 215.763 143.724 216.947V224.339H140.988V211.115H143.724V212.627C144.172 212.083 144.74 211.659 145.428 211.355C146.132 211.051 146.876 210.899 147.66 210.899Z" fill="white"/>
<path d="M88 241.66C89.1046 241.66 90 240.693 90 239.5C90 238.307 89.1046 237.339 88 237.339C86.8954 237.339 86 238.307 86 239.5C86 240.693 86.8954 241.66 88 241.66Z" fill="white"/>
<path d="M31.778 254.211V253.217H34.55V251.481H35.67V253.217H38.386V254.211H35.67V254.659C35.67 256.675 37.042 257.921 38.596 258.509V259.517C37.014 259.027 35.642 257.963 35.124 256.871C34.62 258.005 33.304 259.139 31.61 259.671V258.649C33.206 258.061 34.55 256.689 34.55 254.659V254.211H31.778ZM41.718 264.403H40.584V262.863C39.884 263.479 38.582 263.675 36.986 263.675H31.358V262.695H34.578V259.489H35.698V262.695H37.392C38.624 262.695 39.828 262.527 40.584 261.897V251.873H41.718V264.403ZM45.1054 252.013H51.4614V252.993H48.8434V254.043C48.8434 256.157 50.1734 257.263 51.6854 257.599V258.621C50.1734 258.299 48.8854 257.389 48.3114 256.227C47.7374 257.431 46.4494 258.495 44.8954 258.789V257.767C46.4494 257.431 47.7234 256.185 47.7234 254.043V252.993H45.1054V252.013ZM55.1994 259.055H54.0794V255.625H51.2654V254.659H54.0794V251.873H55.1994V259.055ZM54.0794 264.613V261.113H45.7354V260.133H55.1994V264.613H54.0794ZM58.6849 255.807C58.6849 254.463 59.0769 253.399 59.8469 252.727C60.3929 252.223 61.1909 251.943 62.0869 251.943C62.9829 251.943 63.7669 252.223 64.3269 252.727C65.0969 253.399 65.4889 254.463 65.4889 255.807C65.4889 257.137 65.0969 258.201 64.3269 258.887C63.7669 259.391 62.9829 259.657 62.0869 259.657C61.1909 259.657 60.3929 259.391 59.8469 258.887C59.0769 258.201 58.6849 257.137 58.6849 255.807ZM59.8189 255.807C59.8189 256.815 60.0569 257.655 60.5749 258.145C60.9529 258.495 61.4569 258.677 62.0869 258.677C62.7029 258.677 63.2209 258.495 63.5849 258.145C64.1169 257.655 64.3689 256.815 64.3689 255.807C64.3689 254.799 64.1169 253.959 63.5849 253.469C63.2209 253.105 62.7029 252.937 62.0869 252.937C61.4569 252.937 60.9529 253.105 60.5749 253.469C60.0569 253.959 59.8189 254.799 59.8189 255.807ZM68.5969 264.403H67.4629V262.863C66.7629 263.479 65.4609 263.675 63.8649 263.675H58.2369V262.695H64.2709C65.5029 262.695 66.7069 262.527 67.4629 261.897V251.873H68.5969V264.403ZM79.6845 251.943V253.021C79.6845 255.093 81.0845 256.227 82.6525 256.675V257.683C81.0565 257.319 79.6845 256.297 79.1105 255.191C78.5925 256.367 77.2205 257.431 75.5685 257.823V256.829C77.1785 256.353 78.5505 255.065 78.5505 253.021V251.943H79.6845ZM86.1525 257.921H85.0325V254.855H82.0785V253.875H85.0325V251.873H86.1525V257.921ZM77.9765 262.163V263.633H86.3205V264.543H76.8425V261.239H85.0325V259.783H76.8425V258.859H86.1525V262.163H77.9765ZM92.872 255.849V253.077H89.54V252.097H93.992V254.939H95.924V251.943H97.016V264.263H95.924V260.231H93.726V259.251H95.924V255.933H93.992C93.964 259.979 92.494 262.681 89.372 263.619V262.527C91.57 261.771 92.872 259.503 92.872 255.849ZM99.732 264.389H98.64V251.873H99.732V264.389ZM104.491 254.771V255.877H113.031V256.731H103.371V253.931H111.827V252.881H103.371V252.013H112.947V254.771H104.491ZM102.517 258.733V257.823H113.801V258.733H102.517ZM104.491 262.583V263.717H113.255V264.543H103.371V261.771H111.827V260.693H103.371V259.853H112.947V262.583H104.491ZM122.005 255.107V256.395H130.545V257.291H126.219V258.593H131.315V259.517H120.031V258.593H125.085V257.291H120.885V252.013H130.461V252.937H122.005V254.211H130.307V255.107H122.005ZM120.633 262.723C120.633 262.079 121.011 261.631 121.655 261.309C122.523 260.861 123.937 260.665 125.687 260.665C127.437 260.665 128.851 260.861 129.719 261.309C130.363 261.631 130.741 262.079 130.741 262.723C130.741 263.367 130.363 263.843 129.719 264.151C128.851 264.599 127.437 264.781 125.687 264.781C123.937 264.781 122.523 264.599 121.655 264.151C121.011 263.843 120.633 263.367 120.633 262.723ZM121.767 262.723C121.767 263.003 121.935 263.213 122.229 263.367C122.859 263.717 124.077 263.871 125.687 263.871C127.311 263.871 128.501 263.717 129.131 263.367C129.453 263.213 129.607 263.003 129.607 262.723C129.607 262.471 129.453 262.247 129.131 262.079C128.501 261.743 127.311 261.589 125.687 261.589C124.077 261.589 122.859 261.743 122.229 262.079C121.935 262.247 121.767 262.471 121.767 262.723ZM133.275 253.889V252.965H136.299V251.481H137.405V252.965H140.387V253.889H133.275ZM134.759 257.445C134.759 257.893 134.955 258.243 135.277 258.523C135.669 258.831 136.215 258.999 136.831 258.999C137.447 258.999 138.007 258.831 138.399 258.523C138.721 258.243 138.917 257.893 138.917 257.445C138.917 256.997 138.721 256.633 138.399 256.367C138.007 256.045 137.447 255.877 136.831 255.877C136.215 255.877 135.669 256.045 135.277 256.367C134.955 256.633 134.759 256.997 134.759 257.445ZM133.667 257.445C133.667 256.689 133.989 256.059 134.549 255.639C135.109 255.205 135.921 254.967 136.831 254.967C137.755 254.967 138.553 255.205 139.127 255.639C139.687 256.059 140.009 256.689 140.009 257.445C140.009 258.187 139.687 258.817 139.127 259.237C138.553 259.671 137.755 259.909 136.831 259.909C135.921 259.909 135.109 259.671 134.549 259.237C133.989 258.817 133.667 258.187 133.667 257.445ZM143.635 251.873V255.569H145.553V256.563H143.635V260.973H142.515V251.873H143.635ZM135.571 260.875V263.493H143.873V264.459H134.451V260.875H135.571ZM53.8623 270.013H60.2183V270.993H57.6003V271.889C57.6003 274.003 58.9303 275.109 60.4423 275.459V276.467C58.9303 276.145 57.6423 275.249 57.0683 274.073C56.4943 275.277 55.2063 276.341 53.6523 276.635V275.627C55.2063 275.277 56.4803 274.031 56.4803 271.889V270.993H53.8623V270.013ZM63.9563 276.999H62.8363V273.583H60.0223V272.603H62.8363V269.873H63.9563V276.999ZM59.3363 282.711C57.8103 282.711 56.3963 282.501 55.4863 281.899C54.8423 281.493 54.4503 280.905 54.4503 280.121C54.4503 279.337 54.8423 278.749 55.4863 278.329C56.3963 277.741 57.8103 277.503 59.3363 277.503C60.8623 277.503 62.2903 277.741 63.2003 278.329C63.8303 278.749 64.2363 279.337 64.2363 280.121C64.2363 280.905 63.8303 281.493 63.2003 281.899C62.2903 282.501 60.8623 282.711 59.3363 282.711ZM59.3363 278.483C58.0343 278.483 56.8583 278.679 56.1723 279.113C55.8083 279.365 55.5843 279.701 55.5843 280.121C55.5843 280.527 55.8083 280.863 56.1723 281.115C56.8583 281.549 58.0343 281.745 59.3363 281.745C60.6383 281.745 61.8283 281.549 62.5003 281.115C62.8923 280.863 63.1163 280.527 63.1163 280.121C63.1163 279.701 62.8923 279.365 62.5003 279.113C61.8283 278.679 60.6383 278.483 59.3363 278.483ZM67.3017 275.361V270.013H73.2937V275.361H67.3017ZM72.1877 270.965H68.4077V274.437H72.1877V270.965ZM77.3957 275.851H76.2757V269.873H77.3957V275.851ZM69.2197 280.163V281.633H77.5637V282.543H68.0857V279.239H76.2757V277.783H68.0857V276.859H77.3957V280.163H69.2197ZM80.1252 271.889V270.965H83.1492V269.481H84.2552V270.965H87.2372V271.889H80.1252ZM81.6092 275.445C81.6092 275.893 81.8052 276.243 82.1272 276.523C82.5192 276.831 83.0652 276.999 83.6812 276.999C84.2972 276.999 84.8572 276.831 85.2492 276.523C85.5712 276.243 85.7672 275.893 85.7672 275.445C85.7672 274.997 85.5712 274.633 85.2492 274.367C84.8572 274.045 84.2972 273.877 83.6812 273.877C83.0652 273.877 82.5192 274.045 82.1272 274.367C81.8052 274.633 81.6092 274.997 81.6092 275.445ZM80.5172 275.445C80.5172 274.689 80.8392 274.059 81.3992 273.639C81.9592 273.205 82.7712 272.967 83.6812 272.967C84.6052 272.967 85.4032 273.205 85.9772 273.639C86.5372 274.059 86.8592 274.689 86.8592 275.445C86.8592 276.187 86.5372 276.817 85.9772 277.237C85.4032 277.671 84.6052 277.909 83.6812 277.909C82.7712 277.909 81.9592 277.671 81.3992 277.237C80.8392 276.817 80.5172 276.187 80.5172 275.445ZM90.4852 269.873V273.569H92.4032V274.563H90.4852V278.973H89.3652V269.873H90.4852ZM82.4212 278.875V281.493H90.7232V282.459H81.3012V278.875H82.4212ZM101.391 277.923C100.929 279.575 99.4588 280.919 97.7648 281.535V280.499C99.3468 279.785 100.831 278.371 100.831 274.913V270.013H101.951V274.913C101.951 278.371 103.449 279.743 105.003 280.499V281.535C103.337 280.891 101.881 279.561 101.391 277.923ZM108.307 269.873V282.389H107.173V269.873H108.307ZM116.888 271.777C116.062 272.911 114.004 273.681 111.624 273.919V272.939C114.004 272.701 116.328 271.777 116.328 270.139V269.943H117.462V270.139C117.462 271.777 119.716 272.687 122.18 272.939V273.919C119.744 273.681 117.714 272.897 116.888 271.777ZM111.274 275.851V274.885H122.558V275.851H117.462V277.265H121.704V280.373H113.248V281.633H122.012V282.543H112.128V279.449H120.584V278.175H112.128V277.265H116.342V275.851H111.274Z" fill="white"/>
<rect x="167.5" y="144" width="175" height="175" rx="87.5" stroke="white"/>
<path d="M218.355 198.339L214.515 191.667H212.427V198.339H209.691V181.659H215.451C216.731 181.659 217.811 181.883 218.691 182.331C219.587 182.779 220.251 183.379 220.683 184.131C221.131 184.883 221.355 185.723 221.355 186.651C221.355 187.739 221.035 188.731 220.395 189.627C219.771 190.507 218.803 191.107 217.491 191.427L221.619 198.339H218.355ZM212.427 189.483H215.451C216.475 189.483 217.243 189.227 217.755 188.715C218.283 188.203 218.547 187.515 218.547 186.651C218.547 185.787 218.291 185.115 217.779 184.635C217.267 184.139 216.491 183.891 215.451 183.891H212.427V189.483ZM236.975 191.403C236.975 191.899 236.943 192.347 236.879 192.747H226.775C226.855 193.803 227.247 194.651 227.951 195.291C228.655 195.931 229.519 196.251 230.543 196.251C232.015 196.251 233.055 195.635 233.663 194.403H236.615C236.215 195.619 235.487 196.619 234.431 197.403C233.391 198.171 232.095 198.555 230.543 198.555C229.279 198.555 228.143 198.275 227.135 197.715C226.143 197.139 225.359 196.339 224.783 195.315C224.223 194.275 223.943 193.075 223.943 191.715C223.943 190.355 224.215 189.163 224.759 188.139C225.319 187.099 226.095 186.299 227.087 185.739C228.095 185.179 229.247 184.899 230.543 184.899C231.791 184.899 232.903 185.171 233.879 185.715C234.855 186.259 235.615 187.027 236.159 188.019C236.703 188.995 236.975 190.123 236.975 191.403ZM234.119 190.539C234.103 189.531 233.743 188.723 233.039 188.115C232.335 187.507 231.463 187.203 230.423 187.203C229.479 187.203 228.671 187.507 227.999 188.115C227.327 188.707 226.927 189.515 226.799 190.539H234.119ZM249.819 188.499V190.803H239.955V188.499H249.819ZM260.378 184.899C261.418 184.899 262.346 185.115 263.162 185.547C263.994 185.979 264.642 186.619 265.106 187.467C265.57 188.315 265.802 189.339 265.802 190.539V198.339H263.09V190.947C263.09 189.763 262.794 188.859 262.202 188.235C261.61 187.595 260.802 187.275 259.778 187.275C258.754 187.275 257.938 187.595 257.33 188.235C256.738 188.859 256.442 189.763 256.442 190.947V198.339H253.706V185.115H256.442V186.627C256.89 186.083 257.458 185.659 258.146 185.355C258.85 185.051 259.594 184.899 260.378 184.899ZM281.412 191.403C281.412 191.899 281.38 192.347 281.316 192.747H271.212C271.292 193.803 271.684 194.651 272.388 195.291C273.092 195.931 273.956 196.251 274.98 196.251C276.452 196.251 277.492 195.635 278.1 194.403H281.052C280.652 195.619 279.924 196.619 278.868 197.403C277.828 198.171 276.532 198.555 274.98 198.555C273.716 198.555 272.58 198.275 271.572 197.715C270.58 197.139 269.796 196.339 269.22 195.315C268.66 194.275 268.38 193.075 268.38 191.715C268.38 190.355 268.652 189.163 269.196 188.139C269.756 187.099 270.532 186.299 271.524 185.739C272.532 185.179 273.684 184.899 274.98 184.899C276.228 184.899 277.34 185.171 278.316 185.715C279.292 186.259 280.052 187.027 280.596 188.019C281.14 188.995 281.412 190.123 281.412 191.403ZM278.556 190.539C278.54 189.531 278.18 188.723 277.476 188.115C276.772 187.507 275.9 187.203 274.86 187.203C273.916 187.203 273.108 187.507 272.436 188.115C271.764 188.707 271.364 189.515 271.236 190.539H278.556ZM301.865 185.115L297.761 198.339H294.881L292.217 188.571L289.553 198.339H286.673L282.545 185.115H285.329L288.089 195.747L290.897 185.115H293.753L296.441 195.699L299.177 185.115H301.865ZM207.942 224.339L205.878 222.275C205.078 223.075 204.206 223.675 203.262 224.075C202.318 224.459 201.262 224.651 200.094 224.651C198.91 224.651 197.862 224.443 196.95 224.027C196.038 223.611 195.334 223.019 194.838 222.251C194.342 221.467 194.094 220.563 194.094 219.539C194.094 218.387 194.422 217.363 195.078 216.467C195.734 215.555 196.71 214.835 198.006 214.307C197.542 213.747 197.214 213.227 197.022 212.747C196.83 212.251 196.734 211.707 196.734 211.115C196.734 210.379 196.918 209.723 197.286 209.147C197.67 208.571 198.214 208.115 198.918 207.779C199.622 207.443 200.438 207.275 201.366 207.275C202.31 207.275 203.11 207.459 203.766 207.827C204.438 208.179 204.934 208.667 205.254 209.291C205.59 209.915 205.726 210.611 205.662 211.379H202.926C202.942 210.787 202.798 210.331 202.494 210.011C202.19 209.675 201.774 209.507 201.246 209.507C200.718 209.507 200.286 209.667 199.95 209.987C199.63 210.291 199.47 210.667 199.47 211.115C199.47 211.547 199.59 211.979 199.83 212.411C200.086 212.827 200.526 213.371 201.15 214.043L205.566 218.435L207.27 215.627H210.222L208.062 219.323L207.462 220.307L211.518 224.339H207.942ZM200.094 222.323C201.598 222.323 202.926 221.707 204.078 220.475L199.662 216.035C197.774 216.787 196.83 217.923 196.83 219.443C196.83 220.259 197.134 220.947 197.742 221.507C198.35 222.051 199.134 222.323 200.094 222.323ZM218.634 217.715C218.634 216.355 218.906 215.163 219.45 214.139C220.01 213.099 220.778 212.299 221.754 211.739C222.73 211.179 223.85 210.899 225.114 210.899C226.714 210.899 228.034 211.283 229.074 212.051C230.13 212.803 230.842 213.883 231.21 215.291H228.258C228.018 214.635 227.634 214.123 227.106 213.755C226.578 213.387 225.914 213.203 225.114 213.203C223.994 213.203 223.098 213.603 222.426 214.403C221.77 215.187 221.442 216.291 221.442 217.715C221.442 219.139 221.77 220.251 222.426 221.051C223.098 221.851 223.994 222.251 225.114 222.251C226.698 222.251 227.746 221.555 228.258 220.163H231.21C230.826 221.507 230.106 222.579 229.05 223.379C227.994 224.163 226.682 224.555 225.114 224.555C223.85 224.555 222.73 224.275 221.754 223.715C220.778 223.139 220.01 222.339 219.45 221.315C218.906 220.275 218.634 219.075 218.634 217.715ZM239.673 224.555C238.425 224.555 237.297 224.275 236.289 223.715C235.281 223.139 234.489 222.339 233.913 221.315C233.337 220.275 233.049 219.075 233.049 217.715C233.049 216.371 233.345 215.179 233.937 214.139C234.529 213.099 235.337 212.299 236.361 211.739C237.385 211.179 238.529 210.899 239.793 210.899C241.057 210.899 242.201 211.179 243.225 211.739C244.249 212.299 245.057 213.099 245.649 214.139C246.241 215.179 246.537 216.371 246.537 217.715C246.537 219.059 246.233 220.251 245.625 221.291C245.017 222.331 244.185 223.139 243.129 223.715C242.089 224.275 240.937 224.555 239.673 224.555ZM239.673 222.179C240.377 222.179 241.033 222.011 241.641 221.675C242.265 221.339 242.769 220.835 243.153 220.163C243.537 219.491 243.729 218.675 243.729 217.715C243.729 216.755 243.545 215.947 243.177 215.291C242.809 214.619 242.321 214.115 241.713 213.779C241.105 213.443 240.449 213.275 239.745 213.275C239.041 213.275 238.385 213.443 237.777 213.779C237.185 214.115 236.713 214.619 236.361 215.291C236.009 215.947 235.833 216.755 235.833 217.715C235.833 219.139 236.193 220.243 236.913 221.027C237.649 221.795 238.569 222.179 239.673 222.179ZM255.913 210.899C256.953 210.899 257.881 211.115 258.697 211.547C259.529 211.979 260.177 212.619 260.641 213.467C261.105 214.315 261.337 215.339 261.337 216.539V224.339H258.625V216.947C258.625 215.763 258.329 214.859 257.737 214.235C257.145 213.595 256.337 213.275 255.313 213.275C254.289 213.275 253.473 213.595 252.865 214.235C252.273 214.859 251.977 215.763 251.977 216.947V224.339H249.241V211.115H251.977V212.627C252.425 212.083 252.993 211.659 253.681 211.355C254.385 211.051 255.129 210.899 255.913 210.899ZM271.499 210.899C272.539 210.899 273.467 211.115 274.283 211.547C275.115 211.979 275.763 212.619 276.227 213.467C276.691 214.315 276.923 215.339 276.923 216.539V224.339H274.211V216.947C274.211 215.763 273.915 214.859 273.323 214.235C272.731 213.595 271.923 213.275 270.899 213.275C269.875 213.275 269.059 213.595 268.451 214.235C267.859 214.859 267.563 215.763 267.563 216.947V224.339H264.827V211.115H267.563V212.627C268.011 212.083 268.579 211.659 269.267 211.355C269.971 211.051 270.715 210.899 271.499 210.899ZM292.533 217.403C292.533 217.899 292.501 218.347 292.437 218.747H282.333C282.413 219.803 282.805 220.651 283.509 221.291C284.213 221.931 285.077 222.251 286.101 222.251C287.573 222.251 288.613 221.635 289.221 220.403H292.173C291.773 221.619 291.045 222.619 289.989 223.403C288.949 224.171 287.653 224.555 286.101 224.555C284.837 224.555 283.701 224.275 282.693 223.715C281.701 223.139 280.917 222.339 280.341 221.315C279.781 220.275 279.501 219.075 279.501 217.715C279.501 216.355 279.773 215.163 280.317 214.139C280.877 213.099 281.653 212.299 282.645 211.739C283.653 211.179 284.805 210.899 286.101 210.899C287.349 210.899 288.461 211.171 289.437 211.715C290.413 212.259 291.173 213.027 291.717 214.019C292.261 214.995 292.533 216.123 292.533 217.403ZM289.677 216.539C289.661 215.531 289.301 214.723 288.597 214.115C287.893 213.507 287.021 213.203 285.981 213.203C285.037 213.203 284.229 213.507 283.557 214.115C282.885 214.707 282.485 215.515 282.357 216.539H289.677ZM294.314 217.715C294.314 216.355 294.586 215.163 295.13 214.139C295.69 213.099 296.458 212.299 297.434 211.739C298.41 211.179 299.53 210.899 300.794 210.899C302.394 210.899 303.714 211.283 304.754 212.051C305.81 212.803 306.522 213.883 306.89 215.291H303.938C303.698 214.635 303.314 214.123 302.786 213.755C302.258 213.387 301.594 213.203 300.794 213.203C299.674 213.203 298.778 213.603 298.106 214.403C297.45 215.187 297.122 216.291 297.122 217.715C297.122 219.139 297.45 220.251 298.106 221.051C298.778 221.851 299.674 222.251 300.794 222.251C302.378 222.251 303.426 221.555 303.938 220.163H306.89C306.506 221.507 305.786 222.579 304.73 223.379C303.674 224.163 302.362 224.555 300.794 224.555C299.53 224.555 298.41 224.275 297.434 223.715C296.458 223.139 295.69 222.339 295.13 221.315C294.586 220.275 294.314 219.075 294.314 217.715ZM312.808 213.347V220.667C312.808 221.163 312.92 221.523 313.144 221.747C313.384 221.955 313.784 222.059 314.344 222.059H316.024V224.339H313.864C312.632 224.339 311.688 224.051 311.032 223.475C310.376 222.899 310.048 221.963 310.048 220.667V213.347H308.488V211.115H310.048V207.827H312.808V211.115H316.024V213.347H312.808Z" fill="white"/>
<path d="M255 241.66C256.105 241.66 257 240.693 257 239.5C257 238.307 256.105 237.339 255 237.339C253.895 237.339 253 238.307 253 239.5C253 240.693 253.895 241.66 255 241.66Z" fill="white"/>
<path d="M226.266 263.521H220.862V252.097H226.77V253.077H221.982V262.555H226.448C227.736 262.555 228.842 262.219 229.486 261.603V251.873H230.606V257.137H232.65V258.117H230.606V264.403H229.486V262.541C228.884 263.171 227.652 263.521 226.266 263.521ZM237.438 259.923C236.976 261.575 235.506 262.919 233.812 263.535V262.499C235.394 261.785 236.878 260.371 236.878 256.913V252.013H237.998V256.913C237.998 260.371 239.496 261.743 241.05 262.499V263.535C239.384 262.891 237.928 261.561 237.438 259.923ZM244.354 251.873V264.389H243.22V251.873H244.354ZM251.647 253.035H254.265V251.481H255.385V253.035H258.017V254.015H255.385V254.183C255.385 256.269 256.729 257.417 258.241 257.753V258.775C256.729 258.439 255.441 257.543 254.853 256.381C254.279 257.571 252.991 258.635 251.437 258.943V257.921C252.991 257.571 254.265 256.297 254.265 254.183V254.015H251.647V253.035ZM261.559 251.873V254.869H263.477V255.849H261.559V258.999H260.439V251.873H261.559ZM256.939 262.709C256.155 263.857 254.279 264.515 251.997 264.543V263.577C254.335 263.563 256.379 262.695 256.379 261.239V260.973H252.375V260.007H261.559V260.973H257.499V261.239C257.499 262.695 259.557 263.549 261.923 263.577V264.543C259.585 264.487 257.695 263.815 256.939 262.709ZM270.407 257.795C270.407 255.667 270.197 254.141 269.581 253.413C269.259 253.049 268.825 252.853 268.307 252.853C267.775 252.853 267.341 253.049 267.047 253.413C266.417 254.141 266.221 255.667 266.221 257.795C266.221 259.909 266.417 261.449 267.047 262.191C267.341 262.555 267.775 262.737 268.307 262.737C268.825 262.737 269.259 262.555 269.581 262.191C270.197 261.449 270.407 259.909 270.407 257.795ZM265.101 257.795C265.101 255.443 265.367 253.707 266.221 252.755C266.711 252.181 267.439 251.873 268.307 251.873C269.189 251.873 269.903 252.181 270.407 252.755C271.247 253.707 271.513 255.443 271.513 257.795C271.513 260.133 271.247 261.869 270.407 262.835C269.903 263.423 269.189 263.689 268.307 263.689C267.439 263.689 266.711 263.423 266.221 262.835C265.367 261.869 265.101 260.133 265.101 257.795ZM274.999 251.873V257.137H277.043V258.117H274.999V264.403H273.879V251.873H274.999ZM282.152 258.551H278.61V251.943H279.702V257.571H282.404C283.44 257.571 284.238 257.375 284.826 256.969V251.943H285.89V255.121H287.892V251.873H288.984V260.623H287.892V256.101H285.89V260.371H284.826V257.921C284.266 258.341 283.412 258.551 282.152 258.551ZM289.222 264.459H279.562V260.357H280.682V263.493H289.222V264.459ZM213.975 272.743C213.975 271.749 214.381 270.993 215.025 270.475C215.585 270.027 216.355 269.789 217.223 269.789C218.091 269.789 218.861 270.027 219.421 270.475C220.065 270.993 220.471 271.749 220.471 272.743C220.471 273.723 220.065 274.493 219.421 275.011C218.861 275.459 218.091 275.697 217.223 275.697C216.355 275.697 215.585 275.459 215.025 275.011C214.381 274.493 213.975 273.723 213.975 272.743ZM215.067 272.743C215.067 273.387 215.305 273.891 215.711 274.241C216.089 274.577 216.607 274.745 217.223 274.745C217.825 274.745 218.357 274.577 218.735 274.241C219.127 273.891 219.365 273.387 219.365 272.743C219.365 272.099 219.127 271.595 218.735 271.245C218.357 270.923 217.825 270.741 217.223 270.741C216.607 270.741 216.089 270.923 215.711 271.245C215.305 271.595 215.067 272.099 215.067 272.743ZM224.237 275.851H223.117V269.873H224.237V275.851ZM216.061 280.163V281.633H224.405V282.543H214.927V279.239H223.117V277.783H214.927V276.859H224.237V280.163H216.061ZM231.054 269.943V271.581C231.054 273.737 232.426 274.955 234.036 275.459V276.467C232.398 276.033 231.068 275.025 230.48 273.863C229.99 275.053 228.66 276.159 226.952 276.621V275.599C228.59 275.081 229.934 273.681 229.934 271.581V269.943H231.054ZM237.326 269.873V272.785H239.244V273.779H237.326V276.999H236.206V269.873H237.326ZM227.974 280.121C227.974 279.393 228.324 278.819 228.912 278.413C229.78 277.797 231.166 277.503 232.818 277.503C234.47 277.503 235.856 277.797 236.71 278.413C237.298 278.819 237.648 279.393 237.648 280.121C237.648 280.849 237.298 281.423 236.71 281.843C235.856 282.445 234.47 282.711 232.818 282.711C231.166 282.711 229.78 282.445 228.912 281.843C228.324 281.423 227.974 280.849 227.974 280.121ZM229.108 280.121C229.108 280.513 229.318 280.863 229.71 281.129C230.312 281.549 231.404 281.745 232.818 281.745C234.218 281.745 235.31 281.549 235.94 281.129C236.318 280.863 236.514 280.513 236.514 280.121C236.514 279.715 236.318 279.365 235.94 279.113C235.31 278.693 234.218 278.483 232.818 278.483C231.404 278.483 230.312 278.693 229.71 279.113C229.318 279.365 229.108 279.715 229.108 280.121ZM241.161 273.807C241.161 272.463 241.553 271.399 242.323 270.727C242.869 270.223 243.667 269.943 244.563 269.943C245.459 269.943 246.243 270.223 246.803 270.727C247.573 271.399 247.965 272.463 247.965 273.807C247.965 275.137 247.573 276.201 246.803 276.887C246.243 277.391 245.459 277.657 244.563 277.657C243.667 277.657 242.869 277.391 242.323 276.887C241.553 276.201 241.161 275.137 241.161 273.807ZM242.295 273.807C242.295 274.815 242.533 275.655 243.051 276.145C243.429 276.495 243.933 276.677 244.563 276.677C245.179 276.677 245.697 276.495 246.061 276.145C246.593 275.655 246.845 274.815 246.845 273.807C246.845 272.799 246.593 271.959 246.061 271.469C245.697 271.105 245.179 270.937 244.563 270.937C243.933 270.937 243.429 271.105 243.051 271.469C242.533 271.959 242.295 272.799 242.295 273.807ZM251.073 282.403H249.939V280.863C249.239 281.479 247.937 281.675 246.341 281.675H240.713V280.695H246.747C247.979 280.695 249.183 280.527 249.939 279.897V269.873H251.073V282.403ZM260.089 273.205V274.563H268.629V275.487H258.969V270.013H268.545V270.951H260.089V272.295H268.391V273.205H260.089ZM258.115 277.839V276.873H269.399V277.839H258.115ZM267.425 282.613V280.205H258.871V279.267H268.545V282.613H267.425ZM273.081 271.861H276.819V270.013H277.925V271.217H280.949V269.873H282.069V276.103H280.949V274.563H277.925V275.697H271.975V270.013H273.081V271.861ZM277.925 272.141V273.625H280.949V272.141H277.925ZM276.819 274.773V272.785H273.081V274.773H276.819ZM273.893 280.233V281.633H282.237V282.543H272.759V279.323H280.949V277.923H272.759V277.013H282.069V280.233H273.893ZM284.798 271.735V270.811H287.822V269.481H288.928V270.811H291.91V271.735H284.798ZM286.282 274.885C286.282 275.235 286.422 275.515 286.66 275.725C287.038 276.075 287.668 276.243 288.354 276.243C289.054 276.243 289.684 276.075 290.048 275.725C290.286 275.515 290.44 275.235 290.44 274.885C290.44 274.535 290.286 274.255 290.048 274.045C289.684 273.709 289.054 273.527 288.354 273.527C287.668 273.527 287.038 273.709 286.66 274.045C286.422 274.255 286.282 274.535 286.282 274.885ZM285.19 274.885C285.19 274.241 285.456 273.723 285.918 273.345C286.492 272.883 287.36 272.631 288.354 272.631C289.362 272.631 290.23 272.883 290.804 273.345C291.266 273.723 291.532 274.241 291.532 274.885C291.532 275.529 291.266 276.061 290.804 276.425C290.23 276.887 289.362 277.153 288.354 277.153C287.36 277.153 286.492 276.887 285.918 276.425C285.456 276.061 285.19 275.529 285.19 274.885ZM295.158 269.873V273.079H297.076V274.059H295.158V277.349H294.038V269.873H295.158ZM285.974 282.543V278.357H295.158V282.543H285.974ZM294.038 279.337H287.094V281.577H294.038V279.337Z" fill="white"/>
</svg>
