<svg width="32" height="32" viewBox="0 0 32 32" fill="none" xmlns="http://www.w3.org/2000/svg">
<path d="M19.6979 15.4787C19.6979 12.6974 20.33 10.4851 21.5942 8.84164C22.9216 7.13498 24.5967 5.96559 26.6194 5.3335V8.84164C25.8609 9.34732 25.1339 10.0426 24.4386 10.9276C23.7433 11.8125 23.3957 13.2031 23.3957 15.0994V18.3231H26.6194V26.6668H19.6979V15.4787ZM5.38086 15.4787C5.38086 12.6974 6.01296 10.4851 7.27716 8.84164C8.60456 7.13498 10.2796 5.96559 12.3023 5.3335V8.84164C11.5438 9.34732 10.8169 10.0426 10.1216 10.9276C9.42629 11.8125 9.07864 13.2031 9.07864 15.0994V18.3231H12.3023V26.6668H5.38086V15.4787Z" fill="#1A1818"/>
</svg>
