<svg width="218" height="175" viewBox="0 0 218 175" fill="none" xmlns="http://www.w3.org/2000/svg">
<g clip-path="url(#clip0_460_14303)">
<path d="M179.636 101.826C178.005 111.179 178.23 120.605 180.33 129.939C180.912 132.496 181.718 135.053 182.525 137.517C184.044 142.277 185.62 147.187 185.62 152.525L185.188 161.448C185.151 162.213 185.432 162.941 185.957 163.501C186.482 164.061 187.195 164.379 187.964 164.379H188.002C189.54 164.379 190.796 163.147 190.815 161.616L190.928 152.544C190.928 147.019 189.333 142.016 187.777 137.181C186.989 134.736 186.182 132.197 185.601 129.603C183.594 120.717 183.331 111.664 184.813 102.704C184.944 101.938 184.719 101.154 184.213 100.576C183.707 99.9971 182.994 99.6611 182.225 99.6611C180.949 99.6611 179.861 100.576 179.636 101.826ZM183.707 102.536C182.206 111.645 182.469 120.848 184.532 129.939C185.113 132.515 185.92 135.053 186.726 137.536C188.246 142.296 189.821 147.205 189.821 152.544L189.709 161.597C189.709 162.512 188.939 163.259 188.02 163.259H188.002C187.533 163.259 187.12 163.072 186.801 162.736C186.482 162.4 186.314 161.952 186.351 161.504L186.783 152.563C186.783 147.037 185.188 142.035 183.631 137.2C182.844 134.755 182.037 132.235 181.456 129.64C179.393 120.531 179.168 111.253 180.781 102.05C180.912 101.322 181.531 100.8 182.262 100.8C182.694 100.8 183.125 100.986 183.406 101.322C183.688 101.658 183.819 102.106 183.744 102.554L183.707 102.536Z" fill="#221E1F"/>
<path d="M162.737 136.061C160.73 127.176 160.467 118.122 161.949 109.162C162.08 108.397 161.855 107.613 161.349 107.034C160.842 106.456 160.13 106.12 159.361 106.12C158.085 106.12 156.978 107.034 156.772 108.285C155.14 117.637 155.365 127.064 157.466 136.397C158.048 138.954 158.854 141.512 159.661 143.976C161.18 148.736 162.755 153.645 162.755 158.984L162.324 167.907C162.286 168.672 162.549 169.4 163.093 169.96C163.618 170.52 164.331 170.837 165.1 170.837H165.137C166.675 170.837 167.932 169.605 167.951 168.075L168.063 159.003C168.063 153.477 166.469 148.474 164.912 143.64C164.125 141.194 163.318 138.656 162.737 136.061ZM166.825 168.037C166.825 168.952 166.056 169.699 165.137 169.699H165.119C164.65 169.699 164.218 169.512 163.918 169.176C163.599 168.84 163.431 168.392 163.468 167.944L163.9 159.003C163.9 153.477 162.305 148.474 160.748 143.621C159.961 141.176 159.154 138.656 158.573 136.061C156.51 126.952 156.284 117.674 157.898 108.472C158.029 107.744 158.648 107.221 159.379 107.221C159.811 107.221 160.242 107.408 160.523 107.744C160.805 108.08 160.936 108.528 160.861 108.976C159.361 118.085 159.623 127.288 161.686 136.378C162.268 138.954 163.074 141.493 163.881 143.976C165.4 148.736 166.976 153.645 166.976 158.984L166.863 168.037H166.825Z" fill="#221E1F"/>
<path d="M196.048 137.517C197.568 142.277 199.143 147.187 199.143 152.525L198.712 161.448C198.674 162.213 198.956 162.941 199.481 163.501C200.006 164.061 200.719 164.379 201.488 164.379H201.525C203.063 164.379 204.32 163.147 204.339 161.616L204.451 152.544C204.451 147.019 202.857 142.016 201.3 137.181C200.512 134.736 199.706 132.197 199.124 129.603C197.117 120.717 196.855 111.664 198.337 102.704C198.468 101.938 198.243 101.154 197.736 100.576C197.23 99.9971 196.517 99.6611 195.748 99.6611C194.473 99.6611 193.366 100.576 193.16 101.826C191.528 111.179 191.753 120.605 193.854 129.939C194.435 132.496 195.242 135.053 196.048 137.517ZM194.266 102.013C194.398 101.285 195.017 100.762 195.748 100.762C196.18 100.762 196.611 100.949 196.892 101.285C197.174 101.621 197.305 102.069 197.23 102.517C195.729 111.627 195.992 120.829 198.055 129.92C198.637 132.496 199.443 135.035 200.25 137.517C201.769 142.277 203.344 147.187 203.344 152.525L203.232 161.579C203.232 162.493 202.463 163.24 201.544 163.24H201.525C201.056 163.24 200.644 163.053 200.325 162.717C200.006 162.381 199.837 161.933 199.875 161.485L200.306 152.544C200.306 147.019 198.712 142.016 197.155 137.163C196.367 134.717 195.561 132.197 194.979 129.603C192.916 120.493 192.691 111.216 194.304 102.013H194.266Z" fill="#221E1F"/>
<path d="M217.167 155.549H208.033C206.495 155.549 205.257 156.8 205.257 158.312V161.784C205.257 163.837 203.588 165.499 201.525 165.499H201.243C199.18 165.499 197.511 163.837 197.511 161.784V158.181C197.511 157.435 197.211 156.725 196.686 156.203C196.16 155.68 195.466 155.4 194.735 155.381C193.985 155.381 193.291 155.643 192.747 156.184C192.184 156.744 191.847 157.509 191.847 158.275V161.672C191.847 162.661 191.453 163.595 190.759 164.304C190.046 165.013 189.108 165.387 188.114 165.387C186.051 165.387 184.382 163.725 184.382 161.672V158.312C184.382 156.781 183.125 155.549 181.606 155.549H171.571V102.629C182.956 83.3836 182.75 82.749 182.656 82.525C182.487 81.0503 182.581 28.5594 182.656 1.00727C182.656 0.932601 182.6 0.895268 182.581 0.820601C182.543 0.745934 182.543 0.671267 182.487 0.615266C182.45 0.577933 182.393 0.577933 182.356 0.559266C182.281 0.503266 182.206 0.447266 182.093 0.447266H61.4158C61.2657 0.447266 61.1157 0.503266 61.0031 0.615266L55.6576 6.19662C55.0762 6.81263 54.7573 7.6153 54.7573 8.43664C54.7573 10.0233 56.014 11.7407 58.0584 11.7407C58.0772 11.7407 58.0959 11.7407 58.1334 11.7407C58.1522 11.7967 58.1897 11.8713 58.2085 11.9273V20.0847C48.9429 20.1594 39.7148 22.1754 31.1245 26.114L30.2242 26.5247C17.9201 32.1621 10.5864 44.9861 12.0119 58.3889L14.7503 84.429C14.7878 84.709 14.5815 84.821 14.5065 84.8583C14.4502 84.8957 14.2251 84.9703 14.0188 84.7836L8.95462 79.7436C7.49163 78.2876 5.39094 77.8583 3.45905 78.6236C1.52715 79.4076 0.326757 81.1623 0.289244 83.2343C0.195463 88.4983 0.326756 92.1757 0.664368 94.1544C1.52715 99.1571 11.3179 99.8477 13.8125 99.941C14 115.77 22.6279 129.603 35.3821 137.237C35.6635 139.683 37.4828 160.011 23.4719 165.013C23.1718 165.125 23.0218 165.443 23.1343 165.723C23.2093 165.947 23.4344 166.096 23.6595 166.096C23.7158 166.096 23.7908 166.096 23.8471 166.059C30.3555 163.725 34.6131 157.92 36.1136 149.259C36.9764 144.368 36.7326 139.907 36.5638 137.928C42.9409 141.475 50.2746 143.509 58.0772 143.509C65.8797 143.509 72.5945 141.661 78.784 138.395C78.6152 140.224 78.3526 144.667 79.2529 149.595C80.7909 158.051 85.0486 163.744 91.557 166.077C91.6133 166.096 91.6883 166.115 91.7446 166.115C91.9697 166.115 92.1947 165.965 92.2698 165.741C92.3823 165.443 92.2322 165.125 91.9321 165.032C77.4711 159.861 79.8344 138.955 79.9844 137.741C93.2076 130.219 102.192 116.144 102.398 99.9784C104.874 99.885 114.665 99.1944 115.546 94.1917C115.884 92.213 116.015 88.5357 115.921 83.253C115.884 81.181 114.665 79.4263 112.752 78.6423C110.838 77.8769 108.738 78.2876 107.293 79.725L101.648 84.4103C101.517 84.5036 101.404 84.4663 101.348 84.4476C101.291 84.429 101.198 84.3543 101.216 84.1863L103.992 57.8102C105.437 44.1461 97.9154 31.2661 85.2924 25.722C77.0022 22.082 68.1492 20.2527 59.2776 20.178V13.3647C59.7465 13.6633 60.3467 13.8313 61.1719 13.8313C62.1098 13.8313 63.01 13.4207 63.6665 12.7113L66.011 9.79931L123.78 10.1913C124.08 10.1913 124.343 9.94864 124.343 9.63131C124.343 9.31397 124.099 9.0713 123.78 9.0713L65.7485 8.6793C65.5797 8.6793 65.4108 8.75397 65.3171 8.88464L62.8225 12.002C62.4098 12.4687 61.8097 12.73 61.1907 12.73C60.0841 12.73 59.6152 12.3753 59.24 11.5913C59.709 11.4046 60.1591 11.1246 60.4967 10.7326L65.2045 5.44995L123.799 5.84196C124.099 5.84196 124.362 5.59929 124.362 5.28195C124.362 4.96462 124.118 4.72195 123.799 4.72195L64.9607 4.32995C64.7919 4.32995 64.6418 4.40462 64.5481 4.51662L59.6714 10.0046C59.2588 10.4713 58.6586 10.7326 58.0396 10.7326C56.6704 10.7326 55.8639 9.63131 55.8639 8.54864C55.8639 8.15663 55.9765 7.59663 56.4641 7.07396L61.6408 1.6606H141.111C141.186 29.3621 141.299 81.1623 141.13 82.5436C141.036 82.8423 140.811 83.4956 152.196 102.722V155.643H146.85C145.312 155.643 144.074 156.893 144.074 158.405V161.877C144.074 163.931 142.405 165.592 140.342 165.592H140.061C137.997 165.592 136.328 163.931 136.328 161.877V158.275C136.328 157.528 136.028 156.819 135.503 156.296C134.978 155.773 134.284 155.493 133.552 155.475C132.821 155.475 132.108 155.736 131.564 156.277C131.001 156.837 130.664 157.603 130.664 158.368V161.765C130.664 162.755 130.27 163.688 129.576 164.397C128.863 165.107 127.925 165.48 126.931 165.48C124.868 165.48 123.199 163.819 123.199 161.765V158.405C123.199 156.875 121.942 155.643 120.423 155.643H111.307C110.988 155.643 110.745 155.885 110.745 156.203C110.745 156.52 110.988 156.763 111.307 156.763H120.423C121.342 156.763 122.073 157.509 122.073 158.405V161.765C122.073 164.435 124.249 166.6 126.931 166.6C128.225 166.6 129.445 166.096 130.364 165.181C131.283 164.267 131.789 163.053 131.789 161.765V158.368C131.789 157.883 131.995 157.416 132.352 157.061C132.671 156.744 133.083 156.576 133.533 156.576C133.984 156.576 134.396 156.763 134.715 157.061C135.034 157.379 135.203 157.808 135.203 158.256V161.859C135.203 164.528 137.378 166.693 140.061 166.693H140.342C143.024 166.693 145.2 164.528 145.2 161.859V158.387C145.2 157.472 145.95 156.744 146.85 156.744H152.196V174.496C152.196 174.813 152.44 175.056 152.759 175.056H170.952C171.271 175.056 171.515 174.813 171.515 174.496V156.744H181.549C182.468 156.744 183.2 157.491 183.2 158.387V161.747C183.2 164.416 185.376 166.581 188.058 166.581C189.352 166.581 190.571 166.077 191.49 165.163C192.409 164.248 192.916 163.035 192.916 161.747V158.349C192.916 157.864 193.122 157.397 193.478 157.043C193.797 156.725 194.191 156.557 194.66 156.557C195.11 156.557 195.523 156.744 195.842 157.043C196.16 157.36 196.329 157.789 196.329 158.237V161.84C196.329 164.509 198.505 166.675 201.187 166.675H201.468C204.151 166.675 206.326 164.509 206.326 161.84V158.368C206.326 157.453 207.077 156.725 207.977 156.725H217.111C217.43 156.725 217.674 156.483 217.674 156.165C217.674 155.848 217.43 155.605 217.111 155.605L217.167 155.549ZM84.8986 26.6927C89.7377 28.8207 93.789 32.0687 96.8463 36.0448C96.8088 36.0634 96.7525 36.0634 96.715 36.1008L86.0802 48.2901C83.2293 51.5568 82.6291 56.1862 84.5422 60.0689L95.4771 82.2636C95.5708 82.469 95.7772 82.581 95.9835 82.581C96.0585 82.581 96.1523 82.581 96.2273 82.525C96.5087 82.3943 96.6212 82.0583 96.4899 81.7783L85.555 59.5835C83.8482 56.0929 84.3921 51.9675 86.943 49.0368L97.5027 36.9221C101.685 42.7835 103.749 50.1008 102.942 57.6422L100.166 84.0183C100.11 84.5783 100.391 85.1197 100.898 85.381C101.404 85.6423 102.004 85.5863 102.436 85.2316L108.119 80.5276C109.263 79.389 110.895 79.053 112.395 79.669C113.896 80.2663 114.833 81.6476 114.871 83.253C114.965 88.461 114.833 92.0637 114.496 93.9864C113.802 97.8877 105.155 98.821 101.892 98.8584C101.592 98.8584 101.329 99.1197 101.329 99.4184C101.329 123.106 81.9538 142.389 58.1334 142.389C34.313 142.389 14.9566 123.106 14.9566 99.4184C14.9566 99.1197 14.7128 98.8584 14.3939 98.8584C11.1116 98.821 2.46497 97.8877 1.78974 93.9864C1.47089 92.101 1.33959 88.3863 1.41462 83.2716C1.43337 81.6663 2.38994 80.285 3.89044 79.6876C4.3781 79.4823 4.88452 79.389 5.39094 79.389C6.40377 79.389 7.39785 79.781 8.16686 80.5463L13.231 85.5863C13.6999 86.053 14.3939 86.165 14.9941 85.885C15.5943 85.605 15.9319 84.989 15.8757 84.3356L13.1373 58.2955C12.3307 50.6422 14.4877 43.1941 18.8391 37.2581L29.3051 49.2422C31.4996 51.8368 31.8935 55.9809 30.2429 59.3409L19.3081 81.5356C19.1768 81.8156 19.2893 82.1516 19.5706 82.2823C19.6457 82.3196 19.7394 82.3383 19.8145 82.3383C20.0208 82.3383 20.2271 82.2263 20.3209 82.021L31.2558 59.8262C33.0939 56.0742 32.6625 51.4262 30.1679 48.4955L19.5331 36.3061C22.4403 32.6287 26.2479 29.5861 30.7306 27.5327L31.6309 27.1221C40.0712 23.258 49.1492 21.2794 58.246 21.2047V30.4074C58.246 30.7247 58.4898 30.9674 58.8087 30.9674C59.1275 30.9674 59.3713 30.7247 59.3713 30.4074V21.2234C68.0742 21.298 76.7771 23.1087 84.9361 26.6741L84.8986 26.6927ZM142.255 82.5996C142.461 78.8476 142.33 25.498 142.255 1.56727H181.531C181.456 25.498 181.324 78.8476 181.531 82.5996C181.306 83.6636 174.816 94.901 170.652 101.92H153.096C148.932 94.8824 142.443 83.6636 142.218 82.5996H142.255ZM170.427 173.88H153.359V103.04H170.427V173.88Z" fill="#221E1F"/>
<path d="M123.086 100.576C122.58 99.9971 121.867 99.6611 121.098 99.6611C119.822 99.6611 118.735 100.576 118.509 101.826C116.878 111.179 117.103 120.605 119.203 129.939C119.785 132.496 120.591 135.053 121.398 137.517C122.917 142.277 124.493 147.187 124.493 152.525L124.061 161.448C124.024 162.213 124.286 162.941 124.83 163.501C125.355 164.061 126.068 164.379 126.837 164.379H126.875C128.413 164.379 129.669 163.147 129.688 161.616L129.801 152.544C129.801 147.019 128.206 142.016 126.65 137.181C125.862 134.736 125.055 132.197 124.474 129.603C122.467 120.717 122.204 111.664 123.686 102.704C123.817 101.938 123.592 101.154 123.086 100.576ZM123.386 129.939C123.968 132.515 124.793 135.053 125.581 137.536C127.1 142.296 128.675 147.205 128.675 152.544L128.563 161.597C128.563 162.531 127.813 163.277 126.856 163.259C126.387 163.259 125.956 163.072 125.656 162.736C125.337 162.4 125.168 161.971 125.205 161.504L125.637 152.563C125.637 147.037 124.043 142.035 122.486 137.181C121.698 134.736 120.891 132.216 120.31 129.621C118.247 120.512 118.022 111.235 119.635 102.032C119.766 101.304 120.385 100.781 121.117 100.781C121.548 100.781 121.979 100.968 122.261 101.304C122.542 101.64 122.673 102.088 122.598 102.536C121.098 111.645 121.36 120.848 123.424 129.939H123.386Z" fill="#221E1F"/>
<path d="M136.609 100.576C136.103 99.9971 135.39 99.6611 134.621 99.6611C133.346 99.6611 132.258 100.576 132.033 101.826C130.401 111.179 130.626 120.605 132.727 129.939C133.308 132.496 134.115 135.053 134.921 137.517C136.441 142.277 138.016 147.187 138.016 152.525L137.585 161.448C137.547 162.213 137.829 162.941 138.354 163.501C138.879 164.061 139.592 164.379 140.361 164.379H140.398C141.936 164.379 143.193 163.147 143.212 161.616L143.324 152.544C143.324 147.019 141.73 142.016 140.173 137.181C139.385 134.736 138.579 132.197 137.997 129.603C135.99 120.717 135.728 111.664 137.21 102.704C137.341 101.938 137.116 101.154 136.609 100.576ZM136.91 129.939C137.491 132.515 138.297 135.053 139.104 137.536C140.623 142.296 142.199 147.205 142.199 152.544L142.086 161.597C142.086 162.531 141.336 163.277 140.379 163.259C139.911 163.259 139.498 163.072 139.179 162.736C138.86 162.4 138.691 161.952 138.729 161.504L139.16 152.563C139.16 147.037 137.566 142.035 136.009 137.2C135.221 134.755 134.415 132.235 133.833 129.64C131.77 120.531 131.545 111.253 133.158 102.05C133.29 101.322 133.909 100.8 134.64 100.8C135.071 100.8 135.503 100.986 135.784 101.322C136.065 101.658 136.197 102.106 136.122 102.554C134.621 111.664 134.884 120.867 136.947 129.957L136.91 129.939Z" fill="#221E1F"/>
<path d="M37.8395 54.1328C36.8079 53.8155 36.2265 53.6288 36.2265 53.6288C35.9452 53.5168 35.6075 53.6848 35.5138 53.9648C35.4012 54.2635 35.57 54.5808 35.8514 54.6742C35.8514 54.6742 36.4328 54.8795 37.5207 55.1968C37.5769 55.1968 37.6332 55.2155 37.6895 55.2155C37.9333 55.2155 38.1584 55.0662 38.2334 54.8235C38.3272 54.5248 38.1584 54.2075 37.8583 54.1328H37.8395Z" fill="#221E1F"/>
<path d="M70.8128 57.1197C70.8128 57.1197 70.8878 57.1197 70.9253 57.1197C72.1632 56.8957 73.3824 56.6157 74.6015 56.317C74.9016 56.2424 75.0892 55.9437 75.0141 55.6264C74.9391 55.3277 74.6203 55.141 74.3389 55.2157C73.1573 55.5144 71.9569 55.7757 70.7377 55.9997C70.4376 56.0557 70.2313 56.3544 70.2876 56.653C70.3439 56.9144 70.5689 57.101 70.8315 57.101L70.8128 57.1197Z" fill="#221E1F"/>
<path d="M63.4419 58.053C63.4419 58.053 63.4607 58.053 63.4794 58.053C64.7361 57.9783 65.9928 57.8476 67.2119 57.6983C67.512 57.661 67.7371 57.381 67.6996 57.0636C67.6621 56.765 67.3807 56.541 67.0619 56.5783C65.8802 56.7276 64.6423 56.8396 63.3856 56.933C63.0668 56.9516 62.8417 57.213 62.8605 57.5303C62.8792 57.829 63.1231 58.053 63.4232 58.053H63.4419Z" fill="#221E1F"/>
<path d="M55.4326 57.5675C55.4326 57.8848 55.6577 58.1275 55.9765 58.1461C56.8768 58.1835 57.7959 58.2021 58.7337 58.2021C59.0713 58.2021 59.3902 58.2021 59.7278 58.2021C60.0466 58.2021 60.2905 57.9408 60.2717 57.6421C60.253 57.3435 60.0091 57.1008 59.709 57.1008C58.4524 57.1195 57.2145 57.1008 56.0141 57.0635C55.6389 57.0635 55.4326 57.2875 55.4326 57.6048V57.5675Z" fill="#221E1F"/>
<path d="M52.3379 56.8021C51.0624 56.6901 49.8245 56.5594 48.6616 56.3914C48.3615 56.3354 48.0614 56.5594 48.0239 56.8767C47.9864 57.1754 48.1927 57.4741 48.5116 57.5114C49.6932 57.6794 50.9311 57.8101 52.2441 57.9221C52.2441 57.9221 52.2816 57.9221 52.3003 57.9221C52.5817 57.9221 52.8255 57.6981 52.863 57.4181C52.8818 57.1007 52.6567 56.8394 52.3566 56.8021H52.3379Z" fill="#221E1F"/>
<path d="M45.0227 55.8129C43.691 55.5703 42.4718 55.3089 41.4027 55.0663C41.1026 54.9916 40.8025 55.1783 40.7275 55.4769C40.6525 55.7756 40.84 56.0743 41.1401 56.1489C42.228 56.4103 43.4471 56.6716 44.8163 56.9143C44.8538 56.9143 44.8914 56.9143 44.9101 56.9143C45.1727 56.9143 45.4165 56.7276 45.454 56.4476C45.5103 56.1489 45.304 55.8503 45.0039 55.7943L45.0227 55.8129Z" fill="#221E1F"/>
<path d="M78.0334 55.2715C78.0334 55.2715 78.1459 55.2715 78.2022 55.2528C78.7649 55.0662 79.3088 54.8795 79.8715 54.6742C80.1716 54.5622 80.3217 54.2448 80.2091 53.9648C80.0966 53.6661 79.7777 53.5355 79.4964 53.6288C78.9525 53.8341 78.4085 54.0208 77.8646 54.1888C77.5645 54.2822 77.4144 54.5995 77.5082 54.8982C77.5833 55.1408 77.8083 55.2902 78.0522 55.2902L78.0334 55.2715Z" fill="#221E1F"/>
</g>
<defs>
<clipPath id="clip0_460_14303">
<rect width="217.46" height="174.553" fill="white" transform="translate(0.270508 0.447266)"/>
</clipPath>
</defs>
</svg>
