<svg width="262" height="154" viewBox="0 0 262 154" fill="none" xmlns="http://www.w3.org/2000/svg">
<g clip-path="url(#clip0_460_14320)">
<path d="M130.308 122.38C114.411 122.38 89.1149 104.942 89.1149 84.265L86.8467 38.1785C86.8467 17.5196 106.742 0.0458984 130.289 0.0458984C153.836 0.0458984 173.731 17.5018 173.731 38.1785L171.463 84.3006C171.463 104.959 146.167 122.398 130.27 122.398L130.308 122.38ZM88.0192 38.1607L90.2875 84.2472C90.2875 104.372 114.873 121.33 130.328 121.33C145.782 121.33 170.368 104.372 170.368 84.265L172.636 38.1429C172.636 18.0712 153.26 1.11354 130.328 1.11354C107.395 1.11354 88.0385 18.0712 88.0192 38.1607Z" fill="#221E1F"/>
<path d="M95.6306 35.4927C95.3231 35.2613 95.0347 35.0298 94.7656 34.7983L95.5345 33.9971C95.8036 34.2285 96.092 34.4422 96.3611 34.6737L95.6306 35.4927Z" fill="#221E1F"/>
<path d="M131.404 44.8159V43.7483C132.115 43.7483 132.845 43.7127 133.576 43.6949L133.633 44.7625C132.903 44.7981 132.153 44.8159 131.404 44.8159ZM129.174 44.8159C128.424 44.8159 127.694 44.7803 126.963 44.7625L127.021 43.6949C127.751 43.7305 128.482 43.7483 129.212 43.7483V44.8159H129.174ZM135.844 44.6558L135.767 43.5881C136.498 43.5347 137.228 43.4814 137.939 43.4102L138.055 44.4778C137.324 44.549 136.594 44.6024 135.844 44.6558ZM124.734 44.6558C123.984 44.6024 123.253 44.549 122.523 44.4778L122.638 43.4102C123.35 43.4814 124.08 43.5347 124.81 43.5881L124.734 44.6558ZM140.265 44.2287L140.111 43.1611C140.842 43.0721 141.553 42.9831 142.264 42.8586L142.456 43.9084C141.726 44.0152 140.996 44.1219 140.265 44.2109V44.2287ZM120.332 44.2287C119.601 44.1397 118.852 44.033 118.14 43.9262L118.333 42.8764C119.044 42.9831 119.774 43.0899 120.485 43.1789L120.332 44.2465V44.2287ZM144.648 43.5703L144.417 42.5205C145.148 42.3959 145.859 42.2536 146.551 42.0934L146.82 43.1255C146.109 43.2856 145.378 43.428 144.648 43.5525V43.5703ZM115.93 43.5703C115.199 43.428 114.469 43.2856 113.758 43.1433L114.027 42.1112C114.719 42.2536 115.449 42.3959 116.16 42.5383L115.93 43.5881V43.5703ZM148.973 42.645L148.665 41.613C149.377 41.435 150.069 41.2571 150.761 41.0436L151.107 42.0578C150.415 42.2536 149.703 42.4493 148.973 42.6272V42.645ZM111.605 42.6272C110.874 42.4493 110.163 42.2536 109.471 42.0578L109.817 41.0436C110.509 41.2393 111.201 41.435 111.912 41.613L111.605 42.645V42.6272ZM153.221 41.4172L152.837 40.4208C153.529 40.1895 154.201 39.9581 154.874 39.709L155.316 40.6877C154.643 40.9368 153.951 41.1859 153.24 41.4172H153.221ZM107.357 41.3994C106.645 41.1681 105.953 40.919 105.281 40.6699L105.723 39.6734C106.376 39.9225 107.068 40.1717 107.76 40.403L107.376 41.3994H107.357ZM157.354 39.8514L156.873 38.8905C157.546 38.6058 158.2 38.3033 158.815 38.0008L159.353 38.9439C158.699 39.2642 158.046 39.5667 157.354 39.8692V39.8514ZM103.224 39.8336C102.57 39.5489 101.936 39.2642 101.321 38.9617L101.494 38.4456L101.859 38.0186C102.474 38.3211 103.089 38.6058 103.724 38.8727L103.243 39.8336H103.224ZM161.314 37.9118L160.718 37.0043C161.352 36.6484 161.948 36.2748 162.525 35.9011L163.197 36.773C162.601 37.1645 161.967 37.5381 161.314 37.9118ZM99.2832 37.894C98.6296 37.5204 97.9953 37.1467 97.3994 36.7552L98.0722 35.8833C98.6489 36.257 99.2448 36.6307 99.8791 36.9865L99.2832 37.894Z" fill="#221E1F"/>
<path d="M165.004 35.4927L164.273 34.6737C164.562 34.46 164.831 34.2285 165.1 33.9971L165.869 34.7805C165.581 35.012 165.292 35.2435 165.004 35.4749V35.4927Z" fill="#221E1F"/>
<path d="M196.471 150.316C175.654 150.316 158.719 134.64 158.719 115.369V108.233H159.872V115.369C159.872 134.053 176.288 149.249 196.471 149.249V150.316Z" fill="#221E1F"/>
<path d="M67.9893 154V152.932C86.9617 152.932 102.416 138.643 102.416 121.063V109.764H103.57V121.063C103.57 139.231 87.6152 154 67.9893 154Z" fill="#221E1F"/>
<path d="M126.271 96.7743C124.618 96.7743 122.888 96.3828 121.216 95.5821C120.928 95.4398 120.832 95.1195 120.966 94.8526C121.12 94.5856 121.466 94.4789 121.735 94.6212C125.08 96.2405 128.886 95.9736 131.192 93.9806C134.845 90.8133 134.595 83.9804 130.462 75.2435C127.809 69.6206 127.694 65.2433 130.135 62.2361C134.748 56.5598 146.609 57.93 147.108 57.9833C147.416 58.0189 147.647 58.2858 147.608 58.5883C147.57 58.873 147.281 59.0688 146.955 59.051C146.839 59.051 135.248 57.7164 131.039 62.8945C128.866 65.5636 129.02 69.585 131.5 74.8343C137.42 87.3969 134.326 92.7173 131.961 94.7814C130.423 96.1159 128.405 96.7921 126.233 96.7921L126.271 96.7743Z" fill="#221E1F"/>
<path d="M145.494 74.4426C139.381 74.4426 136.113 70.5102 136.056 70.4568C135.864 70.2255 135.921 69.8874 136.171 69.7094C136.421 69.5315 136.786 69.5849 136.979 69.8162C137.248 70.1543 143.706 77.8235 155.989 69.7094C156.258 69.5315 156.604 69.6027 156.797 69.834C156.989 70.0653 156.912 70.4034 156.662 70.5813C152.279 73.4818 148.531 74.4604 145.494 74.4604V74.4426Z" fill="#221E1F"/>
<path d="M89.9222 82.521H86.0009C80.2342 82.521 75.5439 78.1793 75.5439 72.8411C75.5439 67.5029 80.2342 63.1611 86.0009 63.1611H88.692V64.2288H86.0009C80.8685 64.2288 76.6973 68.0901 76.6973 72.8411C76.6973 77.5921 80.8685 81.4534 86.0009 81.4534H89.9222V82.521Z" fill="#221E1F"/>
<path d="M174.923 82.521H171.002V81.4534H174.923C180.056 81.4534 184.227 77.5921 184.227 72.8411C184.227 68.0901 180.056 64.2288 174.923 64.2288H172.232V63.1611H174.923C180.69 63.1611 185.38 67.5029 185.38 72.8411C185.38 78.1793 180.69 82.521 174.923 82.521Z" fill="#221E1F"/>
<path d="M38.1753 152.594C38.1753 152.594 38.156 152.594 38.1368 152.594C37.81 152.576 37.5794 152.309 37.5986 152.024L39.7323 124.568C39.8476 123.02 39.6746 121.597 39.194 120.351C37.9638 117.184 34.7729 113.945 26.6419 116.454C25.9114 116.686 25.2002 116.988 24.5274 117.273C22.6436 118.073 20.683 118.91 17.6074 118.465C14.9931 118.073 12.4558 116.187 10.8027 113.394C9.18801 110.671 8.82279 107.735 9.84157 105.564C10.1684 104.87 10.1876 104.301 9.91846 103.909L8.3999 102.005C7.65023 101.08 7.57334 99.8346 8.16923 98.8203C8.61135 98.0908 8.45757 97.1655 7.82323 96.5605L7.03512 95.8309C6.42 95.3505 5.555 94.532 5.51655 93.4643C5.49733 92.6102 5.99711 91.7383 7.03512 90.8308C8.16923 89.9411 7.74634 88.3041 7.18889 87.0941C6.70834 86.062 5.88178 85.1901 4.84377 84.6563C4.59388 84.5317 4.51699 84.5139 4.51699 84.5139C2.51787 84.2292 0.903201 82.9481 0.288087 81.1509C-0.307804 79.4071 0.191976 77.5209 1.5952 76.2575C9.80313 68.9086 8.59212 61.0258 7.41956 53.3922C7.01589 50.7231 6.61223 48.2141 6.63145 45.7408C6.68911 35.7761 12.0906 29.1745 12.3212 28.9076L14.2819 26.9325C14.2819 26.9325 19.2989 22.6085 24.6043 25.7047C29.2177 28.3916 30.4094 36.1498 31.928 45.9543C35.2727 67.6096 39.8476 97.29 83.6168 100.707C83.9436 100.724 84.1742 100.991 84.1358 101.276C84.0973 101.561 83.8282 101.792 83.5207 101.756C38.8288 98.2509 33.9848 66.8623 30.7939 46.0788C29.3138 36.5412 28.1604 29.0144 23.9892 26.5766C19.4527 23.9431 15.2815 27.5019 15.1085 27.662L13.2055 29.566C13.2055 29.566 7.84245 36.132 7.78479 45.723C7.78479 48.1074 8.15001 50.5807 8.55368 53.2142C9.70702 60.7411 11.0141 69.2645 2.38332 76.9871C1.26842 77.9835 0.883978 79.4071 1.36454 80.795C1.84509 82.2007 3.11377 83.1972 4.67077 83.4285C4.863 83.4641 5.07444 83.5353 5.382 83.6954C6.65067 84.336 7.66945 85.3858 8.24612 86.6492C9.51479 89.4429 8.70746 90.8842 7.78479 91.596C7.01589 92.2721 6.63145 92.8771 6.65067 93.411C6.65067 93.9092 7.03512 94.4252 7.80401 95.0302L8.63057 95.7954C9.63013 96.7206 9.8608 98.162 9.16879 99.3186C8.78435 99.9592 8.84201 100.76 9.32257 101.365L10.8604 103.304C11.2256 103.82 11.5139 104.692 10.8988 105.991C10.0146 107.877 10.3606 110.458 11.8022 112.895C13.2631 115.351 15.5506 117.095 17.7804 117.415C20.4907 117.807 22.2207 117.095 24.0469 116.312C24.7581 116.009 25.4885 115.689 26.2959 115.458C35.7917 112.522 39.1556 117.041 40.3089 120.013C40.8471 121.401 41.0586 122.967 40.924 124.657L38.7904 152.113C38.7711 152.398 38.5213 152.612 38.2137 152.612L38.1753 152.594Z" fill="#221E1F"/>
<path d="M30.6985 56.3996C30.0065 56.186 29.3337 55.9013 28.6994 55.5454L29.3145 54.6379C29.8527 54.9404 30.4486 55.2074 31.0445 55.3853L30.6793 56.3996H30.6985ZM27.0078 54.2821C26.508 53.8194 26.0467 53.3034 25.643 52.7162L26.6041 52.129C26.9886 52.645 27.3923 53.1254 27.8344 53.5347L27.027 54.2821H27.0078ZM24.5858 50.9724C24.2975 50.3852 24.0284 49.7624 23.8169 49.1218L24.9126 48.8015C25.124 49.4065 25.3547 49.9937 25.6238 50.5275L24.5858 50.9724ZM23.2787 47.2C23.1633 46.6128 23.1249 46.257 23.1249 46.257C23.048 46.0256 22.9519 45.6875 22.8366 45.385L23.9515 45.0825C24.0476 45.4028 24.1629 45.7231 24.259 46.0612C24.2782 46.168 24.3167 46.4883 24.4128 47.0043L23.2787 47.2ZM22.2407 43.5879C22.01 42.9651 21.7793 42.3601 21.5487 41.8084L22.6251 41.417C22.8558 41.9864 23.1057 42.5914 23.3363 43.232L22.2407 43.5701V43.5879ZM20.7413 40.0824C20.4338 39.4774 20.1262 38.9258 19.7994 38.4276L20.799 37.8938C21.1258 38.4098 21.4718 38.997 21.7793 39.6376L20.7413 40.1002V40.0824ZM8.40062 39.9579L7.38184 39.4418C7.38184 39.4418 7.82395 38.6945 8.5544 37.7692L9.47707 38.4098C8.78506 39.2639 8.3814 39.9401 8.3814 39.9579H8.40062ZM10.7842 37.0041L9.95762 36.2567C10.4958 35.7407 11.0533 35.2958 11.6107 34.94L12.2643 35.8119C11.7645 36.1322 11.284 36.5236 10.7842 37.0041ZM18.6846 36.9329C18.2424 36.4169 17.7811 36.0076 17.3198 35.6873L18.0118 34.8332C18.55 35.2069 19.0882 35.6873 19.588 36.2567L18.6846 36.9329ZM13.9366 35.0467L13.6099 34.0147C14.398 33.8011 15.1669 33.7656 15.9358 33.9257L15.7051 34.9755C15.1284 34.8688 14.5518 34.8866 13.9366 35.0467Z" fill="#221E1F"/>
<path d="M20.7596 17.9109C20.6058 17.9109 20.4521 17.8575 20.3367 17.733C20.1253 17.5195 20.1445 17.1814 20.3752 16.9856C20.7788 16.6653 60.5498 -15.613 96.2648 15.829C96.4955 16.0248 96.4955 16.3628 96.2841 16.5764C96.0726 16.7899 95.7074 16.7899 95.4767 16.5942C60.5498 -14.1717 21.5477 17.4483 21.1633 17.7686C21.048 17.8575 20.9134 17.9109 20.7788 17.9109H20.7596Z" fill="#221E1F"/>
<path d="M83.5406 64.7452C83.3099 64.7452 83.0792 64.6206 83.0023 64.4071C69.4506 31.2924 55.4952 20.6871 46.1724 17.6266C37.8107 14.8863 32.217 17.8223 32.1594 17.8401C31.8902 17.9825 31.525 17.9113 31.3712 17.6444C31.2175 17.3953 31.3136 17.0572 31.5827 16.9148C31.8326 16.7725 37.6954 13.7119 46.5761 16.6123C56.1296 19.7441 70.4117 30.5272 84.1172 64.0156C84.2326 64.3003 84.0788 64.6028 83.7905 64.7096C83.7136 64.7274 83.6559 64.7452 83.579 64.7452H83.5406Z" fill="#221E1F"/>
<path d="M234.55 150.316C234.223 150.316 233.973 150.085 233.973 149.782V121.739C233.973 118.643 236.703 116.116 240.029 116.116H241.009C245.968 116.116 250.005 112.379 250.005 107.789V89.2294C250.005 87.023 251.946 85.2258 254.33 85.2258H257.886C259.001 85.2258 259.981 84.6741 260.5 83.7489C261.019 82.8236 260.942 81.7737 260.289 80.9196L251.12 68.9086C248.563 65.5634 247.852 61.275 249.236 57.4671C253.984 44.3351 248.986 33.4096 246.852 28.7653L246.776 28.5874C244.008 22.5196 239.721 17.733 234.07 14.3877C220.172 6.13131 201.661 8.40895 194.337 9.76129L191.704 10.3129C183.457 12.3236 175.961 17.4839 170.598 24.8506C170.425 25.0997 170.059 25.1531 169.79 24.993C169.521 24.8328 169.463 24.4947 169.636 24.2456C175.153 16.6654 182.881 11.3272 191.415 9.26306L194.087 8.69365C201.545 7.30572 220.422 4.99249 234.685 13.4625C240.528 16.9323 244.969 21.879 247.833 28.1603L247.91 28.3383C250.101 33.1071 255.214 44.2817 250.332 57.8052C249.063 61.2928 249.717 65.2253 252.062 68.3036L261.231 80.3146C262.115 81.4712 262.23 82.9837 261.519 84.2471C260.808 85.5105 259.424 86.2934 257.886 86.2934H254.33C252.581 86.2934 251.158 87.6102 251.158 89.2294V107.789C251.158 112.967 246.603 117.184 241.009 117.184H240.029C237.318 117.184 235.108 119.23 235.108 121.739V149.782C235.108 150.085 234.858 150.316 234.531 150.316H234.55Z" fill="#221E1F"/>
<path d="M204.218 58.1434H203.064V56.364H204.218V58.1434ZM204.218 54.5134H203.064V52.6628H204.218V54.5134ZM204.218 50.7944H203.064V48.9439H204.218V50.7944ZM204.218 47.0933H203.064V45.2427H204.218V47.0933ZM204.314 43.4633L203.18 43.2854C203.295 42.627 203.507 41.9864 203.814 41.3814L204.852 41.8262C204.602 42.3423 204.41 42.8939 204.314 43.4633ZM205.832 40.3849L204.948 39.7088C205.41 39.1927 205.929 38.7479 206.524 38.3564L207.197 39.2283C206.697 39.5664 206.236 39.9579 205.852 40.4027L205.832 40.3849ZM208.831 38.4276L208.427 37.4311C209.1 37.1998 209.811 37.0574 210.523 36.9863L210.638 38.0539C210.023 38.1073 209.408 38.2319 208.831 38.4276ZM250.659 38.0183H248.66V36.9507H250.659V38.0183ZM246.661 38.0183H244.662V36.9507H246.661V38.0183ZM242.643 38.0183H240.644V36.9507H242.643V38.0183ZM238.645 38.0183H236.646V36.9507H238.645V38.0183ZM234.627 38.0183H232.628V36.9507H234.627V38.0183ZM230.629 38.0183H228.63V36.9507H230.629V38.0183ZM226.612 38.0183H224.613V36.9507H226.612V38.0183ZM222.594 38.0183H220.595V36.9507H222.594V38.0183ZM218.596 38.0183H216.597V36.9507H218.596V38.0183ZM214.579 38.0183H212.579V36.9507H214.579V38.0183Z" fill="#221E1F"/>
<path d="M202.833 117.184C202.506 117.184 202.257 116.953 202.257 116.65V76.8271C197.143 76.5423 193.068 72.6099 193.068 67.8055C193.068 63.0011 197.451 58.7661 202.833 58.7661C203.16 58.7661 203.41 58.9974 203.41 59.2999C203.41 59.6024 203.16 59.8338 202.833 59.8338C198.085 59.8338 194.222 63.4104 194.222 67.8055C194.222 72.2006 198.085 75.7772 202.833 75.7772H203.41V116.668C203.41 116.97 203.16 117.202 202.833 117.202V117.184Z" fill="#221E1F"/>
</g>
<defs>
<clipPath id="clip0_460_14320">
<rect width="262" height="153.954" fill="white" transform="translate(0 0.0458984)"/>
</clipPath>
</defs>
</svg>
