<svg width="272" height="183" viewBox="0 0 272 183" fill="none" xmlns="http://www.w3.org/2000/svg">
<g clip-path="url(#clip0_460_14341)">
<path d="M196.923 94.712L204.216 90.7354L207.939 98.1533C208.035 98.3445 208.246 98.4783 208.457 98.4783H208.495C208.726 98.4783 208.937 98.3063 208.994 98.0768L213.485 83.7955L217.957 98.0768C218.034 98.3063 218.225 98.4592 218.456 98.4783H218.494C218.705 98.4783 218.916 98.3636 219.012 98.1533L222.735 90.7354L230.028 94.712C230.239 94.8267 230.489 94.8076 230.662 94.6547C230.834 94.5017 230.911 94.2532 230.853 94.0429L224.136 72.6304C227.936 69.5333 230.124 64.964 230.124 60.0506C230.124 51.0459 222.774 43.7236 213.735 43.7236C204.696 43.7236 197.345 51.0459 197.345 60.0506C197.345 64.7537 199.38 69.1892 202.911 72.2863L196.098 94.062C196.021 94.2914 196.098 94.5209 196.29 94.6738C196.482 94.8267 196.731 94.8459 196.923 94.7312V94.712ZM222.774 89.4354C222.64 89.3589 222.467 89.3398 222.332 89.3972C222.179 89.4354 222.064 89.5501 221.987 89.6839L218.648 96.3562L214.099 81.8454L215.865 76.2056C218.513 75.8805 221.008 74.8864 223.177 73.3378L229.357 93.0105L222.793 89.4354H222.774ZM198.497 60.0124C198.497 51.6386 205.329 44.8325 213.735 44.8325C222.141 44.8325 228.973 51.6386 228.973 60.0124C228.973 64.7155 226.842 69.0744 223.119 71.9613C220.874 73.7393 218.187 74.829 215.347 75.1158C214.138 75.2305 212.833 75.2305 211.604 75.0393C208.783 74.6379 206.135 73.4716 203.928 71.6172C200.473 68.7303 198.478 64.4861 198.478 59.9933L198.497 60.0124ZM203.889 73.0128C206.116 74.6952 208.687 75.8041 211.451 76.1864C212.199 76.3011 212.967 76.3585 213.754 76.3585C214.042 76.3585 214.33 76.3203 214.618 76.3203L212.948 81.6734C212.948 81.6734 212.948 81.7116 212.948 81.7499L208.361 96.3753L205.003 89.703C204.926 89.5692 204.811 89.4545 204.657 89.4163C204.504 89.378 204.35 89.3972 204.216 89.4545L197.652 93.0296L203.909 73.0319L203.889 73.0128Z" fill="#221E1F"/>
<path d="M213.735 71.4833C220.068 71.4833 225.231 66.3405 225.231 60.0314C225.231 53.7224 220.068 48.5796 213.735 48.5796C207.402 48.5796 202.239 53.7224 202.239 60.0314C202.239 66.3405 207.402 71.4833 213.735 71.4833ZM213.735 49.7267C219.435 49.7267 224.079 54.3533 224.079 60.0314C224.079 65.7096 219.435 70.3362 213.735 70.3362C208.035 70.3362 203.391 65.7096 203.391 60.0314C203.391 54.3533 208.035 49.7267 213.735 49.7267Z" fill="#221E1F"/>
<path d="M156.948 113.448H235.978C236.304 113.448 236.554 113.199 236.554 112.874C236.554 112.549 236.304 112.301 235.978 112.301H156.948C156.622 112.301 156.372 112.549 156.372 112.874C156.372 113.199 156.622 113.448 156.948 113.448Z" fill="#221E1F"/>
<path d="M156.948 119.718H235.978C236.304 119.718 236.554 119.47 236.554 119.145C236.554 118.82 236.304 118.571 235.978 118.571H156.948C156.622 118.571 156.372 118.82 156.372 119.145C156.372 119.47 156.622 119.718 156.948 119.718Z" fill="#221E1F"/>
<path d="M156.948 125.97H235.978C236.304 125.97 236.554 125.722 236.554 125.397C236.554 125.072 236.304 124.823 235.978 124.823H156.948C156.622 124.823 156.372 125.072 156.372 125.397C156.372 125.722 156.622 125.97 156.948 125.97Z" fill="#221E1F"/>
<path d="M158.387 82.7438H181.436C181.762 82.7438 182.012 82.4952 182.012 82.1702C182.012 81.8452 181.762 81.5967 181.436 81.5967H158.387C158.061 81.5967 157.812 81.8452 157.812 82.1702C157.812 82.4952 158.061 82.7438 158.387 82.7438Z" fill="#221E1F"/>
<path d="M158.387 87.2365H181.436C181.762 87.2365 182.012 86.9879 182.012 86.6629C182.012 86.3379 181.762 86.0894 181.436 86.0894H158.387C158.061 86.0894 157.812 86.3379 157.812 86.6629C157.812 86.9879 158.061 87.2365 158.387 87.2365Z" fill="#221E1F"/>
<path d="M158.387 91.7487H181.436C181.762 91.7487 182.012 91.5001 182.012 91.1751C182.012 90.8501 181.762 90.6016 181.436 90.6016H158.387C158.061 90.6016 157.812 90.8501 157.812 91.1751C157.812 91.5001 158.061 91.7487 158.387 91.7487Z" fill="#221E1F"/>
<path d="M156.948 132.222H235.978C236.304 132.222 236.554 131.973 236.554 131.648C236.554 131.323 236.304 131.075 235.978 131.075H156.948C156.622 131.075 156.372 131.323 156.372 131.648C156.372 131.973 156.622 132.222 156.948 132.222Z" fill="#221E1F"/>
<path d="M156.948 138.493H235.978C236.304 138.493 236.554 138.244 236.554 137.919C236.554 137.594 236.304 137.346 235.978 137.346H156.948C156.622 137.346 156.372 137.594 156.372 137.919C156.372 138.244 156.622 138.493 156.948 138.493Z" fill="#221E1F"/>
<path d="M235.978 143.597H156.948C156.622 143.597 156.372 143.846 156.372 144.171C156.372 144.496 156.622 144.744 156.948 144.744H235.978C236.304 144.744 236.554 144.496 236.554 144.171C236.554 143.846 236.304 143.597 235.978 143.597Z" fill="#221E1F"/>
<path d="M158.771 76.0907H181.052C181.379 76.0907 181.628 75.8421 181.628 75.5171V47.8148C181.628 47.4898 181.379 47.2412 181.052 47.2412H158.771C158.445 47.2412 158.195 47.4898 158.195 47.8148V75.5171C158.195 75.8421 158.445 76.0907 158.771 76.0907ZM159.347 48.3883H180.477V74.9436H159.347V48.3883Z" fill="#221E1F"/>
<path d="M258.989 48.5789H246.342V46.2656C246.342 38.0448 239.625 31.3725 231.391 31.3725H156.718C149.195 31.3725 143.073 37.4712 143.073 44.9656V120.005C136.317 115.856 129.063 112.549 121.54 110.14C118.565 109.184 115.456 108.362 112.29 107.673V95.1128C112.29 94.8451 112.098 94.654 111.848 94.5966C113.633 94.2716 115.475 93.9275 117.471 93.526H117.567C117.874 93.4495 118.066 93.1627 118.009 92.8568C117.855 91.9392 117.721 91.0406 117.606 90.1612C117.682 90.0847 117.74 90.0082 117.778 89.9126L123.382 69.0546C128.43 68.8061 132.92 64.1794 132.92 59.1322V57.2586C132.92 52.0202 130.099 48.4069 125.743 47.948L126.875 45.3671L127.086 45.0803C127.163 44.9847 127.201 44.8509 127.201 44.717L126.05 20.5898C125.493 9.06149 115.974 0.0185547 104.383 0.0185547H77.0925C65.5008 0.0185547 55.9819 9.06149 55.4253 20.5898L54.2739 44.717C54.2739 44.717 54.293 44.7935 54.3122 44.8318C54.3122 44.87 54.3122 44.8891 54.3122 44.9273L55.291 48.0245C51.1457 48.6554 48.4972 52.1923 48.4972 57.2586V59.1322C48.4972 64.1794 52.988 68.7869 58.0354 69.0546L63.6201 89.8362C63.6009 90.5435 63.5625 91.2509 63.5241 91.9965C63.5241 92.2833 63.6969 92.5318 63.9655 92.5892C65.9039 93.0289 67.727 93.4304 69.4543 93.7936V107.999C67.4008 108.457 65.3281 108.993 63.1211 109.662C34.737 118.093 11.1507 139.505 0.0389035 166.902C-0.076245 167.189 0.0580949 167.533 0.365158 167.647C0.441923 167.667 0.499498 167.686 0.576263 167.686C0.80656 167.686 1.01767 167.552 1.11362 167.322C11.5346 141.628 33.0865 121.267 59.2253 112.109V136.351C59.2253 136.351 59.1869 136.351 59.1677 136.351C51.0689 136.351 44.4862 142.908 44.4862 150.976V182.445C44.4862 182.77 44.7357 183.019 45.062 183.019H48.4013C48.7275 183.019 48.977 182.77 48.977 182.445C48.977 182.12 48.7275 181.871 48.4013 181.871H45.6377V150.976C45.6377 143.539 51.7022 137.498 59.1677 137.498C66.6331 137.498 72.6976 143.539 72.6976 150.976V181.871H67.8422C67.5159 181.871 67.2664 182.12 67.2664 182.445C67.2664 182.77 67.5159 183.019 67.8422 183.019H73.2734C73.5996 183.019 73.8491 182.77 73.8491 182.445V150.976C73.8491 143.31 67.8998 137.02 60.3384 136.408C60.3384 136.408 60.3384 136.389 60.3384 136.37V111.746C60.5111 111.688 60.703 111.631 60.8757 111.574L90.7951 144.61C90.9103 144.725 91.0638 144.801 91.2173 144.801C91.3901 144.801 91.5436 144.725 91.6396 144.61L121.463 111.382C121.847 111.497 122.211 111.65 122.595 111.784C122.538 111.86 122.48 111.956 122.48 112.052V165.774C118.085 166.08 114.612 169.693 114.612 174.129C114.612 178.564 118.412 182.541 123.056 182.541C127.7 182.541 131.5 178.755 131.5 174.129C131.5 169.502 128.007 166.061 123.632 165.774V112.147C130.329 114.48 136.778 117.5 142.823 121.247C142.881 121.286 142.938 121.286 142.996 121.305V152.315C142.996 157.763 147.448 162.199 152.899 162.199H173.261C174.662 167.953 179.882 172.102 185.869 172.102H258.912C266.09 172.102 271.905 166.29 271.905 159.159V61.5602C271.905 54.41 266.07 48.6172 258.912 48.6172L258.989 48.5789ZM130.425 174.129C130.425 178.143 127.144 181.393 123.133 181.393C119.122 181.393 115.84 178.124 115.84 174.129C115.84 170.133 119.122 166.864 123.133 166.864C127.144 166.864 130.425 170.133 130.425 174.129ZM120.331 110.981L112.29 119.947V108.859C115.034 109.451 117.74 110.178 120.331 110.981ZM125.436 49.0569C129.274 49.3628 131.769 52.5747 131.769 57.2586V59.1322C131.769 63.6441 127.47 67.9075 122.941 67.9075C122.672 67.9075 122.461 68.0796 122.384 68.3281L117.241 87.4272C114.631 65.5942 120.216 60.394 120.273 60.3367C120.312 60.2984 120.331 60.2411 120.369 60.2028C120.388 60.1646 120.427 60.1646 120.446 60.1264L125.301 48.9613C125.301 48.9613 125.378 49.0378 125.436 49.0378V49.0569ZM60.1848 59.6866L55.6748 45.5009C78.2248 37.9492 103.001 37.9301 125.57 45.4435L119.563 59.2469C100.775 54.3144 80.1247 54.3718 61.3747 59.3808L60.1656 59.7058L60.1848 59.6866ZM56.5768 20.628C57.095 9.71151 66.115 1.14653 77.0925 1.14653H104.383C115.36 1.14653 124.38 9.71151 124.898 20.628L126.031 44.3538C103.25 36.7447 78.2248 36.7447 55.4637 44.3538L56.596 20.628H56.5768ZM59.0141 68.3281C58.9566 68.0796 58.7263 67.9075 58.4576 67.9075C53.9284 67.9075 49.6295 63.6441 49.6295 59.1322V57.2586C49.6295 52.7276 51.9709 49.5922 55.6365 49.1143L59.2636 60.547C59.2636 60.547 59.2636 60.547 59.2828 60.5661C59.3212 60.6426 59.3788 60.719 59.4364 60.7764C59.4364 60.7764 59.4555 60.8146 59.4747 60.8337C59.5323 60.872 64.0039 64.4471 63.6968 85.7831L58.9949 68.3281H59.0141ZM60.8565 60.6808L61.6817 60.4514C80.1055 55.538 100.391 55.4424 118.872 60.222C117.203 62.497 113.307 70.4502 116.78 92.4745C94.4031 96.8525 87.8205 96.7378 64.6756 91.5377C65.712 69.8384 62.411 62.7647 60.8565 60.6808ZM63.4474 110.713C65.5392 110.082 67.4967 109.585 69.4351 109.146V119.24L62.1231 111.172C62.5646 111.038 63.006 110.866 63.4474 110.732V110.713ZM91.2749 143.348L70.5098 120.406C70.5098 120.406 70.5866 120.292 70.5866 120.215V94.0039C79.4722 95.8584 85.8054 96.757 92.2345 96.757C97.9152 96.757 103.711 96.0305 111.388 94.6539C111.253 94.7495 111.138 94.9025 111.138 95.0937V120.942C111.138 120.942 111.196 121.056 111.215 121.133L91.2749 143.329V143.348ZM144.224 152.296V44.9656C144.224 38.1021 149.828 32.5196 156.718 32.5196H231.391C238.991 32.5196 245.19 38.6948 245.19 46.2656V152.276C245.19 157.094 241.256 161.013 236.42 161.013H152.975C148.139 161.013 144.224 157.094 144.224 152.276V152.296ZM270.849 159.121C270.849 165.621 265.533 170.917 259.008 170.917H185.965C180.592 170.917 175.928 167.265 174.546 162.161H236.439C241.908 162.161 246.361 157.725 246.361 152.276V144.725H262.693C263.019 144.725 263.268 144.476 263.268 144.151C263.268 143.826 263.019 143.578 262.693 143.578H246.361V138.454H262.693C263.019 138.454 263.268 138.205 263.268 137.88C263.268 137.555 263.019 137.307 262.693 137.307H246.361V132.202H262.693C263.019 132.202 263.268 131.954 263.268 131.629C263.268 131.304 263.019 131.055 262.693 131.055H246.361V125.951H262.693C263.019 125.951 263.268 125.702 263.268 125.377C263.268 125.052 263.019 124.803 262.693 124.803H246.361V119.699H262.693C263.019 119.699 263.268 119.45 263.268 119.125C263.268 118.8 263.019 118.552 262.693 118.552H246.361V113.447H262.693C263.019 113.447 263.268 113.199 263.268 112.874C263.268 112.549 263.019 112.3 262.693 112.3H246.361V106.048H262.693C263.019 106.048 263.268 105.8 263.268 105.475C263.268 105.15 263.019 104.901 262.693 104.901H246.361V99.7968H262.693C263.019 99.7968 263.268 99.5482 263.268 99.2232C263.268 98.8982 263.019 98.6497 262.693 98.6497H246.361V93.5451H262.693C263.019 93.5451 263.268 93.2966 263.268 92.9715C263.268 92.6465 263.019 92.398 262.693 92.398H246.361V87.2934H262.693C263.019 87.2934 263.268 87.0449 263.268 86.7199C263.268 86.3949 263.019 86.1463 262.693 86.1463H246.361V81.0226H262.693C263.019 81.0226 263.268 80.7741 263.268 80.4491C263.268 80.1241 263.019 79.8755 262.693 79.8755H246.361V74.771H262.693C263.019 74.771 263.268 74.5224 263.268 74.1974C263.268 73.8724 263.019 73.6239 262.693 73.6239H246.361V49.7452H259.008C265.533 49.7452 270.849 55.0409 270.849 61.5411V159.14V159.121Z" fill="#221E1F"/>
</g>
<defs>
<clipPath id="clip0_460_14341">
<rect width="272" height="183" fill="white"/>
</clipPath>
</defs>
</svg>
