<svg width="1739" height="765" viewBox="0 0 1739 765" fill="none" xmlns="http://www.w3.org/2000/svg">
<path d="M1207.48 366.634C1207.48 295.134 1272.68 237.165 1344.18 237.165C1415.69 237.165 1480.88 295.132 1480.88 366.634L1473.65 525.379C1473.65 596.884 1393.2 654.848 1344.19 654.848C1295.17 654.848 1214.71 596.884 1214.71 525.379L1207.48 366.634Z" stroke="#1A1818" stroke-width="1.5" stroke-miterlimit="10"/>
<path d="M959.975 167.769V332.693C959.975 341.694 963.55 350.326 969.915 356.691C976.279 363.056 984.911 366.632 993.912 366.633H1057.21C1060.16 366.627 1063.08 365.971 1065.75 364.711C1068.42 363.45 1070.78 361.617 1072.66 359.341C1074.55 357.065 1075.9 354.402 1076.64 351.542C1077.37 348.682 1077.47 345.695 1076.92 342.793C1070.98 311.08 1053.41 282.728 1027.65 263.292C1001.9 243.856 969.813 234.736 937.685 237.719C905.558 240.703 875.701 255.574 853.965 279.419C832.229 303.265 820.179 334.367 820.176 366.633H820.181V525.375C820.181 527.675 820.241 529.963 820.348 532.238C821.698 557.938 860.191 556.67 860.191 530.938V213.264C860.191 206.183 863.004 199.392 868.011 194.384C873.018 189.377 879.81 186.564 886.891 186.564H1156.68C1161.21 185.734 1165.3 183.342 1168.25 179.805C1171.2 176.267 1172.82 171.808 1172.82 167.202V167.177C1172.82 166.999 1172.82 166.818 1172.81 166.636C1172.74 164.048 1172.16 161.499 1171.11 159.134C1170.06 156.77 1168.54 154.637 1166.67 152.856C1164.79 151.076 1162.57 149.684 1160.15 148.759C1157.74 147.834 1155.16 147.395 1152.57 147.467L982.443 145.554C979.504 145.521 976.588 146.071 973.864 147.173C971.14 148.274 968.661 149.905 966.571 151.971C964.482 154.037 962.823 156.498 961.69 159.209C960.558 161.921 959.975 164.831 959.975 167.769Z" stroke="#1A1818" stroke-width="1.5" stroke-linecap="round" stroke-linejoin="round"/>
<path d="M1232.04 353.639C1232.92 354.439 1233.83 355.229 1234.77 356.01" stroke="#1A1818" stroke-width="1.5" stroke-miterlimit="10"/>
<path d="M1240.34 360.271C1244.27 363.031 1248.38 365.532 1252.63 367.759C1276.06 380.09 1308.43 387.724 1344.18 387.724C1388.43 387.724 1427.5 376.032 1450.86 358.193" stroke="#1A1818" stroke-width="1.5" stroke-miterlimit="10" stroke-dasharray="2.56 2.56"/>
<path d="M1453.62 356.002C1454.55 355.225 1455.46 354.437 1456.34 353.639" stroke="#1A1818" stroke-width="1.5" stroke-miterlimit="10"/>
<path d="M1436.58 607.978V632.534C1436.58 663.962 1449.07 694.103 1471.29 716.326C1493.51 738.549 1523.66 751.034 1555.08 751.034C1566.67 751.034 1577.78 746.433 1585.97 738.243C1594.16 730.052 1598.76 718.944 1598.76 707.361V671.438C1598.76 652.085 1589.29 633.694 1572.97 623.284C1563.85 617.461 1553.06 614.451 1541.9 619.72C1512.12 633.772 1524.84 671.908 1551.6 671.908H1713.04C1719.56 671.908 1725.82 669.318 1730.43 664.708C1735.04 660.098 1737.63 653.845 1737.63 647.325V582.16C1737.63 576.425 1736.29 570.769 1733.71 565.65C1731.13 560.53 1727.37 556.09 1722.76 552.689C1718.14 549.288 1712.79 547.022 1707.13 546.073C1701.47 545.125 1695.67 545.521 1690.2 547.229C1676.91 551.416 1624.99 578.906 1607.14 578.906H1553.61C1544.3 578.906 1535.36 575.205 1528.77 568.618C1522.19 562.03 1518.48 553.095 1518.48 543.779C1518.48 534.463 1522.19 525.528 1528.77 518.94C1535.36 512.353 1544.3 508.652 1553.61 508.652H1641.19C1658.27 508.504 1674.6 501.631 1686.65 489.522C1698.69 477.414 1705.47 461.046 1705.53 443.968C1705.59 426.89 1698.91 410.479 1686.95 398.291C1674.98 386.104 1658.7 379.123 1641.62 378.862H1637.55C1633.66 378.862 1629.92 380.408 1627.17 383.159C1624.42 385.911 1622.88 389.643 1622.88 393.534C1622.88 401.634 1629.15 406.823 1637.55 408.203C1671.55 410.963 1682.08 388.265 1682.08 363.671V151.712C1681.56 145.382 1678.63 139.494 1673.88 135.271C1669.14 131.047 1662.95 128.811 1656.6 129.027H1620.81C1618.18 129.027 1615.58 129.545 1613.15 130.552C1610.72 131.559 1608.51 133.035 1606.65 134.895C1604.79 136.756 1603.31 138.964 1602.31 141.395C1601.3 143.825 1600.78 146.43 1600.78 149.061" stroke="#1A1818" stroke-width="1.5" stroke-miterlimit="10"/>
<path d="M1079.11 454.499H1089.74C1098.09 454.499 1106.11 457.82 1112.02 463.73C1117.93 469.64 1121.25 477.657 1121.25 486.015C1121.25 494.374 1117.93 502.39 1112.02 508.3C1106.11 514.211 1098.09 517.531 1089.74 517.531H1079.11" stroke="#1A1818" stroke-width="1.5" stroke-miterlimit="10"/>
<path d="M820.176 454.499H806.506C798.148 454.499 790.131 457.82 784.221 463.73C778.311 469.64 774.99 477.657 774.99 486.015C774.99 494.374 778.311 502.39 784.221 508.3C790.131 514.211 798.148 517.531 806.506 517.531H819.013" stroke="#1A1818" stroke-width="1.5" stroke-miterlimit="10"/>
<path d="M1023.24 558.499C974.499 566.478 924.783 566.478 876.041 558.499V492.599C924.783 500.578 974.499 500.578 1023.24 492.599V558.499Z" stroke="#1A1818" stroke-width="1.5" stroke-miterlimit="10" stroke-dasharray="2.63 2.63"/>
<path d="M1257.06 613.231V652.16C1256.97 681.695 1245.17 709.991 1224.26 730.845C1203.34 751.698 1175.01 763.409 1145.48 763.409C1115.94 763.409 1087.61 751.698 1066.69 730.845C1045.78 709.991 1033.98 681.695 1033.89 652.16V629.58" stroke="#1A1818" stroke-width="1.5" stroke-miterlimit="10"/>
<path d="M1397.56 436.74C1397.56 436.74 1316.94 426.25 1346.36 493.623C1374.92 559.023 1339.9 575.147 1316.02 562.723" stroke="#1A1818" stroke-width="1.5" stroke-miterlimit="10" stroke-linecap="round"/>
<path d="M1364.02 476.742C1364.02 476.742 1385.96 506.142 1427.15 476.742" stroke="#1A1818" stroke-width="1.5" stroke-miterlimit="10" stroke-linecap="round"/>
<path d="M1087.11 66.7957C1115.68 61.4957 1150.7 70.5907 1192.68 113.158C1239 160.143 1200.18 171.613 1200.18 171.613" stroke="#1A1818" stroke-width="1.5" stroke-linecap="round" stroke-linejoin="round"/>
<path d="M1106.08 146.543L1035.85 81.7043L1066.82 48.1523L1201.39 172.394L1170.41 205.936L1150.57 187.615" stroke="#1A1818" stroke-width="1.5" stroke-linecap="round" stroke-linejoin="round"/>
<path d="M1067.88 30.9645L1018.8 84.1182L1026.8 91.5015L1075.87 38.3478L1067.88 30.9645Z" stroke="#1A1818" stroke-width="1.5" stroke-linecap="round" stroke-linejoin="round"/>
<path d="M1012.4 1.37355L984.895 31.1914L992.894 38.5707L1020.4 8.75285L1012.4 1.37355Z" stroke="#1A1818" stroke-width="1.5" stroke-linecap="round" stroke-linejoin="round"/>
<path d="M1013.84 17.2717L1000.86 31.3457L1036.16 63.9173L1049.14 49.8433L1013.84 17.2717Z" stroke="#1A1818" stroke-width="1.5" stroke-linecap="round" stroke-linejoin="round"/>
<path d="M1192.39 182.13L1179.41 196.204L1200.9 216.028L1213.88 201.954L1192.39 182.13Z" stroke="#1A1818" stroke-width="1.5" stroke-linecap="round" stroke-linejoin="round"/>
<path d="M1207.38 209.002L1237.88 237.163" stroke="#1A1818" stroke-width="1.5" stroke-linecap="round" stroke-linejoin="round"/>
<path d="M1103.07 81.6211L1087.58 98.3951" stroke="#1A1818" stroke-width="1.5" stroke-linecap="round" stroke-linejoin="round"/>
<path d="M1117.15 94.624L1101.67 111.398" stroke="#1A1818" stroke-width="1.5" stroke-linecap="round" stroke-linejoin="round"/>
<path d="M1131.24 107.627L1115.75 124.401" stroke="#1A1818" stroke-width="1.5" stroke-linecap="round" stroke-linejoin="round"/>
<path d="M1145.32 120.629L1129.83 137.403" stroke="#1A1818" stroke-width="1.5" stroke-linecap="round" stroke-linejoin="round"/>
<path d="M1215.43 517.531H1202.93C1194.57 517.531 1186.55 514.211 1180.64 508.301C1174.73 502.39 1171.41 494.374 1171.41 486.015C1171.41 477.657 1174.73 469.641 1180.64 463.73C1186.55 457.82 1194.57 454.499 1202.93 454.499H1233.81C1243.84 454.499 1253.46 450.515 1260.56 443.422C1267.65 436.33 1271.63 426.711 1271.63 416.68C1271.63 406.65 1267.65 397.031 1260.56 389.938C1253.46 382.846 1243.84 378.861 1233.81 378.861H1110.78C1102.38 378.862 1094.33 382.199 1088.39 388.138C1082.45 394.078 1079.11 402.133 1079.11 410.532V525.378C1079.11 558.178 1067.63 591.214 1048.4 616.061C1042.44 623.656 1034.83 629.794 1026.14 634.009C1017.46 638.224 1007.93 640.406 998.274 640.389C971.081 640.702 971.334 629.506 921.012 638.789L918.26 639.239C904.507 641.492 889.717 640.394 878.225 632.799C856.918 618.72 852.434 586.063 852.434 586.063C851.754 582.504 849.772 579.325 846.874 577.149C843.977 574.973 840.371 573.955 836.763 574.296C833.155 574.636 829.804 576.309 827.364 578.989C824.924 581.668 823.571 585.161 823.57 588.785L825.47 657.885C825.558 661.103 826.898 664.159 829.205 666.403C831.512 668.648 834.604 669.904 837.823 669.904H886.271C898.182 669.904 909.605 674.636 918.028 683.059C926.451 691.481 931.183 702.905 931.183 714.816C931.183 726.728 926.451 738.151 918.028 746.574C909.605 754.997 898.182 759.728 886.271 759.728C886.271 759.728 853 767.856 767.424 726.776C659.366 674.901 613.23 724.971 558.214 741.522C558.214 741.522 444.446 780.333 311.64 710.384C233.848 669.408 139.356 693.594 74.4226 720.663C15.5766 745.169 -47.9806 756.288 -111.651 753.218C-175.322 750.147 -237.514 732.962 -293.728 702.907C-295.506 701.958 -297.292 700.993 -299.084 700.012C-478.228 602.158 -606.191 737.091 -606.191 737.091" stroke="#1A1818" stroke-width="1.5" stroke-miterlimit="10"/>
<path d="M1219.08 663.489C1219.08 678.045 1214.76 692.275 1206.67 704.379C1198.59 716.482 1187.09 725.916 1173.64 731.486C1160.19 737.057 1145.4 738.514 1131.12 735.675C1116.84 732.835 1103.73 725.825 1093.43 715.532C1083.14 705.239 1076.13 692.124 1073.29 677.847C1070.45 663.57 1071.91 648.772 1077.48 635.323C1083.05 621.875 1092.48 610.38 1104.59 602.293C1116.69 594.205 1130.92 589.889 1145.48 589.889C1165 589.889 1183.72 597.643 1197.52 611.446C1211.32 625.248 1219.08 643.969 1219.08 663.489Z" stroke="#1A1818" stroke-width="1.5" stroke-miterlimit="10"/>
<path d="M1709.72 609.624H1699.22C1698.32 609.624 1697.43 609.447 1696.59 609.101C1695.76 608.755 1695 608.249 1694.36 607.61C1693.72 606.972 1693.22 606.214 1692.87 605.38C1692.53 604.545 1692.35 603.651 1692.35 602.748V592.258C1692.35 590.435 1691.62 588.686 1690.34 587.396C1689.05 586.106 1687.3 585.382 1685.47 585.382C1683.65 585.382 1681.9 586.106 1680.61 587.396C1679.32 588.686 1678.6 590.435 1678.6 592.258V602.748C1678.6 604.572 1677.87 606.321 1676.58 607.61C1675.29 608.9 1673.54 609.624 1671.72 609.624H1661.23C1659.41 609.624 1657.66 610.349 1656.37 611.638C1655.08 612.927 1654.36 614.676 1654.36 616.499C1654.36 618.323 1655.08 620.071 1656.37 621.361C1657.66 622.65 1659.41 623.374 1661.23 623.374H1671.72C1673.54 623.375 1675.29 624.099 1676.58 625.389C1677.87 626.679 1678.6 628.428 1678.6 630.251V640.748C1678.6 642.572 1679.32 644.321 1680.61 645.611C1681.9 646.9 1683.65 647.625 1685.47 647.625C1687.3 647.625 1689.05 646.9 1690.34 645.611C1691.62 644.321 1692.35 642.572 1692.35 640.748V630.248C1692.35 629.345 1692.53 628.451 1692.87 627.617C1693.22 626.783 1693.72 626.024 1694.36 625.386C1695 624.747 1695.76 624.241 1696.59 623.895C1697.43 623.549 1698.32 623.371 1699.22 623.371H1709.72C1711.54 623.371 1713.29 622.647 1714.58 621.358C1715.87 620.068 1716.59 618.32 1716.59 616.496C1716.59 614.673 1715.87 612.924 1714.58 611.635C1713.29 610.346 1711.54 609.621 1709.72 609.621V609.624Z" stroke="#1A1818" stroke-width="1.5" stroke-miterlimit="10"/>
<path d="M1525.63 405.39C1527.46 405.412 1529.23 404.704 1530.54 403.424C1531.85 402.143 1532.6 400.394 1532.63 398.56L1532.99 370.577C1532.99 345.088 1521.87 323.377 1516.7 300.345L1516.64 300.117C1510.47 272.608 1509.64 244.169 1514.2 216.346C1514.47 214.693 1514.07 213.001 1513.1 211.637C1512.13 210.273 1510.66 209.348 1509.01 209.064C1507.36 208.78 1505.66 209.159 1504.29 210.118C1502.92 211.078 1501.98 212.541 1501.68 214.189C1496.72 242.69 1497.43 271.89 1503.77 300.117L1503.82 300.345C1509 323.378 1520.11 345.088 1520.11 370.577L1518.8 398.138C1518.75 399.067 1518.89 399.995 1519.22 400.867C1519.54 401.74 1520.03 402.538 1520.67 403.215C1521.31 403.892 1522.08 404.433 1522.93 404.807C1523.78 405.181 1524.7 405.379 1525.63 405.39Z" stroke="#1A1818" stroke-width="1.5" stroke-linecap="round" stroke-linejoin="round"/>
<path d="M1567.19 405.39C1569.02 405.412 1570.79 404.705 1572.1 403.424C1573.41 402.143 1574.16 400.394 1574.19 398.56L1574.55 370.577C1574.55 345.088 1563.43 323.377 1558.26 300.345L1558.2 300.117C1552.03 272.608 1551.2 244.169 1555.76 216.346C1556.03 214.693 1555.63 213.001 1554.66 211.637C1553.69 210.273 1552.22 209.348 1550.57 209.064C1548.92 208.78 1547.22 209.159 1545.85 210.118C1544.48 211.078 1543.54 212.541 1543.24 214.189C1538.28 242.69 1538.99 271.89 1545.33 300.117L1545.38 300.345C1550.56 323.378 1561.67 345.088 1561.67 370.577L1560.35 398.138C1560.31 399.067 1560.45 399.995 1560.78 400.867C1561.1 401.74 1561.59 402.538 1562.23 403.215C1562.87 403.892 1563.63 404.433 1564.49 404.807C1565.34 405.181 1566.26 405.379 1567.19 405.39Z" stroke="#1A1818" stroke-width="1.5" stroke-linecap="round" stroke-linejoin="round"/>
<path d="M1607.59 157.858C1606.67 159.807 1606.22 161.943 1606.27 164.095V370.547C1606.27 372.753 1605.4 374.869 1603.84 376.429C1602.28 377.988 1600.16 378.864 1597.96 378.864H1587.26C1586.36 378.865 1585.47 379.041 1584.64 379.385C1583.81 379.728 1583.06 380.231 1582.43 380.865C1581.79 381.5 1581.29 382.252 1580.95 383.081C1580.6 383.91 1580.43 384.798 1580.43 385.694V396.42C1580.43 398.155 1580.09 399.873 1579.42 401.476C1578.76 403.079 1577.78 404.535 1576.56 405.762C1575.33 406.989 1573.87 407.962 1572.27 408.625C1570.67 409.289 1568.95 409.63 1567.21 409.629H1566.34C1564.6 409.63 1562.88 409.288 1561.28 408.624C1559.68 407.961 1558.22 406.988 1556.99 405.761C1555.77 404.535 1554.8 403.078 1554.13 401.476C1553.47 399.873 1553.13 398.155 1553.13 396.42V385.296C1553.13 383.474 1552.41 381.725 1551.13 380.425C1549.86 379.125 1548.12 378.38 1546.3 378.348C1544.4 378.379 1542.59 379.157 1541.27 380.513C1539.94 381.869 1539.21 383.693 1539.22 385.589V396.071C1539.22 397.807 1538.88 399.525 1538.21 401.129C1537.55 402.732 1536.58 404.189 1535.35 405.416C1534.12 406.643 1532.66 407.616 1531.06 408.28C1529.46 408.945 1527.74 409.286 1526 409.286C1524.27 409.286 1522.55 408.945 1520.95 408.28C1519.34 407.616 1517.89 406.643 1516.66 405.416C1515.43 404.189 1514.46 402.732 1513.8 401.129C1513.13 399.525 1512.79 397.807 1512.79 396.071V385.693C1512.79 384.797 1512.61 383.908 1512.27 383.079C1511.93 382.251 1511.43 381.498 1510.79 380.863C1510.16 380.229 1509.4 379.726 1508.58 379.383C1507.75 379.039 1506.86 378.863 1505.96 378.863H1455.27C1445.24 378.863 1435.62 382.847 1428.53 389.939C1421.44 397.031 1417.46 406.649 1417.46 416.678C1417.46 426.708 1421.44 436.326 1428.53 443.418C1435.62 450.509 1445.24 454.493 1455.27 454.493H1486.16C1494.51 454.493 1502.53 457.814 1508.44 463.724C1514.35 469.635 1517.67 477.651 1517.67 486.009C1517.67 494.368 1514.35 502.384 1508.44 508.295C1502.53 514.205 1494.51 517.525 1486.16 517.525H1473.64" stroke="#1A1818" stroke-width="1.5" stroke-miterlimit="10"/>
<path d="M1620.45 149.635C1617.74 149.633 1615.09 150.407 1612.81 151.864C1610.53 153.322 1608.72 155.402 1607.59 157.859L1527.11 157.103L1517.57 167.879C1516.85 168.695 1515.89 169.272 1514.83 169.531C1513.77 169.791 1512.66 169.72 1511.64 169.33C1510.62 168.94 1509.75 168.248 1509.13 167.348C1508.52 166.447 1508.2 165.38 1508.2 164.29C1508.2 162.925 1508.73 161.613 1509.68 160.63L1520.15 149.638H1620.5C1624.12 149.65 1627.61 151.053 1630.24 153.557C1632.86 156.061 1634.43 159.476 1634.62 163.1V227.241C1634.62 228.598 1635.15 229.9 1636.11 230.86C1637.07 231.82 1638.38 232.36 1639.73 232.36C1641.09 232.36 1642.39 231.82 1643.35 230.86C1644.31 229.9 1644.85 228.598 1644.85 227.241V203.867C1644.85 202.108 1645.55 200.421 1646.8 199.177C1648.04 197.933 1649.73 197.233 1651.49 197.232H1658.54C1659.41 197.233 1660.28 197.062 1661.08 196.729C1661.89 196.396 1662.62 195.908 1663.24 195.291C1663.85 194.675 1664.34 193.943 1664.67 193.137C1665.01 192.332 1665.18 191.469 1665.18 190.597V157.414C1665.18 156.392 1664.98 155.38 1664.59 154.436C1664.19 153.492 1663.62 152.634 1662.9 151.912C1662.18 151.189 1661.32 150.616 1660.37 150.226C1659.43 149.835 1658.42 149.634 1657.4 149.635H1620.45Z" stroke="#1A1818" stroke-width="1.5" stroke-miterlimit="10"/>
<path d="M1606.28 163.201L1532.04 162.444L1522.49 173.22C1521.77 174.037 1520.81 174.613 1519.75 174.873C1518.69 175.132 1517.58 175.062 1516.56 174.672C1515.54 174.282 1514.67 173.59 1514.05 172.689C1513.44 171.789 1513.11 170.722 1513.12 169.631" stroke="#1A1818" stroke-width="1.5" stroke-miterlimit="10"/>
<path d="M1633.48 158.229H1665.18" stroke="#1A1818" stroke-width="1.5" stroke-miterlimit="10"/>
<path d="M1634.62 163.82H1665.18" stroke="#1A1818" stroke-width="1.5" stroke-miterlimit="10"/>
<path d="M1101.13 291.504L1147.26 245.368C1147.7 244.93 1148.22 244.582 1148.8 244.345C1149.37 244.107 1149.98 243.985 1150.6 243.985C1151.22 243.985 1151.84 244.107 1152.41 244.345C1152.98 244.582 1153.5 244.93 1153.94 245.368L1200.07 291.504C1200.73 292.165 1201.18 293.006 1201.37 293.922C1201.55 294.837 1201.45 295.787 1201.1 296.649C1200.74 297.512 1200.13 298.249 1199.36 298.768C1198.58 299.287 1197.67 299.563 1196.73 299.563H1104.46C1103.53 299.563 1102.62 299.286 1101.84 298.767C1101.07 298.248 1100.46 297.511 1100.1 296.648C1099.75 295.786 1099.65 294.837 1099.83 293.921C1100.02 293.006 1100.47 292.164 1101.13 291.504Z" stroke="#1A1818" stroke-width="1.5" stroke-miterlimit="10"/>
<path d="M1215.25 149.635H1345.07C1350.21 149.635 1355.14 147.593 1358.77 143.959C1362.41 140.325 1364.45 135.396 1364.45 130.257C1364.45 125.118 1362.41 120.189 1358.77 116.555C1355.14 112.921 1350.21 110.879 1345.07 110.879H1319.99C1314.87 110.879 1309.97 112.91 1306.36 116.525C1302.74 120.14 1300.71 125.043 1300.71 130.155V146.755C1300.71 164.123 1307.61 180.78 1319.89 193.061C1332.17 205.342 1348.83 212.242 1366.2 212.242C1383.57 212.242 1400.22 205.342 1412.5 193.061C1424.78 180.78 1431.68 164.123 1431.68 146.755V85.7771C1431.68 85.1156 1431.49 84.469 1431.12 83.919C1430.75 83.369 1430.23 82.9403 1429.62 82.6872C1429.01 82.4341 1428.34 82.3678 1427.69 82.4969C1427.04 82.6259 1426.44 82.9444 1425.97 83.4121L1407.3 102.082C1406.7 102.682 1406.29 103.446 1406.13 104.278C1405.96 105.11 1406.05 105.973 1406.37 106.757C1406.7 107.541 1407.25 108.211 1407.95 108.683C1408.66 109.154 1409.49 109.406 1410.33 109.406H1609.11C1610.74 109.406 1612.36 109.727 1613.87 110.351C1615.37 110.975 1616.75 111.891 1617.9 113.045C1619.05 114.199 1619.97 115.569 1620.59 117.077C1621.22 118.585 1621.54 120.201 1621.54 121.833V129.033" stroke="#1A1818" stroke-width="1.5" stroke-linecap="round" stroke-linejoin="round"/>
<g style="mix-blend-mode:multiply">
<mask id="mask0_460_14159" style="mask-type:luminance" maskUnits="userSpaceOnUse" x="734" y="306" width="121" height="121">
<path d="M854.811 306.195H734.652V426.351H854.811V306.195Z" fill="white"/>
</mask>
<g mask="url(#mask0_460_14159)">
<path d="M854.811 366.275C854.811 378.158 851.287 389.773 844.685 399.652C838.084 409.532 828.701 417.232 817.723 421.779C806.745 426.326 794.666 427.515 783.012 425.197C771.358 422.879 760.653 417.157 752.251 408.755C743.85 400.353 738.128 389.648 735.81 377.994C733.492 366.34 734.681 354.26 739.228 343.283C743.775 332.305 751.476 322.922 761.355 316.321C771.235 309.719 782.85 306.196 794.732 306.195C802.622 306.195 810.435 307.749 817.724 310.769C825.013 313.788 831.636 318.214 837.215 323.792C842.794 329.371 847.219 335.995 850.238 343.284C853.258 350.573 854.811 358.386 854.811 366.275Z" fill="#48BFF4"/>
</g>
</g>
<g style="mix-blend-mode:multiply">
<mask id="mask1_460_14159" style="mask-type:luminance" maskUnits="userSpaceOnUse" x="1642" y="454" width="87" height="87">
<path d="M1728.51 454.428H1642.43V540.511H1728.51V454.428Z" fill="white"/>
</mask>
<g mask="url(#mask1_460_14159)">
<path d="M1728.51 497.47C1728.51 505.982 1725.99 514.304 1721.26 521.382C1716.53 528.46 1709.81 533.976 1701.94 537.234C1694.08 540.491 1685.42 541.343 1677.07 539.683C1668.72 538.022 1661.06 533.923 1655.04 527.903C1649.02 521.884 1644.92 514.215 1643.26 505.866C1641.6 497.517 1642.45 488.863 1645.71 480.998C1648.96 473.133 1654.48 466.411 1661.56 461.682C1668.64 456.952 1676.96 454.428 1685.47 454.428C1696.89 454.428 1707.83 458.963 1715.9 467.035C1723.98 475.107 1728.51 486.054 1728.51 497.47Z" fill="#48BFF4"/>
</g>
</g>
<g style="mix-blend-mode:multiply">
<mask id="mask2_460_14159" style="mask-type:luminance" maskUnits="userSpaceOnUse" x="1366" y="157" width="46" height="133">
<path d="M1411.2 157.02H1366.67V289.151H1411.2V157.02Z" fill="white"/>
</mask>
<g mask="url(#mask2_460_14159)">
<path d="M1411.2 157.02H1366.68V289.151H1411.2V157.02Z" fill="#48BFF4"/>
</g>
</g>
</svg>
