<svg width="375" height="360" viewBox="0 0 375 360" fill="none" xmlns="http://www.w3.org/2000/svg">
<g clip-path="url(#clip0_460_14636)">
<mask id="mask0_460_14636" style="mask-type:luminance" maskUnits="userSpaceOnUse" x="-693" y="4" width="1060" height="346">
<path d="M366.998 4.3252H-692.002V349.674H366.998V4.3252Z" fill="white"/>
</mask>
<g mask="url(#mask0_460_14636)">
<path d="M127.088 169.813C127.088 137.539 156.515 111.375 188.789 111.375C221.063 111.375 250.49 137.535 250.49 169.813L247.227 241.466C247.227 273.741 210.913 299.904 188.788 299.904C166.663 299.904 130.35 273.741 130.35 241.466L127.088 169.813Z" stroke="#1A1818" stroke-width="0.511557" stroke-miterlimit="10"/>
<path d="M15.3682 80.0524V154.494C15.3682 158.557 16.982 162.453 19.8547 165.326C22.7273 168.199 26.6235 169.814 30.6863 169.814H59.2567C60.5901 169.813 61.9068 169.517 63.113 168.949C64.3191 168.38 65.3851 167.553 66.235 166.525C67.0849 165.498 67.6979 164.296 68.0302 163.004C68.3626 161.713 68.4062 160.364 68.1578 159.054C65.4793 144.735 57.5497 131.933 45.9234 123.156C34.297 114.379 19.8119 110.26 5.30689 111.607C-9.19811 112.953 -22.6773 119.668 -32.4891 130.436C-42.3008 141.203 -47.7378 155.247 -47.7344 169.814V241.466C-47.7344 242.503 -47.7068 243.537 -47.6587 244.564C-47.0448 256.163 -29.6754 255.592 -29.6754 243.978V100.587C-29.6751 97.3909 -28.4052 94.3255 -26.1451 92.0654C-23.8849 89.8052 -20.8195 88.5353 -17.6231 88.535H104.154C106.198 88.1605 108.047 87.0818 109.378 85.4861C110.71 83.8905 111.44 81.8789 111.443 79.8007V79.7894C111.443 79.7086 111.443 79.6268 111.437 79.5459C111.406 78.3778 111.145 77.2271 110.669 76.1599C110.193 75.0926 109.511 74.1297 108.662 73.3261C107.814 72.5225 106.815 71.894 105.724 71.4766C104.632 71.0592 103.469 70.861 102.301 70.8935L25.5093 70.03C24.1834 70.0148 22.8676 70.2628 21.6381 70.7597C20.4087 71.2565 19.29 71.9923 18.3468 72.9244C17.4036 73.8565 16.6547 74.9665 16.1434 76.19C15.6322 77.4135 15.3687 78.7263 15.3682 80.0524Z" stroke="#1A1818" stroke-width="0.511557" stroke-linecap="round" stroke-linejoin="round"/>
<path d="M138.172 163.947C138.568 164.309 138.977 164.665 139.4 165.017" stroke="#1A1818" stroke-width="0.511557" stroke-miterlimit="10"/>
<path d="M141.914 166.94C143.689 168.184 145.542 169.312 147.462 170.317C158.038 175.882 172.647 179.328 188.783 179.328C208.759 179.328 226.396 174.051 236.938 165.999" stroke="#1A1818" stroke-width="0.511557" stroke-miterlimit="10" stroke-dasharray="2.62 2.62"/>
<path d="M238.186 165.013C238.608 164.663 239.017 164.307 239.413 163.947" stroke="#1A1818" stroke-width="0.511557" stroke-miterlimit="10"/>
<path d="M230.496 278.749V289.833C230.496 296.857 231.879 303.812 234.567 310.302C237.255 316.791 241.195 322.688 246.162 327.654C251.129 332.621 257.026 336.561 263.515 339.249C270.005 341.937 276.96 343.32 283.984 343.32C289.213 343.32 294.227 341.243 297.924 337.546C301.621 333.85 303.698 328.836 303.699 323.608V307.393C303.736 303.085 302.689 298.837 300.655 295.039C298.621 291.241 295.666 288.016 292.06 285.658C287.942 283.03 283.073 281.668 278.033 284.049C264.593 290.392 270.332 307.605 282.412 307.605H355.283C356.74 307.605 358.183 307.318 359.529 306.76C360.876 306.203 362.099 305.386 363.129 304.355C364.159 303.325 364.977 302.102 365.534 300.755C366.092 299.409 366.379 297.966 366.379 296.509V267.096C366.383 264.507 365.777 261.954 364.611 259.643C363.445 257.332 361.751 255.328 359.667 253.793C357.582 252.258 355.166 251.235 352.613 250.807C350.06 250.379 347.442 250.557 344.971 251.329C338.972 253.218 315.538 265.627 307.481 265.627H283.319C279.168 265.545 275.215 263.839 272.308 260.874C269.401 257.91 267.773 253.923 267.773 249.771C267.773 245.62 269.401 241.633 272.308 238.669C275.215 235.704 279.168 233.998 283.319 233.916H322.852C330.62 233.942 338.081 230.88 343.592 225.405C349.104 219.93 352.214 212.49 352.24 204.721C352.266 196.952 349.204 189.492 343.729 183.98C338.254 178.469 330.814 175.358 323.045 175.333H321.203C319.447 175.333 317.762 176.03 316.52 177.272C315.278 178.514 314.581 180.199 314.581 181.955C314.581 185.613 317.412 187.954 321.203 188.577C336.55 189.823 341.304 179.574 341.304 168.477V72.8044C341.07 69.9471 339.745 67.2897 337.604 65.3833C335.463 63.4768 332.67 62.4676 329.805 62.565H313.655C311.257 62.5653 308.957 63.5181 307.262 65.2138C305.566 66.9096 304.614 69.2093 304.614 71.6073" stroke="#1A1818" stroke-width="0.511557" stroke-miterlimit="10"/>
<path d="M69.1445 209.473H73.9399C77.7127 209.473 81.331 210.971 83.9987 213.639C86.6665 216.307 88.1653 219.925 88.1653 223.698C88.1653 227.471 86.6665 231.089 83.9987 233.757C81.331 236.425 77.7127 237.923 73.9399 237.923H69.1445" stroke="#1A1818" stroke-width="0.511557" stroke-miterlimit="10"/>
<path d="M43.9245 256.416C21.9235 260.018 -0.51666 260.018 -22.5176 256.416V226.668C-0.516658 230.27 21.9235 230.27 43.9245 226.668V256.416Z" stroke="#1A1818" stroke-width="0.511557" stroke-miterlimit="10" stroke-dasharray="2.69 2.69"/>
<path d="M149.464 281.12V298.691C149.464 312.049 144.158 324.859 134.712 334.304C125.267 343.75 112.457 349.056 99.0992 349.056C85.7416 349.056 72.9311 343.75 63.4859 334.304C54.0406 324.859 48.7344 312.049 48.7344 298.691V288.499" stroke="#1A1818" stroke-width="0.511557" stroke-miterlimit="10"/>
<path d="M212.883 201.456C212.883 201.456 176.495 196.721 189.773 227.137C202.664 256.656 186.857 263.934 176.078 258.328" stroke="#1A1818" stroke-width="0.511557" stroke-miterlimit="10" stroke-linecap="round"/>
<path d="M197.744 219.514C197.744 219.514 207.648 232.784 226.239 219.514" stroke="#1A1818" stroke-width="0.511557" stroke-miterlimit="10" stroke-linecap="round"/>
<path d="M72.7539 34.4751C85.6513 32.0831 101.456 36.1878 120.403 55.4019C141.312 76.61 123.787 81.787 123.787 81.787" stroke="#1A1818" stroke-width="0.511557" stroke-linecap="round" stroke-linejoin="round"/>
<path d="M81.3184 70.4709L49.6172 41.2026L63.597 26.0605L124.336 82.1385L110.355 97.2806L101.399 89.0107" stroke="#1A1818" stroke-width="0.511557" stroke-linecap="round" stroke-linejoin="round"/>
<path d="M64.0737 18.3027L41.9219 42.2949L45.5316 45.6277L67.6834 21.6355L64.0737 18.3027Z" stroke="#1A1818" stroke-width="0.511557" stroke-linecap="round" stroke-linejoin="round"/>
<path d="M39.0336 4.94405L26.6172 18.4033L30.2275 21.7339L42.6439 8.27465L39.0336 4.94405Z" stroke="#1A1818" stroke-width="0.511557" stroke-linecap="round" stroke-linejoin="round"/>
<path d="M39.6813 12.122L33.8203 18.4746L49.7551 33.1763L55.6161 26.8237L39.6813 12.122Z" stroke="#1A1818" stroke-width="0.511557" stroke-linecap="round" stroke-linejoin="round"/>
<path d="M120.275 86.5332L114.414 92.8857L124.113 101.834L129.974 95.4814L120.275 86.5332Z" stroke="#1A1818" stroke-width="0.511557" stroke-linecap="round" stroke-linejoin="round"/>
<path d="M127.041 98.6631L140.809 111.374" stroke="#1A1818" stroke-width="0.511557" stroke-linecap="round" stroke-linejoin="round"/>
<path d="M79.9587 41.167L72.9688 48.738" stroke="#1A1818" stroke-width="0.511557" stroke-linecap="round" stroke-linejoin="round"/>
<path d="M86.3141 47.0371L79.3242 54.6082" stroke="#1A1818" stroke-width="0.511557" stroke-linecap="round" stroke-linejoin="round"/>
<path d="M92.6696 52.9043L85.6797 60.4753" stroke="#1A1818" stroke-width="0.511557" stroke-linecap="round" stroke-linejoin="round"/>
<path d="M99.027 58.7734L92.0371 66.3445" stroke="#1A1818" stroke-width="0.511557" stroke-linecap="round" stroke-linejoin="round"/>
<path d="M130.673 237.924H125.033C121.26 237.924 117.642 236.425 114.974 233.757C112.306 231.089 110.807 227.471 110.807 223.698C110.807 219.925 112.306 216.307 114.974 213.639C117.642 210.972 121.26 209.473 125.033 209.473H138.973C141.225 209.49 143.459 209.062 145.546 208.212C147.632 207.362 149.529 206.107 151.129 204.52C152.728 202.933 153.997 201.046 154.863 198.966C155.729 196.886 156.175 194.656 156.175 192.403C156.175 190.15 155.729 187.919 154.863 185.84C153.997 183.76 152.728 181.872 151.129 180.285C149.529 178.698 147.632 177.444 145.546 176.594C143.459 175.744 141.225 175.315 138.973 175.333H83.4389C79.6477 175.333 76.0119 176.839 73.3312 179.52C70.6504 182.2 69.1443 185.836 69.144 189.627V241.467C69.0847 256.253 64.2194 270.619 55.2818 282.398C52.5917 285.827 49.1561 288.597 45.2358 290.5C41.3155 292.402 37.0133 293.387 32.6556 293.379C20.3783 293.521 20.4959 288.469 -2.21824 292.656L-3.46035 292.861C-9.66861 293.878 -16.3434 293.383 -21.5306 289.954C-31.1479 283.6 -33.1716 268.859 -33.1716 268.859C-33.4783 267.253 -34.373 265.819 -35.6808 264.837C-36.9887 263.854 -38.6158 263.395 -40.2441 263.549C-41.8724 263.702 -43.385 264.457 -44.4863 265.666C-45.5877 266.875 -46.1987 268.452 -46.1999 270.087L-45.3405 301.278C-45.3 302.73 -44.6948 304.109 -43.6535 305.121C-42.6122 306.134 -41.217 306.7 -39.7645 306.7H-17.8965C-12.52 306.7 -7.36375 308.836 -3.56201 312.638C0.239724 316.44 2.37554 321.596 2.37554 326.972C2.37554 332.349 0.239724 337.505 -3.56201 341.307C-7.36375 345.109 -12.52 347.244 -17.8965 347.244C-17.8965 347.244 -32.9138 350.913 -71.5404 332.37C-120.314 308.955 -141.139 331.552 -165.974 339.026C-165.974 339.026 -217.325 356.543 -277.27 324.971C-312.384 306.475 -355.034 317.392 -384.343 329.611C-410.905 340.672 -439.593 345.691 -468.332 344.305C-497.071 342.919 -525.143 335.162 -550.516 321.596C-551.319 321.168 -552.125 320.732 -552.934 320.289C-633.794 276.123 -691.553 337.025 -691.553 337.025" stroke="#1A1818" stroke-width="0.511557" stroke-miterlimit="10"/>
<path d="M132.32 303.804C132.32 310.374 130.372 316.797 126.722 322.261C123.071 327.724 117.883 331.982 111.812 334.497C105.742 337.012 99.062 337.67 92.6175 336.388C86.1731 335.106 80.2535 331.942 75.6073 327.296C70.9612 322.65 67.7971 316.73 66.5153 310.286C65.2334 303.841 65.8914 297.161 68.406 291.091C70.9206 285.02 75.1788 279.832 80.6422 276.181C86.1056 272.531 92.5289 270.583 99.0996 270.583C107.91 270.583 116.36 274.083 122.59 280.313C128.82 286.543 132.32 294.993 132.32 303.804Z" stroke="#1A1818" stroke-width="0.511557" stroke-miterlimit="10"/>
<path d="M353.78 279.491H349.045C348.637 279.491 348.234 279.41 347.857 279.254C347.481 279.098 347.139 278.869 346.851 278.581C346.563 278.293 346.334 277.951 346.178 277.574C346.022 277.198 345.942 276.794 345.942 276.387V271.652C345.95 271.239 345.875 270.83 345.723 270.447C345.57 270.063 345.343 269.715 345.054 269.42C344.765 269.126 344.42 268.892 344.04 268.733C343.659 268.573 343.251 268.491 342.839 268.491C342.426 268.491 342.018 268.573 341.638 268.733C341.258 268.892 340.913 269.126 340.624 269.42C340.335 269.715 340.108 270.063 339.955 270.447C339.802 270.83 339.728 271.239 339.735 271.652V276.387C339.735 277.21 339.408 277.999 338.826 278.582C338.244 279.164 337.454 279.491 336.631 279.491H331.896C331.073 279.491 330.284 279.818 329.702 280.4C329.12 280.982 328.793 281.771 328.793 282.594C328.793 283.417 329.12 284.206 329.702 284.788C330.284 285.37 331.073 285.697 331.896 285.697H336.631C337.454 285.697 338.244 286.024 338.826 286.606C339.408 287.188 339.735 287.978 339.735 288.801V293.537C339.75 294.351 340.083 295.126 340.664 295.696C341.244 296.266 342.025 296.585 342.839 296.585C343.652 296.585 344.433 296.266 345.014 295.696C345.594 295.126 345.928 294.351 345.942 293.537V288.801C345.942 288.394 346.022 287.99 346.178 287.614C346.334 287.237 346.563 286.895 346.851 286.607C347.139 286.318 347.481 286.09 347.857 285.934C348.234 285.778 348.637 285.697 349.045 285.697H353.78C354.603 285.697 355.393 285.37 355.975 284.788C356.557 284.206 356.884 283.417 356.884 282.594C356.884 281.771 356.557 280.982 355.975 280.4C355.393 279.818 354.603 279.491 353.78 279.491Z" stroke="#1A1818" stroke-width="0.511557" stroke-miterlimit="10"/>
<path d="M270.689 187.306C271.516 187.316 272.315 186.997 272.907 186.419C273.5 185.841 273.839 185.051 273.85 184.224L274.016 171.593C274.016 160.088 268.994 150.289 266.663 139.892L266.635 139.79C263.849 127.373 263.474 114.536 265.531 101.977C265.66 101.228 265.486 100.459 265.048 99.8378C264.609 99.2169 263.942 98.7956 263.193 98.6666C262.444 98.5376 261.675 98.7114 261.054 99.1498C260.433 99.5882 260.011 100.255 259.882 101.004C257.644 113.869 257.964 127.049 260.826 139.79L260.847 139.892C263.184 150.289 268.2 160.088 268.2 171.593L267.606 184.033C267.586 184.452 267.651 184.871 267.796 185.265C267.942 185.658 268.165 186.019 268.452 186.324C268.74 186.63 269.086 186.874 269.471 187.043C269.855 187.211 270.269 187.301 270.689 187.306Z" stroke="#1A1818" stroke-width="0.511557" stroke-linecap="round" stroke-linejoin="round"/>
<path d="M289.444 187.306C290.271 187.316 291.069 186.997 291.662 186.419C292.255 185.841 292.593 185.051 292.604 184.224L292.77 171.593C292.77 160.088 287.749 150.289 285.417 139.892L285.389 139.79C282.603 127.373 282.228 114.536 284.285 101.977C284.414 101.228 284.24 100.459 283.802 99.8378C283.363 99.2169 282.696 98.7956 281.947 98.6666C281.198 98.5376 280.429 98.7114 279.808 99.1498C279.187 99.5882 278.765 100.255 278.636 101.004C276.398 113.869 276.718 127.049 279.58 139.79L279.601 139.892C281.938 150.289 286.954 160.088 286.954 171.593L286.36 184.033C286.34 184.452 286.405 184.871 286.55 185.265C286.696 185.659 286.919 186.019 287.207 186.324C287.495 186.63 287.841 186.874 288.225 187.043C288.61 187.212 289.024 187.301 289.444 187.306Z" stroke="#1A1818" stroke-width="0.511557" stroke-linecap="round" stroke-linejoin="round"/>
<path d="M307.682 75.5771C307.268 76.4569 307.066 77.4209 307.09 78.3928V171.579C307.09 172.072 306.992 172.56 306.804 173.016C306.615 173.471 306.338 173.885 305.989 174.234C305.64 174.582 305.226 174.859 304.771 175.047C304.315 175.236 303.827 175.333 303.334 175.333H298.503C298.098 175.333 297.697 175.413 297.323 175.568C296.949 175.722 296.61 175.95 296.323 176.236C296.037 176.522 295.81 176.862 295.655 177.236C295.501 177.61 295.421 178.011 295.421 178.415V183.257C295.421 184.838 294.793 186.355 293.675 187.473C292.557 188.591 291.041 189.219 289.459 189.22H289.062C288.279 189.22 287.504 189.066 286.78 188.766C286.057 188.466 285.4 188.027 284.846 187.473C284.292 186.92 283.853 186.262 283.553 185.539C283.254 184.815 283.1 184.04 283.1 183.257V178.235C283.1 177.413 282.776 176.623 282.2 176.037C281.623 175.45 280.839 175.114 280.017 175.1C279.161 175.114 278.346 175.465 277.748 176.078C277.15 176.691 276.818 177.514 276.824 178.37V183.101C276.824 183.885 276.67 184.66 276.37 185.384C276.07 186.108 275.631 186.765 275.077 187.319C274.523 187.873 273.866 188.312 273.142 188.612C272.418 188.912 271.643 189.066 270.859 189.066C270.076 189.066 269.3 188.912 268.577 188.612C267.853 188.312 267.195 187.873 266.642 187.319C266.088 186.765 265.648 186.108 265.349 185.384C265.049 184.66 264.894 183.885 264.894 183.101V178.418C264.895 178.013 264.815 177.612 264.66 177.238C264.506 176.864 264.279 176.524 263.993 176.238C263.706 175.951 263.367 175.724 262.993 175.569C262.619 175.414 262.218 175.335 261.813 175.335H238.932C234.405 175.335 230.064 177.133 226.863 180.334C223.662 183.535 221.863 187.877 221.863 192.403C221.863 196.93 223.662 201.272 226.863 204.473C230.064 207.674 234.405 209.472 238.932 209.472H252.873C256.646 209.472 260.264 210.971 262.932 213.639C265.6 216.306 267.098 219.925 267.098 223.697C267.098 227.47 265.6 231.089 262.932 233.756C260.264 236.424 256.646 237.923 252.873 237.923H247.225" stroke="#1A1818" stroke-width="0.511557" stroke-miterlimit="10"/>
<path d="M313.485 71.8662C312.264 71.8653 311.068 72.2145 310.039 72.8723C309.011 73.5302 308.192 74.4692 307.681 75.5781L271.36 75.2363L267.051 80.1002C266.725 80.4688 266.294 80.7291 265.816 80.8465C265.338 80.9638 264.836 80.9325 264.377 80.7568C263.917 80.5811 263.522 80.2693 263.244 79.8632C262.966 79.457 262.819 78.9758 262.822 78.4837C262.822 77.8674 263.061 77.275 263.488 76.8314L268.212 71.8693H313.507C315.145 71.875 316.719 72.508 317.904 73.6382C319.09 74.7683 319.797 76.3098 319.881 77.9456V106.9C319.881 107.513 320.125 108.1 320.558 108.534C320.991 108.967 321.579 109.21 322.192 109.21C322.805 109.21 323.393 108.967 323.826 108.534C324.259 108.1 324.503 107.513 324.503 106.9V96.3452C324.503 95.5513 324.819 94.7899 325.38 94.2284C325.941 93.6668 326.702 93.3511 327.496 93.3506H330.68C331.074 93.3511 331.464 93.274 331.827 93.1237C332.191 92.9735 332.521 92.7529 332.799 92.4747C333.078 92.1966 333.298 91.8662 333.449 91.5027C333.599 91.1391 333.676 90.7494 333.676 90.3559V75.3775C333.676 74.9163 333.585 74.4596 333.409 74.0334C333.232 73.6073 332.974 73.2201 332.647 72.894C332.321 72.5679 331.934 72.3093 331.508 72.1329C331.082 71.9566 330.625 71.8659 330.164 71.8662H313.487" stroke="#1A1818" stroke-width="0.511557" stroke-miterlimit="10"/>
<path d="M307.093 77.9902L273.582 77.6484L269.272 82.5123C268.945 82.8805 268.514 83.1404 268.036 83.2574C267.558 83.3743 267.056 83.3426 266.596 83.1666C266.137 82.9906 265.742 82.6786 265.465 82.2724C265.187 81.8661 265.04 81.3848 265.043 80.8927" stroke="#1A1818" stroke-width="0.511557" stroke-miterlimit="10"/>
<path d="M319.367 75.7441H333.677" stroke="#1A1818" stroke-width="0.511557" stroke-miterlimit="10"/>
<path d="M319.883 78.2686H333.677" stroke="#1A1818" stroke-width="0.511557" stroke-miterlimit="10"/>
<path d="M79.0803 135.901L99.9058 115.075C100.104 114.877 100.338 114.721 100.597 114.613C100.855 114.506 101.133 114.451 101.412 114.451C101.692 114.451 101.969 114.506 102.228 114.613C102.486 114.721 102.721 114.877 102.919 115.075L123.743 135.901C124.041 136.199 124.244 136.579 124.326 136.992C124.408 137.405 124.366 137.833 124.204 138.223C124.043 138.612 123.77 138.945 123.42 139.179C123.069 139.413 122.658 139.538 122.236 139.538H80.5863C80.1651 139.538 79.7535 139.412 79.4033 139.178C79.0532 138.944 78.7803 138.611 78.6192 138.222C78.458 137.833 78.4158 137.405 78.4979 136.992C78.58 136.578 78.7826 136.199 79.0803 135.901Z" stroke="#1A1818" stroke-width="0.511557" stroke-miterlimit="10"/>
<path d="M130.594 71.8653H189.191C191.511 71.8653 193.736 70.9436 195.376 69.3032C197.017 67.6627 197.938 65.4377 197.938 63.1176C197.938 60.7976 197.017 58.5726 195.376 56.9321C193.736 55.2916 191.511 54.37 189.191 54.37H177.868C175.561 54.37 173.349 55.2863 171.718 56.9172C170.088 58.5481 169.171 60.76 169.171 63.0665V70.5608C169.171 78.4003 172.286 85.9187 177.829 91.462C183.372 97.0054 190.891 100.12 198.73 100.12C206.57 100.12 214.088 97.0054 219.631 91.462C225.175 85.9187 228.289 78.4003 228.289 70.5608V43.039C228.289 42.7405 228.2 42.4486 228.034 42.2004C227.869 41.9522 227.633 41.7587 227.357 41.6444C227.081 41.5301 226.778 41.5001 226.485 41.5582C226.192 41.6163 225.923 41.7599 225.712 41.9709L217.283 50.3983C217.013 50.6691 216.828 51.0141 216.754 51.3897C216.679 51.7652 216.717 52.1545 216.864 52.5082C217.01 52.862 217.258 53.1644 217.577 53.3772C217.895 53.59 218.269 53.7037 218.652 53.704H308.374C309.111 53.7038 309.841 53.8488 310.521 54.1307C311.202 54.4125 311.821 54.8257 312.342 55.3467C312.863 55.8676 313.276 56.486 313.558 57.1667C313.84 57.8474 313.985 58.5769 313.985 59.3137V62.5652" stroke="#1A1818" stroke-width="0.511557" stroke-linecap="round" stroke-linejoin="round"/>
<g style="mix-blend-mode:multiply">
<mask id="mask1_460_14636" style="mask-type:luminance" maskUnits="userSpaceOnUse" x="323" y="209" width="40" height="40">
<path d="M362.265 209.441H323.41V248.297H362.265V209.441Z" fill="white"/>
</mask>
<g mask="url(#mask1_460_14636)">
<path d="M362.264 228.871C362.264 232.713 361.124 236.469 358.989 239.664C356.855 242.858 353.821 245.348 350.271 246.819C346.721 248.289 342.815 248.673 339.047 247.924C335.278 247.174 331.817 245.324 329.1 242.607C326.383 239.89 324.533 236.429 323.784 232.661C323.034 228.892 323.418 224.986 324.889 221.436C326.359 217.887 328.849 214.853 332.043 212.718C335.238 210.583 338.994 209.444 342.836 209.443C347.989 209.443 352.93 211.49 356.574 215.134C360.217 218.777 362.264 223.719 362.264 228.871Z" fill="#14AEFF"/>
</g>
</g>
<g style="mix-blend-mode:multiply">
<mask id="mask2_460_14636" style="mask-type:luminance" maskUnits="userSpaceOnUse" x="198" y="75" width="22" height="60">
<path d="M219.039 75.2002H198.941V134.841H219.039V75.2002Z" fill="white"/>
</mask>
<g mask="url(#mask2_460_14636)">
<path d="M219.038 75.2002H198.941V134.841H219.038V75.2002Z" fill="#14AEFF"/>
</g>
</g>
</g>
</g>
<defs>
<clipPath id="clip0_460_14636">
<rect width="375" height="360" fill="white"/>
</clipPath>
</defs>
</svg>
