<svg width="343" height="220" viewBox="0 0 343 220" fill="none" xmlns="http://www.w3.org/2000/svg">
<g clip-path="url(#clip0_460_14625)">
<path d="M0 8.00001C0 3.58173 3.58172 0 8 0H335C339.418 0 343 3.58172 343 8V212C343 216.418 339.418 220 335 220H7.99999C3.58172 220 0 216.418 0 212V8.00001Z" fill="#73D5FA"/>
<path d="M25.408 37.168C23.856 37.168 22.424 36.808 21.112 36.088C19.816 35.352 18.784 34.336 18.016 33.04C17.264 31.728 16.888 30.256 16.888 28.624C16.888 26.992 17.264 25.528 18.016 24.232C18.784 22.936 19.816 21.928 21.112 21.208C22.424 20.472 23.856 20.104 25.408 20.104C26.976 20.104 28.408 20.472 29.704 21.208C31.016 21.928 32.048 22.936 32.8 24.232C33.552 25.528 33.928 26.992 33.928 28.624C33.928 30.256 33.552 31.728 32.8 33.04C32.048 34.336 31.016 35.352 29.704 36.088C28.408 36.808 26.976 37.168 25.408 37.168ZM25.408 34.792C26.512 34.792 27.496 34.544 28.36 34.048C29.224 33.536 29.896 32.816 30.376 31.888C30.872 30.944 31.12 29.856 31.12 28.624C31.12 27.392 30.872 26.312 30.376 25.384C29.896 24.456 29.224 23.744 28.36 23.248C27.496 22.752 26.512 22.504 25.408 22.504C24.304 22.504 23.32 22.752 22.456 23.248C21.592 23.744 20.912 24.456 20.416 25.384C19.936 26.312 19.696 27.392 19.696 28.624C19.696 29.856 19.936 30.944 20.416 31.888C20.912 32.816 21.592 33.536 22.456 34.048C23.32 34.544 24.304 34.792 25.408 34.792ZM39.8123 26.008V33.328C39.8123 33.824 39.9243 34.184 40.1483 34.408C40.3883 34.616 40.7883 34.72 41.3483 34.72H43.0283V37H40.8683C39.6363 37 38.6923 36.712 38.0363 36.136C37.3803 35.56 37.0523 34.624 37.0523 33.328V26.008H35.4923V23.776H37.0523V20.488H39.8123V23.776H43.0283V26.008H39.8123ZM52.39 23.56C53.398 23.56 54.294 23.776 55.078 24.208C55.878 24.64 56.502 25.28 56.95 26.128C57.414 26.976 57.646 28 57.646 29.2V37H54.934V29.608C54.934 28.424 54.638 27.52 54.046 26.896C53.454 26.256 52.646 25.936 51.622 25.936C50.598 25.936 49.782 26.256 49.174 26.896C48.582 27.52 48.286 28.424 48.286 29.608V37H45.55V19.24H48.286V25.312C48.75 24.752 49.334 24.32 50.038 24.016C50.758 23.712 51.542 23.56 52.39 23.56ZM73.2559 30.064C73.2559 30.56 73.2239 31.008 73.1599 31.408H63.0559C63.1359 32.464 63.5279 33.312 64.2319 33.952C64.9359 34.592 65.7999 34.912 66.8239 34.912C68.2959 34.912 69.3359 34.296 69.9439 33.064H72.8959C72.4959 34.28 71.7679 35.28 70.7119 36.064C69.6719 36.832 68.3759 37.216 66.8239 37.216C65.5599 37.216 64.4239 36.936 63.4159 36.376C62.4239 35.8 61.6399 35 61.0639 33.976C60.5039 32.936 60.2239 31.736 60.2239 30.376C60.2239 29.016 60.4959 27.824 61.0399 26.8C61.5999 25.76 62.3759 24.96 63.3679 24.4C64.3759 23.84 65.5279 23.56 66.8239 23.56C68.0719 23.56 69.1839 23.832 70.1599 24.376C71.1359 24.92 71.8959 25.688 72.4399 26.68C72.9839 27.656 73.2559 28.784 73.2559 30.064ZM70.3999 29.2C70.3839 28.192 70.0239 27.384 69.3199 26.776C68.6159 26.168 67.7439 25.864 66.7039 25.864C65.7599 25.864 64.9519 26.168 64.2799 26.776C63.6079 27.368 63.2079 28.176 63.0799 29.2H70.3999ZM78.6844 25.696C79.0844 25.024 79.6124 24.504 80.2684 24.136C80.9404 23.752 81.7324 23.56 82.6444 23.56V26.392H81.9484C80.8764 26.392 80.0604 26.664 79.5004 27.208C78.9564 27.752 78.6844 28.696 78.6844 30.04V37H75.9484V23.776H78.6844V25.696ZM108.962 20.32V37H106.226V25.576L101.138 37H99.2418L94.1298 25.576V37H91.3938V20.32H94.3458L100.202 33.4L106.034 20.32H108.962ZM124.678 30.064C124.678 30.56 124.646 31.008 124.582 31.408H114.478C114.558 32.464 114.95 33.312 115.654 33.952C116.358 34.592 117.222 34.912 118.246 34.912C119.718 34.912 120.758 34.296 121.366 33.064H124.318C123.918 34.28 123.19 35.28 122.134 36.064C121.094 36.832 119.798 37.216 118.246 37.216C116.982 37.216 115.846 36.936 114.838 36.376C113.846 35.8 113.062 35 112.486 33.976C111.926 32.936 111.646 31.736 111.646 30.376C111.646 29.016 111.918 27.824 112.462 26.8C113.022 25.76 113.798 24.96 114.79 24.4C115.798 23.84 116.95 23.56 118.246 23.56C119.494 23.56 120.606 23.832 121.582 24.376C122.558 24.92 123.318 25.688 123.862 26.68C124.406 27.656 124.678 28.784 124.678 30.064ZM121.822 29.2C121.806 28.192 121.446 27.384 120.742 26.776C120.038 26.168 119.166 25.864 118.126 25.864C117.182 25.864 116.374 26.168 115.702 26.776C115.03 27.368 114.63 28.176 114.502 29.2H121.822ZM126.458 30.328C126.458 29 126.73 27.824 127.274 26.8C127.834 25.776 128.586 24.984 129.53 24.424C130.49 23.848 131.554 23.56 132.722 23.56C133.586 23.56 134.434 23.752 135.266 24.136C136.114 24.504 136.786 25 137.282 25.624V19.24H140.042V37H137.282V35.008C136.834 35.648 136.21 36.176 135.41 36.592C134.626 37.008 133.722 37.216 132.698 37.216C131.546 37.216 130.49 36.928 129.53 36.352C128.586 35.76 127.834 34.944 127.274 33.904C126.73 32.848 126.458 31.656 126.458 30.328ZM137.282 30.376C137.282 29.464 137.09 28.672 136.706 28C136.338 27.328 135.85 26.816 135.242 26.464C134.634 26.112 133.978 25.936 133.274 25.936C132.57 25.936 131.914 26.112 131.306 26.464C130.698 26.8 130.202 27.304 129.818 27.976C129.45 28.632 129.266 29.416 129.266 30.328C129.266 31.24 129.45 32.04 129.818 32.728C130.202 33.416 130.698 33.944 131.306 34.312C131.93 34.664 132.586 34.84 133.274 34.84C133.978 34.84 134.634 34.664 135.242 34.312C135.85 33.96 136.338 33.448 136.706 32.776C137.09 32.088 137.282 31.288 137.282 30.376ZM145.028 22.024C144.532 22.024 144.116 21.856 143.78 21.52C143.444 21.184 143.276 20.768 143.276 20.272C143.276 19.776 143.444 19.36 143.78 19.024C144.116 18.688 144.532 18.52 145.028 18.52C145.508 18.52 145.916 18.688 146.252 19.024C146.588 19.36 146.756 19.776 146.756 20.272C146.756 20.768 146.588 21.184 146.252 21.52C145.916 21.856 145.508 22.024 145.028 22.024ZM146.372 23.776V37H143.636V23.776H146.372ZM149.052 30.376C149.052 29.016 149.324 27.824 149.868 26.8C150.428 25.76 151.196 24.96 152.172 24.4C153.148 23.84 154.268 23.56 155.532 23.56C157.132 23.56 158.452 23.944 159.492 24.712C160.548 25.464 161.26 26.544 161.628 27.952H158.676C158.436 27.296 158.052 26.784 157.524 26.416C156.996 26.048 156.332 25.864 155.532 25.864C154.412 25.864 153.516 26.264 152.844 27.064C152.188 27.848 151.86 28.952 151.86 30.376C151.86 31.8 152.188 32.912 152.844 33.712C153.516 34.512 154.412 34.912 155.532 34.912C157.116 34.912 158.164 34.216 158.676 32.824H161.628C161.244 34.168 160.524 35.24 159.468 36.04C158.412 36.824 157.1 37.216 155.532 37.216C154.268 37.216 153.148 36.936 152.172 36.376C151.196 35.8 150.428 35 149.868 33.976C149.324 32.936 149.052 31.736 149.052 30.376ZM163.443 30.328C163.443 29 163.715 27.824 164.259 26.8C164.819 25.776 165.571 24.984 166.515 24.424C167.475 23.848 168.531 23.56 169.683 23.56C170.723 23.56 171.627 23.768 172.395 24.184C173.179 24.584 173.803 25.088 174.267 25.696V23.776H177.027V37H174.267V35.032C173.803 35.656 173.171 36.176 172.371 36.592C171.571 37.008 170.659 37.216 169.635 37.216C168.499 37.216 167.459 36.928 166.515 36.352C165.571 35.76 164.819 34.944 164.259 33.904C163.715 32.848 163.443 31.656 163.443 30.328ZM174.267 30.376C174.267 29.464 174.075 28.672 173.691 28C173.323 27.328 172.835 26.816 172.227 26.464C171.619 26.112 170.963 25.936 170.259 25.936C169.555 25.936 168.899 26.112 168.291 26.464C167.683 26.8 167.187 27.304 166.803 27.976C166.435 28.632 166.251 29.416 166.251 30.328C166.251 31.24 166.435 32.04 166.803 32.728C167.187 33.416 167.683 33.944 168.291 34.312C168.915 34.664 169.571 34.84 170.259 34.84C170.963 34.84 171.619 34.664 172.227 34.312C172.835 33.96 173.323 33.448 173.691 32.776C174.075 32.088 174.267 31.288 174.267 30.376ZM183.356 19.24V37H180.62V19.24H183.356ZM23.296 63.168C22.176 63.168 21.168 62.976 20.272 62.592C19.376 62.192 18.672 61.632 18.16 60.912C17.648 60.192 17.392 59.352 17.392 58.392H20.32C20.384 59.112 20.664 59.704 21.16 60.168C21.672 60.632 22.384 60.864 23.296 60.864C24.24 60.864 24.976 60.64 25.504 60.192C26.032 59.728 26.296 59.136 26.296 58.416C26.296 57.856 26.128 57.4 25.792 57.048C25.472 56.696 25.064 56.424 24.568 56.232C24.088 56.04 23.416 55.832 22.552 55.608C21.464 55.32 20.576 55.032 19.888 54.744C19.216 54.44 18.64 53.976 18.16 53.352C17.68 52.728 17.44 51.896 17.44 50.856C17.44 49.896 17.68 49.056 18.16 48.336C18.64 47.616 19.312 47.064 20.176 46.68C21.04 46.296 22.04 46.104 23.176 46.104C24.792 46.104 26.112 46.512 27.136 47.328C28.176 48.128 28.752 49.232 28.864 50.64H25.84C25.792 50.032 25.504 49.512 24.976 49.08C24.448 48.648 23.752 48.432 22.888 48.432C22.104 48.432 21.464 48.632 20.968 49.032C20.472 49.432 20.224 50.008 20.224 50.76C20.224 51.272 20.376 51.696 20.68 52.032C21 52.352 21.4 52.608 21.88 52.8C22.36 52.992 23.016 53.2 23.848 53.424C24.952 53.728 25.848 54.032 26.536 54.336C27.24 54.64 27.832 55.112 28.312 55.752C28.808 56.376 29.056 57.216 29.056 58.272C29.056 59.12 28.824 59.92 28.36 60.672C27.912 61.424 27.248 62.032 26.368 62.496C25.504 62.944 24.48 63.168 23.296 63.168ZM44.4044 56.064C44.4044 56.56 44.3724 57.008 44.3084 57.408H34.2044C34.2844 58.464 34.6764 59.312 35.3804 59.952C36.0844 60.592 36.9484 60.912 37.9724 60.912C39.4444 60.912 40.4844 60.296 41.0924 59.064H44.0444C43.6444 60.28 42.9164 61.28 41.8604 62.064C40.8204 62.832 39.5244 63.216 37.9724 63.216C36.7084 63.216 35.5724 62.936 34.5644 62.376C33.5724 61.8 32.7884 61 32.2124 59.976C31.6524 58.936 31.3724 57.736 31.3724 56.376C31.3724 55.016 31.6444 53.824 32.1884 52.8C32.7484 51.76 33.5244 50.96 34.5164 50.4C35.5244 49.84 36.6764 49.56 37.9724 49.56C39.2204 49.56 40.3324 49.832 41.3084 50.376C42.2844 50.92 43.0444 51.688 43.5884 52.68C44.1324 53.656 44.4044 54.784 44.4044 56.064ZM41.5484 55.2C41.5324 54.192 41.1724 53.384 40.4684 52.776C39.7644 52.168 38.8924 51.864 37.8524 51.864C36.9084 51.864 36.1004 52.168 35.4284 52.776C34.7564 53.368 34.3564 54.176 34.2284 55.2H41.5484ZM49.8329 51.696C50.2329 51.024 50.7609 50.504 51.4169 50.136C52.0889 49.752 52.8809 49.56 53.7929 49.56V52.392H53.0969C52.0249 52.392 51.2089 52.664 50.6489 53.208C50.1049 53.752 49.8329 54.696 49.8329 56.04V63H47.0969V49.776H49.8329V51.696ZM61.4198 60.552L65.1638 49.776H68.0678L63.0278 63H59.7638L54.7478 49.776H57.6758L61.4198 60.552ZM71.5279 48.024C71.0319 48.024 70.6159 47.856 70.2799 47.52C69.9439 47.184 69.7759 46.768 69.7759 46.272C69.7759 45.776 69.9439 45.36 70.2799 45.024C70.6159 44.688 71.0319 44.52 71.5279 44.52C72.0079 44.52 72.4159 44.688 72.7519 45.024C73.0879 45.36 73.2559 45.776 73.2559 46.272C73.2559 46.768 73.0879 47.184 72.7519 47.52C72.4159 47.856 72.0079 48.024 71.5279 48.024ZM72.8719 49.776V63H70.1359V49.776H72.8719ZM75.5521 56.376C75.5521 55.016 75.8241 53.824 76.3681 52.8C76.9281 51.76 77.6961 50.96 78.6721 50.4C79.6481 49.84 80.7681 49.56 82.0321 49.56C83.6321 49.56 84.9521 49.944 85.9921 50.712C87.0481 51.464 87.7601 52.544 88.1281 53.952H85.1761C84.9361 53.296 84.5521 52.784 84.0241 52.416C83.4961 52.048 82.8321 51.864 82.0321 51.864C80.9121 51.864 80.0161 52.264 79.3441 53.064C78.6881 53.848 78.3601 54.952 78.3601 56.376C78.3601 57.8 78.6881 58.912 79.3441 59.712C80.0161 60.512 80.9121 60.912 82.0321 60.912C83.6161 60.912 84.6641 60.216 85.1761 58.824H88.1281C87.7441 60.168 87.0241 61.24 85.9681 62.04C84.9121 62.824 83.6001 63.216 82.0321 63.216C80.7681 63.216 79.6481 62.936 78.6721 62.376C77.6961 61.8 76.9281 61 76.3681 59.976C75.8241 58.936 75.5521 57.736 75.5521 56.376ZM102.975 56.064C102.975 56.56 102.943 57.008 102.879 57.408H92.7747C92.8547 58.464 93.2467 59.312 93.9507 59.952C94.6547 60.592 95.5187 60.912 96.5427 60.912C98.0147 60.912 99.0547 60.296 99.6627 59.064H102.615C102.215 60.28 101.487 61.28 100.431 62.064C99.3907 62.832 98.0947 63.216 96.5427 63.216C95.2787 63.216 94.1427 62.936 93.1347 62.376C92.1427 61.8 91.3587 61 90.7827 59.976C90.2227 58.936 89.9427 57.736 89.9427 56.376C89.9427 55.016 90.2147 53.824 90.7587 52.8C91.3187 51.76 92.0947 50.96 93.0867 50.4C94.0947 49.84 95.2467 49.56 96.5427 49.56C97.7907 49.56 98.9027 49.832 99.8787 50.376C100.855 50.92 101.615 51.688 102.159 52.68C102.703 53.656 102.975 54.784 102.975 56.064ZM100.119 55.2C100.103 54.192 99.7427 53.384 99.0387 52.776C98.3347 52.168 97.4627 51.864 96.4227 51.864C95.4787 51.864 94.6707 52.168 93.9987 52.776C93.3267 53.368 92.9267 54.176 92.7987 55.2H100.119ZM106.771 63.168C106.275 63.168 105.859 63 105.523 62.664C105.187 62.328 105.019 61.912 105.019 61.416C105.019 60.92 105.187 60.504 105.523 60.168C105.859 59.832 106.275 59.664 106.771 59.664C107.251 59.664 107.659 59.832 107.995 60.168C108.331 60.504 108.499 60.92 108.499 61.416C108.499 61.912 108.331 62.328 107.995 62.664C107.659 63 107.251 63.168 106.771 63.168Z" fill="#272727"/>
<path d="M12.5167 127.935H3.10024C-1.43839 127.935 -5.79108 129.796 -9.00038 133.109C-12.2097 136.421 -14.0127 140.914 -14.0128 145.599V338.283C-14.0128 342.379 -12.4365 346.308 -9.63059 349.205C-6.82467 352.101 -3.01894 353.729 0.949565 353.729L218.38 353.729C225.122 353.731 231.781 352.194 237.881 349.231C243.981 346.267 249.372 341.95 253.668 336.586L272.638 312.87C277.6 305.394 288.983 309.008 288.983 318.101V338.941C288.982 340.883 289.352 342.807 290.071 344.601C290.791 346.396 291.846 348.027 293.176 349.4C294.507 350.774 296.087 351.863 297.825 352.606C299.564 353.349 301.427 353.73 303.309 353.729L344.673 353.729C348.473 353.729 352.117 352.171 354.804 349.398C357.491 346.624 359 342.863 359 338.941V98.7971C359 87.2396 344.513 82.5849 338.173 92.1416L236.315 227.017C225.198 241.722 202.354 233.614 202.354 214.967L202.354 104.876C202.354 102.585 201.917 100.316 201.068 98.1994C200.219 96.0828 198.974 94.1595 197.405 92.5394C195.836 90.9194 193.972 89.6342 191.922 88.7574C189.871 87.8805 187.674 87.4291 185.454 87.429L29.6298 87.429C25.0911 87.4291 20.7385 89.2901 17.5292 92.6027C14.3199 95.9152 12.5168 100.408 12.5167 105.093V317.223C12.5167 321.32 14.0934 325.249 16.8998 328.146C19.7063 331.042 23.5126 332.67 27.4815 332.67L128.781 332.67C153.987 332.67 174.416 308.023 174.416 277.627C174.416 262.427 169.296 248.653 161.044 238.712C158.423 235.516 155.408 232.689 152.076 230.302C145.267 225.312 137.131 222.615 128.781 222.579H93.7349C89.7829 222.579 86.2456 225.589 85.9358 229.654C85.8501 230.717 85.9792 231.787 86.3149 232.796C86.6506 233.805 87.1857 234.731 87.8862 235.515C88.5867 236.3 89.4374 236.925 90.3844 237.353C91.3313 237.78 92.354 238 93.3875 237.998H128.781C137.127 237.958 145.259 235.272 152.076 230.302C165.449 220.718 174.416 203.108 174.416 182.98C174.416 167.781 169.296 154.006 161.044 144.065C152.793 134.094 141.381 127.935 128.78 127.935L12.5167 127.935" stroke="white" stroke-width="0.503594" stroke-miterlimit="10"/>
</g>
<defs>
<clipPath id="clip0_460_14625">
<path d="M0 8.00001C0 3.58173 3.58172 0 8 0H335C339.418 0 343 3.58172 343 8V212C343 216.418 339.418 220 335 220H7.99999C3.58172 220 0 216.418 0 212V8.00001Z" fill="white"/>
</clipPath>
</defs>
</svg>
