<svg width="32" height="32" viewBox="0 0 32 32" fill="none" xmlns="http://www.w3.org/2000/svg">
<path d="M12.3021 16.5213C12.3021 19.3026 11.67 21.5149 10.4058 23.1584C9.0784 24.865 7.40334 26.0344 5.38062 26.6665L5.38062 23.1584C6.13914 22.6527 6.86605 21.9574 7.56136 21.0724C8.25667 20.1875 8.60432 18.7969 8.60432 16.9006L8.60432 13.6769L5.38062 13.6769L5.38062 5.33317L12.3021 5.33317L12.3021 16.5213ZM26.6191 16.5213C26.6191 19.3026 25.987 21.5149 24.7228 23.1584C23.3954 24.865 21.7204 26.0344 19.6977 26.6665L19.6977 23.1584C20.4562 22.6527 21.1831 21.9574 21.8784 21.0724C22.5737 20.1875 22.9214 18.7969 22.9214 16.9006L22.9214 13.6769L19.6977 13.6769L19.6977 5.33317L26.6191 5.33317L26.6191 16.5213Z" fill="#1A1818"/>
</svg>
