<svg width="214" height="181" viewBox="0 0 214 181" fill="none" xmlns="http://www.w3.org/2000/svg">
<g clip-path="url(#clip0_460_14358)">
<path d="M214 25.8955C214 11.605 202.394 0 188.145 0H117.553C113.626 0.326092 110.658 3.68292 110.792 7.6152V17.4939C110.792 20.7164 113.301 23.3443 116.48 23.5553V63.5879C116.48 64.4319 116.901 65.1991 117.61 65.6595C118.012 65.928 118.472 66.0623 118.951 66.0623C119.295 66.0623 119.64 65.9856 119.966 65.8321C121.785 65.0073 122.953 63.185 122.953 61.1709V50.103C122.953 48.4534 121.613 47.1106 119.966 47.1106C119.87 47.1106 119.812 47.0531 119.774 47.0339C119.755 46.9955 119.697 46.938 119.697 46.8421L119.889 21.944C120.234 22.0208 120.578 22.0783 120.942 22.0783C120.981 22.0783 121 22.0783 121.038 22.0783H212.544C212.736 23.3251 212.87 24.5911 212.87 25.9147V150.808C212.87 154.932 211.989 158.864 210.438 162.413C204.941 158.308 199.004 154.893 192.742 152.323C185.292 148.774 179.163 147.93 178.914 147.911C178.799 147.911 178.684 147.95 178.589 148.007C177.42 144.42 177.631 140.872 177.784 139.471C180.178 139.068 182.783 138.589 185.675 138.013H185.771C186.077 137.937 186.288 137.649 186.23 137.342C185.445 132.527 185.081 128.48 184.966 125.066C185.043 125.027 185.119 124.951 185.177 124.874C187.743 120.635 191.324 114.381 193.91 108.608C195.346 108.377 200.651 107.054 201.034 100.647C201.149 98.6907 200.613 97.1177 199.445 95.9668C197.645 94.2021 194.887 93.9719 193.642 93.9719L194.178 92.5333L194.35 92.2839C194.427 92.188 194.465 92.0537 194.465 91.9194L193.431 70.1097C192.933 59.6556 184.353 51.4649 173.897 51.4649H149.363C138.907 51.4649 130.327 59.6556 129.829 70.1097L128.794 91.9194C128.794 92.0537 128.833 92.1688 128.909 92.2839L129.063 92.5141L129.465 93.9719C128.201 93.9719 125.481 94.2213 123.7 95.9668C122.532 97.1177 121.996 98.6907 122.111 100.647C122.494 107.054 127.799 108.358 129.235 108.608C131.476 113.672 134.023 119.369 137.03 124.356C137.068 124.414 137.125 124.471 137.183 124.509C137.317 127.828 137.317 131.779 137.087 136.556C137.087 136.843 137.259 137.093 137.528 137.15C140.305 137.783 142.813 138.32 145.131 138.8L144.805 138.857C144.805 138.857 145.59 143.941 143.79 148.698C143.714 148.659 143.618 148.64 143.503 148.659C143.369 148.659 138.677 149.254 131.495 151.153C131.437 151.153 131.399 151.172 131.342 151.191C118.108 154.702 96.524 162.681 79.3259 179.83H9.8439C7.5457 179.83 5.30497 178.89 3.69623 177.279C2.14495 175.706 1.22568 173.634 1.14907 171.447C1.07246 169.184 1.91513 166.978 3.56217 165.271C5.32412 163.449 7.75637 162.394 10.2652 162.394H80.8963C86.0098 162.394 90.8169 160.399 94.4365 156.773C98.3626 152.841 100.412 147.374 100.01 141.811C99.301 131.837 90.6637 124.011 80.3218 124.011H74.7678L90.6062 107.073L101.599 95.3338C107.517 97.1177 114.527 100.014 119.602 104.579C119.717 104.675 119.851 104.733 119.985 104.733C120.138 104.733 120.291 104.675 120.406 104.541C120.617 104.311 120.598 103.946 120.368 103.735C110.562 94.9118 93.8811 92.1688 90.7786 91.7276V86.7595C90.7786 86.6253 90.7211 86.5294 90.6445 86.4334C91.9085 86.2033 93.23 85.9539 94.628 85.6662H94.7047C95.0111 85.5894 95.2026 85.3017 95.1643 84.9948C95.0494 84.2851 94.9728 83.6329 94.877 82.9423C94.9153 82.8848 94.9728 82.8464 94.9919 82.7697L99.2627 66.7912C103.151 66.5419 106.598 62.9549 106.598 59.0226V57.5839C106.598 53.6133 104.415 50.7552 101.159 50.314L101.944 48.4917L102.097 48.2807C102.174 48.1848 102.212 48.0505 102.212 47.9163L101.331 29.3291C100.91 20.3711 93.5555 13.3506 84.5926 13.3506H63.6791C54.7161 13.3506 47.381 20.3711 46.9405 29.3291L46.0596 47.9163C46.0596 47.9163 46.0787 47.993 46.0979 48.0314C46.0979 48.0697 46.0979 48.0889 46.0979 48.1273L46.8065 50.3716C43.7039 50.9278 41.6356 53.7284 41.6356 57.5839V59.0226C41.6356 62.9549 45.0828 66.5419 48.9706 66.7912L53.2223 82.6546C53.2031 83.2109 53.184 83.748 53.1648 84.3234C53.1648 84.6112 53.3372 84.8605 53.6053 84.9181C55.0608 85.2442 56.4014 85.5511 57.7037 85.8196V89.8286C41.3483 90.1164 21.2391 102.393 7.18182 112.751C4.74957 114.535 3.79199 117.566 4.73042 120.424C5.66885 123.301 8.23516 125.162 11.2611 125.162H80.3601C90.1083 125.162 98.2477 132.508 98.8988 141.888C99.2627 147.125 97.3476 152.246 93.6513 155.949C90.2615 159.344 85.7225 161.224 80.9155 161.224H10.2844C7.4691 161.224 4.71127 162.394 2.7578 164.446C0.900099 166.383 -0.0766332 168.877 0.0191248 171.467C0.114883 173.96 1.12992 176.3 2.89187 178.065C4.71127 179.907 7.23928 180.962 9.8439 180.962H161.314L161.371 181.019L161.429 180.962H183.894C195.883 180.962 206.224 173.884 211.07 163.717C211.089 163.698 211.127 163.679 211.146 163.66C211.185 163.602 211.185 163.525 211.204 163.468C212.985 159.612 214.019 155.335 214.019 150.808V25.8955H214ZM100.374 94.931L90.7977 105.174V92.8594C92.2149 93.0704 95.892 93.665 100.374 94.931ZM100.718 51.369C103.591 51.5992 105.449 54.0161 105.449 57.5456V58.9842C105.449 62.3986 102.231 65.6211 98.8222 65.6211C98.5541 65.6211 98.3435 65.7938 98.2668 66.0431L94.5131 80.0459C92.7512 63.9715 96.8305 60.0584 96.8688 60.0392C96.9071 60.0008 96.9262 59.9433 96.9645 59.9049C96.9837 59.8666 97.022 59.8666 97.0411 59.8282L100.718 51.3498C100.718 51.3498 100.718 51.3498 100.737 51.3498L100.718 51.369ZM50.8283 59.2528L47.4576 48.5685C64.6366 42.8139 83.4818 42.7947 100.661 48.5109L96.1602 58.9075C81.7773 55.1478 65.9772 55.167 51.6327 59.0226L50.8283 59.2336V59.2528ZM48.1088 29.3482C48.511 21.0041 55.3481 14.4631 63.6982 14.4631H84.6118C92.9427 14.4631 99.799 21.0041 100.201 29.3482L101.063 47.4367C92.3873 44.5403 83.2711 43.1016 74.1741 43.1016C65.0771 43.1016 55.961 44.5403 47.2853 47.4367L48.1471 29.3482H48.1088ZM49.9665 66.0431C49.8899 65.7938 49.6792 65.6211 49.4111 65.6211C46.0021 65.6211 42.7847 62.3986 42.7847 58.9842V57.5456C42.7847 54.1696 44.4891 51.8294 47.1512 51.4266L49.8899 60.1351C49.8899 60.1351 49.8899 60.1351 49.909 60.1543C49.9473 60.2502 50.0048 60.3269 50.0814 60.3845C50.0814 60.3845 50.0814 60.4037 50.1006 60.4228C50.1389 60.442 53.3755 63.1467 53.2989 78.5113L49.9665 66.0431ZM51.4795 60.2694L51.9391 60.1543C65.9581 56.3947 81.4134 56.3179 95.4899 59.9241C94.1493 61.8998 91.3914 68.1915 93.9577 84.592C76.9703 87.9296 71.8951 87.8337 54.3139 83.8631C55.0608 67.7695 52.7052 62.1109 51.4603 60.2694H51.4795ZM75.2849 88.1406C79.5749 88.1406 83.9414 87.6035 89.7061 86.5677C89.7061 86.6253 89.6486 86.6636 89.6486 86.7212V106.402L73.523 123.646L58.8528 104.771V90.3657V86.069C65.5751 87.4693 70.4204 88.179 75.2849 88.179V88.1406ZM57.7037 103.294L49.0089 92.0921C51.9966 91.3824 54.9076 90.9987 57.7037 90.9412V103.294ZM5.82206 120.04C5.03684 117.642 5.82206 115.13 7.85213 113.652C19.0175 105.443 34.0132 96.0052 47.7832 92.4182L72.2973 123.972H11.242C8.7331 123.972 6.60728 122.419 5.82206 120.04ZM190.214 152.457L186.288 156.121C182.323 154.663 180.14 151.939 178.953 149.062C179.948 149.216 184.545 150.04 190.214 152.438V152.457ZM198.602 96.7725C199.521 97.674 199.943 98.9592 199.847 100.57C199.464 106.92 193.68 107.476 193.431 107.495H193.086L192.952 107.84C190.616 113.115 187.398 118.812 184.89 123.032C184.851 111.178 188.184 108.032 188.222 107.994C188.279 107.936 188.318 107.879 188.337 107.802C188.337 107.783 188.375 107.764 188.375 107.744V107.725L193.163 95.1036C193.718 95.0845 196.821 95.0077 198.602 96.7533V96.7725ZM134.214 107.265L130.269 92.6292C150.493 85.8388 172.671 85.8388 192.895 92.6292L187.494 106.9C170.622 102.469 152.064 102.508 135.229 107.035L134.234 107.303L134.214 107.265ZM130.959 70.1289C131.418 60.2886 139.5 52.5775 149.344 52.5775H173.877C183.721 52.5775 191.803 60.2886 192.263 70.1289L193.278 91.4975C172.824 84.6495 150.397 84.6495 129.944 91.4975L130.959 70.1289ZM130.135 107.821L130.001 107.514H129.656C129.407 107.457 123.604 106.92 123.241 100.57C123.145 98.9592 123.566 97.6932 124.485 96.7916C126.113 95.1804 128.89 95.1036 129.752 95.1228L133.257 108.128C133.257 108.128 133.276 108.147 133.276 108.166C133.295 108.243 133.353 108.32 133.41 108.377C133.429 108.397 133.429 108.435 133.467 108.435C133.506 108.454 136.206 110.641 137.03 122.035C134.406 117.412 132.146 112.367 130.135 107.821ZM134.846 108.282L135.517 108.109C152.045 103.678 170.239 103.601 186.824 107.879C185.292 110.027 181.883 117.297 184.966 136.958C164.914 140.891 158.977 140.795 138.236 136.114C139.156 116.779 136.264 110.276 134.846 108.301V108.282ZM145.973 138.934C152.696 140.277 157.79 140.929 162.961 140.929C167.155 140.929 171.407 140.488 176.597 139.644C176.329 142.905 176.252 153.205 185.368 156.984L161.371 179.427L137.662 156.812C147.199 152.534 146.222 140.91 145.973 138.934ZM136.762 155.949L132.625 152.016C138.236 150.578 142.143 149.983 143.254 149.829C142.067 152.323 140.056 154.606 136.742 155.949H136.762ZM80.9729 179.792C97.7306 163.506 118.433 155.795 131.342 152.342L160.107 179.792H80.9729ZM183.894 179.792H162.655L191.344 152.956C191.631 153.09 191.937 153.225 192.244 153.359C198.506 155.929 204.443 159.324 209.902 163.449C205.19 173.116 195.327 179.792 183.894 179.792ZM119.927 48.2616C120.942 48.2616 121.766 49.0864 121.766 50.103V61.1709C121.766 62.7247 120.847 64.1249 119.449 64.7771C119.027 64.9689 118.568 64.9306 118.185 64.6812C117.801 64.4319 117.572 64.029 117.572 63.5687V20.5821C117.897 20.9274 118.261 21.2343 118.682 21.4837L118.491 46.8229C118.491 47.2065 118.625 47.571 118.893 47.8396C119.161 48.1081 119.525 48.2616 119.908 48.2616H119.927ZM121 20.9274C120.483 20.9274 119.985 20.8315 119.544 20.6205C118.376 20.0834 117.61 18.8941 117.61 17.5898C117.61 15.8058 119.008 14.348 120.751 14.2521H138.428C138.964 14.2521 139.462 14.0411 139.826 13.6767C140.228 13.2738 140.439 12.7176 140.4 12.1421C140.324 11.1063 139.424 10.2815 138.351 10.2815H131.974C131.284 10.2815 130.729 9.7252 130.729 9.01547V7.0781C130.729 5.75456 129.656 4.68037 128.335 4.68037H119.2C117.706 4.68037 116.48 5.90801 116.48 7.4042V22.4044C113.952 22.1934 111.941 20.0834 111.941 17.4939V7.59601C111.845 4.25837 114.354 1.43864 117.61 1.15091H188.164C200.096 1.15091 210.074 9.64847 212.372 20.9274H121.019H121ZM131.974 11.4324H138.351C138.811 11.4324 139.213 11.7777 139.251 12.2188C139.251 12.4682 139.175 12.6984 139.002 12.871C138.849 13.0245 138.638 13.1204 138.409 13.1204H120.713C119.468 13.1779 118.376 13.7342 117.61 14.5974V7.4042C117.61 6.54101 118.319 5.83128 119.18 5.83128H128.316C129.005 5.83128 129.561 6.38756 129.561 7.0781V9.01547C129.561 10.339 130.633 11.4132 131.955 11.4132L131.974 11.4324Z" fill="#221E1F"/>
</g>
<defs>
<clipPath id="clip0_460_14358">
<rect width="214" height="181" fill="white"/>
</clipPath>
</defs>
</svg>
