<svg width="1760" height="655" viewBox="0 0 1760 655" fill="none" xmlns="http://www.w3.org/2000/svg">
<path d="M1461.98 191.923V551.887C1461.98 571.888 1445.79 588.101 1425.79 588.101H1091.15C1084.28 588.101 1078.1 590.874 1073.6 595.379C1069.1 599.859 1066.33 606.097 1066.33 612.954C1066.33 626.667 1077.43 637.806 1091.15 637.806H1108.48" stroke="#221E1F" stroke-width="1.5" stroke-miterlimit="10" stroke-linecap="round"/>
<path d="M1264.02 133.307C1266.81 134.619 1269.95 135.312 1273.24 135.263H1447.82" stroke="#221E1F" stroke-width="1.5" stroke-miterlimit="10" stroke-linecap="round"/>
<path d="M1030.66 408.218C1030.66 408.218 1055.06 441.561 1100.84 408.218" stroke="#191311" stroke-width="1.5" stroke-miterlimit="10" stroke-linecap="round"/>
<path d="M891.037 137.515C913.919 137.515 932.469 118.941 932.469 96.0283C932.469 73.1159 913.919 54.5416 891.037 54.5416C868.155 54.5416 849.605 73.1159 849.605 96.0283C849.605 118.941 868.155 137.515 891.037 137.515Z" stroke="#191311" stroke-width="1.5" stroke-miterlimit="10" stroke-linecap="round"/>
<path d="M1100.49 213.508C1054.09 178.977 996.619 158.531 934.348 158.531H886.242C852.919 158.531 825.875 131.475 825.875 98.0828C825.875 64.7152 852.895 37.635 886.242 37.635H1147.09C1171.34 37.635 1191 57.314 1191 81.5971C1191 105.88 1171.34 125.559 1147.09 125.559H1101.46C1085.14 125.559 1071.92 112.316 1071.92 95.9788C1071.92 79.6416 1085.14 66.3985 1101.46 66.3985H1221.48" stroke="#221E1F" stroke-width="1.5" stroke-miterlimit="10" stroke-linecap="round"/>
<path d="M1108.48 637.831C1156.86 637.831 1196.06 598.572 1196.06 550.13V507.801H1228.13C1247.46 507.801 1263.13 492.108 1263.13 472.751C1263.13 453.393 1247.46 437.7 1228.13 437.7H1213.1C1213.1 345.889 1168.82 264.426 1100.47 213.533" stroke="#221E1F" stroke-width="1.5" stroke-miterlimit="10" stroke-linecap="round"/>
<path d="M1023.09 264.451C1118.64 264.451 1196.06 342.003 1196.06 437.65C1196.06 437.65 1204.2 449.755 1213.1 437.65" stroke="#221E1F" stroke-width="1.5" stroke-miterlimit="10" stroke-linecap="round" stroke-dasharray="2.14 2.14"/>
<path d="M1067.42 270.193L1106.75 218.508" stroke="#221E1F" stroke-width="1.5" stroke-miterlimit="10" stroke-linecap="round" stroke-dasharray="2.14 2.14"/>
<path d="M1149.59 260.292L1119.06 293.536" stroke="#221E1F" stroke-width="1.5" stroke-miterlimit="10" stroke-linecap="round" stroke-dasharray="2.14 2.14"/>
<path d="M1180.22 305.962L1156.07 326.879" stroke="#221E1F" stroke-width="1.5" stroke-miterlimit="10" stroke-linecap="round" stroke-dasharray="2.14 2.14"/>
<path d="M1197.84 351.063L1180.21 363.935" stroke="#221E1F" stroke-width="1.5" stroke-miterlimit="10" stroke-linecap="round" stroke-dasharray="2.14 2.14"/>
<path d="M1192.53 401.634L1209.26 389.975" stroke="#221E1F" stroke-width="1.5" stroke-miterlimit="10" stroke-linecap="round" stroke-dasharray="2.14 2.14"/>
<path d="M1020.13 264.451H864.882C837.244 264.451 814.823 286.877 814.823 314.576V546.689C814.823 562.209 827.381 574.784 842.881 574.784H866.983C888.193 574.784 906.017 591.493 906.61 612.756C906.907 623.969 902.482 634.143 895.214 641.445C887.946 648.747 878.404 652.881 867.651 652.881C867.651 652.881 838.777 659.936 764.467 624.241C670.653 579.141 630.606 622.682 582.846 637.064C582.846 637.064 484.087 670.803 368.791 610.008C301.255 574.388 219.232 595.404 162.845 618.944C59.4881 662.089 -57.9836 656.396 -156.742 603.523C-158.299 602.706 -159.832 601.864 -161.389 600.998C-316.906 515.896 -428 633.177 -428 633.177" stroke="#221E1F" stroke-width="1.5" stroke-miterlimit="10" stroke-linecap="round"/>
<path d="M996.346 653.426V562.68C996.346 553.273 988.732 545.649 979.338 545.649H963.245C950.316 545.649 942.776 531.045 950.217 520.45L991.723 461.612C1003.98 444.235 1004.18 422.551 998.125 402.154C979.214 338.488 1002.23 285.565 1011.15 264.451C1025.07 231.529 1045.89 208.929 1069.72 193.631C1134.06 152.268 1220.34 164.298 1251.66 170.586" stroke="#221E1F" stroke-width="1.5" stroke-miterlimit="10" stroke-linecap="round"/>
<path d="M1263.7 173.308C1371.31 201.626 1441.14 349.924 1373.38 503.717C1365.52 521.564 1358.33 537.951 1351.8 552.828C1346.66 564.536 1344.91 576.591 1345.97 588.101C1349.16 623.251 1378.45 653.426 1417.41 653.426H1518.42" stroke="#221E1F" stroke-width="1.5" stroke-miterlimit="10" stroke-linecap="round"/>
<g style="mix-blend-mode:multiply">
<path d="M805.824 534.312C833.676 534.312 856.254 511.704 856.254 483.815C856.254 455.927 833.676 433.318 805.824 433.318C777.973 433.318 755.395 455.927 755.395 483.815C755.395 511.704 777.973 534.312 805.824 534.312Z" fill="#48BFF4"/>
</g>
<g style="mix-blend-mode:multiply">
<path d="M845.946 96.0283H805.824V215.216H845.946V96.0283Z" fill="#48BFF4"/>
</g>
<g style="mix-blend-mode:multiply">
<path d="M1418 381.534V421.709H1759.76V381.534H1418Z" fill="#48BFF4"/>
</g>
<path d="M1660.41 206.379V13.2034C1660.41 6.4705 1654.95 1 1648.23 1H1460C1453.28 1 1447.82 6.4705 1447.82 13.2034V176.576C1447.82 185.066 1454.69 191.923 1463.14 191.923C1471.62 191.923 1478.47 185.042 1478.47 176.576V151.253C1478.47 138.877 1488.48 128.827 1500.87 128.827C1513.23 128.827 1523.26 138.852 1523.26 151.253V247.024H1577.45" stroke="#221E1F" stroke-width="1.5" stroke-miterlimit="10" stroke-linecap="round"/>
<path d="M1577.45 247.024H1660.21V233.855C1660.21 228.459 1658.51 223.211 1655.37 218.855L1648.77 209.671C1647.88 208.434 1647.53 206.874 1647.8 205.364C1648.67 200.537 1654.85 199.052 1657.82 202.938L1668.99 217.568C1682.19 237.123 1678.98 263.881 1661.55 279.476C1643.6 295.541 1616.71 294.303 1600.19 276.679L1577.47 246.999L1577.45 247.024Z" stroke="#221E1F" stroke-width="1.5" stroke-linecap="round" stroke-linejoin="round"/>
<path d="M1613.74 68.0075C1627.47 68.0075 1638.61 56.8585 1638.61 43.1055C1638.61 29.3526 1627.47 18.2036 1613.74 18.2036C1600.01 18.2036 1588.87 29.3526 1588.87 43.1055C1588.87 56.8585 1600.01 68.0075 1613.74 68.0075Z" stroke="#221E1F" stroke-width="1.5" stroke-miterlimit="10" stroke-linecap="round"/>
<path d="M1483.76 23.8722H1547.51" stroke="#221E1F" stroke-width="1.5" stroke-miterlimit="10" stroke-linecap="round"/>
<path d="M1483.76 35.7043H1547.51" stroke="#221E1F" stroke-width="1.5" stroke-miterlimit="10" stroke-linecap="round"/>
<path d="M1483.76 47.5117H1547.51" stroke="#221E1F" stroke-width="1.5" stroke-miterlimit="10" stroke-linecap="round"/>
<path d="M1483.76 59.3438H1547.51" stroke="#221E1F" stroke-width="1.5" stroke-miterlimit="10" stroke-linecap="round"/>
<path d="M1647.83 114.309L1616.12 82.5579L1584.42 114.309L1616.12 146.06L1647.83 114.309Z" stroke="#221E1F" stroke-width="1.5" stroke-miterlimit="10" stroke-linecap="round"/>
<path d="M1251.04 143.357C1234.7 143.357 1221.47 130.114 1221.47 113.752V60.8538C1220.81 41.3728 1235.57 24.788 1254.97 23.1791H1577.45V328.413M1577.45 328.413C1573.27 327.423 1568.9 326.903 1564.4 326.903H1523.98C1518.86 326.903 1514.26 328.983 1510.9 332.324C1507.57 335.666 1505.49 340.32 1505.49 345.419C1505.49 355.642 1513.77 363.935 1523.98 363.935H1543.48C1552.88 363.935 1561.36 360.123 1567.51 353.984C1573.64 347.82 1577.45 339.33 1577.45 329.923V328.413ZM1577.45 328.413C1603.11 334.305 1622.24 357.325 1622.24 384.826C1622.24 400.817 1615.77 415.298 1605.29 425.769C1594.83 436.264 1580.37 442.749 1564.4 442.749H1517.63C1500.77 442.749 1487.12 456.413 1487.12 473.27C1487.12 481.711 1490.53 489.335 1496.05 494.855C1501.56 500.4 1509.2 503.816 1517.63 503.816H1564.08C1579.58 503.816 1624.64 479.904 1636.19 476.266C1656.61 469.83 1677.37 485.202 1677.37 506.638V563.274C1677.37 575.081 1667.8 584.661 1656.01 584.661H1556.81M1556.81 584.661V584.24C1556.81 567.432 1548.58 551.442 1534.41 542.382C1526.5 537.332 1517.13 534.708 1507.44 539.288C1481.61 551.491 1492.63 584.661 1515.87 584.661H1556.81ZM1556.81 584.661V615.479C1556.81 636.445 1539.83 653.426 1518.89 653.426" stroke="#221E1F" stroke-width="1.5" stroke-miterlimit="10"/>
<path d="M1251.91 114.296V59.6656C1251.91 53.304 1257.05 48.18 1263.38 48.18H1312.37C1317.79 48.18 1322.16 52.5613 1322.16 57.9823V68.4035C1322.16 73.8245 1326.54 78.2059 1331.95 78.2059H1366.11C1370.14 78.2059 1373.73 81.2258 1374 85.2606C1374.15 87.5627 1373.28 89.642 1371.8 91.1272C1370.44 92.4886 1368.54 93.3302 1366.46 93.3302H1271.78C1260.68 93.8995 1251.96 103.058 1251.91 114.197V294.625C1251.91 302.002 1259.52 306.903 1266.22 303.858C1274.87 299.922 1280.43 291.283 1280.43 281.753V222.469C1280.43 215.29 1274.62 209.498 1267.48 209.498C1264.98 209.498 1262.96 207.443 1262.98 204.943L1264.04 133.307C1256.88 129.99 1251.91 122.737 1251.91 114.296Z" stroke="#221E1F" stroke-width="1.5" stroke-miterlimit="10"/>
<path d="M1264.59 95.0382V48.18" stroke="#221E1F" stroke-width="1.5" stroke-miterlimit="10"/>
</svg>
