<svg width="418" height="188" viewBox="0 0 418 188" fill="none" xmlns="http://www.w3.org/2000/svg">
<path d="M259.1 138.954C262.095 138.981 264.555 136.864 264.582 134.183L264.876 114.64C264.876 96.8401 256.158 81.694 252.093 65.6096L252.04 65.4487C247.199 46.2278 246.557 26.3636 250.114 6.95507C250.622 4.24753 248.296 1.78125 245.22 1.78125C242.787 1.78125 240.727 3.33608 240.3 5.45386C236.422 25.3181 236.957 45.7185 241.931 65.4487V65.6096C246.023 81.694 254.741 96.8401 254.741 114.64L253.698 133.888C253.564 136.622 255.971 138.928 259.046 138.954H259.1Z" stroke="#14AEFF" stroke-width="1.5" stroke-linecap="round" stroke-linejoin="round"/>
<path d="M231.716 111.986C230.005 100.084 224.442 89.4145 221.607 78.1822V78.0481C217.542 62.071 217.007 45.5844 219.976 29.4732C220.404 27.2214 218.478 25.1572 215.911 25.1572C213.905 25.1572 212.167 26.444 211.819 28.2133C208.583 44.7266 209.038 61.642 213.183 78.0481V78.1822C216.58 91.5322 223.827 104.132 223.827 118.903L222.971 134.88C222.837 137.158 224.87 139.062 227.41 139.088C229.898 139.088 231.93 137.346 231.983 135.121L232.224 118.903C232.224 116.544 232.037 114.238 231.716 111.986Z" stroke="#14AEFF" stroke-width="1.5" stroke-linecap="round" stroke-linejoin="round"/>
<path d="M197.004 116.812C195.586 106.973 190.987 98.1538 188.66 88.8784V88.7712C185.29 75.582 184.862 61.937 187.323 48.6406C187.67 46.7909 186.066 45.0752 183.953 45.0752C182.295 45.0752 180.878 46.1475 180.584 47.5951C177.909 61.24 178.284 75.2335 181.707 88.7712V88.8784C184.515 99.9231 190.505 110.324 190.505 122.522L189.783 135.738C189.676 137.614 191.361 139.196 193.474 139.223C195.533 139.223 197.218 137.775 197.244 135.952L197.432 122.548C197.432 120.592 197.271 118.688 197.004 116.838" stroke="#14AEFF" stroke-width="1.5" stroke-linecap="round" stroke-linejoin="round"/>
<path d="M165.26 119.921C164.03 111.396 160.045 103.756 158.013 95.7141V95.6069C155.098 84.1869 154.723 72.3649 156.836 60.8377C157.13 59.2293 155.766 57.7549 153.921 57.7549C152.477 57.7549 151.247 58.6663 151.006 59.9531C148.706 71.7751 149.027 83.8921 151.969 95.6069V95.7141C154.402 105.284 159.59 114.292 159.59 124.854L158.975 136.3C158.895 137.936 160.339 139.303 162.158 139.303C163.949 139.303 165.394 138.043 165.42 136.461L165.581 124.854C165.581 123.165 165.447 121.503 165.206 119.894" stroke="#14AEFF" stroke-width="1.5" stroke-linecap="round" stroke-linejoin="round"/>
<path d="M338.662 120.136H274.853C271.885 120.136 269.505 122.548 269.505 125.497V133.942C269.505 139.678 264.851 144.343 259.128 144.343H258.433C252.71 144.343 248.057 139.678 248.057 133.942V125.202C248.057 123.701 247.442 122.334 246.452 121.342C245.463 120.35 244.152 119.76 242.681 119.734C239.633 119.68 237.119 122.361 237.119 125.417V133.673C237.119 136.542 235.969 139.142 234.097 141.019C232.225 142.895 229.631 144.048 226.769 144.048C221.046 144.048 216.393 139.41 216.393 133.647V125.47C216.393 122.495 213.986 120.109 211.045 120.109H211.125C208.156 120.109 205.776 122.522 205.776 125.47V133.915C205.776 139.652 201.123 144.316 195.4 144.316H194.705C188.982 144.316 184.328 139.652 184.328 133.915V125.176C184.328 123.674 183.713 122.307 182.724 121.315C181.734 120.323 180.424 119.734 178.953 119.707C175.904 119.653 173.391 122.334 173.391 125.39V133.647C173.391 136.515 172.241 139.115 170.369 140.992C168.497 142.868 165.903 144.021 163.041 144.021C157.318 144.021 152.665 139.383 152.665 133.62V125.444C152.665 122.468 150.258 120.082 147.316 120.082H79.3359" stroke="#14AEFF" stroke-width="1.5" stroke-miterlimit="10" stroke-linecap="round"/>
<path d="M79.3359 160.427H338.662" stroke="#14AEFF" stroke-width="1.5" stroke-miterlimit="10" stroke-linecap="round" stroke-dasharray="5 10"/>
<path d="M116.32 187.101H315.02" stroke="#14AEFF" stroke-width="1.5" stroke-miterlimit="10" stroke-linecap="round" stroke-dasharray="5 10"/>
</svg>
