<svg width="234" height="262" viewBox="0 0 234 262" fill="none" xmlns="http://www.w3.org/2000/svg">
<path d="M155.219 57.2702L196.094 93.8458L185.188 105.791L83.1563 13.8133L94.0494 1.10205L150.149 52.596L153.702 48.9216C156.438 46.0781 160.212 44.4811 164.154 44.4811H192.515C199.362 44.4811 204.912 50.0382 204.912 56.8937V249.756H227.385C230.485 249.756 233.001 252.275 233.001 255.378C233.001 258.481 230.485 261 227.385 261H27.1609C20.3268 261 14.7765 255.456 14.7765 248.6V222.62C14.7765 219.932 12.5979 217.764 9.92653 217.764H5.33589C1.64003 217.764 -0.512643 213.596 1.61409 210.571L13.4668 193.77C16.9681 188.81 17.02 182.616 15.2952 176.787C9.90059 158.609 16.4753 143.496 19.017 137.472C22.9852 128.071 28.9375 121.618 35.7327 117.256C54.1082 105.453 78.7472 108.881 87.6821 110.673L91.1057 111.452C121.84 119.541 141.771 161.868 122.423 205.78C120.18 210.882 118.118 215.556 116.263 219.802C115.304 221.996 114.759 224.243 114.578 226.45V260.987" stroke="#14AEFF" stroke-width="1.5" stroke-miterlimit="10" stroke-linecap="round"/>
<path d="M101.155 42.8452L59.0098 52.9726" stroke="#14AEFF" stroke-width="1.5" stroke-miterlimit="10" stroke-linecap="round"/>
<path d="M157.773 98.6108L154.271 141.029" stroke="#14AEFF" stroke-width="1.5" stroke-miterlimit="10" stroke-linecap="round"/>
<path d="M134.639 71.5005L109.922 98.6108" stroke="#14AEFF" stroke-width="1.5" stroke-miterlimit="10" stroke-linecap="round"/>
<path d="M14.6855 150.196H74.727C80.1865 150.196 84.6215 154.636 84.6215 160.102V179.124" stroke="#14AEFF" stroke-width="1.5" stroke-miterlimit="10" stroke-dasharray="2 2"/>
<path d="M85.6602 180.695C92.2349 180.695 97.5517 186.031 97.5517 192.601C97.5517 199.171 92.2219 204.507 85.6602 204.507V260.974" stroke="#14AEFF" stroke-width="1.5" stroke-miterlimit="10" stroke-linecap="round"/>
<path d="M87.0469 10.3076L188.456 102.207" stroke="#14AEFF" stroke-width="1.5" stroke-miterlimit="10" stroke-linecap="round"/>
</svg>
