<svg width="377" height="226" viewBox="0 0 377 226" fill="none" xmlns="http://www.w3.org/2000/svg">
<path d="M260.955 166.792C265.291 166.83 268.845 164.25 268.901 161.027L269.318 137.415C269.318 115.906 256.696 97.5866 250.835 78.1496L250.767 77.9562C243.767 54.8647 242.82 30.7147 247.993 7.2667C248.713 3.98805 245.362 1 240.896 1C237.391 1 234.391 2.87829 233.79 5.44815C228.162 29.4562 228.974 54.259 236.161 77.9541L236.215 78.1475C242.091 97.5886 254.699 115.904 254.699 137.413L253.204 160.67C252.992 163.976 256.508 166.755 260.955 166.792Z" stroke="#14AEFF" stroke-width="1.5" stroke-linecap="round" stroke-linejoin="round"/>
<path d="M221.338 134.178C218.869 119.8 210.813 106.89 206.724 93.3258L206.666 93.1638C200.853 73.986 200.066 53.9289 204.363 34.4549C204.964 31.7311 202.179 29.2504 198.469 29.2504C197.146 29.1922 195.839 29.5267 194.765 30.1983C193.692 30.87 192.917 31.8385 192.568 32.9432C187.894 52.8834 188.568 73.4837 194.539 93.1638L194.582 93.3258C199.462 109.468 209.934 124.684 209.934 142.548L208.692 161.863C208.516 164.607 211.436 166.911 215.129 166.946C218.729 166.978 221.681 164.834 221.729 162.158L222.08 142.548C222.074 139.746 221.828 136.949 221.344 134.178" stroke="#14AEFF" stroke-width="1.5" stroke-linecap="round" stroke-linejoin="round"/>
<path d="M171.154 140.026C169.115 128.145 162.458 117.477 159.077 106.269L159.031 106.136C154.228 90.2894 153.578 73.7158 157.128 57.624C157.624 55.3751 155.323 53.3247 152.259 53.3247C151.165 53.2766 150.085 53.5529 149.198 54.1078C148.311 54.6626 147.669 55.4627 147.38 56.3755C143.519 72.8527 144.076 89.8753 149.009 106.138L149.046 106.27C153.077 119.609 161.731 132.18 161.731 146.942L160.703 162.902C160.558 165.17 162.971 167.074 166.024 167.102C168.998 167.129 171.438 165.359 171.476 163.146L171.762 146.945C171.757 144.63 171.554 142.319 171.154 140.03" stroke="#14AEFF" stroke-width="1.5" stroke-linecap="round" stroke-linejoin="round"/>
<path d="M125.263 143.769C123.496 133.478 117.729 124.237 114.802 114.527L114.762 114.412C110.601 100.686 110.038 86.3298 113.112 72.3911C113.542 70.443 111.55 68.667 108.893 68.667C107.947 68.6267 107.013 68.8666 106.246 69.3472C105.479 69.8277 104.924 70.52 104.674 71.3097C101.327 85.5821 101.809 100.327 106.081 114.414L106.114 114.529C109.605 126.085 117.102 136.974 117.102 149.765L116.212 163.591C116.227 164.094 116.36 164.589 116.602 165.047C116.844 165.505 117.191 165.916 117.621 166.256C118.051 166.595 118.556 166.856 119.105 167.024C119.655 167.191 120.238 167.261 120.819 167.229C121.969 167.307 123.109 166.991 123.992 166.35C124.876 165.709 125.433 164.794 125.543 163.801L125.792 149.764C125.786 147.759 125.61 145.757 125.264 143.774" stroke="#14AEFF" stroke-width="1.5" stroke-linecap="round" stroke-linejoin="round"/>
<path d="M375.999 144.042H283.717C281.694 144.016 279.741 144.685 278.289 145.901C276.836 147.118 276.003 148.784 275.971 150.532V160.729C275.909 164.111 274.296 167.333 271.486 169.687C268.676 172.042 264.899 173.336 260.985 173.285H259.988C256.074 173.336 252.297 172.042 249.487 169.687C246.677 167.333 245.063 164.111 245.002 160.729V150.154C244.999 149.282 244.793 148.419 244.396 147.616C243.999 146.814 243.42 146.089 242.692 145.484C241.57 144.545 240.152 143.913 238.617 143.666C237.081 143.419 235.495 143.57 234.057 144.098C232.62 144.626 231.394 145.508 230.534 146.635C229.675 147.762 229.218 149.083 229.222 150.433V160.396C229.22 162.057 228.83 163.7 228.077 165.228C227.323 166.756 226.222 168.137 224.837 169.289C221.989 171.656 218.186 172.974 214.234 172.963C210.317 173.015 206.536 171.72 203.723 169.363C200.91 167.007 199.295 163.781 199.234 160.396V150.531C199.219 149.665 199.007 148.81 198.609 148.016C198.212 147.221 197.637 146.502 196.918 145.899C196.198 145.296 195.349 144.822 194.417 144.503C193.485 144.184 192.49 144.028 191.488 144.041H191.598C189.575 144.015 187.623 144.683 186.17 145.9C184.718 147.117 183.884 148.783 183.852 150.531V160.728C183.791 164.11 182.177 167.332 179.367 169.686C176.557 172.041 172.78 173.335 168.866 173.284H167.869C163.955 173.335 160.178 172.041 157.368 169.686C154.558 167.332 152.945 164.11 152.883 160.728V150.154C152.881 149.282 152.675 148.419 152.278 147.616C151.882 146.814 151.302 146.089 150.575 145.484C149.453 144.545 148.035 143.913 146.499 143.666C144.964 143.419 143.378 143.57 141.94 144.098C140.503 144.626 139.277 145.508 138.417 146.635C137.557 147.762 137.101 149.083 137.105 150.433V160.396C137.102 162.057 136.713 163.7 135.959 165.228C135.206 166.756 134.104 168.137 132.72 169.289C129.871 171.656 126.069 172.974 122.117 172.963C118.199 173.015 114.418 171.72 111.605 169.363C108.792 167.007 107.178 163.781 107.117 160.396V150.531C107.102 149.665 106.89 148.81 106.492 148.016C106.095 147.221 105.52 146.502 104.8 145.899C104.081 145.296 103.231 144.822 102.3 144.503C101.368 144.184 100.373 144.028 99.3708 144.041H1.00391" stroke="#14AEFF" stroke-width="1.5" stroke-miterlimit="10" stroke-linecap="round"/>
<path d="M1 192.74H375.998" stroke="#14AEFF" stroke-width="1.5" stroke-miterlimit="10" stroke-linecap="round" stroke-dasharray="5 10"/>
<path d="M54.4727 224.963H341.826" stroke="#14AEFF" stroke-width="1.5" stroke-miterlimit="10" stroke-linecap="round" stroke-dasharray="5 10"/>
</svg>
