<svg width="731" height="259" viewBox="0 0 731 259" fill="none" xmlns="http://www.w3.org/2000/svg">
<path d="M730.286 234.5V253.05H583.986V234.5H647.336V34.9998L587.136 78.0498V53.1998L653.636 4.5498H670.786V234.5H730.286Z" fill="#272727"/>
<path d="M541.341 234.5V253.05H395.041V234.5H458.391V34.9998L398.191 78.0498V53.1998L464.691 4.5498H481.841V234.5H541.341Z" fill="#272727"/>
<path d="M270.146 0C286.246 0 300.246 3.96667 312.146 11.9C324.279 19.6 333.846 30.5667 340.846 44.8C352.046 66.5 357.646 94.6167 357.646 129.15C357.646 163.917 352.046 192.15 340.846 213.85C333.846 228.083 324.279 239.05 312.146 246.75C300.246 254.45 286.246 258.3 270.146 258.3C254.046 258.3 239.929 254.45 227.796 246.75C215.896 238.817 206.446 227.85 199.446 213.85C188.246 191.683 182.646 163.45 182.646 129.15C182.646 94.6167 188.246 66.5 199.446 44.8C206.446 30.5667 215.896 19.6 227.796 11.9C239.929 3.96667 254.046 0 270.146 0ZM270.146 20.3C247.979 20.3 231.296 32.0833 220.096 55.65C211.229 73.3833 206.796 97.8833 206.796 129.15C206.796 160.65 211.229 185.267 220.096 203C231.296 226.567 247.979 238.35 270.146 238.35C292.546 238.35 309.346 226.567 320.546 203C329.179 184.1 333.496 159.483 333.496 129.15C333.496 99.05 329.179 74.55 320.546 55.65C309.346 32.0833 292.546 20.3 270.146 20.3Z" fill="#272727"/>
<path d="M165.9 233.1V253.05H0V244.65C0 227.617 2.91667 213.15 8.75 201.25C14.8167 189.35 22.6333 179.433 32.2 171.5C41.7667 163.333 54.8333 154 71.4 143.5L87.15 134.05C99.2833 127.05 108.85 120.983 115.85 115.85C122.85 110.483 128.683 103.95 133.35 96.25C138.25 88.55 140.7 79.45 140.7 68.95C140.7 53.55 135.567 41.65 125.3 33.25C115.033 24.6167 102.317 20.3 87.15 20.3C70.35 20.3 56.7 25.2 46.2 35C35.9333 44.8 29.4 56.7 26.6 70.7H2.8C3.96667 59.5 8.05 48.5334 15.05 37.8C22.05 26.8333 31.6167 17.85 43.75 10.85C56.1167 3.61667 70.35 0 86.45 0C101.85 0 115.5 2.91667 127.4 8.75002C139.3 14.5833 148.517 22.6333 155.05 32.9C161.583 43.1667 164.85 54.8333 164.85 67.9C164.85 81.6667 162.05 93.45 156.45 103.25C150.85 112.817 143.85 120.867 135.45 127.4C127.283 133.7 115.967 141.167 101.5 149.8L84.35 160.3C69.65 169.867 58.6833 177.567 51.45 183.4C44.2167 189 37.9167 195.883 32.55 204.05C27.4167 212.217 24.3833 221.9 23.45 233.1H165.9Z" fill="#272727"/>
</svg>
