<svg width="743" height="259" viewBox="0 0 743 259" fill="none" xmlns="http://www.w3.org/2000/svg">
<path d="M743 173.9V193.15H706.25V253.35H682.8V193.15H559.95V174.25L669.85 4.84961H706.25V173.9H743ZM682.8 173.9V21.6496L584.1 173.9H682.8Z" fill="#272727"/>
<path d="M543.905 233.4V253.35H378.005V244.95C378.005 227.916 380.922 213.45 386.755 201.55C392.822 189.65 400.638 179.733 410.205 171.8C419.772 163.633 432.838 154.3 449.405 143.8L465.155 134.35C477.288 127.35 486.855 121.283 493.855 116.15C500.855 110.783 506.688 104.25 511.355 96.5498C516.255 88.8498 518.705 79.7498 518.705 69.2498C518.705 53.8498 513.572 41.9498 503.305 33.5498C493.038 24.9165 480.322 20.5998 465.155 20.5998C448.355 20.5998 434.705 25.4998 424.205 35.2998C413.938 45.0998 407.405 56.9998 404.605 70.9998H380.805C381.972 59.7998 386.055 48.8332 393.055 38.0998C400.055 27.1331 409.622 18.1498 421.755 11.1498C434.122 3.91647 448.355 0.299805 464.455 0.299805C479.855 0.299805 493.505 3.21648 505.405 9.04982C517.305 14.8831 526.522 22.9331 533.055 33.1998C539.588 43.4665 542.855 55.1331 542.855 68.1998C542.855 81.9665 540.055 93.7498 534.455 103.55C528.855 113.116 521.855 121.166 513.455 127.7C505.288 134 493.972 141.466 479.505 150.1L462.355 160.6C447.655 170.166 436.688 177.866 429.455 183.7C422.222 189.3 415.922 196.183 410.555 204.35C405.422 212.516 402.388 222.2 401.455 233.4H543.905Z" fill="#272727"/>
<path d="M270.26 0.299805C286.36 0.299805 300.36 4.26648 312.26 12.1998C324.393 19.8998 333.96 30.8665 340.96 45.0998C352.16 66.7998 357.76 94.9165 357.76 129.45C357.76 164.216 352.16 192.45 340.96 214.15C333.96 228.383 324.393 239.35 312.26 247.05C300.36 254.75 286.36 258.6 270.26 258.6C254.16 258.6 240.043 254.75 227.91 247.05C216.01 239.117 206.56 228.15 199.56 214.15C188.36 191.983 182.76 163.75 182.76 129.45C182.76 94.9165 188.36 66.7998 199.56 45.0998C206.56 30.8665 216.01 19.8998 227.91 12.1998C240.043 4.26648 254.16 0.299805 270.26 0.299805ZM270.26 20.5998C248.093 20.5998 231.41 32.3832 220.21 55.9498C211.343 73.6832 206.91 98.1832 206.91 129.45C206.91 160.95 211.343 185.566 220.21 203.3C231.41 226.866 248.093 238.65 270.26 238.65C292.66 238.65 309.46 226.866 320.66 203.3C329.293 184.4 333.61 159.783 333.61 129.45C333.61 99.3498 329.293 74.8498 320.66 55.9498C309.46 32.3832 292.66 20.5998 270.26 20.5998Z" fill="#272727"/>
<path d="M166.014 233.4V253.35H0.114258V244.95C0.114258 227.916 3.03092 213.45 8.86426 201.55C14.9309 189.65 22.7476 179.733 32.3143 171.8C41.8809 163.633 54.9476 154.3 71.5143 143.8L87.2643 134.35C99.3976 127.35 108.964 121.283 115.964 116.15C122.964 110.783 128.798 104.25 133.464 96.5498C138.364 88.8498 140.814 79.7498 140.814 69.2498C140.814 53.8498 135.681 41.9498 125.414 33.5498C115.148 24.9165 102.431 20.5998 87.2643 20.5998C70.4643 20.5998 56.8143 25.4998 46.3143 35.2998C36.0476 45.0998 29.5143 56.9998 26.7143 70.9998H2.91426C4.08092 59.7998 8.16426 48.8332 15.1643 38.0998C22.1643 27.1331 31.7309 18.1498 43.8643 11.1498C56.2309 3.91647 70.4643 0.299805 86.5643 0.299805C101.964 0.299805 115.614 3.21648 127.514 9.04982C139.414 14.8831 148.631 22.9331 155.164 33.1998C161.698 43.4665 164.964 55.1331 164.964 68.1998C164.964 81.9665 162.164 93.7498 156.564 103.55C150.964 113.116 143.964 121.166 135.564 127.7C127.398 134 116.081 141.466 101.614 150.1L84.4643 160.6C69.7643 170.166 58.7976 177.866 51.5643 183.7C44.3309 189.3 38.0309 196.183 32.6643 204.35C27.5309 212.516 24.4976 222.2 23.5643 233.4H166.014Z" fill="#272727"/>
</svg>
