<svg width="1920" height="731" viewBox="0 0 1920 731" fill="none" xmlns="http://www.w3.org/2000/svg">
<g clip-path="url(#clip0_460_13938)">
<path d="M1293.92 212.885C1321.36 212.885 1343.6 190.642 1343.6 163.205C1343.6 135.768 1321.36 113.525 1293.92 113.525C1266.48 113.525 1244.24 135.768 1244.24 163.205C1244.24 190.642 1266.48 212.885 1293.92 212.885Z" stroke="#1A1818" stroke-width="1.5" stroke-miterlimit="10" stroke-linecap="round"/>
<path d="M370.839 282.569H352.34C349.125 282.569 346.042 281.292 343.768 279.019C341.494 276.745 340.216 273.662 340.216 270.447V251.948C340.23 250.347 339.927 248.759 339.325 247.275C338.722 245.792 337.832 244.443 336.705 243.305C335.578 242.168 334.237 241.265 332.759 240.649C331.281 240.033 329.696 239.716 328.095 239.716C326.493 239.716 324.908 240.033 323.43 240.649C321.953 241.265 320.611 242.168 319.484 243.305C318.357 244.443 317.467 245.792 316.864 247.275C316.262 248.759 315.959 250.347 315.973 251.948V270.448C315.973 273.663 314.695 276.746 312.421 279.02C310.148 281.293 307.064 282.57 303.849 282.57H285.349C283.757 282.569 282.181 282.883 280.71 283.492C279.239 284.101 277.903 284.994 276.777 286.119C275.652 287.245 274.759 288.581 274.149 290.052C273.54 291.522 273.227 293.099 273.227 294.691C273.226 296.283 273.54 297.859 274.149 299.33C274.758 300.8 275.651 302.137 276.777 303.263C277.902 304.388 279.239 305.281 280.709 305.89C282.18 306.499 283.756 306.813 285.348 306.813H303.848C307.063 306.812 310.147 308.089 312.42 310.363C314.694 312.636 315.972 315.719 315.972 318.935V337.437C315.958 339.038 316.261 340.626 316.863 342.109C317.466 343.592 318.356 344.942 319.483 346.079C320.61 347.216 321.952 348.119 323.429 348.735C324.907 349.351 326.492 349.669 328.093 349.669C329.695 349.669 331.28 349.351 332.758 348.735C334.236 348.119 335.577 347.216 336.704 346.079C337.831 344.942 338.721 343.592 339.324 342.109C339.926 340.626 340.229 339.038 340.215 337.437V318.938C340.215 315.722 341.493 312.639 343.767 310.366C346.04 308.092 349.124 306.815 352.339 306.816H370.839C372.431 306.816 374.007 306.502 375.478 305.893C376.948 305.284 378.285 304.391 379.41 303.266C380.536 302.14 381.429 300.803 382.038 299.333C382.647 297.862 382.961 296.286 382.96 294.694C382.961 293.102 382.648 291.525 382.039 290.054C381.43 288.583 380.537 287.246 379.411 286.12C378.286 284.994 376.949 284.101 375.478 283.491C374.007 282.882 372.431 282.569 370.839 282.569Z" stroke="#1A1818" stroke-width="1.5" stroke-miterlimit="10" stroke-linecap="round"/>
<path d="M1486.14 107.149H1431.98C1430.94 107.148 1429.94 106.736 1429.21 106.001C1428.48 105.267 1428.06 104.27 1428.06 103.232V49.0734C1428.06 48.2988 1428.29 47.5416 1428.72 46.8977C1429.15 46.2537 1429.76 45.7517 1430.48 45.4553C1431.2 45.1589 1431.98 45.0814 1432.74 45.2324C1433.5 45.3835 1434.2 45.7564 1434.75 46.3041L1488.9 100.459C1489.45 101.007 1489.82 101.705 1489.98 102.465C1490.13 103.224 1490.05 104.012 1489.75 104.728C1489.46 105.444 1488.96 106.056 1488.31 106.487C1487.67 106.918 1486.91 107.148 1486.14 107.149Z" stroke="#1A1818" stroke-width="1.5" stroke-miterlimit="10"/>
<g style="mix-blend-mode:multiply">
<mask id="mask0_460_13938" style="mask-type:luminance" maskUnits="userSpaceOnUse" x="342" y="72" width="82" height="83">
<path d="M423.682 72.8032H342.238V154.246H423.682V72.8032Z" fill="white"/>
</mask>
<g mask="url(#mask0_460_13938)">
<path d="M423.682 113.526C423.682 121.58 421.293 129.453 416.819 136.149C412.344 142.845 405.985 148.064 398.544 151.146C391.104 154.228 382.916 155.034 375.018 153.463C367.119 151.891 359.863 148.013 354.169 142.318C348.474 136.624 344.596 129.368 343.025 121.469C341.453 113.57 342.26 105.383 345.341 97.9419C348.423 90.5012 353.642 84.1414 360.338 79.6668C367.034 75.1922 374.907 72.8036 382.96 72.8032C393.76 72.8032 404.118 77.0937 411.755 84.7307C419.392 92.3678 423.682 102.726 423.682 113.526Z" fill="#14AEFF"/>
</g>
</g>
<g style="mix-blend-mode:multiply">
<mask id="mask1_460_13938" style="mask-type:luminance" maskUnits="userSpaceOnUse" x="1664" y="358" width="53" height="54">
<path d="M1716.51 358.894H1664.09V411.315H1716.51V358.894Z" fill="white"/>
</mask>
<g mask="url(#mask1_460_13938)">
<path d="M1716.51 385.106C1716.51 390.289 1714.97 395.356 1712.09 399.666C1709.21 403.976 1705.12 407.335 1700.33 409.318C1695.54 411.301 1690.27 411.819 1685.19 410.807C1680.1 409.795 1675.43 407.299 1671.77 403.633C1668.1 399.967 1665.61 395.297 1664.6 390.213C1663.59 385.129 1664.11 379.859 1666.09 375.07C1668.07 370.281 1671.43 366.188 1675.74 363.308C1680.05 360.428 1685.12 358.891 1690.3 358.892C1697.25 358.892 1703.92 361.654 1708.84 366.569C1713.75 371.484 1716.51 378.15 1716.51 385.101" fill="#14AEFF"/>
</g>
</g>
<g style="mix-blend-mode:multiply">
<mask id="mask2_460_13938" style="mask-type:luminance" maskUnits="userSpaceOnUse" x="1177" y="50" width="28" height="76">
<path d="M1204.79 50.7856H1177.4V125.482H1204.79V50.7856Z" fill="white"/>
</mask>
<g mask="url(#mask2_460_13938)">
<path d="M1204.78 50.7856H1177.39V125.482H1204.78V50.7856Z" fill="#14AEFF"/>
</g>
</g>
<g style="mix-blend-mode:multiply">
<mask id="mask3_460_13938" style="mask-type:luminance" maskUnits="userSpaceOnUse" x="811" y="479" width="214" height="29">
<path d="M1024.89 479.723H811.902V507.112H1024.89V479.723Z" fill="white"/>
</mask>
<g mask="url(#mask3_460_13938)">
<path d="M1024.89 479.725H811.902V507.115H1024.89V479.725Z" fill="#14AEFF"/>
</g>
</g>
<path d="M1721.55 522.344C1721.55 525.052 1720.78 527.704 1719.32 529.985C1717.86 532.267 1715.78 534.083 1713.32 535.217L1714.08 615.802L1703.29 625.366C1702.47 626.09 1701.89 627.046 1701.63 628.106C1701.37 629.167 1701.44 630.282 1701.83 631.301C1702.22 632.321 1702.91 633.197 1703.82 633.813C1704.72 634.429 1705.79 634.754 1706.88 634.747C1708.25 634.747 1709.56 634.215 1710.54 633.264L1721.55 622.785V522.293C1721.54 518.658 1720.14 515.166 1717.63 512.535C1715.12 509.904 1711.7 508.334 1708.07 508.148H1643.84C1642.48 508.148 1641.17 507.608 1640.21 506.647C1639.25 505.686 1638.71 504.382 1638.71 503.023C1638.71 501.664 1639.25 500.36 1640.21 499.399C1641.17 498.438 1642.48 497.898 1643.84 497.898H1667.24C1669 497.897 1670.69 497.197 1671.94 495.951C1673.18 494.705 1673.88 493.016 1673.89 491.255V484.188C1673.88 483.315 1674.06 482.451 1674.39 481.644C1674.72 480.838 1675.21 480.105 1675.83 479.487C1676.45 478.87 1677.18 478.381 1677.99 478.048C1678.79 477.714 1679.66 477.543 1680.53 477.545H1713.76C1714.78 477.545 1715.8 477.746 1716.74 478.138C1717.68 478.53 1718.54 479.104 1719.27 479.827C1719.99 480.551 1720.56 481.41 1720.95 482.355C1721.34 483.3 1721.54 484.313 1721.54 485.336V522.342" stroke="#1A1818" stroke-width="1.5" stroke-miterlimit="10"/>
<path d="M1707.96 536.528L1708.72 610.88L1697.92 620.441C1697.11 621.165 1696.53 622.121 1696.27 623.182C1696.01 624.242 1696.08 625.356 1696.47 626.376C1696.86 627.395 1697.55 628.272 1698.46 628.887C1699.36 629.503 1700.43 629.829 1701.52 629.822" stroke="#1A1818" stroke-width="1.5" stroke-miterlimit="10"/>
<path d="M1712.94 509.291V477.544" stroke="#1A1818" stroke-width="1.5" stroke-miterlimit="10"/>
<path d="M1707.34 508.151V477.545" stroke="#1A1818" stroke-width="1.5" stroke-miterlimit="10"/>
<path d="M1527.5 262.119L1544.08 253.062L1552.53 269.95L1570.28 213.221L1545.25 205.391L1527.5 262.119Z" stroke="#1A1818" stroke-width="1.5" stroke-linecap="round" stroke-linejoin="round"/>
<path d="M1598.92 262.119L1582.35 253.062L1573.89 269.95L1556.14 213.221L1581.18 205.391L1598.92 262.119Z" stroke="#707070" stroke-width="1.5"/>
<path d="M1598.92 262.119L1582.35 253.062L1573.89 269.95L1556.14 213.221L1581.18 205.391L1598.92 262.119Z" stroke="#1A1818" stroke-width="1.5" stroke-linecap="round" stroke-linejoin="round"/>
<path d="M1597.29 189.365C1597.29 195.999 1595.33 202.484 1591.64 208C1587.95 213.516 1582.72 217.815 1576.59 220.354C1570.46 222.892 1563.71 223.557 1557.21 222.262C1550.7 220.968 1544.73 217.774 1540.03 213.083C1535.34 208.392 1532.15 202.415 1530.86 195.909C1529.56 189.402 1530.23 182.658 1532.76 176.529C1535.3 170.4 1539.6 165.162 1545.12 161.476C1550.63 157.79 1557.12 155.823 1563.75 155.823C1572.65 155.824 1581.18 159.357 1587.47 165.648C1593.76 171.938 1597.29 180.469 1597.29 189.365Z" stroke="#707070" stroke-width="1.5"/>
<path d="M1586.91 189.362C1586.91 193.941 1585.55 198.418 1583.01 202.225C1580.47 206.032 1576.85 209 1572.62 210.752C1568.39 212.504 1563.74 212.963 1559.24 212.07C1554.75 211.176 1550.63 208.971 1547.39 205.733C1544.15 202.495 1541.95 198.37 1541.05 193.879C1540.16 189.388 1540.62 184.733 1542.37 180.502C1544.12 176.272 1547.09 172.656 1550.9 170.112C1554.71 167.568 1559.18 166.21 1563.76 166.21C1569.9 166.21 1575.79 168.649 1580.13 172.991C1584.47 177.333 1586.91 183.222 1586.91 189.362Z" stroke="#707070" stroke-width="1.5"/>
<path d="M1443.29 301.881H1610.93" stroke="#1A1818" stroke-width="1.5" stroke-linecap="round" stroke-linejoin="round"/>
<path d="M1443.29 315.209H1610.93" stroke="#1A1818" stroke-width="1.5" stroke-linecap="round" stroke-linejoin="round"/>
<path d="M1443.29 328.539H1610.93" stroke="#1A1818" stroke-width="1.5" stroke-linecap="round" stroke-linejoin="round"/>
<path d="M1446.37 236.487H1495.24" stroke="#1A1818" stroke-width="1.5" stroke-linecap="round" stroke-linejoin="round"/>
<path d="M1446.37 246.084H1495.24" stroke="#1A1818" stroke-width="1.5" stroke-linecap="round" stroke-linejoin="round"/>
<path d="M1446.37 255.68H1495.24" stroke="#1A1818" stroke-width="1.5" stroke-linecap="round" stroke-linejoin="round"/>
<path d="M1443.29 341.867H1610.93" stroke="#1A1818" stroke-width="1.5" stroke-linecap="round" stroke-linejoin="round"/>
<path d="M1443.29 355.195H1610.93" stroke="#1A1818" stroke-width="1.5" stroke-linecap="round" stroke-linejoin="round"/>
<path d="M1443.29 368.524H1610.93" stroke="#1A1818" stroke-width="1.5" stroke-linecap="round" stroke-linejoin="round"/>
<path d="M1632.01 301.881H1667.55" stroke="#1A1818" stroke-width="1.5" stroke-linecap="round" stroke-linejoin="round"/>
<path d="M1632.01 315.209H1667.55" stroke="#1A1818" stroke-width="1.5" stroke-linecap="round" stroke-linejoin="round"/>
<path d="M1632.01 328.539H1667.55" stroke="#1A1818" stroke-width="1.5" stroke-linecap="round" stroke-linejoin="round"/>
<path d="M1632.01 341.867H1667.55" stroke="#1A1818" stroke-width="1.5" stroke-linecap="round" stroke-linejoin="round"/>
<path d="M1632.01 355.195H1667.55" stroke="#1A1818" stroke-width="1.5" stroke-linecap="round" stroke-linejoin="round"/>
<path d="M1632.01 368.524H1667.55" stroke="#1A1818" stroke-width="1.5" stroke-linecap="round" stroke-linejoin="round"/>
<path d="M1632.01 219.503H1667.55" stroke="#1A1818" stroke-width="1.5" stroke-linecap="round" stroke-linejoin="round"/>
<path d="M1632.01 232.831H1667.55" stroke="#1A1818" stroke-width="1.5" stroke-linecap="round" stroke-linejoin="round"/>
<path d="M1632.01 246.16H1667.55" stroke="#1A1818" stroke-width="1.5" stroke-linecap="round" stroke-linejoin="round"/>
<path d="M1632.01 259.488H1667.55" stroke="#1A1818" stroke-width="1.5" stroke-linecap="round" stroke-linejoin="round"/>
<path d="M1632.01 272.816H1667.55" stroke="#1A1818" stroke-width="1.5" stroke-linecap="round" stroke-linejoin="round"/>
<path d="M1632.01 286.146H1667.55" stroke="#1A1818" stroke-width="1.5" stroke-linecap="round" stroke-linejoin="round"/>
<path d="M1595.03 678.517C1598.59 677.943 1600.67 674.724 1600.79 671.124C1601.18 659.522 1602.54 657.359 1600.18 642.737C1597.43 625.705 1593.35 626.364 1590.6 609.331C1588.33 595.213 1590.75 592.347 1590.08 582.077C1590.01 581.123 1589.74 580.193 1589.3 579.346C1588.85 578.499 1588.23 577.755 1587.49 577.161C1586.74 576.566 1585.87 576.135 1584.94 575.893C1584.02 575.652 1583.05 575.606 1582.11 575.759C1578.55 576.333 1576.55 579.552 1576.35 583.144C1575.67 594.68 1574.6 596.906 1576.95 611.528C1579.7 628.56 1583.79 627.902 1586.53 644.934C1588.81 659.055 1586.39 661.921 1587.06 672.194C1587.13 673.149 1587.39 674.08 1587.84 674.927C1588.28 675.775 1588.9 676.52 1589.65 677.115C1590.4 677.71 1591.26 678.142 1592.19 678.383C1593.12 678.625 1594.08 678.67 1595.03 678.517Z" stroke="#1A1818" stroke-width="1.5" stroke-miterlimit="10" stroke-linecap="round"/>
<path d="M1632.87 678.517C1636.43 677.943 1638.52 674.724 1638.63 671.124C1639.02 659.522 1640.38 657.359 1638.03 642.737C1635.28 625.705 1631.19 626.364 1628.45 609.331C1626.17 595.213 1628.59 592.347 1627.92 582.077C1627.85 581.123 1627.59 580.193 1627.14 579.346C1626.7 578.499 1626.08 577.755 1625.33 577.161C1624.58 576.566 1623.71 576.135 1622.79 575.893C1621.86 575.652 1620.9 575.606 1619.95 575.759C1616.39 576.333 1614.4 579.552 1614.19 583.144C1613.52 594.68 1612.44 596.906 1614.8 611.528C1617.55 628.56 1621.63 627.902 1624.38 644.934C1626.66 659.055 1624.23 661.921 1624.91 672.194C1624.97 673.149 1625.24 674.08 1625.68 674.927C1626.13 675.775 1626.74 676.52 1627.49 677.115C1628.24 677.71 1629.11 678.142 1630.04 678.384C1630.96 678.625 1631.93 678.67 1632.87 678.517Z" stroke="#1A1818" stroke-width="1.5" stroke-miterlimit="10" stroke-linecap="round"/>
<path d="M1670.6 678.517C1674.16 677.943 1676.24 674.724 1676.36 671.124C1676.75 659.522 1678.11 657.359 1675.75 642.737C1673 625.705 1668.92 626.364 1666.17 609.331C1663.9 595.213 1666.32 592.347 1665.65 582.077C1665.58 581.123 1665.32 580.193 1664.87 579.346C1664.42 578.499 1663.81 577.755 1663.06 577.161C1662.31 576.566 1661.44 576.135 1660.51 575.893C1659.59 575.652 1658.62 575.606 1657.68 575.759C1654.12 576.333 1652.12 579.552 1651.92 583.144C1651.24 594.68 1650.17 596.906 1652.53 611.528C1655.27 628.56 1659.36 627.902 1662.11 644.934C1664.38 659.055 1661.96 661.921 1662.63 672.194C1662.7 673.149 1662.96 674.08 1663.41 674.927C1663.85 675.775 1664.47 676.52 1665.22 677.115C1665.97 677.71 1666.84 678.142 1667.76 678.384C1668.69 678.625 1669.66 678.67 1670.6 678.517Z" stroke="#1A1818" stroke-width="1.5" stroke-miterlimit="10" stroke-linecap="round"/>
<path d="M1025.06 185.803C1026.68 187.431 1028.68 188.633 1030.87 189.303C1032.22 189.735 1033.63 189.952 1035.05 189.947C1037.27 189.947 1039.45 189.427 1041.43 188.429C1043.41 187.43 1045.13 185.981 1046.44 184.198C1047.76 182.414 1048.64 180.347 1049.01 178.161C1049.38 175.976 1049.23 173.734 1048.58 171.616C1047.91 169.41 1046.7 167.406 1045.06 165.783L1004.87 125.587" stroke="#1A1818" stroke-width="1.5" stroke-miterlimit="10" stroke-linecap="round"/>
<path d="M1024.89 105.563L1065.08 145.757C1066.72 147.381 1067.93 149.385 1068.6 151.591C1069.25 153.709 1069.4 155.951 1069.03 158.136C1068.66 160.321 1067.78 162.389 1066.46 164.172C1065.15 165.956 1063.43 167.405 1061.45 168.403C1059.47 169.402 1057.29 169.922 1055.07 169.921C1053.66 169.927 1052.26 169.71 1050.91 169.278C1048.7 168.617 1046.69 167.414 1045.06 165.778L1004.87 125.585" stroke="#1A1818" stroke-width="1.5" stroke-miterlimit="10" stroke-linecap="round"/>
<path d="M438.006 240.853C434.956 240.853 431.937 240.253 429.12 239.086C426.302 237.919 423.742 236.209 421.586 234.053C419.43 231.896 417.72 229.337 416.553 226.519C415.386 223.702 414.786 220.682 414.786 217.633V176.14C414.536 168.782 417.128 161.609 422.024 156.109C426.92 150.61 433.744 147.205 441.082 146.601L965.864 145.603C978.018 145.604 989.675 150.431 998.272 159.024L1025.06 185.801C1026.69 187.419 1027.89 189.417 1028.56 191.617V191.635C1028.99 192.984 1029.21 194.394 1029.2 195.811C1029.2 197.853 1028.76 199.87 1027.91 201.725C1027.05 203.581 1025.81 205.23 1024.26 206.559C1021.47 208.867 1017.92 210.043 1014.31 209.854C1010.69 209.665 1007.28 208.124 1004.75 205.538L964.841 165.62L929.164 129.949C923.571 124.35 919.213 117.641 916.371 110.255C913.529 102.869 912.265 94.9695 912.663 87.0655C913.06 79.1614 915.109 71.4283 918.678 64.3645C922.247 57.3008 927.256 51.0632 933.382 46.0537C955.925 27.5209 989.027 29.6615 1009.67 50.3L1009.7 50.3359" stroke="#1A1818" stroke-width="1.5" stroke-miterlimit="10" stroke-linecap="round"/>
<path d="M1047.14 87.2241L1085.1 125.758C1086.74 127.376 1087.95 129.374 1088.62 131.574C1089.38 134.032 1089.46 136.652 1088.84 139.151C1088.22 141.649 1086.93 143.932 1085.11 145.752C1083.29 147.572 1081.01 148.861 1078.51 149.479C1076.02 150.097 1073.4 150.022 1070.94 149.261C1068.72 148.599 1066.71 147.396 1065.08 145.76L1024.89 105.566" stroke="#1A1818" stroke-width="1.5" stroke-miterlimit="10" stroke-linecap="round"/>
<path d="M1714.67 533.965C1712.72 534.881 1710.58 535.33 1708.42 535.279H1416.63C1412.62 535.279 1408.65 534.489 1404.95 532.956C1401.25 531.422 1397.88 529.174 1395.05 526.341C1392.22 523.507 1389.97 520.143 1388.44 516.441C1386.9 512.738 1386.11 508.77 1386.11 504.763V158.847C1386.11 154.839 1386.9 150.871 1388.44 147.169C1389.97 143.467 1392.22 140.102 1395.05 137.269C1397.88 134.435 1401.25 132.187 1404.95 130.654C1408.65 129.12 1412.62 128.331 1416.63 128.331H1602.53C1606.54 128.331 1610.5 129.12 1614.21 130.653C1617.91 132.187 1621.27 134.435 1624.11 137.268C1626.94 140.102 1629.19 143.466 1630.72 147.169C1632.25 150.871 1633.04 154.839 1633.04 158.847V384.533C1633.04 387.134 1632.53 389.709 1631.54 392.112C1630.54 394.515 1629.08 396.698 1627.24 398.537C1625.4 400.376 1623.22 401.835 1620.82 402.83C1618.42 403.825 1615.84 404.338 1613.24 404.338H1436.26C1433.66 404.338 1431.09 403.825 1428.68 402.83C1426.28 401.835 1424.1 400.376 1422.26 398.537C1420.42 396.698 1418.96 394.515 1417.97 392.112C1416.97 389.709 1416.46 387.134 1416.46 384.533V150.974C1416.46 133.733 1409.61 117.197 1397.42 105.006C1385.23 92.8142 1368.69 85.9651 1351.45 85.9651H1048.5C1026.55 85.9663 1005.5 94.6855 989.98 110.205L981.669 118.516C979.014 121.171 975.412 122.662 971.657 122.662C967.902 122.661 964.301 121.169 961.646 118.513C958.991 115.858 957.5 112.256 957.5 108.501C957.5 104.746 958.993 101.144 961.648 98.4893L1001.84 58.2951L1011.06 49.0781L1013.6 46.5593C1018.85 41.2698 1025.09 37.069 1031.97 34.198C1038.85 31.3269 1046.22 29.8421 1053.68 29.8287C1061.13 29.8153 1068.51 31.2736 1075.4 34.1199C1082.29 36.9662 1088.55 41.1445 1093.81 46.4151C1099.08 51.6857 1103.26 57.9449 1106.11 64.8336C1108.95 71.7223 1110.41 79.1049 1110.39 86.5579C1110.38 94.011 1108.89 101.388 1106.02 108.265C1103.15 115.142 1098.95 121.385 1093.65 126.634L1089.98 130.322" stroke="#1A1818" stroke-width="1.5" stroke-miterlimit="10"/>
<path d="M1070.94 149.26L1068.6 151.594" stroke="#1A1818" stroke-width="1.5" stroke-miterlimit="10" stroke-linecap="round"/>
<path d="M1307.78 302.816C1317.1 326.408 1330.25 369.106 1315.42 418.951C1309.85 437.722 1310.03 457.678 1321.33 473.671L1359.58 527.808C1361.14 530.008 1362.06 532.591 1362.24 535.278C1362.43 537.964 1361.87 540.65 1360.63 543.042C1359.39 545.433 1357.52 547.439 1355.22 548.839C1352.92 550.24 1350.28 550.981 1347.59 550.983H1332.75C1328.6 550.984 1324.61 552.636 1321.67 555.575C1318.74 558.514 1317.09 562.5 1317.08 566.655L1316.82 667.983V670.17C1316.82 683.326 1322.04 695.943 1331.34 705.245C1340.65 714.548 1353.26 719.774 1366.42 719.774C1379.57 719.774 1392.19 714.548 1401.49 705.245C1410.8 695.943 1416.02 683.326 1416.02 670.17V501.566C1415.92 492.987 1417.53 484.475 1420.73 476.518C1423.94 468.562 1428.69 461.32 1434.72 455.209C1440.74 449.098 1447.91 444.24 1455.82 440.915C1463.72 437.59 1472.21 435.863 1480.79 435.835C1489.37 435.807 1497.87 437.477 1505.8 440.75C1513.73 444.023 1520.93 448.833 1526.99 454.904C1533.05 460.975 1537.85 468.186 1541.11 476.121C1544.38 484.056 1546.03 492.558 1545.99 501.137V505.216C1545.99 507.145 1545.61 509.056 1544.87 510.839C1544.14 512.621 1543.05 514.241 1541.69 515.605C1540.32 516.969 1538.71 518.051 1536.92 518.79C1535.14 519.528 1533.23 519.908 1531.3 519.908C1523.19 519.908 1517.99 513.627 1516.61 505.216C1513.84 471.161 1536.57 460.616 1561.21 460.616H1719.47C1725.8 461.136 1731.7 464.077 1735.93 468.827C1740.16 473.578 1742.4 479.774 1742.18 486.13V521.974C1742.18 524.608 1741.66 527.217 1740.66 529.651C1739.65 532.085 1738.17 534.297 1736.31 536.16C1734.45 538.024 1732.23 539.501 1729.8 540.51C1727.37 541.518 1724.76 542.037 1722.12 542.037" stroke="#1A1818" stroke-width="1.5" stroke-miterlimit="10" stroke-linecap="round"/>
<path d="M1307.78 302.817C1306.15 298.685 1304.64 295.143 1303.41 292.247C1290.59 261.967 1271.4 241.161 1249.45 227.088C1190.16 189.04 1110.68 200.102 1081.83 205.891L1070.77 208.398C971.625 234.453 907.295 370.891 969.717 512.416C976.962 528.849 983.588 543.91 989.594 557.599C994.119 567.782 995.967 578.953 994.963 590.05V590.059C992.012 622.402 965.03 650.154 929.152 650.154H661.33C657.387 650.154 653.605 648.588 650.816 645.799C648.028 643.011 646.461 639.229 646.461 635.285V621.639C646.461 620.16 646.17 618.694 645.604 617.327C645.038 615.96 644.208 614.718 643.162 613.672C642.116 612.626 640.873 611.796 639.506 611.23C638.139 610.664 636.674 610.372 635.195 610.372H320.524C315.927 610.372 311.518 608.546 308.268 605.296C305.017 602.045 303.191 597.637 303.191 593.04C303.191 588.443 305.017 584.034 308.268 580.784C311.518 577.533 315.927 575.707 320.524 575.707H582.535C591.746 575.707 600.58 572.048 607.094 565.534C613.607 559.02 617.267 550.186 617.267 540.974C617.267 531.762 613.607 522.928 607.094 516.414C600.58 509.9 591.746 506.241 582.535 506.241H435.892C424.556 506.241 419.793 491.761 428.931 485.051C454.216 466.489 492.912 442.456 523.764 442.456" stroke="#1A1818" stroke-width="1.5" stroke-miterlimit="10" stroke-linecap="round"/>
<path d="M438.672 218.058V175.222C438.672 172.83 439.622 170.536 441.313 168.845C443.004 167.154 445.298 166.204 447.689 166.204H486.155C488.194 166.205 490.15 167.015 491.593 168.457C493.035 169.9 493.846 171.855 493.847 173.895V182.078C493.847 183.087 494.045 184.087 494.432 185.019C494.818 185.951 495.384 186.798 496.097 187.512C496.811 188.225 497.658 188.791 498.59 189.178C499.522 189.564 500.522 189.763 501.531 189.763H528.365C529.903 189.738 531.394 190.294 532.541 191.32C533.688 192.346 534.406 193.766 534.552 195.298C534.606 196.11 534.494 196.925 534.22 197.691C533.946 198.458 533.518 199.16 532.961 199.753C532.405 200.347 531.732 200.82 530.985 201.143C530.237 201.465 529.432 201.63 528.618 201.628H454.275C450.074 201.843 446.115 203.66 443.212 206.706C440.31 209.751 438.685 213.793 438.672 218V359.494C438.672 360.824 439.006 362.134 439.643 363.302C440.28 364.47 441.2 365.46 442.318 366.18C443.437 366.901 444.718 367.329 446.046 367.426C447.373 367.523 448.703 367.286 449.914 366.736C453.245 365.223 456.07 362.784 458.051 359.709C460.032 356.634 461.085 353.053 461.085 349.395V302.907C461.085 300.208 460.013 297.619 458.104 295.71C456.195 293.801 453.606 292.728 450.906 292.728C450.439 292.728 449.976 292.635 449.544 292.454C449.113 292.274 448.721 292.009 448.393 291.676C448.065 291.342 447.807 290.947 447.633 290.513C447.458 290.079 447.373 289.614 447.38 289.147L448.207 232.962C445.359 231.649 442.948 229.547 441.258 226.905C439.568 224.263 438.672 221.192 438.674 218.056" stroke="#1A1818" stroke-width="1.5" stroke-miterlimit="10" stroke-linecap="round"/>
<path d="M448.637 202.951V166.199" stroke="#1A1818" stroke-width="1.5" stroke-miterlimit="10" stroke-linecap="round"/>
<path d="M1494.43 163.352H1447.18V222.342H1494.43V163.352Z" stroke="#1A1818" stroke-width="1.5" stroke-linecap="round" stroke-linejoin="round"/>
<path d="M533.884 299.828C526.118 299.828 518.651 302.818 513.03 308.177C507.41 313.536 504.068 320.853 503.698 328.611L502.047 363.294L502.4 363.793C535.473 352.517 571.35 352.517 604.423 363.793L604.776 363.294L603.125 328.611C602.756 320.853 599.414 313.536 593.794 308.176C588.173 302.817 580.705 299.828 572.939 299.828H533.884Z" stroke="#1A1818" stroke-width="1.5" stroke-linecap="round" stroke-linejoin="round"/>
<path d="M502.051 363.295L509.153 385.769" stroke="#1A1818" stroke-width="1.5" stroke-linecap="round" stroke-linejoin="round"/>
<path d="M604.427 363.79L595.195 385.104" stroke="#1A1818" stroke-width="1.5" stroke-linecap="round" stroke-linejoin="round"/>
<path d="M503.588 368.671C497.225 369.17 493.762 374.623 493.762 381.273V383.972C493.762 390.958 500.242 397.417 507.221 397.417L515.414 427.996" stroke="#1A1818" stroke-width="1.5" stroke-linecap="round" stroke-linejoin="round"/>
<path d="M603.165 368.671C609.528 369.17 612.992 374.623 612.992 381.273V383.972C612.992 390.958 606.511 397.417 599.533 397.417L591.34 427.996" stroke="#1A1818" stroke-width="1.5" stroke-linecap="round" stroke-linejoin="round"/>
<path d="M448.206 232.961C450.465 234.021 452.94 234.542 455.435 234.483H617.269C620.856 234.483 624.408 235.189 627.722 236.562C631.036 237.935 634.047 239.948 636.583 242.485C639.12 245.022 641.131 248.033 642.503 251.348C643.875 254.662 644.581 258.214 644.58 261.801V428.438C644.581 432.031 643.874 435.59 642.499 438.91C641.124 442.23 639.109 445.246 636.568 447.787C634.028 450.328 631.011 452.344 627.692 453.719C624.372 455.094 620.814 455.802 617.22 455.801H606.461C597.235 455.802 588.328 459.184 581.427 465.308L559.999 484.318C557.965 486.121 555.359 487.148 552.642 487.215C549.924 487.281 547.271 486.385 545.151 484.683L504.888 452.367C504.888 452.367 434.086 394.328 338.29 452.367C338.29 452.367 272.761 497.354 208.895 476.25C145.029 455.147 125.594 433.09 125.594 433.09" stroke="#1A1818" stroke-width="1.5" stroke-miterlimit="10" stroke-linecap="round"/>
<path d="M591.659 432.575L591.517 432.602C557.961 439.207 548.491 438.73 515.271 431.222C517.281 391.246 509.152 385.77 509.152 385.77L511.637 385.102C538.852 377.9 567.466 377.855 594.703 384.972L595.192 385.102C595.192 385.102 585.341 393.413 591.659 432.575Z" stroke="#1A1818" stroke-width="1.5" stroke-linecap="round" stroke-linejoin="round"/>
<path d="M523.77 433.092V467.002" stroke="#1A1818" stroke-width="1.5" stroke-linecap="round" stroke-linejoin="round"/>
<path d="M583.457 435.696V462.591" stroke="#1A1818" stroke-width="1.5" stroke-linecap="round" stroke-linejoin="round"/>
<path d="M-905.096 675.071L681.23 675.327C684.608 675.33 687.953 674.667 691.074 673.377C694.195 672.086 697.032 670.193 699.421 667.806C701.81 665.419 703.705 662.584 704.998 659.464C706.291 656.344 706.957 652.999 706.957 649.622V566.654C706.957 562.499 705.306 558.514 702.368 555.575C699.43 552.637 695.445 550.986 691.29 550.986H676.456C673.763 550.985 671.122 550.244 668.822 548.843C666.522 547.442 664.65 545.437 663.413 543.045C662.175 540.652 661.618 537.966 661.804 535.279C661.989 532.593 662.91 530.008 664.465 527.809L702.71 473.672C714.013 457.682 714.195 437.723 708.616 418.955C691.199 360.375 712.403 311.676 720.628 292.25C733.451 261.966 752.638 241.155 774.587 227.09C833.877 189.043 913.358 200.105 942.212 205.891L953.264 208.401C1052.41 234.456 1116.74 370.894 1054.32 512.42C1047.08 528.853 1040.45 543.914 1034.44 557.603C1029.92 567.786 1028.07 578.956 1029.08 590.054V590.063C1032.03 622.402 1059.01 650.155 1094.88 650.155H1574.36C1575.31 650.155 1576.25 650.341 1577.12 650.703C1578 651.065 1578.79 651.596 1579.46 652.265C1580.13 652.934 1580.66 653.728 1581.02 654.603C1581.38 655.477 1581.57 656.414 1581.57 657.36V673.012C1581.57 676.215 1582.84 679.287 1585.11 681.552C1587.37 683.817 1590.44 685.09 1593.65 685.09C1596.85 685.09 1599.92 683.817 1602.19 681.552C1604.45 679.287 1605.72 676.215 1605.72 673.012V658.334C1605.75 656.527 1606.48 654.801 1607.76 653.531C1609.05 652.261 1610.78 651.549 1612.59 651.549C1614.4 651.549 1616.13 652.261 1617.42 653.531C1618.7 654.801 1619.44 656.527 1619.46 658.334V673.011C1619.46 676.214 1620.73 679.287 1623 681.552C1625.26 683.817 1628.33 685.09 1631.54 685.09C1634.74 685.09 1637.81 683.817 1640.08 681.552C1642.34 679.287 1643.62 676.214 1643.62 673.011V658.965C1643.62 657.123 1644.35 655.358 1645.65 654.056C1646.95 652.753 1648.72 652.022 1650.56 652.022C1652.4 652.022 1654.17 652.753 1655.47 654.056C1656.77 655.358 1657.5 657.123 1657.5 658.965V673.053C1657.5 674.633 1657.81 676.199 1658.42 677.659C1659.02 679.12 1659.91 680.446 1661.03 681.564C1662.14 682.682 1663.47 683.569 1664.93 684.174C1666.39 684.779 1667.96 685.09 1669.54 685.09C1671.12 685.09 1672.68 684.779 1674.14 684.174C1675.6 683.569 1676.93 682.682 1678.05 681.564C1679.17 680.446 1680.05 679.12 1680.66 677.659C1681.26 676.199 1681.58 674.633 1681.58 673.053V651.397H2726.35" stroke="#1A1818" stroke-width="1.5" stroke-miterlimit="10" stroke-linecap="round"/>
<path d="M583.453 445.917C583.453 445.917 593.068 447.753 606.461 455.797" stroke="#1A1818" stroke-width="1.5" stroke-linecap="round" stroke-linejoin="round"/>
<path d="M507.839 104.64H349.606C346.77 104.659 343.959 104.117 341.334 103.046C338.709 101.974 336.321 100.393 334.309 98.3953C332.298 96.3971 330.701 94.0206 329.611 91.4027C328.522 88.7848 327.961 85.9773 327.961 83.1417C327.961 80.3061 328.522 77.4986 329.611 74.8807C330.701 72.2628 332.298 69.8864 334.309 67.8881C336.321 65.8899 338.709 64.3095 341.334 63.2377C343.959 62.166 346.77 61.6242 349.606 61.6435H387.308V57.552C387.308 52.3142 388.895 47.1994 391.862 42.8826C394.828 38.5658 399.034 35.25 403.923 33.3726C408.813 31.4952 414.157 31.1446 419.25 32.3671C424.343 33.5895 428.946 36.3275 432.451 40.2197C441.6 50.3358 459.394 65.8069 482.585 65.8069H507.839C510.389 65.8069 512.914 66.3092 515.269 67.2849C517.625 68.2606 519.765 69.6908 521.568 71.4937C523.371 73.2967 524.801 75.4371 525.777 77.7927C526.752 80.1484 527.255 82.6732 527.255 85.2229C527.255 87.7727 526.752 90.2974 525.777 92.6531C524.801 95.0087 523.371 97.1491 521.568 98.9521C519.765 100.755 517.625 102.185 515.269 103.161C512.914 104.137 510.389 104.64 507.839 104.64Z" stroke="#1A1818" stroke-width="1.5" stroke-miterlimit="10" stroke-linecap="round"/>
<path d="M742.583 50.1376L732.304 53.314C708.559 60.6475 683.014 59.5904 659.955 50.3202C634.286 39.9984 605.639 39.8959 579.897 50.0338L555.582 59.6141" stroke="#1A1818" stroke-width="1.5" stroke-miterlimit="10" stroke-linecap="round"/>
<path d="M742.583 68.6761L732.304 71.8525C708.559 79.186 683.014 78.1289 659.955 68.8587C634.286 58.5383 605.64 58.4358 579.897 68.5723L555.582 78.1525" stroke="#1A1818" stroke-width="1.5" stroke-miterlimit="10" stroke-linecap="round"/>
<path d="M742.583 87.2147L732.304 90.3912C708.559 97.7247 683.014 96.6676 659.955 87.3974C634.286 77.0755 605.639 76.973 579.897 87.111L555.582 96.6912" stroke="#1A1818" stroke-width="1.5" stroke-miterlimit="10" stroke-linecap="round"/>
<g style="mix-blend-mode:multiply">
<mask id="mask4_460_13938" style="mask-type:luminance" maskUnits="userSpaceOnUse" x="683" y="165" width="60" height="55">
<path d="M742.583 165.564H683.262V219.393H742.583V165.564Z" fill="white"/>
</mask>
<g mask="url(#mask4_460_13938)">
<path d="M683.266 165.565L742.583 192.479L683.266 219.394" fill="#14AEFF"/>
</g>
</g>
<path d="M1631.69 166.21H1659.74C1666.72 166.21 1673.42 168.986 1678.37 173.926C1683.31 178.867 1686.08 185.568 1686.08 192.556V400.356C1686.08 403.816 1685.4 407.243 1684.08 410.44C1682.75 413.637 1680.81 416.542 1678.37 418.989C1675.92 421.436 1673.02 423.377 1669.82 424.702C1666.62 426.026 1663.2 426.708 1659.74 426.708H1504.82C1498.75 426.708 1492.87 424.615 1488.17 420.782C1483.47 416.949 1480.23 411.611 1479.01 405.668" stroke="#1A1818" stroke-width="1.5" stroke-linecap="round" stroke-linejoin="round"/>
<path d="M1563.76 222.906C1582.28 222.906 1597.3 207.889 1597.3 189.364C1597.3 170.839 1582.28 155.822 1563.76 155.822C1545.23 155.822 1530.21 170.839 1530.21 189.364C1530.21 207.889 1545.23 222.906 1563.76 222.906Z" fill="#FFFDF7" stroke="#1A1818" stroke-width="1.5" stroke-linecap="round" stroke-linejoin="round"/>
<path d="M1586.91 189.362C1586.91 193.941 1585.55 198.418 1583.01 202.225C1580.47 206.032 1576.85 209 1572.62 210.752C1568.39 212.504 1563.74 212.963 1559.24 212.07C1554.75 211.176 1550.63 208.971 1547.39 205.733C1544.15 202.495 1541.95 198.37 1541.05 193.879C1540.16 189.388 1540.62 184.733 1542.37 180.502C1544.12 176.272 1547.09 172.656 1550.9 170.112C1554.71 167.568 1559.18 166.21 1563.76 166.21C1569.9 166.21 1575.79 168.649 1580.13 172.991C1584.47 177.333 1586.91 183.222 1586.91 189.362Z" stroke="#1A1818" stroke-width="1.5" stroke-linecap="round" stroke-linejoin="round"/>
</g>
<defs>
<clipPath id="clip0_460_13938">
<rect width="1920" height="730" fill="white" transform="translate(0 0.600098)"/>
</clipPath>
</defs>
</svg>
