<svg width="375" height="350" viewBox="0 0 375 350" fill="none" xmlns="http://www.w3.org/2000/svg">
<g clip-path="url(#clip0_460_16031)">
<path d="M431.871 93.2599V278.518C431.871 288.812 423.545 297.156 413.261 297.156H241.181C237.647 297.156 234.469 298.583 232.155 300.901C229.842 303.207 228.418 306.418 228.418 309.946C228.418 317.004 234.126 322.737 241.181 322.737H250.092" stroke="#221E1F" stroke-width="1.49919" stroke-miterlimit="10" stroke-linecap="round"/>
<path d="M330.074 63.0927C331.511 63.7679 333.125 64.1246 334.816 64.0991H424.587" stroke="#221E1F" stroke-width="1.49919" stroke-miterlimit="10" stroke-linecap="round"/>
<path d="M210.078 204.578C210.078 204.578 222.625 221.738 246.167 204.578" stroke="#191311" stroke-width="1.49919" stroke-miterlimit="10" stroke-linecap="round"/>
<path d="M138.278 65.2584C150.044 65.2584 159.583 55.6991 159.583 43.907C159.583 32.1149 150.044 22.5555 138.278 22.5555C126.511 22.5555 116.973 32.1149 116.973 43.907C116.973 55.6991 126.511 65.2584 138.278 65.2584Z" stroke="#191311" stroke-width="1.49919" stroke-miterlimit="10" stroke-linecap="round"/>
<path d="M245.986 104.369C222.125 86.5972 192.57 76.0743 160.549 76.0743H135.812C118.676 76.0743 104.77 62.15 104.77 44.9644C104.77 27.7915 118.664 13.8545 135.812 13.8545H269.947C282.418 13.8545 292.524 23.9824 292.524 36.4799C292.524 48.9774 282.418 59.1053 269.947 59.1053H246.481C238.092 59.1053 231.291 52.2896 231.291 43.8815C231.291 35.4735 238.092 28.6578 246.481 28.6578H308.197" stroke="#221E1F" stroke-width="1.49919" stroke-miterlimit="10" stroke-linecap="round"/>
<path d="M250.095 322.75C274.972 322.75 295.133 302.545 295.133 277.614V255.829H311.621C321.561 255.829 329.621 247.752 329.621 237.79C329.621 227.827 321.561 219.751 311.621 219.751H303.892C303.892 172.5 281.125 130.574 245.977 104.382" stroke="#221E1F" stroke-width="1.49919" stroke-miterlimit="10" stroke-linecap="round"/>
<path d="M206.184 130.587C255.315 130.587 295.128 170.5 295.128 219.725C295.128 219.725 299.311 225.955 303.887 219.725" stroke="#221E1F" stroke-width="1.49919" stroke-miterlimit="10" stroke-linecap="round" stroke-dasharray="2.14 2.14"/>
<path d="M228.977 133.543L249.202 106.942" stroke="#221E1F" stroke-width="1.49919" stroke-miterlimit="10" stroke-linecap="round" stroke-dasharray="2.14 2.14"/>
<path d="M271.231 128.446L255.531 145.556" stroke="#221E1F" stroke-width="1.49919" stroke-miterlimit="10" stroke-linecap="round" stroke-dasharray="2.14 2.14"/>
<path d="M286.982 151.951L274.562 162.716" stroke="#221E1F" stroke-width="1.49919" stroke-miterlimit="10" stroke-linecap="round" stroke-dasharray="2.14 2.14"/>
<path d="M296.048 175.162L286.984 181.787" stroke="#221E1F" stroke-width="1.49919" stroke-miterlimit="10" stroke-linecap="round" stroke-dasharray="2.14 2.14"/>
<path d="M293.312 201.189L301.919 195.189" stroke="#221E1F" stroke-width="1.49919" stroke-miterlimit="10" stroke-linecap="round" stroke-dasharray="2.14 2.14"/>
<path d="M204.661 130.587H124.83C110.618 130.587 99.0888 142.129 99.0888 156.384V275.843C99.0888 283.83 105.546 290.302 113.517 290.302H125.911C136.818 290.302 145.983 298.901 146.288 309.844C146.44 315.615 144.165 320.851 140.428 324.61C136.69 328.368 131.784 330.495 126.254 330.495C126.254 330.495 111.407 334.126 73.1947 315.756C24.9532 292.544 4.35998 314.953 -20.1993 322.355C-20.1993 322.355 -70.9832 339.719 -130.271 308.43C-165 290.098 -207.178 300.914 -236.174 313.029C-289.322 335.234 -349.729 332.304 -400.513 305.093C-401.314 304.672 -402.102 304.239 -402.903 303.793C-482.873 259.995 -540 320.355 -540 320.355" stroke="#221E1F" stroke-width="1.49919" stroke-miterlimit="10" stroke-linecap="round"/>
<path d="M192.431 330.776V284.072C192.431 279.231 188.516 275.308 183.685 275.308H175.41C168.762 275.308 164.885 267.791 168.711 262.339L190.054 232.057C196.359 223.114 196.461 211.954 193.347 201.457C183.622 168.691 195.457 141.454 200.046 130.587C207.202 113.643 217.906 102.012 230.16 94.1389C263.249 72.8512 307.613 79.0426 323.719 82.2784" stroke="#221E1F" stroke-width="1.49919" stroke-miterlimit="10" stroke-linecap="round"/>
<path d="M329.91 83.6799C385.245 98.2539 421.156 174.576 386.313 253.727C382.27 262.912 378.571 271.346 375.215 279.002C372.571 285.028 371.669 291.232 372.215 297.156C373.855 315.246 388.919 330.776 408.953 330.776H460.893" stroke="#221E1F" stroke-width="1.49919" stroke-miterlimit="10" stroke-linecap="round"/>
<g style="mix-blend-mode:multiply">
<path d="M94.4634 269.473C108.785 269.473 120.396 257.837 120.396 243.484C120.396 229.131 108.785 217.496 94.4634 217.496C80.1415 217.496 68.5312 229.131 68.5312 243.484C68.5312 257.837 80.1415 269.473 94.4634 269.473Z" fill="#48BFF4"/>
</g>
<g style="mix-blend-mode:multiply">
<path d="M115.096 43.907H94.4648V105.248H115.096V43.907Z" fill="#48BFF4"/>
</g>
<path d="M323.402 68.265C315 68.265 308.199 61.4493 308.199 53.0285V25.8042C307.855 15.7782 315.444 7.24268 325.423 6.41461H491.25V163.506M491.25 163.506C489.101 162.996 486.851 162.729 484.538 162.729H463.754C461.122 162.729 458.758 163.799 457.029 165.518C455.313 167.238 454.245 169.633 454.245 172.258C454.245 177.519 458.504 181.787 463.754 181.787H473.783C478.614 181.787 482.974 179.825 486.139 176.666C489.292 173.493 491.25 169.124 491.25 164.283V163.506ZM491.25 163.506C504.444 166.538 514.283 178.385 514.283 192.539C514.283 200.769 510.953 208.221 505.563 213.61C500.186 219.012 492.749 222.349 484.538 222.349H460.487C451.817 222.349 444.8 229.382 444.8 238.057C444.8 242.401 446.555 246.325 449.389 249.166C452.224 252.02 456.152 253.778 460.487 253.778H484.372C492.343 253.778 515.516 241.471 521.453 239.599C531.953 236.287 542.631 244.198 542.631 255.23V284.378C542.631 290.455 537.711 295.385 531.648 295.385H480.635M480.635 295.385V295.169C480.635 286.518 476.402 278.289 469.118 273.626C465.05 271.027 460.233 269.677 455.25 272.034C441.966 278.314 447.635 295.385 459.584 295.385H480.635ZM480.635 295.385V311.246C480.635 322.036 471.902 330.776 461.135 330.776" stroke="#221E1F" stroke-width="1.49919" stroke-miterlimit="10"/>
<path d="M323.848 53.3088V25.1927C323.848 21.9186 326.492 19.2816 329.746 19.2816H354.941C357.725 19.2816 359.975 21.5365 359.975 24.3264V29.6897C359.975 32.4797 362.225 34.7346 365.009 34.7346H382.576C384.649 34.7346 386.492 36.2888 386.632 38.3654C386.708 39.5501 386.263 40.6203 385.5 41.3846C384.801 42.0853 383.822 42.5184 382.754 42.5184H334.068C328.36 42.8114 323.873 47.5251 323.848 53.2579V146.116C323.848 149.913 327.763 152.435 331.208 150.868C335.657 148.842 338.517 144.396 338.517 139.492V108.981C338.517 105.286 335.53 102.305 331.856 102.305C330.572 102.305 329.53 101.248 329.543 99.9609L330.089 63.0928C326.403 61.3857 323.848 57.653 323.848 53.3088Z" stroke="#221E1F" stroke-width="1.49919" stroke-miterlimit="10"/>
<path d="M330.367 43.3982V19.2816" stroke="#221E1F" stroke-width="1.49919" stroke-miterlimit="10"/>
</g>
<defs>
<clipPath id="clip0_460_16031">
<rect width="375" height="350" fill="white"/>
</clipPath>
</defs>
</svg>
