<svg width="313" height="104" viewBox="0 0 313 104" fill="none" xmlns="http://www.w3.org/2000/svg">
<path d="M312.768 93.6264V101.033H254.356V93.6264H279.649V13.9739L255.613 31.1621V21.2404L282.164 1.81641H289.012V93.6264H312.768Z" fill="#1A1818"/>
<path d="M230.342 93.6264V101.033H171.93V93.6264H197.224V13.9739L173.188 31.1621V21.2404L199.739 1.81641H206.586V93.6264H230.342Z" fill="#1A1818"/>
<path d="M115.077 0C121.505 0 127.095 1.58374 131.846 4.75121C136.691 7.82551 140.51 12.2041 143.305 17.8869C147.777 26.5508 150.013 37.7767 150.013 51.5645C150.013 65.4454 147.777 76.7179 143.305 85.3818C140.51 91.0647 136.691 95.4432 131.846 98.5175C127.095 101.592 121.505 103.129 115.077 103.129C108.649 103.129 103.013 101.592 98.1687 98.5175C93.4175 95.35 89.6445 90.9715 86.8497 85.3818C82.3779 76.5316 80.1421 65.2591 80.1421 51.5645C80.1421 37.7767 82.3779 26.5508 86.8497 17.8869C89.6445 12.2041 93.4175 7.82551 98.1687 4.75121C103.013 1.58374 108.649 0 115.077 0ZM115.077 8.10499C106.227 8.10499 99.5661 12.8096 95.0944 22.2188C91.5543 29.2991 89.7842 39.0809 89.7842 51.5645C89.7842 64.1412 91.5543 73.9697 95.0944 81.0499C99.5661 90.4591 106.227 95.1637 115.077 95.1637C124.021 95.1637 130.728 90.4591 135.2 81.0499C138.647 73.5038 140.371 63.6754 140.371 51.5645C140.371 39.5468 138.647 29.7649 135.2 22.2188C130.728 12.8096 124.021 8.10499 115.077 8.10499Z" fill="#1A1818"/>
<path d="M66.4695 93.0676V101.033H0.232178V97.6791C0.232178 90.8783 1.39669 85.1024 3.72571 80.3512C6.14789 75.6 9.26877 71.6406 13.0884 68.4732C16.908 65.2125 22.125 61.4861 28.7394 57.2939L35.0277 53.5209C39.8721 50.726 43.6917 48.3039 46.4865 46.2543C49.2813 44.1116 51.6103 41.5031 53.4736 38.4288C55.4299 35.3545 56.4081 31.7212 56.4081 27.529C56.4081 21.3804 54.3586 16.6292 50.2595 13.2754C46.1604 9.82846 41.0832 8.10499 35.0277 8.10499C28.3202 8.10499 22.8702 10.0614 18.678 13.9741C14.5789 17.8869 11.9704 22.6381 10.8525 28.2277H1.35011C1.81591 23.756 3.44622 19.3774 6.24105 15.0921C9.03587 10.7135 12.8555 7.1268 17.6998 4.33198C22.6373 1.44399 28.3201 0 34.7482 0C40.8969 0 46.3468 1.16451 51.098 3.49353C55.8492 5.82255 59.529 9.0366 62.1375 13.1357C64.746 17.2347 66.0503 21.8928 66.0503 27.1098C66.0503 32.6063 64.9323 37.3109 62.6965 41.2236C60.4606 45.0432 57.6658 48.2573 54.312 50.8658C51.0514 53.3811 46.5331 56.3623 40.7571 59.8092L33.9098 64.0014C28.0407 67.821 23.6621 70.8953 20.7741 73.2244C17.8861 75.4602 15.3708 78.2085 13.2281 81.4691C11.1786 84.7297 9.96748 88.5959 9.59484 93.0676H66.4695Z" fill="#1A1818"/>
</svg>
