<svg width="319" height="104" viewBox="0 0 319 104" fill="none" xmlns="http://www.w3.org/2000/svg">
<path d="M318.283 69.4405V77.1263H303.61V101.162H294.248V77.1263H245.198V69.5803L289.077 1.94556H303.61V69.4405H318.283ZM294.248 69.4405V8.65313L254.841 69.4405H294.248Z" fill="#1A1818"/>
<path d="M231.805 93.1965V101.162H165.568V97.808C165.568 91.0072 166.732 85.2313 169.061 80.4801C171.484 75.7289 174.604 71.7695 178.424 68.6021C182.244 65.3414 187.461 61.615 194.075 57.4228L200.363 53.6498C205.208 50.8549 209.027 48.4328 211.822 46.3832C214.617 44.2405 216.946 41.632 218.809 38.5577C220.766 35.4834 221.744 31.8501 221.744 27.6579C221.744 21.5093 219.694 16.7581 215.595 13.4043C211.496 9.95737 206.419 8.2339 200.363 8.2339C193.656 8.2339 188.206 10.1903 184.014 14.103C179.915 18.0158 177.306 22.767 176.188 28.3566H166.686C167.152 23.8849 168.782 19.5064 171.577 15.221C174.372 10.8424 178.191 7.2557 183.036 4.46088C187.973 1.5729 193.656 0.128906 200.084 0.128906C206.233 0.128906 211.682 1.29342 216.434 3.62244C221.185 5.95146 224.865 9.1655 227.473 13.2646C230.082 17.3636 231.386 22.0217 231.386 27.2387C231.386 32.7352 230.268 37.4398 228.032 41.3525C225.796 45.1721 223.001 48.3862 219.648 50.9947C216.387 53.51 211.869 56.4912 206.093 59.9381L199.245 64.1304C193.376 67.95 188.998 71.0243 186.11 73.3533C183.222 75.5891 180.706 78.3374 178.564 81.598C176.514 84.8586 175.303 88.7248 174.931 93.1965H231.805Z" fill="#1A1818"/>
<path d="M115.562 0.128906C121.99 0.128906 127.58 1.71264 132.331 4.88011C137.176 7.95442 140.995 12.333 143.79 18.0158C148.262 26.6797 150.498 37.9056 150.498 51.6934C150.498 65.5743 148.262 76.8468 143.79 85.5107C140.995 91.1936 137.176 95.5721 132.331 98.6464C127.58 101.721 121.99 103.258 115.562 103.258C109.134 103.258 103.498 101.721 98.6536 98.6464C93.9024 95.479 90.1293 91.1004 87.3345 85.5107C82.8628 76.6605 80.627 65.388 80.627 51.6934C80.627 37.9056 82.8628 26.6797 87.3345 18.0158C90.1293 12.333 93.9024 7.95442 98.6536 4.88011C103.498 1.71264 109.134 0.128906 115.562 0.128906ZM115.562 8.2339C106.712 8.2339 100.051 12.9385 95.5793 22.3478C92.0391 29.428 90.2691 39.2099 90.2691 51.6934C90.2691 64.2701 92.0391 74.0986 95.5793 81.1788C100.051 90.588 106.712 95.2926 115.562 95.2926C124.506 95.2926 131.213 90.588 135.685 81.1788C139.132 73.6328 140.855 63.8043 140.855 51.6934C140.855 39.6757 139.132 29.8938 135.685 22.3478C131.213 12.9385 124.506 8.2339 115.562 8.2339Z" fill="#1A1818"/>
<path d="M66.9543 93.1965V101.162H0.717041V97.808C0.717041 91.0072 1.88155 85.2313 4.21057 80.4801C6.63275 75.7289 9.75364 71.7695 13.5732 68.6021C17.3928 65.3414 22.6098 61.615 29.2242 57.4228L35.5126 53.6498C40.3569 50.8549 44.1765 48.4328 46.9714 46.3832C49.7662 44.2405 52.0952 41.632 53.9584 38.5577C55.9148 35.4834 56.893 31.8501 56.893 27.6579C56.893 21.5093 54.8434 16.7581 50.7444 13.4043C46.6453 9.95737 41.568 8.2339 35.5126 8.2339C28.805 8.2339 23.3551 10.1903 19.1629 14.103C15.0638 18.0158 12.4553 22.767 11.3374 28.3566H1.83497C2.30077 23.8849 3.93109 19.5064 6.72591 15.221C9.52073 10.8424 13.3403 7.2557 18.1847 4.46088C23.1222 1.5729 28.805 0.128906 35.2331 0.128906C41.3817 0.128906 46.8316 1.29342 51.5828 3.62244C56.334 5.95146 60.0139 9.1655 62.6224 13.2646C65.2309 17.3636 66.5351 22.0217 66.5351 27.2387C66.5351 32.7352 65.4172 37.4398 63.1813 41.3525C60.9455 45.1721 58.1507 48.3862 54.7969 50.9947C51.5362 53.51 47.0179 56.4912 41.242 59.9381L34.3947 64.1304C28.5255 67.95 24.147 71.0243 21.259 73.3533C18.371 75.5891 15.8557 78.3374 13.713 81.598C11.6634 84.8586 10.4523 88.7248 10.0797 93.1965H66.9543Z" fill="#1A1818"/>
</svg>
