<svg width="89" height="116" viewBox="0 0 89 116" fill="none" xmlns="http://www.w3.org/2000/svg">
<path d="M44.5 110.765L44.4898 111.006C44.3875 112.198 43.5356 113.129 42.5 113.129C41.4644 113.129 40.6125 112.198 40.5102 111.006L40.5 110.765L40.5 2.49331C40.5 1.18749 41.3954 0.128906 42.5 0.128906C43.6046 0.128906 44.5 1.18749 44.5 2.49331L44.5 110.765Z" fill="#1A1818"/>
<path d="M43.8142 114.667C42.8793 115.355 41.5614 115.271 40.7224 114.437L1.19576 75.1588C0.268089 74.237 0.268089 72.7418 1.19576 71.82C2.1233 70.8985 3.62711 70.8986 4.55475 71.82L42.4854 109.513L84.5313 71.7389C85.5045 70.8646 87.0068 70.9396 87.8866 71.9067C88.7663 72.8737 88.6909 74.3667 87.7177 75.2409L43.9951 114.52L43.8142 114.667Z" fill="#1A1818"/>
</svg>
