<svg width="375" height="1386" viewBox="0 0 375 1386" fill="none" xmlns="http://www.w3.org/2000/svg">
<g clip-path="url(#clip0_460_14932)">
<path d="M113.086 258.773H94.549C91.3271 258.773 88.237 257.493 85.9584 255.215C83.6799 252.937 82.3995 249.848 82.399 246.626V228.089C82.4136 226.484 82.1101 224.893 81.5063 223.407C80.9024 221.92 80.01 220.568 78.8806 219.428C77.7513 218.289 76.4073 217.384 74.9264 216.767C73.4455 216.149 71.8569 215.832 70.2525 215.832C68.6481 215.832 67.0595 216.149 65.5786 216.767C64.0977 217.384 62.7537 218.289 61.6244 219.428C60.495 220.568 59.6027 221.92 58.9988 223.407C58.3949 224.893 58.0915 226.484 58.106 228.089V246.627C58.1055 249.849 56.8251 252.938 54.5466 255.216C52.2681 257.494 49.1779 258.774 45.956 258.774H27.418C25.8228 258.773 24.2432 259.087 22.7693 259.698C21.2955 260.308 19.9563 261.203 18.8282 262.331C17.7001 263.458 16.8053 264.797 16.1948 266.271C15.5842 267.745 15.27 269.325 15.27 270.92C15.2699 272.515 15.584 274.095 16.1944 275.568C16.8048 277.042 17.6995 278.381 18.8275 279.509C19.9555 280.637 21.2946 281.532 22.7684 282.142C24.2422 282.753 25.8218 283.067 27.417 283.067H45.955C49.177 283.066 52.2671 284.346 54.5456 286.624C56.8241 288.902 58.1045 291.992 58.105 295.214V313.754C58.0905 315.358 58.3939 316.949 58.9978 318.436C59.6017 319.922 60.4941 321.274 61.6234 322.414C62.7528 323.554 64.0967 324.458 65.5776 325.076C67.0585 325.693 68.6471 326.011 70.2515 326.011C71.8559 326.011 73.4445 325.693 74.9254 325.076C76.4063 324.458 77.7503 323.554 78.8796 322.414C80.009 321.274 80.9014 319.922 81.5052 318.436C82.1091 316.949 82.4126 315.358 82.398 313.754V295.217C82.3985 291.995 83.6789 288.905 85.9574 286.627C88.236 284.349 91.3261 283.069 94.548 283.07H113.086C114.681 283.07 116.261 282.756 117.735 282.145C119.208 281.535 120.548 280.64 121.676 279.512C122.804 278.384 123.698 277.045 124.309 275.571C124.919 274.098 125.233 272.518 125.233 270.923C125.234 269.327 124.92 267.747 124.31 266.273C123.699 264.799 122.805 263.46 121.677 262.331C120.549 261.203 119.209 260.308 117.735 259.697C116.261 259.087 114.681 258.773 113.086 258.773Z" stroke="#1A1818" stroke-width="1.5" stroke-miterlimit="10" stroke-linecap="round"/>
<g style="mix-blend-mode:multiply">
<mask id="mask0_460_14932" style="mask-type:luminance" maskUnits="userSpaceOnUse" x="84" y="48" width="83" height="83">
<path d="M166.04 48.5747H84.4263V130.186H166.04V48.5747Z" fill="white"/>
</mask>
<g mask="url(#mask0_460_14932)">
<path d="M166.04 89.3817C166.04 97.452 163.646 105.341 159.162 112.051C154.679 118.761 148.306 123.991 140.85 127.079C133.394 130.167 125.189 130.975 117.274 129.401C109.359 127.826 102.088 123.94 96.3817 118.233C90.6751 112.527 86.7889 105.256 85.2143 97.3409C83.6398 89.4257 84.4477 81.2213 87.5359 73.7652C90.6241 66.3092 95.8539 59.9363 102.564 55.4524C109.274 50.9686 117.163 48.5751 125.233 48.5747C136.056 48.5747 146.435 52.874 154.088 60.5268C161.741 68.1796 166.04 78.559 166.04 89.3817Z" fill="#14AEFF"/>
</g>
</g>
<path d="M180.393 216.971C177.338 216.971 174.312 216.369 171.489 215.2C168.665 214.031 166.1 212.317 163.94 210.156C161.779 207.996 160.065 205.43 158.896 202.607C157.727 199.784 157.125 196.758 157.125 193.703V152.125C156.875 144.751 159.472 137.563 164.378 132.052C169.284 126.541 176.123 123.13 183.476 122.525L709.353 121.525C721.533 121.526 733.214 126.363 741.829 134.973L768.67 161.805C770.305 163.426 771.51 165.429 772.177 167.633V167.651C772.61 169.003 772.828 170.416 772.821 171.836C772.822 173.882 772.381 175.903 771.526 177.763C770.672 179.622 769.426 181.274 767.873 182.606C765.08 184.919 761.519 186.097 757.898 185.908C754.276 185.718 750.858 184.175 748.321 181.583L708.328 141.583L672.577 105.838C666.972 100.227 662.605 93.505 659.757 86.1037C656.909 78.7024 655.643 70.7864 656.041 62.8661C656.44 54.9457 658.493 47.1966 662.069 40.1183C665.645 33.04 670.665 26.7896 676.804 21.7698C699.394 3.19876 732.565 5.34376 753.246 26.0248L753.285 26.0608" stroke="#1A1818" stroke-width="1.5" stroke-miterlimit="10" stroke-linecap="round"/>
<path d="M1051.98 279.063C1050.35 274.923 1048.83 271.374 1047.6 268.472C1034.76 238.129 1015.53 217.28 993.534 203.178C934.117 165.052 854.473 176.137 825.559 181.938L814.483 184.45C715.127 210.559 650.662 347.278 713.215 489.095C720.475 505.561 727.115 520.653 733.133 534.371C737.668 544.575 739.52 555.768 738.513 566.889V566.898C735.556 599.307 708.518 627.117 672.565 627.117H404.184C400.233 627.117 396.443 625.547 393.648 622.753C390.854 619.958 389.284 616.168 389.284 612.217V598.543C389.284 597.06 388.993 595.592 388.425 594.222C387.858 592.852 387.026 591.607 385.978 590.559C384.93 589.511 383.685 588.679 382.315 588.112C380.945 587.544 379.477 587.252 377.994 587.253H62.6664C58.0599 587.253 53.6422 585.423 50.385 582.165C47.1278 578.908 45.2979 574.491 45.2979 569.884C45.2979 565.278 47.1278 560.86 50.385 557.603C53.6422 554.345 58.0599 552.516 62.6664 552.516H325.224C334.455 552.516 343.308 548.849 349.835 542.322C356.362 535.794 360.029 526.942 360.029 517.711C360.029 508.48 356.362 499.628 349.835 493.101C343.308 486.573 334.455 482.907 325.224 482.907H178.275C166.915 482.907 162.143 468.397 171.3 461.673C196.637 443.073 235.414 418.99 266.331 418.99" stroke="#1A1818" stroke-width="1.5" stroke-miterlimit="10" stroke-linecap="round"/>
<path d="M181.062 194.129V151.204C181.062 148.808 182.014 146.51 183.709 144.815C185.403 143.12 187.701 142.168 190.098 142.168H228.644C230.688 142.169 232.648 142.981 234.093 144.426C235.539 145.872 236.351 147.832 236.352 149.875V158.075C236.352 159.087 236.551 160.088 236.938 161.022C237.325 161.956 237.892 162.805 238.607 163.52C239.322 164.235 240.171 164.802 241.105 165.189C242.04 165.576 243.041 165.775 244.052 165.775H270.942C272.484 165.751 273.978 166.308 275.127 167.336C276.276 168.364 276.996 169.788 277.142 171.322C277.197 172.136 277.084 172.952 276.81 173.72C276.535 174.489 276.106 175.192 275.548 175.787C274.991 176.382 274.316 176.856 273.568 177.179C272.819 177.502 272.012 177.668 271.196 177.665H196.698C192.488 177.881 188.52 179.702 185.612 182.754C182.703 185.805 181.075 189.856 181.062 194.071V335.856C181.062 337.19 181.396 338.502 182.035 339.673C182.673 340.843 183.595 341.835 184.716 342.557C185.837 343.279 187.121 343.709 188.451 343.806C189.781 343.903 191.114 343.665 192.328 343.113C195.666 341.598 198.496 339.154 200.481 336.072C202.466 332.991 203.522 329.403 203.522 325.737V279.153C203.522 276.448 202.447 273.854 200.534 271.941C198.622 270.028 196.027 268.953 193.322 268.953C192.853 268.953 192.389 268.86 191.957 268.679C191.525 268.498 191.133 268.233 190.804 267.899C190.475 267.565 190.216 267.169 190.041 266.734C189.867 266.299 189.781 265.833 189.788 265.364L190.617 209.064C187.763 207.748 185.347 205.642 183.654 202.995C181.96 200.347 181.062 197.27 181.064 194.127" stroke="#1A1818" stroke-width="1.5" stroke-miterlimit="10" stroke-linecap="round"/>
<path d="M191.045 178.992V142.164" stroke="#1A1818" stroke-width="1.5" stroke-miterlimit="10" stroke-linecap="round"/>
<path d="M276.474 276.068C268.692 276.068 261.209 279.064 255.576 284.434C249.944 289.804 246.596 297.137 246.225 304.91L244.57 339.665L244.924 340.165C278.066 328.866 314.018 328.866 347.16 340.165L347.514 339.665L345.859 304.91C345.489 297.136 342.141 289.804 336.509 284.433C330.876 279.063 323.393 276.067 315.61 276.068H276.474Z" stroke="#1A1818" stroke-width="1.5" stroke-linecap="round" stroke-linejoin="round"/>
<path d="M244.572 339.666L251.689 362.186" stroke="#1A1818" stroke-width="1.5" stroke-linecap="round" stroke-linejoin="round"/>
<path d="M347.161 340.162L337.91 361.52" stroke="#1A1818" stroke-width="1.5" stroke-linecap="round" stroke-linejoin="round"/>
<path d="M246.111 345.053C239.735 345.553 236.264 351.017 236.264 357.681V360.386C236.264 367.386 242.758 373.858 249.751 373.858L257.961 404.5" stroke="#1A1818" stroke-width="1.5" stroke-linecap="round" stroke-linejoin="round"/>
<path d="M345.897 345.053C352.273 345.553 355.744 351.017 355.744 357.681V360.386C355.744 367.386 349.25 373.858 342.257 373.858L334.047 404.5" stroke="#1A1818" stroke-width="1.5" stroke-linecap="round" stroke-linejoin="round"/>
<path d="M190.615 209.062C192.879 210.125 195.359 210.647 197.859 210.587H360.031C363.626 210.587 367.185 211.296 370.506 212.671C373.827 214.047 376.844 216.064 379.386 218.606C381.927 221.148 383.943 224.166 385.318 227.487C386.693 230.808 387.4 234.368 387.399 237.962V404.942C387.4 408.543 386.691 412.109 385.313 415.436C383.936 418.763 381.916 421.785 379.37 424.332C376.824 426.878 373.802 428.898 370.475 430.276C367.148 431.654 363.583 432.363 359.982 432.363H349.2C339.955 432.363 331.03 435.752 324.114 441.889L302.641 460.937C300.603 462.745 297.992 463.773 295.269 463.84C292.545 463.907 289.886 463.009 287.762 461.303L247.415 428.92C247.415 428.92 176.465 370.762 80.4691 428.92C80.4691 428.92 14.8031 474 -49.1959 452.854C-113.195 431.707 -132.671 409.605 -132.671 409.605" stroke="#1A1818" stroke-width="1.5" stroke-miterlimit="10" stroke-linecap="round"/>
<path d="M334.367 409.089L334.225 409.116C300.599 415.734 291.109 415.256 257.819 407.733C259.834 367.674 251.688 362.187 251.688 362.187L254.178 361.518C281.45 354.3 310.124 354.255 337.417 361.388L337.907 361.518C337.907 361.518 328.036 369.846 334.367 409.089Z" stroke="#1A1818" stroke-width="1.5" stroke-linecap="round" stroke-linejoin="round"/>
<path d="M266.334 409.606V443.586" stroke="#1A1818" stroke-width="1.5" stroke-linecap="round" stroke-linejoin="round"/>
<path d="M326.146 412.216V439.166" stroke="#1A1818" stroke-width="1.5" stroke-linecap="round" stroke-linejoin="round"/>
<path d="M-1165.51 652.084L424.126 652.341C427.511 652.344 430.863 651.68 433.99 650.386C437.118 649.093 439.96 647.196 442.354 644.804C444.749 642.412 446.648 639.572 447.944 636.445C449.24 633.318 449.906 629.967 449.906 626.583V543.444C449.906 539.28 448.252 535.286 445.308 532.342C442.364 529.398 438.37 527.744 434.206 527.744H419.342C416.643 527.742 413.997 526.999 411.692 525.596C409.387 524.192 407.511 522.182 406.271 519.785C405.031 517.388 404.473 514.697 404.659 512.004C404.845 509.312 405.767 506.722 407.325 504.519L445.65 450.27C456.977 434.247 457.159 414.247 451.569 395.44C434.115 336.74 455.364 287.94 463.606 268.474C476.455 238.128 495.683 217.274 517.677 203.18C577.091 165.054 656.738 176.139 685.652 181.937L696.727 184.452C796.082 210.561 860.548 347.28 797.995 489.098C790.736 505.564 784.096 520.656 778.074 534.374C773.542 544.578 771.691 555.771 772.697 566.892V566.901C775.654 599.307 802.692 627.117 838.644 627.117H1319.12C1320.07 627.116 1321.01 627.303 1321.89 627.666C1322.76 628.029 1323.56 628.561 1324.23 629.231C1324.9 629.901 1325.43 630.697 1325.79 631.573C1326.16 632.45 1326.34 633.388 1326.34 634.337V650.021C1326.34 653.23 1327.62 656.309 1329.89 658.579C1332.16 660.848 1335.24 662.124 1338.45 662.124C1341.66 662.124 1344.74 660.848 1347.01 658.579C1349.28 656.309 1350.55 653.23 1350.55 650.021V635.313C1350.57 633.502 1351.31 631.773 1352.59 630.5C1353.88 629.227 1355.62 628.514 1357.43 628.514C1359.24 628.514 1360.98 629.227 1362.27 630.5C1363.56 631.773 1364.29 633.502 1364.31 635.313V650.02C1364.31 653.23 1365.59 656.308 1367.86 658.578C1370.13 660.848 1373.21 662.124 1376.42 662.124C1379.63 662.124 1382.71 660.848 1384.98 658.578C1387.25 656.308 1388.52 653.23 1388.52 650.02V635.945C1388.52 634.099 1389.25 632.33 1390.56 631.025C1391.86 629.721 1393.63 628.988 1395.48 628.988C1397.32 628.988 1399.09 629.721 1400.4 631.025C1401.7 632.33 1402.44 634.099 1402.44 635.945V650.062C1402.44 651.646 1402.75 653.214 1403.35 654.678C1403.96 656.141 1404.85 657.471 1405.97 658.591C1407.09 659.711 1408.42 660.599 1409.88 661.205C1411.34 661.812 1412.91 662.124 1414.5 662.124C1416.08 662.124 1417.65 661.812 1419.11 661.205C1420.58 660.599 1421.91 659.711 1423.03 658.591C1424.15 657.471 1425.03 656.141 1425.64 654.678C1426.25 653.214 1426.56 651.646 1426.56 650.062V628.362H2473.51" stroke="#1A1818" stroke-width="1.5" stroke-miterlimit="10" stroke-linecap="round"/>
<path d="M326.145 422.458C326.145 422.458 335.78 424.298 349.201 432.358" stroke="#1A1818" stroke-width="1.5" stroke-linecap="round" stroke-linejoin="round"/>
<path d="M250.371 80.4769H91.8074C88.9661 80.4962 86.149 79.9533 83.5183 78.8794C80.8877 77.8055 78.4955 76.2217 76.4795 74.2194C74.4634 72.2171 72.8634 69.8357 71.7716 67.2124C70.6798 64.5892 70.1177 61.7758 70.1177 58.9344C70.1177 56.093 70.6798 53.2796 71.7716 50.6564C72.8634 48.0331 74.4634 45.6517 76.4795 43.6494C78.4955 41.6471 80.8877 40.0633 83.5183 38.9894C86.149 37.9155 88.9661 37.3725 91.8074 37.3919H129.588V33.2919C129.588 28.0433 131.179 22.918 134.152 18.5923C137.124 14.2666 141.339 10.9439 146.239 9.06267C151.138 7.18144 156.494 6.83012 161.597 8.05507C166.701 9.28001 171.313 12.0236 174.825 15.9239C183.994 26.0609 201.825 41.5639 225.064 41.5639H250.371C252.926 41.5639 255.456 42.0671 257.817 43.0449C260.177 44.0226 262.322 45.4558 264.129 47.2624C265.936 49.0691 267.369 51.2139 268.346 53.5744C269.324 55.9349 269.827 58.4649 269.827 61.0199C269.827 63.5749 269.324 66.1049 268.346 68.4654C267.369 70.8259 265.936 72.9707 264.129 74.7774C262.322 76.584 260.177 78.0171 257.817 78.9949C255.456 79.9726 252.926 80.4769 250.371 80.4769Z" stroke="#1A1818" stroke-width="1.5" stroke-miterlimit="10" stroke-linecap="round"/>
<path d="M485.606 25.8613L475.306 29.0443C451.511 36.3929 425.912 35.3337 402.806 26.0443C377.083 15.7012 348.377 15.5985 322.581 25.7573L298.215 35.3573" stroke="#1A1818" stroke-width="1.5" stroke-miterlimit="10" stroke-linecap="round"/>
<path d="M485.606 44.4384L475.306 47.6214C451.511 54.97 425.912 53.9107 402.806 44.6214C377.083 34.2797 348.377 34.177 322.581 44.3344L298.215 53.9344" stroke="#1A1818" stroke-width="1.5" stroke-miterlimit="10" stroke-linecap="round"/>
<path d="M485.606 63.0156L475.306 66.1986C451.511 73.5472 425.912 72.488 402.806 63.1986C377.083 52.8555 348.377 52.7528 322.581 62.9116L298.215 72.5116" stroke="#1A1818" stroke-width="1.5" stroke-miterlimit="10" stroke-linecap="round"/>
<path d="M121.713 755.991H67.4433C66.4024 755.991 65.4042 755.577 64.6682 754.841C63.9322 754.105 63.5186 753.107 63.5183 752.066V697.796C63.5185 697.02 63.7487 696.261 64.18 695.616C64.6113 694.97 65.2242 694.467 65.9413 694.17C66.6584 693.873 67.4475 693.796 68.2088 693.947C68.9701 694.098 69.6693 694.472 70.2183 695.021L124.485 749.288C125.034 749.837 125.409 750.536 125.56 751.297C125.712 752.058 125.635 752.848 125.338 753.565C125.041 754.283 124.539 754.896 123.893 755.328C123.248 755.759 122.49 755.99 121.713 755.991Z" stroke="#1A1818" stroke-width="1.5" stroke-miterlimit="10"/>
<g style="mix-blend-mode:multiply">
<mask id="mask1_460_14932" style="mask-type:luminance" maskUnits="userSpaceOnUse" x="300" y="1008" width="53" height="53">
<path d="M352.564 1008.25H300.037V1060.78H352.564V1008.25Z" fill="white"/>
</mask>
<g mask="url(#mask1_460_14932)">
<path d="M352.567 1034.52C352.567 1039.72 351.025 1044.79 348.139 1049.11C345.253 1053.43 341.15 1056.8 336.351 1058.78C331.552 1060.77 326.271 1061.29 321.177 1060.28C316.082 1059.26 311.403 1056.76 307.73 1053.09C304.057 1049.41 301.557 1044.73 300.544 1039.64C299.531 1034.54 300.051 1029.26 302.039 1024.46C304.027 1019.67 307.394 1015.56 311.713 1012.68C316.032 1009.79 321.11 1008.25 326.304 1008.25C333.27 1008.25 339.949 1011.02 344.874 1015.95C349.8 1020.87 352.567 1027.55 352.567 1034.52" fill="#14AEFF"/>
</g>
</g>
<path d="M357.616 1172.04C357.617 1174.76 356.841 1177.41 355.378 1179.7C353.916 1181.99 351.829 1183.81 349.364 1184.94L350.124 1265.69L339.312 1275.28C338.493 1276 337.914 1276.96 337.654 1278.02C337.393 1279.09 337.464 1280.2 337.855 1281.22C338.246 1282.25 338.94 1283.12 339.844 1283.74C340.748 1284.36 341.818 1284.68 342.912 1284.68C344.282 1284.68 345.599 1284.14 346.583 1283.19L357.616 1272.69V1171.99C357.605 1168.35 356.198 1164.85 353.685 1162.21C351.173 1159.58 347.746 1158 344.108 1157.82H279.738C278.376 1157.82 277.07 1157.28 276.107 1156.31C275.144 1155.35 274.603 1154.04 274.603 1152.68C274.603 1151.32 275.144 1150.01 276.107 1149.05C277.07 1148.09 278.376 1147.55 279.738 1147.55H303.194C304.96 1147.54 306.652 1146.84 307.9 1145.59C309.149 1144.35 309.85 1142.65 309.851 1140.89V1133.81C309.85 1132.93 310.021 1132.07 310.355 1131.26C310.689 1130.45 311.179 1129.72 311.798 1129.1C312.416 1128.48 313.151 1127.99 313.959 1127.65C314.767 1127.32 315.634 1127.15 316.508 1127.15H349.808C350.833 1127.15 351.848 1127.35 352.795 1127.75C353.742 1128.14 354.602 1128.71 355.326 1129.44C356.051 1130.16 356.625 1131.02 357.017 1131.97C357.408 1132.92 357.609 1133.93 357.608 1134.96V1172.04" stroke="#1A1818" stroke-width="1.5" stroke-miterlimit="10"/>
<path d="M344 1186.26L344.762 1260.76L333.944 1270.34C333.125 1271.07 332.547 1272.03 332.287 1273.09C332.027 1274.15 332.097 1275.27 332.489 1276.29C332.88 1277.31 333.574 1278.19 334.477 1278.81C335.38 1279.42 336.45 1279.75 337.544 1279.74" stroke="#1A1818" stroke-width="1.5" stroke-miterlimit="10"/>
<path d="M348.991 1158.96V1127.15" stroke="#1A1818" stroke-width="1.5" stroke-miterlimit="10"/>
<path d="M343.38 1157.82V1127.15" stroke="#1A1818" stroke-width="1.5" stroke-miterlimit="10"/>
<path d="M163.167 911.281L179.774 902.206L188.25 919.128L206.032 862.283L180.949 854.436L163.167 911.281Z" stroke="#1A1818" stroke-width="1.5" stroke-linecap="round" stroke-linejoin="round"/>
<path d="M234.725 911.281L218.125 902.206L209.648 919.128L191.861 862.283L216.948 854.436L234.725 911.281Z" stroke="#707070" stroke-width="1.5"/>
<path d="M234.725 911.281L218.125 902.206L209.648 919.128L191.861 862.283L216.948 854.436L234.725 911.281Z" stroke="#1A1818" stroke-width="1.5" stroke-linecap="round" stroke-linejoin="round"/>
<path d="M233.103 838.377C233.103 845.024 231.132 851.523 227.439 857.05C223.746 862.577 218.496 866.885 212.355 869.429C206.213 871.973 199.455 872.639 192.935 871.342C186.415 870.045 180.426 866.844 175.726 862.143C171.025 857.443 167.824 851.454 166.527 844.934C165.23 838.414 165.896 831.656 168.44 825.514C170.984 819.373 175.292 814.123 180.819 810.43C186.346 806.737 192.845 804.766 199.492 804.766C208.406 804.766 216.955 808.307 223.259 814.61C229.562 820.914 233.103 829.463 233.103 838.377Z" stroke="#707070" stroke-width="1.5"/>
<path d="M222.7 838.374C222.7 842.962 221.34 847.448 218.79 851.263C216.241 855.078 212.618 858.052 208.379 859.808C204.139 861.564 199.475 862.023 194.974 861.128C190.474 860.233 186.34 858.023 183.095 854.779C179.851 851.534 177.641 847.4 176.746 842.9C175.851 838.4 176.31 833.735 178.066 829.496C179.822 825.256 182.796 821.633 186.611 819.084C190.426 816.534 194.912 815.174 199.5 815.174C205.653 815.174 211.554 817.618 215.905 821.969C220.256 826.32 222.7 832.221 222.7 838.374Z" stroke="#707070" stroke-width="1.5"/>
<path d="M78.7773 951.125H246.764" stroke="#1A1818" stroke-width="1.5" stroke-linecap="round" stroke-linejoin="round"/>
<path d="M78.7773 964.48H246.764" stroke="#1A1818" stroke-width="1.5" stroke-linecap="round" stroke-linejoin="round"/>
<path d="M78.7773 977.838H246.764" stroke="#1A1818" stroke-width="1.5" stroke-linecap="round" stroke-linejoin="round"/>
<path d="M81.8594 885.597H130.836" stroke="#1A1818" stroke-width="1.5" stroke-linecap="round" stroke-linejoin="round"/>
<path d="M81.8594 895.213H130.836" stroke="#1A1818" stroke-width="1.5" stroke-linecap="round" stroke-linejoin="round"/>
<path d="M81.8594 904.829H130.836" stroke="#1A1818" stroke-width="1.5" stroke-linecap="round" stroke-linejoin="round"/>
<path d="M78.7773 991.194H246.764" stroke="#1A1818" stroke-width="1.5" stroke-linecap="round" stroke-linejoin="round"/>
<path d="M78.7773 1004.55H246.764" stroke="#1A1818" stroke-width="1.5" stroke-linecap="round" stroke-linejoin="round"/>
<path d="M78.7773 1017.91H246.764" stroke="#1A1818" stroke-width="1.5" stroke-linecap="round" stroke-linejoin="round"/>
<path d="M267.889 951.125H303.509" stroke="#1A1818" stroke-width="1.5" stroke-linecap="round" stroke-linejoin="round"/>
<path d="M267.889 964.48H303.509" stroke="#1A1818" stroke-width="1.5" stroke-linecap="round" stroke-linejoin="round"/>
<path d="M267.889 977.838H303.509" stroke="#1A1818" stroke-width="1.5" stroke-linecap="round" stroke-linejoin="round"/>
<path d="M267.889 991.194H303.509" stroke="#1A1818" stroke-width="1.5" stroke-linecap="round" stroke-linejoin="round"/>
<path d="M267.889 1004.55H303.509" stroke="#1A1818" stroke-width="1.5" stroke-linecap="round" stroke-linejoin="round"/>
<path d="M267.889 1017.91H303.509" stroke="#1A1818" stroke-width="1.5" stroke-linecap="round" stroke-linejoin="round"/>
<path d="M267.889 868.577H303.509" stroke="#1A1818" stroke-width="1.5" stroke-linecap="round" stroke-linejoin="round"/>
<path d="M267.889 881.933H303.509" stroke="#1A1818" stroke-width="1.5" stroke-linecap="round" stroke-linejoin="round"/>
<path d="M267.889 895.289H303.509" stroke="#1A1818" stroke-width="1.5" stroke-linecap="round" stroke-linejoin="round"/>
<path d="M267.889 908.645H303.509" stroke="#1A1818" stroke-width="1.5" stroke-linecap="round" stroke-linejoin="round"/>
<path d="M267.889 922H303.509" stroke="#1A1818" stroke-width="1.5" stroke-linecap="round" stroke-linejoin="round"/>
<path d="M267.889 935.356H303.509" stroke="#1A1818" stroke-width="1.5" stroke-linecap="round" stroke-linejoin="round"/>
<path d="M230.833 1328.54C234.398 1327.96 236.489 1324.74 236.607 1321.13C236.998 1309.5 238.359 1307.34 235.996 1292.68C233.242 1275.62 229.148 1276.28 226.396 1259.21C224.115 1245.06 226.541 1242.19 225.87 1231.9C225.804 1230.94 225.538 1230.01 225.091 1229.16C224.644 1228.31 224.025 1227.57 223.274 1226.97C222.522 1226.38 221.655 1225.94 220.727 1225.7C219.799 1225.46 218.831 1225.41 217.884 1225.57C214.319 1226.14 212.319 1229.37 212.11 1232.97C211.435 1244.53 210.361 1246.76 212.721 1261.41C215.475 1278.48 219.569 1277.82 222.321 1294.89C224.603 1309.04 222.176 1311.91 222.85 1322.2C222.915 1323.16 223.18 1324.09 223.626 1324.94C224.072 1325.79 224.691 1326.54 225.442 1327.13C226.194 1327.73 227.061 1328.16 227.99 1328.4C228.918 1328.65 229.886 1328.69 230.833 1328.54Z" stroke="#1A1818" stroke-width="1.5" stroke-miterlimit="10" stroke-linecap="round"/>
<path d="M268.756 1328.54C272.32 1327.96 274.412 1324.74 274.529 1321.13C274.92 1309.5 276.281 1307.34 273.918 1292.68C271.164 1275.62 267.07 1276.28 264.318 1259.21C262.036 1245.06 264.464 1242.19 263.792 1231.9C263.726 1230.94 263.46 1230.01 263.013 1229.16C262.566 1228.31 261.947 1227.57 261.196 1226.97C260.444 1226.38 259.577 1225.94 258.649 1225.7C257.721 1225.46 256.753 1225.41 255.806 1225.57C252.241 1226.14 250.241 1229.37 250.032 1232.97C249.357 1244.53 248.283 1246.76 250.643 1261.41C253.397 1278.48 257.491 1277.82 260.243 1294.89C262.525 1309.04 260.098 1311.91 260.773 1322.2C260.838 1323.16 261.102 1324.09 261.549 1324.94C261.995 1325.79 262.614 1326.54 263.365 1327.13C264.116 1327.73 264.984 1328.16 265.912 1328.4C266.841 1328.65 267.81 1328.69 268.756 1328.54Z" stroke="#1A1818" stroke-width="1.5" stroke-miterlimit="10" stroke-linecap="round"/>
<path d="M306.561 1328.54C310.126 1327.96 312.217 1324.74 312.335 1321.13C312.725 1309.5 314.087 1307.34 311.724 1292.68C308.97 1275.62 304.876 1276.28 302.124 1259.21C299.842 1245.06 302.269 1242.19 301.597 1231.9C301.531 1230.94 301.265 1230.01 300.818 1229.16C300.371 1228.31 299.752 1227.57 299.001 1226.97C298.249 1226.38 297.382 1225.94 296.454 1225.7C295.526 1225.46 294.558 1225.41 293.611 1225.57C290.046 1226.14 288.046 1229.37 287.837 1232.97C287.162 1244.53 286.088 1246.76 288.448 1261.41C291.202 1278.48 295.296 1277.82 298.048 1294.89C300.33 1309.04 297.903 1311.91 298.577 1322.2C298.642 1323.16 298.907 1324.09 299.353 1324.94C299.799 1325.79 300.418 1326.54 301.17 1327.13C301.921 1327.73 302.789 1328.16 303.717 1328.4C304.646 1328.65 305.614 1328.69 306.561 1328.54Z" stroke="#1A1818" stroke-width="1.5" stroke-miterlimit="10" stroke-linecap="round"/>
<path d="M349.362 1184.94C347.406 1185.86 345.264 1186.31 343.104 1186.26H50.6992C46.6835 1186.26 42.7072 1185.47 38.9973 1183.93C35.2873 1182.4 31.9164 1180.14 29.077 1177.3C26.2375 1174.46 23.9852 1171.09 22.4485 1167.38C20.9119 1163.67 20.121 1159.7 20.1212 1155.68V809.053C20.121 805.037 20.9119 801.061 22.4485 797.351C23.9852 793.641 26.2375 790.27 29.077 787.43C31.9164 784.591 35.2873 782.338 38.9973 780.801C42.7072 779.265 46.6835 778.474 50.6992 778.474H236.988C241.004 778.474 244.98 779.264 248.69 780.801C252.401 782.338 255.772 784.59 258.611 787.43C261.451 790.269 263.703 793.64 265.24 797.351C266.776 801.061 267.567 805.037 267.567 809.053V1035.2C267.567 1037.81 267.054 1040.39 266.057 1042.8C265.059 1045.21 263.597 1047.39 261.755 1049.24C259.912 1051.08 257.724 1052.54 255.317 1053.54C252.909 1054.54 250.328 1055.05 247.722 1055.05H70.3752C67.7691 1055.05 65.1885 1054.54 62.7808 1053.54C60.3731 1052.54 58.1855 1051.08 56.3427 1049.24C54.4999 1047.39 53.0381 1045.21 52.0408 1042.8C51.0435 1040.39 50.5302 1037.81 50.5302 1035.2V801.164C50.5302 783.887 43.6669 767.317 31.4503 755.101C19.2336 742.884 2.66421 736.021 -14.6128 736.021H-318.199C-340.193 736.022 -361.286 744.759 -376.839 760.311L-385.167 768.639C-387.828 771.299 -391.437 772.794 -395.2 772.793C-398.963 772.793 -402.572 771.297 -405.232 768.636C-407.893 765.975 -409.387 762.366 -409.387 758.603C-409.386 754.84 -407.891 751.231 -405.23 748.571L-364.95 708.294L-355.717 699.058L-353.172 696.534C-347.91 691.233 -341.654 687.024 -334.762 684.147C-327.87 681.27 -320.478 679.782 -313.01 679.769C-305.541 679.755 -298.144 681.217 -291.241 684.069C-284.339 686.921 -278.068 691.108 -272.787 696.389C-267.507 701.671 -263.321 707.943 -260.47 714.846C-257.62 721.749 -256.16 729.146 -256.175 736.615C-256.19 744.083 -257.679 751.475 -260.557 758.367C-263.436 765.258 -267.646 771.513 -272.948 776.774L-276.631 780.469" stroke="#1A1818" stroke-width="1.5" stroke-miterlimit="10"/>
<path d="M-57.0166 952.062C-47.6806 975.702 -34.5026 1018.49 -49.3576 1068.44C-54.9466 1087.25 -54.7656 1107.24 -43.4386 1123.27L-5.10858 1177.52C-3.5512 1179.72 -2.62935 1182.31 -2.44366 1185C-2.25798 1187.7 -2.81559 1190.39 -4.05566 1192.78C-5.29574 1195.18 -7.17057 1197.19 -9.47534 1198.59C-11.7801 1200 -14.4262 1200.74 -17.1246 1200.74H-31.9936C-36.1579 1200.74 -40.151 1202.4 -43.0952 1205.34C-46.0393 1208.29 -47.6933 1212.28 -47.6936 1216.45L-47.9626 1317.98V1320.17C-47.9626 1333.36 -42.7256 1346 -33.4039 1355.32C-24.0821 1364.64 -11.4391 1369.88 1.7439 1369.88C14.9269 1369.88 27.5699 1364.64 36.8917 1355.32C46.2135 1346 51.4504 1333.36 51.4504 1320.17V1151.22C51.3522 1142.63 52.957 1134.1 56.172 1126.12C59.387 1118.15 64.1488 1110.89 70.1826 1104.77C76.2163 1098.65 83.4027 1093.78 91.3273 1090.45C99.2518 1087.11 107.758 1085.38 116.354 1085.36C124.951 1085.33 133.468 1087 141.414 1090.28C149.36 1093.56 156.579 1098.38 162.653 1104.46C168.727 1110.55 173.537 1117.77 176.804 1125.72C180.072 1133.68 181.733 1142.2 181.691 1150.79V1154.88C181.692 1156.81 181.311 1158.73 180.571 1160.51C179.831 1162.3 178.747 1163.92 177.38 1165.29C176.013 1166.66 174.39 1167.74 172.603 1168.48C170.817 1169.22 168.903 1169.6 166.969 1169.6C158.838 1169.6 153.63 1163.31 152.244 1154.88C149.475 1120.75 172.253 1110.19 196.936 1110.19H355.527C361.88 1110.71 367.787 1113.66 372.026 1118.42C376.264 1123.18 378.507 1129.38 378.29 1135.75V1171.67C378.291 1174.31 377.772 1176.93 376.762 1179.36C375.752 1181.8 374.272 1184.02 372.405 1185.89C370.539 1187.75 368.323 1189.24 365.884 1190.25C363.445 1191.26 360.83 1191.78 358.19 1191.78" stroke="#1A1818" stroke-width="1.5" stroke-miterlimit="10" stroke-linecap="round"/>
<path d="M130.019 812.31H82.6733V871.422H130.019V812.31Z" stroke="#1A1818" stroke-width="1.5" stroke-linecap="round" stroke-linejoin="round"/>
<path d="M-2274.51 1325.08L-684.874 1325.34C-681.489 1325.34 -678.137 1324.68 -675.01 1323.39C-671.882 1322.09 -669.04 1320.2 -666.646 1317.8C-664.251 1315.41 -662.352 1312.57 -661.056 1309.45C-659.76 1306.32 -659.094 1302.97 -659.094 1299.58V1216.44C-659.094 1212.28 -660.748 1208.29 -663.692 1205.34C-666.636 1202.4 -670.63 1200.74 -674.794 1200.74H-689.658C-692.357 1200.74 -695.003 1200 -697.308 1198.6C-699.613 1197.19 -701.489 1195.18 -702.729 1192.79C-703.969 1190.39 -704.527 1187.7 -704.341 1185C-704.155 1182.31 -703.233 1179.72 -701.675 1177.52L-663.35 1123.27C-652.023 1107.25 -651.841 1087.25 -657.431 1068.44C-674.885 1009.74 -653.636 960.94 -645.394 941.474C-632.545 911.128 -613.317 890.274 -591.323 876.18C-531.909 838.054 -452.262 849.139 -423.348 854.937L-412.273 857.452C-312.918 883.561 -248.452 1020.28 -311.005 1162.1C-318.264 1178.56 -324.904 1193.66 -330.926 1207.37C-335.458 1217.58 -337.309 1228.77 -336.303 1239.89V1239.9C-333.346 1272.31 -306.308 1300.12 -270.356 1300.12H210.124C211.072 1300.12 212.011 1300.3 212.887 1300.67C213.763 1301.03 214.56 1301.56 215.23 1302.23C215.9 1302.9 216.432 1303.7 216.795 1304.57C217.158 1305.45 217.344 1306.39 217.344 1307.34V1323.02C217.344 1326.23 218.619 1329.31 220.889 1331.58C223.159 1333.85 226.237 1335.12 229.447 1335.12C232.657 1335.12 235.736 1333.85 238.005 1331.58C240.275 1329.31 241.55 1326.23 241.55 1323.02V1308.31C241.572 1306.5 242.307 1304.77 243.595 1303.5C244.883 1302.23 246.621 1301.51 248.432 1301.51C250.243 1301.51 251.98 1302.23 253.269 1303.5C254.557 1304.77 255.291 1306.5 255.313 1308.31V1323.02C255.313 1326.23 256.588 1329.31 258.858 1331.58C261.128 1333.85 264.207 1335.12 267.417 1335.12C270.627 1335.12 273.706 1333.85 275.976 1331.58C278.246 1329.31 279.521 1326.23 279.521 1323.02V1308.94C279.521 1307.1 280.254 1305.33 281.559 1304.03C282.864 1302.72 284.633 1301.99 286.478 1301.99C288.323 1301.99 290.093 1302.72 291.398 1304.03C292.702 1305.33 293.435 1307.1 293.435 1308.94V1323.06C293.435 1324.65 293.747 1326.21 294.354 1327.68C294.96 1329.14 295.848 1330.47 296.968 1331.59C298.088 1332.71 299.418 1333.6 300.881 1334.21C302.345 1334.81 303.913 1335.12 305.497 1335.12C307.081 1335.12 308.65 1334.81 310.113 1334.21C311.577 1333.6 312.906 1332.71 314.026 1331.59C315.146 1330.47 316.035 1329.14 316.641 1327.68C317.247 1326.21 317.559 1324.65 317.559 1323.06V1301.36H1364.51" stroke="#1A1818" stroke-width="1.5" stroke-miterlimit="10" stroke-linecap="round"/>
<path d="M267.567 815.174H295.674C302.676 815.174 309.391 817.955 314.342 822.906C319.293 827.857 322.074 834.572 322.074 841.574V1049.8C322.075 1053.27 321.393 1056.7 320.066 1059.91C318.74 1063.11 316.796 1066.02 314.344 1068.47C311.893 1070.93 308.982 1072.87 305.779 1074.2C302.575 1075.53 299.142 1076.21 295.674 1076.21H140.435C134.356 1076.21 128.463 1074.11 123.75 1070.27C119.038 1066.43 115.795 1061.08 114.568 1055.13" stroke="#1A1818" stroke-width="1.5" stroke-linecap="round" stroke-linejoin="round"/>
<path d="M199.493 871.987C218.056 871.987 233.104 856.938 233.104 838.376C233.104 819.813 218.056 804.765 199.493 804.765C180.93 804.765 165.882 819.813 165.882 838.376C165.882 856.938 180.93 871.987 199.493 871.987Z" fill="#FFFDF7" stroke="#1A1818" stroke-width="1.5" stroke-linecap="round" stroke-linejoin="round"/>
<path d="M222.7 838.374C222.7 842.962 221.34 847.448 218.79 851.263C216.241 855.078 212.618 858.052 208.379 859.808C204.139 861.564 199.475 862.023 194.974 861.128C190.474 860.233 186.34 858.023 183.095 854.779C179.851 851.534 177.641 847.4 176.746 842.9C175.851 838.4 176.31 833.735 178.066 829.496C179.822 825.256 182.796 821.633 186.611 819.084C190.426 816.534 194.912 815.174 199.5 815.174C205.653 815.174 211.554 817.618 215.905 821.969C220.256 826.32 222.7 832.221 222.7 838.374Z" stroke="#1A1818" stroke-width="1.5" stroke-linecap="round" stroke-linejoin="round"/>
</g>
<defs>
<clipPath id="clip0_460_14932">
<rect width="375" height="1385" fill="white" transform="translate(0 0.257812)"/>
</clipPath>
</defs>
</svg>
